<svg enable-background="new 0 0 288 288" viewBox="0 0 288 288" xmlns="http://www.w3.org/2000/svg"><path d="m1195.9-475.2c-.1-2.7-.2-5.4-.5-8 0-.2 0-.3 0-.5-.1-.9-.2-1.8-.3-2.7 0-.3-.1-.7-.1-1-.1-.7-.2-1.4-.3-2.2 0-.3-.1-.5-.1-.8-.6-4.1-1.4-8.2-2.4-12.2v-.1c-1.5-6-3.4-11.8-5.6-17.4 0-.1-.1-.2-.1-.3-.4-1-.8-2-1.3-3.1 0-.1-.1-.2-.1-.3-.8-1.9-1.7-3.8-2.7-5.7-.1-.1-.1-.3-.2-.4-.4-.8-.8-1.6-1.2-2.3-.1-.1-.1-.2-.2-.4-.8-1.5-1.7-3.1-2.6-4.6-.1-.2-.3-.5-.4-.7-.9-1.5-1.8-3-2.8-4.4-.1-.2-.3-.4-.4-.6-.4-.7-.9-1.3-1.3-1.9-.1-.2-.2-.4-.4-.5-1-1.5-2.1-3-3.2-4.4-.6-.8-1.2-1.6-1.9-2.4-.1-.1-.1-.2-.2-.2-.6-.8-1.3-1.5-1.9-2.3-1.3-1.5-2.6-3-3.9-4.4l-.2-.2.2-.2-3.3-3.1-3.1-3.3-.2.2-.2-.2c-1.4-1.3-2.9-2.6-4.4-3.9-.8-.6-1.5-1.3-2.3-1.9-.1-.1-.2-.1-.2-.2-.8-.6-1.6-1.3-2.4-1.9-1.5-1.1-2.9-2.2-4.4-3.2-.2-.1-.4-.3-.5-.4-.6-.4-1.3-.9-1.9-1.3-.2-.1-.4-.3-.6-.4-1.5-1-2.9-1.9-4.4-2.8-.2-.1-.5-.3-.7-.4-1.5-.9-3-1.8-4.6-2.6-.1-.1-.2-.1-.4-.2-.8-.4-1.6-.8-2.3-1.2-.1-.1-.3-.1-.4-.2-1.9-.9-3.8-1.8-5.7-2.7-.1 0-.2-.1-.3-.1-1-.4-2-.9-3.1-1.3-.1 0-.2-.1-.3-.1-5.6-2.3-11.4-4.2-17.4-5.6h-.1c-4-1-8-1.8-12.2-2.4-.3 0-.5-.1-.8-.1-.7-.1-1.4-.2-2.2-.3-.3 0-.7-.1-1-.1-.9-.1-1.8-.2-2.7-.3-.2 0-.3 0-.5 0-2.7-.2-5.3-.4-8-.5-1.1 0-2.1 0-3.2 0-70.7 0-128 57.3-128 128v3.2c.1 2.7.2 5.4.5 8v.5c.1.9.2 1.8.3 2.7 0 .3.1.7.1 1 .1.7.2 1.4.3 2.2 0 .3.1.5.1.8.3 1.9.6 3.7.9 5.5v.2c.4 2.1.9 4.3 1.4 6.4v.1c1.5 6 3.4 11.8 5.6 17.4 0 .1.1.2.1.3.4 1 .8 2 1.3 3.1 0 .1.1.2.1.3.8 1.9 1.7 3.8 2.7 5.7.1.1.1.3.2.4.4.8.8 1.6 1.2 2.3.1.1.1.2.2.4.8 1.5 1.7 3.1 2.6 4.6.1.2.3.5.4.7.4.6.8 1.3 1.1 1.9 0 .1.1.1.1.2 1 1.7 2.1 3.3 3.2 4.9.1.2.2.4.4.5 1 1.5 2.1 3 3.2 4.4.6.8 1.2 1.6 1.9 2.4.1.1.1.2.2.2.6.8 1.3 1.5 1.9 2.3 1.3 1.5 2.6 3 3.9 4.4l.2.2-.2.2 3.3 3.1 3.1 3.3.2-.2.2.2c1.4 1.3 2.9 2.6 4.4 3.9.8.6 1.5 1.3 2.3 1.9.1.1.2.1.2.2.8.6 1.6 1.3 2.4 1.9 1.5 1.1 2.9 2.2 4.4 3.2.2.1.4.3.5.4 1.6 1.1 3.3 2.2 4.9 3.2.1 0 .1.1.2.1.6.4 1.2.8 1.9 1.1.2.1.5.3.7.4 1.5.9 3 1.7 4.6 2.6.1.1.2.1.4.2.8.4 1.6.8 2.3 1.2.1.1.3.1.4.2 1.9.9 3.8 1.8 5.7 2.7.1 0 .2.1.3.1 1 .4 2 .9 3.1 1.3.1 0 .2.1.3.1 5.6 2.3 11.4 4.2 17.4 5.6h.1c2.1.5 4.2 1 6.4 1.4h.2c1.8.3 3.7.7 5.5.9.3 0 .5.1.8.1.7.1 1.4.2 2.2.3.3 0 .7.1 1 .1l2.7.3h.5c2.7.2 5.3.4 8 .5h3.2c70.7 0 128-57.3 128-128 .2-.9.2-1.9.2-3zm-98-5.4c2.5 1.7 3.2 5.1 1.6 7.6-1.7 2.5-5.1 3.2-7.6 1.6-1.2-.8-1.9-1.9-2.3-3.2l6.7-6.7c.6.2 1.1.4 1.6.7zm-23.1 41.7c-2 3-6 3.8-9 1.8s-3.8-6-1.8-9 6-3.8 9-1.8c3.1 2 3.8 6 1.8 9zm74-120.4-48.8 48.8-70.6 70.6-48.8 48.8c-19.6-21.2-31.6-49.7-31.6-80.9 0-65.7 53.3-119 119-119 31.2 0 59.7 12 80.8 31.7zm-161.8 174.6 39.8-39.8-2.6 4.2c-1.3 2.1-.6 4.9 1.5 6.2.7.4 1.5.7 2.3.7h.4c1.4-.1 2.6-.9 3.4-2.1l2-3.3 7.8-12.7c1.1.6 2.2 1.1 3.4 1.6.3.1.5.2.8.3 3 1.2 6.4 1.7 9 3.8 1.8 1.4 3 3.6 3.6 5.8 1.1 4.3.2 8.8.1 13.2 0 1-.5 1.8-1.3 2.4-3.8 2.7-5.7 8.1-2.7 13.9.1.3.3.5.6.8 7.2 6.9 16.7 2.6 17.9-5.1.6-3.9-1.2-7.5-4.1-9.6-.8-.6-1.3-1.5-1.3-2.4 0-4.2-1.2-11 .6-14.8.5-1 1.3-1.8 2.1-2.5 3.6-2.9 8.1-4.5 12.6-6.2l8.9 16.7c.8 1.5 2.4 2.4 4 2.4.7 0 1.4-.2 2.1-.5 2.2-1.2 3-3.9 1.9-6.1l-8.7-16.3c.1-.1.2-.1.3-.2 4.9-3.3 9.2-7.4 12.7-12.2l14.5 8.9c.7.4 1.5.7 2.3.7 1.5 0 3-.8 3.8-2.2 1.3-2.1.6-4.9-1.5-6.2l-14.1-8.6c2.4-2.4 5.7-3.8 9.1-4.1 5.2-.5 10.4 1.1 15.4 2.2.9.2 1.6.9 2 1.7 1.3 3.1 4.2 5.5 7.8 6 7.7 1.1 14.6-6.8 10-15.7-.1-.3-.3-.6-.6-.8-5-4.8-11-4.2-14.7-.9-.7.6-1.7.9-2.6.7-4.5-1-11.6-1.2-15.5-3.7-1.2-.8-2.1-1.9-2.8-3.1-2.1-3.4-3.1-7.1-3.9-10.9l16.6-4c2.4-.6 3.9-3 3.3-5.4s-3-3.9-5.4-3.3l-16.6 4c-.4-1.2-.8-2.3-1.3-3.5-1.2-2.9-2.6-5.7-4.3-8.4l49.5-49.5c19.8 20.9 31.8 49.4 31.8 80.6 0 65.7-53.3 119-119 119-31.1 0-59.7-12-80.9-31.7z"/><path d="m1054.2-557.4c-.6 3.8 1.1 7.4 4 9.5.8.6 1.3 1.4 1.3 2.4 0 3.5 1.2 10.1-.3 13.2-.3.6-.8 1.1-1.3 1.5-3.8 3.3-8.3 5.6-12.7 8-.1 0-.2.1-.3.1-.3.1-.6.2-.8.4l-8.7-16.3c-1.2-2.2-3.9-3-6.1-1.9-2.2 1.2-3 3.9-1.9 6.1l8.7 16.3c-2.7 1.8-5.3 3.9-7.7 6.2-1.7 1.7-3.1 3.6-4.5 5.6l-17.4-10.6c-2.1-1.3-4.9-.6-6.2 1.5s-.6 4.9 1.5 6.2l16.9 10.2c-.8.9-1.6 1.7-2.6 2.4-4.1 3.1-7.3 3.8-12.4 2.6-2.9-.7-10.8-1-12.1-4.1-2.1-5-8.3-8.1-15-4.6-.3.1-.5.3-.8.6-6.9 7.2-2.6 16.7 5.1 17.9 3.1.4 6.1-.6 8.2-2.5.7-.6 1.6-.9 2.5-.7 4.6 1 9.3.9 13.8 2 6.4 1.7 7.5 4.6 8.3 10.8.3 2.2.5 4.4.8 6.5l-19.4 4.7c-2.4.6-3.9 3-3.3 5.4.5 2.1 2.3 3.4 4.4 3.4.4 0 .7 0 1.1-.1l19.4-4.7c1.6 4.5 3.9 8.9 6.8 12.7l70.4-70.4 9.3-15.3c1.3-2.1.6-4.9-1.5-6.2s-4.9-.6-6.2 1.5l-9.7 15.8c-4.8-2.1-10.1-3.2-14.2-6.5-1-.8-1.9-1.7-2.5-2.9-1.9-3.9-.6-10.8-.6-15 0-1 .5-1.8 1.3-2.4 3.9-2.7 5.8-8.1 2.8-14-.1-.3-.3-.5-.6-.8-7.2-6.6-16.7-2.2-17.8 5.5zm-23.8 77.4c-3 0-5.5-2.5-5.5-5.5s2.5-5.5 5.5-5.5 5.5 2.5 5.5 5.5-2.5 5.5-5.5 5.5zm37.3-14.6c-2.4 3.7-7.4 4.7-11.1 2.3s-4.7-7.4-2.3-11.1 7.4-4.7 11.1-2.3c3.7 2.5 4.7 7.4 2.3 11.1z"/><path d="m271.1-906c-.9-1.3-2.4-2.1-4-2-32.2 1.7-84.3 20.7-86.5 21.6-1.2.4-2.1 1.4-2.6 2.6l-6 15-7.9-7.9c-1.4-1.4-3.6-1.7-5.3-.8-4 2.2-39.3 21.7-46 29.8-4.2 5.1-7.4 16.6-9.4 25.6l-6.7-11.2c-.7-1.2-2-2-3.3-2.2-1.4-.2-2.8.3-3.7 1.3-.5.5-11.9 12.4-20.8 30.2-11.9 23.8-13.6 46.8-4.8 66.7-15.9 23.5-30.9 49.3-47.4 78.6-1.2 2.2-.5 4.9 1.7 6.1.7.4 1.5.6 2.2.6 1.6 0 3.1-.8 3.9-2.3 15.7-27.7 29.9-52.4 44.8-74.7 5.3 5.8 12.7 8.8 22.1 8.8h1.9c24.2-1 54.4-20.3 70.2-31.7 19.3-13.9 40.7-33.3 44.3-43.5.4-1.1.3-2.4-.2-3.5s-1.5-1.9-2.6-2.3l-20.2-6.7 40.7-5.8c1.5-.2 2.7-1.1 3.4-2.4l42.5-85.4c.7-1.4.6-3.1-.3-4.5zm-49.3 83.5-57.3 8.2c-2.1.3-3.7 2-3.8 4.1-.2 2.1 1.1 4 3.1 4.7l33.2 11.1c-5.6 7.9-20.1 21.7-38.8 35.2-25.5 18.4-49.4 29.3-65.3 30-8.5.4-14.5-2.1-18.3-7.5 7.2-10.4 14.6-20.2 22.5-29.7 29.5-35.4 62.6-61.4 104.3-81.8 2.2-1.1 3.2-3.8 2.1-6s-3.8-3.2-6-2.1c-42.9 21-76.9 47.8-107.2 84.2-7 8.3-13.5 17-19.9 26-10.5-32.7 12.5-65.5 22-77.2l9.6 16c1 1.6 2.9 2.5 4.7 2.1 1.9-.4 3.3-1.8 3.6-3.7 1.6-10.2 5.6-28.1 9.7-33 3.9-4.8 25.7-17.8 40.5-26l10 10.2c1.1 1.1 2.6 1.5 4.1 1.2s2.7-1.3 3.3-2.7l7.8-19.4c8.8-3.1 46.6-16.2 74.1-19.6z"/><g fill="none" stroke="#000" stroke-miterlimit="10" stroke-width="9"><path d="m462.6-875.5 21.2 21.3"/><path d="m505-833 21.2 21.2"/><path d="m547.5-790.6 21.2 21.2"/><path d="m441.4-875.5 21.2-21.2"/><path d="m483.8-833 21.2-21.2"/><path d="m526.2-790.6 21.3-21.2"/><path d="m526.2-748.2 21.3-21.2"/><path d="m483.8-705.8 21.2-21.2"/><path d="m441.4-663.3 21.2-21.2"/><path d="m420.2-875.5 21.2 21.3"/><path d="m462.6-833 21.2 21.2"/><path d="m505-790.6 21.2 21.2"/><path d="m441.4-833 21.2-21.2"/><path d="m483.8-790.6 21.2-21.2"/><path d="m420.2-833 21.2 21.2"/><path d="m462.6-790.6 21.2 21.2"/><path d="m505-748.2 21.2 21.2"/><path d="m399-833 21.2-21.2"/><path d="m441.4-790.6 21.2-21.2"/><path d="m483.8-748.2 21.2-21.2"/><path d="m377.8-833 21.2 21.2"/><path d="m420.2-790.6 21.2 21.2"/><path d="m462.6-748.2 21.2 21.2"/><path d="m399-790.6 21.2-21.2"/><path d="m441.4-748.2 21.2-21.2"/><path d="m377.8-790.6 21.2 21.2"/><path d="m420.2-748.2 21.2 21.2"/><path d="m462.6-705.8 21.2 21.3"/><path d="m356.5-790.6 21.3-21.2"/><path d="m399-748.2 21.2-21.2"/><path d="m441.4-705.8 21.2-21.2"/><path d="m335.3-790.6 21.2 21.2"/><path d="m377.8-748.2 21.2 21.2"/><path d="m420.2-705.8 21.2 21.3"/><path d="m356.5-748.2 21.3-21.2"/><path d="m399-705.8 21.2-21.2"/></g><path d="m859.9-665c-1.2.3-2.5.3-3.8.3-10.7 0-21.4 0-32.1 0h-62c-30 0-60.1 0-90.1 0-7.3 0-14.5-1-21.2-4.1-11.1-5.3-18-13.7-18.3-26.4-.1-3 .8-6.2 1.9-9.1 2-5.1 5.9-7.7 11.5-7.8 12.3-.2 24.6-1.5 36.8-3.6 12.3-2.2 23.8-7 35-12.3 16-7.6 31.3-16.5 44.8-28.1 5.2-4.4 9.8-9.5 14.3-14.6 4.3-4.8 5.8-10.8 6.6-17.1 0-.1 0-.2 0-.4 2.2.6 5.2 1.2 9.4 1.7-.5 4.8-1.6 9.5-4 13.7-2.6 4.7-5.8 9.2-9.4 13.2-11.7 12.9-26 22.5-41 31.1-11.7 6.7-23.9 12.5-36.7 17.1-10 3.6-20.2 5.7-30.7 6.7-8.2.8-16.5 1.4-24.8 1.9-2.1.1-3.2 1.1-3.8 2.9-1.7 5.6-.4 10.6 2.9 15.2 4.3 6.1 10.5 8.8 17.5 9.9 3.2.5 6.5.8 9.8.8h114.4 14.9 21.7 14.8 16.1c9.5 0 22.2-7.2 23.3-21.5.8-9.7-1.6-18.8-5-27.7-3.1-8-6.7-15.8-9.5-23.8-4-11.4-4.6-23.3-4.6-35.3v-4.1c.9-.1 1.8-.2 2.6-.4 1.5-.2 4.1-.7 6.8-1.7v8.6c-.1 15.9 3.2 30.9 10 45.3 4.7 9.8 8.2 20 9.1 30.9 1.9 19-7.4 34.4-27.2 38.7z"/><path d="m888.6-896-.6-3.8h-129.2l-.4 4c-.1.9-2.1 21.3 4.6 50.5l1.2 5.2c6.2 27.2 9.6 42.2 12.8 47.7.8 1.4 2.2 2.9 6.5 4.1 2.2.6 5.2 1.2 9.4 1.7 2.3.3 4.9.5 7.9.8.8.1 1.5.1 2.4.2 2.3.1 4.6.3 6.7.4 7.4.3 13.4.3 13.8.3 5.1 0 9.6 0 13.7-.1 3.3-.1 6.3-.2 9-.3 5-.2 9-.6 12.4-1 .9-.1 1.8-.2 2.6-.4 1.5-.2 4.1-.7 6.8-1.7 4.2-1.5 8.4-4.3 8.4-9.7 0-.7 0-1.6 0-2.8-.1-9.5-.5-34.6 6.6-52.6 8.6-21.6 5.6-41.7 5.4-42.5zm-13.8 39.3c-4 9.9-5.8 21.7-6.7 32.1-.8 10.1-.7 19-.6 23.9v2.6c-.2.3-1.7 1.7-8.8 2.7-.5.1-1.1.2-1.8.2-3.5.4-7.9.8-13.3 1s-12 .3-20 .3h-.1c-10.5 0-22.2-.6-30.2-1.6-4.3-.5-7.5-1.2-8.9-1.9 0-.1-.1-.2-.2-.3-2.5-5.4-6.3-21.9-11.4-44.4l-1.2-5.2c-4.6-20.3-4.9-36.3-4.6-43.5h113c.5 6.4.5 19.9-5.2 34.1z"/><path d="m802-674c-5 0-9.9 0-14.9 0 1.2 0 3.4 0 5.5-2.4 13.9-15.5 10.8-81.3 8.1-109.3.8.1 1.5.1 2.4.2 2.3.1 4.6.3 6.7.4 1.9 19.8 6.9 87.1-7.8 111.1z"/><path d="m838.5-673.9c-4.9 0-9.9 0-14.8 0 1.2 0 3.4 0 5.5-2.4 13.8-15.3 10.9-80.2 8.2-108.7 3.3-.1 6.3-.2 9-.3 1.8 19.8 6.8 87.4-7.9 111.4z"/><path d="m1002.6-761h-10.6c5.1 7.8 9.4 16.3 11.6 27.4 4.6 23.1-1.9 48.9-19.4 76.7l7.6 4.8c18.7-29.8 25.7-57.8 20.6-83.3-2-10.1-5.6-18.3-9.8-25.6z"/><path d="m963.6-813.6c2 10.1 5.6 18.3 9.9 25.6h10.5c-5.1-7.8-9.4-16.3-11.6-27.4-3.3-16.4-.9-34.3 7-53.2l18.7 6.8-4.1-23.1-4-23.1-18 15.1-18 15.1 16.9 6.2c-8.4 20.4-10.9 39.9-7.3 58z"/><path d="m1082.6-761h-10.6c5.1 7.8 9.4 16.3 11.6 27.4 4.6 23.1-1.9 48.9-19.4 76.7l7.6 4.8c18.7-29.8 25.7-57.8 20.6-83.3-2-10.1-5.6-18.3-9.8-25.6z"/><path d="m1043.6-813.6c2 10.1 5.6 18.3 9.9 25.6h10.6c-5.1-7.8-9.4-16.3-11.6-27.4-3.3-16.4-.9-34.3 7-53.2l18.6 6.8-4.1-23.1-4.1-23.1-18 15.1-18 15.1 17 6.2c-8.5 20.4-10.9 39.9-7.3 58z"/><path d="m1162.6-761h-10.6c5.1 7.8 9.4 16.3 11.6 27.4 4.6 23.1-1.9 48.9-19.4 76.7l7.6 4.8c18.7-29.8 25.7-57.8 20.6-83.3-2-10.1-5.6-18.3-9.8-25.6z"/><path d="m1123.6-813.6c2 10.1 5.6 18.3 9.9 25.6h10.6c-5.1-7.8-9.4-16.3-11.6-27.4-3.3-16.4-.9-34.2 7-53.2l18.5 6.7-4.1-23.1-4.1-23.1-18 15.1-18 15.1 17.1 6.2c-8.4 20.5-10.9 40-7.3 58.1z"/><path d="m1150.3-779h-11.1-68.9-11.1-68.9-11.1-39.2v9h45.7 11.1 68.9 11.1 68.9 11.1 39.2v-9z"/><path d="m66.3-471h-11.1-39.2v9h45.7 11.1 34.4c.6-3 1-6 1.5-9z"/><path d="m232.8-462h39.2v-9h-45.7-11.1-35.9c.4 3 .9 6 1.5 9h40.9z"/><path d="m154.1-462h-20c.5-3 1-6 1.4-9h17.3c.4 3 .8 6 1.3 9z"/><path d="m223.1-349.1-6.8 5.1c-32.7-43.8-47-82.5-53-118-.5-3-1-6-1.4-9-2.6-19-3-37.1-2.9-54.7v-4.3h27.5l-42.5-55.9-42.5 55.9h28.5v4.3c-.2 17.6-.9 35.7-3.6 54.7-.4 3-.9 6-1.4 9-6.3 35.5-20.6 74.2-53.3 118l-6.8-5.1c31.5-42.3 45.4-78.8 51.4-112.9.5-3 1-6 1.4-9 2.4-17.1 3-33.6 3.1-50h-36.5l59.7-79 59.7 79h-36.5c.1 16.4.7 32.9 3.1 50 .4 3 .9 6 1.4 9 6 34.1 19.9 70.6 51.4 112.9z"/><path d="m145-351.3c-13.3 0-24-10.7-24.5-24.3-.3-8.3 5.3-17.5 11.2-27.2 3.5-5.7 7.1-11.7 9-16.9l4-10.9 4.4 10.7c2.2 5.3 5.6 10.9 9 16.4 6 9.7 11.6 18.9 11.3 27.8-.4 13.7-11.1 24.4-24.4 24.4zm.1-56.5c-1.8 3.2-3.7 6.4-5.6 9.6-5 8.2-10.1 16.6-9.9 22.3.3 8.8 7.1 15.6 15.5 15.6s15.2-6.9 15.5-15.6c.2-6.3-5-14.7-10-22.8-1.9-3-3.8-6.1-5.5-9.1z"/><path d="m883.2-511.7h-30.7v-21.9c0-2.5-2-4.5-4.5-4.5h-52.8c-2.5 0-4.5 2-4.5 4.5s2 4.5 4.5 4.5h48.3v21.9c0 2.5 2 4.5 4.5 4.5h30.7v61.4h-30.7c-2.5 0-4.5 2-4.5 4.5v21.9h-43.9c-2.5 0-4.5 2-4.5 4.5s2 4.5 4.5 4.5h48.4c2.5 0 4.5-2 4.5-4.5v-21.9h30.7c2.5 0 4.5-2 4.5-4.5v-70.4c0-2.5-2-4.5-4.5-4.5zm-167.2 96.8h-74.7v-114.2h74.7c2.5 0 4.5-2 4.5-4.5s-2-4.5-4.5-4.5h-79.2c-2.5 0-4.5 2-4.5 4.5v123.2c0 2.5 2 4.5 4.5 4.5h79.2c2.5 0 4.5-2 4.5-4.5s-2-4.5-4.5-4.5z"/><path d="m803.4-485.4c-.8-1.3-2.3-2.1-3.8-2.1h-35.1v-52.7c0-2.1-1.5-3.9-3.5-4.4-2.1-.5-4.2.6-5.1 2.5l-39.6 83.6c-.7 1.4-.6 3 .3 4.3.8 1.3 2.3 2.1 3.8 2.1h35.1v48.3c0 2.1 1.4 3.9 3.5 4.4.3.1.7.1 1 .1 1.7 0 3.2-.9 4-2.5l39.6-79.2c.7-1.4.7-3-.2-4.4zm-38.9 62.6v-33.8c0-2.5-2-4.5-4.5-4.5h-32.5l28-59.1v37.2c0 2.5 2 4.5 4.5 4.5h32.3z"/><path d="m463.2-397.7v-104.8c0-2.5-2-4.5-4.5-4.5s-4.5 2-4.5 4.5v104.8c-4.9 1.8-8.3 6.5-8.3 12 0 7.1 5.8 12.8 12.8 12.8s12.8-5.8 12.8-12.8c0-5.5-3.4-10.2-8.3-12zm-4.5 15.9c-2.1 0-3.8-1.7-3.8-3.8s1.7-3.8 3.8-3.8 3.8 1.7 3.8 3.8-1.7 3.8-3.8 3.8z"/><path d="m409.7-527.8h13c2.5 0 4.5-2 4.5-4.5s-2-4.5-4.5-4.5h-13c-2.5 0-4.5 2-4.5 4.5s2 4.5 4.5 4.5z"/><path d="m409.7-560.1h13c2.5 0 4.5-2 4.5-4.5s-2-4.5-4.5-4.5h-13c-2.5 0-4.5 2-4.5 4.5s2 4.5 4.5 4.5z"/><path d="m409.7-495.4h13c2.5 0 4.5-2 4.5-4.5s-2-4.5-4.5-4.5h-13c-2.5 0-4.5 2-4.5 4.5s2 4.5 4.5 4.5z"/><path d="m409.7-463h13c2.5 0 4.5-2 4.5-4.5s-2-4.5-4.5-4.5h-13c-2.5 0-4.5 2-4.5 4.5s2 4.5 4.5 4.5z"/><path d="m427.2-435.1c0-2.5-2-4.5-4.5-4.5h-13c-2.5 0-4.5 2-4.5 4.5s2 4.5 4.5 4.5h13c2.5 0 4.5-2 4.5-4.5z"/><path d="m482.2-417.8v-151.5c0-18.4-8.7-29.5-23.4-29.5h-.1c-.2 0-.5 0-.7 0-.4 0-.9 0-1.3 0-17.8 1.2-20.6 18.8-20.6 29.5v150.9c-11 7.5-17.5 19.7-17.5 33.1 0 22.1 18 40.1 40.1 40.1s40.1-18 40.1-40.1c.1-12.9-6.1-25-16.6-32.5zm-23.4 63.7c-17.2 0-31.1-14-31.1-31.1 0-10.5 5.2-20.1 13.9-25.9 2.1-.4 3.6-2.2 3.6-4.4v-153.8c0-7.2 2.3-13.7 6.1-17.4 2.1-2.1 4.6-3.1 7.2-3.1h.1c5.7.1 10.5 4.4 12.9 10.7 1.1 2.9 1.7 6.2 1.7 9.8v153.7c0 1.7.9 3.1 2.3 3.9.2.2.4.4.7.6 8.6 5.8 13.8 15.5 13.8 25.8-.1 17.2-14 31.2-31.2 31.2z"/><path d="m458.8-598.8c-.3 0-.6 0-.8 0-.4 0-.9 0-1.3 0-17.8 1.2-20.6 18.8-20.6 29.5v150.9c-11 7.5-17.5 19.7-17.5 33.1 0 22.1 18 40.1 40.1 40.1s40.1-18 40.1-40.1c.1-12.9-6.1-25-16.6-32.5v-151.5c0-18.4-8.7-29.5-23.4-29.5zm0 244.7c-17.2 0-31.1-14-31.1-31.1 0-10.5 5.2-20.1 13.9-25.9 2.1-.4 3.6-2.2 3.6-4.4v-153.8c0-7.2 2.3-13.7 6.1-17.4 2.1-2.1 4.6-3.1 7.2-3.1h.1c5.7.1 10.5 4.4 12.9 10.7 1.1 2.9 1.7 6.2 1.7 9.8v153.7c0 1.7.9 3.1 2.3 3.9.2.2.4.4.7.6 8.6 5.8 13.8 15.5 13.8 25.8-.1 17.2-14 31.2-31.2 31.2z"/><path d="m79.7-232c-6.8 10.4-10.3 20.8-10.3 30.9-.1 13.2 5.6 23.2 11.5 33.8 5.5 9.6 11.1 19.5 12.8 32.3.3 2.6.5 5.2.5 8.1v.9c-.2 13.3-4.7 26.6-13.5 39.6l-.7 1.1-6.3-7.7.4-.6c7.3-10.9 11.2-21.8 11.4-32.4 0-.3 0-.6 0-.9 0-2.8-.2-5.5-.7-8.1-1.7-9.6-6.2-17.5-11-25.9-6.5-11.5-13.3-23.4-13.2-40.3.1-11.9 3.7-23.9 10.9-35.6l-.9-.5-15.6-9 20.3-11.7 20.3-11.7v46.9z"/><path d="m217.1-232c-6.8 10.4-10.3 20.8-10.3 30.9-.1 13.2 5.6 23.2 11.5 33.8 5.5 9.6 11.1 19.5 12.8 32.3.3 2.6.5 5.2.5 8.1v.9c-.2 13.3-4.7 26.6-13.5 39.6l-.7 1.1-6.3-7.6.4-.6c7.3-10.9 11.2-21.8 11.4-32.4 0-.3 0-.6 0-.9 0-2.8-.2-5.5-.7-8.1-1.7-9.6-6.2-17.5-11-25.9-6.5-11.5-13.3-23.4-13.2-40.3.1-11.9 3.7-23.9 10.9-35.6l-.9-.5-15.6-9 20.3-11.7 20.3-11.7v46.9z"/><path d="m148.4-232c-6.8 10.4-10.3 20.8-10.3 30.9-.1 13.2 5.6 23.2 11.5 33.8 5.5 9.6 11.1 19.5 12.8 32.3.3 2.6.5 5.2.5 8.1v.9c-.2 13.3-4.7 26.6-13.5 39.6l-.8 1.1-6.3-7.6.4-.6c7.3-10.9 11.2-21.8 11.4-32.4 0-.3 0-.6 0-.9 0-2.8-.2-5.5-.7-8.1-1.7-9.6-6.2-17.5-11-25.9-6.5-11.5-13.3-23.4-13.2-40.3.1-11.9 3.7-23.9 10.9-35.6l-.9-.5-15.6-9 20.4-11.8 20.3-11.7v46.9z"/><path d="m240.1-135c.3 2.6.5 5.3.5 8.1v.9h16.8l-43.2 74h-180.6l42.8-73.4c0-.5 0-1 0-1.5 0-2.8-.3-5.5-.9-8.1h-3.9l-53.6 92h201.3l53.7-92zm-27.1 0h-41.5c.3 2.6.5 5.3.5 8.1v.9h42c0-.3 0-.6 0-.9-.1-2.9-.5-5.5-1-8.1zm-68.7 0h-41.5c.3 2.6.5 5.3.5 8.1v.9h42c0-.3 0-.6 0-.9-.1-2.9-.4-5.5-1-8.1z"/><path d="m483.1-167.1c13.3-7.7 18.3-20.2 18.5-35.3.4 0 .9-.2 1-.1 12.4 15.8 22.5 32.8 26.2 52.9 4 21.3-1.2 40.7-12.3 58.8-12.5 20.2-29.3 36.4-48.2 50.8.8-.9 1.6-1.8 2.3-2.8 4.7-6.4 10-12.5 14-19.3 10.4-17.4 10.5-35.7 1.4-53.5-4.7-9.2-11.1-17.6-16.8-26.2-2.4-3.7-5.2-7.2-7.8-10.8-7.2-10.4-11.5-21.4-6-34.2-11.3 4.6-22.6 22-26.1 34-4.2 14.4-2.9 28.8-1.3 44.2-8.3-5.2-10.4-12.7-10.9-21-9 6.3-16.9 30.8-15.2 46.2 1.4 12.8 7.2 23.3 23.2 43.7-4.5-3.8-9.1-7.5-13.5-11.5-15-13.5-28.4-28.3-37.9-46.3-13-24.5-12.7-49.2-1.5-74.2 7.1-15.8 17.6-29.3 28.5-42.6 7.7-9.5 15.7-18.9 22.9-28.7 7.3-10 13.4-20.8 12.4-33.8-.5-6.5-2.4-12.8-3.7-18.9 9.6 3.3 27.6 20.7 35.3 32.6 9.1 14.2 15.6 29.4 16.3 46.2.6 16.4-.5 32.9-.8 49.8z"/><path d="m886.6-169.6-58.3-100.9c-2.1-3.4-5.8-5.5-9.9-5.5h-116.7c-4.1-.1-7.8 2-10 5.5l-58.3 100.9c-1.9 3.4-1.9 7.6 0 11l58.3 101.2c2.1 3.5 5.9 5.6 10 5.5h26.6l6.7-44.9-36.4-52.3c-1.8-2.6-1.8-4.3.3-7.5l21.7-33.5c1-1.6 1.7-1.8 2.3-1.8.9.1 1.7.3 2.5.8l36.2 17.3c0 1.5-.4 3-1.2 4.3-2.6 4.6-7.6 7.5-12.9 7.3-4.5-.2-8.9-1.4-12.8-3.7l-1.3-.7-7.2 13.5 1.5.6c19.9 8.6 32.3 25.4 37.8 51.3h2.9l5.1-27.5 17.4 9 19.7-20.4c.4 4.7-.5 9.4-2.6 13.7l-18.4 36.5v37.9h28.5c4.1.1 7.8-2 10-5.5l58.5-101.2c1.9-3.4 1.9-7.5 0-10.9zm-156.5-26.5 11-20.1h.4c4.7 0 17.2 7 17.6 9.2l-11.8 19zm23.5 11 12.3-20.7c4.2 0 18.2 10 18.4 12.3l-16.9 24.3c.7-5.5-.4-9-3.4-10.6zm11.5 30.3 23.8-32.5c4.6 2.5 8.6 5.8 11.9 9.8 2.5 3 3 4.4 2.9 4.7l-26.4 29c-4.8-2.9-9-6.7-12.4-11.1zm25.2 24.2c-3.4-2.2-6.2-5.2-8.3-8.8l24.5-27c4.3 3.3 7.6 7.7 9.6 12.7z"/><path d="m1023.7-36 10.5-69.9-56.8-81.5c-2.8-4.1-2.7-6.8.5-11.7l33.8-52.2c1.5-2.5 2.7-2.8 3.6-2.8 1.4.1 2.7.5 3.9 1.2l56.4 27c.1 2.4-.6 4.7-1.9 6.7-4 7.2-11.8 11.6-20.1 11.4-7-.3-13.8-2.2-19.9-5.7l-2.1-1.1-11.1 21 2.3.9c31 13.5 50.3 39.5 58.8 79.9h4.5l8-42.9 27.1 14 30.7-31.7c.6 7.3-.8 14.7-4 21.4l-28.6 56.9v59.1m-92.8-224.6 17.2-31.4h.7c7.4 0 26.8 10.9 27.4 14.4l-18.3 29.5zm36.7 17.1 19.2-32.2c6.6 0 28.3 15.5 28.6 19.2l-26.3 37.9c1.1-8.6-.7-14-5.3-16.5zm17.9 47.2 37.1-50.7c7.1 3.8 13.5 9 18.6 15.3 3.9 4.6 4.6 6.9 4.5 7.4l-41.1 45.2c-7.4-4.6-14-10.4-19.3-17.3zm39.2 37.7c-5.3-3.5-9.7-8.1-12.9-13.6l38.2-42.1c6.7 5.1 11.9 11.9 15 19.7z"/><path d="m163.5 230.6c-2 1.2-3.9 3.4-5.9 3.4-23.4.2-46.8.3-70.2.1-8.7-.1-13.3-4.8-13.3-13.6-.1-42.1-.1-84.2.1-126.3 0-2.8 1.6-6.3 3.6-8.4 18.1-18.5 36.5-36.8 55-54.9 2.2-2.2 6-3.8 9.1-3.8 26.2-.3 52.3-.2 78.5-.2 10 0 14.5 4.7 14.5 14.8v177.8c0 11.2-8 17.2-19.1 14.4-1.5-.4-2.5-2.8-4.2-4.9 16.9-2.7 16.9-2.7 16.9-19.1 0-55 0-110.1 0-165.1 0-10.8-.6-11.4-11.4-11.4-22.4 0-44.8 0-67.3 0-2.7 0-5.3 0-8.8 0v43.3c0 13.1-3.8 16.9-16.8 17-14.2 0-28.3 0-43.3 0-.1 3.2-.4 5.8-.4 8.5v115.1c0 9.8 1 10.8 10.7 10.8 21.2.1 42.3 0 63.5 0h8c.2.8.5 1.7.8 2.5zm-29-189.8c-15.6 15.7-31 31.2-46.1 46.4 12.7 0 26.6.2 40.4-.3 2-.1 5.4-3.5 5.5-5.5.4-13.7.2-27.5.2-40.6z"/><path d="m174.4 204.8c1.8 2.8 3.1 6.1 5.4 8.3 3.9 3.5 4.8 6.4-.3 9.1-4.4 2.3-5.7 5.6-4.8 10.4.9 5-1.6 7.2-6.4 5.7s-8 0-10.7 4c-2.9 4.2-6.2 4-8.6-.4s-5.6-5.7-10.4-4.7c-5.1 1-7-1.7-5.8-6.4 1.1-4.6.4-8.1-3.9-10.8-4.2-2.6-4.5-6 .1-8.5 4.7-2.5 5.9-6.1 5-11-.8-4.7 1.6-6.6 6.1-5.3 5 1.4 8.5-.1 11.4-4.3 2.2-3.3 5.3-4.1 7.6-.2 2.8 4.9 6.2 6.8 12.1 5.7 6.2-1.2 5.2 3.6 3.2 8.4zm-5.2 25.8c-3.4-5.9 2.4-9.2 5.4-11.7-2.2-6.2-4-11.3-5.4-15.3-5-2.4-9.7-4.7-13.8-6.7-4.6 1.7-9.7 3.5-14 5.1-2.3 4.6-4.7 9.5-6.8 13.7 1.7 4.6 3.5 9.8 5.1 14.1 4.7 2.3 9.6 4.7 13.5 6.6 4.9-1.8 9.8-3.5 16-5.8z"/><path d="m142.9 237.7c-2.3 10.2-4.1 18.4-6 27 2 .5 3.8 1 6.1 1.6 1.8-6.6 3.5-13 5.1-19h9.8c1.7 8.3 3.6 17 5.5 25.9 2.7-.4 5.3-.9 8.7-1.5-1.8-10-3.8-20.3-5.7-30.7.8-.4 1.7-.7 2.5-1.1 1.2 1.8 3 3.6 3.5 5.6 2.1 9.5 3.8 19 5.6 28.6.9 4.9.1 7.4-5.8 5.3-1.7-.6-4.8 0-6.2 1.3-4.9 4.3-6.4 1.5-7.3-3-1.7-8.5-3.3-17-6.4-25.6-2.1 7.8-4.1 15.7-5.9 22.3-5.6-.7-9.6-.9-13.5-1.8-1.1-.3-2.7-2.6-2.5-3.7 2.1-9.5 4.5-18.8 7.1-28.2.3-.8 2.2-1.2 5.4-3z"/><path d="m153.8 133.8c-15.4 0-30.8.1-46.2-.1-2.1 0-4.2-1.9-6.3-2.9 2-1.1 4-3.2 6-3.2 31.3-.2 62.6-.2 94 0 2.1 0 4.2 1.9 6.3 3-2.2 1.1-4.5 3.2-6.7 3.2-15.8.2-31.4 0-47.1 0z"/><path d="m154.5 149.5c-15.7 0-31.4.1-47-.1-2.1 0-4.1-2-6.2-3 2.1-1 4.2-2.8 6.3-2.9 31.4-.2 62.7-.2 94.1 0 1.9 0 3.8 1.7 5.8 2.7-2 1.1-3.9 3.2-5.9 3.2-15.7.3-31.4.1-47.1.1z"/><path d="m153.8 117.7c-15.7 0-31.3.1-47-.1-1.9 0-3.7-1.9-5.5-2.9 1.9-1 3.7-2.8 5.6-2.8 31.8-.2 63.6-.2 95.5 0 1.7 0 3.4 1.6 5.1 2.5-1.7 1.1-3.4 3.2-5.2 3.2-16.2.2-32.3.1-48.5.1z"/><path d="m154.7 176.2c7.2 0 14.4-.2 21.6.1 1.6.1 3.1 2 4.6 3-1.6 1-3.2 2.8-4.8 2.8-14.4.2-28.8.2-43.1 0-1.7 0-3.3-1.7-5-2.7 1.7-1.1 3.4-3.1 5.2-3.2 7.1-.3 14.3 0 21.5 0z"/><path d="m154.1 70.3c7.4 0 14.9-.2 22.3.2 1.5.1 3 2.1 4.4 3.2-1.4 1-2.8 2.7-4.2 2.8-14.9.2-29.7.2-44.6 0-1.4 0-2.7-1.9-4.1-2.9 1.5-1.1 3-3 4.6-3.1 7.2-.4 14.4-.2 21.6-.2z"/><path d="m177.4 40.8c0 13.1.2 26.9-.3 40.7-.1 2-3.5 5.4-5.5 5.5-13.8.5-27.7.3-40.4.3 15.2-15.3 30.6-30.7 46.2-46.5z" fill="#fff"/><path d="m169 230.6c-6.2 2.2-11.1 4-15.9 5.7-3.9-1.9-8.8-4.3-13.5-6.6-1.6-4.3-3.4-9.4-5.1-14.1 2.1-4.2 4.5-9 6.8-13.7 4.3-1.5 9.3-3.4 14-5.1 4.1 2 8.8 4.3 13.8 6.7 1.4 4 3.2 9.1 5.4 15.3-3.2 2.6-8.9 5.9-5.5 11.8zm-15-28.2c-7.7-.1-13.8 5.8-14 13.4-.2 8 5.8 14.3 13.8 14.4 7.7 0 13.9-5.8 14.2-13.4.3-7.8-6-14.3-14-14.4z" fill="#fff"/><path d="m154.4 202.4c8 .1 14.2 6.5 13.9 14.4-.3 7.5-6.5 13.4-14.2 13.4-8 0-14-6.3-13.8-14.4.3-7.6 6.4-13.4 14.1-13.4zm-.1 4.5c-5.7.5-9.4 3.5-9.4 9.4 0 5.8 3.4 9.3 9.3 9.4 6 0 9.4-3.5 9.5-9.3.1-5.9-3.5-9-9.4-9.5z"/><path d="m154.4 206.9c5.9.5 9.5 3.7 9.4 9.5-.1 5.7-3.5 9.3-9.5 9.3-5.9 0-9.3-3.5-9.3-9.4s3.7-8.9 9.4-9.4z" fill="#fff"/></svg>