<svg enable-background="new 0 0 256.8 235.1" height="235.1" viewBox="0 0 256.8 235.1" width="256.8" xmlns="http://www.w3.org/2000/svg"><path d="m227.4 234.8c-1.2.3-2.5.3-3.8.3-10.7 0-21.4 0-32.1 0h-62c-30 0-60.1 0-90.1 0-7.3 0-14.5-1-21.2-4.1-11.1-5.3-18-13.7-18.3-26.4-.1-3 .8-6.2 1.9-9.1 2-5.1 5.9-7.7 11.5-7.8 12.3-.2 24.6-1.5 36.8-3.6 12.3-2.2 23.7-7 35-12.3 16-7.6 31.3-16.5 44.8-28.1 5.2-4.4 9.8-9.5 14.3-14.6 4.3-4.8 5.8-10.8 6.6-17.1 0-.1 0-.2 0-.4 2.2.6 5.2 1.2 9.4 1.7-.5 4.8-1.6 9.5-4 13.7-2.6 4.7-5.8 9.2-9.4 13.2-11.7 12.9-26 22.5-41 31.1-11.6 6.7-23.8 12.4-36.5 17-10 3.6-20.2 5.7-30.7 6.7-8.3.8-16.5 1.4-24.8 1.9-2.1.1-3.2 1.1-3.8 2.9-1.7 5.6-.4 10.6 2.9 15.2 4.3 6.1 10.5 8.8 17.5 9.9 3.2.5 6.5.8 9.8.8h114.4 14.9 21.7 14.8 16.1c9.5 0 22.2-7.2 23.3-21.5.8-9.7-1.6-18.8-5-27.7-3.1-8-6.7-15.8-9.5-23.8-4-11.4-4.6-23.3-4.6-35.3v-4.1c.9-.1 1.8-.2 2.6-.4 1.5-.2 4.1-.7 6.8-1.7v8.6c-.1 15.9 3.2 30.9 10 45.3 4.7 9.8 8.2 20 9.1 30.9 1.7 19.1-7.6 34.5-27.4 38.8z"/><path d="m256.1 3.8-.6-3.8h-129.2l-.4 4c-.1.9-2.1 21.3 4.6 50.5l1.2 5.2c6.2 27.2 9.6 42.2 12.8 47.7.8 1.4 2.2 2.9 6.5 4.1 2.2.6 5.2 1.2 9.4 1.7 2.3.3 4.9.5 7.9.8.8.1 1.5.1 2.4.2 2.3.1 4.6.3 6.7.4 7.4.3 13.4.3 13.8.3 5.1 0 9.6 0 13.7-.1 3.3-.1 6.3-.2 9-.3 5-.2 9-.6 12.4-1 .9-.1 1.8-.2 2.6-.4 1.5-.2 4.1-.7 6.8-1.7 4.2-1.5 8.4-4.3 8.4-9.7 0-.7 0-1.6 0-2.8-.1-9.5-.5-34.6 6.6-52.6 8.6-21.6 5.6-41.7 5.4-42.5zm-13.8 39.2c-4 9.9-5.8 21.7-6.7 32.1-.8 10.1-.7 19-.6 23.9v2.6c-.2.3-1.7 1.7-8.8 2.7-.5.1-1.1.2-1.8.2-3.5.4-7.9.8-13.3 1s-12 .3-20 .3h-.1c-10.5 0-22.2-.6-30.2-1.6-4.3-.5-7.5-1.2-8.9-1.9 0-.1-.1-.2-.2-.3-2.5-5.4-6.3-21.9-11.4-44.4l-1.2-5.2c-4.6-20.3-4.9-36.3-4.6-43.5h113c.5 6.5.5 20-5.2 34.1z"/><path d="m169.5 225.8c-5 0-9.9 0-14.9 0 1.2 0 3.4 0 5.5-2.4 13.9-15.5 10.8-81.3 8.1-109.3.8.1 1.5.1 2.4.2 2.3.1 4.6.3 6.7.4 1.9 19.8 6.9 87.1-7.8 111.1z"/><path d="m206 225.8c-4.9 0-9.9 0-14.8 0 1.2 0 3.4 0 5.5-2.4 13.8-15.3 10.9-80.2 8.2-108.7 3.3-.1 6.3-.2 9-.3 1.8 19.8 6.8 87.4-7.9 111.4z"/></svg>