<svg id="Layer_1" data-name="Layer 1" xmlns="http://www.w3.org/2000/svg" viewBox="0 0 256 256"><title>valve-apeks-lp</title><path d="M128,38.73l-.83,1h-.42a1.74,1.74,0,0,0-1.27-.35l-1.69,0h-1.1C52.91,40.45-1,61.88-.8,89.05V167C-1,194.81,55.66,216.63,128,216.63S257,194.81,257.2,167V89.05C257,61.19,200.34,39.37,128,38.73Zm69.7,26c-1.3-5.47-6.23-10.39-13.86-14.41l.29,0,1.47.28,1.12.22,1.46.3,1.1.23,1.45.3,1.07.24,1.44.32,1,.24,1.43.34,1,.25,1.41.35,1,.25,1.4.36,1,.26,1.37.38.95.26,1.36.4.92.26,1.34.41.9.27,1.32.42.87.28,1.31.44.83.28,1.29.44.82.29,1.26.46.79.29,1.24.48.76.29,1.22.49.73.29,1.21.51.69.29,1.2.52.65.29,1.18.55.62.28,1.16.56.58.29,1.14.58.55.28,1.13.6.5.27,1.13.63c.14.09.29.17.44.25l1.13.68.38.22,1.15.72.31.2,1.18.78.22.14,1.24.88.09.06a46.59,46.59,0,0,1,4.73,3.9l0,0c.33.32.66.64,1,1l.19.2c.25.27.51.53.75.8l.25.29.62.72.27.34.53.68.28.39c.15.21.31.43.45.64s.18.28.27.42.27.41.39.62l.25.44c.12.2.23.4.34.61l.23.45c.1.2.2.4.29.6l.2.48.24.58.17.5c.06.19.13.38.19.57s.09.34.14.51l.15.57c0,.17.07.34.1.52s.08.37.11.56.05.35.07.53,0,.25,0,.38a44.17,44.17,0,0,0-11.41-11C228.81,69.3,214,65.12,197.7,64.72Zm29.5,89.16c-10.15,5-23.13,9.18-38,12.32V130.39c0-18.3-5-30.16-17.66-40.57a61.19,61.19,0,0,0,17.19-8.1C213.11,89,227.2,96.35,227.2,111.51ZM16.49,76.59a44.17,44.17,0,0,0-11.41,11c0-.13,0-.25,0-.38s0-.36.07-.53.07-.38.11-.56.06-.35.1-.52L5.55,85c0-.17.09-.34.14-.51s.13-.38.19-.57l.17-.5.24-.58.2-.48c.09-.2.19-.4.29-.6L7,81.35c.11-.21.22-.41.34-.61l.25-.44c.12-.21.26-.42.39-.62s.17-.28.27-.42.3-.43.45-.64L9,78.23l.53-.68.27-.34.62-.72.25-.29c.24-.27.5-.53.75-.8l.19-.2c.31-.32.64-.64,1-1l0,0a46.59,46.59,0,0,1,4.73-3.9l.09-.06,1.24-.88.22-.14,1.18-.78.31-.2,1.15-.72.38-.22L23,66.63c.15-.08.3-.16.44-.25l1.13-.63.5-.27,1.13-.6.55-.28L27.93,64l.58-.29,1.16-.56.62-.28,1.18-.55.65-.29,1.2-.52.69-.29,1.21-.51.73-.29L37.17,60l.76-.29,1.24-.48.79-.29,1.26-.46.82-.29,1.29-.44.83-.28L45.47,57l.87-.28,1.32-.42.9-.27,1.34-.41.92-.26,1.36-.4,1-.26,1.37-.38,1-.26,1.4-.36,1-.25,1.41-.35,1-.25,1.43-.34,1-.24,1.44-.32,1.07-.24,1.45-.3,1.1-.23.46-.1C61.39,55,57,59.64,55.78,64.81,40.44,65.57,26.64,69.68,16.49,76.59Zm45-8.91c0-5.26,6.75-10.9,18-15.08,11.69-4.34,27-6.85,43.51-7.19h4.16c38.26.08,64.89,11.78,64.89,22.3,0,5.25-6.74,10.89-18,15.08C161.43,87.41,144.65,90,126.75,90c-28.36,0-50.36-6.38-60-14l-.12-.41-.29.09C63.16,73.09,61.44,70.34,61.44,67.68Zm3.47,14.58a65.78,65.78,0,0,0,18.26,8.13c-12.12,10.26-17,22-17,40V166.2c-14.88-3.14-27.85-7.36-38-12.32V111.51C28.2,100.19,34.31,91.68,64.91,82.26Zm7.29,48.1C72.2,112.27,77.07,102,90.6,92a167.31,167.31,0,0,0,34.6,3.67V172.5a308.88,308.88,0,0,1-53-4.91Zm59-7.42V95.65a162.41,162.41,0,0,0,34-4.07c14,10.11,19,20.43,19,38.79v37.22a309,309,0,0,1-53,4.91ZM5.2,106.43c0-18.69,20.93-33,49.44-34.52a16,16,0,0,0,3.78,6.71C38.64,84.9,22.2,93,22.2,111.51v38c-10.76-6.35-17-13.71-17-21.48ZM251.2,167c0,23.68-56.33,43.68-123,43.68s-123-20-123-43.68V143.81C21.57,164,69.77,178.2,128.2,178.2s106.62-14.24,123-34.39Zm-17-17.44v-38C234.2,92.37,216.67,84.39,196,78a15.53,15.53,0,0,0,3.3-6.21c29.74.8,51.86,15.41,51.86,34.62V128C251.2,135.8,245,143.16,234.2,149.51Z"/></svg>