<svg id="Layer_1" data-name="Layer 1" xmlns="http://www.w3.org/2000/svg" viewBox="0 0 256 256"><title>neck-neo</title><path d="M255.64,198.25a3.17,3.17,0,0,0-1.32-2.55C214.38,166.76,206,114.45,206,75.65V26c0-5.15-7.35-8.46-24.58-11-14.3-2.16-33.27-3.34-53.42-3.34S88.88,12.8,74.58,15C57.35,17.55,50,20.86,50,26V75.65c0,38.8-8.38,91.11-48.32,120a3.17,3.17,0,0,0-1.32,2.55c0,12.92,13.7,24.77,38.57,33.36,23.84,8.24,55.47,12.77,89.07,12.77s65.23-4.53,89.07-12.77C241.94,223,255.64,211.17,255.64,198.25ZM58.38,24.77c6.34-2.69,28.13-7.24,69.62-7.24s63.28,4.55,69.62,7.24l2.26,1-2.26.95c-6.34,2.69-28.14,7.24-69.62,7.24s-63.28-4.55-69.62-7.24l-2.26-.95ZM215.31,226C192,234.07,161,238.5,128,238.5S64,234.07,40.69,226C20.23,219,8.05,209.93,6.4,200.61L6.28,200l.51-.39C29.24,182.53,56,147.14,56,75.49V32.42l1.4.52c3.93,1.45,9.49,2.71,17,3.84,14.33,2.16,33.36,3.35,53.58,3.35s39.25-1.19,53.58-3.35c7.53-1.13,13.09-2.39,17-3.84l1.4-.52V75.49c0,71.65,26.76,107,49.21,124.11l.51.39-.12.62C248,209.93,235.77,219,215.31,226Z"/></svg>