<svg id="Layer_1" data-name="Layer 1" xmlns="http://www.w3.org/2000/svg" viewBox="0 0 256 256"><title>torse</title><path d="M243.14,98.83c-5.56-14-9.44-26.67-12.57-36.81-2.86-9.33-4.94-16.07-7-19.6-3.4-5.74-11.36-19.18-33.3-21.84-18.56-2.25-33.52-13.3-33.67-13.41a3,3,0,0,0-4.17.55c-.34.43-8.6,10.65-24.4,10.65S103.94,8.15,103.61,7.73a3,3,0,0,0-4.18-.56c-.15.11-15.11,11.16-33.67,13.41-21.94,2.66-29.9,16.1-33.3,21.84-2.09,3.53-4.17,10.27-7,19.6-3.12,10.14-7,22.76-12.56,36.81C2.12,126,.08,198.31,0,201.38a3,3,0,0,0,2.86,3.08L34.48,206a3,3,0,0,0,3.14-2.77c0-.44,3.49-44.31,9.15-69.11C51.51,113.4,59.54,101.33,65,94.76c2.47,13.55,8,47.09,6.18,66.92-.41,4.48-4.1,44.91-6.74,84.55l6,.4c2.63-39.56,6.31-79.93,6.73-84.4,1.13-12.3-.37-29.17-2.31-43.77,1.84,6.55,3.64,13.46,5.47,20.52,10.42,40.18,21.21,81.73,47.69,81.73,26.3,0,40.4-40,50.89-80a144.6,144.6,0,0,0,0,21.53c.42,4.48,4.1,44.93,6.73,84.4l6-.4c-2.63-39.55-6.33-80.06-6.74-84.55-1.82-19.83,3.71-53.37,6.18-66.92,5.44,6.57,13.48,18.64,18.21,39.38,5.66,24.8,9.11,68.67,9.15,69.11a3,3,0,0,0,3.14,2.77l31.62-1.56a3,3,0,0,0,2.86-3.08C255.92,198.31,253.88,126,243.14,98.83Zm-202.23,34c-5,21.77-8.17,56.72-9,67.07L6.11,198.6c.5-14,3.17-74.41,12.34-97.55C24.1,86.78,28,74,31.17,63.78c2.64-8.59,4.73-15.38,6.46-18.3,3.06-5.17,9.3-15.68,26.5-18.59,7.77,21.88,5.64,32.68.14,59.63C59.33,91.75,47.26,105,40.91,132.81ZM128,214.7c-21.83,0-32.48-41-41.87-77.23-5-19.15-9.68-37.25-15.87-50.2C75.69,60.65,78,48.58,70.18,26A85.91,85.91,0,0,0,100.8,13.53,38.69,38.69,0,0,0,128,24.39a38.69,38.69,0,0,0,27.2-10.86A86,86,0,0,0,185.83,26c-7.77,22.63-5.16,35.49.28,62.12-2.34,8-4.73,17.71-7.25,28C168.67,157.71,154.72,214.7,128,214.7Zm96.13-14.82c-.87-10.35-4.07-45.3-9-67.07-6.25-27.38-18-40.62-23.11-46-5.43-26.61-7.77-38.19-.11-59.9,17.2,2.91,23.44,13.42,26.5,18.59,1.73,2.92,3.82,9.71,6.46,18.3,3.15,10.25,7.07,23,12.72,37.27,9.17,23.13,11.84,83.52,12.34,97.55Z"/></svg>