<svg id="Layer_1" data-name="Layer 1" xmlns="http://www.w3.org/2000/svg" viewBox="0 0 256 256"><title>pocket-right</title><path d="M203.24,12.65l-39-12.84a3.37,3.37,0,0,0-2.06,0L48.32,36.21A3.33,3.33,0,0,0,46,39.38V239.31a3.3,3.3,0,0,0,2.28,3.14l33.36,11c5.9,1.94,9,2.91,12.2,2.91s6.41-1,12.53-2.9l90.45-28.6A20.31,20.31,0,0,0,211,205.5V28.73C211,27.34,210.78,15.14,203.24,12.65ZM97,65.63a29.74,29.74,0,0,0-1.15-7.9L203.18,23.54a23.79,23.79,0,0,1,.82,5.89V88.84c-.2,11.2-22.81,30.83-54.95,41.08-24.86,7.94-42.55,6.63-49.06,1.81A6.62,6.62,0,0,1,97,126h0ZM162.06,7.17l34,11.21L92,51.66a8.18,8.18,0,0,0-3.37-2.15L59.58,39.93ZM52,237.27v-194L86.8,54.79c2,.67,3.19,6.22,3.2,9.79v185c-1.74-.41-3.82-1.08-6.77-2.06Zm52.22,9.42c-3.18,1-5.39,1.7-7.22,2.1V137.4c4.7,3,11.62,4.59,20.06,4.59,9.74,0,21.46-2,34-6,22.95-7.36,43-20.1,52.92-32.49V204.89a14,14,0,0,1-9.77,13.33Z"/></svg>