<svg id="Layer_1" data-name="Layer 1" xmlns="http://www.w3.org/2000/svg" viewBox="0 0 256 256"><title>neck-silicone</title><path d="M200.43,77.91q4.38-4.36,4.78-9.31c0-.29,0-.58,0-.87v-.26c0-11.23-15.92-20.61-42.72-25.28a96.33,96.33,0,0,1-1.24-17.61c0-8.73-16.75-13.29-33.3-13.29S94.7,15.85,94.7,24.58a96.33,96.33,0,0,1-1.24,17.61c-26.8,4.67-42.72,14.05-42.72,25.28v.26c0,.29,0,.58,0,.87q.41,4.94,4.78,9.31C43,83.66,36.38,90.76,36.38,98.6c0,9.43,9.93,18,28,24.15,17,5.8,39.64,9,63.64,9s46.6-3.2,63.64-9c18.05-6.14,28-14.72,28-24.15C219.62,90.76,213,83.66,200.43,77.91ZM128,17.23c18.05,0,27.36,5.15,27.36,7.35s-9.31,7.36-27.36,7.36-27.36-5.16-27.36-7.36S110,17.23,128,17.23ZM91.74,48.58C89.59,54.4,85.9,59.09,79.6,61.47L81.71,67c15.4-5.82,18.27-22.1,18.81-34.61,6.32,3.6,16.94,5.46,27.48,5.46s21.16-1.86,27.48-5.46C156,44.93,158.89,61.21,174.29,67l2.11-5.56c-6.3-2.38-10-7.07-12.14-12.89,20.82,4.08,35,11.63,35.05,19C199.14,78,169.91,89.64,128,89.64S56.86,78,56.69,67.56C56.76,60.22,70.92,52.66,91.74,48.58Zm98,68.55c-16.45,5.59-38.37,8.68-61.73,8.68s-45.28-3.09-61.73-8.68c-15-5.11-23.95-12-23.95-18.53,0-5.72,6.82-11.74,18.78-16.6a64.91,64.91,0,0,0,13.42,6.06c14.33,4.85,33.32,7.52,53.48,7.52s39.15-2.67,53.48-7.52A65.16,65.16,0,0,0,194.9,82c12,4.86,18.78,10.88,18.78,16.6C213.68,105.09,204.73,112,189.73,117.13Z"/><path d="M231.74,171.81c-2.63-9-13.5-17.1-31.26-23.13-19.41-6.58-45.15-10.21-72.48-10.21s-53.07,3.63-72.48,10.21c-17.77,6-28.64,14.13-31.26,23.14C8.39,179.54,0,188.93,0,199c0,12.87,13.78,24.64,38.81,33.13,23.87,8.09,55.55,12.55,89.19,12.55s65.32-4.46,89.19-12.55C242.22,223.67,256,211.9,256,199,256,188.91,247.62,179.54,231.74,171.81Zm-174-16.65c18.72-6.35,43.68-9.85,70.28-9.85s51.56,3.5,70.28,9.85c17.06,5.79,27.25,13.63,27.25,21s-10.19,15.18-27.25,21C179.56,203.46,154.6,207,128,207s-51.56-3.5-70.28-9.85c-17.06-5.79-27.25-13.63-27.25-21S40.66,161,57.72,155.16ZM128,237.87C55.53,237.87,6.84,217.79,6.84,199c0-6.6,6.07-13.4,17.2-19.42,2.18,9.35,13.16,17.76,31.48,24,19.41,6.58,45.15,10.21,72.48,10.21s53.07-3.63,72.48-10.21c18.32-6.22,29.3-14.63,31.48-24,11.14,6,17.2,12.8,17.2,19.42C249.16,217.79,200.47,237.87,128,237.87Z"/></svg>