<svg id="Layer_1" data-name="Layer 1" xmlns="http://www.w3.org/2000/svg" viewBox="0 0 256 256"><title>boots-std</title><path d="M218.74,173c-7.69-2.39-16.5-4.54-25.83-6.81-27.82-6.8-59.36-14.5-59.31-29,.09-21.86,0-118.34,0-119.32v-3H5.6V71c0,15,3.59,28.3,7.05,41.15.72,2.68,1.43,5.33,2.1,7.94l-.11.12.19.2c2,8,3.57,15.64,3.57,23.11,0,10.24-1.64,17.23-3.53,25.32-.67,2.82-1.35,5.73-2,8.9-.28,1.44-2.07,2.7-4.14,4.16-3.79,2.67-9,6.32-9,14.66,0,9.87,6.81,13,10.08,14.42l.76.35v33.57h26v-4h14v4h26v-4h64v4h26v-4h14v4h26v-4h14v4h23.58l.89-1A47.14,47.14,0,0,0,255,215C255.1,194.63,249.54,182.54,218.74,173Zm-27-.9c3.73.91,7.37,1.8,10.89,2.69-1.89,6.5-8.14,24.08-20.54,24.08H72.32c-2-10.73-5.16-23.07-9.85-31.5a131.52,131.52,0,0,0-12.38-17.5H90c14.39,0,23.33-10.47,23.33-27.33,0-12.37,6.87-24,9.29-27.67h5.17c0,18.31,0,34.72,0,42.26C127.64,156.41,160.21,164.38,191.7,172.08ZM18.39,110.31c-1.47-5.06-3-10.2-4.2-15.46H115.64c-3.36,5.83-8.25,16.28-8.25,27.68,0,19.24-12.11,21.32-17.32,21.32h-45c-10.15-11.88-21-22.92-24.73-26.7C19.71,114.89,19.05,112.62,18.39,110.31ZM129.88,89.85H13.48A96.39,96.39,0,0,1,11.6,71.51v-.66H129.88Zm-2.94-69c0,6.67,0,23.76,0,43H11.6v-43Zm-56.34,218h-14v-4h-26v4h-14V210c0-2.7-2.49-3.75-4.49-4.59-4.06-1.71-7.17-3.44-7.17-8.9,0-5.11,3.22-7.21,6.94-9.66,3.06-2,6.21-4.07,7-7.91.66-3.07,1.39-5.94,2.09-8.71,2-8.13,4-15.81,4-26.8a73.73,73.73,0,0,0-1.64-14.7C33.64,139.47,50.51,158,57.27,170.15c10.14,18.23,13.33,58.22,13.33,67.9Zm170.65,0H226.6v-4h-26v4h-14v-4h-26v4h-14v-4H77.33a262,262,0,0,0-2.92-28.76c-.06-.4-.13-.83-.2-1.24h108c16.56,0,24-20.87,26.14-28.32,3,.81,6,1.64,8.71,2.5,29.73,9.24,31.88,20.27,31.77,36A42.34,42.34,0,0,1,241.25,238.85Z"/></svg>