<svg enable-background="new 0 0 160.8 256" height="256" viewBox="0 0 160.8 256" width="160.8" xmlns="http://www.w3.org/2000/svg"><path d="m89.5 203.7c-2 1.2-3.9 3.4-5.9 3.4-23.4.2-46.8.3-70.2.1-8.7-.1-13.3-4.8-13.3-13.6-.1-42.1-.1-84.2.1-126.3 0-2.8 1.6-6.3 3.6-8.4 18.1-18.5 36.4-36.8 55-54.9 2.2-2.2 6-3.8 9.1-3.8 26.1-.3 52.2-.2 78.4-.1 10 0 14.5 4.7 14.5 14.8v177.8c0 11.2-8 17.2-19.1 14.4-1.5-.4-2.5-2.8-4.2-4.9 16.9-2.7 16.9-2.7 16.9-19.1 0-55 0-110.1 0-165.1 0-10.8-.6-11.4-11.4-11.4-22.4 0-44.8 0-67.3 0-2.7 0-5.3 0-8.8 0v43.3c0 13.1-3.8 16.9-16.8 17-14.2 0-28.3 0-43.3 0-.1 3.2-.4 5.8-.4 8.5v115.1c0 9.8 1 10.8 10.7 10.8 21.2.1 42.3 0 63.5 0h8c.3.7.6 1.6.9 2.4zm-29-189.7c-15.6 15.7-31 31.2-46.1 46.4 12.7 0 26.6.2 40.4-.3 2-.1 5.4-3.5 5.5-5.5.4-13.7.2-27.6.2-40.6z"/><path d="m134.2 177.9c1.8 2.8 3.1 6.1 5.4 8.3 3.9 3.5 4.8 6.4-.3 9.1-4.4 2.3-5.7 5.6-4.8 10.4.9 5-1.6 7.2-6.4 5.7s-8 0-10.7 4c-2.9 4.2-6.2 4-8.6-.4s-5.6-5.7-10.4-4.7c-5.1 1-7-1.7-5.8-6.4 1.1-4.6.4-8.1-3.9-10.8-4.2-2.6-4.5-6 .1-8.5 4.7-2.5 5.9-6.1 5-11-.8-4.7 1.6-6.6 6.1-5.3 5 1.4 8.5-.1 11.4-4.3 2.2-3.3 5.3-4.1 7.6-.2 2.8 4.9 6.2 6.8 12.1 5.7 6.2-1.2 5.2 3.6 3.2 8.4zm-5.2 25.8c-3.4-5.9 2.4-9.2 5.4-11.7-2.2-6.2-4-11.3-5.4-15.3-5-2.4-9.7-4.7-13.8-6.7-4.6 1.7-9.7 3.5-14 5.1-2.3 4.6-4.7 9.5-6.8 13.7 1.7 4.6 3.5 9.8 5.1 14.1 4.7 2.3 9.6 4.7 13.5 6.6 5-1.8 9.8-3.5 16-5.8z"/><path d="m102.8 210.8c-2.3 10.2-4.1 18.4-6 27 2 .5 3.8 1 6.1 1.6 1.8-6.6 3.5-13 5.1-19h9.8c1.7 8.3 3.6 17 5.5 25.9 2.7-.4 5.3-.9 8.7-1.5-1.8-10-3.8-20.3-5.7-30.7.8-.4 1.7-.7 2.5-1.1 1.2 1.8 3 3.6 3.5 5.6 2.1 9.5 3.8 19 5.6 28.6.9 4.9.1 7.4-5.8 5.3-1.7-.6-4.8 0-6.2 1.3-4.9 4.3-6.4 1.5-7.3-3-1.7-8.5-3.3-17-6.4-25.6-2.1 7.8-4.1 15.7-5.9 22.3-5.6-.7-9.6-.9-13.5-1.8-1.1-.3-2.7-2.6-2.5-3.7 2.1-9.5 4.5-18.8 7.1-28.2.3-.8 2.2-1.2 5.4-3z"/><path d="m79.8 106.9c-15.4 0-30.8.1-46.2-.1-2.1 0-4.2-1.9-6.3-2.9 2-1.1 4-3.2 6-3.2 31.3-.2 62.6-.2 94 0 2.1 0 4.2 1.9 6.3 3-2.2 1.1-4.5 3.2-6.7 3.2-15.8.2-31.5 0-47.1 0z"/><path d="m80.5 122.6c-15.7 0-31.4.1-47-.1-2.1 0-4.1-2-6.2-3 2.1-1 4.2-2.8 6.3-2.9 31.4-.2 62.7-.2 94.1 0 1.9 0 3.8 1.7 5.8 2.7-2 1.1-3.9 3.2-5.9 3.2-15.8.3-31.5.1-47.1.1z"/><path d="m79.8 90.8c-15.7 0-31.3.1-47-.1-1.9 0-3.7-1.9-5.5-2.9 1.9-1 3.7-2.8 5.6-2.8 31.8-.2 63.6-.2 95.5 0 1.7 0 3.4 1.6 5.1 2.5-1.7 1.1-3.4 3.2-5.2 3.2-16.2.2-32.4.1-48.5.1z"/><path d="m54 149.3c7.2 0 14.4-.2 21.6.1 1.6.1 3.1 2 4.6 3-1.6 1-3.2 2.8-4.8 2.8-14.4.2-28.8.2-43.1 0-1.7 0-3.3-1.7-5-2.7 1.7-1.1 3.4-3.1 5.2-3.2 7.1-.2 14.3 0 21.5 0z"/><path d="m106.7 43.4c7.4 0 14.9-.2 22.3.2 1.5.1 3 2.1 4.4 3.2-1.4 1-2.8 2.7-4.2 2.8-14.9.2-29.7.2-44.6 0-1.4 0-2.7-1.9-4.1-2.9 1.5-1.1 3-3 4.6-3.1 7.2-.4 14.4-.2 21.6-.2z"/><path d="m114.1 175.6c8 .1 14.2 6.5 13.9 14.4-.3 7.5-6.5 13.4-14.2 13.4-8 0-14-6.3-13.8-14.4.3-7.7 6.4-13.5 14.1-13.4zm-.1 4.4c-5.7.5-9.4 3.5-9.4 9.4 0 5.8 3.4 9.3 9.3 9.4 6 0 9.4-3.5 9.5-9.3.1-5.9-3.5-9-9.4-9.5z"/></svg>