<svg enable-background="new 0 0 512.001 512.001" viewBox="0 0 512.001 512.001" xmlns="http://www.w3.org/2000/svg"><path d="m503.242 370.313-24.937-24.937c-.002-.002-.003-.003-.005-.005s-.003-.003-.005-.005l-38.954-38.954c-.002-.002-.003-.003-.005-.005s-.003-.003-.005-.005l-71.781-71.781 109.22-109.22c6.966-6.966 10.802-16.227 10.802-26.078s-3.836-19.112-10.802-26.078l-38.014-38.013c-6.966-6.966-16.227-10.802-26.078-10.802s-19.112 3.836-26.078 10.802l-109.219 109.219-71.828-71.828-38.975-38.975c-.001-.001-.002-.002-.003-.003s-.002-.002-.003-.003l-24.884-24.884c-11.659-11.659-30.629-11.657-42.286 0l-90.644 90.644c-5.648 5.648-8.758 13.157-8.758 21.144s3.11 15.496 8.758 21.143l135.692 135.693-52.653 52.653c-.84.84-1.522 1.822-2.018 2.901l-64.439 140.466c-1.744 3.801-.938 8.285 2.018 11.241 1.917 1.917 4.476 2.93 7.074 2.93 1.409 0 2.83-.298 4.167-.911l140.467-64.439c1.079-.495 2.062-1.179 2.901-2.018l52.653-52.653 42.992 42.992c1.953 1.953 4.512 2.929 7.071 2.929s5.118-.976 7.071-2.929c3.905-3.905 3.905-10.237 0-14.143l-42.992-42.992 104.645-104.646 25.751 25.751-9.56 9.56c-3.905 3.905-3.905 10.237 0 14.143 1.953 1.953 4.512 2.929 7.071 2.929s5.118-.976 7.071-2.929l9.56-9.56 24.822 24.822-28.567 28.567c-3.905 3.905-3.905 10.237 0 14.142 1.953 1.953 4.512 2.929 7.071 2.929s5.118-.977 7.071-2.929l28.567-28.567 24.822 24.822-9.56 9.56c-3.905 3.905-3.905 10.237 0 14.143 1.953 1.953 4.512 2.929 7.071 2.929s5.118-.976 7.071-2.929l9.56-9.56 17.871 17.871c1.87 1.87 2.899 4.356 2.899 7s-1.029 5.131-2.9 7.001l-90.642 90.643c-3.858 3.86-10.142 3.861-14.002 0l-36.047-36.047c-3.906-3.905-10.236-3.905-14.143 0-3.905 3.905-3.905 10.237 0 14.143l36.048 36.047c5.829 5.829 13.486 8.743 21.143 8.743s15.314-2.915 21.144-8.744l90.644-90.644c5.647-5.647 8.758-13.157 8.758-21.144s-3.111-15.494-8.759-21.142zm-102.5-320.939c3.188-3.188 7.427-4.944 11.936-4.944s8.747 1.756 11.936 4.944l38.014 38.014c6.582 6.581 6.582 17.29 0 23.871l-29.195 29.195-61.885-61.885zm-377.843 78.172c-1.87-1.87-2.899-4.356-2.899-7s1.029-5.131 2.9-7.001l90.644-90.644c3.858-3.859 10.142-3.861 14.002 0l17.813 17.813-9.561 9.56c-3.905 3.905-3.905 10.237 0 14.142 1.953 1.953 4.512 2.929 7.071 2.929s5.118-.977 7.071-2.929l9.561-9.56 24.836 24.837-28.567 28.567c-3.905 3.905-3.905 10.237 0 14.142 1.953 1.953 4.512 2.929 7.071 2.929s5.118-.977 7.071-2.929l28.566-28.567 24.822 24.822-9.56 9.56c-3.905 3.905-3.905 10.237 0 14.143 1.953 1.953 4.512 2.929 7.071 2.929s5.118-.976 7.071-2.929l9.56-9.56 25.793 25.793-104.643 104.647zm31.856 329.699 13.695-29.851 16.157 16.157zm49.242-22.589-26.652-26.652 24.618-53.661 55.695 55.696zm70.898-35.665-61.884-61.885 244.394-244.395 33.24 33.24-82.418 82.419c-3.905 3.905-3.905 10.237 0 14.142 1.953 1.953 4.512 2.929 7.071 2.929s5.118-.977 7.071-2.929l82.418-82.418 14.502 14.503z"/><path d="m322.37 427.011c-1.86-1.86-4.44-2.92-7.07-2.92-2.64 0-5.21 1.06-7.07 2.92-1.859 1.87-2.93 4.44-2.93 7.08 0 2.63 1.07 5.21 2.93 7.07s4.44 2.93 7.07 2.93 5.21-1.07 7.07-2.93c1.859-1.86 2.93-4.44 2.93-7.07 0-2.64-1.07-5.21-2.93-7.08z"/><path d="m295.63 235.111c-1.861-1.86-4.441-2.93-7.07-2.93-2.64 0-5.21 1.07-7.069 2.93-1.87 1.86-2.931 4.44-2.931 7.07s1.061 5.21 2.931 7.07c1.859 1.86 4.43 2.93 7.069 2.93 2.63 0 5.21-1.07 7.07-2.93s2.93-4.44 2.93-7.07-1.069-5.21-2.93-7.07z"/></svg>