<?xml version="1.0" encoding="utf-8"?>
<!-- Generator: Adobe Illustrator 23.0.1, SVG Export Plug-In . SVG Version: 6.00 Build 0)  -->
<svg version="1.1" id="Layer_1" xmlns="http://www.w3.org/2000/svg" xmlns:xlink="http://www.w3.org/1999/xlink" x="0px" y="0px"
	 viewBox="0 0 1920 1080" style="enable-background:new 0 0 1920 1080;" xml:space="preserve">
<style type="text/css">
	.st0{fill:#FFF200;}
</style>
<g>
	<rect x="-7.5" y="-9.5" class="st0" width="1944" height="1096"/>
	<g>
		<path d="M1936-9v1095H-7V-9H1936 M1937-10H-8v1097h1945V-10L1937-10z"/>
	</g>
</g>
<g>
	<polygon points="1518.33,1162.5 984.76,-82.5 1357.67,-82.5 1891.24,1162.5 	"/>
	<path d="M1357.34-82l533.14,1244h-371.82L985.52-82H1357.34 M1358-83H984l534,1246h374L1358-83L1358-83z"/>
</g>
<g>
	<polygon points="1396.33,1162.5 862.76,-82.5 935.12,-82.5 1468.69,1162.5 	"/>
	<path d="M934.79-82l533.14,1244h-71.27L863.52-82H934.79 M935.45-83H862l534,1246h73.45L935.45-83L935.45-83z"/>
</g>
</svg>
