<svg enable-background="new 0 0 256 256" height="256" viewBox="0 0 256 256" width="256" xmlns="http://www.w3.org/2000/svg"><g fill="#fff"><path d="m127.9 255.6c-19.3 0-38.6.7-57.9-.2-35.3-1.7-66.5-31.7-69.2-67.1-1.4-18.8-.7-37.8-.8-56.6 0-18.3 0-36.7.1-55 .2-37.1 25.4-67.9 61.7-75.2 4.5-.9 9.2-1.3 13.7-1.3 35.1-.1 70.1-.2 105.2 0 33.8.1 63.3 22.8 72.2 55.3 1.9 6.9 2.8 14.2 2.9 21.3.3 33.6.2 67.1.1 100.7-.1 38.2-24.2 68.7-60.5 76.6-5.9 1.3-12.1 1.6-18.2 1.7-16.4.2-32.9.1-49.3.1 0-.1 0-.2 0-.3zm102.2-127.7c0-16.7.1-33.4-.1-50.2-.1-4.7-.4-9.6-1.6-14.1-5.9-22.9-25.6-37.9-49.8-37.9-33.6-.1-67.1-.1-100.7 0-3.8 0-7.6.3-11.3 1.1-24.1 4.9-40.5 24.9-40.6 49.6-.1 32.6-.1 65.2 0 97.9 0 4.3-.1 8.8.6 13 4.3 25.5 24.7 42.8 50.7 42.8 33.7.1 67.4 0 101.1 0 29.8 0 51.7-21.9 51.8-51.7 0-16.8-.1-33.6-.1-50.5z"/><path d="m128.5 61.8c36.9.4 65.9 30.3 65.5 67.4-.4 36-30.7 65.4-66.8 65-36.7-.4-65.8-30.6-65.3-67.7.4-35.8 30.6-65.1 66.6-64.7zm-.5 106.5c22.6-.1 40.6-18.4 40.4-40.8-.3-22.3-18.5-40.1-40.9-40-22 .2-40.1 18.5-40 40.5.1 22.4 18.2 40.4 40.5 40.3z"/><path d="m194.2 46.4c8.8 0 15.9 6.9 16 15.6s-7.3 16.1-16.1 16.1c-8.8-.1-15.7-7.1-15.7-15.9 0-8.9 7-15.8 15.8-15.8z"/></g></svg>