<svg enable-background="new 0 0 512 512" viewBox="0 0 512 512" xmlns="http://www.w3.org/2000/svg"><path d="m400.268 175.599c-1.399-3.004-4.412-4.932-7.731-4.932h-101.12l99.797-157.568c1.664-2.628 1.766-5.956.265-8.678-1.502-2.731-4.37-4.421-7.476-4.421h-136.533c-3.234 0-6.187 1.826-7.637 4.719l-128 256c-1.323 2.637-1.178 5.777.375 8.294 1.562 2.517 4.301 4.053 7.262 4.053h87.748l-95.616 227.089c-1.63 3.883-.179 8.388 3.413 10.59 1.382.845 2.918 1.254 4.446 1.254 2.449 0 4.864-1.05 6.537-3.029l273.067-324.267c2.141-2.542 2.602-6.092 1.203-9.104z"/></svg>