<svg enable-background="new 0 0 358.88 319.95" height="319.95" viewBox="0 0 358.88 319.95" width="358.88" xmlns="http://www.w3.org/2000/svg"><g fill="#f7d917"><path d="m298.65 20.11c-31.87-3.06-76.53-3.56-129 15.36-4.46-16.53-17.8-41.5-54.02-34.14 1.52 11.96 1.49 17.53.95 25.54l7.46-.15-8.31 4.14s-1.45 18.84-4.2 32.14c-2.7 1.61-5.42 3.25-8.13 4.96-71.17-16.9-103.4 11.49-103.4 11.49s45.26 12.71 71.78 29.38c-2.81 5.46-23.53 52.68-6.53 111.44-.03.44-2.22 31-2.22 31l5.15-4.13c.02-.02 2.4-1.89 6.6-4.27.63 1.3 1.25 2.62 1.91 3.91-.11 1.1-2.67 24.36-2.67 24.36l5.25-3.75c.03-.02 2.71-1.93 6.41-4.35 1.59 2.64 3.2 5.24 4.85 7.79.86 37.59 15.62 46.89 16.3 47.29l3.15 1.82s2.78-17.97 8.19-26.93c1.8-.01 7.69-.05 7.69-.05l-.98-3.62c-.02-.07-.2-.75-.57-1.79 2.72.83 5.85 1.46 9.23 1.56l.26.01.25-.04c26.2-6.71 52.09-2.52 52.34-2.51l7.57.48-5.35-5.38c-15.12-15.2-32.5-21.6-49.45-22.67-9.36-.58-19.08-.25-23.88-.07-.7-2.62-1.88-5.53-2.52-8.12 5.47-1.37 9.99-2.18 10.04-2.18l7.45-1.33s-18.59-11.47-20.61-12.71c5.86-36.95 29.38-51.27 46.66-60.88 5.29 6.04 11.84 9.46 38.79 56.21l3.31 5.75 1.93-6.35c6.33-20.82 6.07-46.06-.62-69.78 1.13-.17 17.44-6.73 50.25-18.77 38.22-14.01 69.11-32.83 102.26-79.4 20.86-29.26-10.19-37.09-53.57-41.26zm-176.85 12.72 11.11-8.2s-10.74-1.13-11.2-1.75c.38-5.07.1-8.38-.27-10.98-.3-2.05-.67-3.66-.84-5.33 27.78-6.62 38.9 17.11 43.02 31.13-3.77 1.44-7.58 2.99-11.42 4.63-10.87 4.63-21.97 10.06-33.26 16.38 1.55-9.66 2.86-25.88 2.86-25.88zm-53.11 178.34c-6.73-33.58-6.65-55.1 3.94-83.87 2.05-5.59 4.43-11.02 7.14-16.26 3.22 1.4 6.73 3.61 11.61 6.99-7 9.94-29.69 38.19-22.69 93.14zm35.4 25.53s6.12 4.99 10.55 7.72c-1.87.44-3.96.93-6.13 1.53l-2.67.73s3.52 14.79 9.51 28.62l.5-10.9c.16-.01 9-1.05 24.81-.13 13.38.79 26.08 5.67 38.34 16.29-21.77-3.65-48.17 6.37-59.53.09l-1.57 1.53c.65 1.5 1.09 4.13 1.59 5.31-.88 0-5.6-.23-5.6-.23s-5.77 11.59-7.05 23.17c-13.66-15.56-7.72-35.62-7.72-35.62l13.67 6.23c-28.66-51.53-2.73-91.02 33.68-109.24-27 16.77-42.74 35.66-42.38 64.9zm93.08-18.62c-.99-16.46-10.71-39.25-18.27-50.97 4.16-1.89 15.77-4.89 15.77-4.89 5.09 19.68 5.67 39.5 2.5 55.86zm74.11-121.36c5.09-1.41 8.87-3.25 8.87-3.25-1.94 2.98-3.92 5.16-5.98 6.86-.65-1.32-1.64-2.52-2.89-3.61zm-17.06-21.7-.02-.01c1.16-.31 2.32-.61 3.45-.89.1 1.34-.11 3.12-1.21 4.46.01.01-.74-1.94-2.22-3.56zm.53 15.11c-1.08-.21-2.18-.38-3.31-.53 2.37-1.54 3.8-3.37 3.8-3.37.21 1.64-.02 2.86-.49 3.9zm7.79-3.83c-.04 2.31-.62 3.95-1.53 5.32-1.34-.41-2.76-.77-4.25-1.08 3.46-1.79 5.78-4.24 5.78-4.24zm-1.31-13.03c2.01-.46 3.96-.85 5.87-1.21-.75 1.73-2.23 4.02-4.27 5.64 0-.01-.46-2.36-1.6-4.43zm10.21 16.05c-.76 2.32-1.77 4.02-2.97 5.42-1.13-.67-2.4-1.29-3.78-1.85 3.92-1.57 6.75-3.57 6.75-3.57zm-1.06-17.85c2.25-.37 4.42-.67 6.5-.91-.93 1.86-2.61 4.53-6.21 6.53.01 0 .39-3.03-.29-5.62zm2 41.06c1.47-2.3 2.32-4.4 2.63-6.35 3.88-.12 7.02-1.09 7.02-1.09-3.13 3.99-6.41 6.41-9.65 7.44zm9.07-35.18s.46-3.92.19-7.22c2.47-.16 4.81-.25 7.01-.23h.28.01c-1.25 2.18-2.41 5.22-7.49 7.45zm9.03 1.93s4.07-6.94 4.35-9.08c2.67.27 5.07.69 7.2 1.24-2.36 2.28-4.99 5.35-11.55 7.84zm16.82-5.72c.12.02.26.03.43.04 2.29 1.21 3.96 2.65 4.99 4.27.35.41-.47.7-.56.76-3.18 2.03-6.05 4.2-13.27 5.94-.01 0 5.83-6.97 8.41-11.01zm2.45 16.78c-.01 0-.01 0 0 0-1.81-.1-3.91-.38-6.51-.96 0 0 6.04-2.63 10.31-4.96 0 0-.98 3.17-3.8 5.92zm13.91-10.17c-.32.36-.66.71-.98 1.06 1.76-18.8-34.4-22.78-88.89-4.8-.33.09-20.12 16.49-19.88 16.87 12.05-5.13 91.69-2.65 35.58 33.24-32.07 10.85-65.25 15.22-95.13 26.67-1.79.62-3.6 1.35-5.44 2.17-18.32 7.67-35 18.21-48.76 34.71.09-.23.08-1.11.08-1.13 3.51-51.55 40.33-68.99 46-75.12-61.33-44.43-125.13-38.94-127.81-38.67 18.68-6.86 67.56-7.86 113.7 8.3-5.66-4.22-13.48-8.74-19.03-11.34-.06-.05-.31-.24-.69-.56-.2-.38.42-.86 3.05-2.48 99.85-61.67 186.47-41.73 220.43-34.42h.02c.13.04.26.09.36.11 19.47 5.89 19.1 10.46-12.61 45.39zm-76.67-3.18c1.07-.32 2.12-.64 3.16-.94.1.94-.04 2.22-.9 3.23 0 0-1.1-1.24-2.26-2.29zm1.83 12.21c-.93-.1-1.88-.15-2.86-.22 1.72-1.5 2.66-2.98 2.66-2.98.34 1.27.37 2.29.2 3.2zm-7.54-10.33c.55-.17 1.12-.35 1.66-.53 0 .67-.06 1.62-.29 2.07 0 0-.65-.94-1.37-1.54zm1.08 9.95c-.83-.01-1.65-.02-2.46-.01 1.04-1.31 1.47-2.48 1.47-2.48.64.96.92 1.77.99 2.49zm-5.63-.07c-.48.02-.97.05-1.44.07.49-.88.72-1.51.72-1.51.3.51.54.98.72 1.44z"/><path d="m157.56 54c-2.71 7.53-4.33 16.95-5.07 21.36 2.11-4.23 8.86-17.64 12.67-24.3-2.54.9-5.06 1.87-7.6 2.94z"/><path d="m141.53 74.4c1.91-3.08 7.6-12.51 10.93-18.04-2.45 1.12-4.94 2.31-7.5 3.64-1.54 4.91-2.67 10.28-3.43 14.4z"/><path d="m132.5 73.13c1.91-3.07 4.13-6.51 7.41-10.55-2.36 1.3-3.34 1.71-5.84 3.17-.63 2.34-1.12 5.19-1.57 7.38z"/><path d="m248.96 36.19c-2.75-2.38-6.86-4.82-9.69-4.12-5.22 4.58-.91 8.35-.91 8.35l12.46-.56c1.88-.46-.02-2.08-1.86-3.67z"/><path d="m163.07 78.43c2.81-5.62 11.8-23.48 16.86-32.35-3.37 1.2-6.73 2.5-10.11 3.92-3.61 10.02-5.77 22.56-6.75 28.43z"/><path d="m145.21 189.18c0 3.79 3.05 6.84 6.84 6.84s6.84-3.05 6.84-6.84-3.06-6.84-6.84-6.84-6.84 3.05-6.84 6.84zm11.42 0c0 2.58-2 4.7-4.58 4.7s-4.58-2.12-4.58-4.7 1.99-4.71 4.58-4.71 4.58 2.13 4.58 4.71z"/><path d="m149.35 185.72v6.93h1.65v-2.77h.66l1.39 2.77h1.77l-1.55-2.87c1.02-.05 1.83-.55 1.83-1.88 0-1.7-1.1-2.18-3.06-2.18zm3.99 1.99c0 .68-.35.91-.97.9h-1.37v-1.61h1c.53 0 1.34.04 1.34.71z"/></g></svg>