<svg enable-background="new 0 0 512 512" viewBox="0 0 512 512" xmlns="http://www.w3.org/2000/svg"><path d="m491.318 0h-156.879c-11.423 0-20.682 9.26-20.682 20.682s9.259 20.682 20.682 20.682h136.197v136.197c0 11.422 9.259 20.682 20.682 20.682s20.682-9.26 20.682-20.682v-156.879c0-11.422-9.259-20.682-20.682-20.682z"/><path d="m177.561 470.636h-136.196v-136.197c0-11.423-9.26-20.682-20.682-20.682-11.423 0-20.683 9.259-20.683 20.682v156.879c0 11.423 9.26 20.682 20.682 20.682h156.879c11.422 0 20.682-9.259 20.682-20.682.001-11.423-9.26-20.682-20.682-20.682z"/><path d="m505.943 6.058c-8.077-8.077-21.172-8.077-29.249 0l-183.025 183.025c-8.076 8.077-8.076 21.172 0 29.249 4.038 4.038 9.332 6.058 14.625 6.058 5.292 0 10.586-2.019 14.625-6.058l183.024-183.025c8.076-8.077 8.076-21.172 0-29.249z"/><path d="m218.332 293.669c-8.076-8.077-21.172-8.077-29.249 0l-183.025 183.024c-8.077 8.077-8.077 21.172 0 29.249 4.038 4.04 9.332 6.058 14.624 6.058 5.293 0 10.586-2.019 14.625-6.058l183.025-183.025c8.077-8.076 8.077-21.171 0-29.248z"/></svg>