<svg id="Layer_1" data-name="Layer 1" xmlns="http://www.w3.org/2000/svg" viewBox="0 0 256 256"><title>knee-pads</title><path d="M-12.86,98.83c-5.56-14-9.44-26.67-12.57-36.81-2.86-9.33-4.94-16.07-7-19.6-3.4-5.74-11.36-19.18-33.3-21.84C-84.32,18.33-99.28,7.28-99.43,7.17a3,3,0,0,0-4.17.55c-.34.43-8.6,10.65-24.4,10.65S-152.06,8.15-152.39,7.73a3,3,0,0,0-4.18-.56c-.15.11-15.11,11.16-33.67,13.41-21.94,2.66-29.9,16.1-33.3,21.84-2.09,3.53-4.17,10.27-7,19.6-3.12,10.14-7,22.76-12.56,36.81C-253.88,126-255.92,198.31-256,201.38a3,3,0,0,0,2.86,3.08l31.62,1.56a3,3,0,0,0,3.14-2.77c0-.44,3.49-44.31,9.15-69.11,4.74-20.74,12.77-32.81,18.21-39.38,2.47,13.55,8,47.09,6.18,66.92-.41,4.48-4.1,44.91-6.74,84.55l6,.4c2.63-39.56,6.31-79.93,6.73-84.4,1.13-12.3-.37-29.17-2.31-43.77,1.84,6.55,3.64,13.46,5.47,20.52,10.42,40.18,21.21,81.73,47.69,81.73,26.3,0,40.4-40,50.89-80a144.6,144.6,0,0,0,0,21.53c.42,4.48,4.1,44.93,6.73,84.4l6-.4c-2.63-39.55-6.33-80.06-6.74-84.55C-73,141.85-67.45,108.31-65,94.76c5.44,6.57,13.48,18.64,18.21,39.38,5.66,24.8,9.11,68.67,9.15,69.11A3,3,0,0,0-34.48,206l31.62-1.56A3,3,0,0,0,0,201.38C-.08,198.31-2.12,126-12.86,98.83Zm-202.23,34c-5,21.77-8.17,56.72-9,67.07l-25.76-1.28c.5-14,3.17-74.41,12.34-97.55,5.65-14.27,9.57-27,12.72-37.27,2.64-8.59,4.73-15.38,6.46-18.3,3.06-5.17,9.3-15.68,26.5-18.59,7.77,21.88,5.64,32.68.14,59.63C-196.67,91.75-208.74,105-215.09,132.81ZM-128,214.7c-21.83,0-32.48-41-41.87-77.23-5-19.15-9.68-37.25-15.87-50.2,5.43-26.62,7.73-38.69-.08-61.29A85.91,85.91,0,0,0-155.2,13.53,38.69,38.69,0,0,0-128,24.39a38.69,38.69,0,0,0,27.2-10.86A86,86,0,0,0-70.17,26c-7.77,22.63-5.16,35.49.28,62.12-2.34,8-4.73,17.71-7.25,28C-87.33,157.71-101.28,214.7-128,214.7Zm96.13-14.82c-.87-10.35-4.07-45.3-9-67.07-6.25-27.38-18-40.62-23.11-46-5.43-26.61-7.77-38.19-.11-59.9,17.2,2.91,23.44,13.42,26.5,18.59,1.73,2.92,3.82,9.71,6.46,18.3C-28,74-24.1,86.78-18.45,101.05c9.17,23.13,11.84,83.52,12.34,97.55Z"/><path d="M78.9,256.4H34.1A34.1,34.1,0,0,1,0,222.3V33.5A34.1,34.1,0,0,1,34.1-.6H78.9A34.1,34.1,0,0,1,113,33.5V222.3A34.1,34.1,0,0,1,78.9,256.4ZM6,33.61V223.19A28.21,28.21,0,0,0,34.21,251.4H78.79A28.21,28.21,0,0,0,107,223.19V33.61A28.21,28.21,0,0,0,78.79,5.4H34.21A28.21,28.21,0,0,0,6,33.61Z"/><path d="M221.9,256.4H177.1A34.1,34.1,0,0,1,143,222.3V33.5A34.1,34.1,0,0,1,177.1-.6h44.8A34.1,34.1,0,0,1,256,33.5V222.3A34.1,34.1,0,0,1,221.9,256.4ZM149,33.61V223.19a28.21,28.21,0,0,0,28.21,28.21h44.58A28.21,28.21,0,0,0,250,223.19V33.61A28.21,28.21,0,0,0,221.79,5.4H177.21A28.21,28.21,0,0,0,149,33.61Z"/></svg>