<svg id="Layer_1" data-name="Layer 1" xmlns="http://www.w3.org/2000/svg" viewBox="0 0 256 256"><title>zipper</title><path d="M151.75,182.84a3,3,0,1,0-.07-6H128a3,3,0,1,0-.07,6Z"/><path d="M134.55,192.84a3,3,0,1,0-.07-6H110.77a3,3,0,1,0-.07,6Z"/><path d="M152.61,198.84H128.83a3,3,0,1,0-.07,6h23.78a3,3,0,1,0,.07-6Z"/><path d="M135.34,208.84H111.63a3,3,0,1,0-.07,6h23.85a3,3,0,1,0-.07-6Z"/><path d="M152.61,218.84H128.83a3,3,0,1,0-.07,6h23.78a3,3,0,1,0,.07-6Z"/><path d="M111.63,235.84h23.71a3,3,0,1,0,.07-6H111.56a3,3,0,1,0,.07,6Z"/><path d="M152.61,239.84H128.83a3,3,0,1,0-.07,6h23.78a3,3,0,1,0,.07-6Z"/><path d="M135.41,249.84H111.63a3,3,0,1,0-.07,6h23.78a3,3,0,1,0,.07-6Z"/><path d="M155.25,70.38a.85.85,0,0,0-.25-.76V63.06a7.82,7.82,0,0,0,1.35,1.35l19,12.93a2.93,2.93,0,0,0,3.3-4.85l-19-12.93a2.94,2.94,0,0,0-4.08.78,1.47,1.47,0,0,1-.57.59V26.83c.27-16.8-18.89-27-18.89-27h-9.77S107.18,10,107,26.83V69.62a1.28,1.28,0,0,1,.2.76,2.67,2.67,0,0,0-.36.14L82.29,82.65l1.54,2.7c.22.38,21.49,38.11,21.17,79.5v3h52v-3c.13-41.34,21.4-79.12,21.62-79.5l1.54-2.7L155.61,70.52A2.24,2.24,0,0,0,155.25,70.38ZM113,26.82c0-7.83,1.56-21,12-21h12c10.44,0,12,13.15,12,21V69.65a26.29,26.29,0,0,1-1,7.13V71.46a9.62,9.62,0,0,0-9.62-9.62H123.62A9.62,9.62,0,0,0,114,71.46v5.32a26.29,26.29,0,0,1-1-7.13ZM142,71.6v39.48a3.76,3.76,0,0,1-3.76,3.76H123.76a3.76,3.76,0,0,1-3.76-3.76V71.6a3.76,3.76,0,0,1,3.76-3.76h14.48A3.76,3.76,0,0,1,142,71.6Zm8.72,90.24H111.28c-1-36-16.07-68-20.92-77.38l17.5-8.77A28.23,28.23,0,0,0,114,87.82v22.4a9.62,9.62,0,0,0,9.62,9.62h14.76a9.62,9.62,0,0,0,9.62-9.62V87.82a28.23,28.23,0,0,0,6.14-12.13l17.5,8.77C166.79,93.88,151.75,125.83,150.72,161.84Z"/><path d="M131.23,29.19a5.63,5.63,0,1,0-5.63-5.63A5.63,5.63,0,0,0,131.23,29.19Zm0-5.86a.23.23,0,0,1,.23.23c0,.26-.47.26-.47,0A.23.23,0,0,1,131.23,23.33Z"/><path d="M228.79,36.3,217.12,16.12a2.93,2.93,0,1,0-5.07,2.94l11.67,20.17a2.93,2.93,0,0,0,2.54,1.47,2.87,2.87,0,0,0,1.46-.4A2.93,2.93,0,0,0,228.79,36.3Z"/><path d="M173,46.88a2.93,2.93,0,0,0-3.86,4.42l17.42,15.22a2.91,2.91,0,0,0,4.13-.28,2.92,2.92,0,0,0-.27-4.13Z"/><path d="M186.64,35.86a2.93,2.93,0,1,0-4.3,4l15.79,17a2.93,2.93,0,1,0,4.3-4Z"/><path d="M201.35,25.58a2.93,2.93,0,0,0-4.71,3.5L210.27,47.4a2.93,2.93,0,0,0,2.35,1.18,2.87,2.87,0,0,0,1.75-.58,2.92,2.92,0,0,0,.6-4.1Z"/><path d="M49,14.1a2.94,2.94,0,0,0-4,1.07L33.28,35.34a2.93,2.93,0,0,0,5.08,2.94L50,18.1A2.93,2.93,0,0,0,49,14.1Z"/><path d="M85.06,76.89a3,3,0,0,0,1.65-.51l19-12.92a2.93,2.93,0,0,0-3.3-4.85l-19,12.92a2.93,2.93,0,0,0,1.65,5.36Z"/><path d="M93.18,46.2A2.93,2.93,0,0,0,89,45.93L71.63,61.15a2.93,2.93,0,0,0,3.86,4.42L92.9,50.34A2.93,2.93,0,0,0,93.18,46.2Z"/><path d="M79.58,34.74a2.93,2.93,0,0,0-4.14.16L59.65,52a2.93,2.93,0,1,0,4.3,4l15.79-17A2.94,2.94,0,0,0,79.58,34.74Z"/><path d="M64.83,24a2.93,2.93,0,0,0-4.1.6L47.11,43a2.93,2.93,0,0,0,4.7,3.5L65.43,28.12A2.93,2.93,0,0,0,64.83,24Z"/></svg>