<svg id="Layer_1" data-name="Layer 1" xmlns="http://www.w3.org/2000/svg" viewBox="0 0 256 256"><title>wrist-silicone</title><path d="M64,184.27a13.84,13.84,0,0,0,2.79,2.15l2.84,2c30.07,17.37,47,14.12,61.87,11.25,5.34-1,10.38-2,15.77-2,7.45,0,15.59,1.85,26.16,8L217.29,231a8.41,8.41,0,0,0,4.28,1.09c3.37,0,7.15-1.66,11.24-4.95,5.13-4.13,10.32-10.49,14.6-17.91s7.19-15.08,8.2-21.59c1.59-10.24-2.08-14-4.41-15.37l-43.85-25.31c-18.22-10.52-21.88-21.09-26.12-33.33-5-14.35-10.61-30.6-40.71-48l-3.13-1.42a13.51,13.51,0,0,0-3.27-1.35C133,55,129.77,49.41,124.75,46.51L89.32,26.06C73,16.62,42.67,39.48,20.37,78.12s-27,76.31-10.61,85.75l35.42,20.45C50.2,187.22,56.69,187.2,64,184.27Zm183.81-6.18c.83.48,2,2.8,1.12,8.48s-3.57,12.64-7.38,19.26-8.55,12.45-13,16c-3.37,2.71-5.68,3.47-7,3.47a1.86,1.86,0,0,1-.93-.2c-1.72-1-1.65-5.31-1-9,.69-4,2.51-10.45,7.28-18.72,3.82-6.61,8.55-12.45,13-16s7.07-3.75,7.9-3.27Zm-73-62.28c4.3,12.38,8.73,25.19,29.13,37l35.63,20.56-1.39.92a30.41,30.41,0,0,0-2.53,1.84c-5.14,4.13-10.32,10.49-14.6,17.9-5,8.65-8.09,17.66-8.51,24.73l-.1,1.66L176.82,199.8c-10.45-6-19.86-8.84-29.59-8.84a87.93,87.93,0,0,0-17,2.1h0c-14.42,2.77-29.33,5.64-57.21-10.46l-2.84-2c-4.67-2.7-6.3-11-4.48-22.82,2-13,8-28.61,16.73-43.8S101.71,85.85,112,77.58c9.31-7.49,17.33-10.23,22-7.53l3.12,1.43C165.06,87.59,170,101.94,174.84,115.81Zm-47-53.4c-14.82,1.63-35,20-51.24,48.18C67.42,126.48,61.18,142.87,59,156.73,57.6,166,58.13,173.61,60.5,179c-3.86,1.36-8.54,2.11-12.25,0-11.52-6.65-9.11-39.33,12.86-77.37s49.05-56.47,60.57-49.81C125.37,54,127.07,58.36,127.83,62.41Zm-115,96.15C1.3,151.9,3.72,119.23,25.68,81.19S74.73,24.72,86.25,31.37l24,13.85C93.77,49.46,72.53,69.58,55.79,98.58s-23.54,57.44-19,73.83Z"/><path d="M507.26,170.33l-43.21-25C446.1,135,442.49,124.59,438.3,112.53c-4.9-14.14-10.45-30.16-40.12-47.28L334,28.57c-14.34-8.28-40.1,11.38-59.92,45.72C265,90,258.9,106.1,256.78,119.76c-2.27,14.71.44,25.11,7.65,29.27l63.89,37.26c29.65,17.12,46.3,13.92,61,11.09a81.19,81.19,0,0,1,15.54-2c7.34,0,15.36,1.82,25.78,7.84l43.22,25a8.38,8.38,0,0,0,4.22,1.08c3.32,0,7.05-1.65,11.07-4.89,5.06-4.07,10.17-10.34,14.39-17.64s7.09-14.87,8.09-21.29C513.18,175.39,509.56,171.65,507.26,170.33Zm-119.2,20.51c-14.21,2.74-28.91,5.56-56.39-10.31l-63.9-37.26c-4.6-2.66-6.21-10.86-4.41-22.49,2-12.86,7.85-28.19,16.49-43.16s19-27.71,29.14-35.87c9.17-7.37,17.08-10.08,21.7-7.41L394.87,71c27.5,15.88,32.4,30,37.14,43.69,4.23,12.21,8.61,24.82,28.71,36.43l35.11,20.27-1.36.9c-.89.59-1.71,1.18-2.5,1.82-5.06,4.07-10.17,10.34-14.39,17.65-4.92,8.52-8,17.4-8.38,24.37l-.1,1.63L434,197.49c-10.3-6-19.57-8.72-29.16-8.72a86.9,86.9,0,0,0-16.74,2.07m115.87-14.75c.82.47,2,2.76,1.11,8.36s-3.51,12.46-7.28,19S489.34,215.7,485,219.22c-3.33,2.67-5.61,3.41-6.88,3.41a1.82,1.82,0,0,1-.91-.19c-1.7-1-1.63-5.23-1-8.89.67-3.92,2.47-10.3,7.17-18.45,3.76-6.51,8.42-12.27,12.79-15.79s7-3.69,7.79-3.22"/></svg>