<svg id="Layer_1" data-name="Layer 1" xmlns="http://www.w3.org/2000/svg" viewBox="0 0 256 256"><title>pocket-left</title><path d="M45,28.73V205.5a20.31,20.31,0,0,0,14.18,19.36l90.45,28.6c6.12,1.93,9.35,2.9,12.53,2.9s6.3-1,12.2-2.91l33.36-11a3.3,3.3,0,0,0,2.28-3.14V39.38a3.33,3.33,0,0,0-2.32-3.17L93.81-.2a3.37,3.37,0,0,0-2.06,0l-39,12.84C45.22,15.14,45,27.34,45,28.73ZM159,126h0a6.62,6.62,0,0,1-3,5.71c-6.51,4.82-24.2,6.13-49.06-1.81C74.81,119.67,52.2,100,52,88.84V29.43a23.79,23.79,0,0,1,.82-5.89L160.15,57.73a29.74,29.74,0,0,0-1.15,7.9Zm37.42-86.09-29.07,9.58A8.18,8.18,0,0,0,164,51.66L59.9,18.38l34-11.21ZM172.77,247.55c-3,1-5,1.65-6.77,2.06v-185c0-3.57,1.16-9.12,3.2-9.79L204,43.32v194ZM52,204.89V103.46c9.94,12.39,30,25.13,52.92,32.49,12.56,4,24.28,6,34,6,8.44,0,15.36-1.54,20.06-4.59V248.79c-1.83-.4-4-1.1-7.22-2.1l-90-28.47A14,14,0,0,1,52,204.89Z"/></svg>