<svg id="Layer_1" data-name="Layer 1" xmlns="http://www.w3.org/2000/svg" viewBox="0 0 256 256"><title>renfort-cul</title><path d="M245.9,252.4H146.22a5.75,5.75,0,0,1-3.3-1,5.52,5.52,0,0,1-2.41-4.62c.41-45.32-3.32-94.38-12.51-104.8-9.19,10.42-12.92,59.48-12.51,104.8a5.52,5.52,0,0,1-2.41,4.62,5.75,5.75,0,0,1-3.3,1H10.1a5.51,5.51,0,0,1-5.51-5C3.57,236.74.25,197.23.25,135.85.25,71.52,15,25.66,18,17.12a5.54,5.54,0,0,1,5.23-3.72H232.81A5.54,5.54,0,0,1,238,17.13c3,8.53,17.71,54.39,17.71,118.72,0,61.38-3.32,100.89-4.34,111.54A5.51,5.51,0,0,1,245.9,252.4Zm-98.4-7h97.07c.93-10.17,4.18-49.92,4.18-109.55,0-61.06-13.47-105-17-115.45H24.24c-3.52,10.44-17,54.39-17,115.45,0,59.63,3.25,99.38,4.18,109.55H108.5c-.06-8.43,0-31.29,1.74-53.83,3.64-47.29,11.69-53.8,14.34-55.93h0a5.45,5.45,0,0,1,6.84,0c2.65,2.13,10.7,8.64,14.34,55.93C147.5,214.11,147.56,237,147.5,245.4ZM129,140.86Z"/></svg>