<svg id="Layer_1" data-name="Layer 1" xmlns="http://www.w3.org/2000/svg" viewBox="0 0 256 256"><title>boots-teckna</title><path d="M199.53,178a192.94,192.94,0,0,1-34.78-10.21c-15.23-6.26-33.38-16.94-33.38-32.3V12.85H-.63V70.11c0,15.33,3.58,28.9,7,42,3,11.22,5.76,21.83,5.76,32.07s-1.67,17.47-3.43,25.2c-2,9-4.37,19.13-4.37,35.2v39.24h202.4c41.7,0,50.45-16.79,50.45-30.87C257.22,190.63,205.52,179.22,199.53,178ZM125.37,88.85H7.49A94.91,94.91,0,0,1,5.37,69.56v-.71h120Zm0-71v45H5.37v-45Zm-113,91.75c-1.4-4.84-2.82-9.74-4-14.75h117v39.88c0,35.18,70.15,48,73,48.51A170.21,170.21,0,0,1,232.5,194.5c-4.74,6.72-21,26.35-48.8,26.35H131.13c-23.38-23.3-41.15-32.78-70.48-48.41l-1-.55c-17.1-9.12-25.36-22.31-31.39-31.95-3.95-6.29-7-11.14-11.19-12.66C15.82,121.49,14.13,115.63,12.38,109.6ZM15,170.17c2-8.1,4-15.74,4-26.66a64.39,64.39,0,0,0-.43-7.2c1.43,1.86,3,4.31,4.61,6.94,6,9.61,15.13,24.15,33.62,34l1,.54c27.83,14.84,44,23.5,64.59,43h-112V203.91C10.37,188.58,12.72,179.22,15,170.17Zm191.5,67.68H10.37v-10H183.44c31.76,0,49.4-21.51,54.11-28.18,7.71,4.16,13.33,9.06,13.33,14.42C250.88,229.85,235.94,237.85,206.49,237.85Z"/></svg>