<svg xmlns="http://www.w3.org/2000/svg" viewBox="0 0 841.89 595.28"><defs><style>.cls-1{fill:#231fff;}</style></defs><g id="Layer_1_copy_2" data-name="Layer 1 copy 2"><path class="cls-1" d="M382.06,211.77H367.6V195.46h48.11v16.31H401.26v57.39h-19.2Z"/><path class="cls-1" d="M419.32,195.46h19.2v73.7h-19.2Z"/><path class="cls-1" d="M456.59,211.77H442.14V195.46h48.1v16.31H475.79v57.39h-19.2Z"/><path class="cls-1" d="M501,195.46h24.15l18,73.7H522.66l-2-12.9H505.42l-2,12.9H483Zm12.18,15.07H513l-5.26,31.28h10.73Z"/><path class="cls-1" d="M546.3,195.46h21.47l12.39,45.42h.2V195.46h18v73.7H577.27l-12.8-45.52h-.21v45.52h-18Z"/><path class="cls-1" d="M606.69,195.46h19.2v73.7h-19.2Z"/><path class="cls-1" d="M652.63,195.46v53.16c0,7.12,2.16,9,5.78,9s5.78-1.86,5.78-9V195.46h19.2v48.31c0,20.64-8.88,26.84-25,26.84s-25-6.2-25-26.84V195.46Z"/><path class="cls-1" d="M690.93,195.46h27.45l7.75,43.66h.2l7.75-43.66h27.45v73.7h-18V214.25h-.2l-10.22,54.91H719.31l-10.22-54.91h-.2v54.91h-18Z"/><path class="cls-1" d="M367.6,274.14h18.95l10.93,40.08h.19V274.14h15.85v65H394.93L383.64,299h-.18v40.17H367.6Z"/><path class="cls-1" d="M420.26,274.14H458.8V288H437.21V299.1h20.22v13.3H437.21v12.93h22.41v13.85H420.26Z"/><path class="cls-1" d="M489.59,272.86c17.31,0,23.23,9.48,23.23,33.8s-5.92,33.79-23.23,33.79-23.22-9.47-23.22-33.79S472.29,272.86,489.59,272.86Zm0,56.12c5.2,0,5.74-4.74,5.74-22.32s-.54-22.32-5.74-22.32-5.73,4.74-5.73,22.32S484.4,329,489.59,329Z"/><path class="cls-1" d="M519.57,274.14H545c12.93,0,18.76,8.65,18.76,20,0,13.3-7.56,20.22-21.31,20.22h-5.92v24.78H519.57Zm16.95,28.05h3.18c4.29,0,6.56-2.46,6.56-7.92s-2.27-7.93-6.56-7.93h-3.18Z"/><path class="cls-1" d="M570.5,274.14H597c12.94,0,17.85,7.28,17.85,17.31,0,8.65-3.37,14.3-11.11,15.48v.18c8.2.73,10.66,5.93,10.66,14.58v5.56c0,3.37,0,7.74.82,9a4.44,4.44,0,0,0,1.91,2v.91h-18c-1.64-3.46-1.64-9.66-1.64-12.39v-4.37c0-7.38-1.46-9.29-5.56-9.29h-4.46v26.05h-17Zm17,27.51h3.37c4.82,0,7.1-3.1,7.1-7.75,0-5.28-2.09-7.56-7.2-7.56h-3.27Z"/><path class="cls-1" d="M623.89,274.14h38.53V288H640.83V299.1h20.23v13.3H640.83v12.93h22.41v13.85H623.89Z"/><path class="cls-1" d="M670,274.14h19l10.93,40.08h.18V274.14H715.9v65H697.32L686,299h-.18v40.17H670Z"/><path class="cls-1" d="M722.65,274.14h38.53V288H739.59V299.1h20.23v13.3H739.59v12.93H762v13.85H722.65Z"/><path class="cls-1" d="M378,355.73H367.66V344.1H402v11.63h-10.3v40.92H378Z"/><path class="cls-1" d="M405.06,344.1h21.42c10.45,0,14.43,5.89,14.43,14,0,7-2.73,11.56-9,12.52v.14c6.63.59,8.62,4.79,8.62,11.78V387c0,2.72,0,6.26.66,7.29a3.56,3.56,0,0,0,1.55,1.62v.73H428.17c-1.32-2.79-1.32-7.8-1.32-10v-3.53c0-6-1.18-7.51-4.49-7.51h-3.61v21H405.06Zm13.69,22.23h2.72c3.9,0,5.74-2.51,5.74-6.26,0-4.27-1.69-6.11-5.81-6.11h-2.65Z"/><path class="cls-1" d="M446.8,344.1h13.69v52.55H446.8Z"/><path class="cls-1" d="M466.45,344.1h13.69v41.37H497v11.18H466.45Z"/><path class="cls-1" d="M509.14,344.1h17.23l12.81,52.55H524.6l-1.4-9.2H512.31l-1.4,9.2H496.34Zm8.69,10.74h-.15l-3.75,22.31h7.65Z"/><path class="cls-1" d="M541,344.1h19.58l5.52,31.13h.15l5.52-31.13h19.57v52.55h-12.8V357.49h-.15l-7.29,39.16h-9.86l-7.29-39.16h-.15v39.16H541Z"/><path class="cls-1" d="M596.75,344.1h13.69v52.55H596.75Z"/><path class="cls-1" d="M616.4,344.1h15.31l8.83,32.38h.15V344.1H653.5v52.55h-15l-9.12-32.46h-.15v32.46H616.4Z"/><path class="cls-1" d="M668.59,344.1h17.22l12.81,52.55H684.05l-1.4-9.2H671.76l-1.4,9.2H655.78Zm8.69,10.74h-.15l-3.75,22.31H681Z"/><path class="cls-1" d="M703.78,355.73H693.47V344.1h34.3v11.63h-10.3v40.92H703.78Z"/><path class="cls-1" d="M730.87,344.1H762v11.19H744.56v9H760.9V375H744.56v10.46h18.11v11.18h-31.8Z"/><path class="cls-1" d="M232,300.46l-1.31-23.81V243.41h32.81V347.93H231.45L194.14,291l1.31,23.8v33.1H162.64V243.41h32.08Z"/><path class="cls-1" d="M172.09,222.08H141.31v125.8H107.05V222.08H76.27V194.64h95.82Z"/><path class="cls-1" d="M254,369.22h30.78V243.41H319V369.22h30.77v27.43H254Z"/><rect class="cls-1" x="76.27" y="243.41" width="8.32" height="104.47"/><polygon class="cls-1" points="349.79 344.1 341.47 344.1 341.47 202.96 193.42 202.96 193.42 194.64 349.79 194.64 349.79 344.1"/><path class="cls-1" d="M76.47,370.15h8.77c4,0,7.29,1.79,7.29,6.58,0,3.3-1.29,5.31-4,6.15V383c3,.54,4.87,2.32,4.87,6.92s-3.27,7.4-8.36,7.4H76.47Zm7.74,11.44c2.63,0,4-1.75,4-4.3,0-3.22-1.93-3.87-4.37-3.87h-3v8.17ZM85.09,394c2.58,0,4-1.68,4-4.79,0-2.92-1.75-4.6-4.26-4.6h-4V394Z"/><path class="cls-1" d="M100.39,386.68l-7-16.53h4.82l4.56,11.7,4.67-11.7H112l-7.26,16.53v10.59h-4.33Z"/><path class="cls-1" d="M124.4,388.88v.68c0,3.31,1.44,5,4.44,5a3.85,3.85,0,0,0,4.1-4c0-2.85-1.44-4.1-3.87-4.83l-3-1c-3.95-1.52-5.65-3.57-5.65-7.45,0-4.93,3.34-7.67,8.43-7.67,7,0,7.67,4.33,7.67,7.14v.61h-4.33v-.57c0-2.47-1.1-3.91-3.8-3.91-1.86,0-3.64,1-3.64,3.91,0,2.32,1.17,3.5,4.06,4.6l2.92,1.06c3.84,1.37,5.51,3.46,5.51,7.18,0,5.77-3.49,8.16-9,8.16-6.73,0-8.24-4.48-8.24-8.28v-.64Z"/><path class="cls-1" d="M139.7,370.15h14.47v3.65H144v7.52h9.53V385H144v12.3H139.7Z"/><path class="cls-1" d="M167.31,373.8h-6.45v-3.65H178v3.65h-6.34v23.47h-4.33Z"/><path class="cls-1" d="M179.39,370.15h14.66v3.65H183.72v7.52h9.72V385h-9.72v8.66h10.63v3.64h-15Z"/><path class="cls-1" d="M213.27,387.55v.57c0,4.9-2,9.68-8.36,9.68-6.83,0-9-4.4-9-14.09s2.13-14.09,9-14.09c7.71,0,8.17,5.7,8.17,8.51v.49h-4.33v-.45c0-2.51-.76-5.39-3.88-5.28s-4.63,2-4.63,10.71,1.44,10.94,4.63,10.94c3.61,0,4-4,4-6.54v-.45Z"/><path class="cls-1" d="M215.24,370.15h4.33V381h8V370.15h4.33v27.12h-4.33V384.66h-8v12.61h-4.33Z"/></g></svg>