<svg enable-background="new 0 0 512 512" viewBox="0 0 512 512" xmlns="http://www.w3.org/2000/svg"><path d="m335.135 0v29.8h70.664c-2.799 1.757-5.55 3.779-8.239 5.679-10.412 7.355-19.771 15.566-28.02 24.521h-64.54v29.8h42.648c-5.359 9.489-9.725 19.716-13.047 30.2h-33.601-90-33.601c-3.322-10.484-7.688-20.511-13.047-30h42.648v-30h-64.54c-8.249-8.955-17.608-17.166-28.02-24.521-2.689-1.9-5.44-3.722-8.239-5.479h70.664v-30h-176.865v30c53.228 0 100.374 23.064 128.285 59.767v.233h.173c10.014 13.227 17.529 28.218 21.942 44.532-14.696 47.412-12.1 97.977 7.322 143.586-4.356 11.581-6.722 24.035-6.722 36.882v.066c.091 20.456-6.916 44.76-13.692 68.263-12.913 44.788-41.649 128.671 67.479 128.671h102.427c34.395 0 57.291-8.208 69.996-25.094 19.77-26.275 8.944-63.823-2.517-103.577-6.776-23.503-13.783-47.807-13.692-68.263v-.066c0-12.847-2.366-25.302-6.722-36.881 19.422-45.609 22.018-96.174 7.322-143.586 4.413-16.314 11.928-31.306 21.942-44.532h.173v-.233c27.91-36.704 75.056-59.768 128.284-59.768v-30zm-.28 150c8.426 31.341 8.155 64.049-.624 94.994-9.182-10.281-20.429-18.79-33.231-24.867v-70.127zm-93.855 0h30v150h-30zm-63.855 0h33.855v70.126c-12.803 6.077-24.049 14.587-33.231 24.867-8.779-30.944-9.051-63.652-.624-94.993zm130.068 332h-102.426c-62.041 0-57.321-25.611-38.653-90.36 7.356-25.515 14.961-51.897 14.865-76.64h.001c0-23.988 11.483-46.078 30-60.003v75.003h90v-75.003c18.517 13.925 30 36.015 30 60.003h.001c-.096 24.743 7.509 51.125 14.865 76.64 18.664 64.735 23.344 90.36-38.653 90.36z"/><path d="m271 362h-30c-24.813 0-45 20.187-45 45s20.187 45 45 45h30c24.813 0 45-20.187 45-45s-20.187-45-45-45zm0 60h-30c-8.271 0-15-6.729-15-15s6.729-15 15-15h30c8.271 0 15 6.729 15 15s-6.729 15-15 15z"/></svg>