<svg xmlns="http://www.w3.org/2000/svg" xmlns:xlink="http://www.w3.org/1999/xlink" version="1.1" id="icon" x="0px" y="0px" viewBox="0 0 288 288" style="enable-background:new 0 0 288 288;" xml:space="preserve">
<g>
  <path d="M259.8,106h-13.1c0,0,0,0,0,0c-0.9,0-1.6-0.7-1.6-1.5v-19c0-6.5-5.2-11.7-11.7-11.7H27.9c-6.5,0-11.7,5.2-11.7,11.7v117.3   c0,6.5,5.2,11.7,11.7,11.7h205.5c6.5,0,11.7-5.2,11.7-11.7v-19c0-0.9,0.7-1.5,1.6-1.5c0,0,0,0,0,0h13.1c6.5,0,11.7-5.2,11.7-11.7   v-52.8C271.5,111.2,266.3,106,259.8,106z M236.2,204.5c0,0.9-0.7,1.5-1.5,1.5h-66.1h-9h-58.7h-9H25.7c-0.9,0-1.5-0.7-1.5-1.5V84.3   c0-0.9,0.7-1.5,1.5-1.5h66.1h9h58.7h9h66.1c0.9,0,1.5,0.7,1.5,1.5V204.5z M262.5,170.5c0,1.5-1.2,2.7-2.7,2.7h-11.5   c-1.5,0-2.7-1.2-2.7-2.7v-52.8c0-1.5,1.2-2.7,2.7-2.7h11.5c1.5,0,2.7,1.2,2.7,2.7V170.5z"></path>
  <path d="M102.4,197h55.6c0.9,0,1.5-0.7,1.5-1.5V93.3c0-0.9-0.7-1.5-1.5-1.5h-55.6c-0.9,0-1.5,0.7-1.5,1.5v102.1   C100.8,196.3,101.5,197,102.4,197z"></path>
  <path d="M34.7,197h55.6c0.9,0,1.5-0.7,1.5-1.5V93.3c0-0.9-0.7-1.5-1.5-1.5H34.7c-0.9,0-1.5,0.7-1.5,1.5v102.1   C33.2,196.3,33.9,197,34.7,197z"></path>
  <path d="M170.1,197h55.6c0.9,0,1.5-0.7,1.5-1.5V93.3c0-0.9-0.7-1.5-1.5-1.5h-55.6c-0.9,0-1.5,0.7-1.5,1.5v102.1   C168.5,196.3,169.2,197,170.1,197z"></path>
</g>
</svg>