<svg id="Layer_1" data-name="Layer 1" xmlns="http://www.w3.org/2000/svg" viewBox="0 0 256 256"><title>valve-heating</title><path d="M126.07,44c17.25,0,35.82-4.28,35.82-13.69s-18.57-13.7-35.82-13.7-35.83,4.29-35.83,13.7S108.81,44,126.07,44Zm0-21.07c19.16,0,29.5,5.24,29.5,7.38s-10.34,7.37-29.5,7.37-29.5-5.23-29.5-7.37S106.9,23,126.07,23Z"/><path d="M256.06,52.74c0-6.66-3-11.5-7.06-11.5H209L197.69,24.52c-7.33-13.2-40.54-20.26-72-20.26s-64.74,7.07-72,20.29L35,53.14C12.23,61.07.2,71.39.2,83.06v31.48c0,12.08,13.55,23.1,38.16,31.05l1.37.42c-16.91,27.34-21,49.7-12.2,66.66,13.07,25.11,39.06,37.84,77.24,37.84,16.36,0,31.56-2.35,41.7-4.08a7.33,7.33,0,0,0,8.29,4.95c21-3.74,48.57-9.42,59.44-11.69a7.3,7.3,0,0,0,4.66-3.18,7.19,7.19,0,0,0,1.16-4.59l12.38-2.71L231,223.06l-12.26,2.69-1.26-5.92,12.3-2.7L228.47,211l-12.33,2.7a7.37,7.37,0,0,0-8.46-4.79c-10.7,2.23-37.8,7.82-58.38,11.49a7.35,7.35,0,0,0-6.06,7.44C118.79,232,63.08,239.94,44.35,204c-5.92-11.37-.84-29.66,14.67-53,19.88,4.15,43,6.38,67.18,6.38,33.13,0,64.32-4.18,87.83-11.77,24.61-8,38.17-19,38.17-31V83.06c0-6.7-4.17-13.09-12.13-18.82H249C253.09,64.24,256.06,59.41,256.06,52.74ZM223,73.49c-.81,6.71-10.8,13.77-27.08,19.05-18.6,6-43.39,9.34-69.8,9.34-8.44,0-16.71-.34-24.67-1,3.23-3.19,5.81-5.64,7.44-7.16a9.44,9.44,0,0,0-.89-14.6,8.7,8.7,0,0,0-3.13-1.49A9.49,9.49,0,0,0,95.9,79.9c-4.31,4-10.7,10.27-18,17.95a170.36,170.36,0,0,1-21.68-5.31C40,87.25,30,80.18,29.18,73.46L53.62,35.77c7.62,13.09,40.63,20.09,71.92,20.09s64.54-7,72-20.24l3.73,5.56a7.5,7.5,0,0,0-5.77,3c-1.79,2.41-2.19,5.84-1.11,9.39,1.83,6,7.32,10.62,12.51,10.62h9.85ZM38.57,207.31c20.8,40.09,79.76,31.67,105.54,27.28l1.08,6.23c-9.93,1.69-24.77,4-40.56,4C69,244.81,44.87,233.17,33,210.22c-9.92-19.1-.64-46.95,27.56-82.78a408.61,408.61,0,0,1,39.72-43.07,3.06,3.06,0,0,1,2.14-.86h.15a3.14,3.14,0,0,1,2,5.44C95.74,97.14,19.22,170,38.57,207.31ZM207.51,57.24c-2.06,0-5.15-2.51-6.18-5.88-.54-1.8-.29-3,.14-3.62a1.25,1.25,0,0,1,1.14-.5h39a19,19,0,0,0,0,10Zm42.17-4.68a11.63,11.63,0,0,1-.74,4.36,11.39,11.39,0,0,1-.75-4.36,11.39,11.39,0,0,1,.75-4.36A11.63,11.63,0,0,1,249.68,52.56ZM76.73,16.71c13-4.2,30.33-6.51,48.81-6.51s35.82,2.31,48.81,6.51c11.37,3.68,18.43,8.69,18.43,13.09s-7.06,9.41-18.43,13.09c-13,4.2-30.33,6.51-48.81,6.51s-35.82-2.31-48.81-6.51C65.36,39.21,58.3,34.19,58.3,29.8S65.36,20.39,76.73,16.71ZM29,62l-5.66,8.74a3.09,3.09,0,0,0-.51,1.72c0,10.29,10.89,19.26,31.5,25.94a168.06,168.06,0,0,0,18.56,4.77c-3.14,3.43-6.37,7.1-9.62,10.93C27.74,107.18,6.32,94.82,6.32,83,6.32,75.71,14.45,68.27,29,62ZM6.2,114.61V96.88c6.26,6.58,17.06,12.5,31.86,17.3a200.74,200.74,0,0,0,20.55,5.38q-1.61,2-3.19,4-7,8.91-12.51,17.23C19.65,133.68,6.2,124,6.2,114.61ZM150.3,227.1c20.67-3.7,47.86-9.33,58.58-11.57a1,1,0,0,1,1.24.81l3.51,16.49a1.06,1.06,0,0,1-.15.8,1.07,1.07,0,0,1-.66.45c-10.85,2.27-38.36,8-59.29,11.7a1,1,0,0,1-.78-.17,1.08,1.08,0,0,1-.43-.68l-.73-4.17-2.15-12.45A1.05,1.05,0,0,1,150.3,227.1Zm95.9-112.49c0,17.71-48.12,36.67-119.75,36.67a331.18,331.18,0,0,1-63.37-5.67c5.63-8,11.76-15.57,17.7-22.43A361.74,361.74,0,0,0,126.45,126c33.15,0,64.36-4.2,87.88-11.82,14.8-4.8,25.6-10.72,31.87-17.3Zm-.39-31.47c0,17.71-48.12,36.67-119.74,36.67a364.44,364.44,0,0,1-40.65-2.19c3.62-4,7.08-7.69,10.22-10.92a301.9,301.9,0,0,0,30.43,1.5c27.05,0,52.54-3.42,71.75-9.65,20.47-6.63,31.35-15.53,31.5-25.73a3.6,3.6,0,0,0-.6-2.07l-4.36-6.51h3.3C239.36,70.06,245.81,76.75,245.81,83.14Z"/></svg>