<svg id="Layer_1" data-name="Layer 1" xmlns="http://www.w3.org/2000/svg" viewBox="0 0 256 256"><title>boots-rockboots</title><path d="M206.79,243.85H44.57A39.4,39.4,0,0,1,5.16,204.49c0-16.07,2.54-26.23,4.78-35.2,1.94-7.72,3.76-15,3.76-25.18s-3.06-20.83-6.3-32.05C3.6,98.94-.32,85.38-.32,70.06V12.85h132V135.47c0,15.36,18.08,26,33.25,32.3A191.75,191.75,0,0,0,199.58,178c6,1.24,57.48,12.65,57.48,35C257.06,227.06,248.34,243.85,206.79,243.85ZM5.68,18.85V70.06c0,14.47,3.8,27.62,7.48,40.33C16.52,122,19.7,133,19.7,144.11c0,10.91-1.91,18.55-3.94,26.64-2.26,9.05-4.6,18.4-4.6,33.72a33.4,33.4,0,0,0,33.41,33.38H206.76c29.37,0,44.27-8.37,44.27-24.87,0-14.79-39-26.26-52.61-29.12-2.89-.51-72.74-13.29-72.74-48.39V18.85Z"/></svg>