<svg id="Layer_1" data-name="Layer 1" xmlns="http://www.w3.org/2000/svg" viewBox="0 0 256 256"><title>hood-sep</title><path d="M174.1,111.41c0-35.09-24.51-63.64-54.63-63.64S64.85,76.32,64.85,111.41s24.5,63.64,54.62,63.64S174.1,146.5,174.1,111.41Zm-103.25,0c0-31.78,21.81-57.64,48.62-57.64s48.63,25.86,48.63,57.64-21.82,57.64-48.63,57.64S70.85,143.2,70.85,111.41Z"/><path d="M179.92,224.49c-9.3-11.22-14.37-21-14.76-28.4a156.7,156.7,0,0,0,13.39-23.74c13.92-29.69,17.7-53.27,15.54-97.06C191.87,30.26,161.55,0,118.65,0S45.43,30.26,43.22,75.29c-2.16,43.79,1.61,67.37,15.54,97.06a157.49,157.49,0,0,0,13.38,23.74c-.38,7.41-5.47,17.21-14.79,28.45a2.86,2.86,0,0,0-.62,1,12.33,12.33,0,0,0-.81,4.37c0,14.87,27,26.09,62.73,26.09s62.73-11.22,62.73-26.09a12.44,12.44,0,0,0-.81-4.39A2.91,2.91,0,0,0,179.92,224.49ZM49.21,75.59C51.26,34,79.17,6,118.65,6s67.4,28,69.45,69.59c2.12,43.18-1.38,65.19-15,94.21-10.37,22.12-25.94,47.52-54.46,47.52-15,0-34.7-5.4-54.46-47.52C50.58,140.78,47.08,118.77,49.21,75.59ZM118.65,250c-33.43,0-56.73-10.59-56.73-20.09a6.05,6.05,0,0,1,.28-1.82c7.87-9.54,12.86-18.1,14.91-25.56,10.13,12,23.4,20.79,41.54,20.79s31.42-8.82,41.55-20.79c2,7.46,7,16,14.91,25.56a6.42,6.42,0,0,1,.27,1.82C175.38,239.41,152.08,250,118.65,250Z"/></svg>