<svg id="Layer_1" data-name="Layer 1" xmlns="http://www.w3.org/2000/svg" viewBox="0 0 256 256"><title>glove</title><path d="M247,95.1c-2.4-5.1-5.6-7-9-7-5.5,0-11.7,5.1-16.4,9.4-9,8.3-15.2,16.9-26.5,22.1-.2-.4,24.5-25.2,27-27.6,8.6-8.3,22.2-16.8,24.8-29.4,1.9-9.6-5.5-15.6-13-15.6a16.35,16.35,0,0,0-2.2.2c-6.8,1.1-23,18.8-32.1,29.2s-17.4,18.3-19.4,18.3a.37.37,0,0,1-.3-.1c-1.1-1.1,38.1-45,39.9-46.9,8.8-9.7,15-24.7-.7-32.2a9.78,9.78,0,0,0-4.1-.9c-11.2,0-22.9,19.3-29.4,25.8-10.4,10.4-19.9,22.4-31.7,31.2-.7-3.3,14.9-17.6,17.1-20.2,5.8-6.7,11.4-13.5,16.9-20.5,4.7-5.9,10.3-14.2,7.8-22.2-1.6-5.3-7.8-8.7-13.5-8.7a13.36,13.36,0,0,0-4,.6c-7.3,2.4-14,12.8-19.2,18.2-6.3,6.6-11.7,13.8-18,20.4-11.4,11.9-21.1,25.2-32.8,36.8-4.2-1.7,11.7-22.7,14-32.6,2.6-11.1-2.7-22.9-11.8-22.9-3.8,0-8.3,2.1-13.2,7.1-6.9,7.2-11.8,24.3-16.3,32.9-5.1,9.8-10.3,20.1-16.6,29.2-7,9.9-5.8,21.6-8.2,33.2-2,9.7-4,17.3-9.3,25.9-6.2,10.2-18.2,15.5-26.7,24-8,8-16.3,12.8-10.5,24.1,10.7,20.9,32.5,36.8,49.6,52.3,3,2.8,7.5,6.8,12.2,6.8h.5c4-.2,7.2-5.3,9.9-8,4-4,8.1-7.8,12.1-11.8,1.6-1.6,3.4-2.2,4.4-4.5,1.3-3.1-.4-3.2,1.9-5.9,3.4-4.1,10-6.2,14.3-9.4a120.53,120.53,0,0,0,12.6-11.1c7.6-7.5,16.6-13.9,24.7-21.1,17.1-15.1,37.4-25.5,55.4-39.3,10.5-8.1,19.5-17.3,29-26.4C243.06,112,251.86,105.3,247,95.1Zm-12.8,17.1c-.7.6-1.4,1.3-2,1.9-1.8,1.8-3.7,3.5-5.5,5.3-7.7,7.4-14.9,14.4-23.1,20.7-7.4,5.7-15.5,11-23.3,16.1-10.9,7.1-22.2,14.5-32.4,23.5-3.2,2.8-6.6,5.6-9.9,8.2-5.1,4.1-10.3,8.4-15.1,13A129.2,129.2,0,0,1,111,211.5a49,49,0,0,1-4.9,2.9c-3.6,1.9-7.7,4.1-10.5,7.6a9.69,9.69,0,0,0-2.6,6.9v.2a.77.77,0,0,1-.1.3,7.05,7.05,0,0,1-.9.7,29,29,0,0,0-2.2,1.9c-2.1,2.1-4.2,4.1-6.3,6.1-1.9,1.8-3.9,3.7-5.8,5.6a28.48,28.48,0,0,0-2.3,2.6c-1,1.2-2.9,3.3-3.8,3.7h0c-2.4,0-6.1-3.4-8.1-5.3-3.6-3.3-7.3-6.5-11.2-9.8-14.4-12.4-29.2-25.3-37.1-40.8-2.6-5.1-1.5-6.9,5.6-13.5,1.2-1.1,2.5-2.3,3.8-3.6a78.24,78.24,0,0,1,10.2-8.3c6.4-4.7,12.9-9.5,17.3-16.8,5.5-9,7.8-16.7,10.1-27.8.8-3.8,1.2-7.4,1.6-11,.9-7.7,1.6-14.3,5.6-20,5.8-8.2,10.6-17.4,15.2-26.3a39,39,0,0,1,1.9-3.5,119.16,119.16,0,0,0,5-11.5c2.9-7.2,6.5-16.1,10.3-20,4.4-4.6,7.4-5.3,8.9-5.3.5,0,2.1,0,3.7,2.1,2.5,3.1,3.4,8.5,2.2,13.5-.8,3.6-4.5,10.2-7.5,15.5-5.9,10.5-8.5,15.3-6.9,19.8a6.68,6.68,0,0,0,4,4.2,5.7,5.7,0,0,0,2.2.4,5.6,5.6,0,0,0,4.2-1.8c6.3-6.3,12.1-13.2,17.7-19.8,4.9-5.7,9.9-11.7,15.1-17.1,3.3-3.4,6.4-7.1,9.3-10.6s5.7-6.7,8.7-9.8c1.6-1.6,3.1-3.5,4.8-5.5,3.7-4.4,8.2-9.9,11.9-11.1a6.65,6.65,0,0,1,2.1-.3c3.5,0,7,2.1,7.8,4.5,1.6,5.4-3.1,12.1-6.8,16.7-5.2,6.5-10.8,13.4-16.7,20.3l-3,3C150.76,63.2,147,67.9,148,72.9a5.85,5.85,0,0,0,3.8,4.4,5.22,5.22,0,0,0,2.1.4,5.78,5.78,0,0,0,3.6-1.2c8.5-6.4,15.8-14.2,22.8-21.8,3.1-3.3,6.3-6.8,9.5-10a94,94,0,0,0,6.3-7.4c5-6.2,13.4-16.7,18.9-16.7a4,4,0,0,1,1.5.3c5.3,2.5,5.9,5.4,6.1,6.4.8,4.2-2,10.6-7.2,16.3-.8.9-11.1,12.3-21.2,23.9-5.7,6.6-10.3,11.9-13.5,15.7-2,2.4-3.4,4.2-4.4,5.5a25.15,25.15,0,0,0-1.4,2.1c-2.6,4.4.1,7.4.7,8a6.27,6.27,0,0,0,4.5,1.8c2.5,0,5-1.1,11.1-6.8,3.8-3.6,8.3-8.4,12.8-13.5,16.2-18.8,25.9-26.5,28.5-27.2a4.87,4.87,0,0,1,1.2-.1,7.58,7.58,0,0,1,6,2.7,6.71,6.71,0,0,1,1.1,5.8c-1.5,7.6-9,14-16.1,20.1-2.5,2.1-4.8,4.1-7,6.2-1.3,1.3-8.2,8.2-14.6,14.7-3.7,3.7-6.6,6.7-8.8,9-1.3,1.3-2.2,2.3-2.9,3-1.3,1.4-3.9,4.2-1.9,8a6.05,6.05,0,0,0,5.3,3.3,7.42,7.42,0,0,0,2.5-.5c9.3-4.3,15.6-10.6,21.6-16.8,2.1-2.1,4.2-4.3,6.5-6.4q8.4-7.8,12.3-7.8c.5,0,1.9,0,3.6,3.6C243.76,102.3,241.76,105.2,234.16,112.2Z"/></svg>