<svg enable-background="new 0 0 451.16 186.36" height="186.36" viewBox="0 0 451.16 186.36" width="451.16" xmlns="http://www.w3.org/2000/svg"><g fill="#ffffff"><path d="m131.89 97.82h.08c1.06.02 1.57-.36 1.77-1.44.13-.72.11-1.62-1.27-2.25l-.04-.02c-8.46-3.21-19.88-6.09-33.89-8.55l-2.87-.5.94-2.76c3.2-9.45 5.88-17.07 7.97-22.67.37-1.09.23-1.92-.45-2.54-.75-.67-1.68-.95-2.78-.8-.68.09-1.65.37-2.37 1.81-2.13 5.02-5.59 12.81-10.59 23.79l-.79 1.74-1.88-.3c-7.9-1.27-12.62-1.99-14.42-2.21l-.25-.04c-.55-.12-1.64-.34-3.78-.69-.86-.14-1.62-.27-2.27-.38l-3.09-.54 1.21-2.89c3.1-7.39 6-14.19 8.64-20.22.46-1.07.59-2.22-1.57-3.21-2.17-.99-3.02-.15-3.56.82-1.37 2.8-3.42 6.82-6.1 11.94-2.42 4.63-4.29 8.22-5.61 10.78l-.8 1.55-1.73-.21c-12.43-1.52-23.03-1.02-31.5 1.47-2.21.57-2.95 1.76-2.46 3.88.24 1.06.65 1.77 1.23 2.12s1.4.4 2.45.13c7.11-1.66 15.5-1.84 25.01-.55l3.41.46-1.49 3.1c-2.77 5.76-5.22 11.28-7.29 16.39l-.56 1.39-1.49.16c-11.88 1.29-24.32 3.99-36.98 8.02-.74.22-2.84.84-2.68 4.39.06 1.21.36 2.07.9 2.54.18.16.72.64 2.22.52 8.51-.72 18.44-.85 29.53-.37l3.12.13-.81 3.01c-2.46 9.13-3.69 17.65-3.68 25.31-.03.9.31 1.36 1.13 1.65.92.32 1.33.03 1.66-.52 4.07-6.23 7.99-15.2 11.67-26.71l.63-1.96 2.04.23c2.56.29 8.52.88 18.22 1.8l3.26.31-1.16 3.06c-6.03 15.91-10.13 30.44-12.21 43.21-.09.6-.06 1.24 1.31 1.64l-.48 2.46.61-2.42c1.45.36 1.84-.35 2.01-.66l.07-.12c7.17-11.61 14.19-26.55 20.86-44.42l.65-1.74 1.85.12c8.89.57 16.77.69 23.43.34h.11.11c.77.02 1.33-.17 1.7-.62.41-.49.59-1.05.55-1.75-.03-.62-.35-1.14-.98-1.59-5.64-4.39-12.06-8.01-19.18-10.8l-2.23-.88.78-2.26c1.58-4.6 2.98-8.75 4.28-12.69l.68-2.05 2.13.37c15.56 2.71 28.01 3.95 37.01 3.67zm-49.38-2.76c-1.61 3.45-3.27 7.15-4.95 10.98l-.8 1.84-1.97-.38c-6-1.17-12.55-1.75-19.34-1.74l-3.53.01 1.17-3.34c1.24-3.55 2.91-8 4.98-13.24l.78-1.98 2.08.45c7.56 1.65 12.47 2.68 14.6 3.06 1.4.17 3.14.44 5.18.81l3.19.58z"/><path d="m275.21 97.1c-12.43-3.56-27.5-4.15-44.83-1.74 3.4-9.1 6.25-16.49 8.46-21.99 2.35-5.85 5.56-12.95 9.55-21.1 3.97-8.13 8.01-15.3 12.02-21.34.44-.68.64-1.34.58-1.98-.06-.65-.34-1.22-.82-1.65-.39-.35-.84-.61-1.32-.77-.5-.16-1.07-.19-1.69-.07-.69.13-1.28.49-1.78 1.11-4.55 6.29-9.16 13.91-13.7 22.65-4.53 8.72-8.1 16.21-10.63 22.25-2.47 5.9-5.74 14.09-9.74 24.35-8.23 1.6-17.09 3.79-26.37 6.52-1.62.52-2.33 1.79-1.96 3.46.19.86.59 1.49 1.18 1.86.57.36 1.28.45 2.05.26 7.62-1.48 14.97-2.69 21.87-3.6-1.93 4.67-4.54 10.32-7.78 16.82-3.55 7.13-6.75 13.43-9.48 18.74-2.76 5.35-5.44 11.61-7.95 18.63-2.52 7.03-4.17 13.73-4.9 19.97-.03.86.45 1.52 1.3 1.77.02 0 .04.01.06.01.76.19 1.51-.08 2.09-.79 2.66-3.56 5.15-7.67 7.39-12.19 2.22-4.5 4.54-9.67 6.91-15.36 2.34-5.64 4.24-10 5.64-12.94 6.05-12.13 10.41-21.7 12.96-28.44.62-1.58 1.56-4.05 2.79-7.33 5.06-.57 9.51-.94 13.25-1.09 2.19-.12 7.29-.21 15.58-.28 8.21-.06 14.64-.42 19.07-1.07 1.24-.13 1.96-1 1.92-2.34-.08-1.75-1.21-2.2-1.72-2.33z"/><path d="m367.04 21.46c.71.1 1.31-.02 1.79-.38.49-.37.79-.94.9-1.7.12-.86-.06-1.57-.48-2.09 2.23-.09 4.34-.16 6.24-.2 4.83-.03 12.53.07 22.9.28 10.42.22 19.79.17 27.83-.15 8.06-.32 15.74-1.17 22.82-2.52 1.28-.14 2.07-1.06 2.12-2.5.05-1.4-.63-2.41-1.87-2.77l-.06-.02-.06-.01c-5.53-.9-11.85-1.48-18.77-1.73s-12.82-.22-17.52.06c-4.67.29-11.29.74-19.67 1.34-8.36.6-14.28 1-17.6 1.19-11.77.66-23.88 1.46-36.21 2.38-8.39-.38-15.57-.45-21.33-.19-6.33.28-15.15.88-26.2 1.79-33.16 2.53-58.1 5.06-74.03 7.49-.01 0-.01 0-.02 0 1.59-2.57 2.64-5.08 3.11-7.5.88-4.62-1.09-8.53-5.87-11.63l-.07-.04c-7.61-4.15-21.42-3.27-42.19 2.67-14.09 4.05-26.82 10.51-37.83 19.22-11.43 9.06-16.48 18.14-15.02 26.95.25 1.93.88 3.87 1.87 5.75.96 1.84 1.98 3.44 3.03 4.78 1.05 1.35 2.58 2.83 4.54 4.39 1.96 1.57 3.43 2.71 4.51 3.5 1.09.8 2.82 1.99 5.12 3.53 2.36 1.57 3.84 2.55 4.45 2.92 1.28.96 3.51 2.47 6.61 4.49 3.09 2.02 5.54 3.64 7.36 4.86 1.78 1.2 3.88 2.78 6.25 4.7 2.34 1.9 4.34 3.79 5.94 5.61 3.43 3.88 5.5 8.22 6.15 12.9.65 4.71.1 9.32-1.65 13.69-1.77 4.42-4.46 8.53-8 12.21-2.87 2.95-6.34 5.8-10.33 8.47-4.02 2.69-7.82 4.94-11.3 6.7-3.49 1.76-7.99 3.67-13.38 5.66-5.43 2.01-9.68 3.5-12.64 4.44-3 .95-7.29 2.28-12.82 3.97-1.49.35-2.46 1.32-2.78 2.8-.3 1.4.02 2.7.95 3.76.51.58 1.1.96 1.74 1.12.61.15 1.27.11 1.94-.13 4.68-1.55 8.06-2.66 10.15-3.34 2.1-.68 5.38-1.86 10.05-3.58 4.6-1.7 8.25-3.16 10.85-4.32 2.63-1.18 5.97-2.77 9.93-4.72 4.01-1.98 7.39-3.89 10.05-5.67 2.64-1.77 5.48-3.9 8.44-6.32 2.99-2.44 5.59-5.04 7.73-7.72 6.77-8.29 9.71-17.04 8.73-26.01-.97-8.95-5.51-16.97-13.48-23.83-3.72-3.16-9.32-7.23-16.64-12.12-7.26-4.84-12.17-8.25-14.6-10.14-5.23-4.02-8.11-9.03-8.56-14.92-.46-5.94 1.65-11.05 6.47-15.64 5-4.85 12.03-9.51 20.92-13.86 7.5-3.72 15.45-6.81 23.63-9.2 8.09-2.37 15.09-3.02 20.79-1.94 2.27.46 4.06 1.09 5.33 1.88 1.2.74 2.08 1.9 2.69 3.54.6 1.59.39 3.67-.61 6.18-.3.73-.74 1.55-1.3 2.44-.55.88-1.08 1.6-1.56 2.14-.53.59-1.24 1.4-2.13 2.43-1.23 1.41-1.57 1.85-1.67 1.99-4.04 4.81-9.51 10.2-16.27 16.02-.49.36-.65.79-.7 1.08-.08.47.05.95.39 1.42.62.86 1.49 1.14 2.39.72 2.9-1.52 6.62-4.07 11.05-7.56 4.42-3.48 8.9-7.65 13.3-12.39 1-1.08 1.9-2.15 2.72-3.2.2 1.11.83 1.85 1.75 2.08.27.07.58.09.9.07 11.61-.29 27.48-1.27 47.16-2.94 10.5-.89 20.63-1.63 30.32-2.24l.01.31 1.01-.05c5.39-.28 12.95-.78 22.52-1.49.22-.01.46-.02.68-.03 11.74-.47 23.12-.45 33.99.02-15.13 23.68-30.47 49.84-45.65 77.87-1.73 3.27-4.63 8.54-8.62 15.67-4.02 7.19-7.23 13.03-9.53 17.33-2.31 4.33-5.02 9.65-8.04 15.82-3.03 6.18-5.65 12.24-7.77 18-2.12 5.78-3.91 11.64-5.33 17.43-.34 1.45.24 2.65 1.61 3.29.2.09.41.17.61.22 1.15.29 2.21-.14 3-1.23 5.3-7.65 10.38-16.37 15.1-25.92 4.68-9.48 9.66-20.2 14.8-31.88 5.12-11.64 9.3-20.77 12.41-27.12 5.48-10.89 14.16-26.27 25.8-45.72 9.34-15.59 15.92-26.75 19.67-33.31 1.7.14 3.38.26 5.04.4z"/><path d="m434.39 107.36c-1.93-1.49-3.93-1.51-5.64-.05l-.03.03c-.56.52-1.81 1.81-3.72 3.84-1.91 2.01-3.7 3.75-5.32 5.17-1.92 1.68-2.52 1.76-2.51 1.77-.11-.03-.29-.25-.44-.69-.23-.64-.33-1.48-.29-2.5.04-1.21.11-2.3.19-3.34.09-1.09.2-2.26.35-3.5.15-1.35.23-2.14.24-2.56.05-1.34-.57-2.49-1.78-3.32-1.27-.86-2.61-.9-3.74-.1-6.05 3.94-13.32 10.27-21.63 18.84.14-.56.3-1.13.47-1.72 1.74-1.63 3.39-3.38 4.93-5.28.8-1.04.77-2.27-.06-3.4-.35-.47-.76-.81-1.21-1.04.15-.33.29-.66.45-.99 2.85-6.21 6.32-12.88 10.32-19.85 3.99-6.96 6.47-11.41 7.37-13.24 7.58-15.87 14.02-30.07 19.16-42.2.31-.71.79-2.48-1.59-3.68-.86-.43-1.66-.53-2.36-.3-.66.22-1.19.72-1.56 1.46-6.12 11.51-16.3 32.13-30.25 61.29-.64 1.36-1.53 3.03-2.63 4.96-1.12 1.97-2.19 3.81-3.21 5.53-1.01 1.71-2.08 3.64-3.17 5.74s-2.04 4.15-2.82 6.1c-.03.07-.05.13-.07.2-.69.62-1.15 1.03-1.35 1.22-2.43 1.98-5.2 3.79-8.25 5.4-2.96 1.56-5.68 2.31-8.1 2.22-1.61-.06-2.62-.48-3-1.25-.44-.87-.39-2.08.13-3.6.59-1.73 1.21-3.24 1.85-4.48.63-1.24 1.36-2.44 2.18-3.58 1.53-2.27 3.27-4.22 5.15-5.79l.17-.18c1.05-1.45 2.14-1.79 3.59-1.06-.2 1.45-.61 2.83-1.24 4.16-.49 1.17-.3 2.26.53 3.07.75.74 1.75 1.04 2.87.88 1.17-.18 2-.9 2.35-2.03.9-2.15 1.45-4.33 1.63-6.46.2-2.34-.39-4.27-1.75-5.72-1.44-1.55-3.71-1.86-6.74-.93-2.96.94-5.85 2.61-8.59 4.96-2.71 2.33-5.05 5.01-6.95 7.98-.78 1.21-1.44 2.43-2.01 3.64-.01 0-.03.01-.04.01-1.31.47-2.85 1.17-4.58 2.09-2.04 1.08-3.03 1.52-3.54 1.73-3.31 1.47-5.9 2.47-7.71 3.01-2.39.77-3.1.8-3.26.79-.44-.19-.58-.44-.65-.64-.15-.42-.23-1.42.77-3.56 4.49.38 8.87-.94 13.03-3.94 4.44-3.21 6.67-7.29 6.62-12.15-.04-2.24-.94-4-2.67-5.25-1.68-1.2-3.62-1.68-5.76-1.42-4.15.4-8.78 3.71-14.12 10.11-1.72 1.9-3.22 3.96-4.48 6.12-1.26 2.17-2.33 4.55-3.19 7.09-.92 2.71-.87 5.29.16 7.66 1.04 2.4 3.16 4.18 6.3 5.27.31.11.63.21.96.29 3.91.98 8.99-.01 15.12-2.95 2.21-1.01 3.91-1.84 5.11-2.49.42 1.73 1.25 3.24 2.52 4.49 1.2 1.19 2.62 1.98 4.25 2.39 1.93.49 4.16.42 6.66-.2 4.66-1.14 9.08-2.89 13.17-5.18 0 .08-.01.17-.01.25-.02 2.07.31 4.09.96 5.95.34 1.32 1.28 2.31 2.72 2.87.18.07.36.13.54.17 1.32.33 2.53-.03 3.55-1.1.84-.98 2.02-2.34 3.54-4.1s2.72-3.15 3.62-4.17c.89-1.02 2.01-2.28 3.37-3.79 1.32-1.47 2.55-2.76 3.64-3.82 1.08-1.05 2.33-2.22 3.71-3.46.76-.68 1.53-1.34 2.3-1.96-.87 6.95-1.16 11.72-.89 14.53.22 2.68 1.75 3.72 2.96 4.11 1.8.63 3.71.62 5.7-.04 1.87-.62 3.55-1.48 4.97-2.55 1.4-1.05 3-2.59 4.76-4.57 1.73-1.96 3.05-3.56 3.93-4.77.85-1.18 1.96-2.75 3.35-4.73.72-1.05 1.24-1.77 1.57-2.18 1.4-1.97 1.11-3.99-.88-5.53zm-92.75 1.83c2.82-4 4.88-5.33 6.22-5.67-.11.36-.18.53-.18.53-.8 1.2-1.8 2.31-2.97 3.31-.91.79-1.93 1.4-3.07 1.83z"/></g></svg>