<?xml version="1.0" encoding="utf-8"?>
<!-- Generator: Adobe Illustrator 23.0.1, SVG Export Plug-In . SVG Version: 6.00 Build 0)  -->
<svg version="1.1" id="Layer_1" xmlns="http://www.w3.org/2000/svg" xmlns:xlink="http://www.w3.org/1999/xlink" x="0px" y="0px"
	 viewBox="0 0 686.4 203.2" style="enable-background:new 0 0 686.4 203.2;" xml:space="preserve">
<style type="text/css">
	.st0{fill:#FFEE00;}
</style>
<path class="st0" d="M305.8,17.1h-14.5V0.8h48.1v16.3H325v57.4h-19.2V17.1z"/>
<path class="st0" d="M343.1,0.8h19.2v73.7h-19.2V0.8z"/>
<path class="st0" d="M380.3,17.1h-14.4V0.8H414v16.3h-14.5v57.4h-19.2V17.1z"/>
<path class="st0" d="M424.7,0.8h24.2l18,73.7h-20.5l-2-12.9h-15.2l-2,12.9h-20.4L424.7,0.8z M436.9,15.9h-0.2l-5.3,31.3h10.7
	L436.9,15.9z"/>
<path class="st0" d="M470,0.8h21.5l12.4,45.4h0.2V0.8h18v73.7H501L488.2,29H488v45.5h-18V0.8z"/>
<path class="st0" d="M530.4,0.8h19.2v73.7h-19.2V0.8z"/>
<path class="st0" d="M576.4,0.8V54c0,7.1,2.2,9,5.8,9s5.8-1.9,5.8-9V0.8h19.2v48.3c0,20.6-8.9,26.8-25,26.8s-25-6.2-25-26.8V0.8
	H576.4z"/>
<path class="st0" d="M614.7,0.8h27.5l7.8,43.7h0.2L658,0.8h27.5v73.7h-18V19.6h-0.2l-10.2,54.9H643l-10.2-54.9h-0.2v54.9h-18
	L614.7,0.8z"/>
<path class="st0" d="M291.3,79.5h19l10.9,40.1h0.2V79.5h15.9v65h-18.6l-11.3-40.1h-0.2v40.2h-15.9V79.5z"/>
<path class="st0" d="M344,79.5h38.5v13.9h-21.6v11.1h20.2v13.3h-20.2v12.9h22.4v13.9H344V79.5z"/>
<path class="st0" d="M413.3,78.2c17.3,0,23.2,9.5,23.2,33.8s-5.9,33.8-23.2,33.8s-23.2-9.5-23.2-33.8S396,78.2,413.3,78.2z
	 M413.3,134.3c5.2,0,5.7-4.7,5.7-22.3s-0.5-22.3-5.7-22.3s-5.7,4.7-5.7,22.3S408.1,134.4,413.3,134.3L413.3,134.3z"/>
<path class="st0" d="M443.3,79.5h25.4c12.9,0,18.8,8.6,18.8,20c0,13.3-7.6,20.2-21.3,20.2h-5.9v24.8h-17V79.5z M460.3,107.6h3.2
	c4.3,0,6.6-2.5,6.6-7.9s-2.3-7.9-6.6-7.9h-3.2V107.6z"/>
<path class="st0" d="M494.2,79.5h26.5c12.9,0,17.8,7.3,17.8,17.3c0,8.6-3.4,14.3-11.1,15.5v0.2c8.2,0.7,10.7,5.9,10.7,14.6v5.6
	c0,3.4,0,7.7,0.8,9c0.4,0.9,1.1,1.6,1.9,2v0.9h-18c-1.6-3.5-1.6-9.7-1.6-12.4v-4.4c0-7.4-1.5-9.3-5.6-9.3h-4.5v26h-17L494.2,79.5z
	 M511.2,107h3.4c4.8,0,7.1-3.1,7.1-7.8c0-5.3-2.1-7.6-7.2-7.6h-3.3V107z"/>
<path class="st0" d="M547.6,79.5h38.5v13.9h-21.6v11.1h20.2v13.3h-20.2v12.9H587v13.9h-39.3V79.5H547.6z"/>
<path class="st0" d="M593.7,79.5h19l10.9,40.1h0.2V79.5h15.8v65H621l-11.3-40.1h-0.2v40.2h-15.8V79.5z"/>
<path class="st0" d="M646.4,79.5h38.5v13.9h-21.6v11.1h20.2v13.3h-20.2v12.9h22.4v13.9h-39.3L646.4,79.5L646.4,79.5z"/>
<path class="st0" d="M301.7,161.1h-10.3v-11.6h34.3v11.6h-10.3V202h-13.7V161.1z"/>
<path class="st0" d="M328.8,149.5h21.4c10.5,0,14.4,5.9,14.4,14c0,7-2.7,11.6-9,12.5v0.1c6.6,0.6,8.6,4.8,8.6,11.8v4.5
	c0,2.7,0,6.3,0.7,7.3c0.3,0.7,0.9,1.3,1.5,1.6v0.7h-14.6c-1.3-2.8-1.3-7.8-1.3-10v-3.5c0-6-1.2-7.5-4.5-7.5h-3.6v21h-13.7v-52.5
	H328.8z M342.5,171.7h2.7c3.9,0,5.7-2.5,5.7-6.3c0-4.3-1.7-6.1-5.8-6.1h-2.6L342.5,171.7L342.5,171.7z"/>
<path class="st0" d="M370.5,149.5h13.7V202h-13.7V149.5z"/>
<path class="st0" d="M390.2,149.5h13.7v41.4h16.9V202h-30.5v-52.5H390.2z"/>
<path class="st0" d="M432.9,149.5h17.2l12.8,52.5h-14.6l-1.4-9.2H436l-1.4,9.2H420L432.9,149.5z M441.6,160.2h-0.2l-3.8,22.3h7.7
	L441.6,160.2z"/>
<path class="st0" d="M464.7,149.5h19.6l5.5,31.1h0.2l5.5-31.1h19.6V202h-12.8v-39.2h-0.2l-7.3,39.2H485l-7.3-39.2h-0.2V202h-12.8
	V149.5z"/>
<path class="st0" d="M520.5,149.5h13.7V202h-13.7V149.5z"/>
<path class="st0" d="M540.1,149.5h15.3l8.8,32.4h0.2v-32.4h12.8V202h-15l-9.1-32.5H553V202h-12.8v-52.5H540.1z"/>
<path class="st0" d="M592.3,149.5h17.2l12.8,52.5h-14.6l-1.4-9.2h-10.9L594,202h-14.6L592.3,149.5z M601,160.2h-0.2l-3.8,22.3h7.6
	L601,160.2z"/>
<path class="st0" d="M627.5,161.1h-10.3v-11.6h34.3v11.6h-10.3V202h-13.7V161.1z"/>
<path class="st0" d="M654.6,149.5h31.1v11.2h-17.4v9h16.3v10.7h-16.3v10.5h18.1V202h-31.8L654.6,149.5L654.6,149.5z"/>
<path class="st0" d="M155.7,105.8L154.4,82V48.8h32.8v104.5h-32.1l-37.3-56.9l1.3,23.8v33.1H86.4V48.8h32.1L155.7,105.8z"/>
<path class="st0" d="M95.8,27.4H65v125.8H30.8V27.4H0V0h95.8V27.4z"/>
<path class="st0" d="M177.7,174.6h30.8V48.8h34.2v125.8h30.8V202h-95.8V174.6z"/>
<rect y="48.8" class="st0" width="8.3" height="104.5"/>
<polygon class="st0" points="273.5,149.5 265.2,149.5 265.2,8.3 117.2,8.3 117.2,0 273.5,0 "/>
<path class="st0" d="M0.2,175.5H9c4,0,7.3,1.8,7.3,6.6c0,3.3-1.3,5.3-4,6.1v0.1c3,0.5,4.9,2.3,4.9,6.9s-3.3,7.4-8.4,7.4H0.2V175.5z
	 M7.9,186.9c2.6,0,4-1.8,4-4.3c0-3.2-1.9-3.9-4.4-3.9h-3v8.2H7.9z M8.8,199.4c2.6,0,4-1.7,4-4.8c0-2.9-1.8-4.6-4.3-4.6h-4v9.4
	L8.8,199.4L8.8,199.4z"/>
<path class="st0" d="M24.1,192l-7-16.5h4.8l4.6,11.7l4.7-11.7h4.6L28.5,192v10.6h-4.3L24.1,192z"/>
<path class="st0" d="M48.1,194.2v0.7c0,3.3,1.4,5,4.4,5c2.1,0.1,4-1.5,4.1-3.6c0-0.1,0-0.3,0-0.4c0-2.9-1.4-4.1-3.9-4.8l-3-1
	c-3.9-1.5-5.7-3.6-5.7-7.5c0-4.9,3.3-7.7,8.4-7.7c7,0,7.7,4.3,7.7,7.1v0.6h-4.3V182c0-2.5-1.1-3.9-3.8-3.9c-1.9,0-3.6,1-3.6,3.9
	c0,2.3,1.2,3.5,4.1,4.6l2.9,1.1c3.8,1.4,5.5,3.5,5.5,7.2c0,5.8-3.5,8.2-9,8.2c-6.7,0-8.2-4.5-8.2-8.3v-0.6H48.1z"/>
<path class="st0" d="M63.4,175.5h14.5v3.6H67.7v7.5h9.5v3.7h-9.5v12.3h-4.3C63.4,202.6,63.4,175.5,63.4,175.5z"/>
<path class="st0" d="M91,179.2h-6.4v-3.6h17.1v3.6h-6.3v23.5h-4.3L91,179.2z"/>
<path class="st0" d="M103.1,175.5h14.7v3.6h-10.3v7.5h9.7v3.7h-9.7v8.7h10.6v3.6h-15L103.1,175.5z"/>
<path class="st0" d="M137,192.9v0.6c0,4.9-2,9.7-8.4,9.7c-6.8,0-9-4.4-9-14.1s2.1-14.1,9-14.1c7.7,0,8.2,5.7,8.2,8.5v0.5h-4.3v-0.5
	c0-2.5-0.8-5.4-3.9-5.3c-3.1,0.1-4.6,2-4.6,10.7s1.4,10.9,4.6,10.9c3.6,0,4-4,4-6.5v-0.5L137,192.9z"/>
<path class="st0" d="M139,175.5h4.3v10.9h8v-10.9h4.3v27.1h-4.3V190h-8v12.6H139V175.5z"/>
</svg>
