<svg enable-background="new 0 0 169 263" height="263" viewBox="0 0 169 263" width="169" xmlns="http://www.w3.org/2000/svg"><path d="m169 96.2c0-.2 0-.4-.1-.5 0-.1 0-.2-.1-.3-.1-.2-.1-.3-.2-.5 0-.1-.1-.2-.1-.3 0 0 0-.1-.1-.1-.4-.7-6.5-10.9-7.4-32.1-1-22.7 1-41.9 1-42.1 0-.1 0-.3 0-.4v-.1c0-.2-.1-.5-.1-.7 0 0 0 0 0-.1v-.1c-.1-.2-.1-.4-.2-.6 0-.1 0-.1-.1-.1-.1-.2-.3-.4-.4-.6 0 0-.1-.1-.1-.1-.1-.1-.3-.3-.5-.4-.1 0-.1-.1-.2-.1-.2-.1-.4-.3-.7-.3l-40.9-15.7-2.1-.8c-.3-.1-.5-.2-.8-.2-.1 0-.2 0-.3 0-.2 0-.3 0-.5 0-.1 0-.2 0-.4.1-.1 0-.3.1-.4.1s-.2.1-.4.2c-.1 0-.2.1-.3.1 0 0-.1.1-.1.1s-.1 0-.1.1c-.1.1-.2.2-.4.3-.2.2-.3.3-.5.5 0 0-.1.1-.1.1-.1.2-.2.3-.3.5v.1.1c0 .1 0 .1-.1.2 0 0-1.2 3.6-5.2 7-5.3 4.6-12.9 6.9-22.5 6.9s-17-2.3-22.3-6.9c-4-3.5-5.2-7-5.2-7 0-.1-.1-.1-.1-.2s0-.1-.1-.2c0-.1 0-.1-.1-.2 0-.1-.1-.1-.1-.2-.1-.1-.2-.3-.3-.4s-.1-.2-.2-.3-.2-.2-.4-.3c-.1 0-.1-.1-.2-.1 0 0-.1 0-.1-.1 0 0-.1-.1-.1-.1-.1-.1-.2-.1-.3-.1s-.2-.1-.3-.1c-.2-.1-.3-.1-.5-.1-.1 0-.2 0-.3-.1-.2 0-.4 0-.5 0s-.2 0-.3 0c-.3 0-.5.1-.8.2l-1.9.8-41 15.7c-.2.1-.4.2-.6.3 0 0-.1.1-.1.1-.2.1-.4.3-.5.4 0 0 0 0-.1.1-.2.2-.3.4-.4.6 0 0 0 .1-.1.1-.1.2-.2.4-.2.6v.1c-.1.3-.2.5-.2.8v.1.4c0 .2 2 19.4 1 42.1-.9 20.8-6.7 31-7.4 32.1-.1.2-.2.4-.3.6 0 0 0 .1-.1.1-.1.2-.1.3-.1.5v.2.5.2c0 .2 0 .4.1.6 0 .2 3.4 14.6 5.7 33.4.5 4 .9 8.2 1.3 12.5 1.9 24.5-4.9 78.1-5 78.6v.7.2c0 .2 0 .3.1.5 0 .1.1.2.1.3.1.1.1.3.2.4 0 .1.1.2.2.3s.1.2.2.3c0 0 0 0 .1.1v.1c.7.8 17 18.5 66.6 21.6v7.7c0 5.1 4.1 9.2 9.2 9.2h11.6c5.1 0 9.2-4.1 9.2-9.2v-7.7c49.6-3.1 65.9-20.8 66.6-21.6 0 0 0 0 0-.1 0 0 0 0 .1-.1s.1-.2.2-.3.1-.2.2-.3.1-.3.2-.4c0-.1.1-.2.1-.3 0-.2.1-.3.1-.5 0-.1 0-.2 0-.2 0-.2 0-.5 0-.7 0 0 0-.1 0-.2-.4-3.5-6.3-50.6-5.1-75.4 0-.4 0-.8.1-1.1 0-.6.1-1.3.1-1.9 2-24.6 6.9-45.7 6.9-45.9.1-.3.1-.5.1-.8-.3-.1-.3-.1-.3-.2zm-15-33.5c.4 9.4 1.8 16.9 3.3 22.5-4.5-5.1-8.9-12.6-9.3-22.8-.5-10.6 2.7-20.4 6-27.7-.3 7.5-.5 17.3 0 28zm-48.2-43.9c-5.3 8.1-12.4 12.2-21.3 12.2s-16-4.1-21.3-12.2c5.1 2.7 11.9 4.7 21.3 4.7s16.2-2.1 21.3-4.7zm-90.8 15.8c3.3 7.3 6.5 17.1 6 27.8-.4 10.2-4.8 17.7-9.3 22.8 1.5-5.6 2.9-13.1 3.3-22.5.4-10.7.3-20.5 0-28.1zm2.9 192c12.9.9 33.5 2.2 51.6 2.7v9.8c-26.3-1.6-42.5-7.6-51.6-12.5zm74.6 27.2c0 1.2-1 2.2-2.2 2.2h-11.6c-1.2 0-2.2-1-2.2-2.2v-27.9-20.8c0-1.2 1-2.2 2.2-2.2h11.6c1.2 0 2.2 1 2.2 2.2v20.8zm7-24.5c18.1-.5 38.7-1.8 51.6-2.7-9.1 4.8-25.3 10.8-51.6 12.5zm55.4-84.6v.7c0 .5-.1 1-.1 1.5v.9 1.5 1 1.4 1.1 1.5 1.1 1.5 1.2 1.5 1.2 1.5 1.2c0 .5 0 1.1.1 1.6 0 .4 0 .8.1 1.2 0 .5 0 1.1.1 1.6 0 .4 0 .8.1 1.2 0 .6.1 1.1.1 1.7 0 .4 0 .8.1 1.2 0 .6.1 1.1.1 1.7 0 .4 0 .8.1 1.2 0 .6.1 1.2.1 1.7 0 .4.1.8.1 1.2 0 .6.1 1.2.1 1.8 0 .4.1.7.1 1.1 0 .6.1 1.3.1 1.9 0 .3 0 .6.1.9.1.7.1 1.4.2 2.1 0 .3 0 .5.1.8.2 1.9.3 3.8.5 5.6v.3c.1.8.1 1.6.2 2.4 0 .3.1.5.1.8.1.6.1 1.2.2 1.8 0 .3.1.6.1.9.1.5.1 1.1.2 1.6 0 .3.1.7.1 1 .1.5.1 1 .2 1.5 0 .3.1.7.1 1 0 .5.1.9.1 1.4 0 .3.1.6.1 1 0 .5.1.9.1 1.3 0 .3.1.6.1.9 0 .4.1.8.1 1.2 0 .3.1.6.1.9 0 .4.1.7.1 1.1 0 .3.1.6.1.9s.1.7.1 1 .1.6.1.8c0 .3.1.6.1.9s.1.5.1.8.1.5.1.8c0 .2.1.5.1.7s.1.5.1.7.1.5.1.7v.1c-9.7.7-37 2.6-60.1 3.3v-17.2c0-5.1-4.1-9.2-9.2-9.2h-11.8c-5.1 0-9.2 4.1-9.2 9.2v17.2c-23.1-.7-50.4-2.6-60.1-3.3 0-.4.1-.7.1-1.1 0-.1 0-.1 0-.2 0-.3.1-.7.1-1.1 0-.2 0-.3.1-.5 0-.3.1-.7.1-1 0-.2.1-.5.1-.7 0-.3.1-.7.1-1s.1-.6.1-.8c0-.3.1-.7.1-1s.1-.6.1-1c0-.3.1-.7.1-1 0-.4.1-.7.1-1.1 0-.3.1-.7.1-1 0-.4.1-.8.1-1.2 0-.3.1-.7.1-1 0-.4.1-.9.1-1.3s.1-.7.1-1.1c0-.5.1-.9.1-1.4 0-.4.1-.7.1-1.1.1-.5.1-1 .2-1.5 0-.3.1-.7.1-1 .1-.5.1-1.1.2-1.7 0-.3.1-.7.1-1 .1-.7.1-1.4.2-2.2 0-.2 0-.3 0-.5.1-.9.2-1.9.2-2.8 0-.1 0-.2 0-.2.1-.8.1-1.7.2-2.6 0-.3.1-.6.1-.9.1-.6.1-1.3.2-1.9 0-.4.1-.7.1-1.1 0-.6.1-1.2.1-1.8 0-.4.1-.8.1-1.2 0-.6.1-1.1.1-1.7 0-.4.1-.8.1-1.3s.1-1.1.1-1.6c0-.4.1-.9.1-1.3 0-.5.1-1.1.1-1.6 0-.4 0-.9.1-1.3 0-.5.1-1.1.1-1.6 0-.4 0-.8.1-1.3 0-.5.1-1.1.1-1.6 0-.4 0-.8.1-1.3 0-.5 0-1 .1-1.6 0-.4 0-.8 0-1.3s0-1 0-1.5c0-.4 0-.8 0-1.2 0-.5 0-1 0-1.5 0-.4 0-.8 0-1.2 0-.5 0-1 0-1.4s0-.8 0-1.2c0-.5 0-1 0-1.4s0-.8 0-1.1c0-.5 0-.9 0-1.4 0-.4 0-.7 0-1.1 0-.5 0-1 0-1.4 0-.3 0-.6 0-.9 0-.5 0-1-.1-1.5 0-.2 0-.5 0-.7 0-.7-.1-1.5-.1-2.2 0-.2 0-.4-.1-.7 0-.4-.1-.8-.1-1.3 0-.3 0-.6-.1-.8 0-.4-.1-.7-.1-1.1 0-.3-.1-.6-.1-.9 0-.4-.1-.7-.1-1.1 0-.3-.1-.6-.1-.9s-.1-.7-.1-1-.1-.6-.1-.9-.1-.7-.1-1-.1-.6-.1-.8c0-.3-.1-.7-.1-1s-.1-.5-.1-.8-.1-.7-.1-1-.1-.5-.1-.8c0-.4-.1-.7-.1-1 0-.2-.1-.5-.1-.7 0-.4-.1-.7-.1-1.1 0-.2-.1-.5-.1-.7 0-.4-.1-.7-.1-1.1 0-.2-.1-.4-.1-.6-.1-.4-.1-.8-.2-1.1 0-.2-.1-.4-.1-.5-.1-.4-.1-.9-.2-1.3 0-.1 0-.2-.1-.3-.1-.5-.2-1.1-.2-1.6-1.4-9.3-2.9-16.7-3.7-20.3 5.8-3.6 19.8-14.9 20.7-35.2.8-18.3-7.6-34.1-12.1-41.1l35-13.4c3.3 12.2 13.2 29.8 33.6 29.8s30.3-17.6 33.5-29.8l35 13.4c-4.5 7-12.9 22.8-12.1 41.1.9 20.2 14.9 31.6 20.5 35.4-.2.8-.4 1.8-.6 2.9-.1.3-.1.5-.2.8v.1c-.1.3-.1.5-.2.8v.2c-.1.3-.1.5-.2.8v.3c0 .3-.1.5-.2.8 0 .1 0 .2-.1.3 0 .3-.1.5-.1.8 0 .1 0 .3-.1.4 0 .3-.1.5-.1.8 0 .1-.1.3-.1.4 0 .3-.1.5-.1.8 0 .2-.1.3-.1.5 0 .3-.1.6-.1.8 0 .1-.1.3-.1.4-.1.3-.1.6-.2.9 0 .2-.1.3-.1.5-.1.3-.1.6-.2.9 0 .1 0 .2-.1.3-.2 1.1-.4 2.3-.6 3.6 0 .2-.1.3-.1.5-.1.3-.1.6-.2 1 0 .2-.1.4-.1.6 0 .3-.1.6-.1.9 0 .2-.1.5-.1.7 0 .3-.1.6-.1.9 0 .2-.1.5-.1.7 0 .3-.1.6-.1.9s-.1.5-.1.8-.1.6-.1.9-.1.6-.1.8c0 .3-.1.6-.1.9s-.1.6-.1.9-.1.6-.1.9-.1.6-.1.9-.1.6-.1.9-.1.6-.1.9-.1.6-.1.9-.1.6-.1.9-.1.6-.1.9-.1.6-.1 1c0 .3-.1.6-.1.9s-.1.7-.1 1-.1.6-.1.9c0 .4-.1.7-.1 1.1 0 .3-.1.5-.1.8 0 .4-.1.8-.1 1.2 0 .2 0 .5-.1.7-.1.6-.1 1.3-.2 1.9.1.8.1 1.5.1 2.2z"/></svg>