<?xml version="1.0" encoding="utf-8"?>
<!-- Generator: Adobe Illustrator 23.0.1, SVG Export Plug-In . SVG Version: 6.00 Build 0)  -->
<svg version="1.1" id="Layer_1" xmlns="http://www.w3.org/2000/svg" xmlns:xlink="http://www.w3.org/1999/xlink" x="0px" y="0px"
	 viewBox="0 0 288 288" style="enable-background:new 0 0 288 288;" xml:space="preserve">
<style type="text/css">
	.st0{fill:none;stroke:#000000;stroke-width:9;stroke-miterlimit:10;}
	.st1{fill:#FFFFFF;}
	.st2{fill:none;}
</style>
<g>
	<path d="M1591,452L1591,452c-0.1-2.7-0.2-5.4-0.5-8l0,0c0-0.2,0-0.3,0-0.5c-0.1-0.9-0.2-1.8-0.3-2.7l0,0c0-0.3-0.1-0.7-0.1-1l0,0
		c-0.1-0.7-0.2-1.4-0.3-2.2l0,0c0-0.3-0.1-0.5-0.1-0.8l0,0c-0.6-4.1-1.4-8.2-2.4-12.2v-0.1c-1.5-6-3.4-11.8-5.6-17.4
		c0-0.1-0.1-0.2-0.1-0.3c-0.4-1-0.8-2-1.3-3.1c0-0.1-0.1-0.2-0.1-0.3c-0.8-1.9-1.7-3.8-2.7-5.7l0,0c-0.1-0.1-0.1-0.3-0.2-0.4l0,0
		c-0.4-0.8-0.8-1.6-1.2-2.3c-0.1-0.1-0.1-0.2-0.2-0.4l0,0c-0.8-1.5-1.7-3.1-2.6-4.6c-0.1-0.2-0.3-0.5-0.4-0.7l0,0
		c-0.9-1.5-1.8-3-2.8-4.4l0,0c-0.1-0.2-0.3-0.4-0.4-0.6c-0.4-0.7-0.9-1.3-1.3-1.9l0,0c-0.1-0.2-0.2-0.4-0.4-0.5
		c-1-1.5-2.1-3-3.2-4.4l0,0l0,0c-0.6-0.8-1.2-1.6-1.9-2.4l0,0c-0.1-0.1-0.1-0.2-0.2-0.2c-0.6-0.8-1.3-1.5-1.9-2.3l0,0l0,0
		c-1.3-1.5-2.6-3-3.9-4.4l0,0l-0.2-0.2l0.2-0.2l-3.3-3.1l-3.1-3.3l-0.2,0.2l-0.2-0.2l0,0c-1.4-1.3-2.9-2.6-4.4-3.9l0,0l0,0
		c-0.8-0.6-1.5-1.3-2.3-1.9c-0.1-0.1-0.2-0.1-0.2-0.2l0,0c-0.8-0.6-1.6-1.3-2.4-1.9l0,0l0,0c-1.5-1.1-2.9-2.2-4.4-3.2
		c-0.2-0.1-0.4-0.3-0.5-0.4l0,0c-0.6-0.4-1.3-0.9-1.9-1.3c-0.2-0.1-0.4-0.3-0.6-0.4l0,0c-1.5-1-2.9-1.9-4.4-2.8l0,0
		c-0.2-0.1-0.5-0.3-0.7-0.4c-1.5-0.9-3-1.8-4.6-2.6l0,0c-0.1-0.1-0.2-0.1-0.4-0.2c-0.8-0.4-1.6-0.8-2.3-1.2l0,0
		c-0.1-0.1-0.3-0.1-0.4-0.2l0,0c-1.9-0.9-3.8-1.8-5.7-2.7c-0.1,0-0.2-0.1-0.3-0.1c-1-0.4-2-0.9-3.1-1.3c-0.1,0-0.2-0.1-0.3-0.1
		c-5.6-2.3-11.4-4.2-17.4-5.6h-0.1c-4-1-8-1.8-12.2-2.4l0,0c-0.3,0-0.5-0.1-0.8-0.1l0,0c-0.7-0.1-1.4-0.2-2.2-0.3l0,0
		c-0.3,0-0.7-0.1-1-0.1l0,0c-0.9-0.1-1.8-0.2-2.7-0.3c-0.2,0-0.3,0-0.5,0l0,0c-2.7-0.2-5.3-0.4-8-0.5l0,0c-1.1,0-2.1,0-3.2,0
		c-70.7,0-128,57.3-128,128c0,1.1,0,2.1,0,3.2l0,0c0.1,2.7,0.2,5.4,0.5,8l0,0c0,0.2,0,0.3,0,0.5c0.1,0.9,0.2,1.8,0.3,2.7l0,0
		c0,0.3,0.1,0.7,0.1,1l0,0c0.1,0.7,0.2,1.4,0.3,2.2l0,0c0,0.3,0.1,0.5,0.1,0.8l0,0c0.3,1.9,0.6,3.7,0.9,5.5c0,0.1,0,0.2,0,0.2l0,0
		c0.4,2.1,0.9,4.3,1.4,6.4v0.1c1.5,6,3.4,11.8,5.6,17.4c0,0.1,0.1,0.2,0.1,0.3c0.4,1,0.8,2,1.3,3.1c0,0.1,0.1,0.2,0.1,0.3
		c0.8,1.9,1.7,3.8,2.7,5.7l0,0c0.1,0.1,0.1,0.3,0.2,0.4l0,0c0.4,0.8,0.8,1.6,1.2,2.3c0.1,0.1,0.1,0.2,0.2,0.4l0,0
		c0.8,1.5,1.7,3.1,2.6,4.6c0.1,0.2,0.3,0.5,0.4,0.7l0,0c0.4,0.6,0.8,1.3,1.1,1.9l0,0c0,0.1,0.1,0.1,0.1,0.2c1,1.7,2.1,3.3,3.2,4.9
		l0,0c0.1,0.2,0.2,0.4,0.4,0.5c1,1.5,2.1,3,3.2,4.4l0,0l0,0c0.6,0.8,1.2,1.6,1.9,2.4l0,0c0.1,0.1,0.1,0.2,0.2,0.2
		c0.6,0.8,1.3,1.5,1.9,2.3l0,0l0,0c1.3,1.5,2.6,3,3.9,4.4l0,0l0.2,0.2l-0.2,0.2l3.3,3.1l3.1,3.3l0.2-0.2l0.2,0.2l0,0
		c1.4,1.3,2.9,2.6,4.4,3.9l0,0l0,0c0.8,0.6,1.5,1.3,2.3,1.9c0.1,0.1,0.2,0.1,0.2,0.2l0,0c0.8,0.6,1.6,1.3,2.4,1.9l0,0l0,0
		c1.5,1.1,2.9,2.2,4.4,3.2c0.2,0.1,0.4,0.3,0.5,0.4l0,0c1.6,1.1,3.3,2.2,4.9,3.2c0.1,0,0.1,0.1,0.2,0.1l0,0c0.6,0.4,1.2,0.8,1.9,1.1
		l0,0c0.2,0.1,0.5,0.3,0.7,0.4c1.5,0.9,3,1.7,4.6,2.6l0,0c0.1,0.1,0.2,0.1,0.4,0.2c0.8,0.4,1.6,0.8,2.3,1.2l0,0
		c0.1,0.1,0.3,0.1,0.4,0.2l0,0c1.9,0.9,3.8,1.8,5.7,2.7c0.1,0,0.2,0.1,0.3,0.1c1,0.4,2,0.9,3.1,1.3c0.1,0,0.2,0.1,0.3,0.1
		c5.6,2.3,11.4,4.2,17.4,5.6h0.1c2.1,0.5,4.2,1,6.4,1.4l0,0c0.1,0,0.2,0,0.2,0c1.8,0.3,3.7,0.7,5.5,0.9l0,0c0.3,0,0.5,0.1,0.8,0.1
		l0,0c0.7,0.1,1.4,0.2,2.2,0.3l0,0c0.3,0,0.7,0.1,1,0.1l0,0c0.9,0.1,1.8,0.2,2.7,0.3c0.2,0,0.3,0,0.5,0l0,0c2.7,0.2,5.3,0.4,8,0.5
		l0,0c1.1,0,2.1,0,3.2,0c70.7,0,128-57.3,128-128C1591,454.1,1591,453.1,1591,452z M1493,446.6c2.5,1.7,3.2,5.1,1.6,7.6
		c-1.7,2.5-5.1,3.2-7.6,1.6c-1.2-0.8-1.9-1.9-2.3-3.2l6.7-6.7C1492,446.1,1492.5,446.3,1493,446.6z M1469.9,488.3c-2,3-6,3.8-9,1.8
		s-3.8-6-1.8-9s6-3.8,9-1.8C1471.2,481.3,1471.9,485.3,1469.9,488.3z M1543.9,367.9l-48.8,48.8l-70.6,70.6l-48.8,48.8
		c-19.6-21.2-31.6-49.7-31.6-80.9c0-65.7,53.3-119,119-119C1494.3,336.2,1522.8,348.2,1543.9,367.9z M1382.1,542.5l39.8-39.8
		l-2.6,4.2c-1.3,2.1-0.6,4.9,1.5,6.2c0.7,0.4,1.5,0.7,2.3,0.7c0.1,0,0.3,0,0.4,0c1.4-0.1,2.6-0.9,3.4-2.1l2-3.3l7.8-12.7
		c1.1,0.6,2.2,1.1,3.4,1.6c0.3,0.1,0.5,0.2,0.8,0.3c3,1.2,6.4,1.7,9,3.8c1.8,1.4,3,3.6,3.6,5.8c1.1,4.3,0.2,8.8,0.1,13.2
		c0,1-0.5,1.8-1.3,2.4c-3.8,2.7-5.7,8.1-2.7,13.9c0.1,0.3,0.3,0.5,0.6,0.8c7.2,6.9,16.7,2.6,17.9-5.1c0.6-3.9-1.2-7.5-4.1-9.6
		c-0.8-0.6-1.3-1.5-1.3-2.4c0-4.2-1.2-11,0.6-14.8c0.5-1,1.3-1.8,2.1-2.5c3.6-2.9,8.1-4.5,12.6-6.2l8.9,16.7c0.8,1.5,2.4,2.4,4,2.4
		c0.7,0,1.4-0.2,2.1-0.5c2.2-1.2,3-3.9,1.9-6.1l-8.7-16.3c0.1-0.1,0.2-0.1,0.3-0.2c4.9-3.3,9.2-7.4,12.7-12.2l14.5,8.9
		c0.7,0.4,1.5,0.7,2.3,0.7c1.5,0,3-0.8,3.8-2.2c1.3-2.1,0.6-4.9-1.5-6.2l-14.1-8.6c2.4-2.4,5.7-3.8,9.1-4.1
		c5.2-0.5,10.4,1.1,15.4,2.2c0.9,0.2,1.6,0.9,2,1.7c1.3,3.1,4.2,5.5,7.8,6c7.7,1.1,14.6-6.8,10-15.7c-0.1-0.3-0.3-0.6-0.6-0.8
		c-5-4.8-11-4.2-14.7-0.9c-0.7,0.6-1.7,0.9-2.6,0.7c-4.5-1-11.6-1.2-15.5-3.7c-1.2-0.8-2.1-1.9-2.8-3.1c-2.1-3.4-3.1-7.1-3.9-10.9
		l16.6-4c2.4-0.6,3.9-3,3.3-5.4s-3-3.9-5.4-3.3l-16.6,4c-0.4-1.2-0.8-2.3-1.3-3.5c-1.2-2.9-2.6-5.7-4.3-8.4l49.5-49.5
		c19.8,20.9,31.8,49.4,31.8,80.6c0,65.7-53.3,119-119,119C1431.9,574.2,1403.3,562.2,1382.1,542.5z"/>
	<path d="M1449.3,369.8c-0.6,3.8,1.1,7.4,4,9.5c0.8,0.6,1.3,1.4,1.3,2.4c0,3.5,1.2,10.1-0.3,13.2c-0.3,0.6-0.8,1.1-1.3,1.5
		c-3.8,3.3-8.3,5.6-12.7,8c-0.1,0-0.2,0.1-0.3,0.1c-0.3,0.1-0.6,0.2-0.8,0.4l-8.7-16.3c-1.2-2.2-3.9-3-6.1-1.9
		c-2.2,1.2-3,3.9-1.9,6.1l8.7,16.3c-2.7,1.8-5.3,3.9-7.7,6.2c-1.7,1.7-3.1,3.6-4.5,5.6l-17.4-10.6c-2.1-1.3-4.9-0.6-6.2,1.5
		c-1.3,2.1-0.6,4.9,1.5,6.2l16.9,10.2c-0.8,0.9-1.6,1.7-2.6,2.4c-4.1,3.1-7.3,3.8-12.4,2.6c-2.9-0.7-10.8-1-12.1-4.1
		c-2.1-5-8.3-8.1-15-4.6c-0.3,0.1-0.5,0.3-0.8,0.6c-6.9,7.2-2.6,16.7,5.1,17.9c3.1,0.4,6.1-0.6,8.2-2.5c0.7-0.6,1.6-0.9,2.5-0.7
		c4.6,1,9.3,0.9,13.8,2c6.4,1.7,7.5,4.6,8.3,10.8c0.3,2.2,0.5,4.4,0.8,6.5l-19.4,4.7c-2.4,0.6-3.9,3-3.3,5.4
		c0.5,2.1,2.3,3.4,4.4,3.4c0.4,0,0.7,0,1.1-0.1l19.4-4.7c1.6,4.5,3.9,8.9,6.8,12.7l70.4-70.4l9.3-15.3c1.3-2.1,0.6-4.9-1.5-6.2
		s-4.9-0.6-6.2,1.5l-9.7,15.8c-4.8-2.1-10.1-3.2-14.2-6.5c-1-0.8-1.9-1.7-2.5-2.9c-1.9-3.9-0.6-10.8-0.6-15c0-1,0.5-1.8,1.3-2.4
		c3.9-2.7,5.8-8.1,2.8-14c-0.1-0.3-0.3-0.5-0.6-0.8C1459.9,357.7,1450.4,362.1,1449.3,369.8z M1425.5,447.2c-3,0-5.5-2.5-5.5-5.5
		s2.5-5.5,5.5-5.5s5.5,2.5,5.5,5.5S1428.5,447.2,1425.5,447.2z M1462.8,432.6c-2.4,3.7-7.4,4.7-11.1,2.3c-3.7-2.4-4.7-7.4-2.3-11.1
		s7.4-4.7,11.1-2.3C1464.2,424,1465.2,428.9,1462.8,432.6z"/>
</g>
<g>
	<path d="M666.2,21.2c-0.9-1.3-2.4-2.1-4-2c-32.2,1.7-84.3,20.7-86.5,21.6c-1.2,0.4-2.1,1.4-2.6,2.6l-6,15l-7.9-7.9
		c-1.4-1.4-3.6-1.7-5.3-0.8c-4,2.2-39.3,21.7-46,29.8c-4.2,5.1-7.4,16.6-9.4,25.6l-6.7-11.2c-0.7-1.2-2-2-3.3-2.2
		c-1.4-0.2-2.8,0.3-3.7,1.3c-0.5,0.5-11.9,12.4-20.8,30.2c-11.9,23.8-13.6,46.8-4.8,66.7c-15.9,23.5-30.9,49.3-47.4,78.6
		c-1.2,2.2-0.5,4.9,1.7,6.1c0.7,0.4,1.5,0.6,2.2,0.6c1.6,0,3.1-0.8,3.9-2.3c15.7-27.7,29.9-52.4,44.8-74.7
		c5.3,5.8,12.7,8.8,22.1,8.8c0.6,0,1.3,0,1.9,0c24.2-1,54.4-20.3,70.2-31.7c19.3-13.9,40.7-33.3,44.3-43.5c0.4-1.1,0.3-2.4-0.2-3.5
		c-0.5-1.1-1.5-1.9-2.6-2.3l-20.2-6.7l40.7-5.8c1.5-0.2,2.7-1.1,3.4-2.4l42.5-85.4C667.2,24.3,667.1,22.6,666.2,21.2z M616.9,104.7
		l-57.3,8.2c-2.1,0.3-3.7,2-3.8,4.1c-0.2,2.1,1.1,4,3.1,4.7l33.2,11.1c-5.6,7.9-20.1,21.7-38.8,35.2c-25.5,18.4-49.4,29.3-65.3,30
		c-8.5,0.4-14.5-2.1-18.3-7.5c7.2-10.4,14.6-20.2,22.5-29.7c29.5-35.4,62.6-61.4,104.3-81.8c2.2-1.1,3.2-3.8,2.1-6s-3.8-3.2-6-2.1
		c-42.9,21-76.9,47.8-107.2,84.2c-7,8.3-13.5,17-19.9,26c-10.5-32.7,12.5-65.5,22-77.2l9.6,16c1,1.6,2.9,2.5,4.7,2.1
		c1.9-0.4,3.3-1.8,3.6-3.7c1.6-10.2,5.6-28.1,9.7-33c3.9-4.8,25.7-17.8,40.5-26l10,10.2c1.1,1.1,2.6,1.5,4.1,1.2s2.7-1.3,3.3-2.7
		l7.8-19.4c8.8-3.1,46.6-16.2,74.1-19.6L616.9,104.7z"/>
</g>
<g>
	<line class="st0" x1="857.7" y1="51.7" x2="878.9" y2="73"/>
	<line class="st0" x1="900.1" y1="94.2" x2="921.3" y2="115.4"/>
	<line class="st0" x1="942.6" y1="136.6" x2="963.8" y2="157.8"/>
	<line class="st0" x1="836.5" y1="51.7" x2="857.7" y2="30.5"/>
	<line class="st0" x1="878.9" y1="94.2" x2="900.1" y2="73"/>
	<line class="st0" x1="921.3" y1="136.6" x2="942.6" y2="115.4"/>
	<line class="st0" x1="921.3" y1="179" x2="942.6" y2="157.8"/>
	<line class="st0" x1="878.9" y1="221.4" x2="900.1" y2="200.2"/>
	<line class="st0" x1="836.5" y1="263.9" x2="857.7" y2="242.7"/>
	<line class="st0" x1="815.3" y1="51.7" x2="836.5" y2="73"/>
	<line class="st0" x1="857.7" y1="94.2" x2="878.9" y2="115.4"/>
	<line class="st0" x1="900.1" y1="136.6" x2="921.3" y2="157.8"/>
	<line class="st0" x1="836.5" y1="94.2" x2="857.7" y2="73"/>
	<line class="st0" x1="878.9" y1="136.6" x2="900.1" y2="115.4"/>
	<line class="st0" x1="815.3" y1="94.2" x2="836.5" y2="115.4"/>
	<line class="st0" x1="857.7" y1="136.6" x2="878.9" y2="157.8"/>
	<line class="st0" x1="900.1" y1="179" x2="921.3" y2="200.2"/>
	<line class="st0" x1="794.1" y1="94.2" x2="815.3" y2="73"/>
	<line class="st0" x1="836.5" y1="136.6" x2="857.7" y2="115.4"/>
	<line class="st0" x1="878.9" y1="179" x2="900.1" y2="157.8"/>
	<line class="st0" x1="772.9" y1="94.2" x2="794.1" y2="115.4"/>
	<line class="st0" x1="815.3" y1="136.6" x2="836.5" y2="157.8"/>
	<line class="st0" x1="857.7" y1="179" x2="878.9" y2="200.2"/>
	<line class="st0" x1="794.1" y1="136.6" x2="815.3" y2="115.4"/>
	<line class="st0" x1="836.5" y1="179" x2="857.7" y2="157.8"/>
	<line class="st0" x1="772.9" y1="136.6" x2="794.1" y2="157.8"/>
	<line class="st0" x1="815.3" y1="179" x2="836.5" y2="200.2"/>
	<line class="st0" x1="857.7" y1="221.4" x2="878.9" y2="242.7"/>
	<line class="st0" x1="751.6" y1="136.6" x2="772.9" y2="115.4"/>
	<line class="st0" x1="794.1" y1="179" x2="815.3" y2="157.8"/>
	<line class="st0" x1="836.5" y1="221.4" x2="857.7" y2="200.2"/>
	<line class="st0" x1="730.4" y1="136.6" x2="751.6" y2="157.8"/>
	<line class="st0" x1="772.9" y1="179" x2="794.1" y2="200.2"/>
	<line class="st0" x1="815.3" y1="221.4" x2="836.5" y2="242.7"/>
	<line class="st0" x1="751.6" y1="179" x2="772.9" y2="157.8"/>
	<line class="st0" x1="794.1" y1="221.4" x2="815.3" y2="200.2"/>
</g>
<g>
	<path d="M1255,262.2c-1.2,0.3-2.5,0.3-3.8,0.3c-10.7,0-21.4,0-32.1,0h-62l0,0c-30,0-60.1,0-90.1,0c-7.3,0-14.5-1-21.2-4.1
		c-11.1-5.3-18-13.7-18.3-26.4c-0.1-3,0.8-6.2,1.9-9.1c2-5.1,5.9-7.7,11.5-7.8c12.3-0.2,24.6-1.5,36.8-3.6c12.3-2.2,23.8-7,35-12.3
		c16-7.6,31.3-16.5,44.8-28.1c5.2-4.4,9.8-9.5,14.3-14.6c4.3-4.8,5.8-10.8,6.6-17.1c0-0.1,0-0.2,0-0.4c2.2,0.6,5.2,1.2,9.4,1.7
		c-0.5,4.8-1.6,9.5-4,13.7c-2.6,4.7-5.8,9.2-9.4,13.2c-11.7,12.9-26,22.5-41,31.1c-11.7,6.7-23.9,12.5-36.7,17.1
		c-10,3.6-20.2,5.7-30.7,6.7c-8.2,0.8-16.5,1.4-24.8,1.9c-2.1,0.1-3.2,1.1-3.8,2.9c-1.7,5.6-0.4,10.6,2.9,15.2
		c4.3,6.1,10.5,8.8,17.5,9.9c3.2,0.5,6.5,0.8,9.8,0.8c38.2,0,76.3,0,114.4,0c5,0,9.9,0,14.9,0c7.2,0,14.4,0,21.7,0c5,0,9.9,0,14.8,0
		c5.4,0,10.7,0,16.1,0c9.5,0,22.2-7.2,23.3-21.5c0.8-9.7-1.6-18.8-5-27.7c-3.1-8-6.7-15.8-9.5-23.8c-4-11.4-4.6-23.3-4.6-35.3v-4.1
		c0.9-0.1,1.8-0.2,2.6-0.4c1.5-0.2,4.1-0.7,6.8-1.7c0,2.9,0,5.7,0,8.6c-0.1,15.9,3.2,30.9,10,45.3c4.7,9.8,8.2,20,9.1,30.9
		C1284.1,242.5,1274.8,257.9,1255,262.2z"/>
	<path d="M1283.7,31.2l-0.6-3.8h-129.2l-0.4,4c-0.1,0.9-2.1,21.3,4.6,50.5l1.2,5.2c6.2,27.2,9.6,42.2,12.8,47.7
		c0.8,1.4,2.2,2.9,6.5,4.1c2.2,0.6,5.2,1.2,9.4,1.7c2.3,0.3,4.9,0.5,7.9,0.8c0.8,0.1,1.5,0.1,2.4,0.2c2.3,0.1,4.6,0.3,6.7,0.4
		c7.4,0.3,13.4,0.3,13.8,0.3l0,0c5.1,0,9.6,0,13.7-0.1c3.3-0.1,6.3-0.2,9-0.3c5-0.2,9-0.6,12.4-1c0.9-0.1,1.8-0.2,2.6-0.4
		c1.5-0.2,4.1-0.7,6.8-1.7c4.2-1.5,8.4-4.3,8.4-9.7c0-0.7,0-1.6,0-2.8c-0.1-9.5-0.5-34.6,6.6-52.6
		C1286.9,52.1,1283.9,32,1283.7,31.2z M1269.9,70.5c-4,9.9-5.8,21.7-6.7,32.1c-0.8,10.1-0.7,19-0.6,23.9c0,1,0,1.9,0,2.6
		c-0.2,0.3-1.7,1.7-8.8,2.7c-0.5,0.1-1.1,0.2-1.8,0.2c-3.5,0.4-7.9,0.8-13.3,1s-12,0.3-20,0.3h-0.1c-10.5,0-22.2-0.6-30.2-1.6
		c-4.3-0.5-7.5-1.2-8.9-1.9c0-0.1-0.1-0.2-0.2-0.3c-2.5-5.4-6.3-21.9-11.4-44.4l-1.2-5.2c-4.6-20.3-4.9-36.3-4.6-43.5h113
		C1275.6,42.8,1275.6,56.3,1269.9,70.5z"/>
	<path d="M1197.1,253.2c-5,0-9.9,0-14.9,0l0,0c1.2,0,3.4,0,5.5-2.4c13.9-15.5,10.8-81.3,8.1-109.3c0.8,0.1,1.5,0.1,2.4,0.2
		c2.3,0.1,4.6,0.3,6.7,0.4C1206.8,161.9,1211.8,229.2,1197.1,253.2z"/>
	<path d="M1233.6,253.3c-4.9,0-9.9,0-14.8,0l0,0c1.2,0,3.4,0,5.5-2.4c13.8-15.3,10.9-80.2,8.2-108.7c3.3-0.1,6.3-0.2,9-0.3
		C1243.3,161.7,1248.3,229.3,1233.6,253.3z"/>
</g>
<g>
	<path d="M1397.7,166.2h-10.6c5.1,7.8,9.4,16.3,11.6,27.4c4.6,23.1-1.9,48.9-19.4,76.7l7.6,4.8c18.7-29.8,25.7-57.8,20.6-83.3
		C1405.5,181.7,1401.9,173.5,1397.7,166.2z"/>
	<path d="M1358.7,113.6c2,10.1,5.6,18.3,9.9,25.6h10.5c-5.1-7.8-9.4-16.3-11.6-27.4c-3.3-16.4-0.9-34.3,7-53.2l18.7,6.8l-4.1-23.1
		l-4-23.1l-18,15.1l-18,15.1l16.9,6.2C1357.6,76,1355.1,95.5,1358.7,113.6z"/>
	<path d="M1477.7,166.2h-10.6c5.1,7.8,9.4,16.3,11.6,27.4c4.6,23.1-1.9,48.9-19.4,76.7l7.6,4.8c18.7-29.8,25.7-57.8,20.6-83.3
		C1485.5,181.7,1481.9,173.5,1477.7,166.2z"/>
	<path d="M1438.7,113.6c2,10.1,5.6,18.3,9.9,25.6h10.6c-5.1-7.8-9.4-16.3-11.6-27.4c-3.3-16.4-0.9-34.3,7-53.2l18.6,6.8l-4.1-23.1
		l-4.1-23.1l-18,15.1l-18,15.1l17,6.2C1437.5,76,1435.1,95.5,1438.7,113.6z"/>
	<path d="M1557.7,166.2h-10.6c5.1,7.8,9.4,16.3,11.6,27.4c4.6,23.1-1.9,48.9-19.4,76.7l7.6,4.8c18.7-29.8,25.7-57.8,20.6-83.3
		C1565.5,181.7,1561.9,173.5,1557.7,166.2z"/>
	<path d="M1518.7,113.6c2,10.1,5.6,18.3,9.9,25.6h10.6c-5.1-7.8-9.4-16.3-11.6-27.4c-3.3-16.4-0.9-34.2,7-53.2l18.5,6.7l-4.1-23.1
		l-4.1-23.1l-18,15.1l-18,15.1l17.1,6.2C1517.6,76,1515.1,95.5,1518.7,113.6z"/>
	<polygon points="1545.4,148.2 1534.3,148.2 1465.4,148.2 1454.3,148.2 1385.4,148.2 1374.3,148.2 1335.1,148.2 1335.1,157.2 
		1380.8,157.2 1391.9,157.2 1460.8,157.2 1471.9,157.2 1540.8,157.2 1551.9,157.2 1591.1,157.2 1591.1,148.2 	"/>
</g>
<g>
	<path d="M461.4,456.2h-11.1h-39.2v9h45.7h11.1h34.4c0.6-3,1-6,1.5-9H461.4z"/>
	<path d="M627.9,465.2h39.2v-9h-45.7h-11.1h-35.9c0.4,3,0.9,6,1.5,9h40.9H627.9z"/>
	<path d="M549.2,465.2h-20c0.5-3,1-6,1.4-9h17.3C548.3,459.2,548.7,462.2,549.2,465.2z"/>
	<path d="M618.2,578.1l-6.8,5.1c-32.7-43.8-47-82.5-53-118c-0.5-3-1-6-1.4-9c-2.6-19-3-37.1-2.9-54.7v-4.3h27.5l-42.5-55.9
		l-42.5,55.9h28.5v4.3c-0.2,17.6-0.9,35.7-3.6,54.7c-0.4,3-0.9,6-1.4,9c-6.3,35.5-20.6,74.2-53.3,118l-6.8-5.1
		c31.5-42.3,45.4-78.8,51.4-112.9c0.5-3,1-6,1.4-9c2.4-17.1,3-33.6,3.1-50h-36.5l59.7-79l59.7,79h-36.5c0.1,16.4,0.7,32.9,3.1,50
		c0.4,3,0.9,6,1.4,9C572.8,499.3,586.7,535.8,618.2,578.1z"/>
	<path d="M540.1,575.9c-13.3,0-24-10.7-24.5-24.3c-0.3-8.3,5.3-17.5,11.2-27.2c3.5-5.7,7.1-11.7,9-16.9l4-10.9l4.4,10.7
		c2.2,5.3,5.6,10.9,9,16.4c6,9.7,11.6,18.9,11.3,27.8l0,0C564.1,565.2,553.4,575.9,540.1,575.9z M540.2,519.4
		c-1.8,3.2-3.7,6.4-5.6,9.6c-5,8.2-10.1,16.6-9.9,22.3c0.3,8.8,7.1,15.6,15.5,15.6c8.4,0,15.2-6.9,15.5-15.6l0,0
		c0.2-6.3-5-14.7-10-22.8C543.8,525.5,541.9,522.4,540.2,519.4z"/>
</g>
<g>
	<path d="M1278.3,415.5h-30.7v-21.9c0-2.5-2-4.5-4.5-4.5h-52.8c-2.5,0-4.5,2-4.5,4.5s2,4.5,4.5,4.5h48.3V420c0,2.5,2,4.5,4.5,4.5
		h30.7v61.4h-30.7c-2.5,0-4.5,2-4.5,4.5v21.9h-43.9c-2.5,0-4.5,2-4.5,4.5s2,4.5,4.5,4.5h48.4c2.5,0,4.5-2,4.5-4.5v-21.9h30.7
		c2.5,0,4.5-2,4.5-4.5V420C1282.8,417.5,1280.8,415.5,1278.3,415.5z M1111.1,512.3h-74.7V398.1h74.7c2.5,0,4.5-2,4.5-4.5
		s-2-4.5-4.5-4.5h-79.2c-2.5,0-4.5,2-4.5,4.5v123.2c0,2.5,2,4.5,4.5,4.5h79.2c2.5,0,4.5-2,4.5-4.5S1113.6,512.3,1111.1,512.3z"/>
	<path d="M1198.5,441.8c-0.8-1.3-2.3-2.1-3.8-2.1h-35.1V387c0-2.1-1.5-3.9-3.5-4.4c-2.1-0.5-4.2,0.6-5.1,2.5l-39.6,83.6
		c-0.7,1.4-0.6,3,0.3,4.3c0.8,1.3,2.3,2.1,3.8,2.1h35.1v48.3c0,2.1,1.4,3.9,3.5,4.4c0.3,0.1,0.7,0.1,1,0.1c1.7,0,3.2-0.9,4-2.5
		l39.6-79.2C1199.4,444.8,1199.4,443.2,1198.5,441.8z M1159.6,504.4v-33.8c0-2.5-2-4.5-4.5-4.5h-32.5l28-59.1v37.2
		c0,2.5,2,4.5,4.5,4.5h32.3L1159.6,504.4z"/>
</g>
<g>
	<path d="M858.3,529.5V424.7c0-2.5-2-4.5-4.5-4.5s-4.5,2-4.5,4.5v104.8c-4.9,1.8-8.3,6.5-8.3,12c0,7.1,5.8,12.8,12.8,12.8
		s12.8-5.8,12.8-12.8C866.6,536,863.2,531.3,858.3,529.5z M853.8,545.4c-2.1,0-3.8-1.7-3.8-3.8s1.7-3.8,3.8-3.8s3.8,1.7,3.8,3.8
		S855.9,545.4,853.8,545.4z"/>
	<path d="M804.8,399.4h13c2.5,0,4.5-2,4.5-4.5s-2-4.5-4.5-4.5h-13c-2.5,0-4.5,2-4.5,4.5S802.3,399.4,804.8,399.4z"/>
	<path d="M804.8,367.1h13c2.5,0,4.5-2,4.5-4.5s-2-4.5-4.5-4.5h-13c-2.5,0-4.5,2-4.5,4.5S802.3,367.1,804.8,367.1z"/>
	<path d="M804.8,431.8h13c2.5,0,4.5-2,4.5-4.5s-2-4.5-4.5-4.5h-13c-2.5,0-4.5,2-4.5,4.5S802.3,431.8,804.8,431.8z"/>
	<path d="M804.8,464.2h13c2.5,0,4.5-2,4.5-4.5s-2-4.5-4.5-4.5h-13c-2.5,0-4.5,2-4.5,4.5S802.3,464.2,804.8,464.2z"/>
	<path d="M822.3,492.1c0-2.5-2-4.5-4.5-4.5h-13c-2.5,0-4.5,2-4.5,4.5s2,4.5,4.5,4.5h13C820.3,496.6,822.3,494.6,822.3,492.1z"/>
	<g>
		<path d="M877.3,509.4V357.9c0-18.4-8.7-29.5-23.4-29.5h-0.1c-0.2,0-0.5,0-0.7,0c-0.4,0-0.9,0-1.3,0c-17.8,1.2-20.6,18.8-20.6,29.5
			v150.9c-11,7.5-17.5,19.7-17.5,33.1c0,22.1,18,40.1,40.1,40.1c22.1,0,40.1-18,40.1-40.1C894,529,887.8,516.9,877.3,509.4z
			 M853.9,573.1c-17.2,0-31.1-14-31.1-31.1c0-10.5,5.2-20.1,13.9-25.9c2.1-0.4,3.6-2.2,3.6-4.4V357.9c0-7.2,2.3-13.7,6.1-17.4
			c2.1-2.1,4.6-3.1,7.2-3.1h0.1c5.7,0.1,10.5,4.4,12.9,10.7c1.1,2.9,1.7,6.2,1.7,9.8v153.7c0,1.7,0.9,3.1,2.3,3.9
			c0.2,0.2,0.4,0.4,0.7,0.6c8.6,5.8,13.8,15.5,13.8,25.8C885,559.1,871.1,573.1,853.9,573.1L853.9,573.1z"/>
		<path d="M853.9,328.4L853.9,328.4c-0.3,0-0.6,0-0.8,0c-0.4,0-0.9,0-1.3,0c-17.8,1.2-20.6,18.8-20.6,29.5v150.9
			c-11,7.5-17.5,19.7-17.5,33.1c0,22.1,18,40.1,40.1,40.1c22.1,0,40.1-18,40.1-40.1c0.1-12.9-6.1-25-16.6-32.5V357.9
			C877.3,339.5,868.6,328.4,853.9,328.4L853.9,328.4z M853.9,573.1c-17.2,0-31.1-14-31.1-31.1c0-10.5,5.2-20.1,13.9-25.9
			c2.1-0.4,3.6-2.2,3.6-4.4V357.9c0-7.2,2.3-13.7,6.1-17.4c2.1-2.1,4.6-3.1,7.2-3.1h0.1c5.7,0.1,10.5,4.4,12.9,10.7
			c1.1,2.9,1.7,6.2,1.7,9.8v153.7c0,1.7,0.9,3.1,2.3,3.9c0.2,0.2,0.4,0.4,0.7,0.6c8.6,5.8,13.8,15.5,13.8,25.8
			C885,559.1,871.1,573.1,853.9,573.1L853.9,573.1z"/>
	</g>
</g>
<g>
	<g>
		<path d="M474.8,695.2c-6.8,10.4-10.3,20.8-10.3,30.9c-0.1,13.2,5.6,23.2,11.5,33.8c5.5,9.6,11.1,19.5,12.8,32.3
			c0.3,2.6,0.5,5.2,0.5,8.1c0,0.3,0,0.6,0,0.9c-0.2,13.3-4.7,26.6-13.5,39.6l-0.7,1.1l-6.3-7.7l0.4-0.6
			c7.3-10.9,11.2-21.8,11.4-32.4c0-0.3,0-0.6,0-0.9c0-2.8-0.2-5.5-0.7-8.1c-1.7-9.6-6.2-17.5-11-25.9c-6.5-11.5-13.3-23.4-13.2-40.3
			c0.1-11.9,3.7-23.9,10.9-35.6l-0.9-0.5l-15.6-9l20.3-11.7l20.3-11.7v46.9L474.8,695.2z"/>
	</g>
	<g>
		<path d="M612.2,695.2c-6.8,10.4-10.3,20.8-10.3,30.9c-0.1,13.2,5.6,23.2,11.5,33.8c5.5,9.6,11.1,19.5,12.8,32.3
			c0.3,2.6,0.5,5.2,0.5,8.1c0,0.3,0,0.6,0,0.9c-0.2,13.3-4.7,26.6-13.5,39.6l-0.7,1.1l-6.3-7.6l0.4-0.6
			c7.3-10.9,11.2-21.8,11.4-32.4c0-0.3,0-0.6,0-0.9c0-2.8-0.2-5.5-0.7-8.1c-1.7-9.6-6.2-17.5-11-25.9c-6.5-11.5-13.3-23.4-13.2-40.3
			c0.1-11.9,3.7-23.9,10.9-35.6l-0.9-0.5l-15.6-9l20.3-11.7l20.3-11.7v46.9L612.2,695.2z"/>
	</g>
	<g>
		<path d="M543.5,695.2c-6.8,10.4-10.3,20.8-10.3,30.9c-0.1,13.2,5.6,23.2,11.5,33.8c5.5,9.6,11.1,19.5,12.8,32.3
			c0.3,2.6,0.5,5.2,0.5,8.1c0,0.3,0,0.6,0,0.9c-0.2,13.3-4.7,26.6-13.5,39.6l-0.8,1.1l-6.3-7.6l0.4-0.6
			c7.3-10.9,11.2-21.8,11.4-32.4c0-0.3,0-0.6,0-0.9c0-2.8-0.2-5.5-0.7-8.1c-1.7-9.6-6.2-17.5-11-25.9c-6.5-11.5-13.3-23.4-13.2-40.3
			c0.1-11.9,3.7-23.9,10.9-35.6l-0.9-0.5l-15.6-9l20.4-11.8l20.3-11.7v46.9L543.5,695.2z"/>
	</g>
	<path d="M635.2,792.2c0.3,2.6,0.5,5.3,0.5,8.1c0,0.3,0,0.6,0,0.9h16.8l-43.2,74H428.7l42.8-73.4c0-0.5,0-1,0-1.5
		c0-2.8-0.3-5.5-0.9-8.1h-3.9l-53.6,92h201.3l53.7-92H635.2z M608.1,792.2h-41.5c0.3,2.6,0.5,5.3,0.5,8.1c0,0.3,0,0.6,0,0.9h42
		c0-0.3,0-0.6,0-0.9C609,797.4,608.6,794.8,608.1,792.2z M539.4,792.2h-41.5c0.3,2.6,0.5,5.3,0.5,8.1c0,0.3,0,0.6,0,0.9h42
		c0-0.3,0-0.6,0-0.9C540.3,797.4,540,794.8,539.4,792.2z"/>
</g>
<g id="wGUpmt.tif">
</g>
<path d="M878.2,760.1c13.3-7.7,18.3-20.2,18.5-35.3c0.4,0,0.9-0.2,1-0.1c12.4,15.8,22.5,32.8,26.2,52.9c4,21.3-1.2,40.7-12.3,58.8
	c-12.5,20.2-29.3,36.4-48.2,50.8c0.8-0.9,1.6-1.8,2.3-2.8c4.7-6.4,10-12.5,14-19.3c10.4-17.4,10.5-35.7,1.4-53.5
	c-4.7-9.2-11.1-17.6-16.8-26.2c-2.4-3.7-5.2-7.2-7.8-10.8c-7.2-10.4-11.5-21.4-6-34.2c-11.3,4.6-22.6,22-26.1,34
	c-4.2,14.4-2.9,28.8-1.3,44.2c-8.3-5.2-10.4-12.7-10.9-21c-9,6.3-16.9,30.8-15.2,46.2c1.4,12.8,7.2,23.3,23.2,43.7
	c-4.5-3.8-9.1-7.5-13.5-11.5c-15-13.5-28.4-28.3-37.9-46.3c-13-24.5-12.7-49.2-1.5-74.2c7.1-15.8,17.6-29.3,28.5-42.6
	c7.7-9.5,15.7-18.9,22.9-28.7c7.3-10,13.4-20.8,12.4-33.8c-0.5-6.5-2.4-12.8-3.7-18.9c9.6,3.3,27.6,20.7,35.3,32.6
	c9.1,14.2,15.6,29.4,16.3,46.2C879.6,726.7,878.5,743.2,878.2,760.1z"/>
<path d="M1281.7,757.6l-58.3-100.9c-2.1-3.4-5.8-5.5-9.9-5.5h-116.7c-4.1-0.1-7.8,2-10,5.5l-58.3,100.9c-1.9,3.4-1.9,7.6,0,11
	l58.3,101.2c2.1,3.5,5.9,5.6,10,5.5h26.6l6.7-44.9l-36.4-52.3c-1.8-2.6-1.8-4.3,0.3-7.5l21.7-33.5c1-1.6,1.7-1.8,2.3-1.8
	c0.9,0.1,1.7,0.3,2.5,0.8l36.2,17.3c0,1.5-0.4,3-1.2,4.3c-2.6,4.6-7.6,7.5-12.9,7.3c-4.5-0.2-8.9-1.4-12.8-3.7l-1.3-0.7l-7.2,13.5
	l1.5,0.6c19.9,8.6,32.3,25.4,37.8,51.3h2.9l5.1-27.5l17.4,9l19.7-20.4c0.4,4.7-0.5,9.4-2.6,13.7l-18.4,36.5v37.9h28.5
	c4.1,0.1,7.8-2,10-5.5l58.5-101.2C1283.6,765.1,1283.6,761,1281.7,757.6z M1125.2,731.1l11-20.1h0.4c4.7,0,17.2,7,17.6,9.2l-11.8,19
	L1125.2,731.1z M1148.7,742.1l12.3-20.7c4.2,0,18.2,10,18.4,12.3l-16.9,24.3c0.7-5.5-0.4-9-3.4-10.6L1148.7,742.1z M1160.2,772.4
	l23.8-32.5c4.6,2.5,8.6,5.8,11.9,9.8c2.5,3,3,4.4,2.9,4.7l-26.4,29c-4.8-2.9-9-6.7-12.4-11.1L1160.2,772.4z M1185.4,796.6
	c-3.4-2.2-6.2-5.2-8.3-8.8l24.5-27c4.3,3.3,7.6,7.7,9.6,12.7L1185.4,796.6z"/>
<path d="M1418.8,891.2l10.5-69.9l-56.8-81.5c-2.8-4.1-2.7-6.8,0.5-11.7l33.8-52.2c1.5-2.5,2.7-2.8,3.6-2.8c1.4,0.1,2.7,0.5,3.9,1.2
	l56.4,27c0.1,2.4-0.6,4.7-1.9,6.7c-4,7.2-11.8,11.6-20.1,11.4c-7-0.3-13.8-2.2-19.9-5.7l-2.1-1.1l-11.1,21l2.3,0.9
	c31,13.5,50.3,39.5,58.8,79.9h4.5l8-42.9l27.1,14l30.7-31.7c0.6,7.3-0.8,14.7-4,21.4l-28.6,56.9v59.1 M1421.6,666.6l17.2-31.4h0.7
	c7.4,0,26.8,10.9,27.4,14.4l-18.3,29.5L1421.6,666.6z M1458.3,683.7l19.2-32.2c6.6,0,28.3,15.5,28.6,19.2l-26.3,37.9
	c1.1-8.6-0.7-14-5.3-16.5L1458.3,683.7z M1476.2,730.9l37.1-50.7c7.1,3.8,13.5,9,18.6,15.3c3.9,4.6,4.6,6.9,4.5,7.4l-41.1,45.2
	c-7.4-4.6-14-10.4-19.3-17.3L1476.2,730.9z M1515.4,768.6c-5.3-3.5-9.7-8.1-12.9-13.6l38.2-42.1c6.7,5.1,11.9,11.9,15,19.7
	L1515.4,768.6z"/>
<g id="vy2RzU.tif">
	<g>
		<path d="M848.4,1157.8c-2,1.2-3.9,3.4-5.9,3.4c-23.4,0.2-46.8,0.3-70.2,0.1c-8.7-0.1-13.3-4.8-13.3-13.6
			c-0.1-42.1-0.1-84.2,0.1-126.3c0-2.8,1.6-6.3,3.6-8.4c18.1-18.5,36.5-36.8,55-54.9c2.2-2.2,6-3.8,9.1-3.8
			c26.2-0.3,52.3-0.2,78.5-0.2c10,0,14.5,4.7,14.5,14.8c0,59.3,0,118.6,0,177.8c0,11.2-8,17.2-19.1,14.4c-1.5-0.4-2.5-2.8-4.2-4.9
			c16.9-2.7,16.9-2.7,16.9-19.1c0-55,0-110.1,0-165.1c0-10.8-0.6-11.4-11.4-11.4c-22.4,0-44.8,0-67.3,0c-2.7,0-5.3,0-8.8,0
			c0,15.1,0,29.2,0,43.3c0,13.1-3.8,16.9-16.8,17c-14.2,0-28.3,0-43.3,0c-0.1,3.2-0.4,5.8-0.4,8.5c0,38.4,0,76.7,0,115.1
			c0,9.8,1,10.8,10.7,10.8c21.2,0.1,42.3,0,63.5,0c2.7,0,5.3,0,8,0C847.8,1156.1,848.1,1157,848.4,1157.8z M819.4,968
			c-15.6,15.7-31,31.2-46.1,46.4c12.7,0,26.6,0.2,40.4-0.3c2-0.1,5.4-3.5,5.5-5.5C819.6,994.9,819.4,981.1,819.4,968z"/>
		<path d="M859.3,1132c1.8,2.8,3.1,6.1,5.4,8.3c3.9,3.5,4.8,6.4-0.3,9.1c-4.4,2.3-5.7,5.6-4.8,10.4c0.9,5-1.6,7.2-6.4,5.7
			s-8,0-10.7,4c-2.9,4.2-6.2,4-8.6-0.4c-2.4-4.4-5.6-5.7-10.4-4.7c-5.1,1-7-1.7-5.8-6.4c1.1-4.6,0.4-8.1-3.9-10.8
			c-4.2-2.6-4.5-6,0.1-8.5c4.7-2.5,5.9-6.1,5-11c-0.8-4.7,1.6-6.6,6.1-5.3c5,1.4,8.5-0.1,11.4-4.3c2.2-3.3,5.3-4.1,7.6-0.2
			c2.8,4.9,6.2,6.8,12.1,5.7C862.3,1122.4,861.3,1127.2,859.3,1132z M854.1,1157.8c-3.4-5.9,2.4-9.2,5.4-11.7
			c-2.2-6.2-4-11.3-5.4-15.3c-5-2.4-9.7-4.7-13.8-6.7c-4.6,1.7-9.7,3.5-14,5.1c-2.3,4.6-4.7,9.5-6.8,13.7c1.7,4.6,3.5,9.8,5.1,14.1
			c4.7,2.3,9.6,4.7,13.5,6.6C843,1161.8,847.9,1160.1,854.1,1157.8z"/>
		<path d="M827.8,1164.9c-2.3,10.2-4.1,18.4-6,27c2,0.5,3.8,1,6.1,1.6c1.8-6.6,3.5-13,5.1-19c3.4,0,6.2,0,9.8,0
			c1.7,8.3,3.6,17,5.5,25.9c2.7-0.4,5.3-0.9,8.7-1.5c-1.8-10-3.8-20.3-5.7-30.7c0.8-0.4,1.7-0.7,2.5-1.1c1.2,1.8,3,3.6,3.5,5.6
			c2.1,9.5,3.8,19,5.6,28.6c0.9,4.9,0.1,7.4-5.8,5.3c-1.7-0.6-4.8,0-6.2,1.3c-4.9,4.3-6.4,1.5-7.3-3c-1.7-8.5-3.3-17-6.4-25.6
			c-2.1,7.8-4.1,15.7-5.9,22.3c-5.6-0.7-9.6-0.9-13.5-1.8c-1.1-0.3-2.7-2.6-2.5-3.7c2.1-9.5,4.5-18.8,7.1-28.2
			C822.7,1167.1,824.6,1166.7,827.8,1164.9z"/>
		<path d="M838.7,1061c-15.4,0-30.8,0.1-46.2-0.1c-2.1,0-4.2-1.9-6.3-2.9c2-1.1,4-3.2,6-3.2c31.3-0.2,62.6-0.2,94,0
			c2.1,0,4.2,1.9,6.3,3c-2.2,1.1-4.5,3.2-6.7,3.2C870,1061.2,854.4,1061,838.7,1061z"/>
		<path d="M839.4,1076.7c-15.7,0-31.4,0.1-47-0.1c-2.1,0-4.1-2-6.2-3c2.1-1,4.2-2.8,6.3-2.9c31.4-0.2,62.7-0.2,94.1,0
			c1.9,0,3.8,1.7,5.8,2.7c-2,1.1-3.9,3.2-5.9,3.2C870.8,1076.9,855.1,1076.7,839.4,1076.7z"/>
		<path d="M838.7,1044.9c-15.7,0-31.3,0.1-47-0.1c-1.9,0-3.7-1.9-5.5-2.9c1.9-1,3.7-2.8,5.6-2.8c31.8-0.2,63.6-0.2,95.5,0
			c1.7,0,3.4,1.6,5.1,2.5c-1.7,1.1-3.4,3.2-5.2,3.2C871,1045,854.9,1044.9,838.7,1044.9z"/>
		<path d="M839.6,1103.4c7.2,0,14.4-0.2,21.6,0.1c1.6,0.1,3.1,2,4.6,3c-1.6,1-3.2,2.8-4.8,2.8c-14.4,0.2-28.8,0.2-43.1,0
			c-1.7,0-3.3-1.7-5-2.7c1.7-1.1,3.4-3.1,5.2-3.2C825.2,1103.1,832.4,1103.4,839.6,1103.4z"/>
		<path d="M839,997.5c7.4,0,14.9-0.2,22.3,0.2c1.5,0.1,3,2.1,4.4,3.2c-1.4,1-2.8,2.7-4.2,2.8c-14.9,0.2-29.7,0.2-44.6,0
			c-1.4,0-2.7-1.9-4.1-2.9c1.5-1.1,3-3,4.6-3.1C824.6,997.3,831.8,997.5,839,997.5z"/>
		<path class="st1" d="M862.3,968c0,13.1,0.2,26.9-0.3,40.7c-0.1,2-3.5,5.4-5.5,5.5c-13.8,0.5-27.7,0.3-40.4,0.3
			C831.3,999.2,846.7,983.8,862.3,968z"/>
		<path class="st1" d="M853.9,1157.8c-6.2,2.2-11.1,4-15.9,5.7c-3.9-1.9-8.8-4.3-13.5-6.6c-1.6-4.3-3.4-9.4-5.1-14.1
			c2.1-4.2,4.5-9,6.8-13.7c4.3-1.5,9.3-3.4,14-5.1c4.1,2,8.8,4.3,13.8,6.7c1.4,4,3.2,9.1,5.4,15.3
			C856.2,1148.6,850.5,1151.9,853.9,1157.8z M838.9,1129.6c-7.7-0.1-13.8,5.8-14,13.4c-0.2,8,5.8,14.3,13.8,14.4
			c7.7,0,13.9-5.8,14.2-13.4C853.2,1136.2,846.9,1129.7,838.9,1129.6z"/>
		<path d="M839.3,1129.6c8,0.1,14.2,6.5,13.9,14.4c-0.3,7.5-6.5,13.4-14.2,13.4c-8,0-14-6.3-13.8-14.4
			C825.5,1135.4,831.6,1129.6,839.3,1129.6z M839.2,1134.1c-5.7,0.5-9.4,3.5-9.4,9.4c0,5.8,3.4,9.3,9.3,9.4c6,0,9.4-3.5,9.5-9.3
			C848.7,1137.7,845.1,1134.6,839.2,1134.1z"/>
		<path class="st1" d="M839.3,1134.1c5.9,0.5,9.5,3.7,9.4,9.5c-0.1,5.7-3.5,9.3-9.5,9.3c-5.9,0-9.3-3.5-9.3-9.4
			C829.9,1137.6,833.6,1134.6,839.3,1134.1z"/>
	</g>
</g>
<g>
	<path d="M1278.7,1119.6c-0.1-1.6-0.9-3-2.1-4.1c-23.6-20.1-77.2-33-136.6-33c-60.1,0-114,13.2-137.3,33.6c-1.2,1.1-1.9,2.5-2,4.1
		s0.4,3.1,1.5,4.3c1.1,1.3,2.8,2,4.5,2c1.5,0,2.9-0.5,4-1.5c21.2-18.6,72-30.7,129.4-30.7c56.7,0,107.2,11.8,128.8,30.2
		c1.2,1,2.8,1.5,4.4,1.4c1.6-0.1,3.1-0.9,4.1-2.1C1278.3,1122.8,1278.8,1121.2,1278.7,1119.6z"/>
	<path d="M1002.8,1026.9c23.6,20.1,77.2,33,136.6,33c60.1,0,114-13.2,137.3-33.6c1.2-1.1,1.9-2.5,2-4.1c0.1-1.6-0.4-3.1-1.5-4.3
		c-1.1-1.2-2.5-1.9-4.1-2c-1.6-0.1-3.1,0.4-4.3,1.5c-21.2,18.6-72,30.7-129.4,30.7c-56.7,0-107.2-11.8-128.8-30.2
		c-2.5-2.1-6.3-1.8-8.5,0.7C1000,1020.9,1000.3,1024.7,1002.8,1026.9z"/>
	<path d="M1135.4,1035.2l0.2,0.2c0.2,0.2,0.4,0.3,0.6,0.5l0.2,0.1c0.3,0.2,0.7,0.4,1,0.6l0.3,0.1c0.2,0.1,0.5,0.2,0.8,0.2
		c0.4,0.1,0.8,0.1,1.2,0.1s0.8,0,1.2-0.1c0.3-0.1,0.6-0.1,0.8-0.2l0.3-0.1c0.7-0.3,1.3-0.7,1.8-1.2l18.6-18.9
		c2.3-2.4,2.3-6.2-0.1-8.5c-1.1-1.1-2.6-1.7-4.3-1.7c-1.6,0-3.1,0.6-4.2,1.8l-8.2,8.3v-69.2c0-3.3-2.7-6-6-6c-3.3,0-6,2.7-6,6v69.1
		l-8.2-8.3c-2.3-2.4-6.1-2.4-8.5-0.1c-1.1,1.1-1.8,2.6-1.8,4.2c0,1.6,0.6,3.1,1.7,4.3L1135.4,1035.2z"/>
	<path d="M1146,1107.4l-0.4-0.4c-1.1-1-2.6-1.6-4.1-1.6s-2.9,0.6-4,1.6l-18.7,19c-2.3,2.4-2.3,6.2,0.1,8.5c2.4,2.3,6.2,2.3,8.5-0.1
		l8.2-8.3v69.1c0,3.3,2.7,6,6,6c3.3,0,6-2.7,6-6v-69.1l8.2,8.3c1.1,1.2,2.7,1.8,4.3,1.8s3.1-0.6,4.2-1.7c2.4-2.3,2.4-6.1,0.1-8.5
		L1146,1107.4z"/>
</g>
<g>
	<polygon class="st2" points="655.4,1047.9 655.4,1039.3 627.4,1039.3 638.3,1047.9 	"/>
	<rect x="508.6" y="1023" class="st2" width="61" height="4.4"/>
	<path class="st2" d="M418.1,1087v28.3c0,2.2,1.8,4,4,4h234c2.2,0,4-1.8,4-4V1087H418.1z"/>
	<path class="st2" d="M647.4,1073l-61.8-49.1c-0.6-0.4-1.2-0.7-2-0.8v11.4c0,3.9-3.1,7-7,7h-75c-3.9,0-7-3.1-7-7v-11.4
		c-0.7,0.1-1.4,0.4-2,0.8l-61.8,49.1H647.4z"/>
	<path d="M667.3,1071l-11.4-9.1h6.5c3.9,0,7-3.1,7-7v-22.6c0-3.9-3.1-7-7-7h-52.6l-15.6-12.4c-3.2-2.5-7.2-3.9-11.2-3.9h-6.4h-75
		h-6.5c-4.1,0-8,1.4-11.2,3.9l-73,58l0,0c-4.3,3.4-6.8,8.6-6.8,14.1v30.2c0,9.9,8.1,18,18,18h234c9.9,0,18-8.1,18-18V1085
		C674.1,1079.6,671.6,1074.4,667.3,1071z M655.4,1039.3v8.6h-17.1l-10.8-8.6H655.4z M569.6,1023v4.4h-61v-4.4H569.6z M492.6,1023.9
		c0.6-0.4,1.2-0.7,2-0.8v11.4c0,3.9,3.1,7,7,7h75c3.9,0,7-3.1,7-7v-11.4c0.7,0.1,1.4,0.4,2,0.8l61.8,49.1H430.8L492.6,1023.9z
		 M656.1,1119.4h-234c-2.2,0-4-1.8-4-4v-28.3h242v28.3C660.1,1117.6,658.3,1119.4,656.1,1119.4z"/>
</g>
<g>
	<path d="M274,25.5c-3.6,0-7-1.4-9.6-4c-3.7-3.7-8.7-5.8-14-5.8c-5.3,0-10.3,2.1-14,5.8c-2.6,2.6-6,4-9.6,4c-3.6,0-7-1.4-9.6-4
		c-3.7-3.7-8.7-5.8-14-5.8c-5.3,0-10.3,2.1-14,5.8c-2.6,2.6-6,4-9.6,4c-3.6,0-7-1.4-9.6-4c-3.7-3.7-8.7-5.8-14-5.8
		c-5.3,0-10.3,2.1-14,5.8c-2.6,2.6-6,4-9.6,4c-3.6,0-7-1.4-9.6-4c-3.7-3.7-8.7-5.8-14-5.8c-5.3,0-10.3,2.1-14,5.8
		c-2.6,2.6-6,4-9.6,4c-3.6,0-7-1.4-9.6-4c-3.7-3.7-8.7-5.8-14-5.8s-10.3,2.1-14,5.8c-2.6,2.6-6,4-9.6,4c-3.6,0-7-1.4-9.6-4
		c-3.7-3.7-8.7-5.8-14-5.8S3.7,17.7,0,21.5l4.4,4.4c2.6-2.6,6-4,9.6-4s7,1.4,9.6,4c3.7,3.7,8.7,5.8,14,5.8c5.3,0,10.3-2.1,14-5.8
		c2.6-2.6,6-4,9.6-4s7,1.4,9.6,4c3.7,3.7,8.7,5.8,14,5.8c5.3,0,10.3-2.1,14-5.8c2.6-2.6,6-4,9.6-4c3.6,0,7,1.4,9.6,4
		c3.7,3.7,8.7,5.8,14,5.8c5.3,0,10.3-2.1,14-5.8c2.6-2.6,6-4,9.6-4c3.6,0,7,1.4,9.6,4c3.7,3.7,8.7,5.8,14,5.8c5.3,0,10.3-2.1,14-5.8
		c2.6-2.6,6-4,9.6-4c3.6,0,7,1.4,9.6,4c3.7,3.7,8.7,5.8,14,5.8c5.3,0,10.3-2.1,14-5.8c2.6-2.6,6-4,9.6-4c3.6,0,7,1.4,9.6,4
		c3.7,3.7,8.7,5.8,14,5.8c5.3,0,10.3-2.1,14-5.8l-4.4-4.4C281,24,277.6,25.5,274,25.5z"/>
	<path d="M14,6.3c3.6,0,7,1.4,9.6,4c3.7,3.7,8.7,5.8,14,5.8c5.3,0,10.3-2.1,14-5.8c2.6-2.6,6-4,9.6-4s7,1.4,9.6,4
		c3.7,3.7,8.7,5.8,14,5.8c5.3,0,10.3-2.1,14-5.8c2.6-2.6,6-4,9.6-4c3.6,0,7,1.4,9.6,4c3.7,3.7,8.7,5.8,14,5.8c5.3,0,10.3-2.1,14-5.8
		c2.6-2.6,6-4,9.6-4c3.6,0,7,1.4,9.6,4c3.7,3.7,8.7,5.8,14,5.8c5.3,0,10.3-2.1,14-5.8c2.6-2.6,6-4,9.6-4c3.6,0,7,1.4,9.6,4
		c3.7,3.7,8.7,5.8,14,5.8c5.3,0,10.3-2.1,14-5.8c2.6-2.6,6-4,9.6-4c3.6,0,7,1.4,9.6,4c3.7,3.7,8.7,5.8,14,5.8c5.3,0,10.3-2.1,14-5.8
		l-4.4-4.4c-2.6,2.6-6,4-9.6,4c-3.6,0-7-1.4-9.6-4c-3.7-3.7-8.7-5.8-14-5.8c-5.3,0-10.3,2.1-14,5.8c-2.6,2.6-6,4-9.6,4
		c-3.6,0-7-1.4-9.6-4c-3.7-3.7-8.7-5.8-14-5.8c-5.3,0-10.3,2.1-14,5.8c-2.6,2.6-6,4-9.6,4c-3.6,0-7-1.4-9.6-4
		c-3.7-3.7-8.7-5.8-14-5.8c-5.3,0-10.3,2.1-14,5.8c-2.6,2.6-6,4-9.6,4c-3.6,0-7-1.4-9.6-4c-3.7-3.7-8.7-5.8-14-5.8
		c-5.3,0-10.3,2.1-14,5.8c-2.6,2.6-6,4-9.6,4c-3.6,0-7-1.4-9.6-4C71.6,2.1,66.6,0,61.3,0S51,2.1,47.3,5.8c-2.6,2.6-6,4-9.6,4
		c-3.6,0-7-1.4-9.6-4C24.3,2.1,19.3,0,14,0S3.7,2.1,0,5.8l4.4,4.4C7,7.7,10.4,6.3,14,6.3z"/>
	<path d="M274,41.1c-3.6,0-7-1.4-9.6-4c-3.7-3.7-8.7-5.8-14-5.8c-5.3,0-10.3,2.1-14,5.8c-2.6,2.6-6,4-9.6,4c-3.6,0-7-1.4-9.6-4
		c-3.7-3.7-8.7-5.8-14-5.8c-5.3,0-10.3,2.1-14,5.8c-2.6,2.6-6,4-9.6,4c-3.6,0-7-1.4-9.6-4c-3.7-3.7-8.7-5.8-14-5.8
		c-5.3,0-10.3,2.1-14,5.8c-2.6,2.6-6,4-9.6,4c-3.6,0-7-1.4-9.6-4c-3.7-3.7-8.7-5.8-14-5.8c-5.3,0-10.3,2.1-14,5.8
		c-2.6,2.6-6,4-9.6,4c-3.6,0-7-1.4-9.6-4c-3.7-3.7-8.7-5.8-14-5.8s-10.3,2.1-14,5.8c-2.6,2.6-6,4-9.6,4c-3.6,0-7-1.4-9.6-4
		c-3.7-3.7-8.7-5.8-14-5.8S3.7,33.4,0,37.1l4.4,4.4c2.6-2.6,6-4,9.6-4s7,1.4,9.6,4c3.7,3.7,8.7,5.8,14,5.8c5.3,0,10.3-2.1,14-5.8
		c2.6-2.6,6-4,9.6-4s7,1.4,9.6,4c3.7,3.7,8.7,5.8,14,5.8c5.3,0,10.3-2.1,14-5.8c2.6-2.6,6-4,9.6-4c3.6,0,7,1.4,9.6,4
		c3.7,3.7,8.7,5.8,14,5.8c5.3,0,10.3-2.1,14-5.8c2.6-2.6,6-4,9.6-4c3.6,0,7,1.4,9.6,4c3.7,3.7,8.7,5.8,14,5.8c5.3,0,10.3-2.1,14-5.8
		c2.6-2.6,6-4,9.6-4c3.6,0,7,1.4,9.6,4c3.7,3.7,8.7,5.8,14,5.8c5.3,0,10.3-2.1,14-5.8c2.6-2.6,6-4,9.6-4c3.6,0,7,1.4,9.6,4
		c3.7,3.7,8.7,5.8,14,5.8c5.3,0,10.3-2.1,14-5.8l-4.4-4.4C281,39.7,277.6,41.1,274,41.1z"/>
</g>
<g>
	<path d="M144,235.2l-56.4-86.6H111V82.8h66v65.9h23.4L144,235.2z M98.7,154.7l45.3,69.6l45.3-69.6H171V88.8h-54v65.9H98.7z"/>
</g>
<polygon points="248,270.6 40,270.6 0,288 288,288 "/>
</svg>
