<svg enable-background="new 0 0 255.9 255.7" height="255.7" viewBox="0 0 255.9 255.7" width="255.9" xmlns="http://www.w3.org/2000/svg"><g fill="none"><ellipse cx="129.4" cy="157.4" rx="6.5" ry="6.5"/><circle cx="90.4" cy="114.4" r="5.5"/><path d="m114.2 96.5c-2.4 3.7-1.4 8.6 2.3 11.1 3.7 2.4 8.6 1.4 11.1-2.3s1.4-8.6-2.3-11.1c-3.7-2.4-8.6-1.4-11.1 2.3z"/><path d="m151.9 128.5c2.5 1.7 5.9 1 7.6-1.6 1.7-2.5 1-5.9-1.6-7.6-.5-.3-1.1-.6-1.6-.7l-6.7 6.7c.3 1.3 1.1 2.4 2.3 3.2z"/><path d="m246.9 127.9c0-31.2-12-59.7-31.7-80.9l-49.5 49.5c1.7 2.7 3.1 5.5 4.3 8.4.5 1.1.9 2.3 1.3 3.5l16.6-4c2.4-.6 4.8.9 5.4 3.3s-.9 4.8-3.3 5.4l-16.6 4c.8 3.8 1.8 7.6 3.9 10.9.7 1.2 1.6 2.3 2.8 3.1 3.9 2.5 11 2.7 15.5 3.7.9.2 1.9-.1 2.6-.7 3.7-3.3 9.7-3.9 14.7.9.2.2.4.5.6.8 4.6 8.9-2.3 16.8-10 15.7-3.6-.5-6.5-2.9-7.8-6-.4-.9-1.1-1.5-2-1.7-5-1.1-10.2-2.7-15.4-2.2-3.4.3-6.7 1.7-9.1 4.1l14.1 8.6c2.1 1.3 2.8 4.1 1.5 6.2-.8 1.4-2.3 2.2-3.8 2.2-.8 0-1.6-.2-2.3-.7l-14.5-8.9c-3.5 4.8-7.8 8.9-12.7 12.2-.1.1-.2.1-.3.2l8.7 16.3c1.2 2.2.3 4.9-1.9 6.1-.7.4-1.4.5-2.1.5-1.6 0-3.2-.9-4-2.4l-8.9-16.7c-4.4 1.7-9 3.2-12.6 6.2-.9.7-1.7 1.5-2.1 2.5-1.8 3.8-.6 10.6-.6 14.8 0 1 .5 1.9 1.3 2.4 3 2.1 4.7 5.8 4.1 9.6-1.1 7.7-10.6 12-17.9 5.1-.2-.2-.4-.5-.6-.8-3-5.8-1.1-11.2 2.7-13.9.8-.6 1.3-1.4 1.3-2.4 0-4.4 1-8.9-.1-13.2-.6-2.2-1.8-4.4-3.6-5.8-2.6-2.1-6-2.5-9-3.8-.3-.1-.5-.2-.8-.3-1.1-.5-2.3-1-3.4-1.6l-7.8 12.7-2 3.3c-.8 1.3-2.1 2-3.4 2.1-.1 0-.3 0-.4 0-.8 0-1.6-.2-2.3-.7-2.1-1.3-2.8-4.1-1.5-6.2l2.6-4.2-39.9 40.1c21.2 19.7 49.7 31.7 80.9 31.7 65.7 0 119-53.3 119-119z"/><path d="m8.9 127.9c0 31.2 12 59.7 31.7 80.9l48.8-48.8 70.6-70.6 48.8-48.8c-21.2-19.7-49.7-31.7-80.9-31.7-65.7 0-119 53.3-119 119zm123.7-89.8c3 5.9 1.1 11.3-2.8 14-.8.6-1.3 1.4-1.3 2.4 0 4.2-1.4 11.1.6 15 .6 1.1 1.5 2.1 2.5 2.9 4 3.3 9.4 4.4 14.2 6.5l9.7-15.8c1.3-2.1 4.1-2.8 6.2-1.5s2.8 4.1 1.5 6.2l-9.3 15.3-70.4 70.4c-2.9-3.9-5.2-8.2-6.8-12.7l-19.4 4.7c-.4.1-.7.1-1.1.1-2 0-3.9-1.4-4.4-3.4-.6-2.4.9-4.8 3.3-5.4l19.4-4.7c-.3-2.2-.5-4.3-.8-6.5-.7-6.3-1.8-9.2-8.3-10.8-4.5-1.2-9.3-1-13.8-2-.9-.2-1.8.1-2.5.7-2.1 2-5.1 3-8.2 2.5-7.7-1.1-12-10.6-5.1-17.9.2-.2.5-.4.8-.6 6.7-3.5 12.8-.4 15 4.6 1.3 3.1 9.2 3.4 12.1 4.1 5.1 1.2 8.4.5 12.4-2.6.9-.7 1.8-1.5 2.6-2.4l-16.7-10.2c-2.1-1.3-2.8-4.1-1.5-6.2s4.1-2.8 6.2-1.5l17.4 10.6c1.4-2 2.8-4 4.5-5.6 2.3-2.3 4.9-4.4 7.7-6.2l-8.7-16.3c-1.2-2.2-.3-4.9 1.9-6.1s4.9-.3 6.1 1.9l8.7 16.3c.3-.1.5-.2.8-.4.1 0 .2-.1.3-.1 4.4-2.4 8.9-4.6 12.7-8 .5-.4 1-.9 1.3-1.5 1.5-3.2.3-9.7.3-13.2 0-1-.5-1.9-1.3-2.4-2.9-2.1-4.6-5.7-4-9.5 1.1-7.7 10.6-12 17.9-5.1 0-.1.2.2.3.4z"/></g><path d="m255.9 124.7c-.1-2.7-.2-5.4-.5-8 0-.2 0-.3 0-.5-.1-.9-.2-1.8-.3-2.7 0-.3-.1-.7-.1-1-.1-.7-.2-1.4-.3-2.2 0-.3-.1-.5-.1-.8-.6-4.1-1.4-8.2-2.4-12.2v-.1c-1.5-6-3.4-11.8-5.6-17.4 0-.1-.1-.2-.1-.3-.4-1-.8-2-1.3-3.1 0-.1-.1-.2-.1-.3-.8-1.9-1.7-3.8-2.7-5.7-.1-.1-.1-.3-.2-.4-.4-.8-.8-1.6-1.2-2.3-.1-.1-.1-.2-.2-.4-.8-1.5-1.7-3.1-2.6-4.6-.1-.2-.3-.5-.4-.7-.9-1.5-1.8-3-2.8-4.4-.1-.2-.3-.4-.4-.6-.4-.7-.9-1.3-1.3-1.9-.1-.2-.2-.4-.4-.5-1-1.5-2.1-3-3.2-4.4-.6-.8-1.2-1.6-1.9-2.4-.1-.1-.1-.2-.2-.2-.6-.8-1.3-1.5-1.9-2.3-1.3-1.5-2.6-3-3.9-4.4l-.2-.2.2-.2-3.3-3.1-3.1-3.3-.2.2-.2-.2c-1.4-1.3-2.9-2.6-4.4-3.9-.8-.6-1.5-1.3-2.3-1.9-.1-.1-.2-.1-.2-.2-.8-.6-1.6-1.3-2.4-1.9-1.5-1.1-2.9-2.2-4.4-3.2-.2-.1-.4-.3-.5-.4-.6-.4-1.3-.9-1.9-1.3-.2-.1-.4-.3-.6-.4-1.5-1-2.9-1.9-4.4-2.8-.2-.1-.5-.3-.7-.4-1.5-.9-3-1.8-4.6-2.6-.1-.1-.2-.1-.4-.2-.8-.4-1.6-.8-2.3-1.2-.1-.1-.3-.1-.4-.2-1.9-.9-3.8-1.8-5.7-2.7-.1 0-.2-.1-.3-.1-1-.4-2-.9-3.1-1.3-.1 0-.2-.1-.3-.1-5.6-2.3-11.4-4.2-17.4-5.6h-.1c-4-1-8-1.8-12.2-2.4-.3 0-.5-.1-.8-.1-.7-.1-1.4-.2-2.2-.3-.3 0-.7-.1-1-.1-.9-.1-1.8-.2-2.7-.3-.2 0-.3 0-.5 0-2.7-.2-5.3-.4-8-.5-1.1 0-2.1 0-3.2 0-70.7 0-128 57.3-128 128v3.2c.1 2.7.2 5.4.5 8v.5l.3 2.7c0 .3.1.7.1 1 .1.7.2 1.4.3 2.2 0 .3.1.5.1.8.3 1.9.6 3.7.9 5.5v.2c.4 2.1.9 4.3 1.4 6.4v.1c1.5 6 3.4 11.8 5.6 17.4 0 .1.1.2.1.3.4 1 .8 2 1.3 3.1 0 .1.1.2.1.3.8 1.9 1.7 3.8 2.7 5.7.1.1.1.3.2.4.4.8.8 1.6 1.2 2.3.1.1.1.2.2.4.8 1.5 1.7 3.1 2.6 4.6.1.2.3.5.4.7.4.6.8 1.3 1.1 1.9 0 .1.1.1.1.2 1 1.7 2.1 3.3 3.2 4.9.1.2.2.4.4.5 1 1.5 2.1 3 3.2 4.4.6.8 1.2 1.6 1.9 2.4.1.1.1.2.2.2.6.8 1.3 1.5 1.9 2.3 1.3 1.5 2.6 3 3.9 4.4l.2.2-.2.2 3.3 3.1 3.1 3.3.2-.2.2.2c1.4 1.3 2.9 2.6 4.4 3.9.8.6 1.5 1.3 2.3 1.9.1.1.2.1.2.2.8.6 1.6 1.3 2.4 1.9 1.5 1.1 2.9 2.2 4.4 3.2.2.1.4.3.5.4 1.6 1.1 3.3 2.2 4.9 3.2.1 0 .1.1.2.1.6.4 1.2.8 1.9 1.1.2.1.5.3.7.4 1.5.9 3 1.7 4.6 2.6.1.1.2.1.4.2.8.4 1.6.8 2.3 1.2.1.1.3.1.4.2l5.7 2.7c.1 0 .2.1.3.1 1 .4 2 .9 3.1 1.3.1 0 .2.1.3.1 5.6 2.3 11.4 4.2 17.4 5.6h.1c2.1.5 4.2 1 6.4 1.4h.2c1.8.3 3.7.7 5.5.9.3 0 .5.1.8.1.7.1 1.4.2 2.2.3.3 0 .7.1 1 .1l2.7.3h.5c2.7.2 5.3.4 8 .5h3.2c70.7 0 128-57.3 128-128 .2-.9.2-1.9.2-3zm-98-5.4c2.5 1.7 3.2 5.1 1.6 7.6-1.7 2.5-5.1 3.2-7.6 1.6-1.2-.8-1.9-1.9-2.3-3.2l6.7-6.7c.6.2 1.1.4 1.6.7zm-23.1 41.7c-2 3-6 3.8-9 1.8s-3.8-6-1.8-9 6-3.8 9-1.8 3.8 6 1.8 9zm74-120.4-48.8 48.8-70.6 70.6-48.8 48.8c-19.7-21.2-31.7-49.7-31.7-80.9 0-65.7 53.3-119 119-119 31.2 0 59.7 12 80.9 31.7zm-161.8 174.6 39.8-39.8-2.6 4.2c-1.3 2.1-.6 4.9 1.5 6.2.7.4 1.5.7 2.3.7h.4c1.4-.1 2.6-.9 3.4-2.1l2-3.3 7.8-12.7c1.1.6 2.2 1.1 3.4 1.6.3.1.5.2.8.3 3 1.2 6.4 1.7 9 3.8 1.8 1.4 3 3.6 3.6 5.8 1.1 4.3.2 8.8.1 13.2 0 1-.5 1.8-1.3 2.4-3.8 2.7-5.7 8.1-2.7 13.9.1.3.3.5.6.8 7.2 6.9 16.7 2.6 17.9-5.1.6-3.9-1.2-7.5-4.1-9.6-.8-.6-1.3-1.5-1.3-2.4 0-4.2-1.2-11 .6-14.8.5-1 1.3-1.8 2.1-2.5 3.6-2.9 8.1-4.5 12.6-6.2l8.9 16.7c.8 1.5 2.4 2.4 4 2.4.7 0 1.4-.2 2.1-.5 2.2-1.2 3-3.9 1.9-6.1l-8.7-16.3c.1-.1.2-.1.3-.2 4.9-3.3 9.2-7.4 12.7-12.2l14.5 8.9c.7.4 1.5.7 2.3.7 1.5 0 3-.8 3.8-2.2 1.3-2.1.6-4.9-1.5-6.2l-14.1-8.6c2.4-2.4 5.7-3.8 9.1-4.1 5.2-.5 10.4 1.1 15.4 2.2.9.2 1.6.9 2 1.7 1.3 3.1 4.2 5.5 7.8 6 7.7 1.1 14.6-6.8 10-15.7-.1-.3-.3-.6-.6-.8-5-4.8-11-4.2-14.7-.9-.7.6-1.7.9-2.6.7-4.5-1-11.6-1.2-15.5-3.7-1.2-.8-2.1-1.9-2.8-3.1-2.1-3.4-3.1-7.1-3.9-10.9l16.6-4c2.4-.6 3.9-3 3.3-5.4s-3-3.9-5.4-3.3l-16.6 4c-.4-1.2-.8-2.3-1.3-3.5-1.2-2.9-2.6-5.7-4.3-8.4l49.5-49.5c19.8 20.9 31.8 49.4 31.8 80.6 0 65.7-53.3 119-119 119-31.2 0-59.7-12-80.9-31.7z"/><path d="m114.2 42.5c-.6 3.8 1.1 7.4 4 9.5.8.6 1.3 1.4 1.3 2.4 0 3.5 1.2 10.1-.3 13.2-.3.6-.8 1.1-1.3 1.5-3.8 3.3-8.3 5.6-12.7 8-.1 0-.2.1-.3.1-.3.1-.6.2-.8.4l-8.7-16.3c-1.2-2.2-3.9-3-6.1-1.9-2.2 1.2-3 3.9-1.9 6.1l8.7 16.3c-2.7 1.8-5.3 3.9-7.7 6.2-1.7 1.7-3.1 3.6-4.5 5.6l-17.4-10.6c-2.1-1.3-4.9-.6-6.2 1.5s-.6 4.9 1.5 6.2l16.9 10.2c-.8.9-1.6 1.7-2.6 2.4-4.1 3.1-7.3 3.8-12.4 2.6-2.9-.7-10.8-1-12.1-4.1-2.1-5-8.3-8.1-15-4.6-.3.1-.5.3-.8.6-6.9 7.2-2.6 16.7 5.1 17.9 3.1.4 6.1-.6 8.2-2.5.7-.6 1.6-.9 2.5-.7 4.6 1 9.3.9 13.8 2 6.4 1.7 7.5 4.6 8.3 10.8.3 2.2.5 4.4.8 6.5l-19.4 4.7c-2.4.6-3.9 3-3.3 5.4.5 2.1 2.3 3.4 4.4 3.4.4 0 .7 0 1.1-.1l19.4-4.7c1.6 4.5 3.9 8.9 6.8 12.7l70.4-70.4 9.3-15.3c1.3-2.1.6-4.9-1.5-6.2s-4.9-.6-6.2 1.5l-9.7 15.8c-4.8-2.1-10.1-3.2-14.2-6.5-1-.8-1.9-1.7-2.5-2.9-1.9-3.9-.6-10.8-.6-15 0-1 .5-1.8 1.3-2.4 3.9-2.7 5.8-8.1 2.8-14-.1-.3-.3-.5-.6-.8-7.2-6.6-16.7-2.2-17.8 5.5zm-23.8 77.4c-3 0-5.5-2.5-5.5-5.5s2.5-5.5 5.5-5.5 5.5 2.5 5.5 5.5-2.5 5.5-5.5 5.5zm37.2-14.6c-2.4 3.7-7.4 4.7-11.1 2.3s-4.7-7.4-2.3-11.1 7.4-4.7 11.1-2.3c3.7 2.5 4.7 7.4 2.3 11.1z"/></svg>