<svg enable-background="new 0 0 288 288" viewBox="0 0 288 288" xmlns="http://www.w3.org/2000/svg"><path d="m259.8 106h-13.1c-.9 0-1.6-.7-1.6-1.5v-19c0-6.5-5.2-11.7-11.7-11.7h-205.5c-6.5 0-11.7 5.2-11.7 11.7v117.3c0 6.5 5.2 11.7 11.7 11.7h205.5c6.5 0 11.7-5.2 11.7-11.7v-19c0-.9.7-1.5 1.6-1.5h13.1c6.5 0 11.7-5.2 11.7-11.7v-52.8c0-6.6-5.2-11.8-11.7-11.8zm-23.6 98.5c0 .9-.7 1.5-1.5 1.5h-66.1-9-58.7-9-66.2c-.9 0-1.5-.7-1.5-1.5v-120.2c0-.9.7-1.5 1.5-1.5h66.1 9 58.7 9 66.1c.9 0 1.5.7 1.5 1.5v120.2zm26.3-34c0 1.5-1.2 2.7-2.7 2.7h-11.5c-1.5 0-2.7-1.2-2.7-2.7v-52.8c0-1.5 1.2-2.7 2.7-2.7h11.5c1.5 0 2.7 1.2 2.7 2.7z"/><path d="m102.4 197h55.6c.9 0 1.5-.7 1.5-1.5v-102.2c0-.9-.7-1.5-1.5-1.5h-55.6c-.9 0-1.5.7-1.5 1.5v102.1c-.1.9.6 1.6 1.5 1.6z"/><path d="m34.7 197h55.6c.9 0 1.5-.7 1.5-1.5v-102.2c0-.9-.7-1.5-1.5-1.5h-55.6c-.9 0-1.5.7-1.5 1.5v102.1c0 .9.7 1.6 1.5 1.6z"/><path d="m170.1 197h55.6c.9 0 1.5-.7 1.5-1.5v-102.2c0-.9-.7-1.5-1.5-1.5h-55.6c-.9 0-1.5.7-1.5 1.5v102.1c-.1.9.6 1.6 1.5 1.6z"/></svg>