<?xml version="1.0" encoding="utf-8"?>
<!-- Generator: Adobe Illustrator 22.0.1, SVG Export Plug-In . SVG Version: 6.00 Build 0)  -->
<svg version="1.1" id="Layer_1" xmlns="http://www.w3.org/2000/svg" xmlns:xlink="http://www.w3.org/1999/xlink" x="0px" y="0px"
	 viewBox="0 0 2202.4 1522.1" style="enable-background:new 0 0 2202.4 1522.1;" xml:space="preserve">
<style type="text/css">
	.st0{fill:none;}
	.st1{fill:#FFFFFF;}
	.st2{fill:#4267B2;}
	.st3{fill:url(#SVGID_1_);}
	.st4{fill:url(#SVGID_2_);}
	.st5{fill:none;stroke:#000000;stroke-width:9;stroke-miterlimit:10;}
</style>
<g>
	<path class="st0" d="M-89.9,1231.6h-227.7c-7.8,0-14.1,6.3-14.1,14.1v227.7c0,7.8,6.3,14.1,14.1,14.1c0,0,0,0,0,0H-195v-99h-33.2
		v-38.8h33.2v-28.5c0-33.1,20.2-51.1,49.7-51.1c14.1,0,26.3,1.1,29.8,1.5v34.6h-20.3c-16.1,0-19.2,7.6-19.2,18.8v24.7h38.4l-5,38.8
		H-155v99h65.1c7.8,0,14.1-6.3,14.1-14.1c0,0,0,0,0,0v-227.7C-75.8,1238-82.1,1231.6-89.9,1231.6
		C-89.9,1231.6-89.9,1231.6-89.9,1231.6z"/>
	<path id="f_2_" class="st1" d="M-155,1487.6v-99h33.4l5-38.8H-155v-24.7c0-11.2,3.1-18.8,19.2-18.8h20.3v-34.6
		c-3.5-0.5-15.7-1.5-29.8-1.5c-29.5,0-49.7,18-49.7,51.1v28.5h-33.2v38.7h33.2v99H-155z"/>
</g>
<g>
	<path class="st2" d="M571.9,1231.6H344.1c-7.8,0-14.1,6.3-14.1,14.1v227.7c0,7.8,6.3,14.1,14.1,14.1c0,0,0,0,0,0h122.6v-99h-33.2
		v-38.8h33.2v-28.5c0-33.1,20.2-51.1,49.7-51.1c14.1,0,26.3,1.1,29.8,1.5v34.6h-20.3c-16,0-19.2,7.6-19.2,18.8v24.7h38.4l-5,38.8
		h-33.4v99h65.1c7.8,0,14.1-6.3,14.1-14.1c0,0,0,0,0,0v-227.7C586,1238,579.7,1231.6,571.9,1231.6
		C571.9,1231.6,571.9,1231.6,571.9,1231.6z"/>
	<path id="f" class="st1" d="M506.7,1487.6v-99h33.4l5-38.8h-38.4v-24.7c0-11.2,3.1-18.8,19.2-18.8h20.3v-34.6
		c-3.5-0.5-15.7-1.5-29.8-1.5c-29.5,0-49.7,18-49.7,51.1v28.5h-33.2v38.7h33.2v99H506.7z"/>
</g>
<path class="st1" d="M-94.3,597.9H-322c-7.8,0-14.1,6.3-14.1,14.1v227.7c0,7.8,6.3,14.1,14.1,14.1c0,0,0,0,0,0h122.6v-99h-33.2
	v-38.8h33.2v-28.5c0-33.1,20.2-51.1,49.7-51.1c14.1,0,26.3,1.1,29.8,1.5v34.6h-20.4c-16,0-19.1,7.6-19.1,18.8v24.7h38.4l-5,38.8
	h-33.4v99h65.1c7.8,0,14.1-6.3,14.1-14.1c0,0,0,0,0,0V612.1C-80.2,604.3-86.5,597.9-94.3,597.9C-94.3,597.9-94.3,597.9-94.3,597.9z"
	/>
<g>
	
		<radialGradient id="SVGID_1_" cx="43.5767" cy="40.6373" r="324.996" gradientTransform="matrix(1.0001 0 0 -1.0001 -1.257277e-02 1522.116)" gradientUnits="userSpaceOnUse">
		<stop  offset="9.000000e-02" style="stop-color:#FA8F21"/>
		<stop  offset="0.78" style="stop-color:#D82D7E"/>
	</radialGradient>
	<path class="st3" d="M91.9,1486.2c-15.2-0.7-23.5-3.2-29-5.4c-7.3-2.8-12.5-6.2-18-11.7c-5.5-5.5-8.9-10.7-11.7-17.9
		c-2.1-5.5-4.7-13.8-5.4-29c-0.8-16.5-0.9-21.4-0.9-63.1c0-41.7,0.2-46.6,0.9-63.1c0.7-15.2,3.2-23.5,5.4-29
		c2.8-7.3,6.2-12.5,11.7-18c5.5-5.5,10.7-8.9,18-11.7c5.5-2.1,13.8-4.7,29-5.4c16.5-0.8,21.4-0.9,63.1-0.9c41.7,0,46.6,0.2,63.1,0.9
		c15.2,0.7,23.5,3.2,29,5.4c7.3,2.8,12.5,6.2,18,11.7s8.8,10.7,11.7,18c2.1,5.5,4.7,13.8,5.4,29c0.8,16.5,0.9,21.4,0.9,63.1
		c0,41.7-0.2,46.6-0.9,63.1c-0.7,15.2-3.2,23.5-5.4,29c-2.8,7.3-6.2,12.5-11.7,17.9c-5.5,5.5-10.7,8.8-18,11.7
		c-5.5,2.1-13.8,4.7-29,5.4c-16.5,0.8-21.4,0.9-63.1,0.9C113.3,1487.1,108.4,1486.9,91.9,1486.2"/>
	
		<radialGradient id="SVGID_2_" cx="204.3166" cy="48.8567" r="285.9995" gradientTransform="matrix(1.0001 0 0 -1.0001 -1.257277e-02 1522.116)" gradientUnits="userSpaceOnUse">
		<stop  offset="0.64" style="stop-color:#8C3AAA;stop-opacity:0"/>
		<stop  offset="1" style="stop-color:#8C3AAA"/>
	</radialGradient>
	<path class="st4" d="M91.9,1486.2c-15.2-0.7-23.5-3.2-29-5.4c-7.3-2.8-12.5-6.2-18-11.7c-5.5-5.5-8.9-10.7-11.7-17.9
		c-2.1-5.5-4.7-13.8-5.4-29c-0.8-16.5-0.9-21.4-0.9-63.1c0-41.7,0.2-46.6,0.9-63.1c0.7-15.2,3.2-23.5,5.4-29
		c2.8-7.3,6.2-12.5,11.7-18c5.5-5.5,10.7-8.9,18-11.7c5.5-2.1,13.8-4.7,29-5.4c16.5-0.8,21.4-0.9,63.1-0.9c41.7,0,46.6,0.2,63.1,0.9
		c15.2,0.7,23.5,3.2,29,5.4c7.3,2.8,12.5,6.2,18,11.7s8.8,10.7,11.7,18c2.1,5.5,4.7,13.8,5.4,29c0.8,16.5,0.9,21.4,0.9,63.1
		c0,41.7-0.2,46.6-0.9,63.1c-0.7,15.2-3.2,23.5-5.4,29c-2.8,7.3-6.2,12.5-11.7,17.9c-5.5,5.5-10.7,8.8-18,11.7
		c-5.5,2.1-13.8,4.7-29,5.4c-16.5,0.8-21.4,0.9-63.1,0.9C113.3,1487.1,108.4,1486.9,91.9,1486.2"/>
	<path class="st1" d="M123.6,1359.6c0-17.5,14.2-31.7,31.7-31.7s31.7,14.2,31.7,31.7s-14.2,31.7-31.7,31.7
		S123.6,1377.1,123.6,1359.6 M106.4,1359.6c0,27,21.9,48.8,48.8,48.8s48.8-21.9,48.8-48.8s-21.9-48.8-48.8-48.8
		S106.4,1332.7,106.4,1359.6 M194.6,1308.9c0,6.3,5.1,11.4,11.4,11.4c6.3,0,11.4-5.1,11.4-11.4c0-6.3-5.1-11.4-11.4-11.4h0
		C199.7,1297.5,194.6,1302.6,194.6,1308.9 M116.8,1437c-9.3-0.4-14.3-2-17.7-3.3c-4.4-1.7-7.6-3.8-10.9-7.1s-5.4-6.5-7.1-10.9
		c-1.3-3.3-2.9-8.4-3.3-17.7c-0.5-10-0.6-13-0.6-38.4s0.1-28.4,0.6-38.4c0.4-9.3,2-14.3,3.3-17.7c1.7-4.4,3.8-7.6,7.1-10.9
		c3.3-3.3,6.5-5.4,10.9-7.1c3.3-1.3,8.4-2.9,17.7-3.3c10-0.5,13-0.6,38.4-0.6s28.4,0.1,38.4,0.6c9.3,0.4,14.3,2,17.7,3.3
		c4.4,1.7,7.6,3.8,10.9,7.1c3.3,3.3,5.4,6.5,7.1,10.9c1.3,3.3,2.9,8.4,3.3,17.7c0.5,10,0.6,13,0.6,38.4c0,25.4-0.1,28.4-0.6,38.4
		c-0.4,9.3-2,14.3-3.3,17.7c-1.7,4.4-3.8,7.6-7.1,10.9c-3.3,3.3-6.5,5.4-10.9,7.1c-3.3,1.3-8.4,2.9-17.7,3.3
		c-10,0.5-13,0.6-38.4,0.6S126.9,1437.5,116.8,1437 M116.1,1265.1c-10.1,0.5-17,2.1-23.1,4.4c-6.3,2.4-11.6,5.7-16.8,11
		c-5.3,5.3-8.5,10.6-11,16.8c-2.4,6-4,13-4.4,23.1c-0.5,10.1-0.6,13.4-0.6,39.2c0,25.8,0.1,29.1,0.6,39.2c0.5,10.1,2.1,17,4.4,23.1
		c2.4,6.3,5.7,11.6,11,16.8c5.3,5.3,10.6,8.5,16.8,11c6.1,2.4,13,4,23.1,4.4c10.1,0.5,13.4,0.6,39.2,0.6s29.1-0.1,39.2-0.6
		c10.1-0.5,17-2.1,23.1-4.4c6.3-2.4,11.6-5.7,16.8-11s8.5-10.6,11-16.8c2.4-6,4-13,4.4-23.1c0.5-10.1,0.6-13.4,0.6-39.2
		s-0.1-29.1-0.6-39.2c-0.5-10.1-2.1-17-4.4-23.1c-2.4-6.3-5.7-11.6-11-16.8c-5.3-5.3-10.6-8.5-16.8-11c-6.1-2.4-13-4-23.1-4.4
		c-10.1-0.5-13.4-0.6-39.2-0.6S126.2,1264.6,116.1,1265.1"/>
</g>
<circle class="st1" cx="-208.2" cy="423.7" r="128"/>
<path id="f_1_" d="M-194.9,509.2v-78h26.2l3.9-30.4h-30.1v-19.4c0-8.8,2.4-14.8,15.1-14.8l16.1,0v-27.2c-2.8-0.4-12.3-1.2-23.5-1.2
	c-23.2,0-39.1,14.2-39.1,40.2v22.4h-26.3v30.4h26.3v78H-194.9z"/>
<g>
	<path d="M1175.5,994.2c-0.7-0.2-1.3-0.4-2.1-0.6c0.7,1.1,1,2.3,1,3.6c0,1.6-0.7,3.4-2.1,4.9c0.4,0.4,0.8,0.8,1.2,1.2
		c6.2,2.2,9.4,4.7,9.4,6.2c0,3.3-14.3,10.9-42,10.9s-42-7.6-42-10.9c0-3.2,13.4-10.4,39.2-10.9c-0.1-0.5-0.2-1-0.2-1.4
		c0-1.9,0.9-3.9,2.7-5.5c-0.6-0.7-1.1-1.4-1.4-2.2c-12.4,0.1-23.9,1.8-32.8,4.8c-13.9,4.6-16.8,10.9-16.8,15.3v51.6v125h9.3v-112.9
		c2.1,1.1,4.5,2.1,7.5,3.2c9.3,3.1,21.5,4.8,34.4,4.8s25.1-1.7,34.4-4.8c3-1,5.5-2,7.5-3.2v112.9h9.3v-125v-51.6
		C1192.3,1005.1,1189.4,998.8,1175.5,994.2z M1141,1072c-27.7,0-42-7.6-42-10.9v-39.5c2.1,1.1,4.5,2.1,7.5,3.2
		c9.3,3.1,21.5,4.8,34.4,4.8s25.1-1.7,34.4-4.8c3-1,5.5-2,7.5-3.2v39.5C1183,1064.3,1168.7,1072,1141,1072z"/>
	<path d="M1063.8,1043.5c-9.3-3.1-21.5-4.8-34.4-4.8c-12.9,0-25.1,1.7-34.4,4.8c-13.9,4.6-16.8,10.9-16.8,15.3v18.6
		c0.2,0.2,0.5,0.3,0.7,0.5c1.6-1.5,3.5-2.4,5.8-2.4c1,0,2,0.2,2.8,0.5v-15.5l41,16.8v37l-9.9-4.9c-0.5,0.1-1,0.2-1.5,0.2
		c-2.4,0-4.2-1-5.8-2.6c-1.5,1.3-3.3,1.9-5,1.9c-2,0-4-0.8-5.7-2.5c-1.4,1.2-3.1,1.8-4.9,1.9l25.9,12.8c-22.5-1.3-34-7.7-34-10.7
		v-3.3c-0.9,0.3-1.9,0.5-2.8,0.5c-2.2,0-4.1-0.9-5.8-2.4c-0.2,0.2-0.5,0.3-0.7,0.5v4.7v75.7h9.3v-63.6c2.1,1.1,4.5,2.1,7.5,3.2
		c9.3,3.1,21.5,4.8,34.4,4.8c12.9,0,25.1-1.7,34.4-4.8c3-1,5.5-2,7.5-3.2v63.6h9.3v-75.8v-51.5
		C1080.6,1054.3,1077.7,1048.1,1063.8,1043.5z M1033,1074.3L1033,1074.3L1033,1074.3L1033,1074.3z M1037.7,1121v-42.5
		c10.4-0.6,20.1-2.3,27.4-5c2.5-0.9,4.5-1.8,6.3-2.7v39.5C1071.4,1113.3,1059.9,1119.7,1037.7,1121z M1033.8,1069.6l-39.4-16.2
		c6.8-2.9,18.5-5.6,34.9-5.6c27.7,0,42,7.6,42,10.9C1071.4,1061.5,1059.8,1068.8,1033.8,1069.6z"/>
	<path d="M943.7,1083.5c-0.7-0.5-1.4-0.8-2.3-0.8c-3,0-5.4,4-5.4,9s2.4,9,5.4,9c0.8,0,1.5-0.3,2.3-0.8c1.9-1.4,3.1-4.5,3.1-8
		C946.8,1088.1,945.5,1084.9,943.7,1083.5z"/>
	<path d="M952.2,1082c-0.9,0-1.9,0.4-2.6,1.2c-1.6,1.6-2.8,4.8-2.8,8.4s1.1,6.7,2.8,8.3c0.8,0.7,1.6,1.2,2.6,1.2
		c0.8,0,1.6-0.3,2.3-0.9c1.9-1.5,3.1-4.8,3.1-8.7c0-3.8-1.2-7.1-3.1-8.7C953.8,1082.3,953,1082,952.2,1082z"/>
	<path d="M963,1081.3c-0.9,0-1.9,0.5-2.7,1.3c-1.6,1.7-2.7,5.1-2.7,8.9s1.1,7.1,2.7,8.9c0.8,0.8,1.6,1.3,2.7,1.3
		c0.8,0,1.6-0.4,2.4-1c1.8-1.6,3-5.1,3-9.2c0-4-1.2-7.5-3-9.2C964.6,1081.7,963.8,1081.3,963,1081.3z"/>
	<path d="M979.2,1091.5c0-2.4-0.4-4.7-1-6.4c-0.5-1.3-1.1-2.4-2-3.3c-0.7-0.7-1.5-1.1-2.4-1.1s-1.9,0.5-2.7,1.4
		c-1.6,1.8-2.7,5.4-2.7,9.4s1.1,7.5,2.7,9.4c0.8,0.9,1.8,1.4,2.7,1.4c0.8,0,1.6-0.4,2.4-1.1c0.7-0.7,1.4-1.8,2-3.3
		C978.7,1096.2,979.2,1093.9,979.2,1091.5z"/>
	<path d="M981.8,1101.4C981.8,1101.5,981.9,1101.5,981.8,1101.4c0.8,1,1.8,1.6,2.7,1.6c0.1,0,0.2,0,0.3,0c0.8-0.1,1.5-0.5,2.2-1.2
		c0.1-0.1,0.2-0.3,0.3-0.4c1.1-1.4,2-3.6,2.4-6.2c0.2-1.1,0.3-2.3,0.3-3.6c0-4.2-1-7.7-2.6-9.8c-0.1-0.1-0.2-0.3-0.3-0.4
		c-0.7-0.8-1.5-1.2-2.5-1.2s-2,0.6-2.7,1.6c-1.5,2-2.7,5.7-2.7,9.9c0,3.3,0.6,6.2,1.6,8.3C981.2,1100.5,981.5,1101,981.8,1101.4z"/>
	<path d="M992.7,1102c0.8,1,1.8,1.6,2.8,1.6c0.9,0,1.8-0.5,2.5-1.3c0.5-0.6,1-1.4,1.4-2.4c0.9-2.1,1.4-5.1,1.4-8.4
		c0-4.7-1.2-8.8-3-10.8c-0.7-0.8-1.5-1.3-2.5-1.3s-2,0.6-2.8,1.6c-1.5,2.1-2.7,6-2.7,10.4c0,1.3,0.1,2.6,0.3,3.9
		C990.7,1098.2,991.5,1100.5,992.7,1102z"/>
	<path d="M1003.4,1102.5c0.8,1.1,1.8,1.8,2.8,1.8c0.4,0,0.8-0.1,1.2-0.4c0.4-0.2,0.8-0.6,1.2-1.1c1.8-2.1,2.9-6.4,2.9-11.3
		s-1.1-9.2-2.9-11.3c-0.7-0.9-1.6-1.4-2.5-1.4c-1,0-2,0.7-2.8,1.8c-1.5,2.2-2.7,6.3-2.7,10.9c0,4.1,0.8,7.7,2.2,10.1
		C1003.1,1101.9,1003.3,1102.2,1003.4,1102.5z"/>
	<path d="M1017,1104.9c3,0,5.4-6,5.4-13.3s-2.4-13.3-5.4-13.3c-1,0-2,0.7-2.8,1.9c-1.5,2.3-2.6,6.6-2.6,11.5s1,9.2,2.6,11.5
		C1015,1104.2,1015.9,1104.9,1017,1104.9z"/>
	<path d="M1164.8,937.4c0.5-0.6,0.8-1.4,0.8-2.1c0-2.9-4.2-5.2-9.4-5.2c-5.2,0-9.4,2.3-9.4,5.2c0,0.8,0.3,1.5,0.8,2.1
		c1.4,1.7,4.7,3,8.4,3C1160.1,940.4,1163.2,939.2,1164.8,937.4z"/>
	<path d="M1166.3,945.6c0-0.9-0.4-1.7-1.2-2.5c-1.8-1.6-4.9-2.6-8.8-2.6c-3.8,0-7,1.1-8.8,2.6c-0.8,0.7-1.2,1.6-1.2,2.5
		c0,0.8,0.3,1.5,0.9,2.2c1.6,1.7,5,3,9.1,3c4,0,7.4-1.2,9.1-3C1165.9,947.1,1166.3,946.3,1166.3,945.6z"/>
	<path d="M1167,955.9c0-0.9-0.5-1.8-1.4-2.5c-1.9-1.5-5.3-2.6-9.3-2.6s-7.4,1-9.3,2.6c-0.9,0.7-1.4,1.6-1.4,2.5
		c0,0.8,0.4,1.6,1.1,2.2c1.8,1.7,5.4,2.9,9.6,2.9s7.8-1.2,9.6-2.9C1166.5,957.4,1167,956.7,1167,955.9z"/>
	<path d="M1167.7,966.2c0-0.9-0.5-1.8-1.5-2.5c-2-1.5-5.6-2.5-9.8-2.5c-4.2,0-7.8,1-9.8,2.5c-0.9,0.7-1.5,1.6-1.5,2.5
		c0,0.8,0.4,1.6,1.1,2.2c1.9,1.7,5.7,2.9,10.1,2.9s8.2-1.2,10.1-2.9C1167.2,967.8,1167.7,967,1167.7,966.2z"/>
	<path d="M1168.3,976.5c0-0.9-0.6-1.8-1.6-2.6c-2.1-1.5-6-2.5-10.3-2.5s-8.2,1-10.3,2.5c-1,0.8-1.6,1.6-1.6,2.6
		c0,0.8,0.5,1.6,1.3,2.3c2,1.6,6,2.9,10.7,2.9c4.6,0,8.7-1.1,10.7-2.9C1167.8,978.2,1168.3,977.4,1168.3,976.5z"/>
	<path d="M1167.6,989.2c0.8-0.7,1.3-1.5,1.3-2.3c0-0.9-0.6-1.8-1.8-2.6c-2.2-1.5-6.3-2.5-10.9-2.5s-8.7,1-10.9,2.5
		c-1.1,0.8-1.8,1.6-1.8,2.6c0,0.8,0.5,1.6,1.3,2.3c0.1,0.1,0.3,0.2,0.4,0.3c2.3,1.5,6.2,2.4,10.8,2.4c2.5,0,4.7-0.3,6.7-0.8
		C1165,990.7,1166.5,990,1167.6,989.2z"/>
	<path d="M1168.1,999.6c1-0.7,1.5-1.5,1.5-2.4c0-1-0.7-1.8-1.9-2.6c-2.4-1.5-6.6-2.5-11.4-2.5s-9.1,1-11.4,2.5
		c-1.2,0.8-1.9,1.6-1.9,2.6c0,0.5,0.2,1,0.5,1.4c0.2,0.3,0.6,0.6,1,0.9c2.3,1.6,6.7,2.7,11.7,2.7c3.5,0,6.7-0.5,9.1-1.4
		C1166.4,1000.5,1167.4,1000.1,1168.1,999.6z"/>
	<path d="M1142.3,1007.5c0,2.9,6.3,5.2,14,5.2s14-2.3,14-5.2c0-1-0.7-1.8-2-2.6c-2.5-1.5-6.9-2.5-11.9-2.5s-9.6,1-11.9,2.5
		C1143.1,1005.6,1142.3,1006.5,1142.3,1007.5z"/>
</g>
<g>
	<path d="M894,454.9L894,454.9c-0.1-2.7-0.2-5.4-0.5-8l0,0c0-0.2,0-0.3,0-0.5c-0.1-0.9-0.2-1.8-0.3-2.7l0,0c0-0.3-0.1-0.7-0.1-1l0,0
		c-0.1-0.7-0.2-1.4-0.3-2.2l0,0c0-0.3-0.1-0.5-0.1-0.8l0,0c-0.6-4.1-1.4-8.2-2.4-12.2v-0.1c-1.5-6-3.4-11.8-5.6-17.4
		c0-0.1-0.1-0.2-0.1-0.3c-0.4-1-0.8-2-1.3-3.1c0-0.1-0.1-0.2-0.1-0.3c-0.8-1.9-1.7-3.8-2.7-5.7l0,0c-0.1-0.1-0.1-0.3-0.2-0.4l0,0
		c-0.4-0.8-0.8-1.6-1.2-2.3c-0.1-0.1-0.1-0.2-0.2-0.4l0,0c-0.8-1.5-1.7-3.1-2.6-4.6c-0.1-0.2-0.3-0.5-0.4-0.7l0,0
		c-0.9-1.5-1.8-3-2.8-4.4l0,0c-0.1-0.2-0.3-0.4-0.4-0.6c-0.4-0.7-0.9-1.3-1.3-1.9l0,0c-0.1-0.2-0.2-0.4-0.4-0.5
		c-1-1.5-2.1-3-3.2-4.4l0,0l0,0c-0.6-0.8-1.2-1.6-1.9-2.4l0,0c-0.1-0.1-0.1-0.2-0.2-0.2c-0.6-0.8-1.3-1.5-1.9-2.3l0,0l0,0
		c-1.3-1.5-2.6-3-3.9-4.4l0,0l-0.2-0.2l0.2-0.2l-3.3-3.1l-3.1-3.3l-0.2,0.2l-0.2-0.2l0,0c-1.4-1.3-2.9-2.6-4.4-3.9l0,0l0,0
		c-0.8-0.6-1.5-1.3-2.3-1.9c-0.1-0.1-0.2-0.1-0.2-0.2l0,0c-0.8-0.6-1.6-1.3-2.4-1.9l0,0l0,0c-1.5-1.1-2.9-2.2-4.4-3.2
		c-0.2-0.1-0.4-0.3-0.5-0.4l0,0c-0.6-0.4-1.3-0.9-1.9-1.3c-0.2-0.1-0.4-0.3-0.6-0.4l0,0c-1.5-1-2.9-1.9-4.4-2.8l0,0
		c-0.2-0.1-0.5-0.3-0.7-0.4c-1.5-0.9-3-1.8-4.6-2.6l0,0c-0.1-0.1-0.2-0.1-0.4-0.2c-0.8-0.4-1.6-0.8-2.3-1.2l0,0
		c-0.1-0.1-0.3-0.1-0.4-0.2l0,0c-1.9-0.9-3.8-1.8-5.7-2.7c-0.1,0-0.2-0.1-0.3-0.1c-1-0.4-2-0.9-3.1-1.3c-0.1,0-0.2-0.1-0.3-0.1
		c-5.6-2.3-11.4-4.2-17.4-5.6h-0.1c-4-1-8-1.8-12.2-2.4l0,0c-0.3,0-0.5-0.1-0.8-0.1l0,0c-0.7-0.1-1.4-0.2-2.2-0.3l0,0
		c-0.3,0-0.7-0.1-1-0.1l0,0c-0.9-0.1-1.8-0.2-2.7-0.3c-0.2,0-0.3,0-0.5,0l0,0c-2.7-0.2-5.3-0.4-8-0.5l0,0c-1.1,0-2.1,0-3.2,0
		c-70.7,0-128,57.3-128,128c0,1.1,0,2.1,0,3.2l0,0c0.1,2.7,0.2,5.4,0.5,8l0,0c0,0.2,0,0.3,0,0.5c0.1,0.9,0.2,1.8,0.3,2.7l0,0
		c0,0.3,0.1,0.7,0.1,1l0,0c0.1,0.7,0.2,1.4,0.3,2.2l0,0c0,0.3,0.1,0.5,0.1,0.8l0,0c0.3,1.9,0.6,3.7,0.9,5.5c0,0.1,0,0.2,0,0.2l0,0
		c0.4,2.1,0.9,4.3,1.4,6.4v0.1c1.5,6,3.4,11.8,5.6,17.4c0,0.1,0.1,0.2,0.1,0.3c0.4,1,0.8,2,1.3,3.1c0,0.1,0.1,0.2,0.1,0.3
		c0.8,1.9,1.7,3.8,2.7,5.7l0,0c0.1,0.1,0.1,0.3,0.2,0.4l0,0c0.4,0.8,0.8,1.6,1.2,2.3c0.1,0.1,0.1,0.2,0.2,0.4l0,0
		c0.8,1.5,1.7,3.1,2.6,4.6c0.1,0.2,0.3,0.5,0.4,0.7l0,0c0.4,0.6,0.8,1.3,1.1,1.9l0,0c0,0.1,0.1,0.1,0.1,0.2c1,1.7,2.1,3.3,3.2,4.9
		l0,0c0.1,0.2,0.2,0.4,0.4,0.5c1,1.5,2.1,3,3.2,4.4l0,0l0,0c0.6,0.8,1.2,1.6,1.9,2.4l0,0c0.1,0.1,0.1,0.2,0.2,0.2
		c0.6,0.8,1.3,1.5,1.9,2.3l0,0l0,0c1.3,1.5,2.6,3,3.9,4.4l0,0l0.2,0.2l-0.2,0.2l3.3,3.1l3.1,3.3l0.2-0.2l0.2,0.2l0,0
		c1.4,1.3,2.9,2.6,4.4,3.9l0,0l0,0c0.8,0.6,1.5,1.3,2.3,1.9c0.1,0.1,0.2,0.1,0.2,0.2l0,0c0.8,0.6,1.6,1.3,2.4,1.9l0,0l0,0
		c1.5,1.1,2.9,2.2,4.4,3.2c0.2,0.1,0.4,0.3,0.5,0.4l0,0c1.6,1.1,3.3,2.2,4.9,3.2c0.1,0,0.1,0.1,0.2,0.1l0,0c0.6,0.4,1.2,0.8,1.9,1.1
		l0,0c0.2,0.1,0.5,0.3,0.7,0.4c1.5,0.9,3,1.7,4.6,2.6l0,0c0.1,0.1,0.2,0.1,0.4,0.2c0.8,0.4,1.6,0.8,2.3,1.2l0,0
		c0.1,0.1,0.3,0.1,0.4,0.2l0,0c1.9,0.9,3.8,1.8,5.7,2.7c0.1,0,0.2,0.1,0.3,0.1c1,0.4,2,0.9,3.1,1.3c0.1,0,0.2,0.1,0.3,0.1
		c5.6,2.3,11.4,4.2,17.4,5.6h0.1c2.1,0.5,4.2,1,6.4,1.4l0,0c0.1,0,0.2,0,0.2,0c1.8,0.3,3.7,0.7,5.5,0.9l0,0c0.3,0,0.5,0.1,0.8,0.1
		l0,0c0.7,0.1,1.4,0.2,2.2,0.3l0,0c0.3,0,0.7,0.1,1,0.1l0,0c0.9,0.1,1.8,0.2,2.7,0.3c0.2,0,0.3,0,0.5,0l0,0c2.7,0.2,5.3,0.4,8,0.5
		l0,0c1.1,0,2.1,0,3.2,0c70.7,0,128-57.3,128-128C894,457,894,456,894,454.9z M796,449.5c2.5,1.7,3.2,5.1,1.6,7.6
		c-1.7,2.5-5.1,3.2-7.6,1.6c-1.2-0.8-1.9-1.9-2.3-3.2l6.7-6.7C795,449,795.5,449.2,796,449.5z M772.9,491.2c-2,3-6,3.8-9,1.8
		s-3.8-6-1.8-9s6-3.8,9-1.8S774.9,488.2,772.9,491.2z M846.9,370.8l-48.8,48.8l-70.6,70.6L678.7,539C659,517.8,647,489.3,647,458.1
		c0-65.7,53.3-119,119-119C797.2,339.1,825.7,351.1,846.9,370.8z M685.1,545.4l39.8-39.8l-2.6,4.2c-1.3,2.1-0.6,4.9,1.5,6.2
		c0.7,0.4,1.5,0.7,2.3,0.7c0.1,0,0.3,0,0.4,0c1.4-0.1,2.6-0.9,3.4-2.1l2-3.3l7.8-12.7c1.1,0.6,2.2,1.1,3.4,1.6
		c0.3,0.1,0.5,0.2,0.8,0.3c3,1.2,6.4,1.7,9,3.8c1.8,1.4,3,3.6,3.6,5.8c1.1,4.3,0.2,8.8,0.1,13.2c0,1-0.5,1.8-1.3,2.4
		c-3.8,2.7-5.7,8.1-2.7,13.9c0.1,0.3,0.3,0.5,0.6,0.8c7.2,6.9,16.7,2.6,17.9-5.1c0.6-3.9-1.2-7.5-4.1-9.6c-0.8-0.6-1.3-1.5-1.3-2.4
		c0-4.2-1.2-11,0.6-14.8c0.5-1,1.3-1.8,2.1-2.5c3.6-2.9,8.1-4.5,12.6-6.2l8.9,16.7c0.8,1.5,2.4,2.4,4,2.4c0.7,0,1.4-0.2,2.1-0.5
		c2.2-1.2,3-3.9,1.9-6.1l-8.7-16.3c0.1-0.1,0.2-0.1,0.3-0.2c4.9-3.3,9.2-7.4,12.7-12.2l14.5,8.9c0.7,0.4,1.5,0.7,2.3,0.7
		c1.5,0,3-0.8,3.8-2.2c1.3-2.1,0.6-4.9-1.5-6.2l-14.1-8.6c2.4-2.4,5.7-3.8,9.1-4.1c5.2-0.5,10.4,1.1,15.4,2.2c0.9,0.2,1.6,0.9,2,1.7
		c1.3,3.1,4.2,5.5,7.8,6c7.7,1.1,14.6-6.8,10-15.7c-0.1-0.3-0.3-0.6-0.6-0.8c-5-4.8-11-4.2-14.7-0.9c-0.7,0.6-1.7,0.9-2.6,0.7
		c-4.5-1-11.6-1.2-15.5-3.7c-1.2-0.8-2.1-1.9-2.8-3.1c-2.1-3.4-3.1-7.1-3.9-10.9l16.6-4c2.4-0.6,3.9-3,3.3-5.4
		c-0.6-2.4-3-3.9-5.4-3.3l-16.6,4c-0.4-1.2-0.8-2.3-1.3-3.5c-1.2-2.9-2.6-5.7-4.3-8.4l49.5-49.5c19.8,20.9,31.8,49.4,31.8,80.6
		c0,65.7-53.3,119-119,119C734.8,577.1,706.3,565.1,685.1,545.4z"/>
	<path d="M752.3,372.7c-0.6,3.8,1.1,7.4,4,9.5c0.8,0.6,1.3,1.4,1.3,2.4c0,3.5,1.2,10.1-0.3,13.2c-0.3,0.6-0.8,1.1-1.3,1.5
		c-3.8,3.3-8.3,5.6-12.7,8c-0.1,0-0.2,0.1-0.3,0.1c-0.3,0.1-0.6,0.2-0.8,0.4l-8.7-16.3c-1.2-2.2-3.9-3-6.1-1.9
		c-2.2,1.2-3,3.9-1.9,6.1l8.7,16.3c-2.7,1.8-5.3,3.9-7.7,6.2c-1.7,1.7-3.1,3.6-4.5,5.6l-17.4-10.6c-2.1-1.3-4.9-0.6-6.2,1.5
		s-0.6,4.9,1.5,6.2l16.9,10.2c-0.8,0.9-1.6,1.7-2.6,2.4c-4.1,3.1-7.3,3.8-12.4,2.6c-2.9-0.7-10.8-1-12.1-4.1c-2.1-5-8.3-8.1-15-4.6
		c-0.3,0.1-0.5,0.3-0.8,0.6c-6.9,7.2-2.6,16.7,5.1,17.9c3.1,0.4,6.1-0.6,8.2-2.5c0.7-0.6,1.6-0.9,2.5-0.7c4.6,1,9.3,0.9,13.8,2
		c6.4,1.7,7.5,4.6,8.3,10.8c0.3,2.2,0.5,4.4,0.8,6.5l-19.4,4.7c-2.4,0.6-3.9,3-3.3,5.4c0.5,2.1,2.3,3.4,4.4,3.4c0.4,0,0.7,0,1.1-0.1
		l19.4-4.7c1.6,4.5,3.9,8.9,6.8,12.7L792,413l9.3-15.3c1.3-2.1,0.6-4.9-1.5-6.2s-4.9-0.6-6.2,1.5l-9.7,15.8
		c-4.8-2.1-10.1-3.2-14.2-6.5c-1-0.8-1.9-1.7-2.5-2.9c-1.9-3.9-0.6-10.8-0.6-15c0-1,0.5-1.8,1.3-2.4c3.9-2.7,5.8-8.1,2.8-14
		c-0.1-0.3-0.3-0.5-0.6-0.8C762.9,360.6,753.4,365,752.3,372.7z M728.5,450.1c-3,0-5.5-2.5-5.5-5.5s2.5-5.5,5.5-5.5s5.5,2.5,5.5,5.5
		S731.5,450.1,728.5,450.1z M765.7,435.5c-2.4,3.7-7.4,4.7-11.1,2.3s-4.7-7.4-2.3-11.1c2.4-3.7,7.4-4.7,11.1-2.3
		C767.1,426.9,768.1,431.8,765.7,435.5z"/>
</g>
<g>
	<path d="M277.2,24.1c-0.9-1.3-2.4-2.1-4-2c-32.2,1.7-84.3,20.7-86.5,21.6c-1.2,0.4-2.1,1.4-2.6,2.6l-6,15l-7.9-7.9
		c-1.4-1.4-3.6-1.7-5.3-0.8c-4,2.2-39.3,21.7-46,29.8c-4.2,5.1-7.4,16.6-9.4,25.6l-6.7-11.2c-0.7-1.2-2-2-3.3-2.2
		c-1.4-0.2-2.8,0.3-3.7,1.3c-0.5,0.5-11.9,12.4-20.8,30.2c-11.9,23.8-13.6,46.8-4.8,66.7c-15.9,23.5-30.9,49.3-47.4,78.6
		c-1.2,2.2-0.5,4.9,1.7,6.1c0.7,0.4,1.5,0.6,2.2,0.6c1.6,0,3.1-0.8,3.9-2.3c15.7-27.7,29.9-52.4,44.8-74.7
		c5.3,5.8,12.7,8.8,22.1,8.8c0.6,0,1.3,0,1.9,0c24.2-1,54.4-20.3,70.2-31.7c19.3-13.9,40.7-33.3,44.3-43.5c0.4-1.1,0.3-2.4-0.2-3.5
		s-1.5-1.9-2.6-2.3l-20.2-6.7l40.7-5.8c1.5-0.2,2.7-1.1,3.4-2.4l42.5-85.4C278.2,27.2,278.1,25.5,277.2,24.1z M227.9,107.6
		l-57.3,8.2c-2.1,0.3-3.7,2-3.8,4.1c-0.2,2.1,1.1,4,3.1,4.7l33.2,11.1c-5.6,7.9-20.1,21.7-38.8,35.2c-25.5,18.4-49.4,29.3-65.3,30
		c-8.5,0.4-14.5-2.1-18.3-7.5c7.2-10.4,14.6-20.2,22.5-29.7c29.5-35.4,62.6-61.4,104.3-81.8c2.2-1.1,3.2-3.8,2.1-6s-3.8-3.2-6-2.1
		c-42.9,21-76.9,47.8-107.2,84.2c-7,8.3-13.5,17-19.9,26c-10.5-32.7,12.5-65.5,22-77.2l9.6,16c1,1.6,2.9,2.5,4.7,2.1
		c1.9-0.4,3.3-1.8,3.6-3.7c1.6-10.2,5.6-28.1,9.7-33c3.9-4.8,25.7-17.8,40.5-26l10,10.2c1.1,1.1,2.6,1.5,4.1,1.2s2.7-1.3,3.3-2.7
		l7.8-19.4c8.8-3.1,46.6-16.2,74.1-19.6L227.9,107.6z"/>
</g>
<g>
	<line class="st5" x1="468.7" y1="54.6" x2="489.9" y2="75.9"/>
	<line class="st5" x1="511.1" y1="97.1" x2="532.3" y2="118.3"/>
	<line class="st5" x1="553.6" y1="139.5" x2="574.8" y2="160.7"/>
	<line class="st5" x1="447.5" y1="54.6" x2="468.7" y2="33.4"/>
	<line class="st5" x1="489.9" y1="97.1" x2="511.1" y2="75.9"/>
	<line class="st5" x1="532.3" y1="139.5" x2="553.6" y2="118.3"/>
	<line class="st5" x1="532.3" y1="181.9" x2="553.6" y2="160.7"/>
	<line class="st5" x1="489.9" y1="224.3" x2="511.1" y2="203.1"/>
	<line class="st5" x1="447.5" y1="266.8" x2="468.7" y2="245.6"/>
	<line class="st5" x1="426.3" y1="54.6" x2="447.5" y2="75.9"/>
	<line class="st5" x1="468.7" y1="97.1" x2="489.9" y2="118.3"/>
	<line class="st5" x1="511.1" y1="139.5" x2="532.3" y2="160.7"/>
	<line class="st5" x1="447.5" y1="97.1" x2="468.7" y2="75.9"/>
	<line class="st5" x1="489.9" y1="139.5" x2="511.1" y2="118.3"/>
	<line class="st5" x1="426.3" y1="97.1" x2="447.5" y2="118.3"/>
	<line class="st5" x1="468.7" y1="139.5" x2="489.9" y2="160.7"/>
	<line class="st5" x1="511.1" y1="181.9" x2="532.3" y2="203.1"/>
	<line class="st5" x1="405.1" y1="97.1" x2="426.3" y2="75.9"/>
	<line class="st5" x1="447.5" y1="139.5" x2="468.7" y2="118.3"/>
	<line class="st5" x1="489.9" y1="181.9" x2="511.1" y2="160.7"/>
	<line class="st5" x1="383.9" y1="97.1" x2="405.1" y2="118.3"/>
	<line class="st5" x1="426.3" y1="139.5" x2="447.5" y2="160.7"/>
	<line class="st5" x1="468.7" y1="181.9" x2="489.9" y2="203.1"/>
	<line class="st5" x1="405.1" y1="139.5" x2="426.3" y2="118.3"/>
	<line class="st5" x1="447.5" y1="181.9" x2="468.7" y2="160.7"/>
	<line class="st5" x1="383.9" y1="139.5" x2="405.1" y2="160.7"/>
	<line class="st5" x1="426.3" y1="181.9" x2="447.5" y2="203.1"/>
	<line class="st5" x1="468.7" y1="224.3" x2="489.9" y2="245.6"/>
	<line class="st5" x1="362.6" y1="139.5" x2="383.9" y2="118.3"/>
	<line class="st5" x1="405.1" y1="181.9" x2="426.3" y2="160.7"/>
	<line class="st5" x1="447.5" y1="224.3" x2="468.7" y2="203.1"/>
	<line class="st5" x1="341.4" y1="139.5" x2="362.6" y2="160.7"/>
	<line class="st5" x1="383.9" y1="181.9" x2="405.1" y2="203.1"/>
	<line class="st5" x1="426.3" y1="224.3" x2="447.5" y2="245.6"/>
	<line class="st5" x1="362.6" y1="181.9" x2="383.9" y2="160.7"/>
	<line class="st5" x1="405.1" y1="224.3" x2="426.3" y2="203.1"/>
</g>
<g>
	<path d="M866,265.1c-1.2,0.3-2.5,0.3-3.8,0.3c-10.7,0-21.4,0-32.1,0h-62l0,0c-30,0-60.1,0-90.1,0c-7.3,0-14.5-1-21.2-4.1
		c-11.1-5.3-18-13.7-18.3-26.4c-0.1-3,0.8-6.2,1.9-9.1c2-5.1,5.9-7.7,11.5-7.8c12.3-0.2,24.6-1.5,36.8-3.6c12.3-2.2,23.8-7,35-12.3
		c16-7.6,31.3-16.5,44.8-28.1c5.2-4.4,9.8-9.5,14.3-14.6c4.3-4.8,5.8-10.8,6.6-17.1c0-0.1,0-0.2,0-0.4c2.2,0.6,5.2,1.2,9.4,1.7
		c-0.5,4.8-1.6,9.5-4,13.7c-2.6,4.7-5.8,9.2-9.4,13.2c-11.7,12.9-26,22.5-41,31.1c-11.7,6.7-23.9,12.5-36.7,17.1
		c-10,3.6-20.2,5.7-30.7,6.7c-8.2,0.8-16.5,1.4-24.8,1.9c-2.1,0.1-3.2,1.1-3.8,2.9c-1.7,5.6-0.4,10.6,2.9,15.2
		c4.3,6.1,10.5,8.8,17.5,9.9c3.2,0.5,6.5,0.8,9.8,0.8c38.2,0,76.3,0,114.4,0c5,0,9.9,0,14.9,0c7.2,0,14.4,0,21.7,0c5,0,9.9,0,14.8,0
		c5.4,0,10.7,0,16.1,0c9.5,0,22.2-7.2,23.3-21.5c0.8-9.7-1.6-18.8-5-27.7c-3.1-8-6.7-15.8-9.5-23.8c-4-11.4-4.6-23.3-4.6-35.3v-4.1
		c0.9-0.1,1.8-0.2,2.6-0.4c1.5-0.2,4.1-0.7,6.8-1.7c0,2.9,0,5.7,0,8.6c-0.1,15.9,3.2,30.9,10,45.3c4.7,9.8,8.2,20,9.1,30.9
		C895.1,245.4,885.8,260.8,866,265.1z"/>
	<path d="M894.7,34.1l-0.6-3.8H764.9l-0.4,4c-0.1,0.9-2.1,21.3,4.6,50.5l1.2,5.2c6.2,27.2,9.6,42.2,12.8,47.7
		c0.8,1.4,2.2,2.9,6.5,4.1c2.2,0.6,5.2,1.2,9.4,1.7c2.3,0.3,4.9,0.5,7.9,0.8c0.8,0.1,1.5,0.1,2.4,0.2c2.3,0.1,4.6,0.3,6.7,0.4
		c7.4,0.3,13.4,0.3,13.8,0.3l0,0c5.1,0,9.6,0,13.7-0.1c3.3-0.1,6.3-0.2,9-0.3c5-0.2,9-0.6,12.4-1c0.9-0.1,1.8-0.2,2.6-0.4
		c1.5-0.2,4.1-0.7,6.8-1.7c4.2-1.5,8.4-4.3,8.4-9.7c0-0.7,0-1.6,0-2.8c-0.1-9.5-0.5-34.6,6.6-52.6C897.9,55,894.9,34.9,894.7,34.1z
		 M880.9,73.4c-4,9.9-5.8,21.7-6.7,32.1c-0.8,10.1-0.7,19-0.6,23.9c0,1,0,1.9,0,2.6c-0.2,0.3-1.7,1.7-8.8,2.7
		c-0.5,0.1-1.1,0.2-1.8,0.2c-3.5,0.4-7.9,0.8-13.3,1c-5.4,0.2-12,0.3-20,0.3h-0.1c-10.5,0-22.2-0.6-30.2-1.6
		c-4.3-0.5-7.5-1.2-8.9-1.9c0-0.1-0.1-0.2-0.2-0.3c-2.5-5.4-6.3-21.9-11.4-44.4l-1.2-5.2c-4.6-20.3-4.9-36.3-4.6-43.5h113
		C886.6,45.7,886.6,59.2,880.9,73.4z"/>
	<path d="M808.1,256.1c-5,0-9.9,0-14.9,0l0,0c1.2,0,3.4,0,5.5-2.4c13.9-15.5,10.8-81.3,8.1-109.3c0.8,0.1,1.5,0.1,2.4,0.2
		c2.3,0.1,4.6,0.3,6.7,0.4C817.8,164.8,822.8,232.1,808.1,256.1z"/>
	<path d="M844.6,256.2c-4.9,0-9.9,0-14.8,0l0,0c1.2,0,3.4,0,5.5-2.4c13.8-15.3,10.9-80.2,8.2-108.7c3.3-0.1,6.3-0.2,9-0.3
		C854.3,164.6,859.3,232.2,844.6,256.2z"/>
</g>
<g>
	<path d="M1008.7,169.1h-10.6c5.1,7.8,9.4,16.3,11.6,27.4c4.6,23.1-1.9,48.9-19.4,76.7l7.6,4.8c18.7-29.8,25.7-57.8,20.6-83.3
		C1016.5,184.6,1012.9,176.4,1008.7,169.1z"/>
	<path d="M969.7,116.5c2,10.1,5.6,18.3,9.9,25.6h10.5c-5.1-7.8-9.4-16.3-11.6-27.4c-3.3-16.4-0.9-34.3,7-53.2l18.7,6.8l-4.1-23.1
		l-4-23.1l-18,15.1l-18,15.1l16.9,6.2C968.6,78.9,966.1,98.4,969.7,116.5z"/>
	<path d="M1088.7,169.1h-10.6c5.1,7.8,9.4,16.3,11.6,27.4c4.6,23.1-1.9,48.9-19.4,76.7l7.6,4.8c18.7-29.8,25.7-57.8,20.6-83.3
		C1096.5,184.6,1092.9,176.4,1088.7,169.1z"/>
	<path d="M1049.7,116.5c2,10.1,5.6,18.3,9.9,25.6h10.5c-5.1-7.8-9.4-16.3-11.6-27.4c-3.3-16.4-0.9-34.3,7-53.2l18.6,6.8l-4.1-23.1
		l-4.1-23.1l-18,15.1l-18,15.1l17,6.2C1048.5,78.9,1046.1,98.4,1049.7,116.5z"/>
	<path d="M1168.7,169.1h-10.6c5.1,7.8,9.4,16.3,11.6,27.4c4.6,23.1-1.9,48.9-19.4,76.7l7.6,4.8c18.7-29.8,25.7-57.8,20.6-83.3
		C1176.5,184.6,1172.9,176.4,1168.7,169.1z"/>
	<path d="M1129.7,116.5c2,10.1,5.6,18.3,9.9,25.6h10.5c-5.1-7.8-9.4-16.3-11.6-27.4c-3.3-16.4-0.9-34.2,7-53.2l18.5,6.7l-4.1-23.1
		l-4.1-23.1l-18,15.1l-18,15.1l17.1,6.2C1128.6,78.9,1126.1,98.4,1129.7,116.5z"/>
	<polygon points="1156.4,151.1 1145.3,151.1 1076.4,151.1 1065.3,151.1 996.4,151.1 985.3,151.1 946.1,151.1 946.1,160.1 
		991.8,160.1 1002.9,160.1 1071.8,160.1 1082.9,160.1 1151.8,160.1 1162.9,160.1 1202.1,160.1 1202.1,151.1 	"/>
</g>
<g>
	<path d="M1304.4,151.1h-11.1h-39.2v9h45.7h11.1h34.4c0.6-3,1-6,1.5-9H1304.4z"/>
	<path d="M1470.9,160.1h39.2v-9h-45.7h-11.1h-35.9c0.4,3,0.9,6,1.5,9h40.9H1470.9z"/>
	<path d="M1392.2,160.1h-20c0.5-3,1-6,1.4-9h17.3C1391.3,154.1,1391.7,157.1,1392.2,160.1z"/>
	<path d="M1461.2,273l-6.8,5.1c-32.7-43.8-47-82.5-53-118c-0.5-3-1-6-1.4-9c-2.6-19-3-37.1-2.9-54.7v-4.3h27.5l-42.5-55.9
		l-42.5,55.9h28.5v4.3c-0.2,17.6-0.9,35.7-3.6,54.7c-0.4,3-0.9,6-1.4,9c-6.3,35.5-20.6,74.2-53.3,118l-6.8-5.1
		c31.5-42.3,45.4-78.8,51.4-112.9c0.5-3,1-6,1.4-9c2.4-17.1,3-33.6,3.1-50h-36.5l59.7-79l59.7,79h-36.5c0.1,16.4,0.7,32.9,3.1,50
		c0.4,3,0.9,6,1.4,9C1415.8,194.2,1429.7,230.7,1461.2,273z"/>
	<path d="M1383.1,270.8c-13.3,0-24-10.7-24.5-24.3c-0.3-8.3,5.3-17.5,11.2-27.2c3.5-5.7,7.1-11.7,9-16.9l4-10.9l4.4,10.7
		c2.2,5.3,5.6,10.9,9,16.4c6,9.7,11.6,18.9,11.3,27.8l0,0C1407.1,260.1,1396.4,270.8,1383.1,270.8z M1383.2,214.3
		c-1.8,3.2-3.7,6.4-5.6,9.6c-5,8.2-10.1,16.6-9.9,22.3c0.3,8.8,7.1,15.6,15.5,15.6s15.2-6.9,15.5-15.6l0,0c0.2-6.3-5-14.7-10-22.8
		C1386.8,220.4,1384.9,217.3,1383.2,214.3z"/>
</g>
<g>
	<path d="M581.3,418.4h-30.7v-21.9c0-2.5-2-4.5-4.5-4.5h-52.8c-2.5,0-4.5,2-4.5,4.5s2,4.5,4.5,4.5h48.3v21.9c0,2.5,2,4.5,4.5,4.5
		h30.7v61.4h-30.7c-2.5,0-4.5,2-4.5,4.5v21.9h-43.9c-2.5,0-4.5,2-4.5,4.5s2,4.5,4.5,4.5h48.4c2.5,0,4.5-2,4.5-4.5v-21.9h30.7
		c2.5,0,4.5-2,4.5-4.5v-70.4C585.8,420.4,583.8,418.4,581.3,418.4z M414.1,515.2h-74.7V401h74.7c2.5,0,4.5-2,4.5-4.5s-2-4.5-4.5-4.5
		h-79.2c-2.5,0-4.5,2-4.5,4.5v123.2c0,2.5,2,4.5,4.5,4.5h79.2c2.5,0,4.5-2,4.5-4.5S416.6,515.2,414.1,515.2z"/>
	<path d="M501.5,444.7c-0.8-1.3-2.3-2.1-3.8-2.1h-35.1v-52.7c0-2.1-1.5-3.9-3.5-4.4c-2.1-0.5-4.2,0.6-5.1,2.5l-39.6,83.6
		c-0.7,1.4-0.6,3,0.3,4.3c0.8,1.3,2.3,2.1,3.8,2.1h35.1v48.3c0,2.1,1.4,3.9,3.5,4.4c0.3,0.1,0.7,0.1,1,0.1c1.7,0,3.2-0.9,4-2.5
		l39.6-79.2C502.4,447.7,502.4,446.1,501.5,444.7z M462.6,507.3v-33.8c0-2.5-2-4.5-4.5-4.5h-32.5l28-59.1v37.2c0,2.5,2,4.5,4.5,4.5
		h32.3L462.6,507.3z"/>
</g>
<g>
	<path d="M161.3,532.4V427.6c0-2.5-2-4.5-4.5-4.5s-4.5,2-4.5,4.5v104.8c-4.9,1.8-8.3,6.5-8.3,12c0,7.1,5.8,12.8,12.8,12.8
		s12.8-5.8,12.8-12.8C169.6,538.9,166.2,534.2,161.3,532.4z M156.8,548.3c-2.1,0-3.8-1.7-3.8-3.8s1.7-3.8,3.8-3.8s3.8,1.7,3.8,3.8
		S158.9,548.3,156.8,548.3z"/>
	<path d="M107.8,402.3h13c2.5,0,4.5-2,4.5-4.5s-2-4.5-4.5-4.5h-13c-2.5,0-4.5,2-4.5,4.5S105.3,402.3,107.8,402.3z"/>
	<path d="M107.8,370h13c2.5,0,4.5-2,4.5-4.5s-2-4.5-4.5-4.5h-13c-2.5,0-4.5,2-4.5,4.5S105.3,370,107.8,370z"/>
	<path d="M107.8,434.7h13c2.5,0,4.5-2,4.5-4.5s-2-4.5-4.5-4.5h-13c-2.5,0-4.5,2-4.5,4.5S105.3,434.7,107.8,434.7z"/>
	<path d="M107.8,467.1h13c2.5,0,4.5-2,4.5-4.5s-2-4.5-4.5-4.5h-13c-2.5,0-4.5,2-4.5,4.5S105.3,467.1,107.8,467.1z"/>
	<path d="M125.3,495c0-2.5-2-4.5-4.5-4.5h-13c-2.5,0-4.5,2-4.5,4.5s2,4.5,4.5,4.5h13C123.3,499.5,125.3,497.5,125.3,495z"/>
	<g>
		<path d="M180.3,512.3V360.8c0-18.4-8.7-29.5-23.4-29.5h-0.1c-0.2,0-0.5,0-0.7,0c-0.4,0-0.9,0-1.3,0c-17.8,1.2-20.6,18.8-20.6,29.5
			v150.9c-11,7.5-17.5,19.7-17.5,33.1c0,22.1,18,40.1,40.1,40.1s40.1-18,40.1-40.1C197,531.9,190.8,519.8,180.3,512.3z M156.9,576
			c-17.2,0-31.1-14-31.1-31.1c0-10.5,5.2-20.1,13.9-25.9c2.1-0.4,3.6-2.2,3.6-4.4V360.8c0-7.2,2.3-13.7,6.1-17.4
			c2.1-2.1,4.6-3.1,7.2-3.1h0.1c5.7,0.1,10.5,4.4,12.9,10.7c1.1,2.9,1.7,6.2,1.7,9.8v153.7c0,1.7,0.9,3.1,2.3,3.9
			c0.2,0.2,0.4,0.4,0.7,0.6c8.6,5.8,13.8,15.5,13.8,25.8C188,562,174.1,576,156.9,576L156.9,576z"/>
		<path d="M156.9,331.3L156.9,331.3c-0.3,0-0.6,0-0.8,0c-0.4,0-0.9,0-1.3,0c-17.8,1.2-20.6,18.8-20.6,29.5v150.9
			c-11,7.5-17.5,19.7-17.5,33.1c0,22.1,18,40.1,40.1,40.1s40.1-18,40.1-40.1c0.1-12.9-6.1-25-16.6-32.5V360.8
			C180.3,342.4,171.6,331.3,156.9,331.3L156.9,331.3z M156.9,576c-17.2,0-31.1-14-31.1-31.1c0-10.5,5.2-20.1,13.9-25.9
			c2.1-0.4,3.6-2.2,3.6-4.4V360.8c0-7.2,2.3-13.7,6.1-17.4c2.1-2.1,4.6-3.1,7.2-3.1h0.1c5.7,0.1,10.5,4.4,12.9,10.7
			c1.1,2.9,1.7,6.2,1.7,9.8v153.7c0,1.7,0.9,3.1,2.3,3.9c0.2,0.2,0.4,0.4,0.7,0.6c8.6,5.8,13.8,15.5,13.8,25.8
			C188,562,174.1,576,156.9,576L156.9,576z"/>
	</g>
</g>
<g>
	<g>
		<path d="M1009.8,390.1c-6.8,10.4-10.3,20.8-10.3,30.9c-0.1,13.2,5.6,23.2,11.5,33.8c5.5,9.6,11.1,19.5,12.8,32.3
			c0.3,2.6,0.5,5.2,0.5,8.1c0,0.3,0,0.6,0,0.9c-0.2,13.3-4.7,26.6-13.5,39.6l-0.7,1.1l-6.3-7.6l0.4-0.6
			c7.3-10.9,11.2-21.8,11.4-32.4c0-0.3,0-0.6,0-0.9c0-2.8-0.2-5.5-0.7-8.1c-1.7-9.6-6.2-17.5-11-25.9c-6.5-11.5-13.3-23.4-13.2-40.3
			c0.1-11.9,3.7-23.9,10.9-35.6l-0.9-0.5l-15.6-9l20.3-11.7l20.3-11.7v46.9L1009.8,390.1z"/>
	</g>
	<g>
		<path d="M1147.2,390.1c-6.8,10.4-10.3,20.8-10.3,30.9c-0.1,13.2,5.6,23.2,11.5,33.8c5.5,9.6,11.1,19.5,12.8,32.3
			c0.3,2.6,0.5,5.2,0.5,8.1c0,0.3,0,0.6,0,0.9c-0.2,13.3-4.7,26.6-13.5,39.6l-0.7,1.1l-6.3-7.6l0.4-0.6
			c7.3-10.9,11.2-21.8,11.4-32.4c0-0.3,0-0.6,0-0.9c0-2.8-0.2-5.5-0.7-8.1c-1.7-9.6-6.2-17.5-11-25.9c-6.5-11.5-13.3-23.4-13.2-40.3
			c0.1-11.9,3.7-23.9,10.9-35.6l-0.9-0.5l-15.6-9l20.3-11.7l20.3-11.7v46.9L1147.2,390.1z"/>
	</g>
	<g>
		<path d="M1078.5,390.1c-6.8,10.4-10.3,20.8-10.3,30.9c-0.1,13.2,5.6,23.2,11.5,33.8c5.5,9.6,11.1,19.5,12.8,32.3
			c0.3,2.6,0.5,5.2,0.5,8.1c0,0.3,0,0.6,0,0.9c-0.2,13.3-4.7,26.6-13.5,39.6l-0.8,1.1l-6.3-7.6l0.4-0.6
			c7.3-10.9,11.2-21.8,11.4-32.4c0-0.3,0-0.6,0-0.9c0-2.8-0.2-5.5-0.7-8.1c-1.7-9.6-6.2-17.5-11-25.9c-6.5-11.5-13.3-23.4-13.2-40.3
			c0.1-11.9,3.7-23.9,10.9-35.6l-0.9-0.5l-15.6-9l20.4-11.8l20.3-11.7v46.9L1078.5,390.1z"/>
	</g>
	<path d="M1170.2,487.1c0.3,2.6,0.5,5.3,0.5,8.1c0,0.3,0,0.6,0,0.9h16.8l-43.2,74H963.7l42.8-73.4c0-0.5,0-1,0-1.5
		c0-2.8-0.3-5.5-0.9-8.1h-3.9l-53.6,92h201.3l53.7-92H1170.2z M1143.1,487.1h-41.5c0.3,2.6,0.5,5.3,0.5,8.1c0,0.3,0,0.6,0,0.9h42
		c0-0.3,0-0.6,0-0.9C1144,492.3,1143.6,489.7,1143.1,487.1z M1074.4,487.1h-41.5c0.3,2.6,0.5,5.3,0.5,8.1c0,0.3,0,0.6,0,0.9h42
		c0-0.3,0-0.6,0-0.9C1075.3,492.3,1075,489.7,1074.4,487.1z"/>
</g>
<path d="M1413.2,455c13.3-7.7,18.3-20.2,18.5-35.3c0.4,0,0.9-0.2,1-0.1c12.4,15.8,22.5,32.8,26.2,52.9c4,21.3-1.2,40.7-12.3,58.8
	c-12.5,20.2-29.3,36.4-48.2,50.8c0.8-0.9,1.6-1.8,2.3-2.8c4.7-6.4,10-12.5,14-19.3c10.4-17.4,10.5-35.7,1.4-53.5
	c-4.7-9.2-11.1-17.6-16.8-26.2c-2.4-3.7-5.2-7.2-7.8-10.8c-7.2-10.4-11.5-21.4-6-34.2c-11.3,4.6-22.6,22-26.1,34
	c-4.2,14.4-2.9,28.8-1.3,44.2c-8.3-5.2-10.4-12.7-10.9-21c-9,6.3-16.9,30.8-15.2,46.2c1.4,12.8,7.2,23.3,23.2,43.7
	c-4.5-3.8-9.1-7.5-13.5-11.5c-15-13.5-28.4-28.3-37.9-46.3c-13-24.5-12.7-49.2-1.5-74.2c7.1-15.8,17.6-29.3,28.5-42.6
	c7.7-9.5,15.7-18.9,22.9-28.7c7.3-10,13.4-20.8,12.4-33.8c-0.5-6.5-2.4-12.8-3.7-18.9c9.6,3.3,27.6,20.7,35.3,32.6
	c9.1,14.2,15.6,29.4,16.3,46.2C1414.6,421.6,1413.5,438.1,1413.2,455z"/>
<path d="M276.7,760.5l-58.3-100.9c-2.1-3.4-5.8-5.5-9.9-5.5H91.8c-4.1-0.1-7.8,2-10,5.5L23.5,760.5c-1.9,3.4-1.9,7.6,0,11
	l58.3,101.2c2.1,3.5,5.9,5.6,10,5.5h26.6l6.7-44.9L88.7,781c-1.8-2.6-1.8-4.3,0.3-7.5l21.7-33.5c1-1.6,1.7-1.8,2.3-1.8
	c0.9,0.1,1.7,0.3,2.5,0.8l36.2,17.3c0,1.5-0.4,3-1.2,4.3c-2.6,4.6-7.6,7.5-12.9,7.3c-4.5-0.2-8.9-1.4-12.8-3.7l-1.3-0.7l-7.2,13.5
	l1.5,0.6c19.9,8.6,32.3,25.4,37.8,51.3h2.9l5.1-27.5l17.4,9l19.7-20.4c0.4,4.7-0.5,9.4-2.6,13.7l-18.4,36.5v37.9h28.5
	c4.1,0.1,7.8-2,10-5.5l58.5-101.2C278.6,768,278.6,763.9,276.7,760.5z M120.2,734l11-20.1h0.4c4.7,0,17.2,7,17.6,9.2L137.5,742
	L120.2,734z M143.7,745l12.3-20.7c4.2,0,18.2,10,18.4,12.3l-16.9,24.3c0.7-5.5-0.4-9-3.4-10.6L143.7,745z M155.2,775.3l23.8-32.5
	c4.6,2.5,8.6,5.8,11.9,9.8c2.5,3,3,4.4,2.9,4.7l-26.4,29c-4.8-2.9-9-6.7-12.4-11.1L155.2,775.3z M180.4,799.5
	c-3.4-2.2-6.2-5.2-8.3-8.8l24.5-27c4.3,3.3,7.6,7.7,9.6,12.7L180.4,799.5z"/>
<path d="M413.8,894.1l10.5-69.9l-56.8-81.5c-2.8-4.1-2.7-6.8,0.5-11.7l33.8-52.2c1.5-2.5,2.7-2.8,3.6-2.8c1.4,0.1,2.7,0.5,3.9,1.2
	l56.4,27c0.1,2.4-0.6,4.7-1.9,6.7c-4,7.2-11.8,11.6-20.1,11.4c-7-0.3-13.8-2.2-19.9-5.7l-2.1-1.1l-11.1,21l2.3,0.9
	c31,13.5,50.3,39.5,58.8,79.9h4.5l8-42.9l27.1,14l30.7-31.7c0.6,7.3-0.8,14.7-4,21.4L509.4,835v59.1 M416.6,669.5l17.2-31.4h0.7
	c7.4,0,26.8,10.9,27.4,14.4L443.6,682L416.6,669.5z M453.3,686.6l19.2-32.2c6.6,0,28.3,15.5,28.6,19.2l-26.3,37.9
	c1.1-8.6-0.7-14-5.3-16.5L453.3,686.6z M471.2,733.8l37.1-50.7c7.1,3.8,13.5,9,18.6,15.3c3.9,4.6,4.6,6.9,4.5,7.4L490.3,751
	c-7.4-4.6-14-10.4-19.3-17.3L471.2,733.8z M510.4,771.5c-5.3-3.5-9.7-8.1-12.9-13.6l38.2-42.1c6.7,5.1,11.9,11.9,15,19.7
	L510.4,771.5z"/>
<g>
	<path d="M775.2,841.8c-2,1.2-3.9,3.4-5.9,3.4c-23.4,0.2-46.8,0.3-70.2,0.1c-8.7-0.1-13.3-4.8-13.3-13.6
		c-0.1-42.1-0.1-84.2,0.1-126.3c0-2.8,1.6-6.3,3.6-8.4c18.1-18.5,36.5-36.8,55-54.9c2.2-2.2,6-3.8,9.1-3.8
		c26.2-0.3,52.3-0.2,78.5-0.2c10,0,14.5,4.7,14.5,14.8c0,59.3,0,118.6,0,177.8c0,11.2-8,17.2-19.1,14.4c-1.5-0.4-2.5-2.8-4.2-4.9
		c16.9-2.7,16.9-2.7,16.9-19.1c0-55,0-110.1,0-165.1c0-10.8-0.6-11.4-11.4-11.4c-22.4,0-44.8,0-67.3,0c-2.7,0-5.3,0-8.8,0
		c0,15.1,0,29.2,0,43.3c0,13.1-3.8,16.9-16.8,17c-14.2,0-28.3,0-43.3,0c-0.1,3.2-0.4,5.8-0.4,8.5c0,38.4,0,76.7,0,115.1
		c0,9.8,1,10.8,10.7,10.8c21.2,0.1,42.3,0,63.5,0c2.7,0,5.3,0,8,0C774.6,840.1,774.9,841,775.2,841.8z M746.2,652.1
		c-15.6,15.7-31,31.2-46.1,46.4c12.7,0,26.6,0.2,40.4-0.3c2-0.1,5.4-3.5,5.5-5.5C746.4,679,746.2,665.1,746.2,652.1z"/>
	<path d="M819.9,816c1.8,2.8,3.1,6.1,5.4,8.3c3.9,3.5,4.8,6.4-0.3,9.1c-4.4,2.3-5.7,5.6-4.8,10.4c0.9,5-1.6,7.2-6.4,5.7s-8,0-10.7,4
		c-2.9,4.2-6.2,4-8.6-0.4c-2.4-4.4-5.6-5.7-10.4-4.7c-5.1,1-7-1.7-5.8-6.4c1.1-4.6,0.4-8.1-3.9-10.8c-4.2-2.6-4.5-6,0.1-8.5
		c4.7-2.5,5.9-6.1,5-11c-0.8-4.7,1.6-6.6,6.1-5.3c5,1.4,8.5-0.1,11.4-4.3c2.2-3.3,5.3-4.1,7.6-0.2c2.8,4.9,6.2,6.8,12.1,5.7
		C822.9,806.4,821.8,811.2,819.9,816z M814.7,841.8c-3.4-5.9,2.4-9.2,5.4-11.7c-2.2-6.2-4-11.3-5.4-15.3c-5-2.4-9.7-4.7-13.8-6.7
		c-4.6,1.7-9.7,3.5-14,5.1c-2.3,4.6-4.7,9.5-6.8,13.7c1.7,4.6,3.5,9.8,5.1,14.1c4.7,2.3,9.6,4.7,13.5,6.6
		C803.6,845.8,808.5,844.1,814.7,841.8z"/>
	<path d="M788.5,848.9c-2.3,10.2-4.1,18.4-6,27c2,0.5,3.8,1,6.1,1.6c1.8-6.6,3.5-13,5.1-19c3.4,0,6.2,0,9.8,0
		c1.7,8.3,3.6,17,5.5,25.9c2.7-0.4,5.3-0.9,8.7-1.5c-1.8-10-3.8-20.3-5.7-30.7c0.8-0.4,1.7-0.7,2.5-1.1c1.2,1.8,3,3.6,3.5,5.6
		c2.1,9.5,3.8,19,5.6,28.6c0.9,4.9,0.1,7.4-5.8,5.3c-1.7-0.6-4.8,0-6.2,1.3c-4.9,4.3-6.4,1.5-7.3-3c-1.7-8.5-3.3-17-6.4-25.6
		c-2.1,7.8-4.1,15.7-5.9,22.3c-5.6-0.7-9.6-0.9-13.5-1.8c-1.1-0.3-2.7-2.6-2.5-3.7c2.1-9.5,4.5-18.8,7.1-28.2
		C783.3,851.1,785.3,850.7,788.5,848.9z"/>
	<path d="M765.5,745c-15.4,0-30.8,0.1-46.2-0.1c-2.1,0-4.2-1.9-6.3-2.9c2-1.1,4-3.2,6-3.2c31.3-0.2,62.6-0.2,94,0
		c2.1,0,4.2,1.9,6.3,3c-2.2,1.1-4.5,3.2-6.7,3.2C796.8,745.2,781.1,745,765.5,745z"/>
	<path d="M766.1,760.7c-15.7,0-31.4,0.1-47-0.1c-2.1,0-4.1-2-6.2-3c2.1-1,4.2-2.8,6.3-2.9c31.4-0.2,62.7-0.2,94.1,0
		c1.9,0,3.8,1.7,5.8,2.7c-2,1.1-3.9,3.2-5.9,3.2C797.5,760.9,781.8,760.7,766.1,760.7z"/>
	<path d="M765.5,728.9c-15.7,0-31.3,0.1-47-0.1c-1.9,0-3.7-1.9-5.5-2.9c1.9-1,3.7-2.8,5.6-2.8c31.8-0.2,63.6-0.2,95.5,0
		c1.7,0,3.4,1.6,5.1,2.5c-1.7,1.1-3.4,3.2-5.2,3.2C797.8,729,781.6,728.9,765.5,728.9z"/>
	<path d="M739.7,787.4c7.2,0,14.4-0.2,21.6,0.1c1.6,0.1,3.1,2,4.6,3c-1.6,1-3.2,2.8-4.8,2.8c-14.4,0.2-28.8,0.2-43.1,0
		c-1.7,0-3.3-1.7-5-2.7c1.7-1.1,3.4-3.1,5.2-3.2C725.3,787.2,732.5,787.4,739.7,787.4z"/>
	<path d="M792.4,681.5c7.4,0,14.9-0.2,22.3,0.2c1.5,0.1,3,2.1,4.4,3.2c-1.4,1-2.8,2.7-4.2,2.8c-14.9,0.2-29.7,0.2-44.6,0
		c-1.4,0-2.7-1.9-4.1-2.9c1.5-1.1,3-3,4.6-3.1C778,681.3,785.2,681.5,792.4,681.5z"/>
	<path d="M799.8,813.7c8,0.1,14.2,6.5,13.9,14.4c-0.3,7.5-6.5,13.4-14.2,13.4c-8,0-14-6.3-13.8-14.4
		C786,819.4,792.1,813.6,799.8,813.7z M799.7,818.1c-5.7,0.5-9.4,3.5-9.4,9.4c0,5.8,3.4,9.3,9.3,9.4c6,0,9.4-3.5,9.5-9.3
		C809.2,821.7,805.5,818.6,799.7,818.1z"/>
</g>
<g>
	<path d="M1057.2,743c-2.5,1.8-4.6,3.9-6.4,6.4l-64-64l-22.2,22.2l-18.5-69.4l69.3,18.6L993.2,679L1057.2,743z"/>
	<path d="M1132.8,875.6l22.2-22.2l-65-65c2.5-1.8,4.6-3.9,6.4-6.4l65,65l22.2-22.2l18.5,69.4L1132.8,875.6z"/>
	<path d="M1202.1,638.2l-18.6,69.3l-22.2-22.2l-64.6,64.6c-1.7-2.5-3.8-4.7-6.2-6.5l64.4-64.4l-22.2-22.2L1202.1,638.2z"/>
	<path d="M993.2,853.4l22.2,22.2l-69.3,18.6l18.6-69.3l22.2,22.2l64.4-64.4c1.8,2.4,4,4.5,6.5,6.2L993.2,853.4z"/>
</g>
<g>
	<path d="M1377.7,796.7c2.5,5.8,4.6,10.8,6.7,15.8c8.1,18.8,16.2,37.6,24.2,56.4c1.1,2.5,2.3,5.1,2.8,7.8c1.4,7.1-1,12.6-7.7,15.7
		c-6.3,2.9-12.3,1.8-16.3-3.8c-4.3-6-7.8-12.7-11.4-19.2c-9.3-17.3-18.5-34.6-28.4-53.3c-1.7,3.7-2.9,6.2-3.9,8.8
		c-6.8,17.5-13.5,35.1-20.4,52.6c-1.6,4.1-3.6,8.1-6.3,11.6c-3.8,5-9.8,6.6-14.8,3.4c-3.9-2.5-6.7-7.4-8.6-11.9
		c-1.1-2.6,0.4-6.5,1.3-9.6c13.1-45.6,30.6-89.5,51.1-132.2c21.6-45.2,56.1-76.9,102.8-95.4c4.2-1.7,9.3-3,13.6-2.3
		c3.7,0.6,9,3.6,9.9,6.6c1.1,3.7-0.8,9.1-3.2,12.6c-1.9,2.8-6.4,4-9.8,5.7c-13.8,6.9-28.2,12.9-41.5,20.7
		c-13.2,7.7-14.8,16.1-7.3,29.4c6.4,11.3,13.4,22.3,20.2,33.4c2,3.3,4.2,6.5,5.8,10c7.1,15.3,3.1,24.1-13.3,28.4
		c-7.5,2-15.1,3.2-22.7,4.7C1393.3,794.1,1386,795.3,1377.7,796.7z M1401.7,752.7c-4.9,6.3-9,11.4-13.9,17.7
		c8.9-1,16.1-1.9,24.4-2.8C1408.4,762.2,1405.4,758,1401.7,752.7z"/>
	<path d="M1438.5,727.6c-11.8-0.1-20.7-9.5-20.5-21.4c0.2-11.4,9.3-20.3,20.7-20.4c11.6,0,21.1,9.4,21,21
		C1459.7,718.5,1450.2,727.8,1438.5,727.6z"/>
</g>
<g>
	<g>
		<rect x="22.1" y="1069.2" width="252" height="10"/>
	</g>
	<g>
		<path d="M147.7,1059.2c-21.4,0-49.3-3.4-82.7-10.1c-25-5-44-10.1-44.2-10.1l2.6-9.7c0.7,0.2,74.6,19.8,124.3,19.8
			c0.1,0,0.2,0,0.4,0c49.8-0.1,124-19.6,124.7-19.8l2.6,9.7c-0.2,0.1-19.2,5.1-44.2,10c-33.7,6.7-61.6,10.1-83.1,10.1
			C148,1059.2,147.8,1059.2,147.7,1059.2z"/>
	</g>
	<g>
		<path d="M147.9,1039.2c-21.8,0-49.9-6.8-83.8-20.3c-25.1-10-43.6-19.9-44.4-20.3l4.7-8.8c0.7,0.4,74.3,39.4,123.5,39.4
			c0.1,0,0.1,0,0.2,0c49.2-0.1,122.9-39,123.7-39.4l4.7,8.8c-3.1,1.7-76.7,40.5-128.3,40.6C148,1039.2,148,1039.2,147.9,1039.2z"/>
	</g>
	<g>
		<path d="M272.8,1119c-0.7-0.2-75-19.7-124.7-19.8c-0.1,0-0.2,0-0.4,0c-49.7,0-123.6,19.6-124.3,19.8l-2.6-9.7
			c0.2-0.1,19.2-5.1,44.2-10.1c33.5-6.7,61.3-10.1,82.7-10.1c0.1,0,0.3,0,0.4,0c21.5,0,49.4,3.5,83.1,10.1c25,5,44,10,44.2,10
			L272.8,1119z"/>
	</g>
	<g>
		<path d="M271.8,1158.6c-0.7-0.4-74.5-39.3-123.7-39.4c-0.1,0-0.1,0-0.2,0c-49.1,0-122.7,39-123.5,39.4l-4.7-8.8
			c0.8-0.4,19.3-10.3,44.4-20.3c33.9-13.5,62.2-20.4,84-20.3c21.8,0,50,6.9,84,20.4c25.1,10,43.6,19.8,44.4,20.2L271.8,1158.6z"/>
	</g>
	<polygon points="155.1,981.6 155.1,946.1 145.1,946.1 145.1,981.6 130.2,981.6 150.1,1016.1 170,981.6 	"/>
	<polygon points="170,1166.6 150.1,1132.1 130.2,1166.6 145.1,1166.6 145.1,1202.1 155.1,1202.1 155.1,1166.6 	"/>
</g>
<path d="M542.6,1041.4c0-0.2,0-0.4-0.1-0.5c0-0.1,0-0.2-0.1-0.3c-0.1-0.2-0.1-0.3-0.2-0.5c0-0.1-0.1-0.2-0.1-0.3c0,0,0-0.1-0.1-0.1
	c-0.4-0.7-6.5-10.9-7.4-32.1c-1-22.7,1-41.9,1-42.1c0-0.1,0-0.3,0-0.4V965c0-0.2-0.1-0.5-0.1-0.7c0,0,0,0,0-0.1v-0.1
	c-0.1-0.2-0.1-0.4-0.2-0.6c0-0.1,0-0.1-0.1-0.1c-0.1-0.2-0.3-0.4-0.4-0.6l-0.1-0.1c-0.1-0.1-0.3-0.3-0.5-0.4c-0.1,0-0.1-0.1-0.2-0.1
	c-0.2-0.1-0.4-0.3-0.7-0.3l-40.9-15.7l-2.1-0.8c-0.3-0.1-0.5-0.2-0.8-0.2c-0.1,0-0.2,0-0.3,0c-0.2,0-0.3,0-0.5,0
	c-0.1,0-0.2,0-0.4,0.1c-0.1,0-0.3,0.1-0.4,0.1c-0.1,0-0.2,0.1-0.4,0.2c-0.1,0-0.2,0.1-0.3,0.1l-0.1,0.1c0,0-0.1,0-0.1,0.1
	c-0.1,0.1-0.2,0.2-0.4,0.3l0,0c-0.2,0.2-0.3,0.3-0.5,0.5l-0.1,0.1c-0.1,0.2-0.2,0.3-0.3,0.5v0.1c0,0,0,0,0,0.1s0,0.1-0.1,0.2
	c0,0-1.2,3.6-5.2,7c-5.3,4.6-12.9,6.9-22.5,6.9c-9.6,0-17.2-2.3-22.5-6.9c-4-3.5-5.2-7-5.2-7c0-0.1-0.1-0.1-0.1-0.2s0-0.1-0.1-0.2
	c0-0.1,0-0.1-0.1-0.2c0-0.1-0.1-0.1-0.1-0.2c-0.1-0.1-0.2-0.3-0.3-0.4s-0.1-0.2-0.2-0.3c-0.1-0.1-0.2-0.2-0.4-0.3
	c-0.1,0-0.1-0.1-0.2-0.1c0,0-0.1,0-0.1-0.1l-0.1-0.1c-0.1-0.1-0.2-0.1-0.3-0.1s-0.2-0.1-0.3-0.1c-0.2-0.1-0.3-0.1-0.5-0.1
	c-0.1,0-0.2,0-0.3-0.1c-0.2,0-0.4,0-0.5,0s-0.2,0-0.3,0c-0.3,0-0.5,0.1-0.8,0.2l-2.1,0.8l-40.9,15.7c-0.2,0.1-0.5,0.2-0.7,0.4
	l-0.1,0.1c-0.2,0.1-0.4,0.3-0.5,0.4c0,0,0,0-0.1,0.1c-0.2,0.2-0.3,0.4-0.4,0.6c0,0,0,0.1-0.1,0.1c-0.1,0.2-0.2,0.4-0.2,0.6v0.1l0,0
	c-0.1,0.2-0.1,0.5-0.1,0.7v0.1c0,0.1,0,0.3,0,0.4c0,0.2,2,19.4,1,42.1c-0.9,20.8-6.7,31-7.4,32.1c-0.1,0.2-0.2,0.4-0.3,0.6
	c0,0,0,0.1-0.1,0.1c-0.1,0.2-0.1,0.3-0.1,0.5c0,0.1,0,0.1,0,0.2c0,0.2,0,0.3,0,0.5c0,0.1,0,0.1,0,0.2c0,0.2,0,0.4,0.1,0.6l0,0
	c0,0.2,3.4,14.6,5.7,33.4c0.5,4,0.9,8.2,1.3,12.5l0,0c1.9,24.5-4.9,78.1-5,78.6c0,0.2,0,0.5,0,0.7c0,0.1,0,0.2,0,0.2
	c0,0.2,0,0.3,0.1,0.5c0,0.1,0.1,0.2,0.1,0.3c0.1,0.1,0.1,0.3,0.2,0.4c0,0.1,0.1,0.2,0.2,0.3c0.1,0.1,0.1,0.2,0.2,0.3
	c0,0,0,0,0.1,0.1c0,0,0,0,0,0.1c0.7,0.8,17,18.5,66.6,21.6v7.7c0,5.1,4.1,9.2,9.2,9.2h11.6c5.1,0,9.2-4.1,9.2-9.2v-7.7
	c49.6-3.1,65.9-20.8,66.6-21.6c0,0,0,0,0-0.1c0,0,0,0,0.1-0.1s0.1-0.2,0.2-0.3c0.1-0.1,0.1-0.2,0.2-0.3c0.1-0.1,0.1-0.3,0.2-0.4
	c0-0.1,0.1-0.2,0.1-0.3c0-0.2,0.1-0.3,0.1-0.5c0-0.1,0-0.2,0-0.2c0-0.2,0-0.5,0-0.7c0,0,0-0.1,0-0.2c-0.4-3.5-6.3-50.6-5.1-75.4
	c0-0.4,0-0.8,0.1-1.1c0-0.6,0.1-1.3,0.1-1.9c2-24.6,6.9-45.7,6.9-45.9c0.1-0.3,0.1-0.5,0.1-0.8
	C542.6,1041.6,542.6,1041.5,542.6,1041.4z M527.6,1007.9c0.4,9.4,1.8,16.9,3.3,22.5c-4.5-5.1-8.9-12.6-9.3-22.8
	c-0.5-10.6,2.7-20.4,6-27.7C527.3,987.4,527.1,997.2,527.6,1007.9z M479.4,964c-5.3,8.1-12.4,12.2-21.3,12.2
	c-8.9,0-16-4.1-21.3-12.2c5.1,2.7,11.9,4.7,21.3,4.7C467.5,968.7,474.3,966.7,479.4,964z M388.6,979.8c3.3,7.3,6.5,17.1,6,27.8
	c-0.4,10.2-4.8,17.7-9.3,22.8c1.5-5.6,2.9-13.1,3.3-22.5C389.1,997.2,388.9,987.4,388.6,979.8z M391.5,1171.9
	c12.9,0.9,33.5,2.2,51.6,2.7v9.8C416.9,1182.7,400.6,1176.7,391.5,1171.9z M466.1,1199c0,1.2-1,2.2-2.2,2.2h-11.6
	c-1.2,0-2.2-1-2.2-2.2v-27.9v-20.8c0-1.2,1-2.2,2.2-2.2h11.6c1.2,0,2.2,1,2.2,2.2v20.8V1199z M473.1,1174.6
	c18.1-0.5,38.7-1.8,51.6-2.7c-9.1,4.8-25.3,10.8-51.6,12.5V1174.6z M528.5,1090c0,0.2,0,0.5,0,0.7c0,0.5-0.1,1-0.1,1.5
	c0,0.3,0,0.6,0,0.9c0,0.5,0,1,0,1.5c0,0.3,0,0.7,0,1c0,0.5,0,1,0,1.4s0,0.7,0,1.1c0,0.5,0,1,0,1.5c0,0.4,0,0.8,0,1.1
	c0,0.5,0,1,0,1.5c0,0.4,0,0.8,0,1.2c0,0.5,0,1,0,1.5c0,0.4,0,0.8,0,1.2c0,0.5,0,1,0,1.5c0,0.4,0,0.8,0,1.2c0,0.5,0,1.1,0.1,1.6
	c0,0.4,0,0.8,0.1,1.2c0,0.5,0,1.1,0.1,1.6c0,0.4,0,0.8,0.1,1.2c0,0.6,0.1,1.1,0.1,1.7c0,0.4,0,0.8,0.1,1.2c0,0.6,0.1,1.1,0.1,1.7
	c0,0.4,0,0.8,0.1,1.2c0,0.6,0.1,1.2,0.1,1.7c0,0.4,0.1,0.8,0.1,1.2c0,0.6,0.1,1.2,0.1,1.8c0,0.4,0.1,0.7,0.1,1.1
	c0,0.6,0.1,1.3,0.1,1.9c0,0.3,0,0.6,0.1,0.9c0.1,0.7,0.1,1.4,0.2,2.1c0,0.3,0,0.5,0.1,0.8c0.2,1.9,0.3,3.8,0.5,5.6
	c0,0.1,0,0.2,0,0.3c0.1,0.8,0.1,1.6,0.2,2.4c0,0.3,0.1,0.5,0.1,0.8c0.1,0.6,0.1,1.2,0.2,1.8c0,0.3,0.1,0.6,0.1,0.9
	c0.1,0.5,0.1,1.1,0.2,1.6c0,0.3,0.1,0.7,0.1,1c0.1,0.5,0.1,1,0.2,1.5c0,0.3,0.1,0.7,0.1,1c0,0.5,0.1,0.9,0.1,1.4
	c0,0.3,0.1,0.6,0.1,1c0,0.5,0.1,0.9,0.1,1.3c0,0.3,0.1,0.6,0.1,0.9c0,0.4,0.1,0.8,0.1,1.2c0,0.3,0.1,0.6,0.1,0.9
	c0,0.4,0.1,0.7,0.1,1.1c0,0.3,0.1,0.6,0.1,0.9s0.1,0.7,0.1,1s0.1,0.6,0.1,0.8c0,0.3,0.1,0.6,0.1,0.9s0.1,0.5,0.1,0.8
	s0.1,0.5,0.1,0.8c0,0.2,0.1,0.5,0.1,0.7s0.1,0.5,0.1,0.7s0.1,0.5,0.1,0.7v0.1c-9.7,0.7-37,2.6-60.1,3.3v-17.2c0-5.1-4.1-9.2-9.2-9.2
	h-11.6c-5.1,0-9.2,4.1-9.2,9.2v17.2c-23.1-0.7-50.4-2.6-60.1-3.3c0-0.4,0.1-0.7,0.1-1.1c0-0.1,0-0.1,0-0.2c0-0.3,0.1-0.7,0.1-1.1
	c0-0.2,0-0.3,0.1-0.5c0-0.3,0.1-0.7,0.1-1c0-0.2,0.1-0.5,0.1-0.7c0-0.3,0.1-0.7,0.1-1s0.1-0.6,0.1-0.8c0-0.3,0.1-0.7,0.1-1
	s0.1-0.6,0.1-1c0-0.3,0.1-0.7,0.1-1c0-0.4,0.1-0.7,0.1-1.1c0-0.3,0.1-0.7,0.1-1c0-0.4,0.1-0.8,0.1-1.2c0-0.3,0.1-0.7,0.1-1
	c0-0.4,0.1-0.9,0.1-1.3s0.1-0.7,0.1-1.1c0-0.5,0.1-0.9,0.1-1.4c0-0.4,0.1-0.7,0.1-1.1c0.1-0.5,0.1-1,0.2-1.5c0-0.3,0.1-0.7,0.1-1
	c0.1-0.5,0.1-1.1,0.2-1.7c0-0.3,0.1-0.7,0.1-1c0.1-0.7,0.1-1.4,0.2-2.2c0-0.2,0-0.3,0-0.5c0.1-0.9,0.2-1.9,0.2-2.8
	c0-0.1,0-0.2,0-0.2c0.1-0.8,0.1-1.7,0.2-2.6c0-0.3,0.1-0.6,0.1-0.9c0.1-0.6,0.1-1.3,0.2-1.9c0-0.4,0.1-0.7,0.1-1.1
	c0-0.6,0.1-1.2,0.1-1.8c0-0.4,0.1-0.8,0.1-1.2c0-0.6,0.1-1.1,0.1-1.7c0-0.4,0.1-0.8,0.1-1.3s0.1-1.1,0.1-1.6c0-0.4,0.1-0.9,0.1-1.3
	c0-0.5,0.1-1.1,0.1-1.6c0-0.4,0-0.9,0.1-1.3c0-0.5,0.1-1.1,0.1-1.6c0-0.4,0-0.8,0.1-1.3c0-0.5,0.1-1.1,0.1-1.6c0-0.4,0-0.8,0.1-1.3
	c0-0.5,0-1,0.1-1.6c0-0.4,0-0.8,0-1.3s0-1,0-1.5c0-0.4,0-0.8,0-1.2c0-0.5,0-1,0-1.5c0-0.4,0-0.8,0-1.2c0-0.5,0-1,0-1.4s0-0.8,0-1.2
	c0-0.5,0-1,0-1.4s0-0.8,0-1.1c0-0.5,0-0.9,0-1.4c0-0.4,0-0.7,0-1.1c0-0.5,0-1,0-1.4c0-0.3,0-0.6,0-0.9c0-0.5,0-1-0.1-1.5
	c0-0.2,0-0.5,0-0.7c0-0.7-0.1-1.5-0.1-2.2c0-0.2,0-0.4-0.1-0.7c0-0.4-0.1-0.8-0.1-1.3c0-0.3,0-0.6-0.1-0.8c0-0.4-0.1-0.7-0.1-1.1
	c0-0.3-0.1-0.6-0.1-0.9c0-0.4-0.1-0.7-0.1-1.1c0-0.3-0.1-0.6-0.1-0.9s-0.1-0.7-0.1-1s-0.1-0.6-0.1-0.9s-0.1-0.7-0.1-1
	s-0.1-0.6-0.1-0.8c0-0.3-0.1-0.7-0.1-1s-0.1-0.5-0.1-0.8s-0.1-0.7-0.1-1s-0.1-0.5-0.1-0.8c0-0.4-0.1-0.7-0.1-1
	c0-0.2-0.1-0.5-0.1-0.7c0-0.4-0.1-0.7-0.1-1.1c0-0.2-0.1-0.5-0.1-0.7c0-0.4-0.1-0.7-0.1-1.1c0-0.2-0.1-0.4-0.1-0.6
	c-0.1-0.4-0.1-0.8-0.2-1.1c0-0.2-0.1-0.4-0.1-0.5c-0.1-0.4-0.1-0.9-0.2-1.3c0-0.1,0-0.2-0.1-0.3c-0.1-0.5-0.2-1.1-0.2-1.6l0,0
	c-1.4-9.3-2.9-16.7-3.7-20.3c5.7-3.8,19.7-15.1,20.5-35.4c0.8-18.3-7.6-34.1-12.1-41.1l35-13.4c3.2,12.1,13.1,29.8,33.6,29.8
	c20.5,0,30.3-17.6,33.6-29.8l35,13.4c-4.5,7-12.9,22.8-12.1,41.1c0.9,20.2,14.9,31.6,20.5,35.4c-0.2,0.8-0.4,1.8-0.6,2.9l0,0
	c-0.1,0.3-0.1,0.5-0.2,0.8v0.1c-0.1,0.3-0.1,0.5-0.2,0.8c0,0.1,0,0.1,0,0.2c-0.1,0.3-0.1,0.5-0.2,0.8c0,0.1,0,0.2,0,0.3
	c0,0.3-0.1,0.5-0.2,0.8c0,0.1,0,0.2-0.1,0.3c0,0.3-0.1,0.5-0.1,0.8c0,0.1,0,0.3-0.1,0.4c0,0.3-0.1,0.5-0.1,0.8
	c0,0.1-0.1,0.3-0.1,0.4c0,0.3-0.1,0.5-0.1,0.8c0,0.2-0.1,0.3-0.1,0.5c0,0.3-0.1,0.6-0.1,0.8c0,0.1-0.1,0.3-0.1,0.4
	c-0.1,0.3-0.1,0.6-0.2,0.9c0,0.2-0.1,0.3-0.1,0.5c-0.1,0.3-0.1,0.6-0.2,0.9c0,0.1,0,0.2-0.1,0.3c-0.2,1.1-0.4,2.3-0.6,3.6
	c0,0.2-0.1,0.3-0.1,0.5c-0.1,0.3-0.1,0.6-0.2,1c0,0.2-0.1,0.4-0.1,0.6c0,0.3-0.1,0.6-0.1,0.9c0,0.2-0.1,0.5-0.1,0.7
	c0,0.3-0.1,0.6-0.1,0.9c0,0.2-0.1,0.5-0.1,0.7c0,0.3-0.1,0.6-0.1,0.9s-0.1,0.5-0.1,0.8s-0.1,0.6-0.1,0.9s-0.1,0.6-0.1,0.8
	c0,0.3-0.1,0.6-0.1,0.9s-0.1,0.6-0.1,0.9s-0.1,0.6-0.1,0.9s-0.1,0.6-0.1,0.9s-0.1,0.6-0.1,0.9s-0.1,0.6-0.1,0.9s-0.1,0.6-0.1,0.9
	s-0.1,0.6-0.1,0.9s-0.1,0.6-0.1,0.9s-0.1,0.6-0.1,1c0,0.3-0.1,0.6-0.1,0.9s-0.1,0.7-0.1,1s-0.1,0.6-0.1,0.9c0,0.4-0.1,0.7-0.1,1.1
	c0,0.3-0.1,0.5-0.1,0.8c0,0.4-0.1,0.8-0.1,1.2c0,0.2,0,0.5-0.1,0.7c-0.1,0.6-0.1,1.3-0.2,1.9C528.6,1088.5,528.5,1089.2,528.5,1090z
	"/>
<g>
	<path d="M718.3,1055.7c0-1,0-1.9,0-2.9c0-22.5,0-45,0-67.5c0-9.2,6.6-16.3,15.8-17.3c8.5-0.9,16.6,5.1,18.4,13.7
		c0.3,1.5,0.3,3.1,0.3,4.6c0,8.9,0,17.8,0,26.8c0,0.9,0,1.8,0,3.1c5.5-2.9,10.9-3.6,16.5-1c5.5,2.5,8.6,6.9,10,12.9
		c5.4-3,10.9-3.7,16.5-1.2s8.8,6.9,10,12.4c3.3-0.7,6.6-1.9,9.9-2c9.3-0.2,17,7.5,17.1,16.7c0.1,21.4,0.3,42.8,0,64.2
		c-0.6,32.9-26.8,62.1-59,67.1c-38.7,6-71.8-19.9-78.6-56.3c-4.6-24.7-8.6-49.5-12.8-74.2c-1.6-9.5,4.8-18.1,14.4-19.7
		c9-1.6,17.8,4.6,19.6,13.8c0.5,2.3,0.9,4.7,1.4,7C718,1055.8,718.2,1055.7,718.3,1055.7z M726.3,1042.3c0,18.5,0,36.9,0,55.4
		c0,4.1-1,5.8-3.5,6.1c-2.7,0.3-4.1-1.2-4.9-5.2c-3-15.6-6-31.2-9-46.8c-0.3-1.6-0.9-3.3-1.7-4.7c-2.3-3.7-6.9-5-11-3.4
		c-4.4,1.7-6.5,5.9-5.6,11.2c4.2,24.1,8.2,48.3,12.6,72.4c5.8,32,34.8,55.6,69.4,50.2c28.4-4.5,51.6-30,52.3-58.8
		c0.5-21.4,0.2-42.8,0-64.2c0-2-1.2-4.4-2.5-6c-2.3-3-6.4-3.8-9.9-2.5c-3.7,1.3-6.1,4.7-6.1,8.8c-0.1,8.7,0,17.4,0,26.1
		c0,2.6-1.8,4.4-4.1,4.4c-2.2-0.1-3.8-1.8-3.9-4.4c0-0.7,0-1.4,0-2.1c0-11.6,0-23.3,0-34.9c0-3.6-1.2-6.6-4.2-8.6
		c-2.9-2-6.1-2.2-9.3-0.6c-3.3,1.7-5.1,4.5-5.1,8.2c0,8.2,0,16.4,0,24.7c0,0.8,0,1.7-0.2,2.5c-0.5,2-1.9,3-3.9,3
		c-1.9,0-3.3-1-3.7-2.9c-0.2-0.9-0.2-1.8-0.2-2.8c0-11.9,0-23.7,0-35.6c0-3.9-1.5-6.9-5-8.8c-6.3-3.4-13.6,1.2-13.6,8.7
		c-0.1,11.8,0,23.6,0,35.4c0,0.8,0,1.6,0,2.3c-0.2,2.1-1.8,3.6-3.8,3.7c-2.1,0.1-3.9-1.5-4.1-3.6c-0.1-0.8,0-1.5,0-2.3
		c0-15.1,0-30.3,0-45.4c0-11.9,0-23.9,0-35.8c0-3.8-1.6-6.8-5-8.6c-6.3-3.4-13.6,1.2-13.6,8.6
		C726.3,1004.6,726.3,1023.4,726.3,1042.3z"/>
	<path d="M735.9,930.1c20.9,0.9,37.4,9.9,47.7,28.5c10.2,18.3,9.5,37-0.8,55.2c-1.7,3-4.3,3.8-6.5,2.1c-1.8-1.4-2-3.5-0.5-6
		c4.7-7.9,7-16.5,6.8-25.7c-0.4-23.3-19.1-43.6-42.2-45.7c-24.5-2.2-46.6,14.1-51,37.6c-3.6,19.2,4.3,38,20.6,48.8
		c1.7,1.1,3.1,2.4,2.7,4.7c-0.4,3-3.6,4.3-6.5,2.5c-8.1-5-14.3-11.8-18.9-20.1c-18.8-34.1,2.7-76.3,41.3-81.3
		C731,930.4,733.3,930.3,735.9,930.1z"/>
	<path d="M735.6,946.5c29.6,0.2,48.2,32.3,33.6,58c-1,1.7-2.1,3.1-4.3,3.1c-3.1-0.1-4.8-3.4-3.1-6.3c2.3-4,3.7-8.1,4.3-12.7
		c2-16.8-10.6-32-27.9-33.7c-16.2-1.6-31.4,11.2-32.8,27.5c-0.7,8.4,1.5,15.8,6.7,22.3c1.3,1.6,1.7,3.3,0.5,5.1
		c-1,1.6-2.5,2.2-4.2,1.6c-1-0.3-2-1.1-2.7-2c-17.9-21.7-6.2-55.6,21.3-61.7C729.7,947.2,732.6,947,735.6,946.5z"/>
</g>
<g>
	<path d="M1514.4,980.7h-39.5c-0.3-5.6-4.9-10-10.5-10h-39.5c-0.3-5.6-4.9-10-10.5-10h-39.5c-0.3-5.6-4.9-10-10.5-10h-48
		c-5.8,0-10.5,4.7-10.5,10.5v128c0,5.8,4.7,10.5,10.5,10.5h19.5v35.5h9v-35.5h11c0.3,5.6,4.9,10,10.5,10h19.5v35.5h9v-35.5h11
		c0.3,5.6,4.9,10,10.5,10h19.5v35.5h9v-35.5h11c0.3,5.6,4.9,10,10.5,10h19.5v35.5h9v-35.5h19.5c5.8,0,10.5-4.7,10.5-10.5v-128
		C1524.9,985.4,1520.2,980.7,1514.4,980.7z M1515.9,1119.2c0,0.8-0.7,1.5-1.5,1.5h-48c-0.7,0-1.2-0.4-1.4-1c0-0.1-0.1-0.3-0.1-0.5
		v-4v-4.6V991.2c0-0.7,0.4-1.2,1-1.4c0.2-0.1,0.3-0.1,0.5-0.1h4h4.5h39.5c0.8,0,1.5,0.7,1.5,1.5V1119.2z M1314.9,1089.2v-128
		c0-0.8,0.7-1.5,1.5-1.5h48c0.7,0,1.2,0.4,1.4,1c-5.5,0.3-9.9,4.9-9.9,10.5v119.5h-39.5C1315.6,1090.7,1314.9,1090,1314.9,1089.2z
		 M1365,1099.6c0-0.1-0.1-0.3-0.1-0.5v-4v-4.6V971.1c0-0.7,0.4-1.2,1-1.4c0.2-0.1,0.3-0.1,0.5-0.1h4h4.5h39.5c0.7,0,1.2,0.4,1.4,1
		c-5.5,0.3-9.9,4.9-9.9,10.5v119.5h-39.5C1365.8,1100.7,1365.2,1100.2,1365,1099.6z M1415,1109.6c0-0.1-0.1-0.3-0.1-0.5v-4v-4.6
		V981.1c0-0.7,0.4-1.2,1-1.4c0.2-0.1,0.3-0.1,0.5-0.1h4h4.5h39.5c0.7,0,1.2,0.4,1.4,1c-5.5,0.3-9.9,4.9-9.9,10.5v119.5h-39.5
		C1415.8,1110.7,1415.2,1110.2,1415,1109.6z"/>
	<polygon points="1485.9,1206.7 1444.9,1206.7 1444.9,1173.7 1435.9,1173.7 1435.9,1206.7 1394.9,1206.7 1394.9,1163.7 
		1385.9,1163.7 1385.9,1206.7 1344.9,1206.7 1344.9,1153.7 1335.9,1153.7 1335.9,1206.7 1293.8,1206.7 1293.8,1215.7 1494.9,1215.7 
		1494.9,1185.2 1485.9,1185.2 	"/>
</g>
<g>
	<path d="M1813.4,150.8c-14.9-15.9-31.5-29.8-50.1-41.3c-2-1.2-3.9-2.5-7.1-4.6c11.7-11.3,22.6-22,33.3-32.4
		c-4.9-5-9.5-9.8-13.3-13.7C1742,93,1636.6,198.4,1587.7,247.3c4,4.2,8.6,8.9,13.5,14c15.3-15.3,19.1-18.8,34.3-34.5
		c3.6-3.7,6.4-4.5,11.4-2.4c26.5,11.6,53.6,12.3,80.9,2.9c34-11.6,61.3-33.1,85.6-58.8C1819.7,161.9,1819.7,157.5,1813.4,150.8z
		 M1724.8,196.9c-17.5,16.5-46.3,18.8-63.8,4.4c6.2-6.1,12.4-12.3,18.6-18.3c3.1,1.4,6.6,2.2,10.3,2.2c14.1,0,25.5-11.4,25.5-25.5
		c0-3.7-0.8-7.2-2.2-10.3c5.8-6.2,11.9-12.2,17.9-18.4C1746,150.8,1743,179.8,1724.8,196.9z"/>
	<path d="M1635.4,173.1c3.1-3,4.2-6,4-10.4c-1.6-31.8,24.2-56.4,56-53.9c1.8,0.1,4.2-0.2,5.3-1.3c5.8-5.4,11.3-11.1,17.5-17.2
		c-12.4-4.6-31.2-5.6-46.9-2.6c-43.3,8.4-76.4,33.7-105.8,64.7c-4,4.2-4.6,9.7-0.3,13.8c13.1,12.4,26.8,24.3,40.4,36.7
		C1616.2,192.1,1625.6,182.5,1635.4,173.1z"/>
</g>
<g>
	<path class="st1" d="M-203.9,1160.8c-19.3,0-38.6,0.7-57.9-0.2c-35.3-1.7-66.5-31.7-69.2-67.1c-1.4-18.8-0.7-37.8-0.8-56.6
		c-0.1-18.3-0.1-36.7,0-55c0.2-37.1,25.4-67.9,61.7-75.2c4.5-0.9,9.2-1.3,13.7-1.3c35.1-0.1,70.1-0.2,105.2,0
		c33.8,0.2,63.3,22.8,72.2,55.4c1.9,6.9,2.8,14.2,2.9,21.3c0.3,33.6,0.2,67.1,0.1,100.7c-0.1,38.2-24.2,68.7-60.5,76.6
		c-5.9,1.3-12.1,1.6-18.2,1.7c-16.4,0.2-32.9,0.1-49.3,0.1C-203.9,1161-203.9,1160.9-203.9,1160.8z M-101.7,1033.1
		C-101.7,1033.1-101.7,1033.1-101.7,1033.1c0-16.7,0.1-33.4-0.1-50.2c-0.1-4.7-0.4-9.6-1.6-14.1c-5.9-22.9-25.6-37.9-49.8-37.9
		c-33.6-0.1-67.1-0.1-100.7,0c-3.8,0-7.6,0.3-11.3,1.1c-24.1,4.9-40.5,24.9-40.6,49.6c-0.1,32.6-0.1,65.2,0,97.9
		c0,4.3-0.1,8.8,0.6,13c4.3,25.5,24.7,42.8,50.7,42.8c33.7,0.1,67.4,0,101.1,0c29.8,0,51.7-21.9,51.8-51.7
		C-101.6,1066.8-101.7,1049.9-101.7,1033.1z"/>
	<path class="st1" d="M-203.3,967c36.9,0.4,65.9,30.3,65.5,67.4c-0.4,36-30.7,65.4-66.8,65c-36.7-0.4-65.8-30.6-65.3-67.7
		C-269.5,995.9-239.3,966.6-203.3,967z M-203.8,1073.5c22.6-0.1,40.6-18.4,40.4-40.8c-0.3-22.3-18.5-40.1-40.9-40
		c-22,0.2-40.1,18.5-40,40.5C-244.2,1055.6-226.1,1073.6-203.8,1073.5z"/>
	<path class="st1" d="M-137.6,951.6c8.8,0,15.9,6.9,16,15.6c0.1,8.7-7.3,16.1-16.1,16.1c-8.8-0.1-15.7-7.1-15.7-15.9
		C-153.3,958.5-146.4,951.6-137.6,951.6z"/>
</g>
<g>
	<path class="st1" d="M-81.1,145.3c0.3,67.3-54.8,122.5-122.4,122.7c-67.8,0.2-122.8-54.5-123.2-122.4
		c-0.3-67.6,54.7-122.9,122.5-123.1C-136.2,22.3-81.4,77-81.1,145.3z M-203.9,223.4c0,0.1,0,0.2,0,0.2c10.1,0,20.2,0.1,30.3,0
		c3.7-0.1,7.5-0.3,11.2-1.1c22.3-4.9,37.1-23.6,37.2-47.1c0.1-20.6,0.1-41.2-0.1-61.9c0-4.4-0.6-8.9-1.8-13.1
		c-5.5-20-23.6-33.9-44.4-34c-21.5-0.1-43.1-0.1-64.6,0c-2.8,0-5.7,0.3-8.4,0.8c-22.3,4.5-37.8,23.4-37.9,46.2
		c-0.1,11.3-0.1,22.5,0,33.8c0.1,11.6-0.4,23.2,0.5,34.8c1.6,21.7,20.8,40.2,42.5,41.2C-227.6,223.9-215.7,223.4-203.9,223.4z"/>
	<path d="M-203.9,223.4c-11.9,0-23.7,0.5-35.6-0.1c-21.7-1-40.9-19.5-42.5-41.2c-0.9-11.5-0.4-23.2-0.5-34.8
		c-0.1-11.3-0.1-22.5,0-33.8c0.1-22.8,15.6-41.7,37.9-46.2c2.8-0.6,5.6-0.8,8.4-0.8c21.5-0.1,43.1-0.1,64.6,0
		c20.8,0.1,38.9,14,44.4,34c1.2,4.2,1.7,8.7,1.8,13.1c0.2,20.6,0.1,41.2,0.1,61.9c-0.1,23.4-14.9,42.2-37.2,47.1
		c-3.6,0.8-7.4,1-11.2,1.1c-10.1,0.1-20.2,0-30.3,0C-203.9,223.6-203.9,223.5-203.9,223.4z M-141,145C-141,145-141,145-141,145
		c0-10.3,0.1-20.5-0.1-30.8c0-2.9-0.3-5.9-1-8.7c-3.6-14.1-15.8-23.3-30.6-23.3c-20.6-0.1-41.2,0-61.9,0c-2.3,0-4.7,0.2-7,0.7
		c-14.8,3-24.9,15.3-25,30.5c-0.1,20,0,40.1,0,60.1c0,2.7-0.1,5.4,0.4,8c2.6,15.7,15.2,26.3,31.2,26.3c20.7,0,41.4,0,62.1,0
		c18.3,0,31.8-13.5,31.8-31.8C-141,165.7-141,155.4-141,145z"/>
	<path class="st1" d="M-141,145c0,10.4,0,20.7,0,31.1c-0.1,18.3-13.6,31.7-31.8,31.8c-20.7,0-41.4,0-62.1,0
		c-16,0-28.5-10.6-31.2-26.3c-0.4-2.6-0.3-5.3-0.4-8c0-20-0.1-40.1,0-60.1c0.1-15.2,10.2-27.5,25-30.5c2.3-0.5,4.6-0.6,7-0.7
		c20.6,0,41.2-0.1,61.9,0c14.9,0,27,9.2,30.6,23.3c0.7,2.8,0.9,5.8,1,8.7C-141,124.5-141,134.7-141,145C-141,145-141,145-141,145z
		 M-203.5,104.4c-22.1-0.3-40.7,17.8-40.9,39.7c-0.3,22.8,17.6,41.3,40.1,41.6c22.2,0.3,40.8-17.8,41.1-39.9
		C-163,123-180.8,104.7-203.5,104.4z M-163.1,94.9c-5.4,0-9.7,4.3-9.7,9.7c0,5.4,4.2,9.7,9.6,9.8c5.4,0.1,9.9-4.5,9.9-9.9
		C-153.4,99.2-157.7,94.9-163.1,94.9z"/>
	<path d="M-203.5,104.4c22.7,0.3,40.5,18.6,40.3,41.4c-0.2,22.1-18.9,40.2-41.1,39.9c-22.6-0.3-40.4-18.8-40.1-41.6
		C-244.2,122.2-225.6,104.2-203.5,104.4z M-203.8,169.8c13.9-0.1,25-11.3,24.8-25.1c-0.2-13.7-11.3-24.7-25.1-24.6
		c-13.5,0.1-24.7,11.4-24.6,24.9C-228.6,158.8-217.5,169.9-203.8,169.8z"/>
	<path d="M-163.1,94.9c5.4,0,9.8,4.3,9.8,9.6c0.1,5.4-4.5,9.9-9.9,9.9c-5.4-0.1-9.6-4.4-9.6-9.8C-172.8,99.2-168.5,94.9-163.1,94.9z
		"/>
	<path class="st1" d="M-203.8,169.8c-13.7,0.1-24.8-11-24.9-24.8c-0.1-13.5,11.1-24.8,24.6-24.9c13.8-0.1,24.9,10.8,25.1,24.6
		C-178.8,158.5-189.9,169.7-203.8,169.8z"/>
</g>
</svg>
