<svg enable-background="new 0 0 2202.4 1522.1" viewBox="0 0 2202.4 1522.1" xmlns="http://www.w3.org/2000/svg" xmlns:xlink="http://www.w3.org/1999/xlink"><radialGradient id="a" cx="43.5767" cy="40.6373" gradientTransform="matrix(1.0001 0 0 -1.0001 -.012573 1522.116)" gradientUnits="userSpaceOnUse" r="324.996"><stop offset=".09" stop-color="#fa8f21"/><stop offset=".78" stop-color="#d82d7e"/></radialGradient><radialGradient id="b" cx="204.3166" cy="48.8567" gradientTransform="matrix(1.0001 0 0 -1.0001 -.012573 1522.116)" gradientUnits="userSpaceOnUse" r="285.9995"><stop offset=".64" stop-color="#8c3aaa" stop-opacity="0"/><stop offset="1" stop-color="#8c3aaa"/></radialGradient><path d="m-89.9 1231.6h-227.7c-7.8 0-14.1 6.3-14.1 14.1v227.7c0 7.8 6.3 14.1 14.1 14.1h122.6v-99h-33.2v-38.8h33.2v-28.5c0-33.1 20.2-51.1 49.7-51.1 14.1 0 26.3 1.1 29.8 1.5v34.6h-20.3c-16.1 0-19.2 7.6-19.2 18.8v24.7h38.4l-5 38.8h-33.4v99h65.1c7.8 0 14.1-6.3 14.1-14.1v-227.7c0-7.7-6.3-14.1-14.1-14.1z" fill="none"/><path d="m-155 1487.6v-99h33.4l5-38.8h-38.4v-24.7c0-11.2 3.1-18.8 19.2-18.8h20.3v-34.6c-3.5-.5-15.7-1.5-29.8-1.5-29.5 0-49.7 18-49.7 51.1v28.5h-33.2v38.7h33.2v99h40z" fill="#fff"/><path d="m571.9 1231.6h-227.8c-7.8 0-14.1 6.3-14.1 14.1v227.7c0 7.8 6.3 14.1 14.1 14.1h122.6v-99h-33.2v-38.8h33.2v-28.5c0-33.1 20.2-51.1 49.7-51.1 14.1 0 26.3 1.1 29.8 1.5v34.6h-20.3c-16 0-19.2 7.6-19.2 18.8v24.7h38.4l-5 38.8h-33.4v99h65.1c7.8 0 14.1-6.3 14.1-14.1v-227.7c.1-7.7-6.2-14.1-14-14.1z" fill="#4267b2"/><path d="m506.7 1487.6v-99h33.4l5-38.8h-38.4v-24.7c0-11.2 3.1-18.8 19.2-18.8h20.3v-34.6c-3.5-.5-15.7-1.5-29.8-1.5-29.5 0-49.7 18-49.7 51.1v28.5h-33.2v38.7h33.2v99h40z" fill="#fff"/><path d="m-94.3 597.9h-227.7c-7.8 0-14.1 6.3-14.1 14.1v227.7c0 7.8 6.3 14.1 14.1 14.1h122.6v-99h-33.2v-38.8h33.2v-28.5c0-33.1 20.2-51.1 49.7-51.1 14.1 0 26.3 1.1 29.8 1.5v34.6h-20.4c-16 0-19.1 7.6-19.1 18.8v24.7h38.4l-5 38.8h-33.4v99h65.1c7.8 0 14.1-6.3 14.1-14.1v-227.6c0-7.8-6.3-14.2-14.1-14.2z" fill="#fff"/><path d="m91.9 1486.2c-15.2-.7-23.5-3.2-29-5.4-7.3-2.8-12.5-6.2-18-11.7s-8.9-10.7-11.7-17.9c-2.1-5.5-4.7-13.8-5.4-29-.8-16.5-.9-21.4-.9-63.1s.2-46.6.9-63.1c.7-15.2 3.2-23.5 5.4-29 2.8-7.3 6.2-12.5 11.7-18s10.7-8.9 18-11.7c5.5-2.1 13.8-4.7 29-5.4 16.5-.8 21.4-.9 63.1-.9s46.6.2 63.1.9c15.2.7 23.5 3.2 29 5.4 7.3 2.8 12.5 6.2 18 11.7s8.8 10.7 11.7 18c2.1 5.5 4.7 13.8 5.4 29 .8 16.5.9 21.4.9 63.1s-.2 46.6-.9 63.1c-.7 15.2-3.2 23.5-5.4 29-2.8 7.3-6.2 12.5-11.7 17.9-5.5 5.5-10.7 8.8-18 11.7-5.5 2.1-13.8 4.7-29 5.4-16.5.8-21.4.9-63.1.9s-46.6-.2-63.1-.9" fill="url(#a)"/><path d="m91.9 1486.2c-15.2-.7-23.5-3.2-29-5.4-7.3-2.8-12.5-6.2-18-11.7s-8.9-10.7-11.7-17.9c-2.1-5.5-4.7-13.8-5.4-29-.8-16.5-.9-21.4-.9-63.1s.2-46.6.9-63.1c.7-15.2 3.2-23.5 5.4-29 2.8-7.3 6.2-12.5 11.7-18s10.7-8.9 18-11.7c5.5-2.1 13.8-4.7 29-5.4 16.5-.8 21.4-.9 63.1-.9s46.6.2 63.1.9c15.2.7 23.5 3.2 29 5.4 7.3 2.8 12.5 6.2 18 11.7s8.8 10.7 11.7 18c2.1 5.5 4.7 13.8 5.4 29 .8 16.5.9 21.4.9 63.1s-.2 46.6-.9 63.1c-.7 15.2-3.2 23.5-5.4 29-2.8 7.3-6.2 12.5-11.7 17.9-5.5 5.5-10.7 8.8-18 11.7-5.5 2.1-13.8 4.7-29 5.4-16.5.8-21.4.9-63.1.9s-46.6-.2-63.1-.9" fill="url(#b)"/><path d="m123.6 1359.6c0-17.5 14.2-31.7 31.7-31.7s31.7 14.2 31.7 31.7-14.2 31.7-31.7 31.7-31.7-14.2-31.7-31.7m-17.2 0c0 27 21.9 48.8 48.8 48.8s48.8-21.9 48.8-48.8-21.9-48.8-48.8-48.8-48.8 21.9-48.8 48.8m88.2-50.7c0 6.3 5.1 11.4 11.4 11.4s11.4-5.1 11.4-11.4-5.1-11.4-11.4-11.4c-6.3 0-11.4 5.1-11.4 11.4m-77.8 128.1c-9.3-.4-14.3-2-17.7-3.3-4.4-1.7-7.6-3.8-10.9-7.1s-5.4-6.5-7.1-10.9c-1.3-3.3-2.9-8.4-3.3-17.7-.5-10-.6-13-.6-38.4s.1-28.4.6-38.4c.4-9.3 2-14.3 3.3-17.7 1.7-4.4 3.8-7.6 7.1-10.9s6.5-5.4 10.9-7.1c3.3-1.3 8.4-2.9 17.7-3.3 10-.5 13-.6 38.4-.6s28.4.1 38.4.6c9.3.4 14.3 2 17.7 3.3 4.4 1.7 7.6 3.8 10.9 7.1s5.4 6.5 7.1 10.9c1.3 3.3 2.9 8.4 3.3 17.7.5 10 .6 13 .6 38.4s-.1 28.4-.6 38.4c-.4 9.3-2 14.3-3.3 17.7-1.7 4.4-3.8 7.6-7.1 10.9s-6.5 5.4-10.9 7.1c-3.3 1.3-8.4 2.9-17.7 3.3-10 .5-13 .6-38.4.6s-28.3-.1-38.4-.6m-.7-171.9c-10.1.5-17 2.1-23.1 4.4-6.3 2.4-11.6 5.7-16.8 11-5.3 5.3-8.5 10.6-11 16.8-2.4 6-4 13-4.4 23.1-.5 10.1-.6 13.4-.6 39.2s.1 29.1.6 39.2 2.1 17 4.4 23.1c2.4 6.3 5.7 11.6 11 16.8 5.3 5.3 10.6 8.5 16.8 11 6.1 2.4 13 4 23.1 4.4 10.1.5 13.4.6 39.2.6s29.1-.1 39.2-.6 17-2.1 23.1-4.4c6.3-2.4 11.6-5.7 16.8-11s8.5-10.6 11-16.8c2.4-6 4-13 4.4-23.1.5-10.1.6-13.4.6-39.2s-.1-29.1-.6-39.2-2.1-17-4.4-23.1c-2.4-6.3-5.7-11.6-11-16.8-5.3-5.3-10.6-8.5-16.8-11-6.1-2.4-13-4-23.1-4.4-10.1-.5-13.4-.6-39.2-.6s-29.1.1-39.2.6" fill="#fff"/><circle cx="-208.2" cy="423.7" fill="#fff" r="128"/><path d="m-194.9 509.2v-78h26.2l3.9-30.4h-30.1v-19.4c0-8.8 2.4-14.8 15.1-14.8h16.1v-27.2c-2.8-.4-12.3-1.2-23.5-1.2-23.2 0-39.1 14.2-39.1 40.2v22.4h-26.3v30.4h26.3v78z"/><path d="m1175.5 994.2c-.7-.2-1.3-.4-2.1-.6.7 1.1 1 2.3 1 3.6 0 1.6-.7 3.4-2.1 4.9.4.4.8.8 1.2 1.2 6.2 2.2 9.4 4.7 9.4 6.2 0 3.3-14.3 10.9-42 10.9s-42-7.6-42-10.9c0-3.2 13.4-10.4 39.2-10.9-.1-.5-.2-1-.2-1.4 0-1.9.9-3.9 2.7-5.5-.6-.7-1.1-1.4-1.4-2.2-12.4.1-23.9 1.8-32.8 4.8-13.9 4.6-16.8 10.9-16.8 15.3v51.6 125h9.3v-112.9c2.1 1.1 4.5 2.1 7.5 3.2 9.3 3.1 21.5 4.8 34.4 4.8s25.1-1.7 34.4-4.8c3-1 5.5-2 7.5-3.2v112.9h9.3v-125-51.6c.3-4.5-2.6-10.8-16.5-15.4zm-34.5 77.8c-27.7 0-42-7.6-42-10.9v-39.5c2.1 1.1 4.5 2.1 7.5 3.2 9.3 3.1 21.5 4.8 34.4 4.8s25.1-1.7 34.4-4.8c3-1 5.5-2 7.5-3.2v39.5c.2 3.2-14.1 10.9-41.8 10.9z"/><path d="m1063.8 1043.5c-9.3-3.1-21.5-4.8-34.4-4.8s-25.1 1.7-34.4 4.8c-13.9 4.6-16.8 10.9-16.8 15.3v18.6c.2.2.5.3.7.5 1.6-1.5 3.5-2.4 5.8-2.4 1 0 2 .2 2.8.5v-15.5l41 16.8v37l-9.9-4.9c-.5.1-1 .2-1.5.2-2.4 0-4.2-1-5.8-2.6-1.5 1.3-3.3 1.9-5 1.9-2 0-4-.8-5.7-2.5-1.4 1.2-3.1 1.8-4.9 1.9l25.9 12.8c-22.5-1.3-34-7.7-34-10.7v-3.3c-.9.3-1.9.5-2.8.5-2.2 0-4.1-.9-5.8-2.4-.2.2-.5.3-.7.5v4.7 75.7h9.3v-63.6c2.1 1.1 4.5 2.1 7.5 3.2 9.3 3.1 21.5 4.8 34.4 4.8s25.1-1.7 34.4-4.8c3-1 5.5-2 7.5-3.2v63.6h9.3v-75.8-51.5c-.1-4.5-3-10.7-16.9-15.3zm-26.1 77.5v-42.5c10.4-.6 20.1-2.3 27.4-5 2.5-.9 4.5-1.8 6.3-2.7v39.5c0 3-11.5 9.4-33.7 10.7zm-3.9-51.4-39.4-16.2c6.8-2.9 18.5-5.6 34.9-5.6 27.7 0 42 7.6 42 10.9.1 2.8-11.5 10.1-37.5 10.9z"/><path d="m943.7 1083.5c-.7-.5-1.4-.8-2.3-.8-3 0-5.4 4-5.4 9s2.4 9 5.4 9c.8 0 1.5-.3 2.3-.8 1.9-1.4 3.1-4.5 3.1-8 0-3.8-1.3-7-3.1-8.4z"/><path d="m952.2 1082c-.9 0-1.9.4-2.6 1.2-1.6 1.6-2.8 4.8-2.8 8.4s1.1 6.7 2.8 8.3c.8.7 1.6 1.2 2.6 1.2.8 0 1.6-.3 2.3-.9 1.9-1.5 3.1-4.8 3.1-8.7 0-3.8-1.2-7.1-3.1-8.7-.7-.5-1.5-.8-2.3-.8z"/><path d="m963 1081.3c-.9 0-1.9.5-2.7 1.3-1.6 1.7-2.7 5.1-2.7 8.9s1.1 7.1 2.7 8.9c.8.8 1.6 1.3 2.7 1.3.8 0 1.6-.4 2.4-1 1.8-1.6 3-5.1 3-9.2 0-4-1.2-7.5-3-9.2-.8-.6-1.6-1-2.4-1z"/><path d="m979.2 1091.5c0-2.4-.4-4.7-1-6.4-.5-1.3-1.1-2.4-2-3.3-.7-.7-1.5-1.1-2.4-1.1s-1.9.5-2.7 1.4c-1.6 1.8-2.7 5.4-2.7 9.4s1.1 7.5 2.7 9.4c.8.9 1.8 1.4 2.7 1.4.8 0 1.6-.4 2.4-1.1.7-.7 1.4-1.8 2-3.3.5-1.7 1-4 1-6.4z"/><path d="m981.8 1101.4c0 .1.1.1 0 0 .8 1 1.8 1.6 2.7 1.6h.3c.8-.1 1.5-.5 2.2-1.2.1-.1.2-.3.3-.4 1.1-1.4 2-3.6 2.4-6.2.2-1.1.3-2.3.3-3.6 0-4.2-1-7.7-2.6-9.8-.1-.1-.2-.3-.3-.4-.7-.8-1.5-1.2-2.5-1.2s-2 .6-2.7 1.6c-1.5 2-2.7 5.7-2.7 9.9 0 3.3.6 6.2 1.6 8.3.4.5.7 1 1 1.4z"/><path d="m992.7 1102c.8 1 1.8 1.6 2.8 1.6.9 0 1.8-.5 2.5-1.3.5-.6 1-1.4 1.4-2.4.9-2.1 1.4-5.1 1.4-8.4 0-4.7-1.2-8.8-3-10.8-.7-.8-1.5-1.3-2.5-1.3s-2 .6-2.8 1.6c-1.5 2.1-2.7 6-2.7 10.4 0 1.3.1 2.6.3 3.9.6 2.9 1.4 5.2 2.6 6.7z"/><path d="m1003.4 1102.5c.8 1.1 1.8 1.8 2.8 1.8.4 0 .8-.1 1.2-.4.4-.2.8-.6 1.2-1.1 1.8-2.1 2.9-6.4 2.9-11.3s-1.1-9.2-2.9-11.3c-.7-.9-1.6-1.4-2.5-1.4-1 0-2 .7-2.8 1.8-1.5 2.2-2.7 6.3-2.7 10.9 0 4.1.8 7.7 2.2 10.1.3.3.5.6.6.9z"/><path d="m1017 1104.9c3 0 5.4-6 5.4-13.3s-2.4-13.3-5.4-13.3c-1 0-2 .7-2.8 1.9-1.5 2.3-2.6 6.6-2.6 11.5s1 9.2 2.6 11.5c.8 1 1.7 1.7 2.8 1.7z"/><path d="m1164.8 937.4c.5-.6.8-1.4.8-2.1 0-2.9-4.2-5.2-9.4-5.2s-9.4 2.3-9.4 5.2c0 .8.3 1.5.8 2.1 1.4 1.7 4.7 3 8.4 3 4.1 0 7.2-1.2 8.8-3z"/><path d="m1166.3 945.6c0-.9-.4-1.7-1.2-2.5-1.8-1.6-4.9-2.6-8.8-2.6-3.8 0-7 1.1-8.8 2.6-.8.7-1.2 1.6-1.2 2.5 0 .8.3 1.5.9 2.2 1.6 1.7 5 3 9.1 3 4 0 7.4-1.2 9.1-3 .5-.7.9-1.5.9-2.2z"/><path d="m1167 955.9c0-.9-.5-1.8-1.4-2.5-1.9-1.5-5.3-2.6-9.3-2.6s-7.4 1-9.3 2.6c-.9.7-1.4 1.6-1.4 2.5 0 .8.4 1.6 1.1 2.2 1.8 1.7 5.4 2.9 9.6 2.9s7.8-1.2 9.6-2.9c.6-.7 1.1-1.4 1.1-2.2z"/><path d="m1167.7 966.2c0-.9-.5-1.8-1.5-2.5-2-1.5-5.6-2.5-9.8-2.5s-7.8 1-9.8 2.5c-.9.7-1.5 1.6-1.5 2.5 0 .8.4 1.6 1.1 2.2 1.9 1.7 5.7 2.9 10.1 2.9s8.2-1.2 10.1-2.9c.8-.6 1.3-1.4 1.3-2.2z"/><path d="m1168.3 976.5c0-.9-.6-1.8-1.6-2.6-2.1-1.5-6-2.5-10.3-2.5s-8.2 1-10.3 2.5c-1 .8-1.6 1.6-1.6 2.6 0 .8.5 1.6 1.3 2.3 2 1.6 6 2.9 10.7 2.9 4.6 0 8.7-1.1 10.7-2.9.6-.6 1.1-1.4 1.1-2.3z"/><path d="m1167.6 989.2c.8-.7 1.3-1.5 1.3-2.3 0-.9-.6-1.8-1.8-2.6-2.2-1.5-6.3-2.5-10.9-2.5s-8.7 1-10.9 2.5c-1.1.8-1.8 1.6-1.8 2.6 0 .8.5 1.6 1.3 2.3.1.1.3.2.4.3 2.3 1.5 6.2 2.4 10.8 2.4 2.5 0 4.7-.3 6.7-.8 2.3-.4 3.8-1.1 4.9-1.9z"/><path d="m1168.1 999.6c1-.7 1.5-1.5 1.5-2.4 0-1-.7-1.8-1.9-2.6-2.4-1.5-6.6-2.5-11.4-2.5s-9.1 1-11.4 2.5c-1.2.8-1.9 1.6-1.9 2.6 0 .5.2 1 .5 1.4.2.3.6.6 1 .9 2.3 1.6 6.7 2.7 11.7 2.7 3.5 0 6.7-.5 9.1-1.4 1.1-.3 2.1-.7 2.8-1.2z"/><path d="m1142.3 1007.5c0 2.9 6.3 5.2 14 5.2s14-2.3 14-5.2c0-1-.7-1.8-2-2.6-2.5-1.5-6.9-2.5-11.9-2.5s-9.6 1-11.9 2.5c-1.4.7-2.2 1.6-2.2 2.6z"/><path d="m894 454.9c-.1-2.7-.2-5.4-.5-8 0-.2 0-.3 0-.5-.1-.9-.2-1.8-.3-2.7 0-.3-.1-.7-.1-1-.1-.7-.2-1.4-.3-2.2 0-.3-.1-.5-.1-.8-.6-4.1-1.4-8.2-2.4-12.2v-.1c-1.5-6-3.4-11.8-5.6-17.4 0-.1-.1-.2-.1-.3-.4-1-.8-2-1.3-3.1 0-.1-.1-.2-.1-.3-.8-1.9-1.7-3.8-2.7-5.7-.1-.1-.1-.3-.2-.4-.4-.8-.8-1.6-1.2-2.3-.1-.1-.1-.2-.2-.4-.8-1.5-1.7-3.1-2.6-4.6-.1-.2-.3-.5-.4-.7-.9-1.5-1.8-3-2.8-4.4-.1-.2-.3-.4-.4-.6-.4-.7-.9-1.3-1.3-1.9-.1-.2-.2-.4-.4-.5-1-1.5-2.1-3-3.2-4.4-.6-.8-1.2-1.6-1.9-2.4-.1-.1-.1-.2-.2-.2-.6-.8-1.3-1.5-1.9-2.3-1.3-1.5-2.6-3-3.9-4.4l-.2-.2.2-.2-3.3-3.1-3.1-3.3-.2.2-.2-.2c-1.4-1.3-2.9-2.6-4.4-3.9-.8-.6-1.5-1.3-2.3-1.9-.1-.1-.2-.1-.2-.2-.8-.6-1.6-1.3-2.4-1.9-1.5-1.1-2.9-2.2-4.4-3.2-.2-.1-.4-.3-.5-.4-.6-.4-1.3-.9-1.9-1.3-.2-.1-.4-.3-.6-.4-1.5-1-2.9-1.9-4.4-2.8-.2-.1-.5-.3-.7-.4-1.5-.9-3-1.8-4.6-2.6-.1-.1-.2-.1-.4-.2-.8-.4-1.6-.8-2.3-1.2-.1-.1-.3-.1-.4-.2-1.9-.9-3.8-1.8-5.7-2.7-.1 0-.2-.1-.3-.1-1-.4-2-.9-3.1-1.3-.1 0-.2-.1-.3-.1-5.6-2.3-11.4-4.2-17.4-5.6h-.1c-4-1-8-1.8-12.2-2.4-.3 0-.5-.1-.8-.1-.7-.1-1.4-.2-2.2-.3-.3 0-.7-.1-1-.1-.9-.1-1.8-.2-2.7-.3-.2 0-.3 0-.5 0-2.7-.2-5.3-.4-8-.5-1.1 0-2.1 0-3.2 0-70.7 0-128 57.3-128 128v3.2c.1 2.7.2 5.4.5 8v.5c.1.9.2 1.8.3 2.7 0 .3.1.7.1 1 .1.7.2 1.4.3 2.2 0 .3.1.5.1.8.3 1.9.6 3.7.9 5.5v.2c.4 2.1.9 4.3 1.4 6.4v.1c1.5 6 3.4 11.8 5.6 17.4 0 .1.1.2.1.3.4 1 .8 2 1.3 3.1 0 .1.1.2.1.3.8 1.9 1.7 3.8 2.7 5.7.1.1.1.3.2.4.4.8.8 1.6 1.2 2.3.1.1.1.2.2.4.8 1.5 1.7 3.1 2.6 4.6.1.2.3.5.4.7.4.6.8 1.3 1.1 1.9 0 .1.1.1.1.2 1 1.7 2.1 3.3 3.2 4.9.1.2.2.4.4.5 1 1.5 2.1 3 3.2 4.4.6.8 1.2 1.6 1.9 2.4.1.1.1.2.2.2.6.8 1.3 1.5 1.9 2.3 1.3 1.5 2.6 3 3.9 4.4l.2.2-.2.2 3.3 3.1 3.1 3.3.2-.2.2.2c1.4 1.3 2.9 2.6 4.4 3.9.8.6 1.5 1.3 2.3 1.9.1.1.2.1.2.2.8.6 1.6 1.3 2.4 1.9 1.5 1.1 2.9 2.2 4.4 3.2.2.1.4.3.5.4 1.6 1.1 3.3 2.2 4.9 3.2.1 0 .1.1.2.1.6.4 1.2.8 1.9 1.1.2.1.5.3.7.4 1.5.9 3 1.7 4.6 2.6.1.1.2.1.4.2.8.4 1.6.8 2.3 1.2.1.1.3.1.4.2 1.9.9 3.8 1.8 5.7 2.7.1 0 .2.1.3.1 1 .4 2 .9 3.1 1.3.1 0 .2.1.3.1 5.6 2.3 11.4 4.2 17.4 5.6h.1c2.1.5 4.2 1 6.4 1.4h.2c1.8.3 3.7.7 5.5.9.3 0 .5.1.8.1.7.1 1.4.2 2.2.3.3 0 .7.1 1 .1.9.1 1.8.2 2.7.3h.5c2.7.2 5.3.4 8 .5h3.2c70.7 0 128-57.3 128-128 .2-.9.2-1.9.2-3zm-98-5.4c2.5 1.7 3.2 5.1 1.6 7.6-1.7 2.5-5.1 3.2-7.6 1.6-1.2-.8-1.9-1.9-2.3-3.2l6.7-6.7c.6.2 1.1.4 1.6.7zm-23.1 41.7c-2 3-6 3.8-9 1.8s-3.8-6-1.8-9 6-3.8 9-1.8 3.8 6 1.8 9zm74-120.4-48.8 48.8-70.6 70.6-48.8 48.8c-19.7-21.2-31.7-49.7-31.7-80.9 0-65.7 53.3-119 119-119 31.2 0 59.7 12 80.9 31.7zm-161.8 174.6 39.8-39.8-2.6 4.2c-1.3 2.1-.6 4.9 1.5 6.2.7.4 1.5.7 2.3.7h.4c1.4-.1 2.6-.9 3.4-2.1l2-3.3 7.8-12.7c1.1.6 2.2 1.1 3.4 1.6.3.1.5.2.8.3 3 1.2 6.4 1.7 9 3.8 1.8 1.4 3 3.6 3.6 5.8 1.1 4.3.2 8.8.1 13.2 0 1-.5 1.8-1.3 2.4-3.8 2.7-5.7 8.1-2.7 13.9.1.3.3.5.6.8 7.2 6.9 16.7 2.6 17.9-5.1.6-3.9-1.2-7.5-4.1-9.6-.8-.6-1.3-1.5-1.3-2.4 0-4.2-1.2-11 .6-14.8.5-1 1.3-1.8 2.1-2.5 3.6-2.9 8.1-4.5 12.6-6.2l8.9 16.7c.8 1.5 2.4 2.4 4 2.4.7 0 1.4-.2 2.1-.5 2.2-1.2 3-3.9 1.9-6.1l-8.7-16.3c.1-.1.2-.1.3-.2 4.9-3.3 9.2-7.4 12.7-12.2l14.5 8.9c.7.4 1.5.7 2.3.7 1.5 0 3-.8 3.8-2.2 1.3-2.1.6-4.9-1.5-6.2l-14.1-8.6c2.4-2.4 5.7-3.8 9.1-4.1 5.2-.5 10.4 1.1 15.4 2.2.9.2 1.6.9 2 1.7 1.3 3.1 4.2 5.5 7.8 6 7.7 1.1 14.6-6.8 10-15.7-.1-.3-.3-.6-.6-.8-5-4.8-11-4.2-14.7-.9-.7.6-1.7.9-2.6.7-4.5-1-11.6-1.2-15.5-3.7-1.2-.8-2.1-1.9-2.8-3.1-2.1-3.4-3.1-7.1-3.9-10.9l16.6-4c2.4-.6 3.9-3 3.3-5.4s-3-3.9-5.4-3.3l-16.6 4c-.4-1.2-.8-2.3-1.3-3.5-1.2-2.9-2.6-5.7-4.3-8.4l49.5-49.5c19.8 20.9 31.8 49.4 31.8 80.6 0 65.7-53.3 119-119 119-31.2 0-59.7-12-80.9-31.7z"/><path d="m752.3 372.7c-.6 3.8 1.1 7.4 4 9.5.8.6 1.3 1.4 1.3 2.4 0 3.5 1.2 10.1-.3 13.2-.3.6-.8 1.1-1.3 1.5-3.8 3.3-8.3 5.6-12.7 8-.1 0-.2.1-.3.1-.3.1-.6.2-.8.4l-8.7-16.3c-1.2-2.2-3.9-3-6.1-1.9-2.2 1.2-3 3.9-1.9 6.1l8.7 16.3c-2.7 1.8-5.3 3.9-7.7 6.2-1.7 1.7-3.1 3.6-4.5 5.6l-17.4-10.6c-2.1-1.3-4.9-.6-6.2 1.5s-.6 4.9 1.5 6.2l16.9 10.2c-.8.9-1.6 1.7-2.6 2.4-4.1 3.1-7.3 3.8-12.4 2.6-2.9-.7-10.8-1-12.1-4.1-2.1-5-8.3-8.1-15-4.6-.3.1-.5.3-.8.6-6.9 7.2-2.6 16.7 5.1 17.9 3.1.4 6.1-.6 8.2-2.5.7-.6 1.6-.9 2.5-.7 4.6 1 9.3.9 13.8 2 6.4 1.7 7.5 4.6 8.3 10.8.3 2.2.5 4.4.8 6.5l-19.4 4.7c-2.4.6-3.9 3-3.3 5.4.5 2.1 2.3 3.4 4.4 3.4.4 0 .7 0 1.1-.1l19.4-4.7c1.6 4.5 3.9 8.9 6.8 12.7l70.4-70.4 9.3-15.3c1.3-2.1.6-4.9-1.5-6.2s-4.9-.6-6.2 1.5l-9.7 15.8c-4.8-2.1-10.1-3.2-14.2-6.5-1-.8-1.9-1.7-2.5-2.9-1.9-3.9-.6-10.8-.6-15 0-1 .5-1.8 1.3-2.4 3.9-2.7 5.8-8.1 2.8-14-.1-.3-.3-.5-.6-.8-7.2-6.6-16.7-2.2-17.8 5.5zm-23.8 77.4c-3 0-5.5-2.5-5.5-5.5s2.5-5.5 5.5-5.5 5.5 2.5 5.5 5.5-2.5 5.5-5.5 5.5zm37.2-14.6c-2.4 3.7-7.4 4.7-11.1 2.3s-4.7-7.4-2.3-11.1 7.4-4.7 11.1-2.3c3.7 2.5 4.7 7.4 2.3 11.1z"/><path d="m277.2 24.1c-.9-1.3-2.4-2.1-4-2-32.2 1.7-84.3 20.7-86.5 21.6-1.2.4-2.1 1.4-2.6 2.6l-6 15-7.9-7.9c-1.4-1.4-3.6-1.7-5.3-.8-4 2.2-39.3 21.7-46 29.8-4.2 5.1-7.4 16.6-9.4 25.6l-6.7-11.2c-.7-1.2-2-2-3.3-2.2-1.4-.2-2.8.3-3.7 1.3-.5.5-11.9 12.4-20.8 30.2-11.9 23.8-13.6 46.8-4.8 66.7-15.9 23.5-30.9 49.3-47.4 78.6-1.2 2.2-.5 4.9 1.7 6.1.7.4 1.5.6 2.2.6 1.6 0 3.1-.8 3.9-2.3 15.7-27.7 29.9-52.4 44.8-74.7 5.3 5.8 12.7 8.8 22.1 8.8h1.9c24.2-1 54.4-20.3 70.2-31.7 19.3-13.9 40.7-33.3 44.3-43.5.4-1.1.3-2.4-.2-3.5s-1.5-1.9-2.6-2.3l-20.2-6.7 40.7-5.8c1.5-.2 2.7-1.1 3.4-2.4l42.5-85.4c.7-1.4.6-3.1-.3-4.5zm-49.3 83.5-57.3 8.2c-2.1.3-3.7 2-3.8 4.1-.2 2.1 1.1 4 3.1 4.7l33.2 11.1c-5.6 7.9-20.1 21.7-38.8 35.2-25.5 18.4-49.4 29.3-65.3 30-8.5.4-14.5-2.1-18.3-7.5 7.2-10.4 14.6-20.2 22.5-29.7 29.5-35.4 62.6-61.4 104.3-81.8 2.2-1.1 3.2-3.8 2.1-6s-3.8-3.2-6-2.1c-42.9 21-76.9 47.8-107.2 84.2-7 8.3-13.5 17-19.9 26-10.5-32.7 12.5-65.5 22-77.2l9.6 16c1 1.6 2.9 2.5 4.7 2.1 1.9-.4 3.3-1.8 3.6-3.7 1.6-10.2 5.6-28.1 9.7-33 3.9-4.8 25.7-17.8 40.5-26l10 10.2c1.1 1.1 2.6 1.5 4.1 1.2s2.7-1.3 3.3-2.7l7.8-19.4c8.8-3.1 46.6-16.2 74.1-19.6z"/><g fill="none" stroke="#000" stroke-miterlimit="10" stroke-width="9"><path d="m468.7 54.6 21.2 21.3"/><path d="m511.1 97.1 21.2 21.2"/><path d="m553.6 139.5 21.2 21.2"/><path d="m447.5 54.6 21.2-21.2"/><path d="m489.9 97.1 21.2-21.2"/><path d="m532.3 139.5 21.3-21.2"/><path d="m532.3 181.9 21.3-21.2"/><path d="m489.9 224.3 21.2-21.2"/><path d="m447.5 266.8 21.2-21.2"/><path d="m426.3 54.6 21.2 21.3"/><path d="m468.7 97.1 21.2 21.2"/><path d="m511.1 139.5 21.2 21.2"/><path d="m447.5 97.1 21.2-21.2"/><path d="m489.9 139.5 21.2-21.2"/><path d="m426.3 97.1 21.2 21.2"/><path d="m468.7 139.5 21.2 21.2"/><path d="m511.1 181.9 21.2 21.2"/><path d="m405.1 97.1 21.2-21.2"/><path d="m447.5 139.5 21.2-21.2"/><path d="m489.9 181.9 21.2-21.2"/><path d="m383.9 97.1 21.2 21.2"/><path d="m426.3 139.5 21.2 21.2"/><path d="m468.7 181.9 21.2 21.2"/><path d="m405.1 139.5 21.2-21.2"/><path d="m447.5 181.9 21.2-21.2"/><path d="m383.9 139.5 21.2 21.2"/><path d="m426.3 181.9 21.2 21.2"/><path d="m468.7 224.3 21.2 21.3"/><path d="m362.6 139.5 21.3-21.2"/><path d="m405.1 181.9 21.2-21.2"/><path d="m447.5 224.3 21.2-21.2"/><path d="m341.4 139.5 21.2 21.2"/><path d="m383.9 181.9 21.2 21.2"/><path d="m426.3 224.3 21.2 21.3"/><path d="m362.6 181.9 21.3-21.2"/><path d="m405.1 224.3 21.2-21.2"/></g><path d="m866 265.1c-1.2.3-2.5.3-3.8.3-10.7 0-21.4 0-32.1 0h-62c-30 0-60.1 0-90.1 0-7.3 0-14.5-1-21.2-4.1-11.1-5.3-18-13.7-18.3-26.4-.1-3 .8-6.2 1.9-9.1 2-5.1 5.9-7.7 11.5-7.8 12.3-.2 24.6-1.5 36.8-3.6 12.3-2.2 23.8-7 35-12.3 16-7.6 31.3-16.5 44.8-28.1 5.2-4.4 9.8-9.5 14.3-14.6 4.3-4.8 5.8-10.8 6.6-17.1 0-.1 0-.2 0-.4 2.2.6 5.2 1.2 9.4 1.7-.5 4.8-1.6 9.5-4 13.7-2.6 4.7-5.8 9.2-9.4 13.2-11.7 12.9-26 22.5-41 31.1-11.7 6.7-23.9 12.5-36.7 17.1-10 3.6-20.2 5.7-30.7 6.7-8.2.8-16.5 1.4-24.8 1.9-2.1.1-3.2 1.1-3.8 2.9-1.7 5.6-.4 10.6 2.9 15.2 4.3 6.1 10.5 8.8 17.5 9.9 3.2.5 6.5.8 9.8.8h114.4 14.9 21.7 14.8 16.1c9.5 0 22.2-7.2 23.3-21.5.8-9.7-1.6-18.8-5-27.7-3.1-8-6.7-15.8-9.5-23.8-4-11.4-4.6-23.3-4.6-35.3v-4.1c.9-.1 1.8-.2 2.6-.4 1.5-.2 4.1-.7 6.8-1.7v8.6c-.1 15.9 3.2 30.9 10 45.3 4.7 9.8 8.2 20 9.1 30.9 1.9 19-7.4 34.4-27.2 38.7z"/><path d="m894.7 34.1-.6-3.8h-129.2l-.4 4c-.1.9-2.1 21.3 4.6 50.5l1.2 5.2c6.2 27.2 9.6 42.2 12.8 47.7.8 1.4 2.2 2.9 6.5 4.1 2.2.6 5.2 1.2 9.4 1.7 2.3.3 4.9.5 7.9.8.8.1 1.5.1 2.4.2 2.3.1 4.6.3 6.7.4 7.4.3 13.4.3 13.8.3 5.1 0 9.6 0 13.7-.1 3.3-.1 6.3-.2 9-.3 5-.2 9-.6 12.4-1 .9-.1 1.8-.2 2.6-.4 1.5-.2 4.1-.7 6.8-1.7 4.2-1.5 8.4-4.3 8.4-9.7 0-.7 0-1.6 0-2.8-.1-9.5-.5-34.6 6.6-52.6 8.6-21.6 5.6-41.7 5.4-42.5zm-13.8 39.3c-4 9.9-5.8 21.7-6.7 32.1-.8 10.1-.7 19-.6 23.9v2.6c-.2.3-1.7 1.7-8.8 2.7-.5.1-1.1.2-1.8.2-3.5.4-7.9.8-13.3 1s-12 .3-20 .3h-.1c-10.5 0-22.2-.6-30.2-1.6-4.3-.5-7.5-1.2-8.9-1.9 0-.1-.1-.2-.2-.3-2.5-5.4-6.3-21.9-11.4-44.4l-1.2-5.2c-4.6-20.3-4.9-36.3-4.6-43.5h113c.5 6.4.5 19.9-5.2 34.1z"/><path d="m808.1 256.1c-5 0-9.9 0-14.9 0 1.2 0 3.4 0 5.5-2.4 13.9-15.5 10.8-81.3 8.1-109.3.8.1 1.5.1 2.4.2 2.3.1 4.6.3 6.7.4 1.9 19.8 6.9 87.1-7.8 111.1z"/><path d="m844.6 256.2c-4.9 0-9.9 0-14.8 0 1.2 0 3.4 0 5.5-2.4 13.8-15.3 10.9-80.2 8.2-108.7 3.3-.1 6.3-.2 9-.3 1.8 19.8 6.8 87.4-7.9 111.4z"/><path d="m1008.7 169.1h-10.6c5.1 7.8 9.4 16.3 11.6 27.4 4.6 23.1-1.9 48.9-19.4 76.7l7.6 4.8c18.7-29.8 25.7-57.8 20.6-83.3-2-10.1-5.6-18.3-9.8-25.6z"/><path d="m969.7 116.5c2 10.1 5.6 18.3 9.9 25.6h10.5c-5.1-7.8-9.4-16.3-11.6-27.4-3.3-16.4-.9-34.3 7-53.2l18.7 6.8-4.1-23.1-4-23.1-18 15.1-18 15.1 16.9 6.2c-8.4 20.4-10.9 39.9-7.3 58z"/><path d="m1088.7 169.1h-10.6c5.1 7.8 9.4 16.3 11.6 27.4 4.6 23.1-1.9 48.9-19.4 76.7l7.6 4.8c18.7-29.8 25.7-57.8 20.6-83.3-2-10.1-5.6-18.3-9.8-25.6z"/><path d="m1049.7 116.5c2 10.1 5.6 18.3 9.9 25.6h10.5c-5.1-7.8-9.4-16.3-11.6-27.4-3.3-16.4-.9-34.3 7-53.2l18.6 6.8-4.1-23.1-4.1-23.1-18 15.1-18 15.1 17 6.2c-8.4 20.4-10.8 39.9-7.2 58z"/><path d="m1168.7 169.1h-10.6c5.1 7.8 9.4 16.3 11.6 27.4 4.6 23.1-1.9 48.9-19.4 76.7l7.6 4.8c18.7-29.8 25.7-57.8 20.6-83.3-2-10.1-5.6-18.3-9.8-25.6z"/><path d="m1129.7 116.5c2 10.1 5.6 18.3 9.9 25.6h10.5c-5.1-7.8-9.4-16.3-11.6-27.4-3.3-16.4-.9-34.2 7-53.2l18.5 6.7-4.1-23.1-4.1-23.1-18 15.1-18 15.1 17.1 6.2c-8.3 20.5-10.8 40-7.2 58.1z"/><path d="m1156.4 151.1h-11.1-68.9-11.1-68.9-11.1-39.2v9h45.7 11.1 68.9 11.1 68.9 11.1 39.2v-9z"/><path d="m1304.4 151.1h-11.1-39.2v9h45.7 11.1 34.4c.6-3 1-6 1.5-9z"/><path d="m1470.9 160.1h39.2v-9h-45.7-11.1-35.9c.4 3 .9 6 1.5 9h40.9z"/><path d="m1392.2 160.1h-20c.5-3 1-6 1.4-9h17.3c.4 3 .8 6 1.3 9z"/><path d="m1461.2 273-6.8 5.1c-32.7-43.8-47-82.5-53-118-.5-3-1-6-1.4-9-2.6-19-3-37.1-2.9-54.7v-4.3h27.5l-42.5-55.9-42.5 55.9h28.5v4.3c-.2 17.6-.9 35.7-3.6 54.7-.4 3-.9 6-1.4 9-6.3 35.5-20.6 74.2-53.3 118l-6.8-5.1c31.5-42.3 45.4-78.8 51.4-112.9.5-3 1-6 1.4-9 2.4-17.1 3-33.6 3.1-50h-36.5l59.7-79 59.7 79h-36.5c.1 16.4.7 32.9 3.1 50 .4 3 .9 6 1.4 9 6 34.1 19.9 70.6 51.4 112.9z"/><path d="m1383.1 270.8c-13.3 0-24-10.7-24.5-24.3-.3-8.3 5.3-17.5 11.2-27.2 3.5-5.7 7.1-11.7 9-16.9l4-10.9 4.4 10.7c2.2 5.3 5.6 10.9 9 16.4 6 9.7 11.6 18.9 11.3 27.8-.4 13.7-11.1 24.4-24.4 24.4zm.1-56.5c-1.8 3.2-3.7 6.4-5.6 9.6-5 8.2-10.1 16.6-9.9 22.3.3 8.8 7.1 15.6 15.5 15.6s15.2-6.9 15.5-15.6c.2-6.3-5-14.7-10-22.8-1.9-3-3.8-6.1-5.5-9.1z"/><path d="m581.3 418.4h-30.7v-21.9c0-2.5-2-4.5-4.5-4.5h-52.8c-2.5 0-4.5 2-4.5 4.5s2 4.5 4.5 4.5h48.3v21.9c0 2.5 2 4.5 4.5 4.5h30.7v61.4h-30.7c-2.5 0-4.5 2-4.5 4.5v21.9h-43.9c-2.5 0-4.5 2-4.5 4.5s2 4.5 4.5 4.5h48.4c2.5 0 4.5-2 4.5-4.5v-21.9h30.7c2.5 0 4.5-2 4.5-4.5v-70.4c0-2.5-2-4.5-4.5-4.5zm-167.2 96.8h-74.7v-114.2h74.7c2.5 0 4.5-2 4.5-4.5s-2-4.5-4.5-4.5h-79.2c-2.5 0-4.5 2-4.5 4.5v123.2c0 2.5 2 4.5 4.5 4.5h79.2c2.5 0 4.5-2 4.5-4.5s-2-4.5-4.5-4.5z"/><path d="m501.5 444.7c-.8-1.3-2.3-2.1-3.8-2.1h-35.1v-52.7c0-2.1-1.5-3.9-3.5-4.4-2.1-.5-4.2.6-5.1 2.5l-39.6 83.6c-.7 1.4-.6 3 .3 4.3.8 1.3 2.3 2.1 3.8 2.1h35.1v48.3c0 2.1 1.4 3.9 3.5 4.4.3.1.7.1 1 .1 1.7 0 3.2-.9 4-2.5l39.6-79.2c.7-1.4.7-3-.2-4.4zm-38.9 62.6v-33.8c0-2.5-2-4.5-4.5-4.5h-32.5l28-59.1v37.2c0 2.5 2 4.5 4.5 4.5h32.3z"/><path d="m161.3 532.4v-104.8c0-2.5-2-4.5-4.5-4.5s-4.5 2-4.5 4.5v104.8c-4.9 1.8-8.3 6.5-8.3 12 0 7.1 5.8 12.8 12.8 12.8s12.8-5.8 12.8-12.8c0-5.5-3.4-10.2-8.3-12zm-4.5 15.9c-2.1 0-3.8-1.7-3.8-3.8s1.7-3.8 3.8-3.8 3.8 1.7 3.8 3.8-1.7 3.8-3.8 3.8z"/><path d="m107.8 402.3h13c2.5 0 4.5-2 4.5-4.5s-2-4.5-4.5-4.5h-13c-2.5 0-4.5 2-4.5 4.5s2 4.5 4.5 4.5z"/><path d="m107.8 370h13c2.5 0 4.5-2 4.5-4.5s-2-4.5-4.5-4.5h-13c-2.5 0-4.5 2-4.5 4.5s2 4.5 4.5 4.5z"/><path d="m107.8 434.7h13c2.5 0 4.5-2 4.5-4.5s-2-4.5-4.5-4.5h-13c-2.5 0-4.5 2-4.5 4.5s2 4.5 4.5 4.5z"/><path d="m107.8 467.1h13c2.5 0 4.5-2 4.5-4.5s-2-4.5-4.5-4.5h-13c-2.5 0-4.5 2-4.5 4.5s2 4.5 4.5 4.5z"/><path d="m125.3 495c0-2.5-2-4.5-4.5-4.5h-13c-2.5 0-4.5 2-4.5 4.5s2 4.5 4.5 4.5h13c2.5 0 4.5-2 4.5-4.5z"/><path d="m180.3 512.3v-151.5c0-18.4-8.7-29.5-23.4-29.5h-.1c-.2 0-.5 0-.7 0-.4 0-.9 0-1.3 0-17.8 1.2-20.6 18.8-20.6 29.5v150.9c-11 7.5-17.5 19.7-17.5 33.1 0 22.1 18 40.1 40.1 40.1s40.1-18 40.1-40.1c.1-12.9-6.1-25-16.6-32.5zm-23.4 63.7c-17.2 0-31.1-14-31.1-31.1 0-10.5 5.2-20.1 13.9-25.9 2.1-.4 3.6-2.2 3.6-4.4v-153.8c0-7.2 2.3-13.7 6.1-17.4 2.1-2.1 4.6-3.1 7.2-3.1h.1c5.7.1 10.5 4.4 12.9 10.7 1.1 2.9 1.7 6.2 1.7 9.8v153.7c0 1.7.9 3.1 2.3 3.9.2.2.4.4.7.6 8.6 5.8 13.8 15.5 13.8 25.8-.1 17.2-14 31.2-31.2 31.2z"/><path d="m156.9 331.3c-.3 0-.6 0-.8 0-.4 0-.9 0-1.3 0-17.8 1.2-20.6 18.8-20.6 29.5v150.9c-11 7.5-17.5 19.7-17.5 33.1 0 22.1 18 40.1 40.1 40.1s40.1-18 40.1-40.1c.1-12.9-6.1-25-16.6-32.5v-151.5c0-18.4-8.7-29.5-23.4-29.5zm0 244.7c-17.2 0-31.1-14-31.1-31.1 0-10.5 5.2-20.1 13.9-25.9 2.1-.4 3.6-2.2 3.6-4.4v-153.8c0-7.2 2.3-13.7 6.1-17.4 2.1-2.1 4.6-3.1 7.2-3.1h.1c5.7.1 10.5 4.4 12.9 10.7 1.1 2.9 1.7 6.2 1.7 9.8v153.7c0 1.7.9 3.1 2.3 3.9.2.2.4.4.7.6 8.6 5.8 13.8 15.5 13.8 25.8-.1 17.2-14 31.2-31.2 31.2z"/><path d="m1009.8 390.1c-6.8 10.4-10.3 20.8-10.3 30.9-.1 13.2 5.6 23.2 11.5 33.8 5.5 9.6 11.1 19.5 12.8 32.3.3 2.6.5 5.2.5 8.1v.9c-.2 13.3-4.7 26.6-13.5 39.6l-.7 1.1-6.3-7.6.4-.6c7.3-10.9 11.2-21.8 11.4-32.4 0-.3 0-.6 0-.9 0-2.8-.2-5.5-.7-8.1-1.7-9.6-6.2-17.5-11-25.9-6.5-11.5-13.3-23.4-13.2-40.3.1-11.9 3.7-23.9 10.9-35.6l-.9-.5-15.6-9 20.3-11.7 20.3-11.7v46.9z"/><path d="m1147.2 390.1c-6.8 10.4-10.3 20.8-10.3 30.9-.1 13.2 5.6 23.2 11.5 33.8 5.5 9.6 11.1 19.5 12.8 32.3.3 2.6.5 5.2.5 8.1v.9c-.2 13.3-4.7 26.6-13.5 39.6l-.7 1.1-6.3-7.6.4-.6c7.3-10.9 11.2-21.8 11.4-32.4 0-.3 0-.6 0-.9 0-2.8-.2-5.5-.7-8.1-1.7-9.6-6.2-17.5-11-25.9-6.5-11.5-13.3-23.4-13.2-40.3.1-11.9 3.7-23.9 10.9-35.6l-.9-.5-15.6-9 20.3-11.7 20.3-11.7v46.9z"/><path d="m1078.5 390.1c-6.8 10.4-10.3 20.8-10.3 30.9-.1 13.2 5.6 23.2 11.5 33.8 5.5 9.6 11.1 19.5 12.8 32.3.3 2.6.5 5.2.5 8.1v.9c-.2 13.3-4.7 26.6-13.5 39.6l-.8 1.1-6.3-7.6.4-.6c7.3-10.9 11.2-21.8 11.4-32.4 0-.3 0-.6 0-.9 0-2.8-.2-5.5-.7-8.1-1.7-9.6-6.2-17.5-11-25.9-6.5-11.5-13.3-23.4-13.2-40.3.1-11.9 3.7-23.9 10.9-35.6l-.9-.5-15.6-9 20.4-11.8 20.3-11.7v46.9z"/><path d="m1170.2 487.1c.3 2.6.5 5.3.5 8.1v.9h16.8l-43.2 74h-180.6l42.8-73.4c0-.5 0-1 0-1.5 0-2.8-.3-5.5-.9-8.1h-3.9l-53.6 92h201.3l53.7-92zm-27.1 0h-41.5c.3 2.6.5 5.3.5 8.1v.9h42c0-.3 0-.6 0-.9-.1-2.9-.5-5.5-1-8.1zm-68.7 0h-41.5c.3 2.6.5 5.3.5 8.1v.9h42c0-.3 0-.6 0-.9-.1-2.9-.4-5.5-1-8.1z"/><path d="m1413.2 455c13.3-7.7 18.3-20.2 18.5-35.3.4 0 .9-.2 1-.1 12.4 15.8 22.5 32.8 26.2 52.9 4 21.3-1.2 40.7-12.3 58.8-12.5 20.2-29.3 36.4-48.2 50.8.8-.9 1.6-1.8 2.3-2.8 4.7-6.4 10-12.5 14-19.3 10.4-17.4 10.5-35.7 1.4-53.5-4.7-9.2-11.1-17.6-16.8-26.2-2.4-3.7-5.2-7.2-7.8-10.8-7.2-10.4-11.5-21.4-6-34.2-11.3 4.6-22.6 22-26.1 34-4.2 14.4-2.9 28.8-1.3 44.2-8.3-5.2-10.4-12.7-10.9-21-9 6.3-16.9 30.8-15.2 46.2 1.4 12.8 7.2 23.3 23.2 43.7-4.5-3.8-9.1-7.5-13.5-11.5-15-13.5-28.4-28.3-37.9-46.3-13-24.5-12.7-49.2-1.5-74.2 7.1-15.8 17.6-29.3 28.5-42.6 7.7-9.5 15.7-18.9 22.9-28.7 7.3-10 13.4-20.8 12.4-33.8-.5-6.5-2.4-12.8-3.7-18.9 9.6 3.3 27.6 20.7 35.3 32.6 9.1 14.2 15.6 29.4 16.3 46.2.6 16.4-.5 32.9-.8 49.8z"/><path d="m276.7 760.5-58.3-100.9c-2.1-3.4-5.8-5.5-9.9-5.5h-116.7c-4.1-.1-7.8 2-10 5.5l-58.3 100.9c-1.9 3.4-1.9 7.6 0 11l58.3 101.2c2.1 3.5 5.9 5.6 10 5.5h26.6l6.7-44.9-36.4-52.3c-1.8-2.6-1.8-4.3.3-7.5l21.7-33.5c1-1.6 1.7-1.8 2.3-1.8.9.1 1.7.3 2.5.8l36.2 17.3c0 1.5-.4 3-1.2 4.3-2.6 4.6-7.6 7.5-12.9 7.3-4.5-.2-8.9-1.4-12.8-3.7l-1.3-.7-7.2 13.5 1.5.6c19.9 8.6 32.3 25.4 37.8 51.3h2.9l5.1-27.5 17.4 9 19.7-20.4c.4 4.7-.5 9.4-2.6 13.7l-18.4 36.5v37.9h28.5c4.1.1 7.8-2 10-5.5l58.5-101.2c1.9-3.4 1.9-7.5 0-10.9zm-156.5-26.5 11-20.1h.4c4.7 0 17.2 7 17.6 9.2l-11.7 18.9zm23.5 11 12.3-20.7c4.2 0 18.2 10 18.4 12.3l-16.9 24.3c.7-5.5-.4-9-3.4-10.6zm11.5 30.3 23.8-32.5c4.6 2.5 8.6 5.8 11.9 9.8 2.5 3 3 4.4 2.9 4.7l-26.4 29c-4.8-2.9-9-6.7-12.4-11.1zm25.2 24.2c-3.4-2.2-6.2-5.2-8.3-8.8l24.5-27c4.3 3.3 7.6 7.7 9.6 12.7z"/><path d="m413.8 894.1 10.5-69.9-56.8-81.5c-2.8-4.1-2.7-6.8.5-11.7l33.8-52.2c1.5-2.5 2.7-2.8 3.6-2.8 1.4.1 2.7.5 3.9 1.2l56.4 27c.1 2.4-.6 4.7-1.9 6.7-4 7.2-11.8 11.6-20.1 11.4-7-.3-13.8-2.2-19.9-5.7l-2.1-1.1-11.1 21 2.3.9c31 13.5 50.3 39.5 58.8 79.9h4.5l8-42.9 27.1 14 30.7-31.7c.6 7.3-.8 14.7-4 21.4l-28.6 56.9v59.1m-92.8-224.6 17.2-31.4h.7c7.4 0 26.8 10.9 27.4 14.4l-18.3 29.5zm36.7 17.1 19.2-32.2c6.6 0 28.3 15.5 28.6 19.2l-26.3 37.9c1.1-8.6-.7-14-5.3-16.5zm17.9 47.2 37.1-50.7c7.1 3.8 13.5 9 18.6 15.3 3.9 4.6 4.6 6.9 4.5 7.4l-41.1 45.2c-7.4-4.6-14-10.4-19.3-17.3zm39.2 37.7c-5.3-3.5-9.7-8.1-12.9-13.6l38.2-42.1c6.7 5.1 11.9 11.9 15 19.7z"/><path d="m775.2 841.8c-2 1.2-3.9 3.4-5.9 3.4-23.4.2-46.8.3-70.2.1-8.7-.1-13.3-4.8-13.3-13.6-.1-42.1-.1-84.2.1-126.3 0-2.8 1.6-6.3 3.6-8.4 18.1-18.5 36.5-36.8 55-54.9 2.2-2.2 6-3.8 9.1-3.8 26.2-.3 52.3-.2 78.5-.2 10 0 14.5 4.7 14.5 14.8v177.8c0 11.2-8 17.2-19.1 14.4-1.5-.4-2.5-2.8-4.2-4.9 16.9-2.7 16.9-2.7 16.9-19.1 0-55 0-110.1 0-165.1 0-10.8-.6-11.4-11.4-11.4-22.4 0-44.8 0-67.3 0-2.7 0-5.3 0-8.8 0v43.3c0 13.1-3.8 16.9-16.8 17-14.2 0-28.3 0-43.3 0-.1 3.2-.4 5.8-.4 8.5v115.1c0 9.8 1 10.8 10.7 10.8 21.2.1 42.3 0 63.5 0h8c.2.8.5 1.7.8 2.5zm-29-189.7c-15.6 15.7-31 31.2-46.1 46.4 12.7 0 26.6.2 40.4-.3 2-.1 5.4-3.5 5.5-5.5.4-13.7.2-27.6.2-40.6z"/><path d="m819.9 816c1.8 2.8 3.1 6.1 5.4 8.3 3.9 3.5 4.8 6.4-.3 9.1-4.4 2.3-5.7 5.6-4.8 10.4.9 5-1.6 7.2-6.4 5.7s-8 0-10.7 4c-2.9 4.2-6.2 4-8.6-.4s-5.6-5.7-10.4-4.7c-5.1 1-7-1.7-5.8-6.4 1.1-4.6.4-8.1-3.9-10.8-4.2-2.6-4.5-6 .1-8.5 4.7-2.5 5.9-6.1 5-11-.8-4.7 1.6-6.6 6.1-5.3 5 1.4 8.5-.1 11.4-4.3 2.2-3.3 5.3-4.1 7.6-.2 2.8 4.9 6.2 6.8 12.1 5.7 6.2-1.2 5.1 3.6 3.2 8.4zm-5.2 25.8c-3.4-5.9 2.4-9.2 5.4-11.7-2.2-6.2-4-11.3-5.4-15.3-5-2.4-9.7-4.7-13.8-6.7-4.6 1.7-9.7 3.5-14 5.1-2.3 4.6-4.7 9.5-6.8 13.7 1.7 4.6 3.5 9.8 5.1 14.1 4.7 2.3 9.6 4.7 13.5 6.6 4.9-1.8 9.8-3.5 16-5.8z"/><path d="m788.5 848.9c-2.3 10.2-4.1 18.4-6 27 2 .5 3.8 1 6.1 1.6 1.8-6.6 3.5-13 5.1-19h9.8c1.7 8.3 3.6 17 5.5 25.9 2.7-.4 5.3-.9 8.7-1.5-1.8-10-3.8-20.3-5.7-30.7.8-.4 1.7-.7 2.5-1.1 1.2 1.8 3 3.6 3.5 5.6 2.1 9.5 3.8 19 5.6 28.6.9 4.9.1 7.4-5.8 5.3-1.7-.6-4.8 0-6.2 1.3-4.9 4.3-6.4 1.5-7.3-3-1.7-8.5-3.3-17-6.4-25.6-2.1 7.8-4.1 15.7-5.9 22.3-5.6-.7-9.6-.9-13.5-1.8-1.1-.3-2.7-2.6-2.5-3.7 2.1-9.5 4.5-18.8 7.1-28.2.2-.8 2.2-1.2 5.4-3z"/><path d="m765.5 745c-15.4 0-30.8.1-46.2-.1-2.1 0-4.2-1.9-6.3-2.9 2-1.1 4-3.2 6-3.2 31.3-.2 62.6-.2 94 0 2.1 0 4.2 1.9 6.3 3-2.2 1.1-4.5 3.2-6.7 3.2-15.8.2-31.5 0-47.1 0z"/><path d="m766.1 760.7c-15.7 0-31.4.1-47-.1-2.1 0-4.1-2-6.2-3 2.1-1 4.2-2.8 6.3-2.9 31.4-.2 62.7-.2 94.1 0 1.9 0 3.8 1.7 5.8 2.7-2 1.1-3.9 3.2-5.9 3.2-15.7.3-31.4.1-47.1.1z"/><path d="m765.5 728.9c-15.7 0-31.3.1-47-.1-1.9 0-3.7-1.9-5.5-2.9 1.9-1 3.7-2.8 5.6-2.8 31.8-.2 63.6-.2 95.5 0 1.7 0 3.4 1.6 5.1 2.5-1.7 1.1-3.4 3.2-5.2 3.2-16.2.2-32.4.1-48.5.1z"/><path d="m739.7 787.4c7.2 0 14.4-.2 21.6.1 1.6.1 3.1 2 4.6 3-1.6 1-3.2 2.8-4.8 2.8-14.4.2-28.8.2-43.1 0-1.7 0-3.3-1.7-5-2.7 1.7-1.1 3.4-3.1 5.2-3.2 7.1-.2 14.3 0 21.5 0z"/><path d="m792.4 681.5c7.4 0 14.9-.2 22.3.2 1.5.1 3 2.1 4.4 3.2-1.4 1-2.8 2.7-4.2 2.8-14.9.2-29.7.2-44.6 0-1.4 0-2.7-1.9-4.1-2.9 1.5-1.1 3-3 4.6-3.1 7.2-.4 14.4-.2 21.6-.2z"/><path d="m799.8 813.7c8 .1 14.2 6.5 13.9 14.4-.3 7.5-6.5 13.4-14.2 13.4-8 0-14-6.3-13.8-14.4.3-7.7 6.4-13.5 14.1-13.4zm-.1 4.4c-5.7.5-9.4 3.5-9.4 9.4 0 5.8 3.4 9.3 9.3 9.4 6 0 9.4-3.5 9.5-9.3.1-5.9-3.6-9-9.4-9.5z"/><path d="m1057.2 743c-2.5 1.8-4.6 3.9-6.4 6.4l-64-64-22.2 22.2-18.5-69.4 69.3 18.6-22.2 22.2z"/><path d="m1132.8 875.6 22.2-22.2-65-65c2.5-1.8 4.6-3.9 6.4-6.4l65 65 22.2-22.2 18.5 69.4z"/><path d="m1202.1 638.2-18.6 69.3-22.2-22.2-64.6 64.6c-1.7-2.5-3.8-4.7-6.2-6.5l64.4-64.4-22.2-22.2z"/><path d="m993.2 853.4 22.2 22.2-69.3 18.6 18.6-69.3 22.2 22.2 64.4-64.4c1.8 2.4 4 4.5 6.5 6.2z"/><path d="m1377.7 796.7c2.5 5.8 4.6 10.8 6.7 15.8 8.1 18.8 16.2 37.6 24.2 56.4 1.1 2.5 2.3 5.1 2.8 7.8 1.4 7.1-1 12.6-7.7 15.7-6.3 2.9-12.3 1.8-16.3-3.8-4.3-6-7.8-12.7-11.4-19.2-9.3-17.3-18.5-34.6-28.4-53.3-1.7 3.7-2.9 6.2-3.9 8.8-6.8 17.5-13.5 35.1-20.4 52.6-1.6 4.1-3.6 8.1-6.3 11.6-3.8 5-9.8 6.6-14.8 3.4-3.9-2.5-6.7-7.4-8.6-11.9-1.1-2.6.4-6.5 1.3-9.6 13.1-45.6 30.6-89.5 51.1-132.2 21.6-45.2 56.1-76.9 102.8-95.4 4.2-1.7 9.3-3 13.6-2.3 3.7.6 9 3.6 9.9 6.6 1.1 3.7-.8 9.1-3.2 12.6-1.9 2.8-6.4 4-9.8 5.7-13.8 6.9-28.2 12.9-41.5 20.7-13.2 7.7-14.8 16.1-7.3 29.4 6.4 11.3 13.4 22.3 20.2 33.4 2 3.3 4.2 6.5 5.8 10 7.1 15.3 3.1 24.1-13.3 28.4-7.5 2-15.1 3.2-22.7 4.7-7.2 1.5-14.5 2.7-22.8 4.1zm24-44c-4.9 6.3-9 11.4-13.9 17.7 8.9-1 16.1-1.9 24.4-2.8-3.8-5.4-6.8-9.6-10.5-14.9z"/><path d="m1438.5 727.6c-11.8-.1-20.7-9.5-20.5-21.4.2-11.4 9.3-20.3 20.7-20.4 11.6 0 21.1 9.4 21 21 0 11.7-9.5 21-21.2 20.8z"/><path d="m22.1 1069.2h252v10h-252z"/><path d="m147.7 1059.2c-21.4 0-49.3-3.4-82.7-10.1-25-5-44-10.1-44.2-10.1l2.6-9.7c.7.2 74.6 19.8 124.3 19.8h.4c49.8-.1 124-19.6 124.7-19.8l2.6 9.7c-.2.1-19.2 5.1-44.2 10-33.7 6.7-61.6 10.1-83.1 10.1-.1.1-.3.1-.4.1z"/><path d="m147.9 1039.2c-21.8 0-49.9-6.8-83.8-20.3-25.1-10-43.6-19.9-44.4-20.3l4.7-8.8c.7.4 74.3 39.4 123.5 39.4h.2c49.2-.1 122.9-39 123.7-39.4l4.7 8.8c-3.1 1.7-76.7 40.5-128.3 40.6-.2 0-.2 0-.3 0z"/><path d="m272.8 1119c-.7-.2-75-19.7-124.7-19.8-.1 0-.2 0-.4 0-49.7 0-123.6 19.6-124.3 19.8l-2.6-9.7c.2-.1 19.2-5.1 44.2-10.1 33.5-6.7 61.3-10.1 82.7-10.1h.4c21.5 0 49.4 3.5 83.1 10.1 25 5 44 10 44.2 10z"/><path d="m271.8 1158.6c-.7-.4-74.5-39.3-123.7-39.4-.1 0-.1 0-.2 0-49.1 0-122.7 39-123.5 39.4l-4.7-8.8c.8-.4 19.3-10.3 44.4-20.3 33.9-13.5 62.2-20.4 84-20.3 21.8 0 50 6.9 84 20.4 25.1 10 43.6 19.8 44.4 20.2z"/><path d="m155.1 981.6v-35.5h-10v35.5h-14.9l19.9 34.5 19.9-34.5z"/><path d="m170 1166.6-19.9-34.5-19.9 34.5h14.9v35.5h10v-35.5z"/><path d="m542.6 1041.4c0-.2 0-.4-.1-.5 0-.1 0-.2-.1-.3-.1-.2-.1-.3-.2-.5 0-.1-.1-.2-.1-.3 0 0 0-.1-.1-.1-.4-.7-6.5-10.9-7.4-32.1-1-22.7 1-41.9 1-42.1 0-.1 0-.3 0-.4v-.1c0-.2-.1-.5-.1-.7 0 0 0 0 0-.1v-.1c-.1-.2-.1-.4-.2-.6 0-.1 0-.1-.1-.1-.1-.2-.3-.4-.4-.6l-.1-.1c-.1-.1-.3-.3-.5-.4-.1 0-.1-.1-.2-.1-.2-.1-.4-.3-.7-.3l-40.9-15.7-2.1-.8c-.3-.1-.5-.2-.8-.2-.1 0-.2 0-.3 0-.2 0-.3 0-.5 0-.1 0-.2 0-.4.1-.1 0-.3.1-.4.1s-.2.1-.4.2c-.1 0-.2.1-.3.1l-.1.1s-.1 0-.1.1c-.1.1-.2.2-.4.3-.2.2-.3.3-.5.5l-.1.1c-.1.2-.2.3-.3.5v.1.1s0 .1-.1.2c0 0-1.2 3.6-5.2 7-5.3 4.6-12.9 6.9-22.5 6.9s-17.2-2.3-22.5-6.9c-4-3.5-5.2-7-5.2-7 0-.1-.1-.1-.1-.2s0-.1-.1-.2c0-.1 0-.1-.1-.2 0-.1-.1-.1-.1-.2-.1-.1-.2-.3-.3-.4s-.1-.2-.2-.3-.2-.2-.4-.3c-.1 0-.1-.1-.2-.1 0 0-.1 0-.1-.1l-.1-.1c-.1-.1-.2-.1-.3-.1s-.2-.1-.3-.1c-.2-.1-.3-.1-.5-.1-.1 0-.2 0-.3-.1-.2 0-.4 0-.5 0s-.2 0-.3 0c-.3 0-.5.1-.8.2l-2.1.8-40.9 15.7c-.2.1-.5.2-.7.4l-.1.1c-.2.1-.4.3-.5.4 0 0 0 0-.1.1-.2.2-.3.4-.4.6 0 0 0 .1-.1.1-.1.2-.2.4-.2.6v.1c-.1.2-.1.5-.1.7v.1.4c0 .2 2 19.4 1 42.1-.9 20.8-6.7 31-7.4 32.1-.1.2-.2.4-.3.6 0 0 0 .1-.1.1-.1.2-.1.3-.1.5v.2.5.2c0 .2 0 .4.1.6 0 .2 3.4 14.6 5.7 33.4.5 4 .9 8.2 1.3 12.5 1.9 24.5-4.9 78.1-5 78.6v.7.2c0 .2 0 .3.1.5 0 .1.1.2.1.3.1.1.1.3.2.4 0 .1.1.2.2.3s.1.2.2.3c0 0 0 0 .1.1v.1c.7.8 17 18.5 66.6 21.6v7.7c0 5.1 4.1 9.2 9.2 9.2h11.6c5.1 0 9.2-4.1 9.2-9.2v-7.7c49.6-3.1 65.9-20.8 66.6-21.6 0 0 0 0 0-.1 0 0 0 0 .1-.1s.1-.2.2-.3.1-.2.2-.3.1-.3.2-.4c0-.1.1-.2.1-.3 0-.2.1-.3.1-.5 0-.1 0-.2 0-.2 0-.2 0-.5 0-.7 0 0 0-.1 0-.2-.4-3.5-6.3-50.6-5.1-75.4 0-.4 0-.8.1-1.1 0-.6.1-1.3.1-1.9 2-24.6 6.9-45.7 6.9-45.9.1-.3.1-.5.1-.8 0 0 0-.1 0-.2zm-15-33.5c.4 9.4 1.8 16.9 3.3 22.5-4.5-5.1-8.9-12.6-9.3-22.8-.5-10.6 2.7-20.4 6-27.7-.3 7.5-.5 17.3 0 28zm-48.2-43.9c-5.3 8.1-12.4 12.2-21.3 12.2s-16-4.1-21.3-12.2c5.1 2.7 11.9 4.7 21.3 4.7s16.2-2 21.3-4.7zm-90.8 15.8c3.3 7.3 6.5 17.1 6 27.8-.4 10.2-4.8 17.7-9.3 22.8 1.5-5.6 2.9-13.1 3.3-22.5.5-10.7.3-20.5 0-28.1zm2.9 192.1c12.9.9 33.5 2.2 51.6 2.7v9.8c-26.2-1.7-42.5-7.7-51.6-12.5zm74.6 27.1c0 1.2-1 2.2-2.2 2.2h-11.6c-1.2 0-2.2-1-2.2-2.2v-27.9-20.8c0-1.2 1-2.2 2.2-2.2h11.6c1.2 0 2.2 1 2.2 2.2v20.8zm7-24.4c18.1-.5 38.7-1.8 51.6-2.7-9.1 4.8-25.3 10.8-51.6 12.5zm55.4-84.6v.7c0 .5-.1 1-.1 1.5v.9 1.5 1 1.4s0 .7 0 1.1v1.5 1.1 1.5 1.2 1.5 1.2 1.5 1.2c0 .5 0 1.1.1 1.6 0 .4 0 .8.1 1.2 0 .5 0 1.1.1 1.6 0 .4 0 .8.1 1.2 0 .6.1 1.1.1 1.7 0 .4 0 .8.1 1.2 0 .6.1 1.1.1 1.7 0 .4 0 .8.1 1.2 0 .6.1 1.2.1 1.7 0 .4.1.8.1 1.2 0 .6.1 1.2.1 1.8 0 .4.1.7.1 1.1 0 .6.1 1.3.1 1.9 0 .3 0 .6.1.9.1.7.1 1.4.2 2.1 0 .3 0 .5.1.8.2 1.9.3 3.8.5 5.6v.3c.1.8.1 1.6.2 2.4 0 .3.1.5.1.8.1.6.1 1.2.2 1.8 0 .3.1.6.1.9.1.5.1 1.1.2 1.6 0 .3.1.7.1 1 .1.5.1 1 .2 1.5 0 .3.1.7.1 1 0 .5.1.9.1 1.4 0 .3.1.6.1 1 0 .5.1.9.1 1.3 0 .3.1.6.1.9 0 .4.1.8.1 1.2 0 .3.1.6.1.9 0 .4.1.7.1 1.1 0 .3.1.6.1.9s.1.7.1 1 .1.6.1.8c0 .3.1.6.1.9s.1.5.1.8.1.5.1.8c0 .2.1.5.1.7s.1.5.1.7.1.5.1.7v.1c-9.7.7-37 2.6-60.1 3.3v-17.2c0-5.1-4.1-9.2-9.2-9.2h-11.6c-5.1 0-9.2 4.1-9.2 9.2v17.2c-23.1-.7-50.4-2.6-60.1-3.3 0-.4.1-.7.1-1.1 0-.1 0-.1 0-.2 0-.3.1-.7.1-1.1 0-.2 0-.3.1-.5 0-.3.1-.7.1-1 0-.2.1-.5.1-.7 0-.3.1-.7.1-1s.1-.6.1-.8c0-.3.1-.7.1-1s.1-.6.1-1c0-.3.1-.7.1-1 0-.4.1-.7.1-1.1 0-.3.1-.7.1-1 0-.4.1-.8.1-1.2 0-.3.1-.7.1-1 0-.4.1-.9.1-1.3s.1-.7.1-1.1c0-.5.1-.9.1-1.4 0-.4.1-.7.1-1.1.1-.5.1-1 .2-1.5 0-.3.1-.7.1-1 .1-.5.1-1.1.2-1.7 0-.3.1-.7.1-1 .1-.7.1-1.4.2-2.2 0-.2 0-.3 0-.5.1-.9.2-1.9.2-2.8 0-.1 0-.2 0-.2.1-.8.1-1.7.2-2.6 0-.3.1-.6.1-.9.1-.6.1-1.3.2-1.9 0-.4.1-.7.1-1.1 0-.6.1-1.2.1-1.8 0-.4.1-.8.1-1.2 0-.6.1-1.1.1-1.7 0-.4.1-.8.1-1.3s.1-1.1.1-1.6c0-.4.1-.9.1-1.3 0-.5.1-1.1.1-1.6 0-.4 0-.9.1-1.3 0-.5.1-1.1.1-1.6 0-.4 0-.8.1-1.3 0-.5.1-1.1.1-1.6 0-.4 0-.8.1-1.3 0-.5 0-1 .1-1.6 0-.4 0-.8 0-1.3s0-1 0-1.5c0-.4 0-.8 0-1.2 0-.5 0-1 0-1.5 0-.4 0-.8 0-1.2 0-.5 0-1 0-1.4s0-.8 0-1.2c0-.5 0-1 0-1.4s0-.8 0-1.1c0-.5 0-.9 0-1.4 0-.4 0-.7 0-1.1 0-.5 0-1 0-1.4 0-.3 0-.6 0-.9 0-.5 0-1-.1-1.5 0-.2 0-.5 0-.7 0-.7-.1-1.5-.1-2.2 0-.2 0-.4-.1-.7 0-.4-.1-.8-.1-1.3 0-.3 0-.6-.1-.8 0-.4-.1-.7-.1-1.1 0-.3-.1-.6-.1-.9 0-.4-.1-.7-.1-1.1 0-.3-.1-.6-.1-.9s-.1-.7-.1-1-.1-.6-.1-.9-.1-.7-.1-1-.1-.6-.1-.8c0-.3-.1-.7-.1-1s-.1-.5-.1-.8-.1-.7-.1-1-.1-.5-.1-.8c0-.4-.1-.7-.1-1 0-.2-.1-.5-.1-.7 0-.4-.1-.7-.1-1.1 0-.2-.1-.5-.1-.7 0-.4-.1-.7-.1-1.1 0-.2-.1-.4-.1-.6-.1-.4-.1-.8-.2-1.1 0-.2-.1-.4-.1-.5-.1-.4-.1-.9-.2-1.3 0-.1 0-.2-.1-.3-.1-.5-.2-1.1-.2-1.6-1.4-9.3-2.9-16.7-3.7-20.3 5.7-3.8 19.7-15.1 20.5-35.4.8-18.3-7.6-34.1-12.1-41.1l35-13.4c3.2 12.1 13.1 29.8 33.6 29.8s30.3-17.6 33.6-29.8l35 13.4c-4.5 7-12.9 22.8-12.1 41.1.9 20.2 14.9 31.6 20.5 35.4-.2.8-.4 1.8-.6 2.9-.1.3-.1.5-.2.8v.1c-.1.3-.1.5-.2.8v.2c-.1.3-.1.5-.2.8v.3c0 .3-.1.5-.2.8 0 .1 0 .2-.1.3 0 .3-.1.5-.1.8 0 .1 0 .3-.1.4 0 .3-.1.5-.1.8 0 .1-.1.3-.1.4 0 .3-.1.5-.1.8 0 .2-.1.3-.1.5 0 .3-.1.6-.1.8 0 .1-.1.3-.1.4-.1.3-.1.6-.2.9 0 .2-.1.3-.1.5-.1.3-.1.6-.2.9 0 .1 0 .2-.1.3-.2 1.1-.4 2.3-.6 3.6 0 .2-.1.3-.1.5-.1.3-.1.6-.2 1 0 .2-.1.4-.1.6 0 .3-.1.6-.1.9 0 .2-.1.5-.1.7 0 .3-.1.6-.1.9 0 .2-.1.5-.1.7 0 .3-.1.6-.1.9s-.1.5-.1.8-.1.6-.1.9-.1.6-.1.8c0 .3-.1.6-.1.9s-.1.6-.1.9-.1.6-.1.9-.1.6-.1.9-.1.6-.1.9-.1.6-.1.9-.1.6-.1.9-.1.6-.1.9-.1.6-.1.9-.1.6-.1 1c0 .3-.1.6-.1.9s-.1.7-.1 1-.1.6-.1.9c0 .4-.1.7-.1 1.1 0 .3-.1.5-.1.8 0 .4-.1.8-.1 1.2 0 .2 0 .5-.1.7-.1.6-.1 1.3-.2 1.9.1.9 0 1.6 0 2.4z"/><path d="m718.3 1055.7c0-1 0-1.9 0-2.9 0-22.5 0-45 0-67.5 0-9.2 6.6-16.3 15.8-17.3 8.5-.9 16.6 5.1 18.4 13.7.3 1.5.3 3.1.3 4.6v26.8 3.1c5.5-2.9 10.9-3.6 16.5-1 5.5 2.5 8.6 6.9 10 12.9 5.4-3 10.9-3.7 16.5-1.2s8.8 6.9 10 12.4c3.3-.7 6.6-1.9 9.9-2 9.3-.2 17 7.5 17.1 16.7.1 21.4.3 42.8 0 64.2-.6 32.9-26.8 62.1-59 67.1-38.7 6-71.8-19.9-78.6-56.3-4.6-24.7-8.6-49.5-12.8-74.2-1.6-9.5 4.8-18.1 14.4-19.7 9-1.6 17.8 4.6 19.6 13.8.5 2.3.9 4.7 1.4 7 .2-.1.4-.2.5-.2zm8-13.4v55.4c0 4.1-1 5.8-3.5 6.1-2.7.3-4.1-1.2-4.9-5.2-3-15.6-6-31.2-9-46.8-.3-1.6-.9-3.3-1.7-4.7-2.3-3.7-6.9-5-11-3.4-4.4 1.7-6.5 5.9-5.6 11.2 4.2 24.1 8.2 48.3 12.6 72.4 5.8 32 34.8 55.6 69.4 50.2 28.4-4.5 51.6-30 52.3-58.8.5-21.4.2-42.8 0-64.2 0-2-1.2-4.4-2.5-6-2.3-3-6.4-3.8-9.9-2.5-3.7 1.3-6.1 4.7-6.1 8.8-.1 8.7 0 17.4 0 26.1 0 2.6-1.8 4.4-4.1 4.4-2.2-.1-3.8-1.8-3.9-4.4 0-.7 0-1.4 0-2.1 0-11.6 0-23.3 0-34.9 0-3.6-1.2-6.6-4.2-8.6-2.9-2-6.1-2.2-9.3-.6-3.3 1.7-5.1 4.5-5.1 8.2v24.7c0 .8 0 1.7-.2 2.5-.5 2-1.9 3-3.9 3-1.9 0-3.3-1-3.7-2.9-.2-.9-.2-1.8-.2-2.8 0-11.9 0-23.7 0-35.6 0-3.9-1.5-6.9-5-8.8-6.3-3.4-13.6 1.2-13.6 8.7-.1 11.8 0 23.6 0 35.4v2.3c-.2 2.1-1.8 3.6-3.8 3.7-2.1.1-3.9-1.5-4.1-3.6-.1-.8 0-1.5 0-2.3 0-15.1 0-30.3 0-45.4 0-11.9 0-23.9 0-35.8 0-3.8-1.6-6.8-5-8.6-6.3-3.4-13.6 1.2-13.6 8.6-.4 18.6-.4 37.4-.4 56.3z"/><path d="m735.9 930.1c20.9.9 37.4 9.9 47.7 28.5 10.2 18.3 9.5 37-.8 55.2-1.7 3-4.3 3.8-6.5 2.1-1.8-1.4-2-3.5-.5-6 4.7-7.9 7-16.5 6.8-25.7-.4-23.3-19.1-43.6-42.2-45.7-24.5-2.2-46.6 14.1-51 37.6-3.6 19.2 4.3 38 20.6 48.8 1.7 1.1 3.1 2.4 2.7 4.7-.4 3-3.6 4.3-6.5 2.5-8.1-5-14.3-11.8-18.9-20.1-18.8-34.1 2.7-76.3 41.3-81.3 2.4-.3 4.7-.4 7.3-.6z"/><path d="m735.6 946.5c29.6.2 48.2 32.3 33.6 58-1 1.7-2.1 3.1-4.3 3.1-3.1-.1-4.8-3.4-3.1-6.3 2.3-4 3.7-8.1 4.3-12.7 2-16.8-10.6-32-27.9-33.7-16.2-1.6-31.4 11.2-32.8 27.5-.7 8.4 1.5 15.8 6.7 22.3 1.3 1.6 1.7 3.3.5 5.1-1 1.6-2.5 2.2-4.2 1.6-1-.3-2-1.1-2.7-2-17.9-21.7-6.2-55.6 21.3-61.7 2.7-.5 5.6-.7 8.6-1.2z"/><path d="m1514.4 980.7h-39.5c-.3-5.6-4.9-10-10.5-10h-39.5c-.3-5.6-4.9-10-10.5-10h-39.5c-.3-5.6-4.9-10-10.5-10h-48c-5.8 0-10.5 4.7-10.5 10.5v128c0 5.8 4.7 10.5 10.5 10.5h19.5v35.5h9v-35.5h11c.3 5.6 4.9 10 10.5 10h19.5v35.5h9v-35.5h11c.3 5.6 4.9 10 10.5 10h19.5v35.5h9v-35.5h11c.3 5.6 4.9 10 10.5 10h19.5v35.5h9v-35.5h19.5c5.8 0 10.5-4.7 10.5-10.5v-128c0-5.8-4.7-10.5-10.5-10.5zm1.5 138.5c0 .8-.7 1.5-1.5 1.5h-48c-.7 0-1.2-.4-1.4-1 0-.1-.1-.3-.1-.5v-4-4.6-119.4c0-.7.4-1.2 1-1.4.2-.1.3-.1.5-.1h4 4.5 39.5c.8 0 1.5.7 1.5 1.5zm-201-30v-128c0-.8.7-1.5 1.5-1.5h48c.7 0 1.2.4 1.4 1-5.5.3-9.9 4.9-9.9 10.5v119.5h-39.5c-.8 0-1.5-.7-1.5-1.5zm50.1 10.4c0-.1-.1-.3-.1-.5v-4-4.6-119.4c0-.7.4-1.2 1-1.4.2-.1.3-.1.5-.1h4 4.5 39.5c.7 0 1.2.4 1.4 1-5.5.3-9.9 4.9-9.9 10.5v119.5h-39.5c-.6.1-1.2-.4-1.4-1zm50 10c0-.1-.1-.3-.1-.5v-4-4.6-119.4c0-.7.4-1.2 1-1.4.2-.1.3-.1.5-.1h4 4.5 39.5c.7 0 1.2.4 1.4 1-5.5.3-9.9 4.9-9.9 10.5v119.5h-39.5c-.6.1-1.2-.4-1.4-1z"/><path d="m1485.9 1206.7h-41v-33h-9v33h-41v-43h-9v43h-41v-53h-9v53h-42.1v9h201.1v-30.5h-9z"/><path d="m1813.4 150.8c-14.9-15.9-31.5-29.8-50.1-41.3-2-1.2-3.9-2.5-7.1-4.6 11.7-11.3 22.6-22 33.3-32.4-4.9-5-9.5-9.8-13.3-13.7-34.2 34.2-139.6 139.6-188.5 188.5 4 4.2 8.6 8.9 13.5 14 15.3-15.3 19.1-18.8 34.3-34.5 3.6-3.7 6.4-4.5 11.4-2.4 26.5 11.6 53.6 12.3 80.9 2.9 34-11.6 61.3-33.1 85.6-58.8 6.3-6.6 6.3-11 0-17.7zm-88.6 46.1c-17.5 16.5-46.3 18.8-63.8 4.4 6.2-6.1 12.4-12.3 18.6-18.3 3.1 1.4 6.6 2.2 10.3 2.2 14.1 0 25.5-11.4 25.5-25.5 0-3.7-.8-7.2-2.2-10.3 5.8-6.2 11.9-12.2 17.9-18.4 14.9 19.8 11.9 48.8-6.3 65.9z"/><path d="m1635.4 173.1c3.1-3 4.2-6 4-10.4-1.6-31.8 24.2-56.4 56-53.9 1.8.1 4.2-.2 5.3-1.3 5.8-5.4 11.3-11.1 17.5-17.2-12.4-4.6-31.2-5.6-46.9-2.6-43.3 8.4-76.4 33.7-105.8 64.7-4 4.2-4.6 9.7-.3 13.8 13.1 12.4 26.8 24.3 40.4 36.7 10.6-10.8 20-20.4 29.8-29.8z"/><path d="m-203.9 1160.8c-19.3 0-38.6.7-57.9-.2-35.3-1.7-66.5-31.7-69.2-67.1-1.4-18.8-.7-37.8-.8-56.6-.1-18.3-.1-36.7 0-55 .2-37.1 25.4-67.9 61.7-75.2 4.5-.9 9.2-1.3 13.7-1.3 35.1-.1 70.1-.2 105.2 0 33.8.2 63.3 22.8 72.2 55.4 1.9 6.9 2.8 14.2 2.9 21.3.3 33.6.2 67.1.1 100.7-.1 38.2-24.2 68.7-60.5 76.6-5.9 1.3-12.1 1.6-18.2 1.7-16.4.2-32.9.1-49.3.1.1-.2.1-.3.1-.4zm102.2-127.7c0-16.7.1-33.4-.1-50.2-.1-4.7-.4-9.6-1.6-14.1-5.9-22.9-25.6-37.9-49.8-37.9-33.6-.1-67.1-.1-100.7 0-3.8 0-7.6.3-11.3 1.1-24.1 4.9-40.5 24.9-40.6 49.6-.1 32.6-.1 65.2 0 97.9 0 4.3-.1 8.8.6 13 4.3 25.5 24.7 42.8 50.7 42.8 33.7.1 67.4 0 101.1 0 29.8 0 51.7-21.9 51.8-51.7 0-16.8-.1-33.7-.1-50.5z" fill="#fff"/><path d="m-203.3 967c36.9.4 65.9 30.3 65.5 67.4-.4 36-30.7 65.4-66.8 65-36.7-.4-65.8-30.6-65.3-67.7.4-35.8 30.6-65.1 66.6-64.7zm-.5 106.5c22.6-.1 40.6-18.4 40.4-40.8-.3-22.3-18.5-40.1-40.9-40-22 .2-40.1 18.5-40 40.5.1 22.4 18.2 40.4 40.5 40.3z" fill="#fff"/><path d="m-137.6 951.6c8.8 0 15.9 6.9 16 15.6s-7.3 16.1-16.1 16.1c-8.8-.1-15.7-7.1-15.7-15.9.1-8.9 7-15.8 15.8-15.8z" fill="#fff"/><path d="m-81.1 145.3c.3 67.3-54.8 122.5-122.4 122.7-67.8.2-122.8-54.5-123.2-122.4-.3-67.6 54.7-122.9 122.5-123.1 68-.2 122.8 54.5 123.1 122.8zm-122.8 78.1v.2c10.1 0 20.2.1 30.3 0 3.7-.1 7.5-.3 11.2-1.1 22.3-4.9 37.1-23.6 37.2-47.1.1-20.6.1-41.2-.1-61.9 0-4.4-.6-8.9-1.8-13.1-5.5-20-23.6-33.9-44.4-34-21.5-.1-43.1-.1-64.6 0-2.8 0-5.7.3-8.4.8-22.3 4.5-37.8 23.4-37.9 46.2-.1 11.3-.1 22.5 0 33.8.1 11.6-.4 23.2.5 34.8 1.6 21.7 20.8 40.2 42.5 41.2 11.8.7 23.7.2 35.5.2z" fill="#fff"/><path d="m-203.9 223.4c-11.9 0-23.7.5-35.6-.1-21.7-1-40.9-19.5-42.5-41.2-.9-11.5-.4-23.2-.5-34.8-.1-11.3-.1-22.5 0-33.8.1-22.8 15.6-41.7 37.9-46.2 2.8-.6 5.6-.8 8.4-.8 21.5-.1 43.1-.1 64.6 0 20.8.1 38.9 14 44.4 34 1.2 4.2 1.7 8.7 1.8 13.1.2 20.6.1 41.2.1 61.9-.1 23.4-14.9 42.2-37.2 47.1-3.6.8-7.4 1-11.2 1.1-10.1.1-20.2 0-30.3 0 .1-.1.1-.2.1-.3zm62.9-78.4c0-10.3.1-20.5-.1-30.8 0-2.9-.3-5.9-1-8.7-3.6-14.1-15.8-23.3-30.6-23.3-20.6-.1-41.2 0-61.9 0-2.3 0-4.7.2-7 .7-14.8 3-24.9 15.3-25 30.5-.1 20 0 40.1 0 60.1 0 2.7-.1 5.4.4 8 2.6 15.7 15.2 26.3 31.2 26.3h62.1c18.3 0 31.8-13.5 31.8-31.8.1-10.3.1-20.6.1-31z"/><path d="m-141 145v31.1c-.1 18.3-13.6 31.7-31.8 31.8-20.7 0-41.4 0-62.1 0-16 0-28.5-10.6-31.2-26.3-.4-2.6-.3-5.3-.4-8 0-20-.1-40.1 0-60.1.1-15.2 10.2-27.5 25-30.5 2.3-.5 4.6-.6 7-.7 20.6 0 41.2-.1 61.9 0 14.9 0 27 9.2 30.6 23.3.7 2.8.9 5.8 1 8.7zm-62.5-40.6c-22.1-.3-40.7 17.8-40.9 39.7-.3 22.8 17.6 41.3 40.1 41.6 22.2.3 40.8-17.8 41.1-39.9.2-22.8-17.6-41.1-40.3-41.4zm40.4-9.5c-5.4 0-9.7 4.3-9.7 9.7s4.2 9.7 9.6 9.8 9.9-4.5 9.9-9.9c-.1-5.3-4.4-9.6-9.8-9.6z" fill="#fff"/><path d="m-203.5 104.4c22.7.3 40.5 18.6 40.3 41.4-.2 22.1-18.9 40.2-41.1 39.9-22.6-.3-40.4-18.8-40.1-41.6.2-21.9 18.8-39.9 40.9-39.7zm-.3 65.4c13.9-.1 25-11.3 24.8-25.1-.2-13.7-11.3-24.7-25.1-24.6-13.5.1-24.7 11.4-24.6 24.9.1 13.8 11.2 24.9 24.9 24.8z"/><path d="m-163.1 94.9c5.4 0 9.8 4.3 9.8 9.6.1 5.4-4.5 9.9-9.9 9.9-5.4-.1-9.6-4.4-9.6-9.8s4.3-9.7 9.7-9.7z"/><path d="m-203.8 169.8c-13.7.1-24.8-11-24.9-24.8-.1-13.5 11.1-24.8 24.6-24.9 13.8-.1 24.9 10.8 25.1 24.6s-10.9 25-24.8 25.1z" fill="#fff"/></svg>