<svg enable-background="new 0 0 288 288" viewBox="0 0 288 288" xmlns="http://www.w3.org/2000/svg"><g fill="none"><path d="m198 99h45v45h-45z"/><path d="m278.5 31.5-3.5-7c-.1-.1-.1-.2-.1-.3-.1-.1-.1-.3-.1-.4-.1-.2-.1-.3-.1-.5 0-.1 0-.2-.1-.3 0-.2 0-.4 0-.5s0-.2 0-.3c0-.2.1-.4.1-.5s0-.2.1-.3c.1-.2.1-.4.2-.6 0-.1 0-.1.1-.2l.1-.2 3.4-6.8-2.4-4.6h-24.2v27h24.2z"/><path d="m276.2 90 2.2-4.5-3.5-7c-.1-.1-.1-.2-.1-.3-.1-.1-.1-.3-.1-.4-.1-.2-.1-.3-.1-.5 0-.1 0-.2-.1-.3 0-.2 0-.4 0-.5s0-.2 0-.3c0-.2.1-.4.1-.5s0-.2.1-.3c.1-.2.1-.4.2-.6 0-.1 0-.1.1-.2l.1-.2 3.4-6.8-3.5-7c-.1-.1-.1-.2-.1-.3-.1-.1-.1-.3-.1-.4-.1-.2-.1-.3-.1-.5 0-.1 0-.2-.1-.3 0-.2 0-.4 0-.5s0-.2 0-.3c0-.2.1-.4.1-.5s0-.2.1-.3c.1-.2.1-.4.2-.6 0-.1 0-.1.1-.2l.1-.2 3.4-6.8-2.3-4.5h-24.3v45h24.2z"/><path d="m198 45h45v45h-45z"/><path d="m90 45h45v45h-45z"/><path d="m144 99h45v45h-45z"/><path d="m90 99h45v45h-45z"/><path d="m144 45h45v45h-45z"/><path d="m144 180h22.5 22.5v-27h-45z"/><path d="m90 153h45v27h-45z"/><path d="m81 90v-45h-31.5c-4.7 0-9.3.8-13.5 2.3v44.6c4.3-1.2 8.8-1.9 13.5-1.9z"/><path d="m81 144v-45h-31.5c-4.7 0-9.3.8-13.5 2.3v44.6c4.3-1.2 8.8-1.9 13.5-1.9z"/><path d="m49.5 153c-4.7 0-9.3.8-13.5 2.3v26.6c4.3-1.2 8.8-1.9 13.5-1.9h31.5v-27z"/><path d="m198 153h45v27h-45z"/><path d="m45 229.5c0 2.5 2 4.5 4.5 4.5h58.5v-9h-58.5c-2.5 0-4.5 2-4.5 4.5z"/><path d="m135 189h-49.5-36c-22.3 0-40.5 18.2-40.5 40.5s18.2 40.5 40.5 40.5h81c17.4 0 31.5-14.1 31.5-31.5s-14.1-31.5-31.5-31.5h-81c-12.4 0-22.5 10.1-22.5 22.5s10.1 22.5 22.5 22.5h81c7.4 0 13.5-6.1 13.5-13.5s-6-13.5-13.5-13.5h-13.5v13.5c0 2.5-2 4.5-4.5 4.5h-63c-7.4 0-13.5-6.1-13.5-13.5s6.1-13.5 13.5-13.5h63s0 0 0 0h17.9c12.4 0 22.5 10.1 22.5 22.5s-10.1 22.5-22.5 22.5h-81c-17.3 0-31.4-14.1-31.4-31.5s14.1-31.5 31.5-31.5h81c12.7 0 24.1 5.9 31.5 15.1v-24.1h-22.5z"/><path d="m27 185.4v-25.6c-10.8 7.3-18 19.6-18 33.7v7.6c4.6-6.6 10.8-12 18-15.7z"/><path d="m27 149.4v-43.6c-10.8 7.3-18 19.6-18 33.7v25.6c4.6-6.6 10.8-12 18-15.7z"/><path d="m278.5 139.5-3.5-7c-.1-.1-.1-.2-.1-.3-.1-.1-.1-.3-.1-.4-.1-.2-.1-.3-.1-.5 0-.1 0-.2-.1-.3 0-.2 0-.4 0-.5s0-.2 0-.3c0-.2.1-.4.1-.5s0-.2.1-.3c.1-.2.1-.4.2-.6 0-.1 0-.1.1-.2l.1-.2 3.4-6.8-3.5-7c-.1-.1-.1-.2-.1-.3-.1-.1-.1-.3-.1-.4-.1-.2-.1-.3-.1-.5 0-.1 0-.2-.1-.3 0-.2 0-.4 0-.5s0-.2 0-.3c0-.2.1-.4.1-.5s0-.2.1-.3c.1-.2.1-.4.2-.6 0-.1 0-.1.1-.2l.1-.2 3.4-6.8-2.3-4.5h-24.4v45h24.2z"/><path d="m278.5 175.5-3.5-7c-.1-.1-.1-.2-.1-.3-.1-.1-.1-.3-.1-.4-.1-.2-.1-.3-.1-.5 0-.1 0-.2-.1-.3 0-.2 0-.4 0-.5s0-.2 0-.3c0-.2.1-.4.1-.5s0-.2.1-.3c.1-.2.1-.4.2-.6 0-.1 0-.1.1-.2l.1-.2 3.4-6.8-2.3-4.5h-24.3v27h24.2z"/><path d="m144 9h45v27h-45z"/><path d="m198 9h45v27h-45z"/><path d="m27 95.4v-43.6c-10.8 7.3-18 19.7-18 33.7v25.6c4.6-6.6 10.8-12 18-15.7z"/><path d="m90 9h45v27h-45z"/><path d="m36 11.3v26.6c4.3-1.2 8.8-1.9 13.5-1.9h31.5v-27h-31.5c-4.7 0-9.3.8-13.5 2.3z"/><path d="m27 41.4v-25.6c-10.8 7.3-18 19.7-18 33.7v7.6c4.6-6.6 10.8-12 18-15.7z"/></g><path d="m287.7 33.1c0-.1.1-.2.1-.3.1-.2.1-.4.1-.5s0-.2.1-.3c0-.2 0-.4 0-.5s0-.2 0-.3c0-.2 0-.3-.1-.5 0-.1 0-.2-.1-.4s-.1-.3-.2-.5c0-.1-.1-.2-.1-.2l-3.5-7 3.5-7c.1-.1.1-.3.1-.4s.1-.2.1-.3c.1-.2.1-.4.1-.5s0-.2.1-.3c0-.2 0-.4 0-.5s0-.2 0-.3c0-.2 0-.3-.1-.5 0-.1 0-.2-.1-.4s-.1-.3-.2-.5c0-.1-.1-.2-.1-.2l-4.5-9c0-.1-.1-.1-.1-.2-.1-.1-.2-.3-.3-.4s-.2-.2-.3-.3-.2-.2-.3-.3-.2-.2-.3-.3-.3-.2-.4-.3-.2-.1-.3-.2c-.2-.1-.3-.1-.5-.2-.1 0-.2-.1-.3-.1-.2 0-.3-.1-.5-.1-.1 0-.3 0-.4 0s-.2 0-.3 0h-31.5-54-54-54-36c-7 0-13.6 1.5-19.6 4.1-.1.1-.2.1-.3.2-17.3 7.3-29.5 24.7-29.5 44.9v36 54 54 36c0 27.3 22.2 49.5 49.5 49.5h81c22.3 0 40.5-18.2 40.5-40.5v-49.5h22.5 54 31.5c.3 0 .5 0 .8-.1h.2c.2 0 .4-.1.6-.2 0 0 .1 0 .1-.1.2-.1.5-.2.7-.4.1 0 .1-.1.2-.1.2-.1.3-.3.5-.4 0 0 .1-.1.1-.1.2-.2.4-.4.5-.6 0 0 0-.1.1-.1.1-.1.2-.3.3-.4l4.5-9c.1-.1.1-.3.1-.4s.1-.2.1-.3c.1-.2.1-.4.1-.5s0-.2.1-.3c0-.2 0-.4 0-.5s0-.2 0-.3c0-.2 0-.3-.1-.5 0-.1 0-.2-.1-.4s-.1-.3-.2-.5c0-.1-.1-.2-.1-.2l-3.5-7 3.5-7c.1-.1.1-.3.1-.4s.1-.2.1-.3c.1-.2.1-.4.1-.5s0-.2.1-.3c0-.2 0-.4 0-.5s0-.2 0-.3c0-.2 0-.3-.1-.5 0-.1 0-.2-.1-.4s-.1-.3-.2-.5c0-.1-.1-.2-.1-.2l-3.5-7 3.5-7c.1-.1.1-.3.1-.4s.1-.2.1-.3c.1-.2.1-.4.1-.5s0-.2.1-.3c0-.2 0-.4 0-.5s0-.2 0-.3c0-.2 0-.3-.1-.5 0-.1 0-.2-.1-.4s-.1-.3-.2-.5c0-.1-.1-.2-.1-.2l-3.5-7 3.5-7c.1-.1.1-.3.1-.4s.1-.2.1-.3c.1-.2.1-.4.1-.5s0-.2.1-.3c0-.2 0-.4 0-.5s0-.2 0-.3c0-.2 0-.3-.1-.5 0-.1 0-.2-.1-.4s-.1-.3-.2-.5c0-.1-.1-.2-.1-.2l-3.5-7 3.5-7c.1-.1.1-.3.1-.4s.1-.2.1-.3c.1-.2.1-.4.1-.5s0-.2.1-.3c0-.2 0-.4 0-.5s0-.2 0-.3c0-.2 0-.3-.1-.5 0-.1 0-.2-.1-.4s-.1-.3-.2-.5c0-.1-.1-.2-.1-.2l-3.5-7 3.5-7c.1-.1.1-.3.1-.4s.1-.2.1-.3c.1-.2.1-.4.1-.5s0-.2.1-.3c0-.2 0-.4 0-.5s0-.2 0-.3c0-.2 0-.3-.1-.5 0-.1 0-.2-.1-.4s-.1-.3-.2-.5c0-.1-.1-.2-.1-.2l-3.5-7 3.5-7c.1-.1.1-.3.1-.4s.1-.2.1-.3c.1-.2.1-.4.1-.5s0-.2.1-.3c0-.2 0-.4 0-.5s0-.2 0-.3c0-.2 0-.3-.1-.5 0-.1 0-.2-.1-.4s-.1-.3-.2-.5c0-.1-.1-.2-.1-.2l-3.5-7 3.5-7c.1-.1.1-.3.1-.4s.1-.2.1-.3c.1-.2.1-.4.1-.5s0-.2.1-.3c0-.2 0-.4 0-.5s0-.2 0-.3c0-.2 0-.3-.1-.5 0-.1 0-.2-.1-.4s-.1-.3-.2-.5c0-.1-.1-.2-.1-.2l-3.5-7 3.5-7c.8-.9.8-1 .9-1.2zm-98.7 146.9h-22.5-22.5v-27h45zm-99 0v-27h45v27zm-40.5 0c-4.7 0-9.2.7-13.5 1.9v-26.6c4.2-1.5 8.8-2.3 13.5-2.3h31.5v27zm-13.5-78.7c4.2-1.5 8.8-2.3 13.5-2.3h31.5v45h-31.5c-4.7 0-9.2.7-13.5 1.9zm0-54c4.2-1.5 8.8-2.3 13.5-2.3h31.5v45h-31.5c-4.7 0-9.2.7-13.5 1.9zm216-38.3h24.2l2.3 4.5-3.4 6.8-.1.2c0 .1 0 .1-.1.2-.1.2-.2.4-.2.6 0 .1 0 .2-.1.3 0 .2-.1.4-.1.5v.3.5c0 .1 0 .2.1.3 0 .2.1.3.1.5 0 .1.1.3.1.4s.1.2.1.3l3.5 7-2.2 4.5h-24.2zm24.2 36 2.3 4.5-3.4 6.8-.1.2c0 .1 0 .1-.1.2-.1.2-.2.4-.2.6 0 .1 0 .2-.1.3 0 .2-.1.4-.1.5v.3.5c0 .1 0 .2.1.3 0 .2.1.3.1.5 0 .1.1.3.1.4s.1.2.1.3l3.5 7-3.4 6.8-.1.2c0 .1 0 .1-.1.2-.1.2-.2.4-.2.6 0 .1 0 .2-.1.3 0 .2-.1.4-.1.5v.3.5c0 .1 0 .2.1.3 0 .2.1.3.1.5 0 .1.1.3.1.4s.1.2.1.3l3.5 7-2.2 4.5h-24.1v-44.8zm-33.2 45h-45v-45h45zm-54 0h-45v-45h45zm-54 0h-45v-45h45zm0 54h-45v-45h45zm9 0v-45h45v45zm54-45h45v45h-45zm54 0h24.2l2.3 4.5-3.4 6.8-.1.2c0 .1 0 .1-.1.2-.1.2-.2.4-.2.6 0 .1 0 .2-.1.3 0 .2-.1.4-.1.5v.3.5c0 .1 0 .2.1.3 0 .2.1.3.1.5 0 .1.1.3.1.4s.1.2.1.3l3.5 7-3.4 6.8-.1.2c0 .1 0 .1-.1.2-.1.2-.2.4-.2.6 0 .1 0 .2-.1.3 0 .2-.1.4-.1.5v.3.5c0 .1 0 .2.1.3 0 .2.1.3.1.5 0 .1.1.3.1.4s.1.2.1.3l3.5 7-2.2 4.5h-24.1zm-9-63h-45v-27h45zm-54 0h-45v-27h45zm-54 0h-45v-27h45zm-54 0h-31.5c-4.7 0-9.2.7-13.5 1.9v-26.6c4.2-1.5 8.8-2.3 13.5-2.3h31.5zm-72 13.5c0-14 7.2-26.4 18-33.7v25.6c-7.2 3.7-13.4 9.1-18 15.7zm0 36c0-14 7.2-26.4 18-33.7v43.6c-7.2 3.7-13.4 9.1-18 15.7zm0 54c0-14 7.2-26.4 18-33.7v43.6c-7.2 3.7-13.4 9.1-18 15.7zm0 54c0-14 7.2-26.4 18-33.7v25.6c-7.2 3.7-13.4 9.1-18 15.7zm153 19.6c-7.4-9.2-18.8-15.1-31.5-15.1h-81c-17.4 0-31.5 14.1-31.5 31.5s14.1 31.5 31.5 31.5h81c12.4 0 22.5-10.1 22.5-22.5s-10.1-22.5-22.5-22.5h-17.9s0 0 0 0h-63c-7.4 0-13.5 6.1-13.5 13.5s6.1 13.5 13.5 13.5h63c2.5 0 4.5-2 4.5-4.5v-13.5h13.5c7.4 0 13.5 6.1 13.5 13.5s-6.1 13.5-13.5 13.5h-81c-12.5 0-22.6-10.1-22.6-22.5s10.1-22.5 22.5-22.5h81c17.4 0 31.5 14.1 31.5 31.5s-14.1 31.5-31.5 31.5h-81c-22.3 0-40.5-18.2-40.5-40.5s18.2-40.5 40.5-40.5h36 49.5 4.5 22.5zm-54 20.9h-58.5c-2.5 0-4.5-2-4.5-4.5s2-4.5 4.5-4.5h58.5zm90-81h45v27h-45zm54 0h24.2l2.3 4.5-3.4 6.8-.1.2c0 .1 0 .1-.1.2-.1.2-.2.4-.2.6 0 .1 0 .2-.1.3 0 .2-.1.4-.1.5v.3.5c0 .1 0 .2.1.3 0 .2.1.3.1.5 0 .1.1.3.1.4s.1.2.1.3l3.5 7-2.2 4.5h-24.2z"/></svg>