<?xml version="1.0" encoding="utf-8"?>
<!-- Generator: Adobe Illustrator 23.0.1, SVG Export Plug-In . SVG Version: 6.00 Build 0)  -->
<svg version="1.1" id="Layer_1" xmlns="http://www.w3.org/2000/svg" xmlns:xlink="http://www.w3.org/1999/xlink" x="0px" y="0px"
	 viewBox="0 0 255 255" style="enable-background:new 0 0 255 255;" xml:space="preserve">
<g>
	<path d="M242.6,22.5c-3.2,0-6.2-1.3-8.5-3.5c-3.3-3.3-7.7-5.1-12.4-5.1c-4.7,0-9.1,1.8-12.4,5.1c-2.3,2.3-5.3,3.5-8.5,3.5
		c-3.2,0-6.2-1.3-8.5-3.5c-3.3-3.3-7.7-5.1-12.4-5.1c-4.7,0-9.1,1.8-12.4,5.1c-2.3,2.3-5.3,3.5-8.5,3.5c-3.2,0-6.2-1.3-8.5-3.5
		c-3.3-3.3-7.7-5.1-12.4-5.1c-4.7,0-9.1,1.8-12.4,5.1c-2.3,2.3-5.3,3.5-8.5,3.5c-3.2,0-6.2-1.3-8.5-3.5c-3.3-3.3-7.7-5.1-12.4-5.1
		c-4.7,0-9.1,1.8-12.4,5.1c-2.3,2.3-5.3,3.5-8.5,3.5c-3.2,0-6.2-1.3-8.5-3.5c-3.3-3.3-7.7-5.1-12.4-5.1s-9.1,1.8-12.4,5.1
		c-2.3,2.3-5.3,3.5-8.5,3.5c-3.2,0-6.2-1.3-8.5-3.5c-3.3-3.3-7.7-5.1-12.4-5.1S3.3,15.7,0,19l3.9,3.9c2.3-2.3,5.3-3.5,8.5-3.5
		s6.2,1.3,8.5,3.5c3.3,3.3,7.7,5.1,12.4,5.1c4.7,0,9.1-1.8,12.4-5.1c2.3-2.3,5.3-3.5,8.5-3.5s6.2,1.3,8.5,3.5
		c3.3,3.3,7.7,5.1,12.4,5.1c4.7,0,9.1-1.8,12.4-5.1c2.3-2.3,5.3-3.5,8.5-3.5s6.2,1.3,8.5,3.5c3.3,3.3,7.7,5.1,12.4,5.1
		c4.7,0,9.1-1.8,12.4-5.1c2.3-2.3,5.3-3.5,8.5-3.5s6.2,1.3,8.5,3.5c3.3,3.3,7.7,5.1,12.4,5.1c4.7,0,9.1-1.8,12.4-5.1
		c2.3-2.3,5.3-3.5,8.5-3.5s6.2,1.3,8.5,3.5c3.3,3.3,7.7,5.1,12.4,5.1c4.7,0,9.1-1.8,12.4-5.1c2.3-2.3,5.3-3.5,8.5-3.5
		s6.2,1.3,8.5,3.5c3.3,3.3,7.7,5.1,12.4,5.1c4.7,0,9.1-1.8,12.4-5.1l-3.9-3.9C248.8,21.3,245.8,22.5,242.6,22.5z"/>
	<path d="M12.4,5.5c3.2,0,6.2,1.3,8.5,3.5c3.3,3.3,7.7,5.1,12.4,5.1c4.7,0,9.1-1.8,12.4-5.1c2.3-2.3,5.3-3.5,8.5-3.5
		s6.2,1.3,8.5,3.5c3.3,3.3,7.7,5.1,12.4,5.1c4.7,0,9.1-1.8,12.4-5.1c2.3-2.3,5.3-3.5,8.5-3.5s6.2,1.3,8.5,3.5
		c3.3,3.3,7.7,5.1,12.4,5.1c4.7,0,9.1-1.8,12.4-5.1c2.3-2.3,5.3-3.5,8.5-3.5s6.2,1.3,8.5,3.5c3.3,3.3,7.7,5.1,12.4,5.1
		c4.7,0,9.1-1.8,12.4-5.1c2.3-2.3,5.3-3.5,8.5-3.5s6.2,1.3,8.5,3.5c3.3,3.3,7.7,5.1,12.4,5.1c4.7,0,9.1-1.8,12.4-5.1
		c2.3-2.3,5.3-3.5,8.5-3.5s6.2,1.3,8.5,3.5c3.3,3.3,7.7,5.1,12.4,5.1c4.7,0,9.1-1.8,12.4-5.1l-3.9-3.9c-2.3,2.3-5.3,3.5-8.5,3.5
		s-6.2-1.3-8.5-3.5c-3.3-3.3-7.7-5.1-12.4-5.1c-4.7,0-9.1,1.8-12.4,5.1c-2.3,2.3-5.3,3.5-8.5,3.5c-3.2,0-6.2-1.3-8.5-3.5
		c-3.3-3.3-7.7-5.1-12.4-5.1c-4.7,0-9.1,1.8-12.4,5.1c-2.3,2.3-5.3,3.5-8.5,3.5c-3.2,0-6.2-1.3-8.5-3.5C147.1,1.8,142.7,0,138,0
		c-4.7,0-9.1,1.8-12.4,5.1c-2.3,2.3-5.3,3.5-8.5,3.5c-3.2,0-6.2-1.3-8.5-3.5C105.2,1.8,100.8,0,96.1,0C91.4,0,87,1.8,83.7,5.1
		c-2.3,2.3-5.3,3.5-8.5,3.5c-3.2,0-6.2-1.3-8.5-3.5C63.4,1.8,59,0,54.3,0s-9.1,1.8-12.4,5.1c-2.3,2.3-5.3,3.5-8.5,3.5
		c-3.2,0-6.2-1.3-8.5-3.5C21.5,1.8,17.1,0,12.4,0S3.3,1.8,0,5.1l3.9,3.9C6.2,6.8,9.2,5.5,12.4,5.5z"/>
	<path d="M242.6,36.4c-3.2,0-6.2-1.3-8.5-3.5c-3.3-3.3-7.7-5.1-12.4-5.1c-4.7,0-9.1,1.8-12.4,5.1c-2.3,2.3-5.3,3.5-8.5,3.5
		c-3.2,0-6.2-1.3-8.5-3.5c-3.3-3.3-7.7-5.1-12.4-5.1c-4.7,0-9.1,1.8-12.4,5.1c-2.3,2.3-5.3,3.5-8.5,3.5c-3.2,0-6.2-1.3-8.5-3.5
		c-3.3-3.3-7.7-5.1-12.4-5.1c-4.7,0-9.1,1.8-12.4,5.1c-2.3,2.3-5.3,3.5-8.5,3.5c-3.2,0-6.2-1.3-8.5-3.5c-3.3-3.3-7.7-5.1-12.4-5.1
		c-4.7,0-9.1,1.8-12.4,5.1c-2.3,2.3-5.3,3.5-8.5,3.5c-3.2,0-6.2-1.3-8.5-3.5c-3.3-3.3-7.7-5.1-12.4-5.1s-9.1,1.8-12.4,5.1
		c-2.3,2.3-5.3,3.5-8.5,3.5c-3.2,0-6.2-1.3-8.5-3.5c-3.3-3.3-7.7-5.1-12.4-5.1S3.3,29.6,0,32.9l3.9,3.9c2.3-2.3,5.3-3.5,8.5-3.5
		s6.2,1.3,8.5,3.5c3.3,3.3,7.7,5.1,12.4,5.1c4.7,0,9.1-1.8,12.4-5.1c2.3-2.3,5.3-3.5,8.5-3.5s6.2,1.3,8.5,3.5
		c3.3,3.3,7.7,5.1,12.4,5.1c4.7,0,9.1-1.8,12.4-5.1c2.3-2.3,5.3-3.5,8.5-3.5s6.2,1.3,8.5,3.5c3.3,3.3,7.7,5.1,12.4,5.1
		c4.7,0,9.1-1.8,12.4-5.1c2.3-2.3,5.3-3.5,8.5-3.5s6.2,1.3,8.5,3.5c3.3,3.3,7.7,5.1,12.4,5.1c4.7,0,9.1-1.8,12.4-5.1
		c2.3-2.3,5.3-3.5,8.5-3.5s6.2,1.3,8.5,3.5c3.3,3.3,7.7,5.1,12.4,5.1c4.7,0,9.1-1.8,12.4-5.1c2.3-2.3,5.3-3.5,8.5-3.5
		s6.2,1.3,8.5,3.5c3.3,3.3,7.7,5.1,12.4,5.1c4.7,0,9.1-1.8,12.4-5.1l-3.9-3.9C248.8,35.2,245.8,36.4,242.6,36.4z"/>
</g>
<g>
	<path d="M127.5,204.5l-47.1-72.4h19.6V77h55.2v55.1h19.6L127.5,204.5z M89.6,137.2l37.9,58.2l37.9-58.2h-15.3V82h-45.2v55.1H89.6z"
		/>
</g>
<polygon points="219.6,239.6 35.4,239.6 0,255 255,255 "/>
</svg>
