<?xml version="1.0" encoding="utf-8"?>
<!-- Generator: Adobe Illustrator 23.0.1, SVG Export Plug-In . SVG Version: 6.00 Build 0)  -->
<svg version="1.1" id="Layer_1" xmlns="http://www.w3.org/2000/svg" xmlns:xlink="http://www.w3.org/1999/xlink" x="0px" y="0px"
	 viewBox="0 0 392.4 392.4" style="enable-background:new 0 0 392.4 392.4;" xml:space="preserve">
<g>
	<path d="M89.4,226.4c6.2-0.5,12.8-0.8,19.9-1v-9.6c-6.8,0.1-13.5,0.5-20,1c0.1,0.5,0.1,1,0.1,1.5V226.4z"/>
	<path d="M170.5,220v9.7c25.3,4.6,38.3,11.9,38.3,16.6c0,7.3-31.5,20.9-91.7,20.9c-23.8,0-43.1-2.1-57.8-5.2
		c-1.5-0.2-2.9-0.5-4.1-0.9c-19.7-4.6-29.8-10.7-29.8-14.8c0-3.3,6.4-7.8,18.9-11.9v-10c-17.2,5.1-28.5,12.4-28.5,21.9v64.3v74.2
		c0,2.7,2.2,4.8,4.8,4.8s4.8-2.2,4.8-4.8v-60.4c17.1,11,54.5,16.7,91.7,16.7s74.5-5.7,91.7-16.7v61.3c0,2.7,2.2,4.8,4.8,4.8
		s4.8-2.2,4.8-4.8v-75.1v-64.3C218.5,233.6,198.1,224.8,170.5,220z M117.1,331.5c-60.2,0-91.7-13.6-91.7-20.9v-50.5
		c17.1,11,54.5,16.7,91.7,16.7s74.5-5.7,91.7-16.7v50.5C208.8,317.9,177.3,331.5,117.1,331.5z"/>
	<path d="M131.8,225.7c5.7,0.2,11.1,0.6,16.2,1v-9.6c-5.3-0.5-10.7-0.8-16.2-1V225.7z"/>
	<path d="M112.5,113.4v102.3v9.7v4c0,4.4,3.6,8,8,8c4.4,0,8-3.6,8-8v-3.8v-9.6V113.4c-2.4,0.4-5.1,0.6-8,0.6
		C117.6,114.1,114.9,113.8,112.5,113.4z"/>
	<path d="M66.9,259.3c9,0,18.5-2.3,19.2-8.8h0.1v-23.8v-8.4c0-0.4,0-0.8-0.1-1.3c-1.1-6.2-10.4-8.4-19.2-8.4
		c-9.3,0-19.3,2.5-19.3,9.6v5.2v9.9v17.1h0.1C48.4,257,57.9,259.3,66.9,259.3z M57.2,226.9c3,0.7,6.4,1,9.6,1s6.7-0.3,9.6-1v0.8
		v20.4c-1.5,0.7-4.9,1.5-9.6,1.5h0c-4.7,0-8.1-0.9-9.6-1.5V231V226.9z"/>
	<path d="M109.3,109.4c0.5,0.2,1.1,0.3,1.6,0.4c0.5,0.1,1.1,0.2,1.6,0.3c2.6,0.5,5.3,0.7,8,0.7c2.7,0,5.5-0.2,8-0.7
		c0.5-0.1,1.1-0.2,1.6-0.3c0.5-0.1,1.1-0.3,1.6-0.4c4.3-1.3,7.6-3.7,8-7.4h0.1V37.7c0-3.7-2.7-6.1-6.6-7.7v-1.7v-1.7v-21
		c0-3.1-2.5-5.6-5.6-5.6c-3.1,0-5.6,2.5-5.6,5.6v19.2v1.6v1.6c-0.5,0-1,0-1.5,0c-9.3,0-19.3,2.5-19.3,9.6V102h0.1
		C101.7,105.7,105,108,109.3,109.4z M123.6,28.1v-1.6v-1.6V5.6c0-2.2,1.8-4,4-4c2.2,0,4,1.8,4,4v20.5v1.7v1.7V33c0,2.2-1.8,4-4,4
		c-2.2,0-4-1.8-4-4V28.1z M112.2,31.6c2.7,0,4.8,1.4,4.8,3.2c0,1.8-2.2,3.2-4.8,3.2c-2.7,0-4.8-1.4-4.8-3.2
		C107.3,33.1,109.5,31.6,112.2,31.6z"/>
	<path d="M368.3,316.8c-22.2,0-40.2-18-40.2-40.2v-92.9c0-48.8-39.7-88.4-88.4-88.4s-88.4,39.7-88.4,88.4v33.6v9.6v20.3
		c0,4.4,3.6,8,8,8c4.4,0,8-3.6,8-8v-18.2v-9.7v-35.7c0-39.9,32.5-72.4,72.4-72.4s72.4,32.5,72.4,72.4v92.9c0,31,25.2,56.3,56.3,56.3
		c4.4,0,8-3.6,8-8C376.4,320.4,372.7,316.8,368.3,316.8z"/>
</g>
</svg>
