<svg enable-background="new 0 0 288 288" viewBox="0 0 288 288" xmlns="http://www.w3.org/2000/svg"><path d="m239.6 170.7-29.1-29.1 28.4-28.4c1.8-1.8 1.8-4.6 0-6.4s-4.6-1.8-6.4 0l-28.4 28.4-25.2-25.2 28.4-28.4c1.8-1.8 1.8-4.6 0-6.4s-4.6-1.8-6.4 0l-28.4 28.4-25.2-25.2 28.4-28.4c1.8-1.8 1.8-4.6 0-6.4s-4.6-1.8-6.4 0l-28.3 28.5-27.7-27.7c-1.8-1.8-4.6-1.8-6.4 0s-1.8 4.6 0 6.4l27.7 27.7-25.2 25.2-27.7-27.7c-1.8-1.8-4.6-1.8-6.4 0s-1.8 4.6 0 6.4l27.7 27.6-25.2 25.2-27.7-27.7c-1.8-1.8-4.6-1.8-6.4 0s-1.8 4.6 0 6.4l27.7 27.7-28.4 28.4c-1.8 1.8-1.8 4.6 0 6.4.9.9 2 1.3 3.2 1.3s2.3-.4 3.2-1.3l28.4-28.4 25.2 25.2-28.4 28.4c-1.8 1.8-1.8 4.6 0 6.4.9.9 2 1.3 3.2 1.3s2.3-.4 3.2-1.3l28.4-28.4 25.2 25.2-28.4 28.4c-1.8 1.8-1.8 4.6 0 6.4.9.9 2 1.3 3.2 1.3s2.3-.4 3.2-1.3l28.4-28.4 29.1 29.1c.9.9 2 1.3 3.2 1.3s2.3-.4 3.2-1.3c1.8-1.8 1.8-4.6 0-6.4l-29.1-29.1 25.2-25.2 29.1 29.1c.9.9 2 1.3 3.2 1.3s2.3-.4 3.2-1.3c1.8-1.8 1.8-4.6 0-6.4l-29.1-29.1 25.2-25.2 29.1 29.1c.9.9 2 1.3 3.2 1.3s2.3-.4 3.2-1.3c1.7-1.8 1.7-4.6-.1-6.4zm-98.6-85.9 25.2 25.2-25.2 25.3-25.3-25.3zm-56.8 56.8 25.2-25.2 25.2 25.2-25.2 25.2zm56.8 56.8-25.2-25.2 25.2-25.2 25.2 25.2zm31.5-31.6-25.2-25.2 25.2-25.2 25.2 25.2z"/></svg>