<svg enable-background="new 0 0 512 512" viewBox="0 0 512 512" xmlns="http://www.w3.org/2000/svg"><path d="m512 256c0-141.4-114.6-256-256-256s-256 114.6-256 256c0 127.8 93.6 233.7 216 252.9v-178.9h-65v-74h65v-56.4c0-64.2 38.2-99.6 96.7-99.6 28 0 57.3 5 57.3 5v63h-32.3c-31.8 0-41.7 19.7-41.7 40v48h71l-11.4 74h-59.6v178.9c122.4-19.2 216-125.1 216-252.9z" fill="#1877f2"/><path d="m355.6 330 11.4-74h-71v-48c0-20.2 9.9-40 41.7-40h32.3v-63s-29.3-5-57.3-5c-58.5 0-96.7 35.4-96.7 99.6v56.4h-65v74h65v178.9c13 2 26.4 3.1 40 3.1s27-1.1 40-3.1v-178.9z" fill="#fff"/></svg>