<svg enable-background="new 0 0 256 256" height="256" viewBox="0 0 256 256" width="256" xmlns="http://www.w3.org/2000/svg"><path d="m241.9 0h-227.8c-7.8 0-14.1 6.3-14.1 14.1v227.7c0 7.8 6.3 14.1 14.1 14.1h122.6v-99h-33.2v-38.8h33.2v-28.3c0-33.1 20.2-51.1 49.7-51.1 14.1 0 26.3 1 29.8 1.5v34.6h-20.3c-16.1 0-19.2 7.6-19.2 18.8v24.7h38.4l-5 38.8h-33.4v99h65.1c7.8 0 14.1-6.3 14.1-14.1v-227.9c.1-7.8-6.2-14.1-14-14.1z" fill="none"/><path d="m176.8 256v-99h33.4l5-38.8h-38.4v-24.6c0-11.2 3.1-18.8 19.2-18.8h20.3v-34.6c-3.5-.5-15.7-1.5-29.8-1.5-29.5 0-49.7 18-49.7 51.1v28.5h-33.2v38.7h33.2v99z" fill="#fff"/></svg>