<svg enable-background="new 0 0 152.5 256" height="256" viewBox="0 0 152.5 256" width="152.5" xmlns="http://www.w3.org/2000/svg"><path d="m37.8 125.6c0-1 0-1.9 0-2.9 0-22.5 0-45 0-67.5 0-9.2 6.6-16.3 15.8-17.3 8.5-.9 16.6 5.1 18.5 13.7.3 1.5.3 3.1.3 4.6v26.8 3.1c5.5-2.9 10.9-3.6 16.5-1 5.5 2.5 8.6 6.9 10 12.9 5.4-3 10.9-3.7 16.5-1.2s8.8 6.9 10 12.4c3.3-.7 6.6-1.9 9.9-2 9.3-.2 17 7.5 17.1 16.7.1 21.4.3 42.8 0 64.2-.6 32.9-26.8 62.1-59 67.1-38.7 6-71.8-19.9-78.6-56.3-4.6-24.7-8.6-49.5-12.8-74.2-1.6-9.5 4.8-18.1 14.4-19.7 9-1.6 17.8 4.6 19.6 13.8.5 2.3.9 4.7 1.4 7 .1-.1.3-.2.4-.2zm8-13.4v55.4c0 4.1-1 5.8-3.5 6.1-2.7.3-4.1-1.3-4.9-5.2-3-15.6-6-31.2-9-46.8-.3-1.6-.9-3.3-1.7-4.7-2.3-3.7-6.9-5-11-3.4-4.4 1.7-6.5 5.9-5.6 11.2 4.2 24.1 8.2 48.3 12.6 72.4 5.8 32 34.8 55.6 69.4 50.2 28.4-4.5 51.6-30 52.3-58.8.5-21.4.2-42.8 0-64.2 0-2-1.2-4.4-2.5-6-2.3-3-6.4-3.8-9.9-2.5-3.7 1.3-6.1 4.7-6.1 8.8-.1 8.7 0 17.4 0 26.1 0 2.6-1.8 4.4-4.1 4.4-2.2-.1-3.8-1.8-3.9-4.4 0-.7 0-1.4 0-2.1 0-11.6 0-23.3 0-34.9 0-3.6-1.2-6.6-4.2-8.6-2.9-2-6.1-2.2-9.3-.6-3.3 1.7-5.1 4.5-5.1 8.2v24.7c0 .8 0 1.7-.2 2.5-.5 2-1.9 3-3.9 3-1.9 0-3.3-1-3.7-2.9-.2-.9-.2-1.8-.2-2.8 0-11.9 0-23.7 0-35.6 0-3.9-1.5-6.9-5-8.8-6.3-3.4-13.6 1.2-13.6 8.7-.1 11.8 0 23.6 0 35.4v2.3c-.2 2.1-1.8 3.6-3.8 3.7-2.1.1-3.9-1.5-4.1-3.6-.1-.8 0-1.5 0-2.3 0-15.1 0-30.3 0-45.4 0-11.9 0-23.9 0-35.8 0-3.8-1.6-6.8-5-8.6-6.3-3.4-13.6 1.2-13.6 8.6-.4 18.6-.4 37.4-.4 56.3z"/><path d="m55.4 0c20.9.9 37.4 9.9 47.7 28.5 10.2 18.3 9.5 37-.8 55.2-1.7 3-4.3 3.8-6.5 2.1-1.8-1.4-2-3.5-.5-6 4.7-7.9 7-16.5 6.8-25.7-.3-23.3-19.1-43.7-42.1-45.7-24.6-2.2-46.6 14.1-51 37.6-3.6 19.2 4.3 38 20.6 48.8 1.7 1.1 3.1 2.4 2.7 4.7-.4 3-3.6 4.3-6.5 2.5-8.1-5-14.3-11.8-18.9-20.1-18.8-34.1 2.7-76.4 41.3-81.3 2.3-.3 4.6-.4 7.2-.6z"/><path d="m55.1 16.4c29.6.2 48.2 32.3 33.6 58-1 1.7-2.1 3.1-4.3 3.1-3.1-.1-4.8-3.4-3.1-6.3 2.3-4 3.7-8.1 4.3-12.7 2-16.8-10.6-32-27.9-33.7-16.3-1.6-31.6 11.2-33 27.5-.7 8.4 1.5 15.8 6.7 22.3 1.3 1.6 1.7 3.3.5 5.1-1 1.6-2.5 2.2-4.2 1.6-1-.3-2-1.1-2.7-2-17.8-21.6-6.1-55.4 21.3-61.6 2.9-.6 5.8-.8 8.8-1.3z"/></svg>