<svg enable-background="new 0 0 256 256" height="256" viewBox="0 0 256 256" width="256" xmlns="http://www.w3.org/2000/svg"><path d="m50.3 129h-11.1-39.2v9h45.7 11.1 34.4c.6-3 1-6 1.5-9z"/><path d="m216.8 138h39.2v-9h-45.7-11.1-35.9c.4 3 .9 6 1.5 9h40.9z"/><path d="m138.1 138h-20c.5-3 1-6 1.4-9h17.3c.4 3 .8 6 1.3 9z"/><path d="m207.1 250.9-6.8 5.1c-32.7-43.8-47-82.5-53-118-.5-3-1-6-1.4-9-2.6-19-3-37.1-2.9-54.7v-4.3h27.5l-42.5-55.9-42.5 55.9h28.5v4.3c-.2 17.6-.9 35.7-3.6 54.7-.4 3-.9 6-1.4 9-6.3 35.5-20.6 74.2-53.3 118l-6.8-5.1c31.5-42.3 45.4-78.8 51.4-112.9.5-3 1-6 1.4-9 2.4-17.1 3-33.6 3.1-50h-36.5l59.7-79 59.7 79h-36.5c.1 16.4.7 32.9 3.1 50 .4 3 .9 6 1.4 9 6 34.1 19.9 70.6 51.4 112.9z"/><path d="m129 248.7c-13.3 0-24-10.7-24.5-24.3-.3-8.3 5.3-17.5 11.2-27.2 3.5-5.7 7.1-11.7 9-16.9l4-10.9 4.4 10.7c2.2 5.3 5.6 10.9 9 16.4 6 9.7 11.6 18.9 11.3 27.8-.4 13.7-11.1 24.4-24.4 24.4zm.1-56.5c-1.8 3.2-3.7 6.4-5.6 9.6-5 8.2-10.1 16.6-9.9 22.3.3 8.8 7.1 15.6 15.5 15.6s15.2-6.9 15.5-15.6c.2-6.3-5-14.7-10-22.8-1.9-3-3.8-6.1-5.5-9.1z"/></svg>