<svg enable-background="new 0 0 512 512" viewBox="0 0 512 512" xmlns="http://www.w3.org/2000/svg"><g fill="#fff"><path d="m255.9 455.3c-30.2 0-60.3 1.1-90.4-.3-55.1-2.6-103.8-49.5-108.1-104.8-2.2-29.4-1.1-59-1.3-88.4 0-28.5 0-57.4.2-85.9.3-57.9 39.6-106.1 96.3-117.4 7-1.4 14.4-2 21.4-2 54.8-.2 109.4-.3 164.3 0 52.8.2 98.9 35.6 112.8 86.4 3 10.8 4.4 22.2 4.5 33.3.5 52.4.3 104.8.2 157.3-.2 59.6-37.8 107.3-94.4 119.6-9.2 2-18.9 2.5-28.5 2.6-25.6.3-51.4.2-77 .2 0-.3 0-.5 0-.6zm159.6-199.5c0-26.1.2-52.2-.2-78.4-.2-7.4-.6-15-2.5-22-9.2-35.7-40-59.2-77.8-59.2-52.4-.2-104.8-.2-157.3 0-5.9 0-11.9.5-17.6 1.7-37.6 7.6-63.3 38.9-63.4 77.4-.2 50.9-.2 101.8 0 152.9 0 6.7-.2 13.7.9 20.3 6.7 39.8 38.5 66.8 79.2 66.8 52.6.2 105.3 0 157.9 0 46.5 0 80.7-34.2 80.9-80.7.1-26.1-.1-52.3-.1-78.8z"/><path d="m256.8 152.6c57.6.6 102.9 47.4 102.3 105.3-.6 56.3-47.9 102.2-104.4 101.5-57.4-.6-102.8-47.8-102-105.7.8-56 47.9-101.7 104.1-101.1zm-.7 166.3c35.3-.2 63.4-28.7 63.1-63.7-.5-34.8-28.9-62.6-63.9-62.4-34.4.3-62.6 28.9-62.4 63.3.1 34.9 28.4 63 63.2 62.8z"/><path d="m359.4 128.6c13.7 0 24.8 10.8 25 24.4.2 13.5-11.4 25.2-25.2 25.2-13.7-.2-24.5-11.1-24.5-24.8.1-14.1 11-24.8 24.7-24.8z"/></g></svg>