<svg enable-background="new 0 0 1107.8 1197.7" viewBox="0 0 1107.8 1197.7" xmlns="http://www.w3.org/2000/svg" xmlns:xlink="http://www.w3.org/1999/xlink"><pattern id="a" height="70.5" overflow="visible" patternUnits="userSpaceOnUse" viewBox="0 -81.7 70.8 70.5" width="70.8" x="-1287" y="-1301.4"><path d="m0-81.7h70.8v70.5h-70.8z" fill="none"/><path d="m56.7-16.9h14.2v14.1h-14.2z" fill="#ff5514"/><path d="m70.8-15.5v1.4h-1.4-1.4v1.4h1.4 1.4v1.4 1.4 1.4h-1.4-1.4v1.4h1.4 1.4v1.4 1.4 1.4h-1.4-1.4-1.4-1.4v-1.4-1.4h-1.4v1.4 1.4h-1.4-1.4-1.4-1.4-1.4v-1.4h1.2v-1.4-1.3h-1.4v-1.4-1.4-1.4-1.4-1.4-1.4-1.4h1.4v1.4 1.4h1.4v-1.4-1.4h1.4 1.4v1.4 1.4h1.4v-1.4-1.4h1.4 1.4v1.4h-1.4v1.4 1.4h1.4v-1.4-1.4h1.6 1.4v-1.4h1.4zm-8.5 9.9h-1.4-1.4v1.4h1.4 1.4zm0-2.9h-1.4-1.4v-1.4-1.4h-1.4v1.4 1.4h1.4v1.4h1.4 1.4zm1.4-2.8v-1.4h-1.4-1.4v1.4h1.4zm1.5 1.4h-1.4v1.4 1.4h1.4v-1.4zm2.8 4.3h-1.4v1.4h1.4 1.4v-1.4zm0-5.7h-1.4v1.4h1.4 1.4v-1.4z" fill="#b94a3f"/><path d="m42.5-14.1h14.2v14.1h-14.2z" fill="#ff5514"/><path d="m56.7-12.7v1.4h-1.4-1.4v1.4h1.4 1.4v1.4 1.4 1.4h-1.4-1.4v1.4h1.4 1.4v1.4 1.4 1.5h-1.4-1.4-1.4-1.5v-1.4-1.4h-1.4v1.4 1.4h-1.4-1.4-1.4-1.4-1.4v-1.4h1.4v-1.4-1.4h-1.4v-1.4-1.4-1.4-1.4-1.4-1.4-1.4h1.4v1.4 1.4h1.4v-1.4-1.4h1.4 1.4v1.4 1.4h1.4v-1.4-1.4h1.4 1.4v1.4h-1.4v1.4 1.4h1.4v-1.4-1.4h1.4 1.4v-1.4h1.4v1.3zm-8.5 9.9h-1.4-1.4v1.4h1.4 1.4zm0-2.8h-1.4-1.4v-1.4-1.4h-1.4v1.4 1.4h1.4v1.4h1.4 1.4zm1.4-2.8v-1.4h-1.4-1.4v1.4h1.4zm1.4 1.3h-1.4v1.4 1.4h1.4v-1.4zm2.8 4.3h-1.4v1.4h1.4 1.4v-1.4zm0-5.7h-1.4v1.4h1.4 1.4v-1.4z" fill="#b94a3f"/><path d="m56.7-31h14.2v14.1h-14.2z" fill="#ff5514"/><path d="m70.8-29.6v1.4h-1.4-1.4v1.4h1.4 1.4v1.4 1.4 1.4h-1.4-1.4v1.4h1.4 1.4v1.4 1.4 1.4h-1.4-1.4-1.4-1.4v-1.4-1.4h-1.4v1.4 1.4h-1.4-1.4-1.4-1.4-1.4v-1.4h1.2v-1.4-1.4h-1.4v-1.4-1.4-1.4-1.4-1.4-1.4-1.4h1.4v1.4 1.4h1.4v-1.4-1.4h1.4 1.4v1.4 1.4h1.4v-1.4-1.4h1.4 1.4v1.4h-1.4v1.4 1.4h1.4v-1.4-1.4h1.6 1.4v-1.4h1.4zm-8.5 9.9h-1.4-1.4v1.4h1.4 1.4zm0-2.9h-1.4-1.4v-1.4-1.4h-1.4v1.4 1.4h1.4v1.4h1.4 1.4zm1.4-2.8v-1.4h-1.4-1.4v1.4h1.4zm1.5 1.4h-1.4v1.4 1.4h1.4v-1.4zm2.8 4.3h-1.4v1.4h1.4 1.4v-1.4zm0-5.7h-1.4v1.4h1.4 1.4v-1.4z" fill="#b94a3f"/><path d="m42.5-28.2h14.2v14.1h-14.2z" fill="#ff5514"/><path d="m56.7-26.8v1.4h-1.4-1.4v1.4h1.4 1.4v1.4 1.4 1.4h-1.4-1.4v1.4h1.4 1.4v1.4 1.4 1.4h-1.4-1.4-1.4-1.5v-1.4-1.4h-1.4v1.4 1.4h-1.4-1.4-1.4-1.4-1.4v-1.4h1.4v-1.4-1.4h-1.4v-1.4-1.4-1.4-1.4-1.4-1.4-1.4h1.4v1.4 1.4h1.4v-1.4-1.4h1.4 1.4v1.4 1.4h1.4v-1.4-1.4h1.4 1.4v1.4h-1.4v1.4 1.4h1.4v-1.4-1.4h1.4 1.4v-1.4h1.4v1.4zm-8.5 9.9h-1.4-1.4v1.4h1.4 1.4zm0-2.8h-1.4-1.4v-1.4-1.4h-1.4v1.4 1.4h1.4v1.4h1.4 1.4zm1.4-2.8v-1.4h-1.4-1.4v1.4h1.4zm1.4 1.3h-1.4v1.4 1.4h1.4v-1.4zm2.8 4.3h-1.4v1.4h1.4 1.4v-1.4zm0-5.7h-1.4v1.4h1.4 1.4v-1.4z" fill="#b94a3f"/><path d="m28.3-25.4h14.2v14.1h-14.2z" fill="#ff5514"/><path d="m42.5-24v1.4h-1.4-1.4v1.4h1.4 1.4v1.4 1.4 1.4h-1.4-1.4v1.4h1.4 1.4v1.4 1.4 1.4h-1.4-1.4-1.4-1.4v-1.4-1.4h-1.4v1.4 1.4h-1.5-1.4-1.4-1.4-1.4v-1.4h1.4v-1.4-1.4h-1.4v-1.4-1.4-1.4-1.4-1.4-1.4-1.4h1.4v1.4 1.4h1.4v-1.4-1.4h1.4 1.4v1.4 1.4h1.4v-1.4-1.4h1.4 1.4v1.4h-1.4v1.4 1.4h1.4v-1.4-1.4h1.4 1.4v-1.4h1.4v1.4zm-8.5 9.9h-1.4-1.4v1.4h1.4 1.4zm0-2.8h-1.4-1.4v-1.4-1.4h-1.4v1.4 1.4h1.4v1.4h1.4 1.4zm1.4-2.8v-1.4h-1.4-1.4v1.4h1.4zm1.4 1.4h-1.4v1.4 1.4h1.4v-1.4zm2.9 4.2h-1.4v1.4h1.4 1.4v-1.4zm0-5.6h-1.4v1.4h1.4 1.4v-1.4z" fill="#b94a3f"/><path d="m14.2-22.5h14.2v14.1h-14.2z" fill="#ff5514"/><path d="m28.3-21.2v1.4h-1.4-1.4v1.4h1.4 1.4v1.4 1.4 1.4h-1.4-1.4v1.4h1.4 1.4v1.4 1.4 1.4h-1.4-1.4-1.4-1.4v-1.4-1.4h-1.4v1.4 1.4h-1.4-1.4-1.5-1.4-1.4v-1.4h1.4v-1.4-1.4h-1.4v-1.4-1.4-1.4-1.4-1.4-1.4-1.4h1.4v1.4 1.4h1.4v-1.4-1.4h1.4 1.4v1.4 1.4h1.4v-1.4-1.4h1.4 1.4v1.4h-1.4v1.4 1.4h1.4v-1.4-1.4h1.4 1.4v-1.4h1.4v1.4zm-8.5 9.9h-1.4-1.4v1.4h1.4 1.4zm0-2.8h-1.4-1.4v-1.4-1.4h-1.4v1.4 1.4h1.4v1.4h1.4 1.4zm1.4-2.8v-1.4h-1.4-1.4v1.4h1.4zm1.5 1.4h-1.4v1.4 1.4h1.4v-1.4zm2.8 4.2h-1.4v1.4h1.4 1.4v-1.4zm0-5.6h-1.4v1.4h1.4 1.4v-1.4z" fill="#b94a3f"/><path d="m0-19.7h14.2v14.1h-14.2z" fill="#ff5514"/><path d="m14.2-18.3v1.4h-1.4-1.4v1.4h1.4 1.4v1.4 1.4 1.4h-1.4-1.4v1.4h1.4 1.4v1.4 1.5 1.4h-1.4-1.4-1.5-1.4v-1.4-1.4h-1.4v1.4 1.4h-1.4-1.4-1.5-1.4-1.4v-1.4h1.4v-1.4-1.4h-1.4v-1.4-1.4-1.4-1.4-1.4-1.4-1.4h1.4v1.4 1.4h1.4v-1.4-1.4h1.4 1.4v1.4 1.4h1.4v-1.4-1.4h1.4 1.4v1.4h-1.3v1.4 1.4h1.4v-1.4-1.4h1.4 1.4v-1.4h1.4v1.3zm-8.5 9.8h-1.4-1.5v1.5h1.4 1.4v-1.5zm0-2.8h-1.4-1.5v-1.4-1.4h-1.4v1.4 1.4h1.4v1.4h1.4 1.4v-1.4zm1.4-2.8v-1.4h-1.4-1.4v1.4h1.4zm1.4 1.4h-1.4v1.4 1.4h1.4v-1.4zm2.8 4.2h-1.4v1.5h1.4 1.4v-1.4h-1.4zm0-5.6h-1.4v1.4h1.4 1.4v-1.4z" fill="#b94a3f"/><path d="m56.7-45.1h14.2v14.1h-14.2z" fill="#ff5514"/><path d="m70.8-43.7v1.4h-1.4-1.4v1.4h1.4 1.4v1.4 1.4 1.4h-1.4-1.4v1.4h1.4 1.4v1.4 1.4 1.4h-1.4-1.4-1.4-1.4v-1.4-1.4h-1.4v1.4 1.4h-1.4-1.4-1.4-1.4-1.4v-1.4h1.2v-1.4-1.4h-1.4v-1.4-1.3-1.4-1.4-1.4-1.4-1.4h1.4v1.4 1.4h1.4v-1.4-1.4h1.4 1.4v1.4 1.4h1.4v-1.4-1.4h1.4 1.4v1.4h-1.4v1.4 1.4h1.4v-1.4-1.4h1.6 1.4v-1.4h1.4zm-8.5 9.9h-1.4-1.4v1.4h1.4 1.4zm0-2.8h-1.4-1.4v-1.4-1.4h-1.4v1.4 1.4h1.4v1.4h1.4 1.4zm1.4-2.8v-1.4h-1.4-1.4v1.4h1.4zm1.5 1.3h-1.4v1.4 1.4h1.4v-1.4zm2.8 4.3h-1.4v1.4h1.4 1.4v-1.4zm0-5.7h-1.4v1.4h1.4 1.4v-1.4z" fill="#b94a3f"/><path d="m42.5-42.3h14.2v14.1h-14.2z" fill="#ff5514"/><path d="m56.7-40.9v1.4h-1.4-1.4v1.4h1.4 1.4v1.4 1.4 1.4h-1.4-1.4v1.4h1.4 1.4v1.4 1.4 1.4h-1.4-1.4-1.4-1.5v-1.4-1.3h-1.4v1.4 1.4h-1.4-1.4-1.4-1.4-1.4v-1.4h1.4v-1.4-1.4h-1.4v-1.4-1.4-1.4-1.4-1.4-1.4-1.4h1.4v1.4 1.4h1.4v-1.4-1.4h1.4 1.4v1.4 1.4h1.4v-1.4-1.4h1.4 1.4v1.4h-1.4v1.4 1.4h1.4v-1.4-1.4h1.4 1.4v-1.4h1.4v1.3zm-8.5 9.9h-1.4-1.4v1.4h1.4 1.4zm0-2.8h-1.4-1.4v-1.4-1.4h-1.4v1.4 1.4h1.4v1.4h1.4 1.4zm1.4-2.8v-1.4h-1.4-1.4v1.4h1.4zm1.4 1.4h-1.4v1.4 1.4h1.4v-1.4zm2.8 4.2h-1.4v1.4h1.4 1.4v-1.4zm0-5.7h-1.4v1.4h1.4 1.4v-1.4z" fill="#b94a3f"/><path d="m28.3-39.5h14.2v14.1h-14.2z" fill="#ff5514"/><path d="m42.5-38.1v1.4h-1.4-1.4v1.4h1.4 1.4v1.4 1.4 1.4h-1.4-1.4v1.4h1.4 1.4v1.4 1.4 1.4h-1.4-1.4-1.4-1.4v-1.4-1.4h-1.4v1.4 1.4h-1.5-1.4-1.4-1.4-1.4v-1.4h1.4v-1.4-1.4h-1.4v-1.3-1.4-1.4-1.4-1.4-1.4-1.4h1.4v1.4 1.4h1.4v-1.4-1.4h1.4 1.4v1.4 1.4h1.4v-1.4-1.4h1.4 1.4v1.4h-1.4v1.4 1.4h1.4v-1.4-1.4h1.4 1.4v-1.4h1.4v1.3zm-8.5 9.9h-1.4-1.4v1.4h1.4 1.4zm0-2.8h-1.4-1.4v-1.4-1.4h-1.4v1.4 1.4h1.4v1.4h1.4 1.4zm1.4-2.8v-1.4h-1.4-1.4v1.4h1.4zm1.4 1.4h-1.4v1.4 1.4h1.4v-1.4zm2.9 4.2h-1.4v1.4h1.4 1.4v-1.4zm0-5.6h-1.4v1.4h1.4 1.4v-1.4z" fill="#b94a3f"/><path d="m14.2-36.6h14.2v14.1h-14.2z" fill="#ff5514"/><path d="m28.3-35.3v1.4h-1.4-1.4v1.4h1.4 1.4v1.4 1.4 1.4h-1.4-1.4v1.4h1.4 1.4v1.4 1.4 1.4h-1.4-1.4-1.4-1.4v-1.4-1.4h-1.4v1.4 1.4h-1.4-1.4-1.5-1.4-1.4v-1.4h1.4v-1.4-1.4h-1.4v-1.4-1.4-1.3-1.4-1.4-1.4-1.4h1.4v1.4 1.4h1.4v-1.4-1.4h1.4 1.4v1.4 1.4h1.4v-1.4-1.4h1.4 1.4v1.4h-1.4v1.4 1.4h1.4v-1.4-1.4h1.4 1.4v-1.4h1.4v1.3zm-8.5 9.9h-1.4-1.4v1.4h1.4 1.4zm0-2.8h-1.4-1.4v-1.4-1.4h-1.4v1.4 1.4h1.4v1.4h1.4 1.4zm1.4-2.8v-1.4h-1.4-1.4v1.4h1.4zm1.5 1.4h-1.4v1.4 1.4h1.4v-1.4zm2.8 4.2h-1.4v1.4h1.4 1.4v-1.4zm0-5.6h-1.4v1.4h1.4 1.4v-1.4z" fill="#b94a3f"/><path d="m0-33.8h14.2v14.1h-14.2z" fill="#ff5514"/><path d="m14.2-32.4v1.4h-1.4-1.4v1.4h1.4 1.4v1.4 1.4 1.4h-1.4-1.4v1.4h1.4 1.4v1.4 1.4 1.4h-1.4-1.4-1.5-1.4v-1.4-1.4h-1.4v1.4 1.4h-1.4-1.4-1.5-1.4-1.4v-1.4h1.4v-1.4-1.4h-1.4v-1.4-1.4-1.4-1.4-1.4-1.4-1.4h1.4v1.4 1.4h1.4v-1.4-1.4h1.4 1.4v1.4 1.4h1.4v-1.4-1.4h1.4 1.4v1.4h-1.3v1.4 1.4h1.4v-1.4-1.4h1.4 1.4v-1.4h1.4v1.4zm-8.5 9.8h-1.4-1.5v1.4h1.4 1.4v-1.4zm0-2.8h-1.4-1.5v-1.4-1.4h-1.4v1.4 1.4h1.4v1.4h1.4 1.4v-1.4zm1.4-2.8v-1.4h-1.4-1.4v1.4h1.4zm1.4 1.4h-1.4v1.4 1.4h1.4v-1.4zm2.8 4.2h-1.4v1.4h1.4 1.4v-1.4zm0-5.6h-1.4v1.4h1.4 1.4v-1.4z" fill="#b94a3f"/><path d="m56.7-59.2h14.2v14.1h-14.2z" fill="#ff5514"/><path d="m70.8-57.8v1.4h-1.4-1.4v1.4h1.4 1.4v1.4 1.4 1.4h-1.4-1.4v1.4h1.4 1.4v1.4 1.4 1.4h-1.4-1.4-1.4-1.4v-1.4-1.4h-1.4v1.4 1.4h-1.4-1.4-1.4-1.4-1.4v-1.4h1.2v-1.4-1.4h-1.4v-1.4-1.4-1.4-1.4-1.4-1.4-1.4h1.4v1.4 1.4h1.4v-1.4-1.4h1.4 1.4v1.4 1.4h1.4v-1.4-1.4h1.4 1.4v1.4h-1.4v1.4 1.4h1.4v-1.4-1.4h1.6 1.4v-1.4h1.4zm-8.5 9.9h-1.4-1.4v1.4h1.4 1.4zm0-2.8h-1.4-1.4v-1.4-1.4h-1.4v1.4 1.4h1.4v1.4h1.4 1.4zm1.4-2.8v-1.4h-1.4-1.4v1.4h1.4zm1.5 1.3h-1.4v1.4 1.4h1.4v-1.4zm2.8 4.3h-1.4v1.4h1.4 1.4v-1.4zm0-5.7h-1.4v1.4h1.4 1.4v-1.4z" fill="#b94a3f"/><path d="m42.5-56.4h14.2v14.1h-14.2z" fill="#ff5514"/><path d="m56.7-55v1.4h-1.4-1.4v1.4h1.4 1.4v1.4 1.4 1.4h-1.4-1.4v1.4h1.4 1.4v1.4 1.4 1.4h-1.4-1.4-1.4-1.5v-1.4-1.4h-1.4v1.4 1.4h-1.4-1.4-1.4-1.4-1.4v-1.4h1.4v-1.4-1.4h-1.4v-1.4-1.4-1.4-1.4-1.4-1.4-1.4h1.4v1.4 1.4h1.4v-1.4-1.4h1.4 1.4v1.4 1.4h1.4v-1.4-1.4h1.4 1.4v1.4h-1.4v1.4 1.4h1.4v-1.4-1.4h1.4 1.4v-1.4h1.4v1.4zm-8.5 9.9h-1.4-1.4v1.4h1.4 1.4zm0-2.8h-1.4-1.4v-1.4-1.4h-1.4v1.4 1.4h1.4v1.4h1.4 1.4zm1.4-2.8v-1.4h-1.4-1.4v1.4h1.4zm1.4 1.4h-1.4v1.4 1.4h1.4v-1.4zm2.8 4.2h-1.4v1.4h1.4 1.4v-1.4zm0-5.6h-1.4v1.4h1.4 1.4v-1.4z" fill="#b94a3f"/><path d="m28.3-53.5h14.2v14.1h-14.2z" fill="#ff5514"/><path d="m42.5-52.2v1.4h-1.4-1.4v1.4h1.4 1.4v1.4 1.4 1.4h-1.4-1.4v1.4h1.4 1.4v1.4 1.4 1.4h-1.4-1.4-1.4-1.4v-1.4-1.4h-1.4v1.4 1.4h-1.5-1.4-1.4-1.4-1.4v-1.4h1.4v-1.4-1.4h-1.4v-1.4-1.4-1.4-1.4-1.4-1.4-1.4h1.4v1.4 1.4h1.4v-1.4-1.4h1.4 1.4v1.4 1.4h1.4v-1.4-1.4h1.4 1.4v1.4h-1.4v1.4 1.4h1.4v-1.4-1.4h1.4 1.4v-1.4h1.4v1.4zm-8.5 9.9h-1.4-1.4v1.4h1.4 1.4zm0-2.8h-1.4-1.4v-1.4-1.4h-1.4v1.4 1.4h1.4v1.4h1.4 1.4zm1.4-2.8v-1.4h-1.4-1.4v1.4h1.4zm1.4 1.4h-1.4v1.4 1.4h1.4v-1.4zm2.9 4.2h-1.4v1.4h1.4 1.4v-1.4zm0-5.6h-1.4v1.4h1.4 1.4v-1.4z" fill="#b94a3f"/><path d="m14.2-50.7h14.2v14.1h-14.2z" fill="#ff5514"/><path d="m28.3-49.3v1.4h-1.4-1.4v1.4h1.4 1.4v1.4 1.4 1.4h-1.4-1.4v1.4h1.4 1.4v1.4 1.4 1.4h-1.4-1.4-1.4-1.4v-1.3-1.4h-1.4v1.4 1.4h-1.4-1.4-1.5-1.4-1.4v-1.4h1.4v-1.4-1.4h-1.4v-1.4-1.4-1.4-1.4-1.4-1.4-1.4h1.4v1.4 1.4h1.4v-1.4-1.4h1.4 1.4v1.4 1.4h1.4v-1.4-1.4h1.4 1.4v1.4h-1.4v1.4 1.4h1.4v-1.4-1.4h1.4 1.4v-1.4h1.4v1.3zm-8.5 9.8h-1.4-1.4v1.4h1.4 1.4zm0-2.8h-1.4-1.4v-1.4-1.4h-1.4v1.4 1.4h1.4v1.4h1.4 1.4zm1.4-2.8v-1.4h-1.4-1.4v1.4h1.4zm1.5 1.4h-1.4v1.4 1.4h1.4v-1.4zm2.8 4.2h-1.4v1.4h1.4 1.4v-1.4zm0-5.6h-1.4v1.4h1.4 1.4v-1.4z" fill="#b94a3f"/><path d="m0-47.9h14.2v14.1h-14.2z" fill="#ff5514"/><path d="m14.2-46.5v1.4h-1.4-1.4v1.4h1.4 1.4v1.4 1.4 1.4h-1.4-1.4v1.4h1.4 1.4v1.4 1.4 1.4h-1.4-1.4-1.5-1.4v-1.4-1.4h-1.4v1.4 1.4h-1.4-1.4-1.5-1.4-1.4v-1.4h1.4v-1.4-1.3h-1.4v-1.4-1.4-1.4-1.4-1.4-1.4-1.4h1.4v1.4 1.4h1.4v-1.4-1.4h1.4 1.4v1.4 1.4h1.4v-1.4-1.4h1.4 1.4v1.4h-1.3v1.4 1.4h1.4v-1.4-1.4h1.4 1.4v-1.4h1.4v1.3zm-8.5 9.9h-1.4-1.5v1.4h1.4 1.4v-1.4zm0-2.9h-1.4-1.5v-1.4-1.4h-1.4v1.4 1.4h1.4v1.4h1.4 1.4v-1.4zm1.4-2.8v-1.4h-1.4-1.4v1.4h1.4zm1.4 1.4h-1.4v1.4 1.4h1.4v-1.4zm2.8 4.3h-1.4v1.4h1.4 1.4v-1.4zm0-5.7h-1.4v1.4h1.4 1.4v-1.4z" fill="#b94a3f"/><path d="m56.7-73.3h14.2v14.1h-14.2z" fill="#ff5514"/><path d="m70.8-71.9v1.4h-1.4-1.4v1.4h1.4 1.4v1.4 1.4 1.4h-1.4-1.4v1.4h1.4 1.4v1.4 1.4 1.4h-1.4-1.4-1.4-1.4v-1.4-1.3h-1.4v1.4 1.4h-1.4-1.4-1.4-1.4-1.4v-1.4h1.2v-1.4-1.4h-1.4v-1.4-1.4-1.4-1.4-1.4-1.4-1.4h1.4v1.4 1.4h1.4v-1.4-1.4h1.4 1.4v1.4 1.4h1.4v-1.4-1.4h1.4 1.4v1.4h-1.4v1.4 1.4h1.4v-1.4-1.4h1.6 1.4v-1.4h1.4zm-8.5 9.9h-1.4-1.4v1.4h1.4 1.4zm0-2.8h-1.4-1.4v-1.4-1.4h-1.4v1.4 1.4h1.4v1.4h1.4 1.4zm1.4-2.8v-1.4h-1.4-1.4v1.4h1.4zm1.5 1.4h-1.4v1.4 1.4h1.4v-1.4zm2.8 4.2h-1.4v1.4h1.4 1.4v-1.4zm0-5.7h-1.4v1.4h1.4 1.4v-1.4z" fill="#b94a3f"/><path d="m42.5-70.5h14.2v14.1h-14.2z" fill="#ff5514"/><path d="m56.7-69.1v1.4h-1.4-1.4v1.4h1.4 1.4v1.4 1.4 1.4h-1.4-1.4v1.4h1.4 1.4v1.4 1.4 1.4h-1.4-1.4-1.4-1.5v-1.4-1.4h-1.4v1.4 1.4h-1.4-1.4-1.4-1.4-1.4v-1.4h1.4v-1.4-1.4h-1.4v-1.3-1.4-1.4-1.4-1.4-1.4-1.4h1.4v1.4 1.4h1.4v-1.4-1.4h1.4 1.4v1.4 1.4h1.4v-1.4-1.4h1.4 1.4v1.4h-1.4v1.4 1.4h1.4v-1.4-1.4h1.4 1.4v-1.4h1.4v1.3zm-8.5 9.9h-1.4-1.4v1.4h1.4 1.4zm0-2.8h-1.4-1.4v-1.4-1.4h-1.4v1.4 1.4h1.4v1.4h1.4 1.4zm1.4-2.8v-1.4h-1.4-1.4v1.4h1.4zm1.4 1.4h-1.4v1.4 1.4h1.4v-1.4zm2.8 4.2h-1.4v1.4h1.4 1.4v-1.4zm0-5.6h-1.4v1.4h1.4 1.4v-1.4z" fill="#b94a3f"/><path d="m28.3-67.6h14.2v14.1h-14.2z" fill="#ff5514"/><path d="m42.5-66.3v1.4h-1.4-1.4v1.4h1.4 1.4v1.4 1.4 1.4h-1.4-1.4v1.4h1.4 1.4v1.4 1.4 1.4h-1.4-1.4-1.4-1.4v-1.4-1.4h-1.4v1.4 1.4h-1.5-1.4-1.4-1.4-1.4v-1.4h1.4v-1.4-1.4h-1.4v-1.4-1.4-1.3-1.4-1.4-1.4-1.4h1.4v1.4 1.4h1.4v-1.4-1.4h1.4 1.4v1.4 1.4h1.4v-1.4-1.4h1.4 1.4v1.4h-1.4v1.4 1.4h1.4v-1.4-1.4h1.4 1.4v-1.4h1.4v1.3zm-8.5 9.9h-1.4-1.4v1.4h1.4 1.4zm0-2.8h-1.4-1.4v-1.4-1.4h-1.4v1.4 1.4h1.4v1.4h1.4 1.4zm1.4-2.8v-1.4h-1.4-1.4v1.4h1.4zm1.4 1.4h-1.4v1.4 1.4h1.4v-1.4zm2.9 4.2h-1.4v1.4h1.4 1.4v-1.4zm0-5.6h-1.4v1.4h1.4 1.4v-1.4z" fill="#b94a3f"/><path d="m14.2-64.8h14.2v14.1h-14.2z" fill="#ff5514"/><path d="m28.3-63.4v1.4h-1.4-1.4v1.4h1.4 1.4v1.4 1.4 1.4h-1.4-1.4v1.4h1.4 1.4v1.4 1.4 1.4h-1.4-1.4-1.4-1.4v-1.4-1.4h-1.4v1.4 1.4h-1.4-1.4-1.5-1.4-1.4v-1.4h1.4v-1.4-1.4h-1.4v-1.4-1.4-1.4-1.4-1.4-1.4-1.4h1.4v1.4 1.4h1.4v-1.4-1.4h1.4 1.4v1.4 1.4h1.4v-1.4-1.4h1.4 1.4v1.4h-1.4v1.4 1.4h1.4v-1.4-1.4h1.4 1.4v-1.4h1.4v1.4zm-8.5 9.8h-1.4-1.4v1.4h1.4 1.4zm0-2.8h-1.4-1.4v-1.4-1.4h-1.4v1.4 1.4h1.4v1.4h1.4 1.4zm1.4-2.8v-1.4h-1.4-1.4v1.4h1.4zm1.5 1.4h-1.4v1.4 1.4h1.4v-1.4zm2.8 4.2h-1.4v1.4h1.4 1.4v-1.4zm0-5.6h-1.4v1.4h1.4 1.4v-1.4z" fill="#b94a3f"/><path d="m0-62h14.2v14.1h-14.2z" fill="#ff5514"/><path d="m14.2-60.6v1.4h-1.4-1.4v1.4h1.4 1.4v1.4 1.4 1.4h-1.4-1.4v1.4h1.4 1.4v1.4 1.4 1.4h-1.4-1.4-1.5-1.4v-1.4-1.4h-1.4v1.4 1.4h-1.4-1.4-1.5-1.4-1.4v-1.4h1.4v-1.4-1.4h-1.4v-1.4-1.4-1.4-1.4-1.4-1.4-1.4h1.4v1.4 1.4h1.4v-1.4-1.4h1.4 1.4v1.4 1.4h1.4v-1.4-1.4h1.4 1.4v1.4h-1.3v1.4 1.4h1.4v-1.4-1.4h1.4 1.4v-1.4h1.4v1.4zm-8.5 9.9h-1.4-1.5v1.4h1.4 1.4v-1.4zm0-2.9h-1.4-1.5v-1.4-1.4h-1.4v1.4 1.4h1.4v1.4h1.4 1.4v-1.4zm1.4-2.8v-1.4h-1.4-1.4v1.4h1.4zm1.4 1.4h-1.4v1.4 1.4h1.4v-1.4zm2.8 4.3h-1.4v1.4h1.4 1.4v-1.4zm0-5.7h-1.4v1.4h1.4 1.4v-1.4z" fill="#b94a3f"/><path d="m56.7-87.4h14.2v14.1h-14.2z" fill="#ff5514"/><path d="m70.8-86v1.4h-1.4-1.4v1.4h1.4 1.4v1.4 1.4 1.4h-1.4-1.4v1.4h1.4 1.4v1.4 1.4 1.4h-1.4-1.4-1.4-1.4v-1.4-1.4h-1.4v1.4 1.4h-1.4-1.4-1.4-1.4-1.4v-1.4h1.2v-1.4-1.4h-1.4v-1.4-1.4-1.4-1.4-1.4-1.4-1.4h1.4v1.4 1.4h1.4v-1.4-1.4h1.4 1.4v1.4 1.4h1.4v-1.4-1.4h1.4 1.4v1.4h-1.4v1.4 1.4h1.4v-1.4-1.4h1.6 1.4v-1.4h1.4zm-8.5 9.9h-1.4-1.4v1.4h1.4 1.4zm0-2.8h-1.4-1.4v-1.4-1.4h-1.4v1.4 1.4h1.4v1.4h1.4 1.4zm1.4-2.8v-1.4h-1.4-1.4v1.4h1.4zm1.5 1.4h-1.4v1.4 1.4h1.4v-1.4zm2.8 4.2h-1.4v1.4h1.4 1.4v-1.4zm0-5.6h-1.4v1.4h1.4 1.4v-1.4z" fill="#b94a3f"/><path d="m42.5-84.5h14.2v14.1h-14.2z" fill="#ff5514"/><path d="m56.7-83.2v1.4h-1.4-1.4v1.4h1.4 1.4v1.4 1.4 1.4h-1.4-1.4v1.4h1.4 1.4v1.4 1.4 1.4h-1.4-1.4-1.4-1.5v-1.4-1.4h-1.4v1.4 1.4h-1.4-1.4-1.4-1.4-1.4v-1.4h1.4v-1.4-1.4h-1.4v-1.4-1.4-1.4-1.4-1.4-1.4-1.4h1.4v1.4 1.4h1.4v-1.4-1.4h1.4 1.4v1.4 1.4h1.4v-1.4-1.4h1.4 1.4v1.4h-1.4v1.4 1.4h1.4v-1.4-1.4h1.4 1.4v-1.4h1.4v1.4zm-8.5 9.9h-1.4-1.4v1.4h1.4 1.4zm0-2.8h-1.4-1.4v-1.4-1.4h-1.4v1.4 1.4h1.4v1.4h1.4 1.4zm1.4-2.8v-1.4h-1.4-1.4v1.4h1.4zm1.4 1.4h-1.4v1.4 1.4h1.4v-1.4zm2.8 4.2h-1.4v1.4h1.4 1.4v-1.4zm0-5.6h-1.4v1.4h1.4 1.4v-1.4z" fill="#b94a3f"/><path d="m28.3-81.7h14.2v14.1h-14.2z" fill="#ff5514"/><path d="m42.5-80.3v1.4h-1.4-1.4v1.4h1.4 1.4v1.4 1.4 1.4h-1.4-1.4v1.4h1.4 1.4v1.4 1.4 1.4h-1.4-1.4-1.4-1.4v-1.3-1.4h-1.4v1.4 1.4h-1.5-1.4-1.4-1.4-1.4v-1.4h1.4v-1.4-1.4h-1.4v-1.4-1.4-1.4-1.4-1.4-1.4-1.4h1.4v1.4 1.4h1.4v-1.4-1.4h1.4 1.4v1.4 1.4h1.4v-1.4-1.4h1.4 1.4v1.4h-1.4v1.4 1.4h1.4v-1.4-1.4h1.4 1.4v-1.4h1.4v1.3zm-8.5 9.8h-1.4-1.4v1.4h1.4 1.4zm0-2.8h-1.4-1.4v-1.4-1.4h-1.4v1.4 1.4h1.4v1.4h1.4 1.4zm1.4-2.8v-1.4h-1.4-1.4v1.4h1.4zm1.4 1.4h-1.4v1.4 1.4h1.4v-1.4zm2.9 4.2h-1.4v1.4h1.4 1.4v-1.4zm0-5.6h-1.4v1.4h1.4 1.4v-1.4z" fill="#b94a3f"/><path d="m14.2-78.9h14.2v14.1h-14.2z" fill="#ff5514"/><path d="m28.3-77.5v1.4h-1.4-1.4v1.4h1.4 1.4v1.4 1.4 1.4h-1.4-1.4v1.4h1.4 1.4v1.4 1.4 1.4h-1.4-1.4-1.4-1.4v-1.4-1.4h-1.4v1.4 1.4h-1.4-1.4-1.5-1.4-1.4v-1.4h1.4v-1.4-1.3h-1.4v-1.4-1.4-1.4-1.4-1.4-1.4-1.4h1.4v1.4 1.4h1.4v-1.4-1.4h1.4 1.4v1.4 1.4h1.4v-1.4-1.4h1.4 1.4v1.4h-1.4v1.4 1.4h1.4v-1.4-1.4h1.4 1.4v-1.4h1.4v1.3zm-8.5 9.9h-1.4-1.4v1.4h1.4 1.4zm0-2.9h-1.4-1.4v-1.4-1.4h-1.4v1.4 1.4h1.4v1.4h1.4 1.4zm1.4-2.8v-1.4h-1.4-1.4v1.4h1.4zm1.5 1.4h-1.4v1.4 1.4h1.4v-1.4zm2.8 4.3h-1.4v1.4h1.4 1.4v-1.4zm0-5.7h-1.4v1.4h1.4 1.4v-1.4z" fill="#b94a3f"/><path d="m0-76.1h14.2v14.1h-14.2z" fill="#ff5514"/><path d="m14.2-74.7v1.4h-1.4-1.4v1.4h1.4 1.4v1.4 1.4 1.4h-1.4-1.4v1.4h1.4 1.4v1.4 1.4 1.4h-1.4-1.4-1.5-1.4v-1.4-1.4h-1.4v1.4 1.4h-1.4-1.4-1.5-1.4-1.4v-1.4h1.4v-1.4-1.4h-1.4v-1.4-1.3-1.4-1.4-1.4-1.4-1.4h1.4v1.4 1.4h1.4v-1.4-1.4h1.4 1.4v1.4 1.4h1.4v-1.4-1.4h1.4 1.4v1.4h-1.3v1.4 1.4h1.4v-1.4-1.4h1.4 1.4v-1.4h1.4v1.3zm-8.5 9.9h-1.4-1.5v1.4h1.4 1.4v-1.4zm0-2.8h-1.4-1.5v-1.4-1.4h-1.4v1.4 1.4h1.4v1.4h1.4 1.4v-1.4zm1.4-2.8v-1.4h-1.4-1.4v1.4h1.4zm1.4 1.3h-1.4v1.4 1.4h1.4v-1.4zm2.8 4.3h-1.4v1.4h1.4 1.4v-1.4zm0-5.7h-1.4v1.4h1.4 1.4v-1.4z" fill="#b94a3f"/><path d="m14.2-93h14.2v14.1h-14.2z" fill="#ff5514"/><path d="m28.3-91.6v1.4h-1.4-1.4v1.4h1.4 1.4v1.4 1.4 1.4h-1.4-1.4v1.4h1.4 1.4v1.4 1.4 1.4h-1.4-1.4-1.4-1.4v-1.4-1.4h-1.4v1.4 1.4h-1.4-1.4-1.5-1.4-1.4v-1.4h1.4v-1.4-1.4h-1.4v-1.4-1.4-1.4-1.4-1.4-1.4-1.4h1.4v1.4 1.4h1.4v-1.4-1.4h1.4 1.4v1.4 1.4h1.4v-1.4-1.4h1.4 1.4v1.4h-1.4v1.4 1.4h1.4v-1.4-1.4h1.4 1.4v-1.4h1.4v1.4zm-8.5 9.9h-1.4-1.4v1.4h1.4 1.4zm0-2.9h-1.4-1.4v-1.4-1.4h-1.4v1.4 1.4h1.4v1.4h1.4 1.4zm1.4-2.8v-1.4h-1.4-1.4v1.4h1.4zm1.5 1.4h-1.4v1.4 1.4h1.4v-1.4zm2.8 4.3h-1.4v1.4h1.4 1.4v-1.4zm0-5.7h-1.4v1.4h1.4 1.4v-1.4z" fill="#b94a3f"/><path d="m0-90.2h14.2v14.1h-14.2z" fill="#ff5514"/><path d="m14.2-88.8v1.4h-1.4-1.4v1.4h1.4 1.4v1.4 1.4 1.4h-1.4-1.4v1.4h1.4 1.4v1.4 1.4 1.4h-1.4-1.4-1.5-1.4v-1.4-1.4h-1.4v1.4 1.4h-1.4-1.4-1.5-1.4-1.4v-1.4h1.4v-1.4-1.4h-1.4v-1.4-1.4-1.4-1.4-1.4-1.4-1.4h1.4v1.4 1.4h1.4v-1.4-1.4h1.4 1.4v1.4 1.4h1.4v-1.4-1.4h1.4 1.4v1.4h-1.3v1.4 1.4h1.4v-1.4-1.4h1.4 1.4v-1.4h1.4v1.4zm-8.5 9.9h-1.4-1.5v1.4h1.4 1.4v-1.4zm0-2.8h-1.4-1.5v-1.4-1.4h-1.4v1.4 1.4h1.4v1.4h1.4 1.4v-1.4zm1.4-2.8v-1.4h-1.4-1.4v1.4h1.4zm1.4 1.3h-1.4v1.4 1.4h1.4v-1.4zm2.8 4.3h-1.4v1.4h1.4 1.4v-1.4zm0-5.7h-1.4v1.4h1.4 1.4v-1.4z" fill="#b94a3f"/></pattern><pattern id="b" height="70.5" overflow="visible" patternUnits="userSpaceOnUse" viewBox="0 -81.7 70.8 70.5" width="70.8" x="-1287" y="-1301.4"><path d="m0-81.7h70.8v70.5h-70.8z" fill="none"/><path d="m56.7-16.9h14.2v14.1h-14.2z" fill="#4f5145"/><path d="m70.8-15.5v1.4h-1.4-1.4v1.4h1.4 1.4v1.4 1.4 1.4h-1.4-1.4v1.4h1.4 1.4v1.4 1.4 1.4h-1.4-1.4-1.4-1.4v-1.4-1.4h-1.4v1.4 1.4h-1.4-1.4-1.4-1.4-1.4v-1.4h1.2v-1.4-1.3h-1.4v-1.4-1.4-1.4-1.4-1.4-1.4-1.4h1.4v1.4 1.4h1.4v-1.4-1.4h1.4 1.4v1.4 1.4h1.4v-1.4-1.4h1.4 1.4v1.4h-1.4v1.4 1.4h1.4v-1.4-1.4h1.6 1.4v-1.4h1.4zm-8.5 9.9h-1.4-1.4v1.4h1.4 1.4zm0-2.9h-1.4-1.4v-1.4-1.4h-1.4v1.4 1.4h1.4v1.4h1.4 1.4zm1.4-2.8v-1.4h-1.4-1.4v1.4h1.4zm1.5 1.4h-1.4v1.4 1.4h1.4v-1.4zm2.8 4.3h-1.4v1.4h1.4 1.4v-1.4zm0-5.7h-1.4v1.4h1.4 1.4v-1.4z" fill="#353837"/><path d="m42.5-14.1h14.2v14.1h-14.2z" fill="#4f5145"/><path d="m56.7-12.7v1.4h-1.4-1.4v1.4h1.4 1.4v1.4 1.4 1.4h-1.4-1.4v1.4h1.4 1.4v1.4 1.4 1.5h-1.4-1.4-1.4-1.5v-1.4-1.4h-1.4v1.4 1.4h-1.4-1.4-1.4-1.4-1.4v-1.4h1.4v-1.4-1.4h-1.4v-1.4-1.4-1.4-1.4-1.4-1.4-1.4h1.4v1.4 1.4h1.4v-1.4-1.4h1.4 1.4v1.4 1.4h1.4v-1.4-1.4h1.4 1.4v1.4h-1.4v1.4 1.4h1.4v-1.4-1.4h1.4 1.4v-1.4h1.4v1.3zm-8.5 9.9h-1.4-1.4v1.4h1.4 1.4zm0-2.8h-1.4-1.4v-1.4-1.4h-1.4v1.4 1.4h1.4v1.4h1.4 1.4zm1.4-2.8v-1.4h-1.4-1.4v1.4h1.4zm1.4 1.3h-1.4v1.4 1.4h1.4v-1.4zm2.8 4.3h-1.4v1.4h1.4 1.4v-1.4zm0-5.7h-1.4v1.4h1.4 1.4v-1.4z" fill="#353837"/><path d="m56.7-31h14.2v14.1h-14.2z" fill="#4f5145"/><path d="m70.8-29.6v1.4h-1.4-1.4v1.4h1.4 1.4v1.4 1.4 1.4h-1.4-1.4v1.4h1.4 1.4v1.4 1.4 1.4h-1.4-1.4-1.4-1.4v-1.4-1.4h-1.4v1.4 1.4h-1.4-1.4-1.4-1.4-1.4v-1.4h1.2v-1.4-1.4h-1.4v-1.4-1.4-1.4-1.4-1.4-1.4-1.4h1.4v1.4 1.4h1.4v-1.4-1.4h1.4 1.4v1.4 1.4h1.4v-1.4-1.4h1.4 1.4v1.4h-1.4v1.4 1.4h1.4v-1.4-1.4h1.6 1.4v-1.4h1.4zm-8.5 9.9h-1.4-1.4v1.4h1.4 1.4zm0-2.9h-1.4-1.4v-1.4-1.4h-1.4v1.4 1.4h1.4v1.4h1.4 1.4zm1.4-2.8v-1.4h-1.4-1.4v1.4h1.4zm1.5 1.4h-1.4v1.4 1.4h1.4v-1.4zm2.8 4.3h-1.4v1.4h1.4 1.4v-1.4zm0-5.7h-1.4v1.4h1.4 1.4v-1.4z" fill="#353837"/><path d="m42.5-28.2h14.2v14.1h-14.2z" fill="#4f5145"/><path d="m56.7-26.8v1.4h-1.4-1.4v1.4h1.4 1.4v1.4 1.4 1.4h-1.4-1.4v1.4h1.4 1.4v1.4 1.4 1.4h-1.4-1.4-1.4-1.5v-1.4-1.4h-1.4v1.4 1.4h-1.4-1.4-1.4-1.4-1.4v-1.4h1.4v-1.4-1.4h-1.4v-1.4-1.4-1.4-1.4-1.4-1.4-1.4h1.4v1.4 1.4h1.4v-1.4-1.4h1.4 1.4v1.4 1.4h1.4v-1.4-1.4h1.4 1.4v1.4h-1.4v1.4 1.4h1.4v-1.4-1.4h1.4 1.4v-1.4h1.4v1.4zm-8.5 9.9h-1.4-1.4v1.4h1.4 1.4zm0-2.8h-1.4-1.4v-1.4-1.4h-1.4v1.4 1.4h1.4v1.4h1.4 1.4zm1.4-2.8v-1.4h-1.4-1.4v1.4h1.4zm1.4 1.3h-1.4v1.4 1.4h1.4v-1.4zm2.8 4.3h-1.4v1.4h1.4 1.4v-1.4zm0-5.7h-1.4v1.4h1.4 1.4v-1.4z" fill="#353837"/><path d="m28.3-25.4h14.2v14.1h-14.2z" fill="#4f5145"/><path d="m42.5-24v1.4h-1.4-1.4v1.4h1.4 1.4v1.4 1.4 1.4h-1.4-1.4v1.4h1.4 1.4v1.4 1.4 1.4h-1.4-1.4-1.4-1.4v-1.4-1.4h-1.4v1.4 1.4h-1.5-1.4-1.4-1.4-1.4v-1.4h1.4v-1.4-1.4h-1.4v-1.4-1.4-1.4-1.4-1.4-1.4-1.4h1.4v1.4 1.4h1.4v-1.4-1.4h1.4 1.4v1.4 1.4h1.4v-1.4-1.4h1.4 1.4v1.4h-1.4v1.4 1.4h1.4v-1.4-1.4h1.4 1.4v-1.4h1.4v1.4zm-8.5 9.9h-1.4-1.4v1.4h1.4 1.4zm0-2.8h-1.4-1.4v-1.4-1.4h-1.4v1.4 1.4h1.4v1.4h1.4 1.4zm1.4-2.8v-1.4h-1.4-1.4v1.4h1.4zm1.4 1.4h-1.4v1.4 1.4h1.4v-1.4zm2.9 4.2h-1.4v1.4h1.4 1.4v-1.4zm0-5.6h-1.4v1.4h1.4 1.4v-1.4z" fill="#353837"/><path d="m14.2-22.5h14.2v14.1h-14.2z" fill="#4f5145"/><path d="m28.3-21.2v1.4h-1.4-1.4v1.4h1.4 1.4v1.4 1.4 1.4h-1.4-1.4v1.4h1.4 1.4v1.4 1.4 1.4h-1.4-1.4-1.4-1.4v-1.4-1.4h-1.4v1.4 1.4h-1.4-1.4-1.5-1.4-1.4v-1.4h1.4v-1.4-1.4h-1.4v-1.4-1.4-1.4-1.4-1.4-1.4-1.4h1.4v1.4 1.4h1.4v-1.4-1.4h1.4 1.4v1.4 1.4h1.4v-1.4-1.4h1.4 1.4v1.4h-1.4v1.4 1.4h1.4v-1.4-1.4h1.4 1.4v-1.4h1.4v1.4zm-8.5 9.9h-1.4-1.4v1.4h1.4 1.4zm0-2.8h-1.4-1.4v-1.4-1.4h-1.4v1.4 1.4h1.4v1.4h1.4 1.4zm1.4-2.8v-1.4h-1.4-1.4v1.4h1.4zm1.5 1.4h-1.4v1.4 1.4h1.4v-1.4zm2.8 4.2h-1.4v1.4h1.4 1.4v-1.4zm0-5.6h-1.4v1.4h1.4 1.4v-1.4z" fill="#353837"/><path d="m0-19.7h14.2v14.1h-14.2z" fill="#4f5145"/><path d="m14.2-18.3v1.4h-1.4-1.4v1.4h1.4 1.4v1.4 1.4 1.4h-1.4-1.4v1.4h1.4 1.4v1.4 1.5 1.4h-1.4-1.4-1.5-1.4v-1.4-1.4h-1.4v1.4 1.4h-1.4-1.4-1.5-1.4-1.4v-1.4h1.4v-1.4-1.4h-1.4v-1.4-1.4-1.4-1.4-1.4-1.4-1.4h1.4v1.4 1.4h1.4v-1.4-1.4h1.4 1.4v1.4 1.4h1.4v-1.4-1.4h1.4 1.4v1.4h-1.3v1.4 1.4h1.4v-1.4-1.4h1.4 1.4v-1.4h1.4v1.3zm-8.5 9.8h-1.4-1.5v1.5h1.4 1.4v-1.5zm0-2.8h-1.4-1.5v-1.4-1.4h-1.4v1.4 1.4h1.4v1.4h1.4 1.4v-1.4zm1.4-2.8v-1.4h-1.4-1.4v1.4h1.4zm1.4 1.4h-1.4v1.4 1.4h1.4v-1.4zm2.8 4.2h-1.4v1.5h1.4 1.4v-1.4h-1.4zm0-5.6h-1.4v1.4h1.4 1.4v-1.4z" fill="#353837"/><path d="m56.7-45.1h14.2v14.1h-14.2z" fill="#4f5145"/><path d="m70.8-43.7v1.4h-1.4-1.4v1.4h1.4 1.4v1.4 1.4 1.4h-1.4-1.4v1.4h1.4 1.4v1.4 1.4 1.4h-1.4-1.4-1.4-1.4v-1.4-1.4h-1.4v1.4 1.4h-1.4-1.4-1.4-1.4-1.4v-1.4h1.2v-1.4-1.4h-1.4v-1.4-1.3-1.4-1.4-1.4-1.4-1.4h1.4v1.4 1.4h1.4v-1.4-1.4h1.4 1.4v1.4 1.4h1.4v-1.4-1.4h1.4 1.4v1.4h-1.4v1.4 1.4h1.4v-1.4-1.4h1.6 1.4v-1.4h1.4zm-8.5 9.9h-1.4-1.4v1.4h1.4 1.4zm0-2.8h-1.4-1.4v-1.4-1.4h-1.4v1.4 1.4h1.4v1.4h1.4 1.4zm1.4-2.8v-1.4h-1.4-1.4v1.4h1.4zm1.5 1.3h-1.4v1.4 1.4h1.4v-1.4zm2.8 4.3h-1.4v1.4h1.4 1.4v-1.4zm0-5.7h-1.4v1.4h1.4 1.4v-1.4z" fill="#353837"/><path d="m42.5-42.3h14.2v14.1h-14.2z" fill="#4f5145"/><path d="m56.7-40.9v1.4h-1.4-1.4v1.4h1.4 1.4v1.4 1.4 1.4h-1.4-1.4v1.4h1.4 1.4v1.4 1.4 1.4h-1.4-1.4-1.4-1.5v-1.4-1.3h-1.4v1.4 1.4h-1.4-1.4-1.4-1.4-1.4v-1.4h1.4v-1.4-1.4h-1.4v-1.4-1.4-1.4-1.4-1.4-1.4-1.4h1.4v1.4 1.4h1.4v-1.4-1.4h1.4 1.4v1.4 1.4h1.4v-1.4-1.4h1.4 1.4v1.4h-1.4v1.4 1.4h1.4v-1.4-1.4h1.4 1.4v-1.4h1.4v1.3zm-8.5 9.9h-1.4-1.4v1.4h1.4 1.4zm0-2.8h-1.4-1.4v-1.4-1.4h-1.4v1.4 1.4h1.4v1.4h1.4 1.4zm1.4-2.8v-1.4h-1.4-1.4v1.4h1.4zm1.4 1.4h-1.4v1.4 1.4h1.4v-1.4zm2.8 4.2h-1.4v1.4h1.4 1.4v-1.4zm0-5.7h-1.4v1.4h1.4 1.4v-1.4z" fill="#353837"/><path d="m28.3-39.5h14.2v14.1h-14.2z" fill="#4f5145"/><path d="m42.5-38.1v1.4h-1.4-1.4v1.4h1.4 1.4v1.4 1.4 1.4h-1.4-1.4v1.4h1.4 1.4v1.4 1.4 1.4h-1.4-1.4-1.4-1.4v-1.4-1.4h-1.4v1.4 1.4h-1.5-1.4-1.4-1.4-1.4v-1.4h1.4v-1.4-1.4h-1.4v-1.3-1.4-1.4-1.4-1.4-1.4-1.4h1.4v1.4 1.4h1.4v-1.4-1.4h1.4 1.4v1.4 1.4h1.4v-1.4-1.4h1.4 1.4v1.4h-1.4v1.4 1.4h1.4v-1.4-1.4h1.4 1.4v-1.4h1.4v1.3zm-8.5 9.9h-1.4-1.4v1.4h1.4 1.4zm0-2.8h-1.4-1.4v-1.4-1.4h-1.4v1.4 1.4h1.4v1.4h1.4 1.4zm1.4-2.8v-1.4h-1.4-1.4v1.4h1.4zm1.4 1.4h-1.4v1.4 1.4h1.4v-1.4zm2.9 4.2h-1.4v1.4h1.4 1.4v-1.4zm0-5.6h-1.4v1.4h1.4 1.4v-1.4z" fill="#353837"/><path d="m14.2-36.6h14.2v14.1h-14.2z" fill="#4f5145"/><path d="m28.3-35.3v1.4h-1.4-1.4v1.4h1.4 1.4v1.4 1.4 1.4h-1.4-1.4v1.4h1.4 1.4v1.4 1.4 1.4h-1.4-1.4-1.4-1.4v-1.4-1.4h-1.4v1.4 1.4h-1.4-1.4-1.5-1.4-1.4v-1.4h1.4v-1.4-1.4h-1.4v-1.4-1.4-1.3-1.4-1.4-1.4-1.4h1.4v1.4 1.4h1.4v-1.4-1.4h1.4 1.4v1.4 1.4h1.4v-1.4-1.4h1.4 1.4v1.4h-1.4v1.4 1.4h1.4v-1.4-1.4h1.4 1.4v-1.4h1.4v1.3zm-8.5 9.9h-1.4-1.4v1.4h1.4 1.4zm0-2.8h-1.4-1.4v-1.4-1.4h-1.4v1.4 1.4h1.4v1.4h1.4 1.4zm1.4-2.8v-1.4h-1.4-1.4v1.4h1.4zm1.5 1.4h-1.4v1.4 1.4h1.4v-1.4zm2.8 4.2h-1.4v1.4h1.4 1.4v-1.4zm0-5.6h-1.4v1.4h1.4 1.4v-1.4z" fill="#353837"/><path d="m0-33.8h14.2v14.1h-14.2z" fill="#4f5145"/><path d="m14.2-32.4v1.4h-1.4-1.4v1.4h1.4 1.4v1.4 1.4 1.4h-1.4-1.4v1.4h1.4 1.4v1.4 1.4 1.4h-1.4-1.4-1.5-1.4v-1.4-1.4h-1.4v1.4 1.4h-1.4-1.4-1.5-1.4-1.4v-1.4h1.4v-1.4-1.4h-1.4v-1.4-1.4-1.4-1.4-1.4-1.4-1.4h1.4v1.4 1.4h1.4v-1.4-1.4h1.4 1.4v1.4 1.4h1.4v-1.4-1.4h1.4 1.4v1.4h-1.3v1.4 1.4h1.4v-1.4-1.4h1.4 1.4v-1.4h1.4v1.4zm-8.5 9.8h-1.4-1.5v1.4h1.4 1.4v-1.4zm0-2.8h-1.4-1.5v-1.4-1.4h-1.4v1.4 1.4h1.4v1.4h1.4 1.4v-1.4zm1.4-2.8v-1.4h-1.4-1.4v1.4h1.4zm1.4 1.4h-1.4v1.4 1.4h1.4v-1.4zm2.8 4.2h-1.4v1.4h1.4 1.4v-1.4zm0-5.6h-1.4v1.4h1.4 1.4v-1.4z" fill="#353837"/><path d="m56.7-59.2h14.2v14.1h-14.2z" fill="#4f5145"/><path d="m70.8-57.8v1.4h-1.4-1.4v1.4h1.4 1.4v1.4 1.4 1.4h-1.4-1.4v1.4h1.4 1.4v1.4 1.4 1.4h-1.4-1.4-1.4-1.4v-1.4-1.4h-1.4v1.4 1.4h-1.4-1.4-1.4-1.4-1.4v-1.4h1.2v-1.4-1.4h-1.4v-1.4-1.4-1.4-1.4-1.4-1.4-1.4h1.4v1.4 1.4h1.4v-1.4-1.4h1.4 1.4v1.4 1.4h1.4v-1.4-1.4h1.4 1.4v1.4h-1.4v1.4 1.4h1.4v-1.4-1.4h1.6 1.4v-1.4h1.4zm-8.5 9.9h-1.4-1.4v1.4h1.4 1.4zm0-2.8h-1.4-1.4v-1.4-1.4h-1.4v1.4 1.4h1.4v1.4h1.4 1.4zm1.4-2.8v-1.4h-1.4-1.4v1.4h1.4zm1.5 1.3h-1.4v1.4 1.4h1.4v-1.4zm2.8 4.3h-1.4v1.4h1.4 1.4v-1.4zm0-5.7h-1.4v1.4h1.4 1.4v-1.4z" fill="#353837"/><path d="m42.5-56.4h14.2v14.1h-14.2z" fill="#4f5145"/><path d="m56.7-55v1.4h-1.4-1.4v1.4h1.4 1.4v1.4 1.4 1.4h-1.4-1.4v1.4h1.4 1.4v1.4 1.4 1.4h-1.4-1.4-1.4-1.5v-1.4-1.4h-1.4v1.4 1.4h-1.4-1.4-1.4-1.4-1.4v-1.4h1.4v-1.4-1.4h-1.4v-1.4-1.4-1.4-1.4-1.4-1.4-1.4h1.4v1.4 1.4h1.4v-1.4-1.4h1.4 1.4v1.4 1.4h1.4v-1.4-1.4h1.4 1.4v1.4h-1.4v1.4 1.4h1.4v-1.4-1.4h1.4 1.4v-1.4h1.4v1.4zm-8.5 9.9h-1.4-1.4v1.4h1.4 1.4zm0-2.8h-1.4-1.4v-1.4-1.4h-1.4v1.4 1.4h1.4v1.4h1.4 1.4zm1.4-2.8v-1.4h-1.4-1.4v1.4h1.4zm1.4 1.4h-1.4v1.4 1.4h1.4v-1.4zm2.8 4.2h-1.4v1.4h1.4 1.4v-1.4zm0-5.6h-1.4v1.4h1.4 1.4v-1.4z" fill="#353837"/><path d="m28.3-53.5h14.2v14.1h-14.2z" fill="#4f5145"/><path d="m42.5-52.2v1.4h-1.4-1.4v1.4h1.4 1.4v1.4 1.4 1.4h-1.4-1.4v1.4h1.4 1.4v1.4 1.4 1.4h-1.4-1.4-1.4-1.4v-1.4-1.4h-1.4v1.4 1.4h-1.5-1.4-1.4-1.4-1.4v-1.4h1.4v-1.4-1.4h-1.4v-1.4-1.4-1.4-1.4-1.4-1.4-1.4h1.4v1.4 1.4h1.4v-1.4-1.4h1.4 1.4v1.4 1.4h1.4v-1.4-1.4h1.4 1.4v1.4h-1.4v1.4 1.4h1.4v-1.4-1.4h1.4 1.4v-1.4h1.4v1.4zm-8.5 9.9h-1.4-1.4v1.4h1.4 1.4zm0-2.8h-1.4-1.4v-1.4-1.4h-1.4v1.4 1.4h1.4v1.4h1.4 1.4zm1.4-2.8v-1.4h-1.4-1.4v1.4h1.4zm1.4 1.4h-1.4v1.4 1.4h1.4v-1.4zm2.9 4.2h-1.4v1.4h1.4 1.4v-1.4zm0-5.6h-1.4v1.4h1.4 1.4v-1.4z" fill="#353837"/><path d="m14.2-50.7h14.2v14.1h-14.2z" fill="#4f5145"/><path d="m28.3-49.3v1.4h-1.4-1.4v1.4h1.4 1.4v1.4 1.4 1.4h-1.4-1.4v1.4h1.4 1.4v1.4 1.4 1.4h-1.4-1.4-1.4-1.4v-1.3-1.4h-1.4v1.4 1.4h-1.4-1.4-1.5-1.4-1.4v-1.4h1.4v-1.4-1.4h-1.4v-1.4-1.4-1.4-1.4-1.4-1.4-1.4h1.4v1.4 1.4h1.4v-1.4-1.4h1.4 1.4v1.4 1.4h1.4v-1.4-1.4h1.4 1.4v1.4h-1.4v1.4 1.4h1.4v-1.4-1.4h1.4 1.4v-1.4h1.4v1.3zm-8.5 9.8h-1.4-1.4v1.4h1.4 1.4zm0-2.8h-1.4-1.4v-1.4-1.4h-1.4v1.4 1.4h1.4v1.4h1.4 1.4zm1.4-2.8v-1.4h-1.4-1.4v1.4h1.4zm1.5 1.4h-1.4v1.4 1.4h1.4v-1.4zm2.8 4.2h-1.4v1.4h1.4 1.4v-1.4zm0-5.6h-1.4v1.4h1.4 1.4v-1.4z" fill="#353837"/><path d="m0-47.9h14.2v14.1h-14.2z" fill="#4f5145"/><path d="m14.2-46.5v1.4h-1.4-1.4v1.4h1.4 1.4v1.4 1.4 1.4h-1.4-1.4v1.4h1.4 1.4v1.4 1.4 1.4h-1.4-1.4-1.5-1.4v-1.4-1.4h-1.4v1.4 1.4h-1.4-1.4-1.5-1.4-1.4v-1.4h1.4v-1.4-1.3h-1.4v-1.4-1.4-1.4-1.4-1.4-1.4-1.4h1.4v1.4 1.4h1.4v-1.4-1.4h1.4 1.4v1.4 1.4h1.4v-1.4-1.4h1.4 1.4v1.4h-1.3v1.4 1.4h1.4v-1.4-1.4h1.4 1.4v-1.4h1.4v1.3zm-8.5 9.9h-1.4-1.5v1.4h1.4 1.4v-1.4zm0-2.9h-1.4-1.5v-1.4-1.4h-1.4v1.4 1.4h1.4v1.4h1.4 1.4v-1.4zm1.4-2.8v-1.4h-1.4-1.4v1.4h1.4zm1.4 1.4h-1.4v1.4 1.4h1.4v-1.4zm2.8 4.3h-1.4v1.4h1.4 1.4v-1.4zm0-5.7h-1.4v1.4h1.4 1.4v-1.4z" fill="#353837"/><path d="m56.7-73.3h14.2v14.1h-14.2z" fill="#4f5145"/><path d="m70.8-71.9v1.4h-1.4-1.4v1.4h1.4 1.4v1.4 1.4 1.4h-1.4-1.4v1.4h1.4 1.4v1.4 1.4 1.4h-1.4-1.4-1.4-1.4v-1.4-1.3h-1.4v1.4 1.4h-1.4-1.4-1.4-1.4-1.4v-1.4h1.2v-1.4-1.4h-1.4v-1.4-1.4-1.4-1.4-1.4-1.4-1.4h1.4v1.4 1.4h1.4v-1.4-1.4h1.4 1.4v1.4 1.4h1.4v-1.4-1.4h1.4 1.4v1.4h-1.4v1.4 1.4h1.4v-1.4-1.4h1.6 1.4v-1.4h1.4zm-8.5 9.9h-1.4-1.4v1.4h1.4 1.4zm0-2.8h-1.4-1.4v-1.4-1.4h-1.4v1.4 1.4h1.4v1.4h1.4 1.4zm1.4-2.8v-1.4h-1.4-1.4v1.4h1.4zm1.5 1.4h-1.4v1.4 1.4h1.4v-1.4zm2.8 4.2h-1.4v1.4h1.4 1.4v-1.4zm0-5.7h-1.4v1.4h1.4 1.4v-1.4z" fill="#353837"/><path d="m42.5-70.5h14.2v14.1h-14.2z" fill="#4f5145"/><path d="m56.7-69.1v1.4h-1.4-1.4v1.4h1.4 1.4v1.4 1.4 1.4h-1.4-1.4v1.4h1.4 1.4v1.4 1.4 1.4h-1.4-1.4-1.4-1.5v-1.4-1.4h-1.4v1.4 1.4h-1.4-1.4-1.4-1.4-1.4v-1.4h1.4v-1.4-1.4h-1.4v-1.3-1.4-1.4-1.4-1.4-1.4-1.4h1.4v1.4 1.4h1.4v-1.4-1.4h1.4 1.4v1.4 1.4h1.4v-1.4-1.4h1.4 1.4v1.4h-1.4v1.4 1.4h1.4v-1.4-1.4h1.4 1.4v-1.4h1.4v1.3zm-8.5 9.9h-1.4-1.4v1.4h1.4 1.4zm0-2.8h-1.4-1.4v-1.4-1.4h-1.4v1.4 1.4h1.4v1.4h1.4 1.4zm1.4-2.8v-1.4h-1.4-1.4v1.4h1.4zm1.4 1.4h-1.4v1.4 1.4h1.4v-1.4zm2.8 4.2h-1.4v1.4h1.4 1.4v-1.4zm0-5.6h-1.4v1.4h1.4 1.4v-1.4z" fill="#353837"/><path d="m28.3-67.6h14.2v14.1h-14.2z" fill="#4f5145"/><path d="m42.5-66.3v1.4h-1.4-1.4v1.4h1.4 1.4v1.4 1.4 1.4h-1.4-1.4v1.4h1.4 1.4v1.4 1.4 1.4h-1.4-1.4-1.4-1.4v-1.4-1.4h-1.4v1.4 1.4h-1.5-1.4-1.4-1.4-1.4v-1.4h1.4v-1.4-1.4h-1.4v-1.4-1.4-1.3-1.4-1.4-1.4-1.4h1.4v1.4 1.4h1.4v-1.4-1.4h1.4 1.4v1.4 1.4h1.4v-1.4-1.4h1.4 1.4v1.4h-1.4v1.4 1.4h1.4v-1.4-1.4h1.4 1.4v-1.4h1.4v1.3zm-8.5 9.9h-1.4-1.4v1.4h1.4 1.4zm0-2.8h-1.4-1.4v-1.4-1.4h-1.4v1.4 1.4h1.4v1.4h1.4 1.4zm1.4-2.8v-1.4h-1.4-1.4v1.4h1.4zm1.4 1.4h-1.4v1.4 1.4h1.4v-1.4zm2.9 4.2h-1.4v1.4h1.4 1.4v-1.4zm0-5.6h-1.4v1.4h1.4 1.4v-1.4z" fill="#353837"/><path d="m14.2-64.8h14.2v14.1h-14.2z" fill="#4f5145"/><path d="m28.3-63.4v1.4h-1.4-1.4v1.4h1.4 1.4v1.4 1.4 1.4h-1.4-1.4v1.4h1.4 1.4v1.4 1.4 1.4h-1.4-1.4-1.4-1.4v-1.4-1.4h-1.4v1.4 1.4h-1.4-1.4-1.5-1.4-1.4v-1.4h1.4v-1.4-1.4h-1.4v-1.4-1.4-1.4-1.4-1.4-1.4-1.4h1.4v1.4 1.4h1.4v-1.4-1.4h1.4 1.4v1.4 1.4h1.4v-1.4-1.4h1.4 1.4v1.4h-1.4v1.4 1.4h1.4v-1.4-1.4h1.4 1.4v-1.4h1.4v1.4zm-8.5 9.8h-1.4-1.4v1.4h1.4 1.4zm0-2.8h-1.4-1.4v-1.4-1.4h-1.4v1.4 1.4h1.4v1.4h1.4 1.4zm1.4-2.8v-1.4h-1.4-1.4v1.4h1.4zm1.5 1.4h-1.4v1.4 1.4h1.4v-1.4zm2.8 4.2h-1.4v1.4h1.4 1.4v-1.4zm0-5.6h-1.4v1.4h1.4 1.4v-1.4z" fill="#353837"/><path d="m0-62h14.2v14.1h-14.2z" fill="#4f5145"/><path d="m14.2-60.6v1.4h-1.4-1.4v1.4h1.4 1.4v1.4 1.4 1.4h-1.4-1.4v1.4h1.4 1.4v1.4 1.4 1.4h-1.4-1.4-1.5-1.4v-1.4-1.4h-1.4v1.4 1.4h-1.4-1.4-1.5-1.4-1.4v-1.4h1.4v-1.4-1.4h-1.4v-1.4-1.4-1.4-1.4-1.4-1.4-1.4h1.4v1.4 1.4h1.4v-1.4-1.4h1.4 1.4v1.4 1.4h1.4v-1.4-1.4h1.4 1.4v1.4h-1.3v1.4 1.4h1.4v-1.4-1.4h1.4 1.4v-1.4h1.4v1.4zm-8.5 9.9h-1.4-1.5v1.4h1.4 1.4v-1.4zm0-2.9h-1.4-1.5v-1.4-1.4h-1.4v1.4 1.4h1.4v1.4h1.4 1.4v-1.4zm1.4-2.8v-1.4h-1.4-1.4v1.4h1.4zm1.4 1.4h-1.4v1.4 1.4h1.4v-1.4zm2.8 4.3h-1.4v1.4h1.4 1.4v-1.4zm0-5.7h-1.4v1.4h1.4 1.4v-1.4z" fill="#353837"/><path d="m56.7-87.4h14.2v14.1h-14.2z" fill="#4f5145"/><path d="m70.8-86v1.4h-1.4-1.4v1.4h1.4 1.4v1.4 1.4 1.4h-1.4-1.4v1.4h1.4 1.4v1.4 1.4 1.4h-1.4-1.4-1.4-1.4v-1.4-1.4h-1.4v1.4 1.4h-1.4-1.4-1.4-1.4-1.4v-1.4h1.2v-1.4-1.4h-1.4v-1.4-1.4-1.4-1.4-1.4-1.4-1.4h1.4v1.4 1.4h1.4v-1.4-1.4h1.4 1.4v1.4 1.4h1.4v-1.4-1.4h1.4 1.4v1.4h-1.4v1.4 1.4h1.4v-1.4-1.4h1.6 1.4v-1.4h1.4zm-8.5 9.9h-1.4-1.4v1.4h1.4 1.4zm0-2.8h-1.4-1.4v-1.4-1.4h-1.4v1.4 1.4h1.4v1.4h1.4 1.4zm1.4-2.8v-1.4h-1.4-1.4v1.4h1.4zm1.5 1.4h-1.4v1.4 1.4h1.4v-1.4zm2.8 4.2h-1.4v1.4h1.4 1.4v-1.4zm0-5.6h-1.4v1.4h1.4 1.4v-1.4z" fill="#353837"/><path d="m42.5-84.5h14.2v14.1h-14.2z" fill="#4f5145"/><path d="m56.7-83.2v1.4h-1.4-1.4v1.4h1.4 1.4v1.4 1.4 1.4h-1.4-1.4v1.4h1.4 1.4v1.4 1.4 1.4h-1.4-1.4-1.4-1.5v-1.4-1.4h-1.4v1.4 1.4h-1.4-1.4-1.4-1.4-1.4v-1.4h1.4v-1.4-1.4h-1.4v-1.4-1.4-1.4-1.4-1.4-1.4-1.4h1.4v1.4 1.4h1.4v-1.4-1.4h1.4 1.4v1.4 1.4h1.4v-1.4-1.4h1.4 1.4v1.4h-1.4v1.4 1.4h1.4v-1.4-1.4h1.4 1.4v-1.4h1.4v1.4zm-8.5 9.9h-1.4-1.4v1.4h1.4 1.4zm0-2.8h-1.4-1.4v-1.4-1.4h-1.4v1.4 1.4h1.4v1.4h1.4 1.4zm1.4-2.8v-1.4h-1.4-1.4v1.4h1.4zm1.4 1.4h-1.4v1.4 1.4h1.4v-1.4zm2.8 4.2h-1.4v1.4h1.4 1.4v-1.4zm0-5.6h-1.4v1.4h1.4 1.4v-1.4z" fill="#353837"/><path d="m28.3-81.7h14.2v14.1h-14.2z" fill="#4f5145"/><path d="m42.5-80.3v1.4h-1.4-1.4v1.4h1.4 1.4v1.4 1.4 1.4h-1.4-1.4v1.4h1.4 1.4v1.4 1.4 1.4h-1.4-1.4-1.4-1.4v-1.3-1.4h-1.4v1.4 1.4h-1.5-1.4-1.4-1.4-1.4v-1.4h1.4v-1.4-1.4h-1.4v-1.4-1.4-1.4-1.4-1.4-1.4-1.4h1.4v1.4 1.4h1.4v-1.4-1.4h1.4 1.4v1.4 1.4h1.4v-1.4-1.4h1.4 1.4v1.4h-1.4v1.4 1.4h1.4v-1.4-1.4h1.4 1.4v-1.4h1.4v1.3zm-8.5 9.8h-1.4-1.4v1.4h1.4 1.4zm0-2.8h-1.4-1.4v-1.4-1.4h-1.4v1.4 1.4h1.4v1.4h1.4 1.4zm1.4-2.8v-1.4h-1.4-1.4v1.4h1.4zm1.4 1.4h-1.4v1.4 1.4h1.4v-1.4zm2.9 4.2h-1.4v1.4h1.4 1.4v-1.4zm0-5.6h-1.4v1.4h1.4 1.4v-1.4z" fill="#353837"/><path d="m14.2-78.9h14.2v14.1h-14.2z" fill="#4f5145"/><path d="m28.3-77.5v1.4h-1.4-1.4v1.4h1.4 1.4v1.4 1.4 1.4h-1.4-1.4v1.4h1.4 1.4v1.4 1.4 1.4h-1.4-1.4-1.4-1.4v-1.4-1.4h-1.4v1.4 1.4h-1.4-1.4-1.5-1.4-1.4v-1.4h1.4v-1.4-1.3h-1.4v-1.4-1.4-1.4-1.4-1.4-1.4-1.4h1.4v1.4 1.4h1.4v-1.4-1.4h1.4 1.4v1.4 1.4h1.4v-1.4-1.4h1.4 1.4v1.4h-1.4v1.4 1.4h1.4v-1.4-1.4h1.4 1.4v-1.4h1.4v1.3zm-8.5 9.9h-1.4-1.4v1.4h1.4 1.4zm0-2.9h-1.4-1.4v-1.4-1.4h-1.4v1.4 1.4h1.4v1.4h1.4 1.4zm1.4-2.8v-1.4h-1.4-1.4v1.4h1.4zm1.5 1.4h-1.4v1.4 1.4h1.4v-1.4zm2.8 4.3h-1.4v1.4h1.4 1.4v-1.4zm0-5.7h-1.4v1.4h1.4 1.4v-1.4z" fill="#353837"/><path d="m0-76.1h14.2v14.1h-14.2z" fill="#4f5145"/><path d="m14.2-74.7v1.4h-1.4-1.4v1.4h1.4 1.4v1.4 1.4 1.4h-1.4-1.4v1.4h1.4 1.4v1.4 1.4 1.4h-1.4-1.4-1.5-1.4v-1.4-1.4h-1.4v1.4 1.4h-1.4-1.4-1.5-1.4-1.4v-1.4h1.4v-1.4-1.4h-1.4v-1.4-1.3-1.4-1.4-1.4-1.4-1.4h1.4v1.4 1.4h1.4v-1.4-1.4h1.4 1.4v1.4 1.4h1.4v-1.4-1.4h1.4 1.4v1.4h-1.3v1.4 1.4h1.4v-1.4-1.4h1.4 1.4v-1.4h1.4v1.3zm-8.5 9.9h-1.4-1.5v1.4h1.4 1.4v-1.4zm0-2.8h-1.4-1.5v-1.4-1.4h-1.4v1.4 1.4h1.4v1.4h1.4 1.4v-1.4zm1.4-2.8v-1.4h-1.4-1.4v1.4h1.4zm1.4 1.3h-1.4v1.4 1.4h1.4v-1.4zm2.8 4.3h-1.4v1.4h1.4 1.4v-1.4zm0-5.7h-1.4v1.4h1.4 1.4v-1.4z" fill="#353837"/><path d="m14.2-93h14.2v14.1h-14.2z" fill="#4f5145"/><path d="m28.3-91.6v1.4h-1.4-1.4v1.4h1.4 1.4v1.4 1.4 1.4h-1.4-1.4v1.4h1.4 1.4v1.4 1.4 1.4h-1.4-1.4-1.4-1.4v-1.4-1.4h-1.4v1.4 1.4h-1.4-1.4-1.5-1.4-1.4v-1.4h1.4v-1.4-1.4h-1.4v-1.4-1.4-1.4-1.4-1.4-1.4-1.4h1.4v1.4 1.4h1.4v-1.4-1.4h1.4 1.4v1.4 1.4h1.4v-1.4-1.4h1.4 1.4v1.4h-1.4v1.4 1.4h1.4v-1.4-1.4h1.4 1.4v-1.4h1.4v1.4zm-8.5 9.9h-1.4-1.4v1.4h1.4 1.4zm0-2.9h-1.4-1.4v-1.4-1.4h-1.4v1.4 1.4h1.4v1.4h1.4 1.4zm1.4-2.8v-1.4h-1.4-1.4v1.4h1.4zm1.5 1.4h-1.4v1.4 1.4h1.4v-1.4zm2.8 4.3h-1.4v1.4h1.4 1.4v-1.4zm0-5.7h-1.4v1.4h1.4 1.4v-1.4z" fill="#353837"/><path d="m0-90.2h14.2v14.1h-14.2z" fill="#4f5145"/><path d="m14.2-88.8v1.4h-1.4-1.4v1.4h1.4 1.4v1.4 1.4 1.4h-1.4-1.4v1.4h1.4 1.4v1.4 1.4 1.4h-1.4-1.4-1.5-1.4v-1.4-1.4h-1.4v1.4 1.4h-1.4-1.4-1.5-1.4-1.4v-1.4h1.4v-1.4-1.4h-1.4v-1.4-1.4-1.4-1.4-1.4-1.4-1.4h1.4v1.4 1.4h1.4v-1.4-1.4h1.4 1.4v1.4 1.4h1.4v-1.4-1.4h1.4 1.4v1.4h-1.3v1.4 1.4h1.4v-1.4-1.4h1.4 1.4v-1.4h1.4v1.4zm-8.5 9.9h-1.4-1.5v1.4h1.4 1.4v-1.4zm0-2.8h-1.4-1.5v-1.4-1.4h-1.4v1.4 1.4h1.4v1.4h1.4 1.4v-1.4zm1.4-2.8v-1.4h-1.4-1.4v1.4h1.4zm1.4 1.3h-1.4v1.4 1.4h1.4v-1.4zm2.8 4.3h-1.4v1.4h1.4 1.4v-1.4zm0-5.7h-1.4v1.4h1.4 1.4v-1.4z" fill="#353837"/></pattern><pattern id="c" patternTransform="translate(484.6606 842.7114)" xlink:href="#b"/><pattern id="d" patternTransform="translate(484.6606 842.7114)" xlink:href="#b"/><pattern id="e" patternTransform="translate(484.6606 842.7114)" xlink:href="#b"/><pattern id="f" patternTransform="translate(484.6606 842.7114)" xlink:href="#b"/><pattern id="g" patternTransform="translate(484.6606 842.7114)" xlink:href="#b"/><pattern id="h" patternTransform="translate(484.6606 842.7114)" xlink:href="#b"/><pattern id="i" patternTransform="translate(484.6606 842.7114)" xlink:href="#b"/><pattern id="j" patternTransform="translate(484.6606 842.7114)" xlink:href="#b"/><pattern id="k" patternTransform="translate(484.6606 842.7114)" xlink:href="#b"/><pattern id="l" patternTransform="translate(484.6606 842.7114)" xlink:href="#b"/><pattern id="m" patternTransform="translate(484.6606 842.7114)" xlink:href="#b"/><pattern id="n" patternTransform="translate(506.6518 783.3862)" xlink:href="#a"/><pattern id="o" patternTransform="translate(484.6606 842.7114)" xlink:href="#b"/><pattern id="p" patternTransform="translate(484.6606 842.7114)" xlink:href="#b"/><pattern id="q" patternTransform="translate(506.6518 783.3862)" xlink:href="#a"/><pattern id="r" patternTransform="translate(506.6518 783.3862)" xlink:href="#a"/><pattern id="s" patternTransform="translate(506.6518 783.3862)" xlink:href="#a"/><pattern id="t" patternTransform="translate(484.6606 842.7114)" xlink:href="#b"/><pattern id="u" patternTransform="translate(484.6606 842.7114)" xlink:href="#b"/><pattern id="v" patternTransform="translate(484.6606 842.7114)" xlink:href="#b"/><pattern id="w" patternTransform="translate(484.6606 842.7114)" xlink:href="#b"/><pattern id="x" patternTransform="translate(484.6606 842.7114)" xlink:href="#b"/><pattern id="y" patternTransform="translate(484.6606 842.7114)" xlink:href="#b"/><pattern id="z" patternTransform="translate(484.6606 842.7114)" xlink:href="#b"/><pattern id="A" patternTransform="translate(484.6606 842.7114)" xlink:href="#b"/><pattern id="B" patternTransform="translate(484.6606 842.7114)" xlink:href="#b"/><pattern id="C" patternTransform="translate(484.6606 842.7114)" xlink:href="#b"/><pattern id="D" patternTransform="translate(484.6606 842.7114)" xlink:href="#b"/><pattern id="E" patternTransform="translate(484.6606 842.7114)" xlink:href="#b"/><pattern id="F" patternTransform="translate(484.6606 842.7114)" xlink:href="#b"/><pattern id="G" patternTransform="translate(506.6518 783.3862)" xlink:href="#a"/><g stroke="#000" stroke-miterlimit="10"><path d="m693.9 221.2c-.1 0-.1 0-.2 0" fill="#090909"/><path d="m979.2 221.2c-.1 0-.1 0-.2 0" fill="#090909"/><path d="m1105.9 484.4c-3.5 14.2-8.7 20.4-8.7 20.4-1.6.8-7.2 6.2-8.6 5.1-13-10-25.4-11.3-45.6-11l-12.1-50.3s-10.6-21.6-13.8-48.5-6.2-18.2-11.5-39.3-17.4-34.8-19.5-48.5-2.1-53.2-2.1-53.2c-3.2-12.5-4.7-25.3-4.9-38-1.1-65.2 31.5-127.6 33.8-127.7 19 17.8 43.9 84.5 58.7 137.2s27.3 106.3 27.3 134.3 5.2 62.8 7.1 79.6c.4 4.8 2.8 27.9-.1 39.9z" fill="url(#c)"/><path d="m693.9 221.2c-.2 12.7-1.7 25.5-4.9 38 0 0 0 39.5-2.1 53.2s-14.2 27.4-19.5 48.5-8.4 12.4-11.5 39.3c-3.2 26.9-13.8 48.5-13.8 48.5l-12.2 50.3c-20.2-.3-32.7 1-45.6 11-1.4 1-7-4.4-8.6-5.1 0 0-5.2-6.3-8.7-20.4-2.9-12-.5-35.1 0-39.8 2-16.9 7.2-51.7 7.2-79.6s12.5-81.5 27.3-134.3c14.8-52.7 39.7-119.4 58.6-137.2 2.2 0 34.9 62.3 33.8 127.6z" fill="url(#d)"/><path d="m868 530.5c-8.5 9.4-18.7 14.9-31.6 14.9s-23.1-5.5-31.6-14.9c.4-7.5 11.9-29.3 31.6-29.3s31.2 21.8 31.6 29.3z" fill="url(#e)"/><path d="m979 221.2c-11.7-.3-28.2 94.7-60.4 185.1-18.2 50.9-29 100.4-50.5 124.3-.4-7.5-11.9-29.3-31.6-29.3s-31.2 21.8-31.6 29.3c-21.5-23.9-32.3-73.4-50.5-124.3-32.3-90.4-48.8-185.3-60.4-185.1 1.1-65.2-31.5-127.6-33.8-127.7 19-17.8 42.4-39.7 68.7-49.6 4.1-1.5 14.4-5.8 23.2-10 7 15.2 50.8 22.5 84.4 22.5s77.5-7.2 84.4-22.5c8.8 4.2 19.2 8.4 23.2 10 26.3 9.9 49.7 31.8 68.7 49.6-2.3.1-34.9 62.4-33.8 127.7z" fill="url(#f)"/><path d="m920.8 33.9c-6.9 15.2-50.8 22.5-84.4 22.5s-77.5-7.2-84.4-22.5c3.6-1.7 6.9-3.4 9.5-4.8 12.1-7 23.7-18.6 24-18.6 14.1-2.9 25.8 4.2 51 4.2s36.9-7 51-4.2c.3 0 11.9 11.5 24 18.6 2.4 1.4 5.8 3.1 9.3 4.8z" fill="url(#g)"/><path d="m1088.6 509.9c-.7 4.5-2.5 11.2-2.5 17.8 0-11.2-.7 20.9-2.7 26s-19.6 14.2-26 16.2-26.3 4.7-30.7 0-5.7-12.2-5.7-12.2-1.4 6.5-6.4 5.5c-5.1-1.1-2.4-6.1-4.4-10.2s-6.4-4.4-6.4-8.4c0-4.1 4.7-21.6 11.5-28.4s27.8-17.3 27.8-17.3c20.1-.3 32.5 1.1 45.5 11z" fill="#fff"/><path d="m669.1 544.6c0 4-4.4 4.4-6.4 8.4s.7 9.1-4.4 10.2-6.4-5.5-6.4-5.5-1.4 7.4-5.7 12.2c-4.4 4.7-24.3 2-30.7 0s-24-11.1-26-16.2-2.7-37.2-2.7-26c0-6.6-1.8-13.3-2.5-17.8 13-10 25.4-11.3 45.6-11 0 0 21 10.6 27.8 17.3 6.7 6.8 11.4 24.4 11.4 28.4z" fill="#fff"/><path d="m804.8 530.5c0 .1 0 .1 0 0" fill="#090909"/><path d="m868.8 731.3c-.3-.9-.6-1.7-.9-2.4-7.9-21.6-17.8-112.8-28.2-112.8-3.7 0-2.9 0-6.6 0-10.4 0-20.3 91.2-28.2 112.8-.3.7-.6 1.5-.9 2.4-6.2 3.9-31.3 8-23.6-18.6 5-17.2 27.3-61.5 30.1-81.1s-12.1-57.1-11.5-86.4c17 .2 30.9.2 37.4.2s20.4 0 37.4-.2c.6 29.3-14.2 66.8-11.5 86.4 2.8 19.6 25.1 63.9 30.1 81.1 7.7 26.6-17.4 22.4-23.6 18.6z" fill="url(#h)"/><path d="m996.6 530.1c-.8 1.5-2.6 2.8-5.3 4.1-18.2 8.2-76.8 10.4-117.5 11-17 .2-30.9.2-37.4.2 12.9 0 23.1-5.5 31.6-14.9 21.5-23.9 32.3-73.4 50.5-124.3 32.3-90.4 48.8-185.3 60.4-185.1.2 12.7 1.7 25.5 4.9 38 0 0-21.1 57.5-7.4 144.5 13.8 87 28.1 110.7 20.2 126.5z" fill="url(#i)"/><path d="m836.4 545.4c-6.5 0-20.4 0-37.4-.2-40.7-.6-99.3-2.8-117.5-11-2.7-1.2-4.5-2.6-5.3-4.1-7.9-15.8 6.3-39.5 20-126.5s-7.4-144.5-7.4-144.5c3.2-12.5 4.7-25.3 4.9-38 11.7-.3 28.2 94.7 60.4 185.1 18.2 50.9 29 100.4 50.5 124.3 8.7 9.5 18.9 14.9 31.8 14.9z" fill="url(#j)"/><path d="m1026 1061c-.3 4.7-1 9.3-2.5 14-4.3 13.6-29 19.8-59.7.6 0 0-27.4-45.7-34.2-72.1s-13.2-101.7-18.4-139.7c-5.1-36.7-33.3-108.3-42.3-132.6 6.2 3.9 31.3 8 23.6-18.6-5-17.2-27.3-61.5-30.1-81.1s12.1-57.1 11.5-86.4c40.7-.6 99.3-2.8 117.5-11 1.5 8.5 2.8 16.8 4.1 24.9l6.3 43.8c14.4 110.3 10.5 171.4 10.5 171.4 1.6 25.3 1.2 116.5 1.7 140.8.5 24.2 11.3 105.9 11.6 118.6.1 10.2 1 18.9.4 27.4z" fill="url(#k)"/><path d="m780.5 712.7c-7.7 26.6 17.3 22.5 23.6 18.6-9 24.3-37.2 95.9-42.3 132.6-5.3 38-11.6 113.3-18.5 139.7-6.8 26.4-34.2 72.1-34.2 72.1s-.1.1-.1.1c-30.7 19.2-55.3 12.9-59.6-.7-1.6-4.9-2.3-9.6-2.6-14.5-.5-8.3.3-16.9.5-27 .2-12.8 11.1-94.4 11.6-118.6s.2-115.5 1.8-140.8c0 0-3.9-61.1 10.5-171.4l6.3-43.8c1.3-8.1 2.6-16.4 4.1-24.9 18.2 8.2 76.8 10.4 117.5 11-.6 29.3 14.2 66.8 11.5 86.4-2.8 19.7-25.2 64-30.1 81.2z" fill="url(#l)"/><path d="m1058.1 1129.4c-1.3 8.4-11 17.1-16.1 20.7s-14.3 13.5-17.6 21.2-16.6 22.7-28.6 25.5-32.7-9.2-36.2-14.8c-3.6-5.6-3.3-10.2-3.8-23.7s5.6-50.8 7.4-61.8.6-20.8.6-20.8c30.7 19.2 55.4 13 59.7-.6 1.5-4.7 2.2-9.3 2.5-14s-.2 6.1 6.1 6.1 11 7.9 17.6 17.1c6.6 9.1 9.7 36.7 8.4 45.1z" fill="#090909"/><path d="m717.1 1157.2c-.5 13.5-.2 18.1-3.8 23.7s-24.2 17.6-36.2 14.8-25.3-17.9-28.6-25.5c-3.3-7.7-12.5-17.6-17.6-21.2s-14.8-12.2-16.1-20.7c-1.3-8.4 1.8-36 8.4-45.2s11.3-17.1 17.6-17.1c5.1 0 5.9-4 6-5.5.3 4.8 1 9.6 2.6 14.5 4.3 13.6 28.9 19.8 59.6.7-.2 2.8-.7 10.9.7 19.8 1.7 10.9 7.9 48.2 7.4 61.7z" fill="#090909"/><path d="m290.4 691.5c-.3-.8-.6-1.6-.9-2.3-7.6-20.8-17.1-108.4-27.1-108.4-3.5 0-2.8 0-6.3 0-10 0-19.5 87.6-27.1 108.4-.3.7-.5 1.5-.8 2.3-6 3.7-30 7.7-22.6-17.9 4.8-16.5 26.2-59.1 28.9-77.9s-11.6-54.9-11-83c16.3.2 29.6.2 35.9.2 6.2 0 19.5 0 35.8-.2.6 28.1-13.7 64.2-11 83s24.1 61.4 28.9 77.9c7.3 25.5-16.6 21.6-22.7 17.9z" fill="url(#m)"/><path d="m188.7 811.6-2.9 20.3" fill="url(#n)"/><path d="m259.3 39.9c-21.7 0-69.9-13.8-53.8-32.5 0 0 23.1-6.8 53.8-6.8 30.8 0 53.8 6.8 53.8 6.8 16.1 18.7-32.2 32.5-53.8 32.5z" fill="#202624"/><path d="m198.2 745.2-9.5 66.3c-.5 2.5-.9 5-1.2 7.2-.5 4-1.1 8.4-1.7 13.1v.1l-8.1 56.7c-3.1 21.8-23.6 36.7-45.3 32.9l-7.3-1.3c-10.6-1.9-19.7-7.5-26.1-15.2-7.2-8.8-11-20.4-9.6-32.6l16.3-139c2.4-20.6 21.1-35.4 41.7-33.1l17.7 2c21.2 2.5 36.2 21.9 33.1 42.9z" fill="url(#o)"/><path d="m419.6 905.1c-6.4 7.8-15.4 13.4-26.1 15.2l-7.3 1.3c-21.7 3.8-42.2-11.1-45.3-32.9l-8.1-56.7v-.1c-.6-4.7-1.1-9.1-1.7-13.1-.3-2.3-.7-4.7-1.2-7.2l-9.5-66.3c-3-21.1 12-40.5 33.1-42.9l17.6-2c20.6-2.3 39.3 12.5 41.7 33.1l16.3 139c1.4 12.1-2.3 23.7-9.5 32.6z" fill="url(#p)"/><path d="m332.7 831.9-2.9-20.3" fill="url(#q)"/><path d="m473.2 162.5c-.3.1-.6.2-.9.3" fill="url(#r)"/><path d="m490.4 202v.1" fill="url(#s)"/><g fill="#202624"><path d="m490.3 202.1c-1.1 2.8-2.8 4.8-5 5.3-6.1 1.6-13.7-7.1-17-19.5-3.2-11.8-1.4-22.6 4-25.1l.9-.3c2.4-.7 5.1.4 7.7 2.6l-4.6 1.4c-5.4 1.5-7.5 10.9-4.8 21 2.7 10.2 9.3 17.2 14.7 15.8z"/><path d="m491.6 201.7c-5.4 1.4-11.9-5.6-14.7-15.8-2.7-10-.7-19.2 4.4-20.9l.4-.1c5.4-1.4 11.9 5.6 14.7 15.8 2.7 10.2.5 19.6-4.8 21z"/><path d="m485.3 207.5-1.1.4-12.4 4.6c-6 1.6-13.7-7.1-17-19.5s-1.1-23.8 4.9-25.4l10.5-3.9 2-.8c-5.3 2.5-7.1 13.3-4 25.1 3.4 12.4 11 21.1 17.1 19.5z"/><path d="m491.6 201.7-1.3.4-4.1 1.2c-5.4 1.5-11.9-5.6-14.7-15.8-2.7-10.2-.6-19.6 4.8-21l4.6-1.4.5-.1c-5.1 1.8-7.1 11-4.4 20.9 2.6 10.2 9.2 17.3 14.6 15.8z"/></g><path d="m372 45.5c-11 23.7-67.2 49.7-112.7 49.7s-101.7-26-112.8-49.7c16.5-8.1 29.8-14 29.8-14s-.5-3.8 9.6-12.8 19.4-11.5 19.5-11.4c-16.1 18.7 32.2 32.5 53.8 32.5s69.9-13.8 53.8-32.5c.1-.1 9.4 2.4 19.5 11.4s9.6 12.8 9.6 12.8 13.5 5.9 29.9 14z" fill="url(#t)"/><path d="m395 57.3c0 .1-.1.2-.2.3-6.9 11-129 204.6-214 322.8l-4-11.5c84.2-118 203.3-306.7 209.3-316.3.1-.2.2-.3.2-.4 1.5-2.3 4.6-3 6.9-1.6 2.3 1.5 3 4.4 1.8 6.7z" fill="url(#u)"/><path d="m428.7 78.9s-32.8 60-32.3 122.7c-11.2-1.2-27.1 90.5-58.2 177.8-17.5 48.9-27.9 96.4-48.5 119.4-.4-7.2-11.4-28.2-30.3-28.2s-30 21-30.3 28.2c-20.5-22.8-30.9-69.8-48.1-118.3 85-118.2 207.1-311.8 214-322.8.1-.1.1-.2.2-.3 13.8 7.4 26.9 15.3 33.5 21.5z" fill="url(#v)"/><path d="m372 45.5c-11 23.7-67.2 49.7-112.7 49.7s-101.7-26-112.8-49.7c-20.8 10.2-46.5 23.8-56.6 33.4 0 0 32.8 60 32.3 122.7 10.8-1.2 25.8 83.4 54.6 167.3 84.2-118 203.3-306.7 209.3-316.3-4.7-2.5-9.5-4.9-14.1-7.1zm-121.5 108.2c-10.4 0-19.2-5.7-22.6-13.7l-19.3 2.3-1.2-9.4 19.1-2.3c1.2-10.5 11.5-18.7 23.9-18.7 13.3 0 24.1 9.4 24.1 20.9s-10.7 20.9-24 20.9z" fill="url(#w)"/><path d="m289.6 498.7c-8.2 9.1-17.9 14.3-30.3 14.3s-22.2-5.2-30.3-14.3c.4-7.2 11.4-28.2 30.3-28.2s29.9 21 30.3 28.2z" fill="url(#x)"/><path d="m250.5 111.9c-12.4 0-22.7 8.2-23.9 18.7-.1.7-.1 1.4-.1 2.2 0 2.5.5 5 1.5 7.2 3.4 8 12.2 13.7 22.6 13.7 13.3 0 24.1-9.4 24.1-20.9s-10.9-20.9-24.2-20.9zm.7 23.9c-6.1 0-11-4.4-11-9.9s4.9-9.9 11-9.9 11 4.4 11 9.9-4.9 9.9-11 9.9z" fill="#202624"/><path d="m262.2 125.9c0 5.5-4.9 9.9-11 9.9s-11-4.4-11-9.9 4.9-9.9 11-9.9c6.1.1 11 4.5 11 9.9z" fill="#202624"/><path d="m228 140.1-19.3 2.3-1.2-9.4 19.1-2.3c-.1.7-.1 1.4-.1 2.2 0 2.5.5 4.9 1.5 7.2z" fill="#202624"/><path d="m122.2 201.5c-.1 12.2-1.5 24.5-4.6 36.5 0 0 0 38-2 51.1-2 13.2-13.7 26.3-18.7 46.6-5.1 20.3-5.1 33.4-8.1 59.2s-13.7 60.8-13.7 60.8l-6.6 40c-19.4-.3-37 2-49.5 11.6-.6.4-1.2.7-1.9.8-.9.2-1.9 0-2.7-.4 0 0-9.5-6.4-12.8-20-2.8-11.5.4-30.1.9-34.6 1.9-16.2.6-13.2.6-40s16.2-151.9 30.4-202.6c14.2-50.5 38.2-114.6 56.4-131.6 0 0 32.8 60 32.3 122.6z" fill="url(#y)"/><path d="m516.9 487.8c-3.3 13.6-12.8 20-12.8 20-.9.4-1.8.5-2.7.4-.7-.1-1.3-.4-1.9-.8-12.5-9.6-30.1-11.9-49.5-11.6l-6.6-40s-10.6-34.9-13.7-60.8c-3-25.8-3-39-8.1-59.2s-16.7-33.4-18.7-46.6-2-51.1-2-51.1c-3.1-12-4.5-24.3-4.6-36.5-.5-62.7 32.2-122.7 32.3-122.7 12.8 12 28.5 47.3 41.5 84.8l-10.5 3.9c-6.1 1.6-8.2 13-4.9 25.4s11 21.1 17 19.5l12.4-4.6c.3.9.5 1.9.8 2.8 14.2 50.6 30.4 175.7 30.4 202.6 0 26.8-1.3 23.8.6 40 .6 4.4 3.8 23 1 34.5z" fill="url(#z)"/><path d="m205.5 673.6c-7.4 25.6 16.6 21.6 22.6 17.9-8.1 21.8-32.3 83.4-39.4 120.1l9.5-66.3c3-21.1-12-40.5-33.1-42.9l-17.7-2c-20.6-2.3-39.3 12.5-41.7 33.1l-16.3 139c-1.4 12.2 2.3 23.8 9.6 32.6 6.4 7.8 15.5 13.4 26.1 15.2l7.3 1.3c21.7 3.8 42.2-11.1 45.3-32.9l8.1-56.7c-4.7 38.6-10.2 98.5-16 121.1-6.6 25.3-26.8 65.3-26.8 65.3h-65.4s-1.5-24.3 0-36.5 10.6-90.7 11.1-113.9c.5-23.3.2-110.9 1.7-135.2 0 0-3.7-58.7 10.1-164.7 5.7-1.2 2.7-6.9 4.9-11.5 2.3-4.5 7.2-4.9 7.2-9.5 0-3-2.3-12.7-6.1-21.1 1.2-7.8 2.5-15.7 3.9-23.9 17.5 7.9 73.8 10 112.9 10.6-.6 28.1 13.7 64.2 11 83-2.6 18.9-24 61.4-28.8 77.9z" fill="url(#A)"/><path d="m441 1018.4h-65.3s-20.3-40-26.8-65.3c-5.9-22.6-11.3-82.5-16-121.1l8.1 56.7c3.1 21.8 23.6 36.7 45.3 32.9l7.3-1.3c10.6-1.9 19.7-7.5 26.1-15.2 7.2-8.8 11-20.4 9.6-32.6l-16.3-139c-2.4-20.6-21.1-35.4-41.7-33.1l-17.6 2c-21.2 2.4-36.1 21.8-33.1 42.9l9.5 66.3c-7.1-36.7-31.3-98.2-39.4-120 6.1 3.7 30 7.6 22.6-17.9-4.8-16.5-26.2-59.1-28.9-77.9s11.6-54.9 11-83h.4c39.1-.6 95-2.7 112.5-10.6 1.4 8.2 2.7 16.1 3.9 23.9-3.8 8.4-6.1 18.1-6.1 21.1 0 4.6 4.9 4.9 7.2 9.5s-.8 10.3 4.9 11.5c13.8 105.9 10.1 164.7 10.1 164.7 1.5 24.3 1.2 111.9 1.7 135.2s9.6 101.8 11.2 113.9c1.3 12.1-.2 36.4-.2 36.4z" fill="url(#B)"/><path d="m176.8 368.8c-28.3 39.6-52.6 71.3-67.4 85.5 4.1-17.6 9.8-42.1 15.4-77.6 13.2-83.6-7.1-138.8-7.1-138.8 3.1-12 4.5-24.3 4.6-36.5 10.6-1 25.7 83.5 54.5 167.4z" fill="url(#C)"/><path d="m259.3 513c-6.2 0-19.6 0-35.9-.2-39.1-.6-95.4-2.7-112.9-10.6-2.6-1.2-4.3-2.5-5-3.9-3.5-7-2.5-15.5.8-30.7.4.1.7.1 1.1.1 1.1 0 2.2-.4 3.1-1.1 13.9-11 39.7-43.7 70.3-86.2 17.2 48.5 27.6 95.5 48.1 118.3 8.2 9 17.9 14.3 30.4 14.3z" fill="url(#D)"/><path d="m180.8 380.4c-30.6 42.5-56.4 75.3-70.3 86.2-.9.7-2 1.1-3.1 1.1-.4 0-.7 0-1.1-.1-1.1-.2-2.1-.8-2.8-1.8-1.7-2.2-1.3-5.3.8-7 1.5-1.2 3.2-2.7 5-4.5 14.8-14.2 39.1-45.8 67.4-85.5z" fill="url(#E)"/><path d="m413.1 498.3c-.7 1.4-2.5 2.7-5.1 3.9-17.5 7.9-73.4 10-112.5 10.6-.1 0-.3 0-.4 0-16.3.2-29.6.2-35.8.2 12.4 0 22.2-5.2 30.3-14.3 20.7-23 31.1-70.5 48.5-119.4 31.2-87.2 47-179 58.2-177.8.1 12.2 1.4 24.5 4.6 36.5 0 0-20.3 55.2-7.1 138.8 13.2 83.5 26.9 106.3 19.3 121.5z" fill="url(#F)"/><path d="m112.7 547.2c0 4.6-4.9 4.9-7.2 9.5s.8 10.3-4.9 11.5-7.2-6.1-7.2-6.1-1.5 8.4-6.5 13.7c-4.9 5.3-27.3 2.3-34.6 0-7.2-2.3-27-12.5-29.3-18.2s-3-14.8-3-29.2c0-7.4-2.1-15-2.9-20 .7-.1 1.3-.4 1.9-.8 12.5-9.6 30.1-11.9 49.5-11.6 0 0 23.7 11.9 31.3 19.5 2.6 2.6 4.9 6.5 6.8 10.8 3.7 8.2 6.1 17.8 6.1 20.9z" fill="#fff"/><path d="m501.4 508.1c-.8 5.1-2.9 12.7-2.9 20 0 14.4-.8 23.5-3 29.2-2.3 5.7-22 16-29.2 18.2-7.2 2.3-29.6 5.3-34.6 0-4.9-5.3-6.5-13.7-6.5-13.7s-1.5 7.3-7.2 6.1-2.7-6.9-4.9-11.5c-2.3-4.5-7.2-4.9-7.2-9.5 0-3 2.3-12.7 6.1-21.1 1.9-4.3 4.2-8.3 6.8-10.8 7.6-7.6 31.3-19.5 31.3-19.5 19.4-.3 37 2 49.5 11.6.5.6 1.1.9 1.8 1z" fill="#fff"/><path d="m496.8 1155.6c0 9.1-4.6 23-19.8 28.1s-41.8-.8-56.9-17c-15.2-16.2-10.4-22.2-17-33.6s-21-13.8-29.9-25.7 3.7-40.9 6.7-60.1-4.3-28.9-4.3-28.9h65.4c0 36.5 11.1 67.1 21.7 78.9 11.1 12.5 34.1 49.2 34.1 58.3z" fill="#090909"/><path d="m145.3 1107.4c-8.9 11.9-23.3 14.4-29.9 25.7-6.6 11.4-1.8 17.4-17 33.6s-41.8 22.1-56.9 17c-15.2-5.1-19.8-19-19.8-28.1s23-45.8 34.2-58.3c10.6-11.9 21.7-42.5 21.7-78.9h65.3s-7.3 9.6-4.3 28.9c3.1 19.2 15.6 48.2 6.7 60.1z" fill="#090909"/><path d="m289.6 498.8c0-.1 0-.1 0 0" fill="url(#G)"/></g></svg>