<?xml version="1.0" encoding="utf-8"?>
<!-- Generator: Adobe Illustrator 23.0.1, SVG Export Plug-In . SVG Version: 6.00 Build 0)  -->
<svg version="1.1" id="Layer_1" xmlns="http://www.w3.org/2000/svg" xmlns:xlink="http://www.w3.org/1999/xlink" x="0px" y="0px"
	 viewBox="0 0 256 256" style="enable-background:new 0 0 256 256;" xml:space="preserve">
<style type="text/css">
	.st0{fill:none;stroke:#000000;stroke-width:8;stroke-linejoin:round;stroke-miterlimit:10;}
	.st1{fill:none;stroke:#000000;stroke-width:8;stroke-miterlimit:10;}
	.st2{fill:none;stroke:#000000;stroke-width:6;stroke-miterlimit:10;}
	.st3{fill:none;stroke:#000000;stroke-width:6;stroke-linejoin:round;stroke-miterlimit:10;}
	.st4{fill:none;stroke:#000000;stroke-width:6;stroke-linecap:round;stroke-miterlimit:10;}
	.st5{display:none;opacity:0.4;}
	.st6{fill:#FFFFFF;stroke:#000000;stroke-width:6;stroke-miterlimit:10;}
	.st7{fill:none;}
	.st8{fill:#1D1D1B;}
</style>
<path class="st5" d="M210,125.1c-1-2.2-2.2-4.4-2.9-6.7c0-0.1,0-0.1-0.1-0.2c-0.3-1.3-0.5-2.6-0.8-3.8c-0.3-1.3-0.7-2.7-1.1-4
	c-0.5-2-0.8-4.1-1.5-6c0,0,0,0,0-0.1c-0.3-2.2-1-4.2-2.4-6.1c-0.3-0.4-0.6-0.9-1-1.3c-4-5.8-8-11.5-12.1-17.2
	c-1.1-1.7-2.3-3.3-3.6-4.8c-0.1-0.1-0.1-0.2-0.2-0.3c-0.8-1.1-1.8-2-2.8-2.9c-4.7-4.7-10-8.9-14.3-14.2c-1.3-1.6-2.6-3-3.5-4.8
	c-0.2-0.5-0.4-1.1-0.6-1.6c-0.4-1.3-1.1-2.5-1.9-3.6c0-0.1-0.1-0.1-0.1-0.2c-0.1-0.1-0.2-0.3-0.3-0.4c-2.4-3.1-6.3-5.5-9.3-5.3
	c-1.6,0.1-3-0.2-4.3-0.7c-0.7-0.4-1.5-0.8-2.2-1.1c-0.6-0.4-1.3-0.7-1.9-1c-1.4-0.7-2.7-1.5-4-2.4c-0.4-0.3-0.7-0.6-1-0.9
	c-1.4-1.8-1.5-3.8-1.3-6.5c0.1-0.6,0.2-1.2,0.3-1.8c0.2-1.1,0.7-2,1.5-3c1.7-1.1,1.7-3.2,2.2-4.9c0.5-1.8,0.2-2.5-1.1-2.8
	c-0.3-0.2-0.5-0.4-0.8-0.6c0-0.6-0.1-1.4-0.1-2.1c0-1,0-2.1,0-3.1c-0.1-1.5-0.4-3-1-4.3c-0.7-1.7-1.8-3-3.3-4
	c-1-0.7-2.1-1.2-3.4-1.5c-0.5-0.1-1-0.3-1.6-0.5c-0.8,0-1.7,0-2.5,0c-0.5,0.2-1,0.4-1.6,0.5c-1.2,0.3-2.4,0.8-3.4,1.5
	c-1.5,1-2.6,2.3-3.3,4c-0.6,1.3-0.9,2.7-0.9,4.2c0,1,0,2.1,0,3.1c0,0.7,0,1.5-0.1,2.1c-0.2,0.2-0.5,0.4-0.8,0.6
	c-1.3,0.3-1.6,1.1-1.1,2.8c0.5,1.7,0.5,3.7,2.2,4.9c0.8,1,1.3,1.9,1.5,3c0.1,0.6,0.2,1.2,0.3,1.8c0.2,2.7,0.1,4.8-1.3,6.5
	c-0.3,0.3-0.6,0.6-1,0.9c-1.2,0.9-2.6,1.7-4,2.4c-0.7,0.3-1.3,0.6-1.9,1c-0.7,0.4-1.5,0.8-2.2,1.1c-1.3,0.5-2.7,0.8-4.3,0.7
	c-3-0.1-6.8,2.3-9.3,5.3c-0.1,0.1-0.2,0.3-0.3,0.4c0,0.1-0.1,0.1-0.1,0.2c-0.8,1.1-1.4,2.3-1.9,3.6c-0.2,0.5-0.4,1.1-0.6,1.6
	c-0.9,1.8-2.2,3.2-3.5,4.8c-4.3,5.3-9.6,9.5-14.3,14.2c-1,0.9-2,1.9-2.8,2.9c-0.1,0.1-0.1,0.2-0.2,0.3c-1.3,1.5-2.4,3.2-3.6,4.8
	c-4.1,5.7-8.1,11.4-12.1,17.2c-0.3,0.4-0.6,0.9-1,1.3c-1.3,1.8-2.1,3.9-2.4,6.1c0,0,0,0,0,0.1c-0.6,2-1,4-1.5,6
	c-0.3,1.3-0.8,2.7-1.1,4c-0.3,1.3-0.5,2.6-0.8,3.8c0,0.1,0,0.1-0.1,0.2c-0.8,2.3-1.9,4.5-2.9,6.7c0,0.3,0,0.6,0,0.8
	c0.4,0,0.8,0,1.2-0.1c0.7-0.1,1.4-0.1,1.7-0.5c0.1-0.2,0.3-0.3,0.4-0.5c1.5-1.1,2.6-2.9,3.4-5.2c0.8-2.4,2-4.6,3.1-6.9
	c0.3-0.6,0.7-1.2,1-1.9c0.1-0.1,0.2-0.1,0.3-0.2c0.2-0.1,0.4-0.2,0.6-0.3c0.1,0.3,0.1,0.7,0.2,0.9c0.1,0.4,0.1,0.7,0.3,1
	c0,0,0,0,0,0c0,0,0,0,0,0c0.4,0.6,1.2,1.4,1.6,1.3c0,0,0.1,0,0.1,0c0,0,0.1,0,0.1,0c0.3,0,0.9-0.6,1.1-1.1c0.1-0.2,0.2-0.3,0.1-0.4
	c0,0,0,0,0-0.1c0-2.2-0.1-4.4-0.3-6.6c0-0.3-0.1-0.7-0.3-1c-0.1-0.4-0.3-0.8-0.6-1.1c-0.4-0.5,0-2,0.6-2.6c0.9-1,1.9-2,2.8-2.9
	c1.8-1.7,3.7-3.4,5.6-5c1-0.9,2.1-1.7,3.2-2.5c3.3-2.5,6.5-4.9,9.2-8.1c1.4-1.4,2.7-3,3.9-4.6c0,0,0.1-0.1,0.1-0.1
	c2.3-2.4,5-4.4,7.7-6.4c2.3-1.5,4.7-3,6.8-5c0.9-0.7,1.8-1.4,2.7-2.2c0.6,2.8,1.3,5.7,2,8.7c0,0,0,0.1,0,0.1
	c0.1,0.4,0.2,0.7,0.2,1.1c0.2,0.7,0.2,1.4,0.5,2c0.3,0.7,0.5,1.4,0.8,2.2c0.6,1.9,1.1,3.9,1.3,5.9c0.5,3.9,0.3,7.9,0.3,11.8
	c0,0.1,0,0.1,0,0.2c-0.2,1.7-0.3,3.3-0.3,5c0,1.3,0.3,2.7,0.3,4c0,0,0,0.1,0,0.1c-0.2,3-0.9,5.9-1.3,8.8c-1.4,8.8-3.3,17.5-4,26.4
	c-0.7,7.1-0.3,14.2,1.5,21.2c0,0,0,0,0,0.1c0.8,4.3,1.9,8.6,2.5,12.9c0.3,3.7,0.3,7.3-0.2,11.1c-0.2,1.3-0.4,2.7-0.7,4
	c-1.2,6.5-0.7,12.8,0.6,19.2c0.2,0.8,0.3,1.5,0.5,2.3c0.3,1.8,0.7,3.5,1,5.3c0.9,4.5,1.7,9,2.3,13.5c0.3,2.2-0.4,4.6-0.7,6.9
	c-0.1,0.9-0.3,1.9-0.1,2.8c0.1,0.3,0.1,0.5,0.1,0.8c0.2,1.6,0.2,3.1-0.3,4.4c0,0,0,0,0,0.1c-0.1,0.2-0.2,0.4-0.3,0.7
	c0,0.1-0.1,0.2-0.1,0.3c-0.3,0.6-0.7,1.2-1.3,1.7c-0.4,0.4-0.7,0.8-1,1.2c-0.5,0.6-1,1.2-1.3,1.9c-0.2,0.4-0.3,0.7-0.4,1
	c-0.4,1.2,0,2.3,1,3c0.1,0,0.1,0.1,0.2,0.1c0.1,0.1,0.2,0.1,0.3,0.2c0.3,0.2,0.7,0.3,1.1,0.4c0.5,0.1,1.1,0.2,1.6,0.3
	c1.2,0.2,2.3,0.3,3.5,0.6c0.6,0.1,1.1,0.3,1.7,0.5c0.1,0,0.3,0,0.4,0c0.6,0,1.1,0,1.7,0c1.1-0.9,2.3-1.8,3.2-2.9
	c0.6-0.7,1.1-2,0.8-2.6c-0.1-0.1-0.1-0.2-0.1-0.4c0.1-1,0.2-2,0.5-2.9c0.2-0.3,0.5-0.7,0.7-1.1c0.1-0.2,0.2-0.5,0.3-0.8
	c0.1-0.1,0.2-0.2,0.3-0.3c0.2-0.2,0-0.8-0.1-1.2c-0.1-0.4-0.1-0.7-0.2-1.1c0-0.3-0.1-0.7-0.1-1c-0.7-6-1.6-11.9-2.3-17.8
	c-0.2-1.3-0.2-2.7-0.4-3.9c0-0.1,0-0.2-0.1-0.3c-0.2-1.9-0.3-3.9-0.3-5.8c0.1-1.7,0.4-3.3,0.8-5c0.6-2,1-4.1,1.4-6.1
	c0.6-3,0.7-6.1,0.4-9c-0.2-2.1-0.6-4.2-1.2-6.3c-0.3-2.2-0.1-4.2,0.7-6.5c1.2-3.2,2-6.8,2.2-10.2c0.4-2.8,0.6-5.7,1-8.5
	c0.5-3,1.2-6.1,1.6-9.1c0.6-3.6,1.1-7.3,1.2-11c0.2-1.8,0.3-3.6,0.5-5.5c0.2-0.1,0.4-0.1,0.5-0.2c0.1,0,0.3,0.1,0.5,0.2
	c0.2,1.9,0.3,3.7,0.5,5.5c0.2,3.7,0.6,7.3,1.2,10.9c0.5,3.1,1.1,6.1,1.6,9.1c0.4,2.8,0.6,5.7,1,8.5c0.2,3.4,1,7,2.2,10.2
	c0.8,2.3,1.1,4.3,0.7,6.5c-0.6,2.1-1,4.2-1.2,6.3c-0.3,3-0.2,6,0.4,9c0.3,2.1,0.8,4.1,1.4,6.2c0.4,1.7,0.7,3.3,0.8,5
	c0.1,1.9-0.1,3.9-0.3,5.8c0,0.1,0,0.2-0.1,0.3c-0.3,1.3-0.3,2.6-0.4,3.9c-0.8,5.9-1.6,11.9-2.3,17.8c0,0.3-0.1,0.6-0.1,1
	c-0.1,0.4-0.1,0.7-0.2,1.1c-0.1,0.4-0.3,1-0.1,1.2c0.1,0.1,0.2,0.2,0.3,0.3c0.1,0.3,0.2,0.5,0.3,0.8c0.3,0.4,0.5,0.7,0.7,1.1
	c0.3,0.9,0.4,1.9,0.5,2.9c0,0.1-0.1,0.2-0.1,0.4c-0.3,0.6,0.2,2,0.8,2.6c0.9,1.1,2.1,1.9,3.2,2.9c0.6,0,1.1,0,1.7,0
	c0.1,0,0.3,0,0.4,0c0.6-0.2,1.1-0.4,1.7-0.5c1.2-0.2,2.3-0.4,3.5-0.6c0.5-0.1,1.1-0.2,1.6-0.3c0.4-0.1,0.8-0.2,1.1-0.4
	c0.1,0,0.2-0.1,0.3-0.2c0.1,0,0.1-0.1,0.2-0.1c1-0.7,1.4-1.8,1-3c-0.1-0.3-0.2-0.7-0.4-1c-0.4-0.7-0.8-1.3-1.3-1.9
	c-0.3-0.4-0.7-0.8-1-1.2c-0.6-0.5-1-1.1-1.3-1.7c0-0.1-0.1-0.2-0.1-0.3c-0.1-0.2-0.2-0.4-0.3-0.7c0,0,0-0.1,0-0.1
	c-0.5-1.4-0.5-2.9-0.3-4.4c0-0.3,0.1-0.5,0.1-0.8c0.2-0.9,0-1.9-0.1-2.8c-0.2-2.3-1-4.7-0.7-6.9c0.7-4.5,1.5-9,2.3-13.5
	c0.4-1.8,0.7-3.5,1-5.3c0.2-0.8,0.3-1.5,0.5-2.3c1.3-6.4,1.8-12.7,0.6-19.2c-0.2-1.3-0.5-2.6-0.7-4c-0.4-3.7-0.5-7.4-0.2-11.1
	c0.6-4.3,1.7-8.6,2.5-12.9c0,0,0,0,0-0.1c1.8-7,2.2-14.1,1.5-21.2c-0.6-8.9-2.6-17.6-4-26.4c-0.5-2.9-1.1-5.9-1.3-8.8
	c0,0,0-0.1,0-0.1c0.1-1.3,0.4-2.7,0.3-4c0-1.7-0.1-3.3-0.3-5c0-0.1,0-0.1,0-0.2c0-3.9-0.2-7.9,0.3-11.8c0.3-2,0.8-3.9,1.3-5.9
	c0.2-0.7,0.5-1.5,0.8-2.2c0.2-0.6,0.3-1.3,0.5-2c0.1-0.4,0.2-0.7,0.2-1.1c0,0,0-0.1,0-0.1c0.7-3,1.4-5.9,2-8.7
	c1,0.7,1.8,1.5,2.7,2.2c2.1,2,4.5,3.5,6.8,5c2.7,1.9,5.4,3.9,7.7,6.4c0,0,0.1,0.1,0.1,0.1c1.2,1.7,2.5,3.2,3.9,4.6
	c2.7,3.1,5.9,5.6,9.2,8.1c1.1,0.8,2.1,1.7,3.2,2.5c1.9,1.6,3.8,3.3,5.6,5c1,1,1.9,1.9,2.8,2.9c0.5,0.6,0.9,2.1,0.6,2.6
	c-0.3,0.4-0.4,0.7-0.6,1.1c-0.2,0.3-0.3,0.7-0.3,1c-0.1,2.2-0.3,4.4-0.3,6.6c0,0,0,0,0,0.1c0,0.1,0,0.2,0.1,0.4
	c0.2,0.5,0.8,1.2,1.1,1.1c0,0,0.1,0,0.1,0c0,0,0.1,0,0.1,0c0.3,0.1,1.2-0.7,1.6-1.3c0,0,0,0,0,0c0,0,0,0,0,0c0.2-0.3,0.3-0.6,0.3-1
	c0.1-0.3,0.1-0.6,0.2-0.9c0.2,0.1,0.4,0.2,0.6,0.3c0.1,0.1,0.2,0.2,0.3,0.2c0.3,0.6,0.6,1.2,1,1.9c1.1,2.3,2.3,4.5,3.1,6.9
	c0.8,2.3,1.9,4.2,3.4,5.2c0.1,0.2,0.3,0.3,0.4,0.5c0.3,0.4,1,0.5,1.7,0.5c0.4,0.1,0.8,0.1,1.2,0.1C210,125.6,210,125.4,210,125.1z"
	/>
<g>
	<path d="M243.1,98.8c-5.6-14.1-9.4-26.7-12.6-36.8c-2.9-9.3-4.9-16.1-7-19.6c-3.4-5.7-11.4-19.2-33.3-21.8
		c-18.6-2.3-33.5-13.3-33.7-13.4c-1.3-1-3.2-0.7-4.2,0.6c-0.3,0.4-8.6,10.7-24.4,10.7c-15.8,0-24.1-10.2-24.4-10.6
		c-1-1.3-2.9-1.5-4.2-0.6c-0.1,0.1-15.1,11.2-33.7,13.4c-21.9,2.7-29.9,16.1-33.3,21.8c-2.1,3.5-4.2,10.3-7,19.6
		c-3.1,10.1-7,22.8-12.6,36.8C2.1,125.9,0.1,198.3,0,201.4c0,1.6,1.2,3,2.9,3.1l31.6,1.6c1.6,0.1,3-1.1,3.1-2.8
		c0-0.4,3.5-44.3,9.1-69.1c4.7-20.7,12.8-32.8,18.2-39.4c2.5,13.5,8,47.1,6.2,66.9c-0.4,4.5-4.1,44.9-6.7,84.6l6,0.4
		c2.6-39.6,6.3-79.9,6.7-84.4c1.1-12.3-0.4-29.2-2.3-43.8c1.8,6.5,3.6,13.5,5.5,20.5c10.4,40.2,21.2,81.7,47.7,81.7
		c26.3,0,40.4-40,50.9-80c-0.5,7.8-0.6,15.2,0,21.5c0.4,4.5,4.1,44.9,6.7,84.4l6-0.4c-2.6-39.5-6.3-80.1-6.7-84.6
		c-1.8-19.8,3.7-53.4,6.2-66.9c5.4,6.6,13.5,18.6,18.2,39.4c5.7,24.8,9.1,68.7,9.1,69.1c0.1,1.6,1.5,2.8,3.1,2.8l31.6-1.6
		c1.6-0.1,2.9-1.4,2.9-3.1C255.9,198.3,253.9,125.9,243.1,98.8z M40.9,132.8c-5,21.8-8.2,56.7-9,67.1l-25.8-1.3
		c0.5-14,3.2-74.4,12.3-97.6c5.7-14.3,9.6-27,12.7-37.3c2.6-8.6,4.7-15.4,6.5-18.3c3.1-5.2,9.3-15.7,26.5-18.6
		c7.8,21.9,5.6,32.7,0.1,59.6C59.3,91.7,47.3,105,40.9,132.8z M128,214.7c-21.8,0-32.5-41-41.9-77.2c-5-19.2-9.7-37.3-15.9-50.2
		C75.7,60.6,78,48.6,70.2,26c14.3-2.6,25.9-9.4,30.6-12.4c3.8,3.7,12.9,10.9,27.2,10.9s23.4-7.2,27.2-10.9
		c4.7,3.1,16.3,9.9,30.6,12.4c-7.8,22.6-5.2,35.5,0.3,62.1c-2.3,8-4.7,17.7-7.2,28C168.7,157.7,154.7,214.7,128,214.7z M224.1,199.9
		c-0.9-10.3-4.1-45.3-9-67.1c-6.2-27.4-18-40.6-23.1-46c-5.4-26.6-7.8-38.2-0.1-59.9c17.2,2.9,23.4,13.4,26.5,18.6
		c1.7,2.9,3.8,9.7,6.5,18.3c3.2,10.2,7.1,23,12.7,37.3c9.2,23.1,11.8,83.5,12.3,97.6L224.1,199.9z"/>
</g>
</svg>
