<?xml version="1.0" encoding="utf-8"?>
<!-- Generator: Adobe Illustrator 23.0.1, SVG Export Plug-In . SVG Version: 6.00 Build 0)  -->
<svg version="1.1" id="Layer_1" xmlns="http://www.w3.org/2000/svg" xmlns:xlink="http://www.w3.org/1999/xlink" x="0px" y="0px"
	 viewBox="0 0 256 256" style="enable-background:new 0 0 256 256;" xml:space="preserve">
<style type="text/css">
	.st0{fill:none;stroke:#000000;stroke-width:8;stroke-linejoin:round;stroke-miterlimit:10;}
	.st1{fill:none;stroke:#000000;stroke-width:8;stroke-miterlimit:10;}
	.st2{fill:none;stroke:#000000;stroke-width:6;stroke-miterlimit:10;}
	.st3{fill:none;stroke:#000000;stroke-width:6;stroke-linejoin:round;stroke-miterlimit:10;}
	.st4{fill:none;stroke:#000000;stroke-width:6;stroke-linecap:round;stroke-miterlimit:10;}
	.st5{display:none;opacity:0.4;}
	.st6{fill:#FFFFFF;stroke:#000000;stroke-width:6;stroke-miterlimit:10;}
	.st7{fill:none;}
	.st8{fill:#1D1D1B;}
</style>
<g>
	<path d="M200.4,77.9c2.9-2.9,4.5-6,4.8-9.3c0-0.3,0-0.6,0-0.9c0,0,0-0.1,0-0.1c0,0,0,0,0-0.1c0,0,0-0.1,0-0.1
		c0-11.2-15.9-20.6-42.7-25.3c-1.1-5.6-1.2-11.7-1.2-17.6c0-8.7-16.8-13.3-33.3-13.3s-33.3,4.6-33.3,13.3c0,5.9-0.2,12-1.2,17.6
		c-26.8,4.7-42.7,14-42.7,25.3c0,0,0,0.1,0,0.1c0,0,0,0,0,0.1c0,0,0,0.1,0,0.1c0,0.3,0,0.6,0,0.9c0.3,3.3,1.9,6.4,4.8,9.3
		C43,83.7,36.4,90.8,36.4,98.6c0,9.4,9.9,18,28,24.2c17,5.8,39.6,9,63.6,9s46.6-3.2,63.6-9c18-6.1,28-14.7,28-24.2
		C219.6,90.8,213,83.7,200.4,77.9z M128,17.2c18.1,0,27.4,5.2,27.4,7.4c0,2.2-9.3,7.4-27.4,7.4s-27.4-5.2-27.4-7.4
		C100.6,22.4,109.9,17.2,128,17.2z M91.7,48.6c-2.2,5.8-5.8,10.5-12.1,12.9l2.1,5.6c15.4-5.8,18.3-22.1,18.8-34.6
		c6.3,3.6,16.9,5.5,27.5,5.5s21.2-1.9,27.5-5.5c0.5,12.5,3.4,28.8,18.8,34.6l2.1-5.6c-6.3-2.4-10-7.1-12.1-12.9
		c20.8,4.1,35,11.6,35.1,19C199.1,78,169.9,89.6,128,89.6S56.9,78,56.7,67.6C56.8,60.2,70.9,52.7,91.7,48.6z M189.7,117.1
		c-16.4,5.6-38.4,8.7-61.7,8.7s-45.3-3.1-61.7-8.7c-15-5.1-24-12-24-18.5c0-5.7,6.8-11.7,18.8-16.6c3.4,2.1,7.7,4.1,13.4,6.1
		c14.3,4.8,33.3,7.5,53.5,7.5s39.2-2.7,53.5-7.5c5.7-1.9,10.1-4,13.4-6.1c12,4.9,18.8,10.9,18.8,16.6
		C213.7,105.1,204.7,112,189.7,117.1z"/>
	<path d="M231.7,171.8c-2.6-9-13.5-17.1-31.3-23.1c-19.4-6.6-45.2-10.2-72.5-10.2s-53.1,3.6-72.5,10.2c-17.8,6-28.6,14.1-31.3,23.1
		C8.4,179.5,0,188.9,0,199c0,12.9,13.8,24.6,38.8,33.1c23.9,8.1,55.5,12.6,89.2,12.6s65.3-4.5,89.2-12.6c25-8.5,38.8-20.3,38.8-33.1
		C256,188.9,247.6,179.5,231.7,171.8z M57.7,155.2c18.7-6.4,43.7-9.8,70.3-9.8s51.6,3.5,70.3,9.8c17.1,5.8,27.2,13.6,27.2,21
		c0,7.3-10.2,15.2-27.2,21c-18.7,6.4-43.7,9.8-70.3,9.8s-51.6-3.5-70.3-9.8c-17.1-5.8-27.2-13.6-27.2-21
		C30.5,168.8,40.7,160.9,57.7,155.2z M128,237.9C55.5,237.9,6.8,217.8,6.8,199c0-6.6,6.1-13.4,17.2-19.4c2.2,9.3,13.2,17.8,31.5,24
		c19.4,6.6,45.2,10.2,72.5,10.2s53.1-3.6,72.5-10.2c18.3-6.2,29.3-14.6,31.5-24c11.1,6,17.2,12.8,17.2,19.4
		C249.2,217.8,200.5,237.9,128,237.9z"/>
</g>
</svg>
