<?xml version="1.0" encoding="utf-8"?>
<!-- Generator: Adobe Illustrator 23.0.1, SVG Export Plug-In . SVG Version: 6.00 Build 0)  -->
<svg version="1.1" id="Layer_1" xmlns="http://www.w3.org/2000/svg" xmlns:xlink="http://www.w3.org/1999/xlink" x="0px" y="0px"
	 viewBox="0 0 256 256" style="enable-background:new 0 0 256 256;" xml:space="preserve">
<style type="text/css">
	.st0{fill:none;stroke:#000000;stroke-width:8;stroke-linejoin:round;stroke-miterlimit:10;}
	.st1{fill:none;stroke:#000000;stroke-width:8;stroke-miterlimit:10;}
	.st2{fill:none;stroke:#000000;stroke-width:6;stroke-miterlimit:10;}
	.st3{fill:none;stroke:#000000;stroke-width:6;stroke-linejoin:round;stroke-miterlimit:10;}
	.st4{fill:none;stroke:#000000;stroke-width:6;stroke-linecap:round;stroke-miterlimit:10;}
	.st5{display:none;opacity:0.4;}
	.st6{fill:#FFFFFF;stroke:#000000;stroke-width:6;stroke-miterlimit:10;}
	.st7{fill:none;}
	.st8{fill:#1D1D1B;}
</style>
<g>
	<path d="M-12.9,98.8c-5.6-14.1-9.4-26.7-12.6-36.8c-2.9-9.3-4.9-16.1-7-19.6c-3.4-5.7-11.4-19.2-33.3-21.8
		C-84.3,18.3-99.3,7.3-99.4,7.2c-1.3-1-3.2-0.7-4.2,0.6c-0.3,0.4-8.6,10.7-24.4,10.7c-15.8,0-24.1-10.2-24.4-10.6
		c-1-1.3-2.9-1.5-4.2-0.6c-0.1,0.1-15.1,11.2-33.7,13.4c-21.9,2.7-29.9,16.1-33.3,21.8c-2.1,3.5-4.2,10.3-7,19.6
		c-3.1,10.1-7,22.8-12.6,36.8c-10.7,27.1-12.8,99.5-12.9,102.5c0,1.6,1.2,3,2.9,3.1l31.6,1.6c1.6,0.1,3-1.1,3.1-2.8
		c0-0.4,3.5-44.3,9.1-69.1c4.7-20.7,12.8-32.8,18.2-39.4c2.5,13.5,8,47.1,6.2,66.9c-0.4,4.5-4.1,44.9-6.7,84.6l6,0.4
		c2.6-39.6,6.3-79.9,6.7-84.4c1.1-12.3-0.4-29.2-2.3-43.8c1.8,6.5,3.6,13.5,5.5,20.5c10.4,40.2,21.2,81.7,47.7,81.7
		c26.3,0,40.4-40,50.9-80c-0.5,7.8-0.6,15.2,0,21.5c0.4,4.5,4.1,44.9,6.7,84.4l6-0.4c-2.6-39.5-6.3-80.1-6.7-84.6
		c-1.8-19.8,3.7-53.4,6.2-66.9c5.4,6.6,13.5,18.6,18.2,39.4c5.7,24.8,9.1,68.7,9.1,69.1c0.1,1.6,1.5,2.8,3.1,2.8l31.6-1.6
		c1.6-0.1,2.9-1.4,2.9-3.1C-0.1,198.3-2.1,125.9-12.9,98.8z M-215.1,132.8c-5,21.8-8.2,56.7-9,67.1l-25.8-1.3
		c0.5-14,3.2-74.4,12.3-97.6c5.7-14.3,9.6-27,12.7-37.3c2.6-8.6,4.7-15.4,6.5-18.3c3.1-5.2,9.3-15.7,26.5-18.6
		c7.8,21.9,5.6,32.7,0.1,59.6C-196.7,91.7-208.7,105-215.1,132.8z M-128,214.7c-21.8,0-32.5-41-41.9-77.2
		c-5-19.2-9.7-37.3-15.9-50.2c5.4-26.6,7.7-38.7-0.1-61.3c14.3-2.6,25.9-9.4,30.6-12.4c3.8,3.7,12.9,10.9,27.2,10.9
		s23.4-7.2,27.2-10.9c4.7,3.1,16.3,9.9,30.6,12.4c-7.8,22.6-5.2,35.5,0.3,62.1c-2.3,8-4.7,17.7-7.2,28
		C-87.3,157.7-101.3,214.7-128,214.7z M-31.9,199.9c-0.9-10.3-4.1-45.3-9-67.1c-6.2-27.4-18-40.6-23.1-46
		c-5.4-26.6-7.8-38.2-0.1-59.9c17.2,2.9,23.4,13.4,26.5,18.6c1.7,2.9,3.8,9.7,6.5,18.3c3.2,10.2,7.1,23,12.7,37.3
		c9.2,23.1,11.8,83.5,12.3,97.6L-31.9,199.9z"/>
</g>
<path d="M78.9,256.4H34.1C15.3,256.4,0,241.1,0,222.3V33.5C0,14.7,15.3-0.6,34.1-0.6h44.8c18.8,0,34.1,15.3,34.1,34.1v188.8
	C113,241.1,97.7,256.4,78.9,256.4z M6,33.6v189.6c0,15.6,12.6,28.2,28.2,28.2h44.6c15.6,0,28.2-12.6,28.2-28.2V33.6
	C107,18,94.4,5.4,78.8,5.4H34.2C18.6,5.4,6,18,6,33.6z"/>
<path d="M221.9,256.4h-44.8c-18.8,0-34.1-15.3-34.1-34.1V33.5c0-18.8,15.3-34.1,34.1-34.1h44.8c18.8,0,34.1,15.3,34.1,34.1v188.8
	C256,241.1,240.7,256.4,221.9,256.4z M149,33.6v189.6c0,15.6,12.6,28.2,28.2,28.2h44.6c15.6,0,28.2-12.6,28.2-28.2V33.6
	c0-15.6-12.6-28.2-28.2-28.2h-44.6C161.6,5.4,149,18,149,33.6z"/>
</svg>
