<?xml version="1.0" encoding="utf-8"?>
<!-- Generator: Adobe Illustrator 23.0.1, SVG Export Plug-In . SVG Version: 6.00 Build 0)  -->
<svg version="1.1" id="Layer_1" xmlns="http://www.w3.org/2000/svg" xmlns:xlink="http://www.w3.org/1999/xlink" x="0px" y="0px"
	 viewBox="0 0 256 256" style="enable-background:new 0 0 256 256;" xml:space="preserve">
<style type="text/css">
	.st0{fill:none;stroke:#000000;stroke-width:8;stroke-linejoin:round;stroke-miterlimit:10;}
	.st1{fill:none;stroke:#000000;stroke-width:8;stroke-miterlimit:10;}
	.st2{fill:none;stroke:#000000;stroke-width:6;stroke-miterlimit:10;}
	.st3{fill:none;stroke:#000000;stroke-width:6;stroke-linejoin:round;stroke-miterlimit:10;}
	.st4{fill:none;stroke:#000000;stroke-width:6;stroke-linecap:round;stroke-miterlimit:10;}
	.st5{display:none;opacity:0.4;}
	.st6{fill:#FFFFFF;stroke:#000000;stroke-width:6;stroke-miterlimit:10;}
	.st7{fill:none;}
	.st8{fill:#1D1D1B;}
</style>
<g>
	<path class="st7" d="M11.6,71.5c0,6.3,0.7,12.4,1.9,18.3h116.4c0-6.3,0-12.7,0-19H11.6V71.5z"/>
	<path class="st7" d="M90.1,143.8c5.2,0,17.3-2.1,17.3-21.3c0-11.4,4.9-21.9,8.2-27.7H14.2c1.3,5.3,2.7,10.4,4.2,15.5
		c0.7,2.3,1.3,4.6,2,6.8c3.8,3.8,14.6,14.8,24.7,26.7H90.1z"/>
	<path class="st7" d="M127.7,94.8h-5.2c-2.4,3.7-9.3,15.3-9.3,27.7c0,16.9-8.9,27.3-23.3,27.3H50.1c5,6.2,9.5,12.3,12.4,17.5
		c4.7,8.4,7.8,20.8,9.8,31.5H182c12.4,0,18.7-17.6,20.5-24.1c-3.5-0.9-7.2-1.8-10.9-2.7c-31.5-7.7-64.1-15.7-64-35
		C127.7,129.6,127.7,113.2,127.7,94.8z"/>
	<path class="st7" d="M127,63.8c0-19.2,0-36.3,0-43H11.6v43H127z"/>
	<path class="st7" d="M23.4,128.7c1,4.9,1.6,9.8,1.6,14.7c0,11-1.9,18.7-4,26.8c-0.7,2.8-1.4,5.6-2.1,8.7c-0.8,3.8-4,5.9-7,7.9
		c-3.7,2.4-6.9,4.5-6.9,9.7c0,5.5,3.1,7.2,7.2,8.9c2,0.8,4.5,1.9,4.5,4.6v28.9h14v-4h26v4h14v-0.8c0-9.7-3.2-49.7-13.3-67.9
		C50.5,158,33.6,139.5,23.4,128.7z"/>
	<path class="st7" d="M217,179c-2.8-0.9-5.7-1.7-8.7-2.5c-2.1,7.5-9.6,28.3-26.1,28.3H73.4c0.1,0.4,0.1,0.8,0.2,1.2
		c1.8,11.8,2.7,22.6,2.9,28.8h70.1v4h14v-4h26v4h14v-4h26v4h14.6c2.1-2.9,7.5-11.6,7.6-23.8C248.9,199.3,246.7,188.3,217,179z"/>
	<path d="M218.7,173c-7.7-2.4-16.5-4.5-25.8-6.8c-27.8-6.8-59.4-14.5-59.3-29c0.1-21.9,0-118.3,0-119.3l0-3H5.6v56.1
		c0,15,3.6,28.3,7,41.2c0.7,2.7,1.4,5.3,2.1,7.9l-0.1,0.1c0,0,0.1,0.1,0.2,0.2c2,8,3.6,15.6,3.6,23.1c0,10.2-1.6,17.2-3.5,25.3
		c-0.7,2.8-1.3,5.7-2,8.9c-0.3,1.4-2.1,2.7-4.1,4.2c-3.8,2.7-9,6.3-9,14.7c0,9.9,6.8,12.9,10.1,14.4c0.2,0.1,0.5,0.2,0.8,0.4v33.6
		h26v-4h14v4h26v-4h64v4h26v-4h14v4h26v-4h14v4h23.6l0.9-1c0.4-0.5,9.8-11.5,9.9-28.8C255.1,194.6,249.5,182.5,218.7,173z
		 M191.7,172.1c3.7,0.9,7.4,1.8,10.9,2.7c-1.9,6.5-8.1,24.1-20.5,24.1H72.3c-2-10.7-5.2-23.1-9.8-31.5c-2.9-5.2-7.4-11.3-12.4-17.5
		H90c14.4,0,23.3-10.5,23.3-27.3c0-12.4,6.9-24,9.3-27.7h5.2c0,18.3,0,34.7,0,42.3C127.6,156.4,160.2,164.4,191.7,172.1z
		 M18.4,110.3c-1.5-5.1-3-10.2-4.2-15.5h101.5c-3.4,5.8-8.2,16.3-8.2,27.7c0,19.2-12.1,21.3-17.3,21.3h-45
		c-10.1-11.9-21-22.9-24.7-26.7C19.7,114.9,19.1,112.6,18.4,110.3z M129.9,89.8H13.5c-1.1-5.9-1.9-12-1.9-18.3v-0.7h118.3
		C129.9,77.1,129.9,83.6,129.9,89.8z M126.9,20.8c0,6.7,0,23.8,0,43H11.6v-43H126.9z M70.6,238.8h-14v-4h-26v4h-14V210
		c0-2.7-2.5-3.8-4.5-4.6c-4.1-1.7-7.2-3.4-7.2-8.9c0-5.1,3.2-7.2,6.9-9.7c3.1-2,6.2-4.1,7-7.9c0.7-3.1,1.4-5.9,2.1-8.7
		c2.1-8.1,4-15.8,4-26.8c0-4.9-0.6-9.8-1.6-14.7c10.3,10.8,27.1,29.3,33.9,41.4c10.1,18.2,13.3,58.2,13.3,67.9V238.8z M241.3,238.8
		h-14.7v-4h-26v4h-14v-4h-26v4h-14v-4H77.3c-0.2-6.1-1.1-16.9-2.9-28.8c-0.1-0.4-0.1-0.8-0.2-1.2h108c16.6,0,24-20.9,26.1-28.3
		c3,0.8,6,1.6,8.7,2.5c29.7,9.2,31.9,20.3,31.8,36C248.7,227.2,243.3,236,241.3,238.8z"/>
</g>
</svg>
