<?xml version="1.0" encoding="utf-8"?>
<!-- Generator: Adobe Illustrator 23.0.1, SVG Export Plug-In . SVG Version: 6.00 Build 0)  -->
<svg version="1.1" id="Layer_1" xmlns="http://www.w3.org/2000/svg" xmlns:xlink="http://www.w3.org/1999/xlink" x="0px" y="0px"
	 viewBox="0 0 256 256" style="enable-background:new 0 0 256 256;" xml:space="preserve">
<style type="text/css">
	.st0{fill:none;stroke:#000000;stroke-width:8;stroke-linejoin:round;stroke-miterlimit:10;}
	.st1{fill:none;stroke:#000000;stroke-width:8;stroke-miterlimit:10;}
	.st2{fill:none;stroke:#000000;stroke-width:6;stroke-miterlimit:10;}
	.st3{fill:none;stroke:#000000;stroke-width:6;stroke-linejoin:round;stroke-miterlimit:10;}
	.st4{fill:none;stroke:#000000;stroke-width:6;stroke-linecap:round;stroke-miterlimit:10;}
	.st5{display:none;opacity:0.4;}
	.st6{fill:#FFFFFF;stroke:#000000;stroke-width:6;stroke-miterlimit:10;}
	.st7{fill:none;}
	.st8{fill:#1D1D1B;}
</style>
<g>
	<path class="st8" d="M130.2,0.8C96.1,0.3,63.8,12.9,39.3,36.6C5.9,68.9-7.3,116.8,4.7,161.6c0.7,2.6,2.7,4.6,5.3,5.3
		c0.7,0.2,1.3,0.3,2,0.3c2,0,3.8-0.8,5.2-2.1l76-73.4c9.9-9.1,22.7-14.1,36.1-14.1l55,0c11,0,20,9,20,20s-9,20-20,20l-60.4,0
		c-3.6,0-6.7,2.5-7.4,6.2c-0.5,2.4,0.4,4.9,2.2,6.7l30,30.9c1.4,1.4,3.3,2.2,5.3,2.3c2,0,3.9-0.7,5.3-2.1c1.7-1.7,2.5-4,2.2-6.4
		c-0.2-1.7-1-3.2-2.2-4.4l-17.6-18.2l42.7,0c19.3,0,35-15.7,35-35s-15.7-35-35-35l-55,0c-17.2,0-33.7,6.4-46.4,18.1l-66.4,64.1
		c-5.2-35.9,7.1-72.1,33.2-97.3c21.6-20.9,50.1-32.1,80.2-31.6c30.1,0.5,58.1,12.7,79,34.4c8.9,9.2,16,19.7,21.3,31.1
		c2,4.3,7.4,5.8,11.4,2.8c2.9-2.1,3.7-6.1,2.1-9.4c-6-12.9-14.1-24.7-24.1-35C196.1,15.3,164.3,1.4,130.2,0.8z"/>
	<path class="st8" d="M168.7,170.7c-3.8,3.7-8.9,5.7-14.2,5.6c-5.3-0.1-10.3-2.3-14-6.1l-29.1-30.1c-2.9-3-7.6-3.1-10.6-0.2
		l-34,32.8c-1.4,1.4-3.3,2.1-5.3,2.1c-2,0-3.8-0.8-5.2-2.3c-2.8-2.9-2.8-7.6,0.2-10.5l51.5-49.7c5.1-4.9,11.8-7.7,18.9-7.8l57.1,0
		c4.1,0,7.5-3.4,7.5-7.5c0-2.4-1.1-4.6-3-6c-1.3-1-3-1.5-4.7-1.5l-57,0c-10.9,0.2-21.3,4.4-29.1,12l-51.5,49.7
		c-8.9,8.6-9.1,22.8-0.6,31.7c4.1,4.3,9.7,6.7,15.7,6.8c6,0.1,11.7-2.1,16-6.3l28.6-27.6l23.9,24.7c6.5,6.7,15.2,10.5,24.5,10.7
		c9.3,0.1,18.2-3.3,24.9-9.9l61-60.2c1.9,32.7-10.4,64.5-34.1,87.3c-44.5,43-115.8,41.8-158.8-2.8c-7.1-7.4-13.2-15.7-18.1-24.6
		c-1.8-3.3-5.8-5-9.4-3.7c-4.3,1.6-6.1,6.6-4,10.6c5.5,10.2,12.4,19.7,20.6,28.2c23.6,24.5,55.4,38.3,89.4,38.9c0.8,0,1.5,0,2.3,0
		c33.1,0,64.5-12.7,88.4-35.7c31-30,44.7-73.1,36.6-115.6c-0.5-2.7-2.5-4.9-5.1-5.8c-2.6-0.8-5.5-0.1-7.5,1.8L168.7,170.7z"/>
</g>
</svg>
