<?xml version="1.0" encoding="utf-8"?>
<!-- Generator: Adobe Illustrator 23.0.1, SVG Export Plug-In . SVG Version: 6.00 Build 0)  -->
<svg version="1.1" id="Layer_1" xmlns="http://www.w3.org/2000/svg" xmlns:xlink="http://www.w3.org/1999/xlink" x="0px" y="0px"
	 viewBox="0 0 256 256" style="enable-background:new 0 0 256 256;" xml:space="preserve">
<style type="text/css">
	.st0{fill:none;stroke:#000000;stroke-width:8;stroke-linejoin:round;stroke-miterlimit:10;}
	.st1{fill:none;stroke:#000000;stroke-width:8;stroke-miterlimit:10;}
	.st2{fill:none;stroke:#000000;stroke-width:6;stroke-miterlimit:10;}
	.st3{fill:none;stroke:#000000;stroke-width:6;stroke-linejoin:round;stroke-miterlimit:10;}
	.st4{fill:none;stroke:#000000;stroke-width:6;stroke-linecap:round;stroke-miterlimit:10;}
	.st5{display:none;opacity:0.4;}
	.st6{fill:#FFFFFF;stroke:#000000;stroke-width:6;stroke-miterlimit:10;}
	.st7{fill:none;}
	.st8{fill:#1D1D1B;}
</style>
<path d="M255.6,198.3c0-1-0.5-2-1.3-2.6c-39.9-28.9-48.3-81.3-48.3-120V26c0-5.2-7.4-8.5-24.6-11.1c-14.3-2.2-33.3-3.3-53.4-3.3
	S88.9,12.8,74.6,15C57.4,17.6,50,20.9,50,26v49.6c0,38.8-8.4,91.1-48.3,120c-0.8,0.6-1.3,1.5-1.3,2.6c0,12.9,13.7,24.8,38.6,33.4
	c23.8,8.2,55.5,12.8,89.1,12.8s65.2-4.5,89.1-12.8C241.9,223,255.6,211.2,255.6,198.3z M58.4,24.8c6.3-2.7,28.1-7.2,69.6-7.2
	s63.3,4.5,69.6,7.2l2.3,1l-2.3,1c-6.3,2.7-28.1,7.2-69.6,7.2s-63.3-4.5-69.6-7.2l-2.3-1L58.4,24.8z M215.3,226
	c-23.3,8-54.3,12.5-87.3,12.5s-64-4.4-87.3-12.5C20.2,219,8,209.9,6.4,200.6L6.3,200l0.5-0.4C29.2,182.5,56,147.1,56,75.5V32.4
	l1.4,0.5c3.9,1.5,9.5,2.7,17,3.8c14.3,2.2,33.4,3.3,53.6,3.3s39.2-1.2,53.6-3.3c7.5-1.1,13.1-2.4,17-3.8l1.4-0.5v43.1
	c0,71.7,26.8,107,49.2,124.1l0.5,0.4l-0.1,0.6C248,209.9,235.8,219,215.3,226z"/>
</svg>
