<?xml version="1.0" encoding="utf-8"?>
<!-- Generator: Adobe Illustrator 23.0.1, SVG Export Plug-In . SVG Version: 6.00 Build 0)  -->
<svg version="1.1" id="Layer_1" xmlns="http://www.w3.org/2000/svg" xmlns:xlink="http://www.w3.org/1999/xlink" x="0px" y="0px"
	 viewBox="0 0 256 256" style="enable-background:new 0 0 256 256;" xml:space="preserve">
<style type="text/css">
	.st0{fill:none;stroke:#000000;stroke-width:8;stroke-linejoin:round;stroke-miterlimit:10;}
	.st1{fill:none;stroke:#000000;stroke-width:8;stroke-miterlimit:10;}
	.st2{fill:none;stroke:#000000;stroke-width:6;stroke-miterlimit:10;}
	.st3{fill:none;stroke:#000000;stroke-width:6;stroke-linejoin:round;stroke-miterlimit:10;}
	.st4{fill:none;stroke:#000000;stroke-width:6;stroke-linecap:round;stroke-miterlimit:10;}
	.st5{display:none;opacity:0.4;}
	.st6{fill:#FFFFFF;stroke:#000000;stroke-width:6;stroke-miterlimit:10;}
	.st7{fill:none;}
	.st8{fill:#1D1D1B;}
</style>
<g>
	<path d="M238.2,70.8c-11.1-17.3-26.8-31.1-45.3-39.9l-0.9-0.4l1.4-2.9l-25.5-12.1l-5.5,11.7l25.5,12.1l1.4-2.9l0.9,0.4
		c35.8,17.1,59,53.8,59,93.5c0,57.1-46.5,103.6-103.6,103.6C88.5,233.9,42,187.5,42,130.4l0-1.4l1.2,0.2c3,0.5,6,0.8,8.9,0.8
		c30.3,0,54.6-25.8,52.3-56.5c-2-25.6-22.6-46.2-48.2-48.1C23.5,22.7-3.6,50.5,0,83.4c2.2,20.2,16.2,37.1,35.4,43.8l0.1,0l0,1.1
		c0,0.7,0,1.4,0,2.1c0,60.7,49.4,110.1,110.1,110.1c60.7,0,110.1-49.4,110.1-110.1C255.7,109.2,249.6,88.6,238.2,70.8z M6.9,77.5
		c0-25.3,20.6-45.9,45.9-45.9c25.3,0,45.9,20.6,45.9,45.9c0,25.3-20.6,45.9-45.9,45.9C27.4,123.4,6.9,102.8,6.9,77.5z"/>
	<path d="M52.7,108.5c17.1,0,31-13.9,31-31s-13.9-31-31-31s-31,13.9-31,31S35.6,108.5,52.7,108.5z M52.7,53
		c13.5,0,24.5,11,24.5,24.5S66.2,102,52.7,102S28.2,91,28.2,77.5S39.2,53,52.7,53z"/>
</g>
</svg>
