<?xml version="1.0" encoding="utf-8"?>
<!-- Generator: Adobe Illustrator 23.0.1, SVG Export Plug-In . SVG Version: 6.00 Build 0)  -->
<svg version="1.1" id="Layer_1" xmlns="http://www.w3.org/2000/svg" xmlns:xlink="http://www.w3.org/1999/xlink" x="0px" y="0px"
	 viewBox="0 0 256 256" style="enable-background:new 0 0 256 256;" xml:space="preserve">
<style type="text/css">
	.st0{fill:none;stroke:#000000;stroke-width:8;stroke-linejoin:round;stroke-miterlimit:10;}
	.st1{fill:none;stroke:#000000;stroke-width:8;stroke-miterlimit:10;}
	.st2{fill:none;stroke:#000000;stroke-width:6;stroke-miterlimit:10;}
	.st3{fill:none;stroke:#000000;stroke-width:6;stroke-linejoin:round;stroke-miterlimit:10;}
	.st4{fill:none;stroke:#000000;stroke-width:6;stroke-linecap:round;stroke-miterlimit:10;}
	.st5{display:none;opacity:0.4;}
	.st6{fill:#FFFFFF;stroke:#000000;stroke-width:6;stroke-miterlimit:10;}
	.st7{fill:none;}
	.st8{fill:#1D1D1B;}
</style>
<path d="M251.3,170.3L208,145.4c-18-10.4-21.6-20.8-25.7-32.8c-4.9-14.1-10.5-30.2-40.1-47.3L78,28.6c-14.3-8.3-40.1,11.4-59.9,45.7
	C9,90,2.9,106.1,0.8,119.8c-2.3,14.7,0.4,25.1,7.6,29.3l63.9,37.3c29.6,17.1,46.3,13.9,61,11.1c5.3-1,10.2-2,15.5-2
	c7.3,0,15.4,1.8,25.8,7.8l43.2,24.9c1.2,0.7,2.7,1.1,4.2,1.1c3.3,0,7-1.6,11.1-4.9c5.1-4.1,10.2-10.3,14.4-17.6
	c4.2-7.3,7.1-14.9,8.1-21.3C257.2,175.4,253.6,171.7,251.3,170.3z M132.1,190.8c-14.2,2.7-28.9,5.6-56.4-10.3l-63.9-37.3
	c-4.6-2.7-6.2-10.9-4.4-22.5c2-12.9,7.8-28.2,16.5-43.2c8.6-15,19-27.7,29.1-35.9c9.2-7.4,17.1-10.1,21.7-7.4L138.9,71
	c27.5,15.9,32.4,30,37.1,43.7c4.2,12.2,8.6,24.8,28.7,36.4l35.1,20.3l-1.4,0.9c-0.9,0.6-1.7,1.2-2.5,1.8
	c-5.1,4.1-10.2,10.3-14.4,17.6c-4.9,8.5-8,17.4-8.4,24.4l-0.1,1.6L178,197.5c-10.3-5.9-19.6-8.7-29.2-8.7
	C142.8,188.8,137.4,189.8,132.1,190.8 M247.9,176.1c0.8,0.5,2,2.8,1.1,8.4c-0.9,5.5-3.5,12.5-7.3,19c-3.8,6.5-8.4,12.3-12.8,15.8
	c-3.3,2.7-5.6,3.4-6.9,3.4c-0.4,0-0.7-0.1-0.9-0.2c-1.7-1-1.6-5.2-1-8.9c0.7-3.9,2.5-10.3,7.2-18.4c3.8-6.5,8.4-12.3,12.8-15.8
	C244.5,175.8,247.1,175.6,247.9,176.1"/>
</svg>
