<?xml version="1.0" encoding="utf-8"?>
<!-- Generator: Adobe Illustrator 23.0.1, SVG Export Plug-In . SVG Version: 6.00 Build 0)  -->
<svg version="1.1" id="Layer_1" xmlns="http://www.w3.org/2000/svg" xmlns:xlink="http://www.w3.org/1999/xlink" x="0px" y="0px"
	 viewBox="0 0 256 256" style="enable-background:new 0 0 256 256;" xml:space="preserve">
<style type="text/css">
	.st0{fill:none;stroke:#000000;stroke-width:8;stroke-linejoin:round;stroke-miterlimit:10;}
	.st1{fill:none;stroke:#000000;stroke-width:8;stroke-miterlimit:10;}
	.st2{fill:none;stroke:#000000;stroke-width:6;stroke-miterlimit:10;}
	.st3{fill:none;stroke:#000000;stroke-width:6;stroke-linejoin:round;stroke-miterlimit:10;}
	.st4{fill:none;stroke:#000000;stroke-width:6;stroke-linecap:round;stroke-miterlimit:10;}
	.st5{display:none;opacity:0.4;}
	.st6{fill:#FFFFFF;stroke:#000000;stroke-width:6;stroke-miterlimit:10;}
	.st7{fill:none;}
	.st8{fill:#1D1D1B;}
</style>
<path d="M219.9,65.8c-0.4-1-1.2-2.3-2.3-4c-1.4-2.5-3.5-5.1-3.9-5.6c-0.4-0.5-0.9-1.1-1.5-1.8c-2.4-2.9-6.1-7.4-8.5-11.3
	c-2.9-4.6-9.8-11.8-20.4-21.5c-9.5-8.6-26.9-13.5-31.6-14.4c-0.9-0.3-2.8-1.1-4.4-1.9c-0.8-0.4-1.3-0.7-1.8-0.9
	c-1.8-1-3.6-2.7-4.2-3.3c-0.4-0.4-1-0.9-1.8-1c-0.7-0.1-1.4-0.2-2-0.2c-1.4,0-2.6,0.2-4,0.4c-0.2,0-0.5,0.1-0.7,0.1h-9.2
	c-0.2,0-0.5-0.1-0.7-0.1c-1.3-0.2-2.6-0.5-3.9-0.4c-0.7,0-1.4,0-2.1,0.2c-0.9,0.1-1.5,0.6-1.8,1c-0.7,0.6-2.5,2.2-4.2,3.3
	c-0.4,0.2-1,0.5-1.8,0.9c-1.6,0.8-3.5,1.6-4.4,1.9c-4.7,1-22.2,5.8-31.6,14.4C62,31.2,55.2,38.5,52.3,43c-2.5,3.9-6.1,8.4-8.5,11.3
	c-0.6,0.7-1.1,1.3-1.5,1.8c-0.6,0.7-2.5,3.2-3.9,5.6c-1.2,1.7-1.9,3-2.3,4c-1.7,4.2,1.2,6.9,2.5,8.1l0.3,0.3
	c0.1,0.1,0.3,0.3,0.4,0.5c4.5,4.8,8.8,5.7,12.6,2.6c3.6-2.9,6.9-6.5,7.9-7.6c1.2-0.8,5-3.5,8.2-7.5c1.7-2.2,2.2-2.5,2.9-2.9
	c0.9-0.5,1.8-1.1,3.3-2.6c1.5-1.4,3-2.3,4.6-3.3c1.7-1,3.2-1.9,4.5-3.3c0.6-0.5,2.8-1.6,4.5-2.5c1.7-0.9,3.3-1.7,4.6-2.5
	c1.8,9.2,4.8,28.6,3,40.1c-1.2,7.7-2.5,13.1-3.4,16.9c-0.5,1.9-0.8,3.6-1.1,5c-0.1,0.5-0.2,1-0.2,1.5c-0.2,2,0,3.5,0.7,5.1
	c0.1,0.3,0.3,0.5,0.5,0.8c-0.2,1.2-0.4,2.3-0.6,3.5l-1.3,9.3c-2,15.2-2.3,26-2.3,31.8c0,2.5,0.1,4.1,0.1,4.7
	c-0.2,3.7-0.3,12.9-0.3,20.3c0,4,0,7.5-0.1,9.2c-0.1,2.8-0.9,9.8-1.5,15.5c-0.1,0.5-0.1,1-0.2,1.5c-0.5,4.2-0.8,6.9-0.8,8
	c0,0.1,0,0.2,0,0.3c0,0.6,0,1.2-0.1,1.7c0,0.8-0.1,1.5-0.1,2.2c-1.7,0.7-2.8,2.3-3.9,3.8l-0.5,0.7c-1.7,2.4-2.4,7.5-2.4,10.3
	c0,0.6,0,1.1,0.1,1.4c0.4,2.8,2.8,5,4.1,6c0.3,0.2,0.6,0.5,0.8,0.6l0,0c0.9,0.8,2.1,2.2,2.4,3c0.7,1.7,2.5,3.8,4.3,5.2
	c1.4,1.1,2.8,1.9,4.1,2.2c4,0.9,9.6-2.4,10.9-4.4c1.1-1.8,1.2-3.2,1.2-5.6l0-0.9c0-0.1,0-0.3,0-0.4c0-3-0.9-8.8-1.6-13l0-0.1
	c-0.1-0.8-0.2-1.6-0.2-2.3c0-0.3,0-0.5,0-0.7c0.3-0.5,0.8-1.4,1.4-2.5c1.9-3.5,4.7-8.9,5.7-12.7c0,0,0,0,0,0c0,0,0,0,0,0
	c0,0,0-0.1,0-0.1c1-3.9,1.9-11.9,2.7-19.6c0.4-3.8,0.8-7.5,1.2-10.2c0.9-6.5,5.6-19,7.9-25.1c0.3-0.9,0.6-1.6,0.8-2.2l0.2-0.5
	c0.7-2,1.4-5.8,2.2-10.3c0.4-2.1,0.9-5.1,1.4-7.5c0.5,2.5,1,5.4,1.4,7.5c0.8,4.4,1.5,8.3,2.2,10.3l0.2,0.5c0.2,0.6,0.5,1.3,0.8,2.2
	c2.3,6,7,18.6,7.9,25.1c0.4,2.7,0.8,6.3,1.2,10.2c0.1,0.5,0.1,1,0.2,1.5c0.1,0.5,0.1,1,0.2,1.5c0.8,6.7,1.5,13.2,2.4,16.6
	c0,0.1,0,0.2,0.1,0.2c0.9,3.4,3.2,7.9,5,11.4c0.9,1.6,1.7,3,2.1,3.7c0,0.2,0,0.4,0,0.7c0,0.6,0,1.5-0.2,2.4
	c-0.7,4.2-1.6,10.1-1.6,13.1c0,0.2,0,0.3,0,0.5l0,0.9c0.1,2.4,0.1,3.9,1.2,5.6c1.1,1.8,5.6,4.6,9.4,4.6c0.5,0,1-0.1,1.5-0.2
	c1.3-0.3,2.7-1,4-2.1c1.9-1.4,3.6-3.5,4.4-5.2c0.3-0.8,1.5-2.2,2.4-3c0.2-0.2,0.5-0.4,0.8-0.6c1.4-1.1,3.7-3.3,4.2-6
	c0.1-0.4,0.1-0.8,0.1-1.4c0-2.9-0.7-7.9-2.4-10.3l-0.5-0.7c-1-1.5-2.2-3.1-3.9-3.8c0-0.7,0-1.5-0.1-2.2c0-0.6-0.1-1.3-0.1-1.9
	c0,0,0,0,0-0.1c0-1.2-0.4-4.4-0.9-9.5c-0.6-5.7-1.4-12.7-1.5-15.5c0-1.8-0.1-5.2-0.1-9.2c0-7.4-0.1-16.7-0.3-20.3
	c0-0.5,0.1-2.1,0.1-4.6c0-5.8-0.4-16.6-2.3-31.9l-1.3-9.2c-0.2-1.1-0.4-2.3-0.6-3.5c0.2-0.2,0.4-0.5,0.5-0.8c0,0,0,0,0,0
	c0.8-1.6,1-3.2,0.7-5.4c0-0.4-0.1-0.8-0.2-1.2v0c-0.2-1.4-0.6-3-1.1-5c-0.9-3.9-2.1-9.2-3.4-16.9c-1.8-11.5,1.2-30.9,3-40.1
	c1.4,0.8,2.9,1.6,4.6,2.5c1.7,0.9,3.9,2,4.5,2.5c1.2,1.4,2.8,2.3,4.5,3.3c1.5,0.9,3.1,1.9,4.6,3.3c1.5,1.4,2.4,2,3.3,2.6
	c0.7,0.4,1.2,0.7,2.9,2.9c3.2,4,7,6.7,8.2,7.5c1,1.1,4.3,4.7,7.9,7.6c3.8,3.1,8.1,2.2,12.6-2.6c0.2-0.2,0.3-0.3,0.4-0.5l0.3-0.3
	C218.7,72.7,221.7,70,219.9,65.8z M83.3,50.2C83.3,50.2,83.3,50.2,83.3,50.2C83.3,50.2,83.3,50.2,83.3,50.2z M91.3,40.5
	C91.3,40.5,91.3,40.5,91.3,40.5C91.3,40.5,91.3,40.5,91.3,40.5z M86.7,228.4C86.7,228.4,86.7,228.4,86.7,228.4
	C86.7,228.4,86.7,228.4,86.7,228.4z M169.3,228.4C169.3,228.4,169.3,228.4,169.3,228.4C169.3,228.4,169.3,228.4,169.3,228.4z
	 M164.7,40.5C164.7,40.5,164.7,40.5,164.7,40.5C164.7,40.5,164.7,40.5,164.7,40.5z M172.7,50.2C172.7,50.2,172.7,50.2,172.7,50.2
	C172.7,50.2,172.7,50.2,172.7,50.2z M213.3,69.6L213,70c-0.2,0.2-0.4,0.4-0.7,0.7c-2.7,2.9-3.5,2.7-4.4,2c-3.8-3.1-7.4-7.2-7.4-7.2
	c-0.2-0.2-0.4-0.4-0.7-0.6c0,0-3.9-2.5-7.1-6.4c-2.2-2.8-3.2-3.5-4.5-4.3c-0.6-0.3-1.1-0.7-2.2-1.7c-1.9-1.9-4-3.1-5.7-4.1
	c-1.3-0.8-2.5-1.5-3.1-2.2c-0.9-1.1-2.8-2.1-6.2-3.8c-1.9-1-5.1-2.6-6.3-3.6c-0.3-1-1-1.8-2-2.1c-1.6-0.5-3.3,0.4-3.8,2v0
	c0,0,0,0.1,0,0.1c-0.8,2.9-6.8,30.9-4.2,47.5c1.3,8,2.5,13.4,3.4,17.4c0.4,1.9,0.8,3.4,1,4.6v0c0.2,1.1,0.3,1.9,0.2,2.4
	c-1,0.5-1.6,1.6-1.6,2.6c0,0.2,0,0.3,0,0.5c0.3,1.8,0.6,3.5,0.8,5.2l1.3,9.2c1.9,15,2.3,25.6,2.3,31.2c0,2.8-0.1,4.3-0.1,4.3
	c0,0.1,0,0.1,0,0.2c0,0.1,0,0.1,0,0.2c0.2,3.4,0.3,12.7,0.3,20.2c0,4,0,7.5,0.1,9.3c0.1,3.1,0.8,10,1.5,16c0.4,3.9,0.9,7.9,0,8.9
	l0,0v0c0.9,0,0.9,0.1,0.9,0.1c0,0.7,0,1.3,0.1,2c0,0.7,0.1,1.4,0.1,2c0,0.4,0,0.8,0,1.3c0,0.1,0,0.1,0,0.2v0v0v0v0c0,0,0,0,0,0
	c0,0,0,0,0,0s0,0,0,0v0v0c0,0.1,0,0.1,0,0.2c0.2,2.2,1.7,3.7,3.8,3.9c0.3,0.3,0.8,1.1,1.2,1.6l0.5,0.7c0.7,0.9,1.3,4.8,1.3,6.7
	c0,0.2,0,0.5,0,0.6c-0.1,0.3-0.8,1.3-1.9,2.2c-0.2,0.1-0.3,0.2-0.5,0.3c-0.1,0.1-0.2,0.1-0.3,0.2c0,0-0.1,0.1-0.1,0.1
	c-1.4,1.2-3.3,3.3-4.1,5.2c-0.2,0.5-1.2,1.8-2.6,2.9c-0.9,0.7-1.5,0.9-1.6,1c-0.9,0.2-3.6-1.1-4.4-1.9c-0.2-0.3-0.2-0.7-0.2-2.5
	l0-0.9c0-0.1,0-0.2,0-0.3c0-1.3,0.3-4.5,1.5-12.1c0.2-1.2,0.2-2.3,0.2-3.2c0-1.1-0.1-1.9-0.1-2c0-0.3-0.1-0.7-0.3-1v0c0,0,0,0,0,0
	c0,0,0,0,0,0c0,0,0,0,0,0c0,0,0,0,0,0c0,0,0,0,0,0s0,0,0,0c0,0,0,0,0,0c0,0,0,0,0,0c0,0,0,0,0,0c0,0,0,0,0,0c0,0,0,0,0,0
	c0,0,0,0,0,0c0,0,0,0,0,0c0,0,0,0,0,0c0,0,0,0,0,0c0,0-0.1-0.1-0.1-0.1l-0.4-0.7c-0.4-0.7-1.2-2-2-3.6c-1.7-3.3-3.7-7.3-4.4-10
	c0,0,0,0,0,0c-0.9-3.4-1.8-11.6-2.6-18.7c-0.4-3.9-0.8-7.6-1.2-10.3c-1-7.2-5.7-19.7-8.3-26.4c-0.3-0.8-0.6-1.6-0.8-2.2l-0.2-0.4
	c-0.5-1.5-1.3-5.4-1.9-9.3c-2.2-12.5-6.8-16.7-6.8-16.7h0.5c-3.9,0-4.8,4-7.1,16.5c-0.7,3.8-1.5,7.8-2,9.3l-0.2,0.5
	c-0.2,0.6-0.5,1.3-0.8,2.2c-2.6,6.7-7.6,19.2-8.6,26.4c-0.4,2.8-0.8,6.4-1.3,10.3c-0.1,0.8-0.2,1.7-0.3,2.5
	c-0.7,6.4-1.6,13-2.4,16.1c0,0.1,0,0.1,0,0.2c-0.3,1.2-0.9,2.7-1.6,4.3c-1,2.2-2.3,4.6-3.4,6.6c-0.6,1-1.1,1.9-1.7,2.8
	c-0.2,0.3-0.3,0.5-0.4,0.6c0,0,0,0,0,0.1c0,0,0,0,0,0c0,0,0,0,0,0c0,0,0,0,0,0c0,0,0,0,0,0c0,0,0,0,0,0c0,0,0,0,0,0c0,0,0,0,0,0
	c0,0,0,0,0,0c0,0,0,0,0,0c0,0,0,0,0,0c0,0,0,0,0,0c0,0,0,0,0,0c0,0,0,0,0,0c0,0,0,0,0,0c0,0,0,0,0,0c0,0,0,0,0,0c0,0,0,0,0,0
	c0,0,0,0,0,0c0,0,0,0,0,0c0,0,0,0,0,0c0,0,0,0,0,0c0,0,0,0,0,0c0,0,0,0,0,0c0,0,0,0,0,0c0,0,0,0,0,0c0,0,0,0,0,0c0,0,0,0,0,0
	c0,0,0,0,0,0c0,0,0,0,0,0c-0.2,0.3-0.3,0.7-0.4,1.1c0,0.1-0.1,0.9-0.1,2c0,0.9,0.1,2,0.3,3.2l0,0.1c1.3,7.5,1.6,10.7,1.6,12
	c0,0.1,0,0.2,0,0.3l0,0.9c-0.1,1.8-0.1,2.2-0.3,2.5c-0.9,0.8-3.7,2.1-4.6,1.9c-0.2,0-0.8-0.2-1.8-1c-1.4-1-2.4-2.4-2.6-2.8
	c-0.9-1.9-2.8-4.1-4.3-5.3c0,0-0.1-0.1-0.1-0.1l-0.3-0.2c-0.1-0.1-0.3-0.2-0.5-0.4c-1.1-0.9-1.9-1.8-2-2.1c0-0.2,0-0.4,0-0.6
	c0-1.8,0.6-5.7,1.3-6.6l0.6-0.7c0.4-0.6,0.9-1.3,1.3-1.6c2.2-0.2,3.8-1.8,3.9-3.9c0-0.1,0-0.1,0-0.2c0,0,0,0.2,0,0.2v0v0v0v0l0,0v0
	c0-0.1,0-0.2,0-0.2c0-0.4,0-0.8,0-1.3c0-0.7,0-1.3,0.1-2c0-0.7,0.1-1.3,1-2v-0.1c-0.9-1-0.4-5,0-8.9c0.7-6.1,1.5-13,1.5-16
	c0-1.8,0.1-5.3,0.1-9.3c0-7.5,0.1-16.8,0.3-20.2c0-0.1,0-0.1,0-0.2c0-0.1,0-0.1,0-0.2c0,0-0.1-1.5-0.1-4.3c0-5.5,0.3-16.2,2.3-31.1
	l1.3-9.2c0.3-1.7,0.6-3.4,0.9-5.2c0-0.2,0-0.3,0-0.5c0-1.1-0.6-2.1-1.6-2.6c0-0.1,0-0.3,0-0.4c0-0.5,0.1-1.1,0.2-2
	c0.2-1.2,0.6-2.8,1-4.6c0.9-4,2.2-9.4,3.4-17.4c2.6-16.6-3.4-44.7-4.2-47.5c0,0,0-0.1,0-0.1c0,0,0,0,0,0c-0.5-1.6-2.2-2.5-3.8-2
	c-1,0.3-1.8,1.1-2,2.1c-1.1,0.9-4.4,2.6-6.3,3.6c-3.4,1.8-5.3,2.8-6.2,3.8c-0.6,0.7-1.7,1.4-3.1,2.2c-1.7,1-3.7,2.2-5.7,4.1
	c-1.1,1.1-1.7,1.4-2.2,1.7c-1.3,0.8-2.2,1.5-4.5,4.3c-3.2,3.9-7.1,6.4-7.1,6.4c-0.3,0.2-0.5,0.4-0.7,0.6c0,0-3.5,4.1-7.4,7.2
	c-0.8,0.6-1.6,0.9-4.4-2c-0.3-0.3-0.5-0.5-0.7-0.7l-0.4-0.4c-0.3-0.3-1-0.9-1-1.1c0,0,0-0.1,0.1-0.2c0.1-0.3,0.5-1.1,1.8-3
	c0.1-0.1,0.1-0.2,0.2-0.3c1.2-2.1,3.1-4.6,3.4-4.9c0.4-0.5,0.9-1.1,1.4-1.8c2.5-3.1,6.3-7.7,9-11.9c2.5-4,9.4-11.2,19.4-20.2
	c7.9-7.2,24-12.1,29-13c0.2,0,0.3-0.1,0.5-0.1c1-0.4,3.2-1.3,5.1-2.2c0.9-0.4,1.6-0.8,2.2-1.1c2-1.2,3.8-2.7,4.8-3.6
	c0.1,0,0.2,0,0.3,0c0.8,0,1.7,0.1,2.8,0.3c0.3,0.1,0.7,0.1,1,0.2c0,0,0,0,0,0c0.3,0.1,0.6,0.1,1,0.2c1.2,0.2,4.4-0.4,4.4-0.4h0h0h0
	c1.8,0.7,3.3,0.5,4.6,0.3c0.3,0,0.5-0.1,0.8-0.1c0,0,0,0,0,0c0.4-0.1,0.7-0.1,1-0.2c1.1-0.2,2-0.4,2.9-0.3c0.1,0,0.2,0,0.2,0
	c1,0.9,2.9,2.5,4.8,3.6c0.6,0.3,1.3,0.7,2.2,1.1c1.9,0.9,4.1,1.8,5.1,2.2c0.2,0.1,0.3,0.1,0.5,0.1c5,1,21.1,5.8,29,13
	c10,9.1,16.9,16.2,19.4,20.2c2.7,4.2,6.5,8.9,9,11.9c0.5,0.7,1,1.3,1.4,1.8c0.2,0.3,2.2,2.8,3.4,4.9c0,0.1,0.1,0.2,0.2,0.3
	c1.3,1.9,1.7,2.7,1.8,3c0.1,0.1,0.1,0.2,0.1,0.2C214.3,68.7,213.7,69.3,213.3,69.6z"/>
</svg>
