<?xml version="1.0" encoding="utf-8"?>
<!-- Generator: Adobe Illustrator 23.0.1, SVG Export Plug-In . SVG Version: 6.00 Build 0)  -->
<svg version="1.1" id="Layer_1" xmlns="http://www.w3.org/2000/svg" xmlns:xlink="http://www.w3.org/1999/xlink" x="0px" y="0px"
	 viewBox="0 0 256 256" style="enable-background:new 0 0 256 256;" xml:space="preserve">
<style type="text/css">
	.st0{fill:none;stroke:#000000;stroke-width:8;stroke-linejoin:round;stroke-miterlimit:10;}
	.st1{fill:none;stroke:#000000;stroke-width:8;stroke-miterlimit:10;}
	.st2{fill:none;stroke:#000000;stroke-width:6;stroke-miterlimit:10;}
	.st3{fill:none;stroke:#000000;stroke-width:6;stroke-linejoin:round;stroke-miterlimit:10;}
	.st4{fill:none;stroke:#000000;stroke-width:6;stroke-linecap:round;stroke-miterlimit:10;}
	.st5{display:none;opacity:0.4;}
	.st6{fill:#FFFFFF;stroke:#000000;stroke-width:6;stroke-miterlimit:10;}
	.st7{fill:none;}
	.st8{fill:#1D1D1B;}
</style>
<g>
	<path d="M174.1,111.4c0-35.1-24.5-63.6-54.6-63.6c-30.1,0-54.6,28.5-54.6,63.6s24.5,63.6,54.6,63.6
		C149.6,175.1,174.1,146.5,174.1,111.4z M70.8,111.4c0-31.8,21.8-57.6,48.6-57.6c26.8,0,48.6,25.9,48.6,57.6s-21.8,57.6-48.6,57.6
		C92.7,169.1,70.8,143.2,70.8,111.4z"/>
	<path d="M179.9,224.5c-9.3-11.2-14.4-21-14.8-28.4c5.3-7.5,9.7-15.8,13.4-23.7c13.9-29.7,17.7-53.3,15.5-97.1
		C191.9,30.3,161.6,0,118.7,0S45.4,30.3,43.2,75.3c-2.2,43.8,1.6,67.4,15.5,97.1c3.7,7.9,8.1,16.2,13.4,23.7
		c-0.4,7.4-5.5,17.2-14.8,28.4c-0.3,0.3-0.5,0.6-0.6,1c-0.5,1.4-0.8,2.9-0.8,4.4c0,14.9,27,26.1,62.7,26.1
		c35.8,0,62.7-11.2,62.7-26.1c0-1.5-0.3-3-0.8-4.4C180.4,225.1,180.2,224.8,179.9,224.5z M49.2,75.6C51.3,34,79.2,6,118.7,6
		s67.4,28,69.4,69.6c2.1,43.2-1.4,65.2-15,94.2c-10.4,22.1-25.9,47.5-54.5,47.5c-15,0-34.7-5.4-54.5-47.5
		C50.6,140.8,47.1,118.8,49.2,75.6z M118.7,250c-33.4,0-56.7-10.6-56.7-20.1c0-0.6,0.1-1.2,0.3-1.8c7.9-9.5,12.9-18.1,14.9-25.6
		c10.1,12,23.4,20.8,41.5,20.8s31.4-8.8,41.5-20.8c2,7.5,7,16,14.9,25.6c0.2,0.6,0.3,1.2,0.3,1.8C175.4,239.4,152.1,250,118.7,250z"
		/>
</g>
</svg>
