<?xml version="1.0" encoding="utf-8"?>
<!-- Generator: Adobe Illustrator 23.0.1, SVG Export Plug-In . SVG Version: 6.00 Build 0)  -->
<svg version="1.1" id="Layer_1" xmlns="http://www.w3.org/2000/svg" xmlns:xlink="http://www.w3.org/1999/xlink" x="0px" y="0px"
	 viewBox="0 0 256 256" style="enable-background:new 0 0 256 256;" xml:space="preserve">
<style type="text/css">
	.st0{fill:none;stroke:#000000;stroke-width:8;stroke-linejoin:round;stroke-miterlimit:10;}
	.st1{fill:none;stroke:#000000;stroke-width:8;stroke-miterlimit:10;}
	.st2{fill:none;stroke:#000000;stroke-width:6;stroke-miterlimit:10;}
	.st3{fill:none;stroke:#000000;stroke-width:6;stroke-linejoin:round;stroke-miterlimit:10;}
	.st4{fill:none;stroke:#000000;stroke-width:6;stroke-linecap:round;stroke-miterlimit:10;}
	.st5{display:none;opacity:0.4;}
	.st6{fill:#FFFFFF;stroke:#000000;stroke-width:6;stroke-miterlimit:10;}
	.st7{fill:none;}
	.st8{fill:#1D1D1B;}
</style>
<g>
	<path class="st7" d="M184.4,44.7c-4.2,3.7-9.9,6.9-16.6,9.5C180.1,66.3,185,80,185,101.5v42c8.7-2.3,16.9-5.2,24.2-8.5
		c3.9-1.8,7.5-3.7,10.8-5.7V79.6C220,61.6,207.5,53.3,184.4,44.7z"/>
	<path class="st7" d="M125,93V61.6c-11.4-0.1-22-1.6-31.2-4.1C81.6,68.7,77,80.9,77,101.4v42.8c14.8,3.4,31.1,5.3,48,5.5V93z"/>
	<path class="st7" d="M179,101.4c0-20.8-4.8-33.1-17.4-44.5c-8.9,2.6-19.4,4.3-30.6,4.6V93v56.7c16.9-0.2,33.2-2.1,48-5.5V101.4z"/>
	<path class="st7" d="M192.9,26.2c15.2,0.5,28.9,5.4,38.9,13.8c4,3.4,7.4,7.3,9.9,11.6c0,0,0-0.1,0-0.1c0-0.2,0-0.4-0.1-0.5
		c0-0.2-0.1-0.4-0.1-0.7c0-0.2-0.1-0.4-0.1-0.5c0-0.2-0.1-0.4-0.1-0.6c0-0.2-0.1-0.4-0.1-0.5c-0.1-0.2-0.1-0.4-0.2-0.6
		c0-0.2-0.1-0.4-0.1-0.5c-0.1-0.2-0.1-0.4-0.2-0.6c-0.1-0.2-0.1-0.4-0.2-0.5c-0.1-0.2-0.2-0.4-0.2-0.6c-0.1-0.2-0.1-0.3-0.2-0.5
		c-0.1-0.2-0.2-0.4-0.3-0.6c-0.1-0.2-0.1-0.3-0.2-0.5c-0.1-0.2-0.2-0.4-0.3-0.6c-0.1-0.2-0.2-0.3-0.3-0.5c-0.1-0.2-0.2-0.4-0.3-0.7
		c-0.1-0.2-0.2-0.3-0.3-0.5c-0.1-0.2-0.3-0.4-0.4-0.7c-0.1-0.2-0.2-0.3-0.3-0.5c-0.1-0.2-0.3-0.5-0.4-0.7c-0.1-0.1-0.2-0.3-0.3-0.4
		c-0.2-0.2-0.3-0.5-0.5-0.7c-0.1-0.1-0.2-0.3-0.3-0.4c-0.2-0.3-0.4-0.6-0.6-0.8c-0.1-0.1-0.1-0.2-0.2-0.3c-0.3-0.4-0.6-0.7-0.9-1.1
		c0,0,0,0,0,0c-0.3-0.4-0.6-0.7-1-1.1c-0.1-0.1-0.2-0.2-0.3-0.3c-0.2-0.3-0.5-0.5-0.7-0.8c-0.1-0.1-0.3-0.3-0.4-0.4
		c-0.2-0.2-0.5-0.5-0.7-0.7c-0.1-0.1-0.3-0.3-0.5-0.4c-0.2-0.2-0.5-0.4-0.7-0.6c-0.2-0.1-0.3-0.3-0.5-0.4c-0.2-0.2-0.5-0.4-0.7-0.6
		c-0.2-0.2-0.4-0.3-0.5-0.4c-0.2-0.2-0.5-0.4-0.7-0.6c-0.2-0.2-0.4-0.3-0.6-0.5c-0.2-0.2-0.5-0.4-0.7-0.6c-0.2-0.2-0.4-0.3-0.6-0.5
		c-0.3-0.2-0.5-0.4-0.8-0.6c-0.2-0.1-0.4-0.3-0.6-0.4c-0.3-0.2-0.5-0.4-0.8-0.6c-0.2-0.1-0.4-0.3-0.7-0.4c-0.3-0.2-0.6-0.4-0.8-0.6
		c-0.2-0.1-0.5-0.3-0.7-0.4c-0.3-0.2-0.6-0.4-0.9-0.5c-0.2-0.1-0.5-0.3-0.7-0.4c-0.3-0.2-0.6-0.4-0.9-0.5c-0.2-0.1-0.5-0.3-0.7-0.4
		c-0.3-0.2-0.6-0.4-0.9-0.5c-0.2-0.1-0.5-0.3-0.7-0.4c-0.3-0.2-0.7-0.4-1-0.5c-0.2-0.1-0.5-0.3-0.7-0.4c-0.4-0.2-0.7-0.4-1.1-0.6
		c-0.2-0.1-0.5-0.2-0.7-0.4c-0.4-0.2-0.8-0.4-1.2-0.6c-0.2-0.1-0.4-0.2-0.6-0.3c-0.6-0.3-1.2-0.6-1.9-0.9
		c-9.5-4.4-20.3-7.9-32.1-10.4C186,13,191.6,19.2,192.9,26.2z"/>
	<path class="st7" d="M127.4,3c-1.5,0-2.9,0-4.4,0C89.1,4,66.5,17,66.5,29.2c0,12.6,24.2,26.2,60.3,26.2s60.3-13.5,60.3-26.2
		C187.2,16.6,163.2,3.1,127.4,3z"/>
	<path class="st7" d="M36,79.6v49.6c3.3,2,6.9,3.9,10.8,5.7c7.3,3.4,15.5,6.2,24.2,8.5v-42c0-21.1,4.7-34.7,16.6-46.7
		C80.4,52.2,74.5,49,70,45.3C47.9,53.7,36,62,36,79.6z"/>
	<path class="st7" d="M212,140c-22.5,10.4-52.3,16.1-84,16.1s-61.5-5.7-84-16.1c-13.9-6.4-24.1-14.2-30-22.8v85
		c0,13.1,11.5,25.7,32.5,35.4c21.7,10,50.6,15.5,81.5,15.5s59.8-5.5,81.5-15.5c21-9.7,32.5-22.2,32.5-35.4v-85
		C236.1,125.8,225.9,133.6,212,140z"/>
	<path class="st7" d="M44.2,19.7c-0.4,0.2-0.8,0.4-1.2,0.6c-0.2,0.1-0.5,0.2-0.7,0.4c-0.4,0.2-0.7,0.4-1.1,0.6
		c-0.2,0.1-0.5,0.3-0.7,0.4c-0.3,0.2-0.7,0.4-1,0.5c-0.2,0.1-0.5,0.3-0.7,0.4c-0.3,0.2-0.6,0.4-0.9,0.5c-0.2,0.1-0.5,0.3-0.7,0.4
		c-0.3,0.2-0.6,0.4-0.9,0.5c-0.2,0.1-0.5,0.3-0.7,0.4c-0.3,0.2-0.6,0.4-0.9,0.5c-0.2,0.1-0.5,0.3-0.7,0.4c-0.3,0.2-0.6,0.4-0.8,0.6
		c-0.2,0.1-0.4,0.3-0.7,0.4c-0.3,0.2-0.5,0.4-0.8,0.6c-0.2,0.1-0.4,0.3-0.6,0.4c-0.3,0.2-0.5,0.4-0.8,0.6c-0.2,0.2-0.4,0.3-0.6,0.5
		c-0.3,0.2-0.5,0.4-0.7,0.6c-0.2,0.2-0.4,0.3-0.6,0.5c-0.2,0.2-0.5,0.4-0.7,0.6c-0.2,0.1-0.4,0.3-0.5,0.4c-0.2,0.2-0.5,0.4-0.7,0.6
		c-0.2,0.1-0.3,0.3-0.5,0.4c-0.2,0.2-0.5,0.4-0.7,0.6c-0.2,0.1-0.3,0.3-0.5,0.4c-0.2,0.2-0.5,0.5-0.7,0.7c-0.1,0.1-0.3,0.3-0.4,0.4
		c-0.2,0.3-0.5,0.5-0.7,0.8c-0.1,0.1-0.2,0.2-0.3,0.3c-0.3,0.4-0.7,0.7-1,1.1c0,0,0,0,0,0c-0.3,0.4-0.6,0.7-0.9,1.1
		c-0.1,0.1-0.1,0.2-0.2,0.3c-0.2,0.3-0.4,0.6-0.6,0.8c-0.1,0.1-0.2,0.3-0.3,0.4c-0.2,0.2-0.3,0.5-0.5,0.7c-0.1,0.1-0.2,0.3-0.3,0.4
		c-0.1,0.2-0.3,0.5-0.4,0.7c-0.1,0.2-0.2,0.3-0.3,0.5c-0.1,0.2-0.3,0.4-0.4,0.7c-0.1,0.2-0.2,0.3-0.3,0.5c-0.1,0.2-0.2,0.4-0.3,0.7
		c-0.1,0.2-0.2,0.3-0.3,0.5c-0.1,0.2-0.2,0.4-0.3,0.6c-0.1,0.2-0.2,0.3-0.2,0.5c-0.1,0.2-0.2,0.4-0.3,0.6c-0.1,0.2-0.1,0.3-0.2,0.5
		c-0.1,0.2-0.2,0.4-0.2,0.6c-0.1,0.2-0.1,0.4-0.2,0.5c-0.1,0.2-0.1,0.4-0.2,0.6c-0.1,0.2-0.1,0.4-0.1,0.5c-0.1,0.2-0.1,0.4-0.2,0.6
		c0,0.2-0.1,0.4-0.1,0.5c0,0.2-0.1,0.4-0.1,0.6c0,0.2-0.1,0.4-0.1,0.5c0,0.2-0.1,0.4-0.1,0.7c0,0.2,0,0.4-0.1,0.5c0,0,0,0.1,0,0.1
		c2.6-4.3,5.9-8.2,9.9-11.6c9.4-8,22.3-12.8,36.5-13.7c1.1-6.6,6.2-12.6,14.1-17.4c-10.3,2.5-19.8,5.7-28.3,9.5
		c-0.6,0.3-1.3,0.6-1.9,0.9C44.6,19.5,44.4,19.6,44.2,19.7z"/>
	<path class="st7" d="M227.9,44.1c-9-7.6-21.5-12-35.5-12.6c-0.5,2.9-1.8,5.6-3.7,8.2c19.5,7.4,37.4,17.3,37.4,40v45.8
		c10.4-7.9,16-16.8,16-25.9v-26C242,62.3,237,51.8,227.9,44.1z"/>
	<path class="st7" d="M30,125.5V79.7c0-22,16.8-31.9,35.6-39.3c-2.2-2.8-3.7-5.7-4.3-8.8c-13,0.9-24.7,5.2-33.2,12.4
		C19,51.8,14,62.3,14,73.6v26C14,108.8,19.6,117.7,30,125.5z"/>
	<path d="M212,12.8c-22.5-10.3-52.3-16-84-16c-0.2,0-0.4,0-0.6,0c-0.2,0-0.4,0-0.6,0c-1.3,0-2.6,0-3.9,0.1C93.1-2.6,65.3,3,44,12.8
		C20.8,23.4,8,37.9,8,53.5V99v102.9c0,15.6,12.8,30.1,36,40.8c22.5,10.3,52.3,16,84,16s61.5-5.7,84-16c23.2-10.7,36-25.2,36-40.8V99
		V53.5C248,37.9,235.2,23.4,212,12.8z M209.4,18.5c0.6,0.3,1.3,0.6,1.9,0.9c0.2,0.1,0.4,0.2,0.6,0.3c0.4,0.2,0.8,0.4,1.2,0.6
		c0.2,0.1,0.5,0.2,0.7,0.4c0.4,0.2,0.7,0.4,1.1,0.6c0.2,0.1,0.5,0.3,0.7,0.4c0.3,0.2,0.7,0.4,1,0.5c0.2,0.1,0.5,0.3,0.7,0.4
		c0.3,0.2,0.6,0.4,0.9,0.5c0.2,0.1,0.5,0.3,0.7,0.4c0.3,0.2,0.6,0.4,0.9,0.5c0.2,0.1,0.5,0.3,0.7,0.4c0.3,0.2,0.6,0.4,0.9,0.5
		c0.2,0.1,0.5,0.3,0.7,0.4c0.3,0.2,0.6,0.4,0.8,0.6c0.2,0.1,0.4,0.3,0.7,0.4c0.3,0.2,0.5,0.4,0.8,0.6c0.2,0.1,0.4,0.3,0.6,0.4
		c0.3,0.2,0.5,0.4,0.8,0.6c0.2,0.2,0.4,0.3,0.6,0.5c0.3,0.2,0.5,0.4,0.7,0.6c0.2,0.2,0.4,0.3,0.6,0.5c0.2,0.2,0.5,0.4,0.7,0.6
		c0.2,0.1,0.4,0.3,0.5,0.4c0.2,0.2,0.5,0.4,0.7,0.6c0.2,0.1,0.3,0.3,0.5,0.4c0.2,0.2,0.5,0.4,0.7,0.6c0.2,0.1,0.3,0.3,0.5,0.4
		c0.2,0.2,0.5,0.5,0.7,0.7c0.1,0.1,0.3,0.3,0.4,0.4c0.2,0.3,0.5,0.5,0.7,0.8c0.1,0.1,0.2,0.2,0.3,0.3c0.3,0.4,0.7,0.7,1,1.1
		c0,0,0,0,0,0c0.3,0.4,0.6,0.7,0.9,1.1c0.1,0.1,0.1,0.2,0.2,0.3c0.2,0.3,0.4,0.6,0.6,0.8c0.1,0.1,0.2,0.3,0.3,0.4
		c0.2,0.2,0.3,0.5,0.5,0.7c0.1,0.1,0.2,0.3,0.3,0.4c0.1,0.2,0.3,0.5,0.4,0.7c0.1,0.2,0.2,0.3,0.3,0.5c0.1,0.2,0.3,0.4,0.4,0.7
		c0.1,0.2,0.2,0.3,0.3,0.5c0.1,0.2,0.2,0.4,0.3,0.7c0.1,0.2,0.2,0.3,0.3,0.5c0.1,0.2,0.2,0.4,0.3,0.6c0.1,0.2,0.2,0.3,0.2,0.5
		c0.1,0.2,0.2,0.4,0.3,0.6c0.1,0.2,0.1,0.3,0.2,0.5c0.1,0.2,0.2,0.4,0.2,0.6c0.1,0.2,0.1,0.4,0.2,0.5c0.1,0.2,0.1,0.4,0.2,0.6
		c0.1,0.2,0.1,0.4,0.1,0.5c0.1,0.2,0.1,0.4,0.2,0.6c0,0.2,0.1,0.4,0.1,0.5c0,0.2,0.1,0.4,0.1,0.6c0,0.2,0.1,0.4,0.1,0.5
		c0,0.2,0.1,0.4,0.1,0.7c0,0.2,0,0.4,0.1,0.5c0,0,0,0.1,0,0.1c-2.6-4.3-5.9-8.2-9.9-11.6c-10-8.4-23.7-13.3-38.9-13.8
		c-1.3-7-6.9-13.2-15.7-18.2C189,10.6,199.9,14.1,209.4,18.5z M220,129.2c-3.3,2-6.9,3.9-10.8,5.7c-7.3,3.4-15.5,6.2-24.2,8.5v-42
		c0-21.4-4.9-35.2-17.2-47.3c6.8-2.6,12.4-5.8,16.6-9.5c23.1,8.6,35.6,16.9,35.6,34.9V129.2z M70,45.3c4.5,3.7,10.5,6.9,17.6,9.5
		C75.7,66.8,71,80.4,71,101.5v42c-8.7-2.3-16.9-5.2-24.2-8.5c-3.9-1.8-7.5-3.7-10.8-5.7V79.6C36,62,47.9,53.7,70,45.3z M77,101.4
		c0-20.5,4.6-32.7,16.8-44c9.2,2.5,19.8,4,31.2,4.1V93v56.7c-16.9-0.2-33.2-2.1-48-5.5V101.4z M131,93V61.5
		c11.3-0.3,21.7-2,30.6-4.6c12.6,11.4,17.4,23.7,17.4,44.5v42.8c-14.8,3.4-31.1,5.3-48,5.5V93z M126.8,55.3
		c-36.1,0-60.3-13.5-60.3-26.2C66.5,17,89.1,4,123,3.1c1.5,0,2.9,0,4.4,0c35.8,0.1,59.8,13.6,59.8,26.2
		C187.2,41.8,162.9,55.3,126.8,55.3z M74.9,8.9c-7.9,4.8-13,10.8-14.1,17.4C46.5,27.2,33.7,32,24.2,40c-4,3.4-7.4,7.3-9.9,11.6
		c0,0,0-0.1,0-0.1c0-0.2,0-0.4,0.1-0.5c0-0.2,0.1-0.4,0.1-0.7c0-0.2,0.1-0.4,0.1-0.5c0-0.2,0.1-0.4,0.1-0.6c0-0.2,0.1-0.4,0.1-0.5
		c0.1-0.2,0.1-0.4,0.2-0.6c0-0.2,0.1-0.4,0.1-0.5c0.1-0.2,0.1-0.4,0.2-0.6c0.1-0.2,0.1-0.4,0.2-0.5c0.1-0.2,0.2-0.4,0.2-0.6
		c0.1-0.2,0.1-0.3,0.2-0.5c0.1-0.2,0.2-0.4,0.3-0.6c0.1-0.2,0.1-0.3,0.2-0.5c0.1-0.2,0.2-0.4,0.3-0.6c0.1-0.2,0.2-0.3,0.3-0.5
		c0.1-0.2,0.2-0.4,0.3-0.7c0.1-0.2,0.2-0.3,0.3-0.5c0.1-0.2,0.3-0.4,0.4-0.7c0.1-0.2,0.2-0.3,0.3-0.5c0.1-0.2,0.3-0.5,0.4-0.7
		c0.1-0.1,0.2-0.3,0.3-0.4c0.2-0.2,0.3-0.5,0.5-0.7c0.1-0.1,0.2-0.3,0.3-0.4c0.2-0.3,0.4-0.6,0.6-0.8c0.1-0.1,0.1-0.2,0.2-0.3
		c0.3-0.4,0.6-0.7,0.9-1.1c0,0,0,0,0,0c0.3-0.4,0.6-0.7,1-1.1c0.1-0.1,0.2-0.2,0.3-0.3c0.2-0.3,0.5-0.5,0.7-0.8
		c0.1-0.1,0.3-0.3,0.4-0.4c0.2-0.2,0.5-0.5,0.7-0.7c0.1-0.1,0.3-0.3,0.5-0.4c0.2-0.2,0.5-0.4,0.7-0.6c0.2-0.1,0.3-0.3,0.5-0.4
		c0.2-0.2,0.5-0.4,0.7-0.6c0.2-0.2,0.4-0.3,0.5-0.4c0.2-0.2,0.5-0.4,0.7-0.6c0.2-0.2,0.4-0.3,0.6-0.5c0.2-0.2,0.5-0.4,0.7-0.6
		c0.2-0.2,0.4-0.3,0.6-0.5c0.3-0.2,0.5-0.4,0.8-0.6c0.2-0.1,0.4-0.3,0.6-0.4c0.3-0.2,0.5-0.4,0.8-0.6c0.2-0.1,0.4-0.3,0.7-0.4
		c0.3-0.2,0.6-0.4,0.8-0.6c0.2-0.1,0.5-0.3,0.7-0.4c0.3-0.2,0.6-0.4,0.9-0.5c0.2-0.1,0.5-0.3,0.7-0.4c0.3-0.2,0.6-0.4,0.9-0.5
		c0.2-0.1,0.5-0.3,0.7-0.4c0.3-0.2,0.6-0.4,0.9-0.5c0.2-0.1,0.5-0.3,0.7-0.4c0.3-0.2,0.7-0.4,1-0.5c0.2-0.1,0.5-0.3,0.7-0.4
		c0.4-0.2,0.7-0.4,1.1-0.6c0.2-0.1,0.5-0.2,0.7-0.4c0.4-0.2,0.8-0.4,1.2-0.6c0.2-0.1,0.4-0.2,0.6-0.3c0.6-0.3,1.2-0.6,1.9-0.9
		C55.1,14.6,64.6,11.4,74.9,8.9z M14,73.6c0-11.3,5-21.8,14.1-29.5c8.5-7.2,20.2-11.5,33.2-12.4c0.6,3.1,2.1,6,4.3,8.8
		C46.8,47.8,30,57.7,30,79.7v45.8c-10.4-7.9-16-16.8-16-25.9V73.6z M242,202.2c0,13.1-11.5,25.7-32.5,35.4
		c-21.7,10-50.6,15.5-81.5,15.5s-59.8-5.5-81.5-15.5c-21-9.7-32.5-22.2-32.5-35.4v-85c5.9,8.6,16.1,16.3,30,22.8
		c22.5,10.4,52.3,16.1,84,16.1s61.5-5.7,84-16.1c13.9-6.4,24.1-14.2,30-22.8V202.2z M226,125.5V79.7c0-22.7-17.9-32.5-37.4-40
		c1.9-2.6,3.2-5.4,3.7-8.2c14,0.5,26.5,4.9,35.5,12.6C237,51.8,242,62.3,242,73.6v26C242,108.8,236.4,117.7,226,125.5z"/>
</g>
</svg>
