<?xml version="1.0" encoding="utf-8"?>
<!-- Generator: Adobe Illustrator 23.0.1, SVG Export Plug-In . SVG Version: 6.00 Build 0)  -->
<svg version="1.1" id="Layer_1" xmlns="http://www.w3.org/2000/svg" xmlns:xlink="http://www.w3.org/1999/xlink" x="0px" y="0px"
	 viewBox="0 0 256 256" style="enable-background:new 0 0 256 256;" xml:space="preserve">
<style type="text/css">
	.st0{fill:none;stroke:#000000;stroke-width:8;stroke-linejoin:round;stroke-miterlimit:10;}
	.st1{fill:none;stroke:#000000;stroke-width:8;stroke-miterlimit:10;}
	.st2{fill:none;stroke:#000000;stroke-width:6;stroke-miterlimit:10;}
	.st3{fill:none;stroke:#000000;stroke-width:6;stroke-linejoin:round;stroke-miterlimit:10;}
	.st4{fill:none;stroke:#000000;stroke-width:6;stroke-linecap:round;stroke-miterlimit:10;}
	.st5{display:none;opacity:0.4;}
	.st6{fill:#FFFFFF;stroke:#000000;stroke-width:6;stroke-miterlimit:10;}
	.st7{fill:none;}
	.st8{fill:#1D1D1B;}
</style>
<path d="M206.8,243.8l-162.2,0c-21.7,0-39.4-17.6-39.4-39.4c0-16.1,2.5-26.2,4.8-35.2c1.9-7.7,3.8-15,3.8-25.2
	c0-10.2-3.1-20.8-6.3-32c-3.8-13.1-7.7-26.7-7.7-42V12.8h132v122.6c0,15.4,18.1,26,33.3,32.3c17.1,7.1,34.5,10.2,34.7,10.2
	c6,1.2,57.5,12.7,57.5,35C257.1,227.1,248.3,243.8,206.8,243.8z M5.7,18.8v51.2c0,14.5,3.8,27.6,7.5,40.3
	c3.4,11.6,6.5,22.6,6.5,33.7c0,10.9-1.9,18.6-3.9,26.6c-2.3,9-4.6,18.4-4.6,33.7c0,18.4,15,33.4,33.4,33.4l162.2,0
	c29.4,0,44.3-8.4,44.3-24.9c0-14.8-39-26.3-52.6-29.1c-2.9-0.5-72.7-13.3-72.7-48.4V18.8H5.7z"/>
</svg>
