<?xml version="1.0" encoding="utf-8"?>
<!-- Generator: Adobe Illustrator 23.0.1, SVG Export Plug-In . SVG Version: 6.00 Build 0)  -->
<svg version="1.1" id="Layer_1" xmlns="http://www.w3.org/2000/svg" xmlns:xlink="http://www.w3.org/1999/xlink" x="0px" y="0px"
	 viewBox="0 0 256 256" style="enable-background:new 0 0 256 256;" xml:space="preserve">
<style type="text/css">
	.st0{fill:none;stroke:#000000;stroke-width:8;stroke-linejoin:round;stroke-miterlimit:10;}
	.st1{fill:none;stroke:#000000;stroke-width:8;stroke-miterlimit:10;}
	.st2{fill:none;stroke:#000000;stroke-width:6;stroke-miterlimit:10;}
	.st3{fill:none;stroke:#000000;stroke-width:6;stroke-linejoin:round;stroke-miterlimit:10;}
	.st4{fill:none;stroke:#000000;stroke-width:6;stroke-linecap:round;stroke-miterlimit:10;}
	.st5{display:none;opacity:0.4;}
	.st6{fill:#FFFFFF;stroke:#000000;stroke-width:6;stroke-miterlimit:10;}
	.st7{fill:none;}
	.st8{fill:#1D1D1B;}
</style>
<g>
	<g>
		<path d="M194.7,24c6.2,0,6.8,12.1,6.9,12.7c0,1.1,0.7,13.1,1.5,24.9c0.5,6.8,0.9,12.3,1.3,16.2c0.2,2.4,0.4,4.2,0.6,5.5
			c0.1,0.9,0.3,1.5,0.4,2.1c1,3.7,3.9,5,6.1,5c1.7,0,3.4-0.7,4.6-2c1.2-1.3,3.8-4,2.2-25.3c-1.3-18.4-0.4-28,0.5-30
			c0.9-1.2,2.4-2,3.8-2c1.3,0,2.3,0.7,3.2,2c3.1,4.7,2.5,12,2,19.2c-0.2,2.5-0.4,5-0.4,7.4c0,1.4,0,9.1,0,16.2
			c0,4.1,0.1,7.4,0.1,9.8c0,1.4,0.1,2.5,0.1,3.3c0.1,1.5,0.2,5.4,4.3,6.7c0.6,0.2,1.2,0.3,1.8,0.3c2.4,0,4.7-1.5,5.6-3.9
			c2.9-7.7,2.8-14.8,2.8-21.7c0-2.3,0-4.7,0.1-7c0.1-2.6,0.3-6.3,1.3-8.8c0.6-1.6,1-1.6,1.3-1.6c0.4,0,1,0.1,2.1,0.5
			c2.8,1,3.3,2.9,3,10.8c0,0.7-0.1,1.4-0.1,2.1c0,2-0.1,3.9-0.1,5.9c-0.1,8.3-0.3,16.1-1.3,24.1c-0.9,7.2-2.5,14.6-4,21.7
			c-2.1,10-4.3,20.4-4.9,31c-0.2,3.3-0.6,6.6-0.9,9.9c-0.5,5.1-1.1,10.4-1.1,15.7c-0.1,4.3-0.2,8.4-0.7,12.3
			c-0.2,1.1-0.6,2.6-1.1,4.1c-1,3.2-2.1,6.7-1.7,10.5c0.3,3,1.4,4.6,2.5,5.8c0,0.1,0,0.2,0,0.3c-0.1,0.6-0.2,1.5-0.2,2.4
			c0,2.3,0,4.6-0.1,6.8c0,2.1-0.1,4.2-0.1,6.3c0,0.9,0.1,1.9,0.1,2.8c0.1,1,0.2,2.5,0.1,3.3c-1.2,0.8-5,1-6.3,1
			c-3.8,0.2-7.8,0.5-11.7,0.7c-6.6,0.5-13.4,1-20,1c-9.2,0-16.3-0.9-22.5-2.9c-3.3-1.1-3.7-1.7-3.5-9.3c0-1.3,0.1-2.7,0.1-4.1
			c0-3.2,0.5-6.5,1-10c0.9-6.2,1.9-12.7,0.3-19.3c-2.2-9-6-15.2-10-21.3c-1.7-2.6-3.5-4.8-5.2-7c-3.6-4.6-6.8-8.5-7.7-13.6
			c-1.4-7.8-3.8-15.5-6.1-22.9c-0.3-1-0.6-2.1-1-3.1c-0.9-2.7-2.2-5.9-3.6-9.3c-2.3-5.5-5.2-12.3-5.3-16.2c-0.1-4.8,1.2-6.4,1.6-6.8
			c0.3-0.3,0.7-0.6,1.6-0.6c2.3,0,5.9,2,8.2,5.6c1.4,2.3,3,7.9,4.2,12.4c2.7,9.8,4.5,16.2,10.8,16.2c0.9,0,1.8-0.2,2.7-0.6
			c2.2-0.9,3.6-3.1,3.6-5.5c0-7-0.6-14-1.1-20.8c-0.5-5.8-1-11.9-1.1-17.7c-0.1-3.8-0.4-7.5-0.7-11.1c-0.3-3.5-0.6-6.8-0.6-10.1
			c0-1.8-0.2-3.7-0.4-5.8c-0.4-4.1-0.9-9.6,0.3-12c0.8-1.5,3-2.8,4.9-2.8c0.3,0,0.8,0,1.1,0.2c3.7,2,4.5,9.5,4.8,12
			c0.7,6,1.4,13.2,1.9,20.4c0,0.4,0,2,0,3.2c0,14.6,0.6,19.5,4.4,22c1,0.6,2.1,1,3.3,1c0.8,0,1.7-0.2,2.5-0.5
			c1.9-0.8,3.2-2.6,3.5-4.6c1.2-8.3,0.9-16.7,0.6-24.9c-0.1-3.7-0.3-7.2-0.3-10.7c0-2.1-0.3-4.7-0.6-7.7c-0.5-4.6-1.1-9.7-0.6-13.9
			c0.1-1.4,0.6-4.6,2-5.1C192.7,24.2,193.8,24,194.7,24C194.7,24,194.7,24,194.7,24 M194.7,18c-1.6,0-3.3,0.3-5.3,1
			c-10,3.6-4.8,24.2-4.8,32.3c0,11.5,1.4,23.4-0.3,34.7c-2.2-1.4-1.5-18-1.7-20.6c-0.5-6.9-1.2-13.8-2-20.6
			c-0.6-5.9-2.2-13.5-8-16.6c-1.2-0.6-2.6-0.9-3.9-0.9c-4.1,0-8.4,2.5-10.2,6.1c-2.7,5.4-0.7,14.8-0.6,20.7
			c0.1,7.1,1.2,14.1,1.3,21.2c0.2,12.9,2.2,25.6,2.2,38.4c-0.1,0-0.2,0.1-0.3,0.1c-3.1,0-5.9-19.3-9.9-25.8
			c-3.2-5.1-8.6-8.5-13.3-8.5c-5.1,0-9.4,3.9-9.2,13.5c0.1,7.8,6.9,19.9,9.2,27.2c2.6,8.2,5.4,16.8,6.9,25.3
			c1.6,9.3,8.7,15.1,13.8,22.8c4.3,6.5,7.3,11.8,9.2,19.4c2.2,9-1.5,18.6-1.5,28c0,8.9-1.9,16.1,7.5,19.1c7.6,2.5,15.9,3.2,24.3,3.2
			c10.8,0,21.8-1.2,32-1.7c3.3-0.2,8.2-0.4,10.8-3.2c2.1-2.4,1.1-6.9,1.1-9.9c0-4.4,0.2-8.8,0.2-13.2c0-1.7,0.7-3.1-0.1-4.9
			c-1-2.4-2-1.5-2.2-4.3c-0.4-4.1,2.1-9,2.7-13.1c0.6-4.3,0.7-8.7,0.8-13.1c0.1-8.3,1.5-16.8,2-25.3c1.1-17.8,6.6-34.8,8.9-52.3
			c1.3-10.2,1.2-20.3,1.5-30.6c0.2-7.3,1.3-15.8-7-18.8c-1.5-0.5-2.9-0.8-4.1-0.8c-7.3,0-8.3,9.2-8.6,16.2
			c-0.4,9.6,0.9,17.8-2.4,26.9c-0.3-0.1-0.4-27.5-0.3-30.2c0.1-9.3,3-21.6-2.6-29.9c-2.2-3.3-5.2-4.7-8.2-4.7
			c-3.4,0-6.8,1.8-8.8,4.6c-3.1,4.3-2.4,23.1-1.6,33.8c0.8,11.5,0.4,20.9-0.9,20.9c-1.3,0-3.8-45.9-3.8-48
			C207.2,27.7,203.6,18,194.7,18L194.7,18z"/>
	</g>
	<g>
		<path d="M61.3,24c0.9,0,2,0.2,3.3,0.7c1.4,0.5,1.9,3.7,2,5.1c0.4,4.1-0.1,9.3-0.6,13.9c-0.3,3-0.6,5.5-0.6,7.7
			c0,3.5-0.1,7-0.3,10.7c-0.3,8.1-0.6,16.5,0.6,24.9c0.3,2,1.6,3.8,3.5,4.6c0.8,0.4,1.6,0.5,2.5,0.5c1.1,0,2.3-0.3,3.3-1
			c3.8-2.5,4.4-7.4,4.4-22c0-1.2,0-2.8,0-3.2c0.5-7.2,1.3-14.4,1.9-20.4c0.3-2.5,1.1-10,4.8-12c0.4-0.2,0.8-0.2,1.1-0.2
			c1.8,0,4.1,1.3,4.9,2.8c1.2,2.4,0.7,8,0.3,12c-0.2,2.1-0.4,4-0.4,5.8c-0.1,3.3-0.3,6.6-0.6,10.1c-0.3,3.6-0.6,7.3-0.7,11.1
			C90.5,80.9,90,87,89.5,92.8c-0.6,6.8-1.1,13.8-1.1,20.8c0,2.4,1.4,4.6,3.6,5.5c0.9,0.4,1.8,0.6,2.7,0.6c6.2,0,8.1-6.5,10.8-16.2
			c1.3-4.5,2.8-10.1,4.2-12.4c2.3-3.7,6-5.6,8.2-5.6c0.9,0,1.4,0.3,1.6,0.6c0.4,0.4,1.7,2.1,1.6,6.8c-0.1,4-3,10.8-5.3,16.2
			c-1.4,3.3-2.8,6.5-3.6,9.3c-0.3,1-0.6,2.1-1,3.1c-2.3,7.4-4.8,15.1-6.1,22.9c-0.9,5-4,9-7.7,13.6c-1.8,2.2-3.6,4.5-5.2,7
			c-4,6.1-7.8,12.3-10,21.3c-1.6,6.7-0.6,13.1,0.3,19.3c0.5,3.5,1,6.9,1,10c0,1.4,0,2.8,0.1,4.1c0.2,7.7-0.2,8.2-3.5,9.3
			c-6.2,2-13.3,2.9-22.5,2.9c-6.6,0-13.4-0.5-20-1c-3.9-0.3-7.9-0.6-11.7-0.7c-1.3-0.1-5.1-0.2-6.3-1c-0.1-0.8,0-2.3,0.1-3.3
			c0.1-0.9,0.1-1.9,0.1-2.8c0-2.1-0.1-4.3-0.1-6.3c0-2.3-0.1-4.6-0.1-6.8c0-1-0.1-1.8-0.2-2.4c0-0.1,0-0.2,0-0.3
			c1.1-1.2,2.2-2.8,2.5-5.8c0.4-3.8-0.7-7.3-1.7-10.5c-0.5-1.5-0.9-2.9-1.1-4.1c-0.6-3.8-0.7-8-0.7-12.3c-0.1-5.3-0.6-10.6-1.1-15.7
			c-0.3-3.3-0.7-6.6-0.9-9.9c-0.7-10.7-2.8-21-4.9-31c-1.5-7.1-3-14.5-4-21.7c-1-8-1.2-15.8-1.3-24.1c0-2-0.1-3.9-0.1-5.9
			c0-0.7,0-1.4-0.1-2.1c-0.3-7.9,0.3-9.8,3-10.8c1.1-0.4,1.7-0.5,2.1-0.5c0.3,0,0.7,0,1.3,1.6c1,2.5,1.2,6.2,1.3,8.8
			c0.1,2.4,0.1,4.8,0.1,7c-0.1,6.9-0.1,13.9,2.8,21.7c0.9,2.4,3.2,3.9,5.6,3.9c0.6,0,1.2-0.1,1.8-0.3c4-1.3,4.2-5.2,4.3-6.7
			c0-0.8,0.1-1.9,0.1-3.3c0-2.4,0.1-5.7,0.1-9.8c0-7.1,0.1-14.7,0-16.2c0-2.4-0.2-4.9-0.4-7.4c-0.6-7.1-1.1-14.5,2-19.2
			c0.9-1.3,1.9-2,3.2-2c1.4,0,2.9,0.8,3.8,2c1,2,1.9,11.6,0.5,30c-1.5,21.3,1,24,2.2,25.3c1.2,1.3,2.9,2,4.6,2c2.2,0,5.1-1.3,6.1-5
			c0.1-0.5,0.3-1.2,0.4-2.1c0.2-1.3,0.4-3.1,0.6-5.5c0.4-3.9,0.8-9.4,1.3-16.2c0.8-11.8,1.4-23.8,1.5-24.9
			C54.4,36.2,55.1,24,61.3,24 M61.3,18c-8.9,0-12.5,9.7-12.9,18.4c-0.1,2.1-2.6,48-3.8,48c-1.3,0-1.7-9.4-0.9-20.9
			c0.8-10.8,1.5-29.5-1.6-33.8c-2-2.8-5.4-4.6-8.8-4.6c-3,0-6,1.4-8.2,4.7c-5.6,8.4-2.7,20.6-2.6,29.9c0,2.7,0,30.1-0.3,30.2
			c-3.4-9.1-2.1-17.3-2.4-26.9c-0.3-6.9-1.3-16.2-8.6-16.2c-1.2,0-2.5,0.2-4.1,0.8c-8.3,2.9-7.1,11.5-7,18.8
			C0.4,76.7,0.3,86.8,1.6,97c2.3,17.6,7.7,34.5,8.9,52.3c0.5,8.4,1.9,16.9,2,25.3c0.1,4.3,0.2,8.8,0.8,13.1
			c0.6,4.1,3.1,8.9,2.7,13.1c-0.3,2.8-1.2,1.9-2.2,4.3c-0.7,1.7-0.1,3.1-0.1,4.9c0,4.4,0.2,8.8,0.2,13.2c0,3-1,7.5,1.1,9.9
			c2.5,2.9,7.4,3.1,10.8,3.2c10.1,0.5,21.2,1.7,32,1.7c8.4,0,16.7-0.8,24.3-3.2c9.5-3.1,7.5-10.2,7.5-19.1c0-9.3-3.7-18.9-1.5-28
			c1.9-7.7,4.9-12.9,9.2-19.4c5.1-7.7,12.2-13.5,13.8-22.8c1.5-8.5,4.4-17.1,6.9-25.3c2.3-7.3,9-19.4,9.2-27.2
			c0.2-9.6-4.1-13.5-9.2-13.5c-4.7,0-10.1,3.3-13.3,8.5c-4.1,6.5-6.8,25.8-9.9,25.8c-0.1,0-0.2,0-0.3-0.1c0-12.8,2-25.6,2.2-38.4
			c0.1-7.1,1.2-14.1,1.3-21.2c0.1-5.9,2.2-15.3-0.6-20.7c-1.8-3.6-6.1-6.1-10.2-6.1c-1.4,0-2.7,0.3-3.9,0.9
			c-5.8,3.1-7.3,10.8-8,16.6c-0.8,6.9-1.5,13.7-2,20.6C73.1,68,73.8,84.6,71.6,86c-1.6-11.4-0.2-23.3-0.3-34.7
			c0-8.1,5.2-28.7-4.8-32.3C64.6,18.3,62.9,18,61.3,18L61.3,18z"/>
	</g>
</g>
</svg>
