<?xml version="1.0" encoding="utf-8"?>
<!-- Generator: Adobe Illustrator 23.0.1, SVG Export Plug-In . SVG Version: 6.00 Build 0)  -->
<svg version="1.1" id="Layer_1" xmlns="http://www.w3.org/2000/svg" xmlns:xlink="http://www.w3.org/1999/xlink" x="0px" y="0px"
	 viewBox="0 0 256 256" style="enable-background:new 0 0 256 256;" xml:space="preserve">
<style type="text/css">
	.st0{fill:none;stroke:#000000;stroke-width:8;stroke-linejoin:round;stroke-miterlimit:10;}
	.st1{fill:none;stroke:#000000;stroke-width:8;stroke-miterlimit:10;}
	.st2{fill:none;stroke:#000000;stroke-width:6;stroke-miterlimit:10;}
	.st3{fill:none;stroke:#000000;stroke-width:6;stroke-linejoin:round;stroke-miterlimit:10;}
	.st4{fill:none;stroke:#000000;stroke-width:6;stroke-linecap:round;stroke-miterlimit:10;}
	.st5{display:none;opacity:0.4;}
	.st6{fill:#FFFFFF;stroke:#000000;stroke-width:6;stroke-miterlimit:10;}
	.st7{fill:none;}
	.st8{fill:#1D1D1B;}
</style>
<g>
	<path d="M151.8,182.8c2,0,3.5-1.9,2.8-4c-0.4-1.2-1.6-2-2.9-2H128c-1.3,0-2.5,0.8-2.9,2c-0.7,2.1,0.9,4,2.8,4H151.8z"/>
	<path d="M134.6,192.8c2,0,3.5-1.9,2.8-4c-0.4-1.2-1.6-2-2.9-2h-23.7c-1.3,0-2.5,0.8-2.9,2c-0.7,2.1,0.9,4,2.8,4H134.6z"/>
	<path d="M152.6,198.8h-23.8c-1.3,0-2.5,0.8-2.9,2c-0.7,2.1,0.9,4,2.8,4h23.8c1.3,0,2.5-0.8,2.9-2
		C156.1,200.7,154.6,198.8,152.6,198.8z"/>
	<path d="M135.3,208.8h-23.7c-1.3,0-2.5,0.8-2.9,2c-0.7,2.1,0.9,4,2.8,4h23.9c2,0,3.5-1.9,2.8-4
		C137.9,209.6,136.6,208.8,135.3,208.8z"/>
	<path d="M152.6,218.8h-23.8c-1.3,0-2.5,0.8-2.9,2c-0.7,2.1,0.9,4,2.8,4h23.8c1.3,0,2.5-0.8,2.9-2
		C156.1,220.7,154.6,218.8,152.6,218.8z"/>
	<path d="M111.6,235.8h23.7c1.3,0,2.5-0.8,2.9-2c0.7-2.1-0.9-4-2.8-4h-23.9c-2,0-3.5,1.9-2.8,4C109.1,235.1,110.3,235.8,111.6,235.8
		z"/>
	<path d="M152.6,239.8h-23.8c-1.3,0-2.5,0.8-2.9,2c-0.7,2.1,0.9,4,2.8,4h23.8c1.3,0,2.5-0.8,2.9-2
		C156.1,241.7,154.6,239.8,152.6,239.8z"/>
	<path d="M135.4,249.8h-23.8c-1.3,0-2.5,0.8-2.9,2c-0.7,2.1,0.9,4,2.8,4h23.8c1.3,0,2.5-0.8,2.9-2
		C138.9,251.7,137.4,249.8,135.4,249.8z"/>
	<path d="M155.3,70.4c0-0.3,0-0.5-0.3-0.8v-6.6c0.5,0.5,0.8,1,1.3,1.4l19,12.9c0.5,0.3,1.1,0.5,1.6,0.5c0.9,0,1.9-0.4,2.4-1.3
		c0.9-1.3,0.6-3.2-0.8-4.1l-19-12.9c-1.3-0.9-3.2-0.6-4.1,0.8c-0.1,0.2-0.2,0.4-0.6,0.6V26.8c0.3-16.8-18.9-27-18.9-27h-9.8
		c0,0-19.2,10.2-19.3,27v42.8c0.2,0.3,0.2,0.5,0.2,0.8c-0.1,0-0.2,0.1-0.4,0.1L82.3,82.7l1.5,2.7c0.2,0.4,21.5,38.1,21.2,79.5v3h52
		v-3c0.1-41.3,21.4-79.1,21.6-79.5l1.5-2.7l-24.5-12.1C155.5,70.5,155.4,70.4,155.3,70.4z M113,26.8c0-7.8,1.6-21,12-21h12
		c10.4,0,12,13.1,12,21v42.8c0,2.5-0.4,4.9-1,7.1v-5.3c0-5.3-4.3-9.6-9.6-9.6h-14.8c-5.3,0-9.6,4.3-9.6,9.6v5.3
		c-0.6-2.3-1-4.7-1-7.1V26.8z M142,71.6v39.5c0,2.1-1.7,3.8-3.8,3.8h-14.5c-2.1,0-3.8-1.7-3.8-3.8V71.6c0-2.1,1.7-3.8,3.8-3.8h14.5
		C140.3,67.8,142,69.5,142,71.6z M150.7,161.8h-39.4c-1-36-16.1-68-20.9-77.4l17.5-8.8c1.1,4.5,3.2,8.7,6.1,12.1v22.4
		c0,5.3,4.3,9.6,9.6,9.6h14.8c5.3,0,9.6-4.3,9.6-9.6V87.8c3-3.4,5.1-7.6,6.1-12.1l17.5,8.8C166.8,93.9,151.7,125.8,150.7,161.8z"/>
	<path d="M131.2,29.2c3.1,0,5.6-2.5,5.6-5.6s-2.5-5.6-5.6-5.6s-5.6,2.5-5.6,5.6S128.1,29.2,131.2,29.2z M131.2,23.3
		c0.1,0,0.2,0.1,0.2,0.2c0,0.3-0.5,0.3-0.5,0C131,23.4,131.1,23.3,131.2,23.3z"/>
	<path d="M228.8,36.3l-11.7-20.2c-0.8-1.4-2.6-1.9-4-1.1c-1.4,0.8-1.9,2.6-1.1,4l11.7,20.2c0.5,0.9,1.5,1.5,2.5,1.5
		c0.5,0,1-0.1,1.5-0.4C229.1,39.5,229.6,37.7,228.8,36.3z"/>
	<path d="M173,46.9c-1.2-1.1-3.1-0.9-4.1,0.3c-1.1,1.2-0.9,3.1,0.3,4.1l17.4,15.2c0.6,0.5,1.2,0.7,1.9,0.7c0.8,0,1.6-0.3,2.2-1
		c1.1-1.2,0.9-3.1-0.3-4.1L173,46.9z"/>
	<path d="M186.6,35.9c-1.1-1.2-3-1.3-4.1-0.2c-1.2,1.1-1.3,3-0.2,4.1l15.8,17c0.6,0.6,1.4,0.9,2.2,0.9c0.7,0,1.4-0.3,2-0.8
		c1.2-1.1,1.3-3,0.2-4.1L186.6,35.9z"/>
	<path d="M201.3,25.6c-1-1.3-2.8-1.6-4.1-0.6c-1.3,1-1.6,2.8-0.6,4.1l13.6,18.3c0.6,0.8,1.5,1.2,2.4,1.2c0.6,0,1.2-0.2,1.7-0.6
		c1.3-1,1.6-2.8,0.6-4.1L201.3,25.6z"/>
	<path d="M49,14.1c-1.4-0.8-3.2-0.3-4,1.1L33.3,35.3c-0.8,1.4-0.3,3.2,1.1,4c0.5,0.3,1,0.4,1.5,0.4c1,0,2-0.5,2.5-1.5L50,18.1
		C50.8,16.7,50.4,14.9,49,14.1z"/>
	<path d="M85.1,76.9c0.6,0,1.1-0.2,1.6-0.5l19-12.9c1.3-0.9,1.7-2.7,0.8-4.1c-0.9-1.3-2.7-1.7-4.1-0.8l-19,12.9
		c-1.3,0.9-1.7,2.7-0.8,4.1C83.2,76.4,84.1,76.9,85.1,76.9z"/>
	<path d="M93.2,46.2c-1.1-1.2-2.9-1.3-4.1-0.3L71.6,61.2c-1.2,1.1-1.3,2.9-0.3,4.1c0.6,0.7,1.4,1,2.2,1c0.7,0,1.4-0.2,1.9-0.7
		l17.4-15.2C94.1,49.3,94.2,47.4,93.2,46.2z"/>
	<path d="M79.6,34.7c-1.2-1.1-3-1-4.1,0.2l-15.8,17c-1.1,1.2-1,3,0.2,4.1c0.6,0.5,1.3,0.8,2,0.8c0.8,0,1.6-0.3,2.2-0.9l15.8-17
		C80.8,37.7,80.8,35.8,79.6,34.7z"/>
	<path d="M64.8,24c-1.3-1-3.1-0.7-4.1,0.6L47.1,42.9c-1,1.3-0.7,3.1,0.6,4.1c0.5,0.4,1.1,0.6,1.7,0.6c0.9,0,1.8-0.4,2.4-1.2
		l13.6-18.3C66.4,26.8,66.1,25,64.8,24z"/>
</g>
</svg>
