<?xml version="1.0" encoding="utf-8"?>
<!-- Generator: Adobe Illustrator 23.0.1, SVG Export Plug-In . SVG Version: 6.00 Build 0)  -->
<svg version="1.1" id="Layer_1" xmlns="http://www.w3.org/2000/svg" xmlns:xlink="http://www.w3.org/1999/xlink" x="0px" y="0px"
	 viewBox="0 0 256 256" style="enable-background:new 0 0 256 256;" xml:space="preserve">
<style type="text/css">
	.st0{fill:none;stroke:#000000;stroke-width:8;stroke-linejoin:round;stroke-miterlimit:10;}
	.st1{fill:none;stroke:#000000;stroke-width:8;stroke-miterlimit:10;}
	.st2{fill:none;stroke:#000000;stroke-width:6;stroke-miterlimit:10;}
	.st3{fill:none;stroke:#000000;stroke-width:6;stroke-linejoin:round;stroke-miterlimit:10;}
	.st4{fill:none;stroke:#000000;stroke-width:6;stroke-linecap:round;stroke-miterlimit:10;}
	.st5{display:none;opacity:0.4;}
	.st6{fill:#FFFFFF;stroke:#000000;stroke-width:6;stroke-miterlimit:10;}
	.st7{fill:none;}
	.st8{fill:#1D1D1B;}
</style>
<g>
	<path class="st7" d="M5.4,69.6c0,6.7,0.8,13.1,2.1,19.3h117.9v-20H5.4V69.6z"/>
	<rect x="5.4" y="17.8" class="st7" width="120" height="45"/>
	<path class="st7" d="M28.2,139.9c6,9.6,14.3,22.8,31.4,32l1,0.5c29.3,15.6,47.1,25.1,70.5,48.4h52.6c27.8,0,44.1-19.6,48.8-26.3
		c-12-5.7-26.7-9.7-34.1-11.3c-2.9-0.5-73-13.3-73-48.5V94.8H8.3c1.2,5,2.6,9.9,4,14.8c1.7,6,3.4,11.9,4.7,17.7
		C21.3,128.8,24.3,133.6,28.2,139.9z"/>
	<path class="st7" d="M237.6,199.7c-4.7,6.7-22.3,28.2-54.1,28.2H10.4v10h196.1c29.5,0,44.4-8,44.4-23.8
		C250.9,208.7,245.3,203.8,237.6,199.7z"/>
	<path class="st7" d="M122.4,220.8c-20.6-19.6-36.8-28.2-64.6-43l-1-0.5c-18.5-9.9-27.6-24.4-33.6-34c-1.6-2.6-3.2-5.1-4.6-6.9
		c0.3,2.4,0.4,4.8,0.4,7.2c0,10.9-1.9,18.6-3.9,26.7c-2.3,9.1-4.6,18.4-4.6,33.7v16.9H122.4z"/>
	<path d="M199.5,178c-0.2,0-17.6-3.2-34.8-10.2c-15.2-6.3-33.4-16.9-33.4-32.3V12.8h-132v57.3c0,15.3,3.6,28.9,7,42
		c3,11.2,5.8,21.8,5.8,32.1c0,10.2-1.7,17.5-3.4,25.2c-2,9-4.4,19.1-4.4,35.2v39.2h202.4c41.7,0,50.5-16.8,50.5-30.9
		C257.2,190.6,205.5,179.2,199.5,178z M125.4,88.8H7.5c-1.3-6.2-2.1-12.6-2.1-19.3v-0.7h120V88.8z M125.4,17.8v45H5.4v-45H125.4z
		 M12.4,109.6c-1.4-4.8-2.8-9.7-4-14.8h117v39.9c0,35.2,70.1,48,73,48.5c7.4,1.5,22.1,5.6,34.1,11.3c-4.7,6.7-21,26.3-48.8,26.3
		h-52.6c-23.4-23.3-41.2-32.8-70.5-48.4l-1-0.5c-17.1-9.1-25.4-22.3-31.4-32c-3.9-6.3-7-11.1-11.2-12.7
		C15.8,121.5,14.1,115.6,12.4,109.6z M15,170.2c2-8.1,3.9-15.7,3.9-26.7c0-2.4-0.2-4.8-0.4-7.2c1.4,1.9,3,4.3,4.6,6.9
		c6,9.6,15.1,24.2,33.6,34l1,0.5c27.8,14.8,44,23.5,64.6,43h-112v-16.9C10.4,188.6,12.7,179.2,15,170.2z M206.5,237.8H10.4v-10
		h173.1c31.8,0,49.4-21.5,54.1-28.2c7.7,4.2,13.3,9.1,13.3,14.4C250.9,229.9,235.9,237.8,206.5,237.8z"/>
</g>
</svg>
