<?xml version="1.0" encoding="utf-8"?>
<!-- Generator: Adobe Illustrator 23.0.1, SVG Export Plug-In . SVG Version: 6.00 Build 0)  -->
<svg version="1.1" id="Layer_1" xmlns="http://www.w3.org/2000/svg" xmlns:xlink="http://www.w3.org/1999/xlink" x="0px" y="0px"
	 viewBox="0 0 256 256" style="enable-background:new 0 0 256 256;" xml:space="preserve">
<style type="text/css">
	.st0{fill:none;stroke:#000000;stroke-width:8;stroke-linejoin:round;stroke-miterlimit:10;}
	.st1{fill:none;stroke:#000000;stroke-width:8;stroke-miterlimit:10;}
	.st2{fill:none;stroke:#000000;stroke-width:6;stroke-miterlimit:10;}
	.st3{fill:none;stroke:#000000;stroke-width:6;stroke-linejoin:round;stroke-miterlimit:10;}
	.st4{fill:none;stroke:#000000;stroke-width:6;stroke-linecap:round;stroke-miterlimit:10;}
	.st5{display:none;opacity:0.4;}
	.st6{fill:#FFFFFF;stroke:#000000;stroke-width:6;stroke-miterlimit:10;}
	.st7{fill:none;}
	.st8{fill:#1D1D1B;}
</style>
<g>
	<path d="M11.3,217.9L11.3,217.9L5.4,212c-0.8-0.8-2-0.8-2.8,0L1,213.6c-0.8,0.8-0.8,2,0,2.8l11.9,11.9c0.8,0.8,2,0.8,2.8,0l1.6-1.6
		c0.8-0.8,0.8-2,0-2.8L11.3,217.9z"/>
	<path d="M45.3,237.6L45.3,237.6l-5.9-5.9c-0.8-0.8-2-0.8-2.8,0l-1.6,1.6c-0.8,0.8-0.8,2,0,2.8l11.9,11.9c0.8,0.8,2,0.8,2.8,0
		l1.6-1.6c0.8-0.8,0.8-2,0-2.8L45.3,237.6z"/>
	<path d="M21.7,199.4c-0.8-0.8-2-0.8-2.8,0l-1.6,1.6c-0.8,0.8-0.8,2,0,2.8l11.9,11.9c0.8,0.8,2,0.8,2.8,0l1.6-1.6
		c0.8-0.8,0.8-2,0-2.8L21.7,199.4z"/>
	<path d="M51.8,215c-0.8-0.8-2-0.8-2.8,0l-1.6,1.6c-0.8,0.8-0.8,2,0,2.8l11.9,11.9c0.8,0.8,2,0.8,2.8,0l1.6-1.6c0.8-0.8,0.8-2,0-2.8
		L51.8,215z"/>
	<path d="M38.4,186.9c-0.8-0.8-2-0.8-2.8,0l-1.6,1.6c-0.8,0.8-0.8,2,0,2.8l11.9,11.9c0.8,0.8,2,0.8,2.8,0l1.6-1.6
		c0.8-0.8,0.8-2,0-2.8L38.4,186.9z"/>
	<path d="M64.4,198.3c-0.8-0.8-2-0.8-2.8,0l-1.6,1.6c-0.8,0.8-0.8,2,0,2.7l11.9,11.9c0.8,0.8,2,0.8,2.8,0l1.6-1.6
		c0.8-0.8,0.8-2,0-2.8L64.4,198.3z"/>
	<path d="M65.3,190.6l1.6-1.6c0.8-0.8,0.8-2,0-2.8l-11.9-11.9c-0.8-0.8-2-0.8-2.8,0l-1.6,1.6c-0.8,0.8-0.8,2,0,2.8l11.9,11.9
		C63.3,191.3,64.5,191.3,65.3,190.6z"/>
	<path d="M74.2,181.6l-1.6,1.6c-0.8,0.8-0.8,2,0,2.8l11.9,11.9c0.8,0.8,2,0.8,2.8,0l1.6-1.6c0.8-0.8,0.8-2,0-2.8l-11.9-11.9
		C76.2,180.8,74.9,180.8,74.2,181.6z"/>
	<path d="M157.2,106.9l1.6-1.6c0.8-0.8,0.8-2,0-2.7L147,90.7c-0.8-0.8-2-0.8-2.8,0l-1.6,1.6c-0.8,0.8-0.8,2,0,2.8l11.9,11.9
		C155.2,107.7,156.4,107.7,157.2,106.9z"/>
	<path d="M171.8,106.9l1.6-1.6c0.8-0.8,0.8-2,0-2.7l-11.9-11.9c-0.8-0.8-2-0.8-2.7,0l-1.6,1.6c-0.8,0.8-0.8,2,0,2.8l11.9,11.9
		C169.8,107.7,171.1,107.7,171.8,106.9z"/>
	<path d="M171.8,92.3l1.6-1.6c0.8-0.8,0.8-2,0-2.8L161.6,76c-0.8-0.8-2-0.8-2.8,0l-1.6,1.6c-0.8,0.8-0.8,2,0,2.8l11.9,11.9
		C169.8,93.1,171.1,93.1,171.8,92.3z"/>
	<path d="M186.5,92.3l1.6-1.6c0.8-0.8,0.8-2,0-2.8L176.2,76c-0.8-0.8-2-0.8-2.8,0l-1.6,1.6c-0.8,0.8-0.8,2,0,2.8l11.9,11.9
		C184.5,93.1,185.7,93.1,186.5,92.3z"/>
	<path d="M183.7,77.7c0.8,0.8,2,0.8,2.8,0l1.6-1.6c0.8-0.8,0.8-2,0-2.8l-11.9-11.9c-0.8-0.8-2-0.8-2.8,0l-1.6,1.6
		c-0.8,0.8-0.8,2,0,2.8L183.7,77.7z"/>
	<path d="M201.1,77.7l1.6-1.6c0.8-0.8,0.8-2,0-2.8l-11.9-11.9c-0.8-0.8-2-0.8-2.7,0l-1.6,1.6c-0.8,0.8-0.8,2,0,2.8l11.9,11.9
		C199.1,78.4,200.3,78.4,201.1,77.7z"/>
	<path d="M202.7,58.7l-11.9-11.9c-0.8-0.8-2-0.8-2.8,0l-1.6,1.6c-0.8,0.8-0.8,2,0,2.8l11.9,11.9c0.8,0.8,2,0.8,2.8,0l1.6-1.6
		C203.5,60.7,203.5,59.4,202.7,58.7z"/>
	<path d="M215.7,63.1l1.6-1.6c0.8-0.8,0.8-2,0-2.8l-11.9-11.9c-0.8-0.8-2-0.8-2.8,0l-1.6,1.6c-0.8,0.8-0.8,2,0,2.8L213,63.1
		C213.7,63.8,215,63.8,215.7,63.1z"/>
	<path d="M213,48.4c0.8,0.8,2,0.8,2.8,0l1.6-1.6c0.8-0.8,0.8-2,0-2.8l-11.9-11.9c-0.8-0.8-2-0.8-2.8,0l-1.6,1.6
		c-0.8,0.8-0.8,2,0,2.8L213,48.4z"/>
	<path d="M227.6,48.4c0.8,0.8,2,0.8,2.8,0l1.6-1.6c0.8-0.8,0.8-2,0-2.8l-11.9-11.9c-0.8-0.8-2-0.8-2.8,0l-1.6,1.6
		c-0.8,0.8-0.8,2,0,2.7L227.6,48.4z"/>
	<path d="M227.6,33.8c0.8,0.8,2,0.8,2.8,0l1.6-1.6c0.8-0.8,0.8-2,0-2.8l-11.9-11.9c-0.8-0.8-2-0.8-2.8,0l-1.6,1.6
		c-0.8,0.8-0.8,2,0,2.8L227.6,33.8z"/>
	<path d="M242.2,33.8c0.8,0.8,2,0.8,2.8,0l1.6-1.6c0.8-0.8,0.8-2,0-2.8l-11.9-11.9c-0.8-0.8-2-0.8-2.8,0l-1.6,1.6
		c-0.8,0.8-0.8,2,0,2.8L242.2,33.8z"/>
	<path d="M252.7,62.8c-0.6-0.1-1.1,0.2-1.5,0.6L141.4,173.1c-35.3,35.3-56.6,77.3-56.8,77.7c-0.8,1.5-0.2,3.4,1.4,4.2
		c0.4,0.2,0.9,0.3,1.4,0.3c1.1,0,2.2-0.6,2.8-1.7c0.2-0.4,21.1-41.6,55.7-76.1L255.1,68.2C256.8,66.4,256.1,63.1,252.7,62.8z"/>
	<path d="M4.6,172.6c0.5,0,0.9-0.1,1.4-0.3c0.4-0.2,42.5-21.5,77.7-56.8L193,6.1c1.8-1.8,1-5.1-2.4-5.4c-0.6-0.1-1.1,0.2-1.5,0.6
		L79.4,111c-34.5,34.5-75.7,55.5-76.1,55.7c-1.5,0.8-2.1,2.6-1.4,4.2C2.4,171.9,3.5,172.6,4.6,172.6z"/>
	<path d="M90.8,171c2.1,0,4.3-1.4,4.8-4.3c0-0.2,0-0.5,0-0.7c-1-5.7-8.5-5.8-9.5,0c0,0.2,0,0.5,0,0.7C86.5,169.6,88.6,171,90.8,171z
		 M90.8,164.8c0.4,0,0.8,0.1,1.1,0.4c0.6,0.6,0.6,1.6,0,2.2c-0.6,0.6-1.6,0.6-2.2,0c-0.6-0.6-0.6-1.6,0-2.2
		C90,165,90.4,164.8,90.8,164.8z"/>
	<path d="M103,175.9l17.2-17.2l13.9,4.7c1.1,0.4,2.2-0.2,2.5-1.3l0.3-1.2c0.1-0.2,6.7-24.1,23.3-40.9l0.8-0.8c0.8-0.8,0.7-2,0-2.7
		l-20.2-20.2c-0.8-0.8-2-0.8-2.7,0l-0.8,0.8c-16.8,16.6-40.7,23.3-40.9,23.3l-1.2,0.3c-1.1,0.3-1.7,1.4-1.3,2.5l4.7,13.9l-17.2,17.2
		c-3.3,3.3-5.1,7.6-5.3,11.8l-4.2-4.2c-0.8-0.8-2-0.8-2.8,0l-1.6,1.6c-0.8,0.8-0.8,2,0,2.8L79.2,178c0.6,0.6,1.6,0.7,2.4,0.3
		c2.5,1.9,5.6,2.9,8.9,2.9C95,181.2,99.6,179.3,103,175.9z M85.6,158.6l15.1-15.1c0,0.1,0,0.2,0,0.2c0,2.1,0.8,4.1,2.3,5.6l4.8,4.8
		c1.5,1.5,3.5,2.3,5.6,2.3c0.1,0,0.2,0,0.2,0l-15.1,15.1c-2.2,2.2-5.2,3.5-8.1,3.5c-2.3,0-4.5-0.8-6-2.4
		C80.9,169.1,81.4,162.8,85.6,158.6z M101.7,127.1c-0.3-1,0.2-2.1,1.2-2.5c7.6-2.7,22.4-8.9,35.1-20c0.8-0.7,1.9-0.7,2.7,0.1
		l11.7,11.7c0.7,0.7,0.8,1.9,0.1,2.7c-11.1,12.7-17.3,27.5-20,35.1c-0.4,1-1.4,1.5-2.5,1.2l-6-2c0.9-1.9,1.5-4,1.7-6l8-8l0,0
		c3.1-3.1,3.1-8.1,0-11.2l-4.8-4.8c-3.1-3.1-8.1-3.1-11.2,0l-8,8c-2.1,0.2-4.1,0.8-6,1.7L101.7,127.1z M107,143.7
		c0-0.5,0.2-0.9,0.5-1.2l14.7-14.7c0.3-0.3,0.8-0.5,1.2-0.5c0.4,0,0.9,0.2,1.2,0.5l4.8,4.8c0.7,0.7,0.7,1.8,0,2.5l-14.7,14.7
		c-0.6,0.7-1.8,0.7-2.4,0l-4.8-4.8C107.1,144.6,107,144.1,107,143.7z"/>
</g>
</svg>
