<?xml version="1.0" encoding="utf-8"?>
<!-- Generator: Adobe Illustrator 23.0.1, SVG Export Plug-In . SVG Version: 6.00 Build 0)  -->
<svg version="1.1" id="Layer_1" xmlns="http://www.w3.org/2000/svg" xmlns:xlink="http://www.w3.org/1999/xlink" x="0px" y="0px"
	 viewBox="0 0 256 256" style="enable-background:new 0 0 256 256;" xml:space="preserve">
<style type="text/css">
	.st0{fill:none;stroke:#000000;stroke-width:8;stroke-linejoin:round;stroke-miterlimit:10;}
	.st1{fill:none;stroke:#000000;stroke-width:8;stroke-miterlimit:10;}
	.st2{fill:none;stroke:#000000;stroke-width:6;stroke-miterlimit:10;}
	.st3{fill:none;stroke:#000000;stroke-width:6;stroke-linejoin:round;stroke-miterlimit:10;}
	.st4{fill:none;stroke:#000000;stroke-width:6;stroke-linecap:round;stroke-miterlimit:10;}
	.st5{display:none;opacity:0.4;}
	.st6{fill:#FFFFFF;stroke:#000000;stroke-width:6;stroke-miterlimit:10;}
	.st7{fill:none;}
	.st8{fill:#1D1D1B;}
</style>
<path class="st7" d="M248.2,52.6c0,2,0.4,3.5,0.7,4.4c0.4-0.9,0.7-2.4,0.7-4.4c0-2-0.4-3.5-0.7-4.4
	C248.6,49.1,248.2,50.6,248.2,52.6z"/>
<path class="st7" d="M241,52.2c0-1.8,0.2-3.5,0.7-5h-39c-0.7,0-1,0.3-1.1,0.5c-0.4,0.6-0.7,1.8-0.1,3.6c1,3.4,4.1,5.9,6.2,5.9h34.1
	C241.2,55.8,241,54.1,241,52.2z"/>
<ellipse class="st7" cx="126.1" cy="30.3" rx="29.5" ry="7.4"/>
<path class="st7" d="M76.7,42.9c13,4.2,30.3,6.5,48.8,6.5s35.8-2.3,48.8-6.5c11.4-3.7,18.4-8.7,18.4-13.1s-7.1-9.4-18.4-13.1
	c-13-4.2-30.3-6.5-48.8-6.5s-35.8,2.3-48.8,6.5c-11.4,3.7-18.4,8.7-18.4,13.1S65.4,39.2,76.7,42.9z M126.1,16.6
	c17.3,0,35.8,4.3,35.8,13.7S143.3,44,126.1,44s-35.8-4.3-35.8-13.7S108.8,16.6,126.1,16.6z"/>
<path class="st7" d="M194.4,53.6c-1.1-3.6-0.7-7,1.1-9.4c1.4-1.9,3.4-2.9,5.8-3.1l-3.7-5.6c-7.5,13.2-40.6,20.2-72,20.2
	c-31.3,0-64.3-7-71.9-20.1L29.2,73.5C30,80.2,40,87.3,56.3,92.5c6.5,2.1,13.8,3.9,21.7,5.3c7.1-7.6,13.4-13.7,17.8-17.8
	c1.7-1.6,3.8-2.6,6-2.7c3-0.2,5.8,1,7.7,3.2c3.4,3.9,3.2,9.7-0.6,13.2c-1.6,1.5-4.2,4-7.4,7.2c8,0.7,16.2,1,24.7,1
	c26.4,0,51.2-3.3,69.8-9.3c16.3-5.3,26.3-12.3,27.1-19l-6.2-9.2h-9.9C201.7,64.2,196.2,59.6,194.4,53.6z"/>
<path class="st7" d="M152.3,244.9c0.1,0.4,0.3,0.6,0.4,0.7c0.2,0.1,0.4,0.2,0.8,0.2c20.9-3.7,48.4-9.4,59.3-11.7
	c0.4-0.1,0.6-0.3,0.7-0.5c0.1-0.1,0.2-0.4,0.1-0.8l-3.5-16.5c-0.1-0.6-0.7-0.9-1.2-0.8c-10.7,2.2-37.9,7.9-58.6,11.6
	c-0.6,0.1-1,0.6-0.9,1.2l2.2,12.4L152.3,244.9z"/>
<path class="st7" d="M214.3,114.2c-23.5,7.6-54.7,11.8-87.9,11.8c-15.9,0-31.3-1-45.7-2.8c-5.9,6.9-12.1,14.5-17.7,22.4
	c17.8,3.5,39.3,5.7,63.4,5.7c71.6,0,119.7-19,119.7-36.7V96.9C239.9,103.5,229.1,109.4,214.3,114.2z"/>
<path class="st7" d="M228.7,70.7c0.4,0.6,0.6,1.3,0.6,2.1c-0.2,10.2-11,19.1-31.5,25.7c-19.2,6.2-44.7,9.7-71.8,9.7
	c-10.5,0-20.7-0.5-30.4-1.5c-3.1,3.2-6.6,6.9-10.2,10.9c12.4,1.4,26.1,2.2,40.6,2.2c71.6,0,119.7-19,119.7-36.7
	c0-6.4-6.4-13.1-18.1-18.9h-3.3L228.7,70.7z"/>
<path class="st7" d="M63.3,114.1c3.2-3.8,6.5-7.5,9.6-10.9c-6.6-1.3-12.9-2.9-18.6-4.8c-20.6-6.7-31.5-15.7-31.5-25.9
	c0-0.6,0.2-1.2,0.5-1.7L29,62C14.5,68.3,6.3,75.7,6.3,83C6.3,94.8,27.7,107.2,63.3,114.1z"/>
<path class="st7" d="M58.6,119.6c-7.3-1.5-14.2-3.3-20.5-5.4c-14.8-4.8-25.6-10.7-31.9-17.3v17.7c0,9.4,13.5,19.1,36.7,26.1
	c3.7-5.5,7.8-11.3,12.5-17.2C56.5,122.2,57.5,120.9,58.6,119.6z"/>
<path d="M126.1,44c17.3,0,35.8-4.3,35.8-13.7s-18.6-13.7-35.8-13.7s-35.8,4.3-35.8,13.7S108.8,44,126.1,44z M126.1,23
	c19.2,0,29.5,5.2,29.5,7.4s-10.3,7.4-29.5,7.4s-29.5-5.2-29.5-7.4S106.9,23,126.1,23z"/>
<path d="M256.1,52.7c0-6.7-3-11.5-7.1-11.5h-40.1l-11.3-16.7c-7.3-13.2-40.5-20.3-72-20.3c-31.5,0-64.7,7.1-72,20.3L35,53.1
	C12.2,61.1,0.2,71.4,0.2,83.1v31.5c0,12.1,13.6,23.1,38.2,31c0.4,0.1,0.9,0.3,1.4,0.4c-16.9,27.3-21,49.7-12.2,66.7
	c13.1,25.1,39.1,37.8,77.2,37.8c16.4,0,31.6-2.4,41.7-4.1c0.5,1.5,1.4,2.8,2.8,3.7c1.3,0.9,2.7,1.3,4.2,1.3c0.4,0,0.9,0,1.3-0.1
	c21-3.7,48.6-9.4,59.4-11.7c1.9-0.4,3.6-1.5,4.7-3.2c0.9-1.4,1.3-3,1.2-4.6l12.4-2.7l-1.4-6.1l-12.3,2.7l-1.3-5.9l12.3-2.7l-1.4-6.1
	l-12.3,2.7c-1.2-3.4-4.8-5.6-8.5-4.8c-10.7,2.2-37.8,7.8-58.4,11.5c-3.6,0.6-6.2,3.9-6.1,7.4c-24.4,4.2-80.2,12.1-98.9-23.9
	c-5.9-11.4-0.8-29.7,14.7-53c19.9,4.2,43,6.4,67.2,6.4c33.1,0,64.3-4.2,87.8-11.8c24.6-7.9,38.2-19,38.2-31V83.1
	c0-6.7-4.2-13.1-12.1-18.8h8.9C253.1,64.2,256.1,59.4,256.1,52.7z M222.9,73.5c-0.8,6.7-10.8,13.8-27.1,19
	c-18.6,6-43.4,9.3-69.8,9.3c-8.4,0-16.7-0.3-24.7-1c3.2-3.2,5.8-5.6,7.4-7.2c4.3-4,4.1-10.9-0.9-14.6c-0.9-0.7-2-1.2-3.1-1.5
	c-3.3-0.8-6.6,0-8.9,2.3c-4.3,4.1-10.7,10.3-18,18c-7.9-1.4-15.2-3.2-21.7-5.3C40,87.3,30,80.2,29.2,73.5l24.4-37.7
	c7.6,13.1,40.6,20.1,71.9,20.1c31.4,0,64.5-7.1,72-20.2l3.7,5.6c-2.4,0.1-4.4,1.2-5.8,3.1c-1.8,2.4-2.2,5.8-1.1,9.4
	c1.8,6,7.3,10.6,12.5,10.6h9.9L222.9,73.5z M38.6,207.3c20.8,40.1,79.8,31.7,105.5,27.3l1.1,6.2c-9.9,1.7-24.8,4-40.6,4
	c-35.6,0-59.8-11.6-71.7-34.6c-9.9-19.1-0.6-47,27.6-82.8c15.1-19.2,31.4-35.2,39.7-43.1c0.6-0.6,1.3-0.9,2.1-0.9c0,0,0.1,0,0.1,0
	c0.9,0,1.6,0.4,2.2,1.1c1.1,1.3,1.1,3.2-0.2,4.4C95.7,97.1,19.2,170,38.6,207.3z M207.5,57.2c-2.1,0-5.1-2.5-6.2-5.9
	c-0.5-1.8-0.3-3,0.1-3.6c0.2-0.2,0.5-0.5,1.1-0.5h39c-0.4,1.5-0.7,3.2-0.7,5c0,1.8,0.2,3.5,0.7,5H207.5z M249.7,52.6
	c0,2-0.4,3.5-0.7,4.4c-0.4-0.9-0.7-2.4-0.7-4.4c0-2,0.4-3.5,0.7-4.4C249.3,49.1,249.7,50.6,249.7,52.6z M76.7,16.7
	c13-4.2,30.3-6.5,48.8-6.5s35.8,2.3,48.8,6.5c11.4,3.7,18.4,8.7,18.4,13.1s-7.1,9.4-18.4,13.1c-13,4.2-30.3,6.5-48.8,6.5
	s-35.8-2.3-48.8-6.5c-11.4-3.7-18.4-8.7-18.4-13.1S65.4,20.4,76.7,16.7z M29,62l-5.7,8.7c-0.3,0.5-0.5,1.1-0.5,1.7
	c0,10.3,10.9,19.3,31.5,25.9c5.7,1.8,11.9,3.4,18.6,4.8c-3.1,3.4-6.4,7.1-9.6,10.9C27.7,107.2,6.3,94.8,6.3,83
	C6.3,75.7,14.5,68.3,29,62z M6.2,114.6V96.9c6.3,6.6,17.1,12.5,31.9,17.3c6.3,2,13.2,3.8,20.5,5.4c-1.1,1.3-2.1,2.6-3.2,4
	c-4.7,5.9-8.8,11.7-12.5,17.2C19.6,133.7,6.2,124,6.2,114.6z M150.3,227.1c20.7-3.7,47.9-9.3,58.6-11.6c0.6-0.1,1.1,0.2,1.2,0.8
	l3.5,16.5c0.1,0.4-0.1,0.7-0.1,0.8c-0.1,0.2-0.3,0.4-0.7,0.5c-10.9,2.3-38.4,8-59.3,11.7c-0.4,0.1-0.6-0.1-0.8-0.2
	c-0.1-0.1-0.4-0.3-0.4-0.7l-0.7-4.2l-2.2-12.4C149.3,227.7,149.7,227.2,150.3,227.1z M246.2,114.6c0,17.7-48.1,36.7-119.7,36.7
	c-24.1,0-45.5-2.1-63.4-5.7c5.6-8,11.8-15.6,17.7-22.4c14.4,1.8,29.8,2.8,45.7,2.8c33.2,0,64.4-4.2,87.9-11.8
	c14.8-4.8,25.6-10.7,31.9-17.3V114.6z M245.8,83.1c0,17.7-48.1,36.7-119.7,36.7c-14.6,0-28.2-0.8-40.6-2.2c3.6-4,7.1-7.7,10.2-10.9
	c9.7,1,20,1.5,30.4,1.5c27.1,0,52.5-3.4,71.8-9.7c20.5-6.6,31.4-15.5,31.5-25.7c0-0.7-0.2-1.5-0.6-2.1l-4.4-6.5h3.3
	C239.4,70.1,245.8,76.8,245.8,83.1z"/>
</svg>
