<?xml version="1.0" encoding="utf-8"?>
<!-- Generator: Adobe Illustrator 23.0.1, SVG Export Plug-In . SVG Version: 6.00 Build 0)  -->
<svg version="1.1" id="Layer_1" xmlns="http://www.w3.org/2000/svg" xmlns:xlink="http://www.w3.org/1999/xlink" x="0px" y="0px"
	 viewBox="0 0 256 256" style="enable-background:new 0 0 256 256;" xml:space="preserve">
<style type="text/css">
	.st0{fill:none;stroke:#000000;stroke-width:8;stroke-linejoin:round;stroke-miterlimit:10;}
	.st1{fill:none;stroke:#000000;stroke-width:8;stroke-miterlimit:10;}
	.st2{fill:none;stroke:#000000;stroke-width:6;stroke-miterlimit:10;}
	.st3{fill:none;stroke:#000000;stroke-width:6;stroke-linejoin:round;stroke-miterlimit:10;}
	.st4{fill:none;stroke:#000000;stroke-width:6;stroke-linecap:round;stroke-miterlimit:10;}
	.st5{display:none;opacity:0.4;}
	.st6{fill:#FFFFFF;stroke:#000000;stroke-width:6;stroke-miterlimit:10;}
	.st7{fill:none;}
	.st8{fill:#1D1D1B;}
</style>
<path d="M126.1,91.3c17.3,0,35.8-4.3,35.8-13.7s-18.6-13.7-35.8-13.7s-35.8,4.3-35.8,13.7S108.8,91.3,126.1,91.3z M126.1,70.2
	c19.2,0,29.5,5.2,29.5,7.4c0,2.1-10.3,7.4-29.5,7.4s-29.5-5.2-29.5-7.4C96.6,75.4,106.9,70.2,126.1,70.2z"/>
<path d="M255.9,99.7c0-6.7-3-11.5-7.1-11.5h-40.1l-11.3-16.7c-7.3-13.2-40.5-20.3-72-20.3c-31.5,0-64.7,7.1-72,20.3l-18.6,28.6
	C12,108.1,0,118.4,0,130.1v31.5c0,12.1,13.6,23.1,38.2,31c23.5,7.6,54.7,11.8,87.8,11.8s64.3-4.2,87.8-11.8
	c24.6-7.9,38.2-19,38.2-31v-31.5c0-6.7-4.2-13.1-12.1-18.8h8.9C252.9,111.2,255.9,106.4,255.9,99.7z M223,120.5
	c-0.8,6.7-10.8,13.8-27.1,19c-18.6,6-43.4,9.3-69.8,9.3s-51.2-3.3-69.8-9.3C40,134.3,30,127.2,29.2,120.5l24.4-37.7
	c7.6,13.1,40.6,20.1,71.9,20.1c31.4,0,64.5-7.1,72-20.2l3.7,5.6c-2.4,0.1-4.4,1.2-5.8,3.1c-1.8,2.4-2.2,5.8-1.1,9.4
	c1.8,6,7.3,10.6,12.5,10.6h9.8L223,120.5z M207.5,105.2c-2.1,0-5.1-2.5-6.2-5.9c-0.5-1.8-0.3-3,0.1-3.6c0.2-0.2,0.5-0.5,1.1-0.5h39
	c-0.4,1.5-0.7,3.2-0.7,5c0,1.8,0.2,3.5,0.7,5H207.5z M249.7,99.8c0,2-0.4,3.5-0.7,4.4c-0.4-0.9-0.7-2.4-0.7-4.4s0.4-3.5,0.7-4.4
	C249.3,96.4,249.7,97.8,249.7,99.8z M76.7,64c13-4.2,30.3-6.5,48.8-6.5s35.8,2.3,48.8,6.5c11.4,3.7,18.4,8.7,18.4,13.1
	s-7.1,9.4-18.4,13.1c-13,4.2-30.3,6.5-48.8,6.5s-35.8-2.3-48.8-6.5c-11.4-3.7-18.4-8.7-18.4-13.1S65.4,67.6,76.7,64z M246,161.9
	c0,17.7-48,36.6-119.5,36.6S7,179.6,7,161.9v-17.7c6.3,6.6,17,12.5,31.8,17.3c23.5,7.6,54.6,11.8,87.7,11.8s64.2-4.2,87.7-11.8
	c14.8-4.8,25.5-10.7,31.8-17.3V161.9z M245.8,130.1c0,17.7-48.1,36.7-119.7,36.7S6.3,147.8,6.3,130.1c0-7.3,8.1-14.7,22.7-21
	l-5.7,8.8c-0.3,0.4-0.5,0.9-0.5,1.5c-0.1,10.4,10.8,19.4,31.5,26.1c19.2,6.2,44.7,9.7,71.8,9.7s52.5-3.4,71.8-9.7
	c20.7-6.7,31.6-15.7,31.5-26.1c0-0.6-0.2-1.2-0.5-1.7l-4.4-6.6h3.3C239.4,117.1,245.8,123.8,245.8,130.1z"/>
</svg>
