<?xml version="1.0" encoding="utf-8"?>
<!-- Generator: Adobe Illustrator 23.0.1, SVG Export Plug-In . SVG Version: 6.00 Build 0)  -->
<svg version="1.1" id="Layer_1" xmlns="http://www.w3.org/2000/svg" xmlns:xlink="http://www.w3.org/1999/xlink" x="0px" y="0px"
	 viewBox="0 0 256 256" style="enable-background:new 0 0 256 256;" xml:space="preserve">
<style type="text/css">
	.st0{fill:none;stroke:#000000;stroke-width:8;stroke-linejoin:round;stroke-miterlimit:10;}
	.st1{fill:none;stroke:#000000;stroke-width:8;stroke-miterlimit:10;}
	.st2{fill:none;stroke:#000000;stroke-width:6;stroke-miterlimit:10;}
	.st3{fill:none;stroke:#000000;stroke-width:6;stroke-linejoin:round;stroke-miterlimit:10;}
	.st4{fill:none;stroke:#000000;stroke-width:6;stroke-linecap:round;stroke-miterlimit:10;}
	.st5{display:none;opacity:0.4;}
	.st6{fill:#FFFFFF;stroke:#000000;stroke-width:6;stroke-miterlimit:10;}
	.st7{fill:none;}
	.st8{fill:#1D1D1B;}
</style>
<path d="M64,184.3c0.8,0.8,1.8,1.6,2.8,2.1l2.8,2c30.1,17.4,47,14.1,61.9,11.3c5.3-1,10.4-2,15.8-2c7.5,0,15.6,1.9,26.2,8l43.8,25.3
	c1.3,0.7,2.7,1.1,4.3,1.1c3.4,0,7.1-1.7,11.2-5c5.1-4.1,10.3-10.5,14.6-17.9c4.3-7.4,7.2-15.1,8.2-21.6c1.6-10.2-2.1-14-4.4-15.4
	l-43.8-25.3c-18.2-10.5-21.9-21.1-26.1-33.3c-5-14.3-10.6-30.6-40.7-48l-3.1-1.4c-1-0.6-2.1-1-3.3-1.3c-1.1-7.8-4.3-13.4-9.4-16.3
	L89.3,26.1c-16.4-9.4-46.6,13.4-69,52.1c-22.3,38.6-27,76.3-10.6,85.7l35.4,20.5C50.2,187.2,56.7,187.2,64,184.3z M247.8,178.1
	c0.8,0.5,2,2.8,1.1,8.5c-0.9,5.6-3.6,12.6-7.4,19.3c-3.8,6.6-8.5,12.5-13,16c-3.4,2.7-5.7,3.5-7,3.5c-0.4,0-0.7-0.1-0.9-0.2
	c-1.7-1-1.7-5.3-1-9c0.7-4,2.5-10.5,7.3-18.7c3.8-6.6,8.5-12.5,13-16C244.4,177.8,247,177.6,247.8,178.1L247.8,178.1z M174.8,115.8
	c4.3,12.4,8.7,25.2,29.1,37l35.6,20.6l-1.4,0.9c-0.9,0.6-1.7,1.2-2.5,1.8c-5.1,4.1-10.3,10.5-14.6,17.9c-5,8.6-8.1,17.7-8.5,24.7
	l-0.1,1.7l-35.7-20.6c-10.5-6-19.9-8.8-29.6-8.8c-6,0-11.6,1.1-17,2.1h0c-14.4,2.8-29.3,5.6-57.2-10.5l-2.8-2
	c-4.7-2.7-6.3-11-4.5-22.8c2-13.1,8-28.6,16.7-43.8c8.8-15.2,19.3-28.1,29.6-36.4c9.3-7.5,17.3-10.2,22-7.5l3.1,1.4
	C165.1,87.6,170,101.9,174.8,115.8z M127.8,62.4c-14.8,1.6-35,20-51.2,48.2c-9.2,15.9-15.4,32.3-17.6,46.1
	c-1.4,9.3-0.9,16.9,1.5,22.3c-3.9,1.4-8.5,2.1-12.2,0c-11.5-6.7-9.1-39.3,12.9-77.4s49.1-56.5,60.6-49.8
	C125.4,54,127.1,58.4,127.8,62.4z M12.8,158.6c-11.5-6.7-9.1-39.3,12.9-77.4s49.1-56.5,60.6-49.8l24,13.8
	c-16.5,4.2-37.7,24.4-54.4,53.4c-16.7,29-23.5,57.4-19,73.8L12.8,158.6z"/>
<path d="M507.3,170.3L464,145.4c-18-10.4-21.6-20.8-25.7-32.8c-4.9-14.1-10.5-30.2-40.1-47.3L334,28.6
	c-14.3-8.3-40.1,11.4-59.9,45.7c-9,15.7-15.2,31.8-17.3,45.5c-2.3,14.7,0.4,25.1,7.6,29.3l63.9,37.3c29.6,17.1,46.3,13.9,61,11.1
	c5.3-1,10.2-2,15.5-2c7.3,0,15.4,1.8,25.8,7.8l43.2,24.9c1.2,0.7,2.7,1.1,4.2,1.1c3.3,0,7-1.6,11.1-4.9c5.1-4.1,10.2-10.3,14.4-17.6
	c4.2-7.3,7.1-14.9,8.1-21.3C513.2,175.4,509.6,171.7,507.3,170.3z M388.1,190.8c-14.2,2.7-28.9,5.6-56.4-10.3l-63.9-37.3
	c-4.6-2.7-6.2-10.9-4.4-22.5c2-12.9,7.8-28.2,16.5-43.2c8.6-15,19-27.7,29.1-35.9c9.2-7.4,17.1-10.1,21.7-7.4L394.9,71
	c27.5,15.9,32.4,30,37.1,43.7c4.2,12.2,8.6,24.8,28.7,36.4l35.1,20.3l-1.4,0.9c-0.9,0.6-1.7,1.2-2.5,1.8
	c-5.1,4.1-10.2,10.3-14.4,17.6c-4.9,8.5-8,17.4-8.4,24.4l-0.1,1.6L434,197.5c-10.3-5.9-19.6-8.7-29.2-8.7
	C398.8,188.8,393.4,189.8,388.1,190.8 M503.9,176.1c0.8,0.5,2,2.8,1.1,8.4c-0.9,5.5-3.5,12.5-7.3,19c-3.8,6.5-8.4,12.3-12.8,15.8
	c-3.3,2.7-5.6,3.4-6.9,3.4c-0.4,0-0.7-0.1-0.9-0.2c-1.7-1-1.6-5.2-1-8.9c0.7-3.9,2.5-10.3,7.2-18.4c3.8-6.5,8.4-12.3,12.8-15.8
	C500.5,175.8,503.1,175.6,503.9,176.1"/>
</svg>
