<?xml version="1.0" encoding="utf-8"?>
<!-- Generator: Adobe Illustrator 23.0.1, SVG Export Plug-In . SVG Version: 6.00 Build 0)  -->
<svg version="1.1" id="Layer_1" xmlns="http://www.w3.org/2000/svg" xmlns:xlink="http://www.w3.org/1999/xlink" x="0px" y="0px"
	 viewBox="0 0 256 256" style="enable-background:new 0 0 256 256;" xml:space="preserve">
<style type="text/css">
	.st0{fill:none;stroke:#000000;stroke-width:8;stroke-linejoin:round;stroke-miterlimit:10;}
	.st1{fill:none;stroke:#000000;stroke-width:8;stroke-miterlimit:10;}
	.st2{fill:none;stroke:#000000;stroke-width:6;stroke-miterlimit:10;}
	.st3{fill:none;stroke:#000000;stroke-width:6;stroke-linejoin:round;stroke-miterlimit:10;}
	.st4{fill:none;stroke:#000000;stroke-width:6;stroke-linecap:round;stroke-miterlimit:10;}
	.st5{display:none;opacity:0.4;}
	.st6{fill:#FFFFFF;stroke:#000000;stroke-width:6;stroke-miterlimit:10;}
	.st7{fill:none;}
	.st8{fill:#1D1D1B;}
</style>
<g>
	<path class="st7" d="M188.7,81.7c-4.4,3.1-10.2,5.9-17.2,8.1c12.6,10.4,17.7,22.3,17.7,40.6v35.8c14.9-3.1,27.8-7.4,38-12.3v-42.4
		C227.2,96.4,213.1,89,188.7,81.7z"/>
	<path class="st7" d="M66.8,76c9.6,7.6,31.6,14,60,14c17.9,0,34.7-2.6,47.3-7.2c11.3-4.2,18-9.8,18-15.1c0-10.5-26.6-22.2-64.9-22.3
		c-0.6,0-1.2,0-1.8,0c-0.3,0-0.6,0-0.9,0c-0.2,0-0.4,0-0.5,0c-0.3,0-0.6,0-1,0c-16.5,0.3-31.8,2.9-43.5,7.2
		c-11.3,4.2-18,9.8-18,15.1c0,2.7,1.7,5.4,4.9,8c0.1,0,0.2-0.1,0.3-0.1L66.8,76z"/>
	<path class="st7" d="M28.2,111.5v42.4c10.2,5,23.1,9.2,38,12.3v-35.8c0-18,4.9-29.7,17-40c-7.4-2.2-13.6-4.9-18.3-8.1
		C34.3,91.7,28.2,100.2,28.2,111.5z"/>
	<path class="st7" d="M250.9,87.6c0-0.1,0-0.3,0-0.4c0-0.2,0-0.4-0.1-0.5c0-0.2-0.1-0.4-0.1-0.6c0-0.2-0.1-0.3-0.1-0.5
		c0-0.2-0.1-0.4-0.1-0.6c0-0.2-0.1-0.3-0.1-0.5c-0.1-0.2-0.1-0.4-0.2-0.6c-0.1-0.2-0.1-0.3-0.2-0.5c-0.1-0.2-0.2-0.4-0.2-0.6
		c-0.1-0.2-0.1-0.3-0.2-0.5c-0.1-0.2-0.2-0.4-0.3-0.6c-0.1-0.2-0.1-0.3-0.2-0.5c-0.1-0.2-0.2-0.4-0.3-0.6c-0.1-0.1-0.2-0.3-0.2-0.4
		c-0.1-0.2-0.3-0.4-0.4-0.6c-0.1-0.1-0.2-0.3-0.3-0.4c-0.1-0.2-0.3-0.4-0.5-0.6c-0.1-0.1-0.2-0.3-0.3-0.4c-0.2-0.2-0.4-0.5-0.5-0.7
		c-0.1-0.1-0.2-0.2-0.3-0.3c-0.2-0.2-0.4-0.5-0.6-0.7c-0.1-0.1-0.2-0.2-0.2-0.3c-0.2-0.3-0.5-0.5-0.8-0.8c-0.1-0.1-0.1-0.1-0.2-0.2
		c-0.3-0.3-0.6-0.6-1-1c0,0,0,0,0,0c-1.4-1.3-3-2.6-4.7-3.9c0,0-0.1,0-0.1-0.1c-0.4-0.3-0.8-0.6-1.2-0.9c-0.1,0-0.1-0.1-0.2-0.1
		c-0.4-0.3-0.8-0.5-1.2-0.8c-0.1-0.1-0.2-0.1-0.3-0.2c-0.4-0.2-0.8-0.5-1.1-0.7c-0.1-0.1-0.3-0.2-0.4-0.2c-0.4-0.2-0.7-0.4-1.1-0.7
		c-0.1-0.1-0.3-0.2-0.4-0.2c-0.4-0.2-0.7-0.4-1.1-0.6c-0.2-0.1-0.3-0.2-0.5-0.3c-0.4-0.2-0.7-0.4-1.1-0.6c-0.2-0.1-0.4-0.2-0.5-0.3
		c-0.4-0.2-0.8-0.4-1.1-0.6c-0.2-0.1-0.4-0.2-0.6-0.3c-0.4-0.2-0.8-0.4-1.2-0.6c-0.2-0.1-0.4-0.2-0.6-0.3c-0.4-0.2-0.8-0.4-1.2-0.5
		c-0.2-0.1-0.4-0.2-0.6-0.3c-0.4-0.2-0.8-0.4-1.2-0.5c-0.2-0.1-0.5-0.2-0.7-0.3c-0.4-0.2-0.8-0.3-1.2-0.5c-0.2-0.1-0.5-0.2-0.7-0.3
		c-0.4-0.2-0.8-0.3-1.2-0.5c-0.2-0.1-0.5-0.2-0.8-0.3c-0.4-0.2-0.8-0.3-1.2-0.5c-0.3-0.1-0.5-0.2-0.8-0.3c-0.4-0.2-0.8-0.3-1.3-0.5
		c-0.3-0.1-0.5-0.2-0.8-0.3c-0.4-0.1-0.9-0.3-1.3-0.4c-0.3-0.1-0.6-0.2-0.8-0.3c-0.4-0.1-0.9-0.3-1.3-0.4c-0.3-0.1-0.6-0.2-0.9-0.3
		c-0.4-0.1-0.9-0.3-1.3-0.4c-0.3-0.1-0.6-0.2-0.9-0.3c-0.4-0.1-0.9-0.3-1.3-0.4c-0.3-0.1-0.6-0.2-0.9-0.3c-0.5-0.1-0.9-0.3-1.4-0.4
		c-0.3-0.1-0.6-0.2-0.9-0.3c-0.5-0.1-0.9-0.3-1.4-0.4c-0.3-0.1-0.6-0.2-1-0.3c-0.5-0.1-0.9-0.2-1.4-0.4c-0.3-0.1-0.7-0.2-1-0.3
		c-0.5-0.1-0.9-0.2-1.4-0.4c-0.3-0.1-0.7-0.2-1-0.2c-0.5-0.1-0.9-0.2-1.4-0.3c-0.3-0.1-0.7-0.2-1-0.2c-0.5-0.1-1-0.2-1.4-0.3
		c-0.4-0.1-0.7-0.2-1.1-0.2c-0.5-0.1-1-0.2-1.4-0.3c-0.4-0.1-0.7-0.2-1.1-0.2c-0.5-0.1-1-0.2-1.5-0.3c-0.4-0.1-0.7-0.1-1.1-0.2
		c-0.5-0.1-1-0.2-1.5-0.3c-0.1,0-0.2,0-0.3-0.1c7.6,4,12.6,8.9,13.9,14.4c16.3,0.4,31.1,4.6,41.8,11.9
		C244.2,79.8,248.1,83.5,250.9,87.6z"/>
	<path class="st7" d="M125.2,122.9V95.7c-12.8-0.1-24.5-1.4-34.6-3.7c-13.5,10-18.4,20.3-18.4,38.4v37.2c16.1,3,34.1,4.7,53,4.9
		V122.9z"/>
	<path class="st7" d="M68.3,51.1c-0.2,0-0.3,0.1-0.5,0.1c-0.4,0.1-0.7,0.2-1.1,0.2c-0.5,0.1-1,0.2-1.4,0.3c-0.4,0.1-0.7,0.2-1.1,0.2
		c-0.5,0.1-1,0.2-1.4,0.3c-0.3,0.1-0.7,0.2-1,0.2c-0.5,0.1-1,0.2-1.4,0.3c-0.3,0.1-0.7,0.2-1,0.2c-0.5,0.1-0.9,0.2-1.4,0.4
		c-0.3,0.1-0.7,0.2-1,0.3c-0.5,0.1-0.9,0.2-1.4,0.4c-0.3,0.1-0.7,0.2-1,0.3c-0.5,0.1-0.9,0.2-1.4,0.4c-0.3,0.1-0.6,0.2-0.9,0.3
		c-0.5,0.1-0.9,0.3-1.4,0.4c-0.3,0.1-0.6,0.2-0.9,0.3c-0.5,0.1-0.9,0.3-1.3,0.4c-0.3,0.1-0.6,0.2-0.9,0.3c-0.4,0.1-0.9,0.3-1.3,0.4
		c-0.3,0.1-0.6,0.2-0.9,0.3c-0.4,0.1-0.9,0.3-1.3,0.4c-0.3,0.1-0.6,0.2-0.8,0.3c-0.4,0.1-0.9,0.3-1.3,0.4c-0.3,0.1-0.5,0.2-0.8,0.3
		c-0.4,0.2-0.8,0.3-1.3,0.5c-0.3,0.1-0.5,0.2-0.8,0.3c-0.4,0.2-0.8,0.3-1.2,0.5c-0.3,0.1-0.5,0.2-0.8,0.3c-0.4,0.2-0.8,0.3-1.2,0.5
		c-0.2,0.1-0.5,0.2-0.7,0.3c-0.4,0.2-0.8,0.3-1.2,0.5c-0.2,0.1-0.5,0.2-0.7,0.3c-0.4,0.2-0.8,0.4-1.2,0.5c-0.2,0.1-0.4,0.2-0.6,0.3
		c-0.4,0.2-0.8,0.4-1.2,0.5c-0.2,0.1-0.4,0.2-0.6,0.3c-0.4,0.2-0.8,0.4-1.2,0.6c-0.2,0.1-0.4,0.2-0.6,0.3c-0.4,0.2-0.8,0.4-1.1,0.6
		c-0.2,0.1-0.4,0.2-0.5,0.3c-0.4,0.2-0.8,0.4-1.1,0.6c-0.2,0.1-0.3,0.2-0.5,0.3c-0.4,0.2-0.8,0.4-1.1,0.6c-0.1,0.1-0.3,0.2-0.4,0.2
		c-0.4,0.2-0.8,0.4-1.1,0.7c-0.1,0.1-0.3,0.2-0.4,0.2c-0.4,0.2-0.8,0.5-1.1,0.7c-0.1,0.1-0.2,0.1-0.3,0.2c-0.4,0.3-0.8,0.5-1.2,0.8
		c-0.1,0-0.1,0.1-0.2,0.1c-0.4,0.3-0.8,0.6-1.2,0.9c0,0-0.1,0-0.1,0.1c-1.8,1.3-3.3,2.6-4.7,3.9c0,0,0,0,0,0c-0.3,0.3-0.7,0.6-1,1
		c-0.1,0.1-0.1,0.1-0.2,0.2c-0.3,0.3-0.5,0.5-0.8,0.8c-0.1,0.1-0.2,0.2-0.2,0.3c-0.2,0.2-0.4,0.5-0.6,0.7c-0.1,0.1-0.2,0.2-0.3,0.3
		C9.3,77.8,9.2,78,9,78.2c-0.1,0.1-0.2,0.3-0.3,0.4c-0.2,0.2-0.3,0.4-0.5,0.6c-0.1,0.1-0.2,0.3-0.3,0.4c-0.1,0.2-0.3,0.4-0.4,0.6
		c-0.1,0.1-0.2,0.3-0.2,0.4c-0.1,0.2-0.2,0.4-0.3,0.6c-0.1,0.2-0.2,0.3-0.2,0.5c-0.1,0.2-0.2,0.4-0.3,0.6c-0.1,0.2-0.1,0.3-0.2,0.5
		c-0.1,0.2-0.2,0.4-0.2,0.6C6,83.6,5.9,83.8,5.9,84c-0.1,0.2-0.1,0.4-0.2,0.6c-0.1,0.2-0.1,0.3-0.1,0.5c-0.1,0.2-0.1,0.4-0.1,0.6
		c0,0.2-0.1,0.3-0.1,0.5c0,0.2-0.1,0.4-0.1,0.6c0,0.2,0,0.4-0.1,0.5c0,0.1,0,0.3,0,0.4c2.9-4.1,6.7-7.8,11.4-11
		c10.2-6.9,24-11,39.3-11.8C57,59.6,61.4,55,68.3,51.1z"/>
	<path class="st7" d="M199.3,71.8c-0.5,2.2-1.7,4.2-3.3,6.2c20.6,6.4,38.2,14.4,38.2,33.5v38c10.8-6.3,17-13.7,17-21.5v-21.6
		C251.2,87.2,229.1,72.6,199.3,71.8z"/>
	<path class="st7" d="M128.2,178.2c-58.4,0-106.6-14.2-123-34.4V167c0,23.7,56.3,43.7,123,43.7s123-20,123-43.7v-23.1
		C234.8,164,186.6,178.2,128.2,178.2z"/>
	<path class="st7" d="M22.2,149.5v-38c0-18.5,16.4-26.6,36.2-32.9c-1.9-2.1-3.2-4.4-3.8-6.7C26.1,73.4,5.2,87.7,5.2,106.4V128
		C5.2,135.8,11.4,143.2,22.2,149.5z"/>
	<path class="st7" d="M184.2,130.4c0-18.4-5-28.7-19-38.8c-9.8,2.4-21.4,3.8-34,4.1v27.3v49.6c18.9-0.2,36.9-1.9,53-4.9V130.4z"/>
	<path d="M128,38.7l-0.8,1h-0.4c-0.4-0.4-0.8-0.4-1.3-0.3c-0.6,0-1.1,0-1.7,0c-0.4,0-0.7,0-1.1,0C52.9,40.5-1,61.9-0.8,89v39.5V167
		C-1,194.8,55.7,216.6,128,216.6s129-21.8,129.2-49.7v-38.4V89C257,61.2,200.3,39.4,128,38.7z M197.7,64.7
		c-1.3-5.5-6.2-10.4-13.9-14.4c0.1,0,0.2,0,0.3,0.1c0.5,0.1,1,0.2,1.5,0.3c0.4,0.1,0.7,0.1,1.1,0.2c0.5,0.1,1,0.2,1.5,0.3
		c0.4,0.1,0.7,0.2,1.1,0.2c0.5,0.1,1,0.2,1.4,0.3c0.4,0.1,0.7,0.2,1.1,0.2c0.5,0.1,1,0.2,1.4,0.3c0.3,0.1,0.7,0.2,1,0.2
		c0.5,0.1,1,0.2,1.4,0.3c0.3,0.1,0.7,0.2,1,0.2c0.5,0.1,0.9,0.2,1.4,0.4c0.3,0.1,0.7,0.2,1,0.3c0.5,0.1,0.9,0.2,1.4,0.4
		c0.3,0.1,0.7,0.2,1,0.3c0.5,0.1,0.9,0.2,1.4,0.4c0.3,0.1,0.6,0.2,0.9,0.3c0.5,0.1,0.9,0.3,1.4,0.4c0.3,0.1,0.6,0.2,0.9,0.3
		c0.5,0.1,0.9,0.3,1.3,0.4c0.3,0.1,0.6,0.2,0.9,0.3c0.4,0.1,0.9,0.3,1.3,0.4c0.3,0.1,0.6,0.2,0.9,0.3c0.4,0.1,0.9,0.3,1.3,0.4
		c0.3,0.1,0.6,0.2,0.8,0.3c0.4,0.1,0.9,0.3,1.3,0.4c0.3,0.1,0.5,0.2,0.8,0.3c0.4,0.2,0.8,0.3,1.3,0.5c0.3,0.1,0.5,0.2,0.8,0.3
		c0.4,0.2,0.8,0.3,1.2,0.5c0.3,0.1,0.5,0.2,0.8,0.3c0.4,0.2,0.8,0.3,1.2,0.5c0.2,0.1,0.5,0.2,0.7,0.3c0.4,0.2,0.8,0.3,1.2,0.5
		c0.2,0.1,0.5,0.2,0.7,0.3c0.4,0.2,0.8,0.4,1.2,0.5c0.2,0.1,0.4,0.2,0.6,0.3c0.4,0.2,0.8,0.4,1.2,0.5c0.2,0.1,0.4,0.2,0.6,0.3
		c0.4,0.2,0.8,0.4,1.2,0.6c0.2,0.1,0.4,0.2,0.6,0.3c0.4,0.2,0.8,0.4,1.1,0.6c0.2,0.1,0.4,0.2,0.5,0.3c0.4,0.2,0.8,0.4,1.1,0.6
		c0.2,0.1,0.3,0.2,0.5,0.3c0.4,0.2,0.8,0.4,1.1,0.6c0.1,0.1,0.3,0.2,0.4,0.2c0.4,0.2,0.8,0.4,1.1,0.7c0.1,0.1,0.3,0.2,0.4,0.2
		c0.4,0.2,0.8,0.5,1.1,0.7c0.1,0.1,0.2,0.1,0.3,0.2c0.4,0.3,0.8,0.5,1.2,0.8c0.1,0,0.1,0.1,0.2,0.1c0.4,0.3,0.8,0.6,1.2,0.9
		c0,0,0.1,0,0.1,0.1c1.8,1.3,3.3,2.6,4.7,3.9c0,0,0,0,0,0c0.3,0.3,0.7,0.6,1,1c0.1,0.1,0.1,0.1,0.2,0.2c0.3,0.3,0.5,0.5,0.8,0.8
		c0.1,0.1,0.2,0.2,0.2,0.3c0.2,0.2,0.4,0.5,0.6,0.7c0.1,0.1,0.2,0.2,0.3,0.3c0.2,0.2,0.4,0.5,0.5,0.7c0.1,0.1,0.2,0.3,0.3,0.4
		c0.2,0.2,0.3,0.4,0.5,0.6c0.1,0.1,0.2,0.3,0.3,0.4c0.1,0.2,0.3,0.4,0.4,0.6c0.1,0.1,0.2,0.3,0.2,0.4c0.1,0.2,0.2,0.4,0.3,0.6
		c0.1,0.2,0.2,0.3,0.2,0.5c0.1,0.2,0.2,0.4,0.3,0.6c0.1,0.2,0.1,0.3,0.2,0.5c0.1,0.2,0.2,0.4,0.2,0.6c0.1,0.2,0.1,0.3,0.2,0.5
		c0.1,0.2,0.1,0.4,0.2,0.6c0.1,0.2,0.1,0.3,0.1,0.5c0.1,0.2,0.1,0.4,0.1,0.6c0,0.2,0.1,0.3,0.1,0.5c0,0.2,0.1,0.4,0.1,0.6
		c0,0.2,0,0.4,0.1,0.5c0,0.1,0,0.3,0,0.4c-2.9-4.1-6.7-7.8-11.4-11C228.8,69.3,214,65.1,197.7,64.7z M227.2,153.9
		c-10.2,5-23.1,9.2-38,12.3v-35.8c0-18.3-5-30.2-17.7-40.6c7-2.2,12.8-5,17.2-8.1c24.4,7.3,38.5,14.6,38.5,29.8V153.9z M16.5,76.6
		c-4.7,3.2-8.5,6.9-11.4,11c0-0.1,0-0.3,0-0.4c0-0.2,0-0.4,0.1-0.5c0-0.2,0.1-0.4,0.1-0.6c0-0.2,0.1-0.3,0.1-0.5
		c0-0.2,0.1-0.4,0.1-0.6c0-0.2,0.1-0.3,0.1-0.5c0.1-0.2,0.1-0.4,0.2-0.6c0.1-0.2,0.1-0.3,0.2-0.5c0.1-0.2,0.2-0.4,0.2-0.6
		c0.1-0.2,0.1-0.3,0.2-0.5c0.1-0.2,0.2-0.4,0.3-0.6c0.1-0.2,0.1-0.3,0.2-0.5c0.1-0.2,0.2-0.4,0.3-0.6c0.1-0.1,0.2-0.3,0.2-0.4
		c0.1-0.2,0.3-0.4,0.4-0.6c0.1-0.1,0.2-0.3,0.3-0.4c0.1-0.2,0.3-0.4,0.5-0.6c0.1-0.1,0.2-0.3,0.3-0.4c0.2-0.2,0.4-0.5,0.5-0.7
		c0.1-0.1,0.2-0.2,0.3-0.3c0.2-0.2,0.4-0.5,0.6-0.7c0.1-0.1,0.2-0.2,0.2-0.3c0.2-0.3,0.5-0.5,0.8-0.8c0.1-0.1,0.1-0.1,0.2-0.2
		c0.3-0.3,0.6-0.6,1-1c0,0,0,0,0,0c1.4-1.3,3-2.6,4.7-3.9c0,0,0.1,0,0.1-0.1c0.4-0.3,0.8-0.6,1.2-0.9c0.1,0,0.1-0.1,0.2-0.1
		c0.4-0.3,0.8-0.5,1.2-0.8c0.1-0.1,0.2-0.1,0.3-0.2c0.4-0.2,0.8-0.5,1.1-0.7c0.1-0.1,0.3-0.2,0.4-0.2c0.4-0.2,0.7-0.4,1.1-0.7
		c0.1-0.1,0.3-0.2,0.4-0.2c0.4-0.2,0.7-0.4,1.1-0.6c0.2-0.1,0.3-0.2,0.5-0.3c0.4-0.2,0.7-0.4,1.1-0.6c0.2-0.1,0.4-0.2,0.5-0.3
		c0.4-0.2,0.8-0.4,1.1-0.6c0.2-0.1,0.4-0.2,0.6-0.3c0.4-0.2,0.8-0.4,1.2-0.6c0.2-0.1,0.4-0.2,0.6-0.3c0.4-0.2,0.8-0.4,1.2-0.5
		c0.2-0.1,0.4-0.2,0.6-0.3c0.4-0.2,0.8-0.4,1.2-0.5c0.2-0.1,0.5-0.2,0.7-0.3c0.4-0.2,0.8-0.3,1.2-0.5c0.2-0.1,0.5-0.2,0.7-0.3
		c0.4-0.2,0.8-0.3,1.2-0.5c0.2-0.1,0.5-0.2,0.8-0.3c0.4-0.2,0.8-0.3,1.2-0.5c0.3-0.1,0.5-0.2,0.8-0.3c0.4-0.2,0.8-0.3,1.3-0.5
		c0.3-0.1,0.5-0.2,0.8-0.3c0.4-0.1,0.9-0.3,1.3-0.4c0.3-0.1,0.6-0.2,0.8-0.3c0.4-0.1,0.9-0.3,1.3-0.4c0.3-0.1,0.6-0.2,0.9-0.3
		c0.4-0.1,0.9-0.3,1.3-0.4c0.3-0.1,0.6-0.2,0.9-0.3c0.4-0.1,0.9-0.3,1.3-0.4c0.3-0.1,0.6-0.2,0.9-0.3c0.5-0.1,0.9-0.3,1.4-0.4
		c0.3-0.1,0.6-0.2,0.9-0.3c0.5-0.1,0.9-0.3,1.4-0.4c0.3-0.1,0.6-0.2,1-0.3c0.5-0.1,0.9-0.2,1.4-0.4c0.3-0.1,0.7-0.2,1-0.3
		c0.5-0.1,0.9-0.2,1.4-0.4c0.3-0.1,0.7-0.2,1-0.2c0.5-0.1,0.9-0.2,1.4-0.3c0.3-0.1,0.7-0.2,1-0.2c0.5-0.1,1-0.2,1.4-0.3
		c0.4-0.1,0.7-0.2,1.1-0.2c0.5-0.1,1-0.2,1.4-0.3c0.4-0.1,0.7-0.2,1.1-0.2c0.2,0,0.3-0.1,0.5-0.1C61.4,55,57,59.6,55.8,64.8
		C40.4,65.6,26.6,69.7,16.5,76.6z M61.4,67.7c0-5.3,6.7-10.9,18-15.1c11.7-4.3,27-6.9,43.5-7.2c0.3,0,0.6,0,1,0c0.2,0,0.4,0,0.5,0
		c0.3,0,0.6,0,0.9,0c0.6,0,1.2,0,1.8,0c38.3,0.1,64.9,11.8,64.9,22.3c0,5.3-6.7,10.9-18,15.1c-12.6,4.7-29.4,7.2-47.3,7.2
		c-28.4,0-50.4-6.4-60-14l-0.1-0.4c-0.1,0-0.2,0.1-0.3,0.1C63.2,73.1,61.4,70.3,61.4,67.7z M64.9,82.3c4.7,3.2,10.9,5.9,18.3,8.1
		c-12.1,10.3-17,22-17,40v35.8c-14.9-3.1-27.8-7.4-38-12.3v-42.4C28.2,100.2,34.3,91.7,64.9,82.3z M72.2,130.4
		c0-18.1,4.9-28.4,18.4-38.4c10.1,2.2,21.8,3.6,34.6,3.7v27.3v49.6c-18.9-0.2-36.9-1.9-53-4.9V130.4z M131.2,122.9V95.6
		c12.6-0.3,24.1-1.7,34-4.1c14,10.1,19,20.4,19,38.8v37.2c-16.1,3-34.1,4.7-53,4.9V122.9z M5.2,106.4c0-18.7,20.9-33,49.4-34.5
		c0.6,2.4,1.9,4.6,3.8,6.7C38.6,84.9,22.2,93,22.2,111.5v38c-10.8-6.3-17-13.7-17-21.5V106.4z M251.2,167c0,23.7-56.3,43.7-123,43.7
		s-123-20-123-43.7v-23.1c16.4,20.2,64.6,34.4,123,34.4s106.6-14.2,123-34.4V167z M234.2,149.5v-38c0-19.1-17.5-27.1-38.2-33.5
		c1.6-2,2.8-4,3.3-6.2c29.7,0.8,51.9,15.4,51.9,34.6V128C251.2,135.8,245,143.2,234.2,149.5z"/>
</g>
</svg>
