<?xml version="1.0" encoding="utf-8"?>
<!-- Generator: Adobe Illustrator 23.0.1, SVG Export Plug-In . SVG Version: 6.00 Build 0)  -->
<svg version="1.1" id="Layer_1" xmlns="http://www.w3.org/2000/svg" xmlns:xlink="http://www.w3.org/1999/xlink" x="0px" y="0px"
	 viewBox="0 0 256 256" style="enable-background:new 0 0 256 256;" xml:space="preserve">
<style type="text/css">
	.st0{fill:none;stroke:#000000;stroke-width:8;stroke-linejoin:round;stroke-miterlimit:10;}
	.st1{fill:none;stroke:#000000;stroke-width:8;stroke-miterlimit:10;}
	.st2{fill:none;stroke:#000000;stroke-width:6;stroke-miterlimit:10;}
	.st3{fill:none;stroke:#000000;stroke-width:6;stroke-linejoin:round;stroke-miterlimit:10;}
	.st4{fill:none;stroke:#000000;stroke-width:6;stroke-linecap:round;stroke-miterlimit:10;}
	.st5{display:none;opacity:0.4;}
	.st6{fill:#FFFFFF;stroke:#000000;stroke-width:6;stroke-miterlimit:10;}
	.st7{fill:none;}
	.st8{fill:#1D1D1B;}
</style>
<path d="M45,28.7v176.8c0,8.9,5.7,16.7,14.2,19.4l90.4,28.6c6.1,1.9,9.4,2.9,12.5,2.9c3.2,0,6.3-1,12.2-2.9l33.4-11
	c1.4-0.4,2.3-1.7,2.3-3.1V39.4c0-1.4-0.9-2.7-2.3-3.2L93.8-0.2c-0.7-0.2-1.4-0.2-2.1,0l-39,12.8C45.2,15.1,45,27.3,45,28.7z
	 M159,126L159,126c0,2.3-0.9,4.2-3,5.7c-6.5,4.8-24.2,6.1-49.1-1.8C74.8,119.7,52.2,100,52,88.8V29.4c0-1.8,0.3-4,0.8-5.9
	l107.3,34.2c-1.1,3.6-1.1,7.2-1.1,7.9V126z M196.4,39.9l-29.1,9.6c-1.3,0.4-2.5,1.2-3.4,2.1L59.9,18.4l34-11.2L196.4,39.9z
	 M172.8,247.6c-2.9,1-5,1.7-6.8,2.1v-185c0-3.6,1.2-9.1,3.2-9.8L204,43.3v193.9L172.8,247.6z M52,204.9V103.5
	c9.9,12.4,30,25.1,52.9,32.5c12.6,4,24.3,6,34,6c8.4,0,15.4-1.5,20.1-4.6v111.4c-1.8-0.4-4-1.1-7.2-2.1l-90-28.5
	C56,216.4,52,211,52,204.9z"/>
</svg>
