<?xml version="1.0" encoding="utf-8"?>
<!-- Generator: Adobe Illustrator 23.0.1, SVG Export Plug-In . SVG Version: 6.00 Build 0)  -->
<svg version="1.1" id="Layer_1" xmlns="http://www.w3.org/2000/svg" xmlns:xlink="http://www.w3.org/1999/xlink" x="0px" y="0px"
	 viewBox="0 0 256 256" style="enable-background:new 0 0 256 256;" xml:space="preserve">
<style type="text/css">
	.st0{fill:none;stroke:#000000;stroke-width:8;stroke-linejoin:round;stroke-miterlimit:10;}
	.st1{fill:none;stroke:#000000;stroke-width:8;stroke-miterlimit:10;}
	.st2{fill:none;stroke:#000000;stroke-width:6;stroke-miterlimit:10;}
	.st3{fill:none;stroke:#000000;stroke-width:6;stroke-linejoin:round;stroke-miterlimit:10;}
	.st4{fill:none;stroke:#000000;stroke-width:6;stroke-linecap:round;stroke-miterlimit:10;}
	.st5{display:none;opacity:0.4;}
	.st6{fill:#FFFFFF;stroke:#000000;stroke-width:6;stroke-miterlimit:10;}
	.st7{fill:none;}
	.st8{fill:#1D1D1B;}
</style>
<path d="M245.9,252.4l-99.7,0c-1.2,0-2.3-0.3-3.3-1c-1.6-1.1-2.4-2.8-2.4-4.6c0.4-45.3-3.3-94.4-12.5-104.8
	c-9.2,10.4-12.9,59.5-12.5,104.8c0,1.8-0.9,3.5-2.4,4.6c-1,0.7-2.1,1-3.3,1l-99.7,0c-2.9,0-5.2-2.2-5.5-5
	c-1-10.6-4.3-50.2-4.3-111.5C0.3,71.5,15,25.7,18,17.1c0.8-2.2,2.9-3.7,5.2-3.7h209.6c2.4,0,4.5,1.5,5.2,3.7
	c3,8.5,17.7,54.4,17.7,118.7c0,61.4-3.3,100.9-4.3,111.5C251.1,250.2,248.8,252.4,245.9,252.4z M147.5,245.4h97.1
	c0.9-10.2,4.2-49.9,4.2-109.5c0-61.1-13.5-105-17-115.5H24.2c-3.5,10.4-17,54.4-17,115.5c0,59.6,3.2,99.4,4.2,109.5h97.1
	c-0.1-8.4,0-31.3,1.7-53.8c3.6-47.3,11.7-53.8,14.3-55.9l0,0c2-1.6,4.9-1.6,6.8,0c2.6,2.1,10.7,8.6,14.3,55.9
	C147.5,214.1,147.6,237,147.5,245.4z M129,140.9L129,140.9C129,140.9,129,140.9,129,140.9C129,140.9,129,140.9,129,140.9z"/>
</svg>
