<?xml version="1.0" encoding="utf-8"?>
<!-- Generator: Adobe Illustrator 23.0.1, SVG Export Plug-In . SVG Version: 6.00 Build 0)  -->
<svg version="1.1" id="Layer_1" xmlns="http://www.w3.org/2000/svg" xmlns:xlink="http://www.w3.org/1999/xlink" x="0px" y="0px"
	 viewBox="0 0 256 256" style="enable-background:new 0 0 256 256;" xml:space="preserve">
<style type="text/css">
	.st0{fill:none;stroke:#000000;stroke-width:8;stroke-linejoin:round;stroke-miterlimit:10;}
	.st1{fill:none;stroke:#000000;stroke-width:8;stroke-miterlimit:10;}
	.st2{fill:none;stroke:#000000;stroke-width:6;stroke-miterlimit:10;}
	.st3{fill:none;stroke:#000000;stroke-width:6;stroke-linejoin:round;stroke-miterlimit:10;}
	.st4{fill:none;stroke:#000000;stroke-width:6;stroke-linecap:round;stroke-miterlimit:10;}
	.st5{display:none;opacity:0.4;}
	.st6{fill:#FFFFFF;stroke:#000000;stroke-width:6;stroke-miterlimit:10;}
	.st7{fill:none;}
	.st8{fill:#1D1D1B;}
</style>
<g>
	<path d="M174.3,92.5c0-29.3-20.5-53.1-45.6-53.1S83,63.3,83,92.5s20.5,53.1,45.6,53.1S174.3,121.8,174.3,92.5z M89,92.5
		c0-26,17.8-47.1,39.6-47.1s39.6,21.1,39.6,47.1s-17.8,47.1-39.6,47.1S89,118.5,89,92.5z"/>
	<path d="M247.8,230.7c-0.3-0.1-29.5-9.5-38.8-16.7l-0.1-0.1c-11.5-8.7-41-34.6-42-51.3c4.4-6.2,7.9-13,11-19.5
		c11.5-24.6,14.7-44.1,12.9-80.4C189,25.2,163.7,0,128,0S67,25.2,65.2,62.7c-1.8,36.3,1.3,55.8,12.9,80.4c3,6.5,6.6,13.3,11,19.5
		c-1,16.7-30.5,42.6-42,51.3L47,214c-9.3,7.3-38.5,16.6-38.8,16.7l1.8,5.7c1.1-0.4,24.3-7.8,36.6-15c5.1,19.8,39,34.6,81.4,34.6
		s76.4-14.8,81.4-34.6c12.3,7.2,35.5,14.7,36.6,15L247.8,230.7z M71.2,63C72.9,28.9,95.7,6,128,6s55.1,22.9,56.8,57
		c1.8,35.6-1.1,53.7-12.3,77.5c-8.5,18.1-21.2,38.9-44.5,38.9c-12.2,0-28.3-4.4-44.5-38.9C72.3,116.6,69.4,98.5,71.2,63z M128,250
		c-40.2,0-74.3-14.7-76-32.3c6.6-5.1,35.7-28.8,41.9-48.9c8.4,9.6,19.3,16.6,34.1,16.6s25.7-7,34.1-16.6c6.2,20,35.4,43.7,41.9,48.9
		C202.3,235.3,168.2,250,128,250z"/>
</g>
</svg>
