<?xml version="1.0" encoding="utf-8"?>
<!-- Generator: Adobe Illustrator 23.0.1, SVG Export Plug-In . SVG Version: 6.00 Build 0)  -->
<svg version="1.1" id="Layer_1" xmlns="http://www.w3.org/2000/svg" xmlns:xlink="http://www.w3.org/1999/xlink" x="0px" y="0px"
	 viewBox="0 0 256 256" style="enable-background:new 0 0 256 256;" xml:space="preserve">
<style type="text/css">
	.st0{fill:none;stroke:#000000;stroke-width:8;stroke-linejoin:round;stroke-miterlimit:10;}
	.st1{fill:none;stroke:#000000;stroke-width:8;stroke-miterlimit:10;}
	.st2{fill:none;stroke:#000000;stroke-width:6;stroke-miterlimit:10;}
	.st3{fill:none;stroke:#000000;stroke-width:6;stroke-linejoin:round;stroke-miterlimit:10;}
	.st4{fill:none;stroke:#000000;stroke-width:6;stroke-linecap:round;stroke-miterlimit:10;}
	.st5{display:none;opacity:0.4;}
	.st6{fill:#FFFFFF;stroke:#000000;stroke-width:6;stroke-miterlimit:10;}
	.st7{fill:none;}
	.st8{fill:#1D1D1B;}
</style>
<g>
	<path class="st7" d="M153,69.5l24.6,46.4c-1.5-6.3-3.6-12.2-6.5-17.4L153,64.2V69.5z"/>
	<path class="st7" d="M84.9,98.4c-2.8,5.2-5,11.1-6.5,17.4L103,69.5v-5.2L84.9,98.4C84.9,98.4,84.9,98.4,84.9,98.4z"/>
	<path class="st7" d="M161.8,63.9c12.5-3.7,18.2-8.8,18.2-12.5v-9c-5.8,4.2-14.6,7.4-24.6,9.4L161.8,63.9z"/>
	<path class="st7" d="M94.2,63.9l6.4-12c-10-2-18.7-5.2-24.6-9.4v9C76,55.1,81.7,60.2,94.2,63.9z"/>
	<path class="st7" d="M68.5,130.6c0.6-12.9,3.9-25.5,9.4-35.8l12.8-24.2c-10.5-3.3-17.6-8-20.6-13.4L7.7,96
		C9.7,109.4,32.4,123.2,68.5,130.6z"/>
	<path class="st7" d="M128,68.3c6.2,0,12.2-0.4,18-1.1V53.3c-5.9,0.7-12,1.1-18,1.1s-12.1-0.4-18-1.1v13.9
		C115.8,67.9,121.8,68.3,128,68.3z"/>
	<path class="st7" d="M128.5,143.7c-56.2,0-102.9-13.4-120.5-32.6v89.3c0,20.4,48.4,42.2,120.5,42.2S249,220.9,249,200.5v-89.3
		C231.4,130.3,184.7,143.7,128.5,143.7z"/>
	<path class="st7" d="M178.1,132.3l-30.7-57.9c-6.2,0.8-12.7,1.3-19.4,1.3c-6.7,0-13.2-0.4-19.4-1.3l-30.7,57.9
		c14.9,2.5,31.7,3.9,50.1,3.9S163.2,134.8,178.1,132.3z"/>
	<path class="st7" d="M69,36.7L19.8,65.3c-5.4,3.4-9.8,12-11.3,21.6L69,49.3V36.7z"/>
	<path class="st7" d="M187,49.3l60.2,35.5c-1.8-8.7-6-16.3-11-19.5L187,36.7V49.3z"/>
	<path class="st7" d="M248.5,94l-62.6-36.9c-2.9,5.5-10,10.2-20.6,13.5l12.9,24.2c5.5,10.3,8.8,22.8,9.4,35.7
		C225.4,122.8,248.5,108.1,248.5,94z"/>
	<path class="st7" d="M106.7,45.3c0.2,0,0.5,0,0.7,0.1c0,0,0,0,0,0c6.1,0.9,13,1.5,20.6,1.5s14.5-0.6,20.6-1.5c0,0,0,0,0,0
		c0.2-0.1,0.5-0.1,0.7-0.1c19.3-3.1,30.5-9.9,30.5-15.2c0-7-19.7-16.8-51.8-16.8s-51.8,9.8-51.8,16.8
		C76.2,35.4,87.4,42.3,106.7,45.3z"/>
	<path d="M255.8,89.6c-1.1-13.4-7.1-25.7-15.5-30.8l-53.3-31c-2.8-14.3-31.8-22-59.1-22c-27.3,0-56.3,7.7-59.1,22l-53.4,31
		C6.4,64.5,0,79,0,94v6.8v99.7c0,27.9,56.2,49.7,128,49.7s128-21.9,128-49.7V94v-4.3L255.8,89.6z M76,42.4
		c5.8,4.2,14.6,7.4,24.6,9.4l-6.4,12C81.7,60.2,76,55.1,76,51.4V42.4z M128,54.4c6,0,12.1-0.4,18-1.1v13.9c-5.8,0.7-11.8,1.1-18,1.1
		c-6.2,0-12.2-0.4-18-1.1V53.3C115.9,54,122,54.4,128,54.4z M180,51.4c0,3.6-5.7,8.8-18.2,12.5l-6.4-12c10-2,18.7-5.2,24.6-9.4V51.4
		z M171.1,98.4c2.8,5.2,5,11.1,6.5,17.4L153,69.5v-5.2L171.1,98.4z M103,64.2v5.2l-24.6,46.4c1.5-6.3,3.6-12.2,6.5-17.4c0,0,0,0,0,0
		L103,64.2z M70.2,57.2c2.9,5.4,10.1,10.1,20.6,13.4L78,94.9c-5.5,10.3-8.8,22.8-9.4,35.8C32.4,123.2,9.7,109.4,7.7,96L70.2,57.2z
		 M108.6,74.5c6.2,0.8,12.7,1.3,19.4,1.3c6.7,0,13.2-0.4,19.4-1.3l30.7,57.9c-14.9,2.5-31.7,3.9-50.1,3.9s-35.2-1.4-50.1-3.9
		L108.6,74.5z M187.5,130.6c-0.6-12.9-3.9-25.5-9.4-35.7l-12.9-24.2c10.6-3.4,17.7-8.1,20.6-13.5L248.5,94
		C248.5,108.1,225.4,122.8,187.5,130.6z M247.2,84.7L187,49.3V36.7l49.1,28.6C241.2,68.4,245.4,76,247.2,84.7z M128,13.3
		c32.1,0,51.8,9.8,51.8,16.8c0,5.3-11.2,12.2-30.5,15.2c-0.2,0-0.5,0-0.7,0.1c0,0,0,0,0,0c-6.1,0.9-13,1.5-20.6,1.5
		s-14.5-0.6-20.6-1.5c0,0,0,0,0,0c-0.2-0.1-0.5-0.1-0.7-0.1c-19.3-3.1-30.5-9.9-30.5-15.2C76.2,23.1,95.9,13.3,128,13.3z M19.8,65.3
		L69,36.7v12.7L8.4,86.9C9.9,77.3,14.3,68.7,19.8,65.3z M249,200.5c0,20.4-48.4,42.2-120.5,42.2S8,220.9,8,200.5v-89.3
		c17.6,19.2,64.3,32.6,120.5,32.6s102.9-13.4,120.5-32.6V200.5z"/>
</g>
</svg>
