<?xml version="1.0" encoding="utf-8"?>
<!-- Generator: Adobe Illustrator 23.0.1, SVG Export Plug-In . SVG Version: 6.00 Build 0)  -->
<svg version="1.1" id="Layer_1" xmlns="http://www.w3.org/2000/svg" xmlns:xlink="http://www.w3.org/1999/xlink" x="0px" y="0px"
	 viewBox="0 0 256 256" style="enable-background:new 0 0 256 256;" xml:space="preserve">
<style type="text/css">
	.st0{fill:none;stroke:#000000;stroke-width:8;stroke-linejoin:round;stroke-miterlimit:10;}
	.st1{fill:none;stroke:#000000;stroke-width:8;stroke-miterlimit:10;}
	.st2{fill:none;stroke:#000000;stroke-width:6;stroke-miterlimit:10;}
	.st3{fill:none;stroke:#000000;stroke-width:6;stroke-linejoin:round;stroke-miterlimit:10;}
	.st4{fill:none;stroke:#000000;stroke-width:6;stroke-linecap:round;stroke-miterlimit:10;}
	.st5{display:none;opacity:0.4;}
	.st6{fill:#FFFFFF;stroke:#000000;stroke-width:6;stroke-miterlimit:10;}
	.st7{fill:none;}
	.st8{fill:#1D1D1B;}
</style>
<path d="M203.2,12.7l-39-12.8c-0.7-0.2-1.4-0.2-2.1,0L48.3,36.2c-1.4,0.4-2.3,1.7-2.3,3.2v199.9c0,1.4,0.9,2.7,2.3,3.1l33.4,11
	c5.9,1.9,9,2.9,12.2,2.9c3.2,0,6.4-1,12.5-2.9l90.4-28.6c8.4-2.7,14.2-10.5,14.2-19.4V28.7C211,27.3,210.8,15.1,203.2,12.7z
	 M97,65.6c0-0.7-0.1-4.3-1.1-7.9l107.3-34.2c0.5,1.9,0.8,4.1,0.8,5.9v59.4c-0.2,11.2-22.8,30.8-54.9,41.1
	c-24.9,7.9-42.6,6.6-49.1,1.8c-2.1-1.5-3-3.4-3-5.7h0V65.6z M162.1,7.2l34,11.2L92,51.7c-0.9-0.9-2-1.7-3.4-2.1l-29.1-9.6L162.1,7.2
	z M52,237.3V43.3l34.8,11.5c2,0.7,3.2,6.2,3.2,9.8v185c-1.7-0.4-3.8-1.1-6.8-2.1L52,237.3z M104.2,246.7c-3.2,1-5.4,1.7-7.2,2.1
	V137.4c4.7,3,11.6,4.6,20.1,4.6c9.7,0,21.5-2,34-6c23-7.4,43-20.1,52.9-32.5v101.4c0,6.1-4,11.5-9.8,13.3L104.2,246.7z"/>
</svg>
