<?xml version="1.0" encoding="utf-8"?>
<!-- Generator: Adobe Illustrator 23.0.1, SVG Export Plug-In . SVG Version: 6.00 Build 0)  -->
<svg version="1.1" id="Layer_1" xmlns="http://www.w3.org/2000/svg" xmlns:xlink="http://www.w3.org/1999/xlink" x="0px" y="0px"
	 viewBox="0 0 255 255" style="enable-background:new 0 0 255 255;" xml:space="preserve">
<path d="M155.7,39.5c-5.2,8.5-7.8,17.2-7.9,25.8c-0.1,12.2,4.9,20.9,9.6,29.2c3.5,6.1,6.7,11.8,8,18.8c0.4,1.9,0.5,3.8,0.5,5.9
	c0,0.2,0,0.4,0,0.7c-0.1,7.7-3,15.6-8.3,23.5l-0.3,0.4l4.6,5.5l0.5-0.8c6.4-9.4,9.6-19.1,9.8-28.7V119c0-2.1-0.1-4-0.4-5.9
	c-1.2-9.3-5.3-16.4-9.3-23.4c-4.3-7.7-8.4-14.9-8.3-24.5c0-7.3,2.5-14.9,7.5-22.4l11.5,6.7v-34l-14.7,8.5l-14.7,8.5l11.3,6.5
	L155.7,39.5z"/>
<path d="M226.3,39.5c-5.2,8.5-7.8,17.2-7.9,25.8c-0.1,12.2,4.9,20.9,9.6,29.2c3.5,6.1,6.7,11.8,8,18.8c0.4,1.9,0.5,3.8,0.5,5.9
	c0,0.2,0,0.4,0,0.7c-0.1,7.7-3,15.6-8.3,23.5l-0.3,0.4l4.6,5.5l0.5-0.8c6.4-9.4,9.6-19.1,9.8-28.7V119c0-2.1-0.1-4-0.4-5.9
	c-1.2-9.3-5.3-16.4-9.3-23.4c-4.3-7.7-8.4-14.9-8.3-24.5c0-7.3,2.5-14.9,7.5-22.4l11.5,6.7v-34L229,24.1l-14.7,8.5l11.3,6.5
	L226.3,39.5z"/>
<path d="M190.9,39.5c-5.2,8.5-7.8,17.2-7.9,25.8c-0.1,12.2,4.9,20.9,9.6,29.2c3.5,6.1,6.7,11.8,8,18.8c0.4,1.9,0.5,3.8,0.5,5.9
	c0,0.2,0,0.4,0,0.7c-0.1,7.7-3,15.6-8.3,23.5l-0.3,0.4l4.6,5.5l0.6-0.8c6.4-9.4,9.6-19.1,9.8-28.7V119c0-2.1-0.1-4-0.4-5.9
	c-1.2-9.3-5.3-16.4-9.3-23.4c-4.3-7.7-8.4-14.9-8.3-24.5c0-7.3,2.5-14.9,7.5-22.4l11.5,6.7v-34L193.8,24L179,32.6l11.3,6.5
	L190.9,39.5z"/>
<path d="M34.6,72.4c-3.7,5.9-5.5,12-5.5,18.1C29,99,32.5,105,35.8,110.9c2.4,4.3,4.7,8.3,5.6,13.1c0.3,1.3,0.4,2.7,0.4,4.1
	c0,0.2,0,0.3,0,0.5c-0.1,5.4-2.1,10.9-5.8,16.4l-0.2,0.3l3.2,3.9l0.4-0.6c4.5-6.6,6.7-13.3,6.8-20.1v-0.5c0-1.5-0.1-2.8-0.3-4.1
	c-0.9-6.5-3.7-11.5-6.5-16.4c-3-5.4-5.9-10.4-5.8-17.1c0-5.1,1.8-10.4,5.2-15.7l8.1,4.7V55.7l-10.3,5.9l-10.3,5.9l7.9,4.6L34.6,72.4
	z"/>
<path d="M84,72.4c-3.7,5.9-5.5,12-5.5,18.1c-0.1,8.6,3.4,14.6,6.7,20.4c2.4,4.3,4.7,8.3,5.6,13.1c0.3,1.3,0.4,2.7,0.4,4.1
	c0,0.2,0,0.3,0,0.5C91,134,89,139.5,85.3,145l-0.2,0.3l3.2,3.9l0.4-0.6c4.5-6.6,6.7-13.3,6.8-20.1v-0.5c0-1.5-0.1-2.8-0.3-4.1
	c-0.9-6.5-3.7-11.5-6.5-16.4c-3-5.4-5.9-10.4-5.8-17.1c0-5.1,1.8-10.4,5.2-15.7l8.1,4.7V55.7L86,61.6l-10.3,5.9l7.9,4.6L84,72.4z"/>
<path d="M59.3,72.4c-3.7,5.9-5.5,12-5.5,18.1c-0.1,8.6,3.4,14.6,6.7,20.4c2.4,4.3,4.7,8.3,5.6,13.1c0.3,1.3,0.4,2.7,0.4,4.1
	c0,0.2,0,0.3,0,0.5c-0.1,5.4-2.1,10.9-5.8,16.4l-0.2,0.3l3.2,3.9l0.4-0.6c4.5-6.6,6.7-13.3,6.8-20.1v-0.5c0-1.5-0.1-2.8-0.3-4.1
	c-0.9-6.5-3.7-11.5-6.5-16.4c-3-5.4-5.9-10.4-5.8-17.1c0-5.1,1.8-10.4,5.2-15.7l8.1,4.7V55.6l-10.3,5.9l-10.3,6l7.9,4.6L59.3,72.4z"
	/>
<polygon points="0,239.5 122.5,239.5 122.5,190 0,218 "/>
<polygon points="132.5,187.7 132.5,239.5 255,239.5 255,159.7 "/>
</svg>
