<svg enable-background="new 0 0 288 288" viewBox="0 0 288 288" xmlns="http://www.w3.org/2000/svg"><g fill="none"><path d="m260.3 120.7v-8.6h-28l10.9 8.6z"/><path d="m113.5 95.8h61v4.4h-61z"/><path d="m23 159.8v28.3c0 2.2 1.8 4 4 4h234c2.2 0 4-1.8 4-4v-28.3z"/><path d="m252.3 145.8-61.8-49.1c-.6-.4-1.2-.7-2-.8v11.4c0 3.9-3.1 7-7 7h-75c-3.9 0-7-3.1-7-7v-11.4c-.7.1-1.4.4-2 .8l-61.8 49.1z"/></g><path d="m272.2 143.8-11.4-9.1h6.5c3.9 0 7-3.1 7-7v-22.6c0-3.9-3.1-7-7-7h-52.6l-15.6-12.4c-3.2-2.5-7.2-3.9-11.2-3.9h-6.4-75-6.5c-4.1 0-8 1.4-11.2 3.9l-73 58c-4.3 3.4-6.8 8.6-6.8 14.1v30.2c0 9.9 8.1 18 18 18h234c9.9 0 18-8.1 18-18v-30.2c0-5.4-2.5-10.6-6.8-14zm-11.9-31.7v8.6h-17.1l-10.8-8.6zm-85.8-16.3v4.4h-61v-4.4zm-77 .9c.6-.4 1.2-.7 2-.8v11.4c0 3.9 3.1 7 7 7h75c3.9 0 7-3.1 7-7v-11.4c.7.1 1.4.4 2 .8l61.8 49.1h-216.6zm163.5 95.5h-234c-2.2 0-4-1.8-4-4v-28.3h242v28.3c0 2.2-1.8 4-4 4z"/></svg>