<?xml version="1.0" encoding="utf-8"?>
<!-- Generator: Adobe Illustrator 23.0.1, SVG Export Plug-In . SVG Version: 6.00 Build 0)  -->
<svg version="1.1" id="Layer_1" xmlns="http://www.w3.org/2000/svg" xmlns:xlink="http://www.w3.org/1999/xlink" x="0px" y="0px"
	 viewBox="0 0 512 512" style="enable-background:new 0 0 512 512;" xml:space="preserve">
<style type="text/css">
	.st0{fill:#FFFFFF;}
</style>
<path class="st0" d="M256,56c110.4,0,200,89.6,200,200s-89.6,200-200,200S56,366.4,56,256S145.6,56,256,56 M298.6,322.7h-85.2
	c9.1,41,24,68.6,42.6,95.7C275.9,389.4,290,361.6,298.6,322.7 M179.3,322.7h-76.1c20.6,47.1,61.7,82.9,112.6,95.3
	C198.3,389,186.1,357,179.3,322.7 M408.8,322.7h-76.1c-6.5,33.1-18.3,64.8-36.3,94.9C346.6,404.9,388.4,369.3,408.8,322.7
	 M175.4,222.7H92.7c-4.4,21.9-4.4,44.7,0,66.7h81.9C172.6,267.2,172.9,244.8,175.4,222.7 M303,222.7h-94.1
	c-2.8,22.1-3.1,44.5-0.9,66.7h95.9C306.1,267.2,305.8,244.8,303,222.7 M419.3,222.7h-82.7c2.5,22.1,2.8,44.5,0.8,66.7h81.9
	C423.7,267.9,423.9,245.2,419.3,222.7 M216.7,93.8c-51.3,12.2-92.8,48.1-113.5,95.5h77.5C188,155.3,200.4,122.9,216.7,93.8 M256,93
	c-18.1,29.5-31.8,57.5-41.1,96.3H297C288.1,151.9,274.8,123.5,256,93 M295.4,94.2c16.9,30.2,28.9,62.7,35.8,95.1h77.6
	C388.2,142.4,346.1,106.7,295.4,94.2"/>
</svg>
