<svg enable-background="new 0 0 612 612" height="612" viewBox="0 0 612 612" width="612" xmlns="http://www.w3.org/2000/svg"><path d="m610.434 512.716-95.988-296.691c-4.244-13.117-16.459-22.003-30.245-22.003h-101.297c8.211-13.563 13.028-29.399 13.028-46.379 0-49.586-40.346-89.933-89.933-89.933-49.586 0-89.933 40.346-89.933 89.933 0 16.979 4.817 32.815 13.029 46.379h-101.295c-13.786 0-26.001 8.886-30.245 22.003l-95.988 296.691c-6.643 20.531 8.666 41.573 30.245 41.573h548.376c21.58.001 36.888-21.041 30.246-41.573zm-351.982-365.073c0-26.221 21.327-47.548 47.548-47.548s47.548 21.327 47.548 47.548c0 22.705-16.015 41.682-37.327 46.379h-20.441c-21.313-4.696-37.328-23.674-37.328-46.379zm5.51 303.389-27.475-52.756h-13.092v52.756h-31.83v-130.054h31.83v50.208h13.092l26.927-50.208h34.198l-35.117 62.205v.37l37.116 67.479zm167.407 0h-26.557v-3.644c0-2.726.178-5.45.178-5.45h-.355s-12.56 11.271-34.198 11.271c-33.294 0-63.85-24.912-63.85-67.479 0-37.827 28.555-66.931 68.219-66.931 33.28 0 50.017 17.271 50.017 17.271l-15.285 23.831s-13.271-11.997-31.65-11.997c-27.282 0-38.375 17.462-38.375 36.73 0 24.75 17.092 39.472 37.294 39.472 15.27 0 26.362-9.449 26.362-9.449v-10.013h-18.365v-27.104h46.565z"/></svg>