<svg enable-background="new 0 0 512 512" viewBox="0 0 512 512" xmlns="http://www.w3.org/2000/svg"><path d="m409.3 35.3c-2.1 1.3-4.2 2.8-6.2 4.3l-1.7 1.2c-9.9 7-19 15-27 23.6l-1.9 2.1h-60.9v16.8h47.3l-5.5 9.7c-5 8.9-9.2 18.7-12.5 29l-1.4 4.5h-166.9l-1.4-4.5c-3.2-10-7.4-19.7-12.5-28.8l-5.5-9.7h47.3v-17h-60.9l-1.9-2.1c-8-8.6-17-16.6-27-23.6-2.5-1.8-5.2-3.5-7.9-5.3l-19.1-12h86.7v-17h-163.9v17.1c50.3 1.8 96.5 23.8 125.1 59.9l1.4 1.8c.1.2.3.3.4.5l1.3 1.8c10.1 13.8 17.5 29 21.9 45.2l.5 1.8-.6 1.8c-14.2 45.7-11.6 95.1 7.1 139.1l1 2.4-.9 2.4c-4.2 11.1-6.3 22.8-6.3 34.6.1 21.4-7 46.2-13.9 70.1-.5 1.7-1 3.4-1.5 5.2-8 27.4-20.1 68.8-2 92.9 11.1 14.8 32.9 22.2 64.8 22.2h102.4c32.2 0 53.4-7.4 64.8-22.5 17.8-23.7 7.4-59.7-3.6-97.9-6.9-23.9-14-48.7-13.9-70.1 0-11.9-2.1-23.5-6.3-34.6l-.9-2.4 1-2.4c18.7-44 21.3-93.4 7.1-139.1l-.6-1.8.5-1.8c4.4-16.3 11.8-31.5 21.9-45.2l1.3-1.7c.1-.2.3-.3.4-.5l1.4-1.8c28.6-36.1 74.8-58.1 125.1-59.9v-17.1h-163.8v16.8h86.7zm-174.8 108.2h43v163h-43zm-63.6 4.8 1.3-4.8h45.3v80.7l-3.7 1.8c-11.9 5.7-22.4 13.5-31.2 23.3l-7.9 8.8-3.2-11.4c-9.1-32-9.3-66.1-.6-98.4zm181.2 241.5c11.8 40.9 18.1 66.9 6.1 82.9-8.2 10.9-23.9 15.8-51 15.8h-102.4c-27.1 0-42.8-4.9-51-15.8-12.3-16.3-5.7-42.1 6.1-82.9 7.2-25.1 14.7-51 14.6-74.8 0-25.5 12.2-49.9 32.6-65.2l10.4-7.8v81.5h77v-81.5l10.4 7.8c20.4 15.3 32.6 39.7 32.6 65.2-.1 23.8 7.4 49.8 14.6 74.8zm-11.6-143-3.2 11.4-7.9-8.8c-8.8-9.8-19.3-17.7-31.2-23.3l-3.7-1.8v-80.7h45.3l1.3 4.8c8.7 32.2 8.5 66.3-.6 98.4z"/><path d="m271 368.5h-30c-21.2 0-38.5 17.3-38.5 38.5s17.3 38.5 38.5 38.5h30c21.2 0 38.5-17.3 38.5-38.5s-17.3-38.5-38.5-38.5zm0 60h-30c-11.9 0-21.5-9.6-21.5-21.5s9.6-21.5 21.5-21.5h30c11.9 0 21.5 9.6 21.5 21.5s-9.6 21.5-21.5 21.5z"/></svg>