<?xml version="1.0" encoding="utf-8"?>
<!-- Generator: Adobe Illustrator 22.0.1, SVG Export Plug-In . SVG Version: 6.00 Build 0)  -->
<svg version="1.1" xmlns="http://www.w3.org/2000/svg" xmlns:xlink="http://www.w3.org/1999/xlink" x="0px" y="0px"
	 viewBox="0 0 288 288" style="enable-background:new 0 0 288 288;" xml:space="preserve">
<style type="text/css">
	.st0{fill:none;stroke:#000000;stroke-width:9;stroke-miterlimit:10;}
	.st1{fill:#FFFFFF;}
</style>
<g id="Layer_1">
	<g>
		<path d="M1195.9-475.2L1195.9-475.2c-0.1-2.7-0.2-5.4-0.5-8l0,0c0-0.2,0-0.3,0-0.5c-0.1-0.9-0.2-1.8-0.3-2.7l0,0
			c0-0.3-0.1-0.7-0.1-1l0,0c-0.1-0.7-0.2-1.4-0.3-2.2l0,0c0-0.3-0.1-0.5-0.1-0.8l0,0c-0.6-4.1-1.4-8.2-2.4-12.2v-0.1
			c-1.5-6-3.4-11.8-5.6-17.4c0-0.1-0.1-0.2-0.1-0.3c-0.4-1-0.8-2-1.3-3.1c0-0.1-0.1-0.2-0.1-0.3c-0.8-1.9-1.7-3.8-2.7-5.7l0,0
			c-0.1-0.1-0.1-0.3-0.2-0.4l0,0c-0.4-0.8-0.8-1.6-1.2-2.3c-0.1-0.1-0.1-0.2-0.2-0.4l0,0c-0.8-1.5-1.7-3.1-2.6-4.6
			c-0.1-0.2-0.3-0.5-0.4-0.7l0,0c-0.9-1.5-1.8-3-2.8-4.4l0,0c-0.1-0.2-0.3-0.4-0.4-0.6c-0.4-0.7-0.9-1.3-1.3-1.9l0,0
			c-0.1-0.2-0.2-0.4-0.4-0.5c-1-1.5-2.1-3-3.2-4.4l0,0l0,0c-0.6-0.8-1.2-1.6-1.9-2.4l0,0c-0.1-0.1-0.1-0.2-0.2-0.2
			c-0.6-0.8-1.3-1.5-1.9-2.3l0,0l0,0c-1.3-1.5-2.6-3-3.9-4.4l0,0l-0.2-0.2l0.2-0.2l-3.3-3.1l-3.1-3.3l-0.2,0.2l-0.2-0.2l0,0
			c-1.4-1.3-2.9-2.6-4.4-3.9l0,0l0,0c-0.8-0.6-1.5-1.3-2.3-1.9c-0.1-0.1-0.2-0.1-0.2-0.2l0,0c-0.8-0.6-1.6-1.3-2.4-1.9l0,0l0,0
			c-1.5-1.1-2.9-2.2-4.4-3.2c-0.2-0.1-0.4-0.3-0.5-0.4l0,0c-0.6-0.4-1.3-0.9-1.9-1.3c-0.2-0.1-0.4-0.3-0.6-0.4l0,0
			c-1.5-1-2.9-1.9-4.4-2.8l0,0c-0.2-0.1-0.5-0.3-0.7-0.4c-1.5-0.9-3-1.8-4.6-2.6l0,0c-0.1-0.1-0.2-0.1-0.4-0.2
			c-0.8-0.4-1.6-0.8-2.3-1.2l0,0c-0.1-0.1-0.3-0.1-0.4-0.2l0,0c-1.9-0.9-3.8-1.8-5.7-2.7c-0.1,0-0.2-0.1-0.3-0.1
			c-1-0.4-2-0.9-3.1-1.3c-0.1,0-0.2-0.1-0.3-0.1c-5.6-2.3-11.4-4.2-17.4-5.6h-0.1c-4-1-8-1.8-12.2-2.4l0,0c-0.3,0-0.5-0.1-0.8-0.1
			l0,0c-0.7-0.1-1.4-0.2-2.2-0.3l0,0c-0.3,0-0.7-0.1-1-0.1l0,0c-0.9-0.1-1.8-0.2-2.7-0.3c-0.2,0-0.3,0-0.5,0l0,0
			c-2.7-0.2-5.3-0.4-8-0.5l0,0c-1.1,0-2.1,0-3.2,0c-70.7,0-128,57.3-128,128c0,1.1,0,2.1,0,3.2l0,0c0.1,2.7,0.2,5.4,0.5,8l0,0
			c0,0.2,0,0.3,0,0.5c0.1,0.9,0.2,1.8,0.3,2.7l0,0c0,0.3,0.1,0.7,0.1,1l0,0c0.1,0.7,0.2,1.4,0.3,2.2l0,0c0,0.3,0.1,0.5,0.1,0.8l0,0
			c0.3,1.9,0.6,3.7,0.9,5.5c0,0.1,0,0.2,0,0.2l0,0c0.4,2.1,0.9,4.3,1.4,6.4v0.1c1.5,6,3.4,11.8,5.6,17.4c0,0.1,0.1,0.2,0.1,0.3
			c0.4,1,0.8,2,1.3,3.1c0,0.1,0.1,0.2,0.1,0.3c0.8,1.9,1.7,3.8,2.7,5.7l0,0c0.1,0.1,0.1,0.3,0.2,0.4l0,0c0.4,0.8,0.8,1.6,1.2,2.3
			c0.1,0.1,0.1,0.2,0.2,0.4l0,0c0.8,1.5,1.7,3.1,2.6,4.6c0.1,0.2,0.3,0.5,0.4,0.7l0,0c0.4,0.6,0.8,1.3,1.1,1.9l0,0
			c0,0.1,0.1,0.1,0.1,0.2c1,1.7,2.1,3.3,3.2,4.9l0,0c0.1,0.2,0.2,0.4,0.4,0.5c1,1.5,2.1,3,3.2,4.4l0,0l0,0c0.6,0.8,1.2,1.6,1.9,2.4
			l0,0c0.1,0.1,0.1,0.2,0.2,0.2c0.6,0.8,1.3,1.5,1.9,2.3l0,0l0,0c1.3,1.5,2.6,3,3.9,4.4l0,0l0.2,0.2l-0.2,0.2l3.3,3.1l3.1,3.3
			l0.2-0.2l0.2,0.2l0,0c1.4,1.3,2.9,2.6,4.4,3.9l0,0l0,0c0.8,0.6,1.5,1.3,2.3,1.9c0.1,0.1,0.2,0.1,0.2,0.2l0,0
			c0.8,0.6,1.6,1.3,2.4,1.9l0,0l0,0c1.5,1.1,2.9,2.2,4.4,3.2c0.2,0.1,0.4,0.3,0.5,0.4l0,0c1.6,1.1,3.3,2.2,4.9,3.2
			c0.1,0,0.1,0.1,0.2,0.1l0,0c0.6,0.4,1.2,0.8,1.9,1.1l0,0c0.2,0.1,0.5,0.3,0.7,0.4c1.5,0.9,3,1.7,4.6,2.6l0,0
			c0.1,0.1,0.2,0.1,0.4,0.2c0.8,0.4,1.6,0.8,2.3,1.2l0,0c0.1,0.1,0.3,0.1,0.4,0.2l0,0c1.9,0.9,3.8,1.8,5.7,2.7
			c0.1,0,0.2,0.1,0.3,0.1c1,0.4,2,0.9,3.1,1.3c0.1,0,0.2,0.1,0.3,0.1c5.6,2.3,11.4,4.2,17.4,5.6h0.1c2.1,0.5,4.2,1,6.4,1.4l0,0
			c0.1,0,0.2,0,0.2,0c1.8,0.3,3.7,0.7,5.5,0.9l0,0c0.3,0,0.5,0.1,0.8,0.1l0,0c0.7,0.1,1.4,0.2,2.2,0.3l0,0c0.3,0,0.7,0.1,1,0.1l0,0
			c0.9,0.1,1.8,0.2,2.7,0.3c0.2,0,0.3,0,0.5,0l0,0c2.7,0.2,5.3,0.4,8,0.5l0,0c1.1,0,2.1,0,3.2,0c70.7,0,128-57.3,128-128
			C1195.9-473.1,1195.9-474.1,1195.9-475.2z M1097.9-480.6c2.5,1.7,3.2,5.1,1.6,7.6c-1.7,2.5-5.1,3.2-7.6,1.6
			c-1.2-0.8-1.9-1.9-2.3-3.2l6.7-6.7C1096.9-481.1,1097.4-480.9,1097.9-480.6z M1074.8-438.9c-2,3-6,3.8-9,1.8s-3.8-6-1.8-9
			s6-3.8,9-1.8C1076.1-445.9,1076.8-441.9,1074.8-438.9z M1148.8-559.3l-48.8,48.8l-70.6,70.6l-48.8,48.8
			C961-412.3,949-440.8,949-472c0-65.7,53.3-119,119-119C1099.2-591,1127.7-579,1148.8-559.3z M987-384.7l39.8-39.8l-2.6,4.2
			c-1.3,2.1-0.6,4.9,1.5,6.2c0.7,0.4,1.5,0.7,2.3,0.7c0.1,0,0.3,0,0.4,0c1.4-0.1,2.6-0.9,3.4-2.1l2-3.3l7.8-12.7
			c1.1,0.6,2.2,1.1,3.4,1.6c0.3,0.1,0.5,0.2,0.8,0.3c3,1.2,6.4,1.7,9,3.8c1.8,1.4,3,3.6,3.6,5.8c1.1,4.3,0.2,8.8,0.1,13.2
			c0,1-0.5,1.8-1.3,2.4c-3.8,2.7-5.7,8.1-2.7,13.9c0.1,0.3,0.3,0.5,0.6,0.8c7.2,6.9,16.7,2.6,17.9-5.1c0.6-3.9-1.2-7.5-4.1-9.6
			c-0.8-0.6-1.3-1.5-1.3-2.4c0-4.2-1.2-11,0.6-14.8c0.5-1,1.3-1.8,2.1-2.5c3.6-2.9,8.1-4.5,12.6-6.2l8.9,16.7c0.8,1.5,2.4,2.4,4,2.4
			c0.7,0,1.4-0.2,2.1-0.5c2.2-1.2,3-3.9,1.9-6.1l-8.7-16.3c0.1-0.1,0.2-0.1,0.3-0.2c4.9-3.3,9.2-7.4,12.7-12.2l14.5,8.9
			c0.7,0.4,1.5,0.7,2.3,0.7c1.5,0,3-0.8,3.8-2.2c1.3-2.1,0.6-4.9-1.5-6.2l-14.1-8.6c2.4-2.4,5.7-3.8,9.1-4.1
			c5.2-0.5,10.4,1.1,15.4,2.2c0.9,0.2,1.6,0.9,2,1.7c1.3,3.1,4.2,5.5,7.8,6c7.7,1.1,14.6-6.8,10-15.7c-0.1-0.3-0.3-0.6-0.6-0.8
			c-5-4.8-11-4.2-14.7-0.9c-0.7,0.6-1.7,0.9-2.6,0.7c-4.5-1-11.6-1.2-15.5-3.7c-1.2-0.8-2.1-1.9-2.8-3.1c-2.1-3.4-3.1-7.1-3.9-10.9
			l16.6-4c2.4-0.6,3.9-3,3.3-5.4s-3-3.9-5.4-3.3l-16.6,4c-0.4-1.2-0.8-2.3-1.3-3.5c-1.2-2.9-2.6-5.7-4.3-8.4l49.5-49.5
			c19.8,20.9,31.8,49.4,31.8,80.6c0,65.7-53.3,119-119,119C1036.8-353,1008.2-365,987-384.7z"/>
		<path d="M1054.2-557.4c-0.6,3.8,1.1,7.4,4,9.5c0.8,0.6,1.3,1.4,1.3,2.4c0,3.5,1.2,10.1-0.3,13.2c-0.3,0.6-0.8,1.1-1.3,1.5
			c-3.8,3.3-8.3,5.6-12.7,8c-0.1,0-0.2,0.1-0.3,0.1c-0.3,0.1-0.6,0.2-0.8,0.4l-8.7-16.3c-1.2-2.2-3.9-3-6.1-1.9
			c-2.2,1.2-3,3.9-1.9,6.1l8.7,16.3c-2.7,1.8-5.3,3.9-7.7,6.2c-1.7,1.7-3.1,3.6-4.5,5.6l-17.4-10.6c-2.1-1.3-4.9-0.6-6.2,1.5
			c-1.3,2.1-0.6,4.9,1.5,6.2l16.9,10.2c-0.8,0.9-1.6,1.7-2.6,2.4c-4.1,3.1-7.3,3.8-12.4,2.6c-2.9-0.7-10.8-1-12.1-4.1
			c-2.1-5-8.3-8.1-15-4.6c-0.3,0.1-0.5,0.3-0.8,0.6c-6.9,7.2-2.6,16.7,5.1,17.9c3.1,0.4,6.1-0.6,8.2-2.5c0.7-0.6,1.6-0.9,2.5-0.7
			c4.6,1,9.3,0.9,13.8,2c6.4,1.7,7.5,4.6,8.3,10.8c0.3,2.2,0.5,4.4,0.8,6.5l-19.4,4.7c-2.4,0.6-3.9,3-3.3,5.4
			c0.5,2.1,2.3,3.4,4.4,3.4c0.4,0,0.7,0,1.1-0.1l19.4-4.7c1.6,4.5,3.9,8.9,6.8,12.7l70.4-70.4l9.3-15.3c1.3-2.1,0.6-4.9-1.5-6.2
			c-2.1-1.3-4.9-0.6-6.2,1.5l-9.7,15.8c-4.8-2.1-10.1-3.2-14.2-6.5c-1-0.8-1.9-1.7-2.5-2.9c-1.9-3.9-0.6-10.8-0.6-15
			c0-1,0.5-1.8,1.3-2.4c3.9-2.7,5.8-8.1,2.8-14c-0.1-0.3-0.3-0.5-0.6-0.8C1064.8-569.5,1055.3-565.1,1054.2-557.4z M1030.4-480
			c-3,0-5.5-2.5-5.5-5.5s2.5-5.5,5.5-5.5s5.5,2.5,5.5,5.5S1033.4-480,1030.4-480z M1067.7-494.6c-2.4,3.7-7.4,4.7-11.1,2.3
			c-3.7-2.4-4.7-7.4-2.3-11.1s7.4-4.7,11.1-2.3C1069.1-503.2,1070.1-498.3,1067.7-494.6z"/>
	</g>
	<g>
		<path d="M271.1-906c-0.9-1.3-2.4-2.1-4-2c-32.2,1.7-84.3,20.7-86.5,21.6c-1.2,0.4-2.1,1.4-2.6,2.6l-6,15l-7.9-7.9
			c-1.4-1.4-3.6-1.7-5.3-0.8c-4,2.2-39.3,21.7-46,29.8c-4.2,5.1-7.4,16.6-9.4,25.6l-6.7-11.2c-0.7-1.2-2-2-3.3-2.2
			c-1.4-0.2-2.8,0.3-3.7,1.3c-0.5,0.5-11.9,12.4-20.8,30.2c-11.9,23.8-13.6,46.8-4.8,66.7c-15.9,23.5-30.9,49.3-47.4,78.6
			c-1.2,2.2-0.5,4.9,1.7,6.1c0.7,0.4,1.5,0.6,2.2,0.6c1.6,0,3.1-0.8,3.9-2.3C40.2-682,54.4-706.7,69.3-729
			c5.3,5.8,12.7,8.8,22.1,8.8c0.6,0,1.3,0,1.9,0c24.2-1,54.4-20.3,70.2-31.7c19.3-13.9,40.7-33.3,44.3-43.5c0.4-1.1,0.3-2.4-0.2-3.5
			c-0.5-1.1-1.5-1.9-2.6-2.3l-20.2-6.7l40.7-5.8c1.5-0.2,2.7-1.1,3.4-2.4l42.5-85.4C272.1-902.9,272-904.6,271.1-906z M221.8-822.5
			l-57.3,8.2c-2.1,0.3-3.7,2-3.8,4.1c-0.2,2.1,1.1,4,3.1,4.7l33.2,11.1c-5.6,7.9-20.1,21.7-38.8,35.2c-25.5,18.4-49.4,29.3-65.3,30
			c-8.5,0.4-14.5-2.1-18.3-7.5c7.2-10.4,14.6-20.2,22.5-29.7c29.5-35.4,62.6-61.4,104.3-81.8c2.2-1.1,3.2-3.8,2.1-6
			c-1.1-2.2-3.8-3.2-6-2.1c-42.9,21-76.9,47.8-107.2,84.2c-7,8.3-13.5,17-19.9,26c-10.5-32.7,12.5-65.5,22-77.2l9.6,16
			c1,1.6,2.9,2.5,4.7,2.1c1.9-0.4,3.3-1.8,3.6-3.7c1.6-10.2,5.6-28.1,9.7-33c3.9-4.8,25.7-17.8,40.5-26l10,10.2
			c1.1,1.1,2.6,1.5,4.1,1.2s2.7-1.3,3.3-2.7l7.8-19.4c8.8-3.1,46.6-16.2,74.1-19.6L221.8-822.5z"/>
	</g>
	<g>
		<line class="st0" x1="462.6" y1="-875.5" x2="483.8" y2="-854.2"/>
		<line class="st0" x1="505" y1="-833" x2="526.2" y2="-811.8"/>
		<line class="st0" x1="547.5" y1="-790.6" x2="568.7" y2="-769.4"/>
		<line class="st0" x1="441.4" y1="-875.5" x2="462.6" y2="-896.7"/>
		<line class="st0" x1="483.8" y1="-833" x2="505" y2="-854.2"/>
		<line class="st0" x1="526.2" y1="-790.6" x2="547.5" y2="-811.8"/>
		<line class="st0" x1="526.2" y1="-748.2" x2="547.5" y2="-769.4"/>
		<line class="st0" x1="483.8" y1="-705.8" x2="505" y2="-727"/>
		<line class="st0" x1="441.4" y1="-663.3" x2="462.6" y2="-684.5"/>
		<line class="st0" x1="420.2" y1="-875.5" x2="441.4" y2="-854.2"/>
		<line class="st0" x1="462.6" y1="-833" x2="483.8" y2="-811.8"/>
		<line class="st0" x1="505" y1="-790.6" x2="526.2" y2="-769.4"/>
		<line class="st0" x1="441.4" y1="-833" x2="462.6" y2="-854.2"/>
		<line class="st0" x1="483.8" y1="-790.6" x2="505" y2="-811.8"/>
		<line class="st0" x1="420.2" y1="-833" x2="441.4" y2="-811.8"/>
		<line class="st0" x1="462.6" y1="-790.6" x2="483.8" y2="-769.4"/>
		<line class="st0" x1="505" y1="-748.2" x2="526.2" y2="-727"/>
		<line class="st0" x1="399" y1="-833" x2="420.2" y2="-854.2"/>
		<line class="st0" x1="441.4" y1="-790.6" x2="462.6" y2="-811.8"/>
		<line class="st0" x1="483.8" y1="-748.2" x2="505" y2="-769.4"/>
		<line class="st0" x1="377.8" y1="-833" x2="399" y2="-811.8"/>
		<line class="st0" x1="420.2" y1="-790.6" x2="441.4" y2="-769.4"/>
		<line class="st0" x1="462.6" y1="-748.2" x2="483.8" y2="-727"/>
		<line class="st0" x1="399" y1="-790.6" x2="420.2" y2="-811.8"/>
		<line class="st0" x1="441.4" y1="-748.2" x2="462.6" y2="-769.4"/>
		<line class="st0" x1="377.8" y1="-790.6" x2="399" y2="-769.4"/>
		<line class="st0" x1="420.2" y1="-748.2" x2="441.4" y2="-727"/>
		<line class="st0" x1="462.6" y1="-705.8" x2="483.8" y2="-684.5"/>
		<line class="st0" x1="356.5" y1="-790.6" x2="377.8" y2="-811.8"/>
		<line class="st0" x1="399" y1="-748.2" x2="420.2" y2="-769.4"/>
		<line class="st0" x1="441.4" y1="-705.8" x2="462.6" y2="-727"/>
		<line class="st0" x1="335.3" y1="-790.6" x2="356.5" y2="-769.4"/>
		<line class="st0" x1="377.8" y1="-748.2" x2="399" y2="-727"/>
		<line class="st0" x1="420.2" y1="-705.8" x2="441.4" y2="-684.5"/>
		<line class="st0" x1="356.5" y1="-748.2" x2="377.8" y2="-769.4"/>
		<line class="st0" x1="399" y1="-705.8" x2="420.2" y2="-727"/>
	</g>
	<g>
		<path d="M859.9-665c-1.2,0.3-2.5,0.3-3.8,0.3c-10.7,0-21.4,0-32.1,0h-62c0,0,0,0,0,0c-30,0-60.1,0-90.1,0c-7.3,0-14.5-1-21.2-4.1
			c-11.1-5.3-18-13.7-18.3-26.4c-0.1-3,0.8-6.2,1.9-9.1c2-5.1,5.9-7.7,11.5-7.8c12.3-0.2,24.6-1.5,36.8-3.6c12.3-2.2,23.8-7,35-12.3
			c16-7.6,31.3-16.5,44.8-28.1c5.2-4.4,9.8-9.5,14.3-14.6c4.3-4.8,5.8-10.8,6.6-17.1c0-0.1,0-0.2,0-0.4c2.2,0.6,5.2,1.2,9.4,1.7
			c-0.5,4.8-1.6,9.5-4,13.7c-2.6,4.7-5.8,9.2-9.4,13.2c-11.7,12.9-26,22.5-41,31.1c-11.7,6.7-23.9,12.5-36.7,17.1
			c-10,3.6-20.2,5.7-30.7,6.7c-8.2,0.8-16.5,1.4-24.8,1.9c-2.1,0.1-3.2,1.1-3.8,2.9c-1.7,5.6-0.4,10.6,2.9,15.2
			c4.3,6.1,10.5,8.8,17.5,9.9c3.2,0.5,6.5,0.8,9.8,0.8c38.2,0,76.3,0,114.4,0c5,0,9.9,0,14.9,0c7.2,0,14.4,0,21.7,0
			c5,0,9.9,0,14.8,0c5.4,0,10.7,0,16.1,0c9.5,0,22.2-7.2,23.3-21.5c0.8-9.7-1.6-18.8-5-27.7c-3.1-8-6.7-15.8-9.5-23.8
			c-4-11.4-4.6-23.3-4.6-35.3v-4.1c0.9-0.1,1.8-0.2,2.6-0.4c1.5-0.2,4.1-0.7,6.8-1.7c0,2.9,0,5.7,0,8.6c-0.1,15.9,3.2,30.9,10,45.3
			c4.7,9.8,8.2,20,9.1,30.9C889-684.7,879.7-669.3,859.9-665z"/>
		<path d="M888.6-896l-0.6-3.8H758.8l-0.4,4c-0.1,0.9-2.1,21.3,4.6,50.5l1.2,5.2c6.2,27.2,9.6,42.2,12.8,47.7
			c0.8,1.4,2.2,2.9,6.5,4.1c2.2,0.6,5.2,1.2,9.4,1.7c2.3,0.3,4.9,0.5,7.9,0.8c0.8,0.1,1.5,0.1,2.4,0.2c2.3,0.1,4.6,0.3,6.7,0.4
			c7.4,0.3,13.4,0.3,13.8,0.3h0c5.1,0,9.6,0,13.7-0.1c3.3-0.1,6.3-0.2,9-0.3c5-0.2,9-0.6,12.4-1c0.9-0.1,1.8-0.2,2.6-0.4
			c1.5-0.2,4.1-0.7,6.8-1.7c4.2-1.5,8.4-4.3,8.4-9.7c0-0.7,0-1.6,0-2.8c-0.1-9.5-0.5-34.6,6.6-52.6
			C891.8-875.1,888.8-895.2,888.6-896z M874.8-856.7c-4,9.9-5.8,21.7-6.7,32.1c-0.8,10.1-0.7,19-0.6,23.9c0,1,0,1.9,0,2.6
			c-0.2,0.3-1.7,1.7-8.8,2.7c-0.5,0.1-1.1,0.2-1.8,0.2c-3.5,0.4-7.9,0.8-13.3,1c-5.4,0.2-12,0.3-20,0.3h-0.1
			c-10.5,0-22.2-0.6-30.2-1.6c-4.3-0.5-7.5-1.2-8.9-1.9c0-0.1-0.1-0.2-0.2-0.3c-2.5-5.4-6.3-21.9-11.4-44.4l-1.2-5.2
			c-4.6-20.3-4.9-36.3-4.6-43.5h113C880.5-884.4,880.5-870.9,874.8-856.7z"/>
		<path d="M802-674c-5,0-9.9,0-14.9,0v0c1.2,0,3.4,0,5.5-2.4c13.9-15.5,10.8-81.3,8.1-109.3c0.8,0.1,1.5,0.1,2.4,0.2
			c2.3,0.1,4.6,0.3,6.7,0.4C811.7-765.3,816.7-698,802-674z"/>
		<path d="M838.5-673.9c-4.9,0-9.9,0-14.8,0v0c1.2,0,3.4,0,5.5-2.4c13.8-15.3,10.9-80.2,8.2-108.7c3.3-0.1,6.3-0.2,9-0.3
			C848.2-765.5,853.2-697.9,838.5-673.9z"/>
	</g>
	<g>
		<path d="M1002.6-761H992c5.1,7.8,9.4,16.3,11.6,27.4c4.6,23.1-1.9,48.9-19.4,76.7l7.6,4.8c18.7-29.8,25.7-57.8,20.6-83.3
			C1010.4-745.5,1006.8-753.7,1002.6-761z"/>
		<path d="M963.6-813.6c2,10.1,5.6,18.3,9.9,25.6H984c-5.1-7.8-9.4-16.3-11.6-27.4c-3.3-16.4-0.9-34.3,7-53.2l18.7,6.8l-4.1-23.1
			L990-908l-18,15.1l-18,15.1l16.9,6.2C962.5-851.2,960-831.7,963.6-813.6z"/>
		<path d="M1082.6-761H1072c5.1,7.8,9.4,16.3,11.6,27.4c4.6,23.1-1.9,48.9-19.4,76.7l7.6,4.8c18.7-29.8,25.7-57.8,20.6-83.3
			C1090.4-745.5,1086.8-753.7,1082.6-761z"/>
		<path d="M1043.6-813.6c2,10.1,5.6,18.3,9.9,25.6h10.6c-5.1-7.8-9.4-16.3-11.6-27.4c-3.3-16.4-0.9-34.3,7-53.2l18.6,6.8l-4.1-23.1
			l-4.1-23.1l-18,15.1l-18,15.1l17,6.2C1042.4-851.2,1040-831.7,1043.6-813.6z"/>
		<path d="M1162.6-761H1152c5.1,7.8,9.4,16.3,11.6,27.4c4.6,23.1-1.9,48.9-19.4,76.7l7.6,4.8c18.7-29.8,25.7-57.8,20.6-83.3
			C1170.4-745.5,1166.8-753.7,1162.6-761z"/>
		<path d="M1123.6-813.6c2,10.1,5.6,18.3,9.9,25.6h10.6c-5.1-7.8-9.4-16.3-11.6-27.4c-3.3-16.4-0.9-34.2,7-53.2l18.5,6.7l-4.1-23.1
			l-4.1-23.1l-18,15.1l-18,15.1l17.1,6.2C1122.5-851.2,1120-831.7,1123.6-813.6z"/>
		<polygon points="1150.3,-779 1139.2,-779 1070.3,-779 1059.2,-779 990.3,-779 979.2,-779 940,-779 940,-770 985.7,-770 
			996.8,-770 1065.7,-770 1076.8,-770 1145.7,-770 1156.8,-770 1196,-770 1196,-779 		"/>
	</g>
	<g>
		<path d="M66.3-471H55.2H16v9h45.7h11.1h34.4c0.6-3,1-6,1.5-9H66.3z"/>
		<path d="M232.8-462H272v-9h-45.7h-11.1h-35.9c0.4,3,0.9,6,1.5,9h40.9H232.8z"/>
		<path d="M154.1-462h-20c0.5-3,1-6,1.4-9h17.3C153.2-468,153.6-465,154.1-462z"/>
		<path d="M223.1-349.1l-6.8,5.1c-32.7-43.8-47-82.5-53-118c-0.5-3-1-6-1.4-9c-2.6-19-3-37.1-2.9-54.7v-4.3h27.5L144-585.9
			L101.5-530H130v4.3c-0.2,17.6-0.9,35.7-3.6,54.7c-0.4,3-0.9,6-1.4,9c-6.3,35.5-20.6,74.2-53.3,118l-6.8-5.1
			c31.5-42.3,45.4-78.8,51.4-112.9c0.5-3,1-6,1.4-9c2.4-17.1,3-33.6,3.1-50H84.3l59.7-79l59.7,79h-36.5c0.1,16.4,0.7,32.9,3.1,50
			c0.4,3,0.9,6,1.4,9C177.7-427.9,191.6-391.4,223.1-349.1z"/>
		<path d="M145-351.3c-13.3,0-24-10.7-24.5-24.3c-0.3-8.3,5.3-17.5,11.2-27.2c3.5-5.7,7.1-11.7,9-16.9l4-10.9l4.4,10.7
			c2.2,5.3,5.6,10.9,9,16.4c6,9.7,11.6,18.9,11.3,27.8v0C169-362,158.3-351.3,145-351.3z M145.1-407.8c-1.8,3.2-3.7,6.4-5.6,9.6
			c-5,8.2-10.1,16.6-9.9,22.3c0.3,8.8,7.1,15.6,15.5,15.6c8.4,0,15.2-6.9,15.5-15.6v0c0.2-6.3-5-14.7-10-22.8
			C148.7-401.7,146.8-404.8,145.1-407.8z"/>
	</g>
	<g>
		<path d="M883.2-511.7h-30.7v-21.9c0-2.5-2-4.5-4.5-4.5h-52.8c-2.5,0-4.5,2-4.5,4.5s2,4.5,4.5,4.5h48.3v21.9c0,2.5,2,4.5,4.5,4.5
			h30.7v61.4H848c-2.5,0-4.5,2-4.5,4.5v21.9h-43.9c-2.5,0-4.5,2-4.5,4.5s2,4.5,4.5,4.5H848c2.5,0,4.5-2,4.5-4.5v-21.9h30.7
			c2.5,0,4.5-2,4.5-4.5v-70.4C887.7-509.7,885.7-511.7,883.2-511.7z M716-414.9h-74.7v-114.2H716c2.5,0,4.5-2,4.5-4.5
			s-2-4.5-4.5-4.5h-79.2c-2.5,0-4.5,2-4.5,4.5v123.2c0,2.5,2,4.5,4.5,4.5H716c2.5,0,4.5-2,4.5-4.5S718.5-414.9,716-414.9z"/>
		<path d="M803.4-485.4c-0.8-1.3-2.3-2.1-3.8-2.1h-35.1v-52.7c0-2.1-1.5-3.9-3.5-4.4c-2.1-0.5-4.2,0.6-5.1,2.5l-39.6,83.6
			c-0.7,1.4-0.6,3,0.3,4.3c0.8,1.3,2.3,2.1,3.8,2.1h35.1v48.3c0,2.1,1.4,3.9,3.5,4.4c0.3,0.1,0.7,0.1,1,0.1c1.7,0,3.2-0.9,4-2.5
			l39.6-79.2C804.3-482.4,804.3-484,803.4-485.4z M764.5-422.8v-33.8c0-2.5-2-4.5-4.5-4.5h-32.5l28-59.1v37.2c0,2.5,2,4.5,4.5,4.5
			h32.3L764.5-422.8z"/>
	</g>
	<g>
		<path d="M463.2-397.7v-104.8c0-2.5-2-4.5-4.5-4.5s-4.5,2-4.5,4.5v104.8c-4.9,1.8-8.3,6.5-8.3,12c0,7.1,5.8,12.8,12.8,12.8
			s12.8-5.8,12.8-12.8C471.5-391.2,468.1-395.9,463.2-397.7z M458.7-381.8c-2.1,0-3.8-1.7-3.8-3.8s1.7-3.8,3.8-3.8s3.8,1.7,3.8,3.8
			S460.8-381.8,458.7-381.8z"/>
		<path d="M409.7-527.8h13c2.5,0,4.5-2,4.5-4.5s-2-4.5-4.5-4.5h-13c-2.5,0-4.5,2-4.5,4.5S407.2-527.8,409.7-527.8z"/>
		<path d="M409.7-560.1h13c2.5,0,4.5-2,4.5-4.5s-2-4.5-4.5-4.5h-13c-2.5,0-4.5,2-4.5,4.5S407.2-560.1,409.7-560.1z"/>
		<path d="M409.7-495.4h13c2.5,0,4.5-2,4.5-4.5s-2-4.5-4.5-4.5h-13c-2.5,0-4.5,2-4.5,4.5S407.2-495.4,409.7-495.4z"/>
		<path d="M409.7-463h13c2.5,0,4.5-2,4.5-4.5s-2-4.5-4.5-4.5h-13c-2.5,0-4.5,2-4.5,4.5S407.2-463,409.7-463z"/>
		<path d="M427.2-435.1c0-2.5-2-4.5-4.5-4.5h-13c-2.5,0-4.5,2-4.5,4.5s2,4.5,4.5,4.5h13C425.2-430.6,427.2-432.6,427.2-435.1z"/>
		<g>
			<path d="M482.2-417.8v-151.5c0-18.4-8.7-29.5-23.4-29.5h-0.1c-0.2,0-0.5,0-0.7,0c-0.4,0-0.9,0-1.3,0
				c-17.8,1.2-20.6,18.8-20.6,29.5v150.9c-11,7.5-17.5,19.7-17.5,33.1c0,22.1,18,40.1,40.1,40.1s40.1-18,40.1-40.1
				C498.9-398.2,492.7-410.3,482.2-417.8z M458.8-354.1c-17.2,0-31.1-14-31.1-31.1c0-10.5,5.2-20.1,13.9-25.9
				c2.1-0.4,3.6-2.2,3.6-4.4v-153.8c0-7.2,2.3-13.7,6.1-17.4c2.1-2.1,4.6-3.1,7.2-3.1h0.1c5.7,0.1,10.5,4.4,12.9,10.7
				c1.1,2.9,1.7,6.2,1.7,9.8v153.7c0,1.7,0.9,3.1,2.3,3.9c0.2,0.2,0.4,0.4,0.7,0.6c8.6,5.8,13.8,15.5,13.8,25.8
				C489.9-368.1,476-354.1,458.8-354.1L458.8-354.1z"/>
			<path d="M458.8-598.8L458.8-598.8c-0.3,0-0.6,0-0.8,0c-0.4,0-0.9,0-1.3,0c-17.8,1.2-20.6,18.8-20.6,29.5v150.9
				c-11,7.5-17.5,19.7-17.5,33.1c0,22.1,18,40.1,40.1,40.1c22.1,0,40.1-18,40.1-40.1c0.1-12.9-6.1-25-16.6-32.5v-151.5
				C482.2-587.7,473.5-598.8,458.8-598.8L458.8-598.8z M458.8-354.1c-17.2,0-31.1-14-31.1-31.1c0-10.5,5.2-20.1,13.9-25.9
				c2.1-0.4,3.6-2.2,3.6-4.4v-153.8c0-7.2,2.3-13.7,6.1-17.4c2.1-2.1,4.6-3.1,7.2-3.1h0.1c5.7,0.1,10.5,4.4,12.9,10.7
				c1.1,2.9,1.7,6.2,1.7,9.8v153.7c0,1.7,0.9,3.1,2.3,3.9c0.2,0.2,0.4,0.4,0.7,0.6c8.6,5.8,13.8,15.5,13.8,25.8
				C489.9-368.1,476-354.1,458.8-354.1L458.8-354.1z"/>
		</g>
	</g>
	<g>
		<g>
			<path d="M79.7-232c-6.8,10.4-10.3,20.8-10.3,30.9c-0.1,13.2,5.6,23.2,11.5,33.8c5.5,9.6,11.1,19.5,12.8,32.3
				c0.3,2.6,0.5,5.2,0.5,8.1c0,0.3,0,0.6,0,0.9c-0.2,13.3-4.7,26.6-13.5,39.6L80-85.3L73.7-93l0.4-0.6c7.3-10.9,11.2-21.8,11.4-32.4
				c0-0.3,0-0.6,0-0.9c0-2.8-0.2-5.5-0.7-8.1c-1.7-9.6-6.2-17.5-11-25.9c-6.5-11.5-13.3-23.4-13.2-40.3c0.1-11.9,3.7-23.9,10.9-35.6
				l-0.9-0.5l-15.6-9L75.3-258l20.3-11.7v46.9L79.7-232z"/>
		</g>
		<g>
			<path d="M217.1-232c-6.8,10.4-10.3,20.8-10.3,30.9c-0.1,13.2,5.6,23.2,11.5,33.8c5.5,9.6,11.1,19.5,12.8,32.3
				c0.3,2.6,0.5,5.2,0.5,8.1c0,0.3,0,0.6,0,0.9c-0.2,13.3-4.7,26.6-13.5,39.6l-0.7,1.1l-6.3-7.6l0.4-0.6
				c7.3-10.9,11.2-21.8,11.4-32.4c0-0.3,0-0.6,0-0.9c0-2.8-0.2-5.5-0.7-8.1c-1.7-9.6-6.2-17.5-11-25.9
				c-6.5-11.5-13.3-23.4-13.2-40.3c0.1-11.9,3.7-23.9,10.9-35.6l-0.9-0.5l-15.6-9l20.3-11.7l20.3-11.7v46.9L217.1-232z"/>
		</g>
		<g>
			<path d="M148.4-232c-6.8,10.4-10.3,20.8-10.3,30.9c-0.1,13.2,5.6,23.2,11.5,33.8c5.5,9.6,11.1,19.5,12.8,32.3
				c0.3,2.6,0.5,5.2,0.5,8.1c0,0.3,0,0.6,0,0.9c-0.2,13.3-4.7,26.6-13.5,39.6l-0.8,1.1l-6.3-7.6l0.4-0.6
				c7.3-10.9,11.2-21.8,11.4-32.4c0-0.3,0-0.6,0-0.9c0-2.8-0.2-5.5-0.7-8.1c-1.7-9.6-6.2-17.5-11-25.9
				c-6.5-11.5-13.3-23.4-13.2-40.3c0.1-11.9,3.7-23.9,10.9-35.6l-0.9-0.5l-15.6-9L144-258l20.3-11.7v46.9L148.4-232z"/>
		</g>
		<path d="M240.1-135c0.3,2.6,0.5,5.3,0.5,8.1c0,0.3,0,0.6,0,0.9h16.8l-43.2,74H33.6l42.8-73.4c0-0.5,0-1,0-1.5
			c0-2.8-0.3-5.5-0.9-8.1h-3.9L18-43h201.3l53.7-92H240.1z M213-135h-41.5c0.3,2.6,0.5,5.3,0.5,8.1c0,0.3,0,0.6,0,0.9h42
			c0-0.3,0-0.6,0-0.9C213.9-129.8,213.5-132.4,213-135z M144.3-135h-41.5c0.3,2.6,0.5,5.3,0.5,8.1c0,0.3,0,0.6,0,0.9h42
			c0-0.3,0-0.6,0-0.9C145.2-129.8,144.9-132.4,144.3-135z"/>
	</g>
	<g id="wGUpmt.tif">
	</g>
	<path d="M483.1-167.1c13.3-7.7,18.3-20.2,18.5-35.3c0.4,0,0.9-0.2,1-0.1c12.4,15.8,22.5,32.8,26.2,52.9c4,21.3-1.2,40.7-12.3,58.8
		c-12.5,20.2-29.3,36.4-48.2,50.8c0.8-0.9,1.6-1.8,2.3-2.8c4.7-6.4,10-12.5,14-19.3c10.4-17.4,10.5-35.7,1.4-53.5
		c-4.7-9.2-11.1-17.6-16.8-26.2c-2.4-3.7-5.2-7.2-7.8-10.8c-7.2-10.4-11.5-21.4-6-34.2c-11.3,4.6-22.6,22-26.1,34
		c-4.2,14.4-2.9,28.8-1.3,44.2c-8.3-5.2-10.4-12.7-10.9-21c-9,6.3-16.9,30.8-15.2,46.2c1.4,12.8,7.2,23.3,23.2,43.7
		c-4.5-3.8-9.1-7.5-13.5-11.5c-15-13.5-28.4-28.3-37.9-46.3c-13-24.5-12.7-49.2-1.5-74.2c7.1-15.8,17.6-29.3,28.5-42.6
		c7.7-9.5,15.7-18.9,22.9-28.7c7.3-10,13.4-20.8,12.4-33.8c-0.5-6.5-2.4-12.8-3.7-18.9c9.6,3.3,27.6,20.7,35.3,32.6
		c9.1,14.2,15.6,29.4,16.3,46.2C484.5-200.5,483.4-184,483.1-167.1z"/>
	<path d="M886.6-169.6l-58.3-100.9c-2.1-3.4-5.8-5.5-9.9-5.5H701.7c-4.1-0.1-7.8,2-10,5.5l-58.3,100.9c-1.9,3.4-1.9,7.6,0,11
		l58.3,101.2c2.1,3.5,5.9,5.6,10,5.5h26.6l6.7-44.9l-36.4-52.3c-1.8-2.6-1.8-4.3,0.3-7.5l21.7-33.5c1-1.6,1.7-1.8,2.3-1.8
		c0.9,0.1,1.7,0.3,2.5,0.8l36.2,17.3c0,1.5-0.4,3-1.2,4.3c-2.6,4.6-7.6,7.5-12.9,7.3c-4.5-0.2-8.9-1.4-12.8-3.7l-1.3-0.7l-7.2,13.5
		l1.5,0.6c19.9,8.6,32.3,25.4,37.8,51.3h2.9l5.1-27.5l17.4,9l19.7-20.4c0.4,4.7-0.5,9.4-2.6,13.7l-18.4,36.5V-52h28.5
		c4.1,0.1,7.8-2,10-5.5l58.5-101.2C888.5-162.1,888.5-166.2,886.6-169.6z M730.1-196.1l11-20.1h0.4c4.7,0,17.2,7,17.6,9.2L747.3-188
		L730.1-196.1z M753.6-185.1l12.3-20.7c4.2,0,18.2,10,18.4,12.3l-16.9,24.3c0.7-5.5-0.4-9-3.4-10.6L753.6-185.1z M765.1-154.8
		l23.8-32.5c4.6,2.5,8.6,5.8,11.9,9.8c2.5,3,3,4.4,2.9,4.7l-26.4,29c-4.8-2.9-9-6.7-12.4-11.1L765.1-154.8z M790.3-130.6
		c-3.4-2.2-6.2-5.2-8.3-8.8l24.5-27c4.3,3.3,7.6,7.7,9.6,12.7L790.3-130.6z"/>
	<path d="M1023.7-36l10.5-69.9l-56.8-81.5c-2.8-4.1-2.7-6.8,0.5-11.7l33.8-52.2c1.5-2.5,2.7-2.8,3.6-2.8c1.4,0.1,2.7,0.5,3.9,1.2
		l56.4,27c0.1,2.4-0.6,4.7-1.9,6.7c-4,7.2-11.8,11.6-20.1,11.4c-7-0.3-13.8-2.2-19.9-5.7l-2.1-1.1l-11.1,21l2.3,0.9
		c31,13.5,50.3,39.5,58.8,79.9h4.5l8-42.9l27.1,14l30.7-31.7c0.6,7.3-0.8,14.7-4,21.4l-28.6,56.9v59.1 M1026.5-260.6l17.2-31.4h0.7
		c7.4,0,26.8,10.9,27.4,14.4l-18.3,29.5L1026.5-260.6z M1063.2-243.5l19.2-32.2c6.6,0,28.3,15.5,28.6,19.2l-26.3,37.9
		c1.1-8.6-0.7-14-5.3-16.5L1063.2-243.5z M1081.1-196.3l37.1-50.7c7.1,3.8,13.5,9,18.6,15.3c3.9,4.6,4.6,6.9,4.5,7.4l-41.1,45.2
		c-7.4-4.6-14-10.4-19.3-17.3L1081.1-196.3z M1120.3-158.6c-5.3-3.5-9.7-8.1-12.9-13.6l38.2-42.1c6.7,5.1,11.9,11.9,15,19.7
		L1120.3-158.6z"/>
	<g id="vy2RzU.tif">
		<g>
			<path d="M163.5,230.6c-2,1.2-3.9,3.4-5.9,3.4c-23.4,0.2-46.8,0.3-70.2,0.1c-8.7-0.1-13.3-4.8-13.3-13.6
				c-0.1-42.1-0.1-84.2,0.1-126.3c0-2.8,1.6-6.3,3.6-8.4c18.1-18.5,36.5-36.8,55-54.9c2.2-2.2,6-3.8,9.1-3.8
				c26.2-0.3,52.3-0.2,78.5-0.2c10,0,14.5,4.7,14.5,14.8c0,59.3,0,118.6,0,177.8c0,11.2-8,17.2-19.1,14.4c-1.5-0.4-2.5-2.8-4.2-4.9
				c16.9-2.7,16.9-2.7,16.9-19.1c0-55,0-110.1,0-165.1c0-10.8-0.6-11.4-11.4-11.4c-22.4,0-44.8,0-67.3,0c-2.7,0-5.3,0-8.8,0
				c0,15.1,0,29.2,0,43.3c0,13.1-3.8,16.9-16.8,17c-14.2,0-28.3,0-43.3,0c-0.1,3.2-0.4,5.8-0.4,8.5c0,38.4,0,76.7,0,115.1
				c0,9.8,1,10.8,10.7,10.8c21.2,0.1,42.3,0,63.5,0c2.7,0,5.3,0,8,0C162.9,228.9,163.2,229.8,163.5,230.6z M134.5,40.8
				c-15.6,15.7-31,31.2-46.1,46.4c12.7,0,26.6,0.2,40.4-0.3c2-0.1,5.4-3.5,5.5-5.5C134.7,67.7,134.5,53.9,134.5,40.8z"/>
			<path d="M174.4,204.8c1.8,2.8,3.1,6.1,5.4,8.3c3.9,3.5,4.8,6.4-0.3,9.1c-4.4,2.3-5.7,5.6-4.8,10.4c0.9,5-1.6,7.2-6.4,5.7
				c-4.8-1.5-8,0-10.7,4c-2.9,4.2-6.2,4-8.6-0.4c-2.4-4.4-5.6-5.7-10.4-4.7c-5.1,1-7-1.7-5.8-6.4c1.1-4.6,0.4-8.1-3.9-10.8
				c-4.2-2.6-4.5-6,0.1-8.5c4.7-2.5,5.9-6.1,5-11c-0.8-4.7,1.6-6.6,6.1-5.3c5,1.4,8.5-0.1,11.4-4.3c2.2-3.3,5.3-4.1,7.6-0.2
				c2.8,4.9,6.2,6.8,12.1,5.7C177.4,195.2,176.4,200,174.4,204.8z M169.2,230.6c-3.4-5.9,2.4-9.2,5.4-11.7c-2.2-6.2-4-11.3-5.4-15.3
				c-5-2.4-9.7-4.7-13.8-6.7c-4.6,1.7-9.7,3.5-14,5.1c-2.3,4.6-4.7,9.5-6.8,13.7c1.7,4.6,3.5,9.8,5.1,14.1c4.7,2.3,9.6,4.7,13.5,6.6
				C158.1,234.6,163,232.9,169.2,230.6z"/>
			<path d="M142.9,237.7c-2.3,10.2-4.1,18.4-6,27c2,0.5,3.8,1,6.1,1.6c1.8-6.6,3.5-13,5.1-19c3.4,0,6.2,0,9.8,0
				c1.7,8.3,3.6,17,5.5,25.9c2.7-0.4,5.3-0.9,8.7-1.5c-1.8-10-3.8-20.3-5.7-30.7c0.8-0.4,1.7-0.7,2.5-1.1c1.2,1.8,3,3.6,3.5,5.6
				c2.1,9.5,3.8,19,5.6,28.6c0.9,4.9,0.1,7.4-5.8,5.3c-1.7-0.6-4.8,0-6.2,1.3c-4.9,4.3-6.4,1.5-7.3-3c-1.7-8.5-3.3-17-6.4-25.6
				c-2.1,7.8-4.1,15.7-5.9,22.3c-5.6-0.7-9.6-0.9-13.5-1.8c-1.1-0.3-2.7-2.6-2.5-3.7c2.1-9.5,4.5-18.8,7.1-28.2
				C137.8,239.9,139.7,239.5,142.9,237.7z"/>
			<path d="M153.8,133.8c-15.4,0-30.8,0.1-46.2-0.1c-2.1,0-4.2-1.9-6.3-2.9c2-1.1,4-3.2,6-3.2c31.3-0.2,62.6-0.2,94,0
				c2.1,0,4.2,1.9,6.3,3c-2.2,1.1-4.5,3.2-6.7,3.2C185.1,134,169.5,133.8,153.8,133.8z"/>
			<path d="M154.5,149.5c-15.7,0-31.4,0.1-47-0.1c-2.1,0-4.1-2-6.2-3c2.1-1,4.2-2.8,6.3-2.9c31.4-0.2,62.7-0.2,94.1,0
				c1.9,0,3.8,1.7,5.8,2.7c-2,1.1-3.9,3.2-5.9,3.2C185.9,149.7,170.2,149.5,154.5,149.5z"/>
			<path d="M153.8,117.7c-15.7,0-31.3,0.1-47-0.1c-1.9,0-3.7-1.9-5.5-2.9c1.9-1,3.7-2.8,5.6-2.8c31.8-0.2,63.6-0.2,95.5,0
				c1.7,0,3.4,1.6,5.1,2.5c-1.7,1.1-3.4,3.2-5.2,3.2C186.1,117.8,170,117.7,153.8,117.7z"/>
			<path d="M154.7,176.2c7.2,0,14.4-0.2,21.6,0.1c1.6,0.1,3.1,2,4.6,3c-1.6,1-3.2,2.8-4.8,2.8c-14.4,0.2-28.8,0.2-43.1,0
				c-1.7,0-3.3-1.7-5-2.7c1.7-1.1,3.4-3.1,5.2-3.2C140.3,175.9,147.5,176.2,154.7,176.2z"/>
			<path d="M154.1,70.3c7.4,0,14.9-0.2,22.3,0.2c1.5,0.1,3,2.1,4.4,3.2c-1.4,1-2.8,2.7-4.2,2.8c-14.9,0.2-29.7,0.2-44.6,0
				c-1.4,0-2.7-1.9-4.1-2.9c1.5-1.1,3-3,4.6-3.1C139.7,70.1,146.9,70.3,154.1,70.3z"/>
			<path class="st1" d="M177.4,40.8c0,13.1,0.2,26.9-0.3,40.7c-0.1,2-3.5,5.4-5.5,5.5c-13.8,0.5-27.7,0.3-40.4,0.3
				C146.4,72,161.8,56.6,177.4,40.8z"/>
			<path class="st1" d="M169,230.6c-6.2,2.2-11.1,4-15.9,5.7c-3.9-1.9-8.8-4.3-13.5-6.6c-1.6-4.3-3.4-9.4-5.1-14.1
				c2.1-4.2,4.5-9,6.8-13.7c4.3-1.5,9.3-3.4,14-5.1c4.1,2,8.8,4.3,13.8,6.7c1.4,4,3.2,9.1,5.4,15.3
				C171.3,221.4,165.6,224.7,169,230.6z M154,202.4c-7.7-0.1-13.8,5.8-14,13.4c-0.2,8,5.8,14.3,13.8,14.4c7.7,0,13.9-5.8,14.2-13.4
				C168.3,209,162,202.5,154,202.4z"/>
			<path d="M154.4,202.4c8,0.1,14.2,6.5,13.9,14.4c-0.3,7.5-6.5,13.4-14.2,13.4c-8,0-14-6.3-13.8-14.4
				C140.6,208.2,146.7,202.4,154.4,202.4z M154.3,206.9c-5.7,0.5-9.4,3.5-9.4,9.4c0,5.8,3.4,9.3,9.3,9.4c6,0,9.4-3.5,9.5-9.3
				C163.8,210.5,160.2,207.4,154.3,206.9z"/>
			<path class="st1" d="M154.4,206.9c5.9,0.5,9.5,3.7,9.4,9.5c-0.1,5.7-3.5,9.3-9.5,9.3c-5.9,0-9.3-3.5-9.3-9.4
				C145,210.4,148.7,207.4,154.4,206.9z"/>
		</g>
	</g>
</g>
<g id="Layer_2">
</g>
</svg>
