<?xml version="1.0" encoding="utf-8"?>
<!-- Generator: Adobe Illustrator 22.0.1, SVG Export Plug-In . SVG Version: 6.00 Build 0)  -->
<svg version="1.1" id="Layer_1" xmlns="http://www.w3.org/2000/svg" xmlns:xlink="http://www.w3.org/1999/xlink" x="0px" y="0px"
	 viewBox="0 0 288 288" style="enable-background:new 0 0 288 288;" xml:space="preserve">
<style type="text/css">
	.st0{fill:none;}
</style>
<path d="M-40.8,718.1h-30.7v-21.9c0-2.5-2-4.5-4.5-4.5h-52.8c-2.5,0-4.5,2-4.5,4.5s2,4.5,4.5,4.5h48.3v21.9c0,2.5,2,4.5,4.5,4.5
	h30.7v61.4H-76c-2.5,0-4.5,2-4.5,4.5v21.9h-43.9c-2.5,0-4.5,2-4.5,4.5s2,4.5,4.5,4.5H-76c2.5,0,4.5-2,4.5-4.5v-21.9h30.7
	c2.5,0,4.5-2,4.5-4.5v-70.4C-36.3,720.1-38.3,718.1-40.8,718.1z M-208,814.9h-74.7V700.7h74.7c2.5,0,4.5-2,4.5-4.5s-2-4.5-4.5-4.5
	h-79.2c-2.5,0-4.5,2-4.5,4.5v123.2c0,2.5,2,4.5,4.5,4.5h79.2c2.5,0,4.5-2,4.5-4.5S-205.5,814.9-208,814.9z"/>
<path d="M-120.6,746.6c-0.8-1.3-2.3-2.1-3.8-2.1h-35.1v-52.7c0-2.1-1.5-3.9-3.5-4.4c-2.1-0.5-4.2,0.6-5.1,2.5l-39.6,83.6
	c-0.7,1.4-0.6,3,0.3,4.3c0.8,1.3,2.3,2.1,3.8,2.1h35.1v48.3c0,2.1,1.4,3.9,3.5,4.4c0.3,0.1,0.7,0.1,1,0.1c1.7,0,3.2-0.9,4-2.5
	l39.6-79.2C-119.7,749.6-119.7,748-120.6,746.6z M-159.5,809.2v-33.8c0-2.5-2-4.5-4.5-4.5h-32.5l28-59.1V749c0,2.5,2,4.5,4.5,4.5
	h32.3L-159.5,809.2z"/>
<path d="M-40.8,410.1h-30.7v-21.9c0-2.5-2-4.5-4.5-4.5h-52.8c-2.5,0-4.5,2-4.5,4.5s2,4.5,4.5,4.5h48.3v21.9c0,2.5,2,4.5,4.5,4.5
	h30.7v61.4H-76c-2.5,0-4.5,2-4.5,4.5v21.9h-43.9c-2.5,0-4.5,2-4.5,4.5c0,2.5,2,4.5,4.5,4.5H-76c2.5,0,4.5-2,4.5-4.5v-21.9h30.7
	c2.5,0,4.5-2,4.5-4.5v-70.4C-36.3,412.1-38.3,410.1-40.8,410.1z M-208,506.9h-74.7V392.7h74.7c2.5,0,4.5-2,4.5-4.5s-2-4.5-4.5-4.5
	h-79.2c-2.5,0-4.5,2-4.5,4.5v123.2c0,2.5,2,4.5,4.5,4.5h79.2c2.5,0,4.5-2,4.5-4.5C-203.5,508.9-205.5,506.9-208,506.9z"/>
<path d="M-120.6,438.6c-0.8-1.3-2.3-2.1-3.8-2.1h-35.1v-52.7c0-2.1-1.5-3.9-3.5-4.4c-2.1-0.5-4.2,0.6-5.1,2.5l-39.6,83.6
	c-0.7,1.4-0.6,3,0.3,4.3c0.8,1.3,2.3,2.1,3.8,2.1h35.1v48.3c0,2.1,1.4,3.9,3.5,4.4c0.3,0.1,0.7,0.1,1,0.1c1.7,0,3.2-0.9,4-2.5
	l39.6-79.2C-119.7,441.6-119.7,440-120.6,438.6z M-159.5,501.2v-33.8c0-2.5-2-4.5-4.5-4.5h-32.5l28-59.1V441c0,2.5,2,4.5,4.5,4.5
	h32.3L-159.5,501.2z"/>
<path d="M-40.8,102.1h-30.7V80.2c0-2.5-2-4.5-4.5-4.5h-52.8c-2.5,0-4.5,2-4.5,4.5s2,4.5,4.5,4.5h48.3v21.9c0,2.5,2,4.5,4.5,4.5h30.7
	v61.4H-76c-2.5,0-4.5,2-4.5,4.5v21.9h-43.9c-2.5,0-4.5,2-4.5,4.5s2,4.5,4.5,4.5H-76c2.5,0,4.5-2,4.5-4.5v-21.9h30.7
	c2.5,0,4.5-2,4.5-4.5v-70.4C-36.3,104.1-38.3,102.1-40.8,102.1z M-208,198.9h-74.7V84.7h74.7c2.5,0,4.5-2,4.5-4.5s-2-4.5-4.5-4.5
	h-79.2c-2.5,0-4.5,2-4.5,4.5v123.2c0,2.5,2,4.5,4.5,4.5h79.2c2.5,0,4.5-2,4.5-4.5S-205.5,198.9-208,198.9z"/>
<path d="M-120.6,130.6c-0.8-1.3-2.3-2.1-3.8-2.1h-35.1V75.8c0-2.1-1.5-3.9-3.5-4.4c-2.1-0.5-4.2,0.6-5.1,2.5l-39.6,83.6
	c-0.7,1.4-0.6,3,0.3,4.3c0.8,1.3,2.3,2.1,3.8,2.1h35.1v48.3c0,2.1,1.4,3.9,3.5,4.4c0.3,0.1,0.7,0.1,1,0.1c1.7,0,3.2-0.9,4-2.5
	l39.6-79.2C-119.7,133.6-119.7,132-120.6,130.6z M-159.5,193.2v-33.8c0-2.5-2-4.5-4.5-4.5h-32.5l28-59.1V133c0,2.5,2,4.5,4.5,4.5
	h32.3L-159.5,193.2z"/>
<path d="M-40.8-205.9h-30.7v-21.9c0-2.5-2-4.5-4.5-4.5h-52.8c-2.5,0-4.5,2-4.5,4.5s2,4.5,4.5,4.5h48.3v21.9c0,2.5,2,4.5,4.5,4.5
	h30.7v61.4H-76c-2.5,0-4.5,2-4.5,4.5v21.9h-43.9c-2.5,0-4.5,2-4.5,4.5s2,4.5,4.5,4.5H-76c2.5,0,4.5-2,4.5-4.5v-21.9h30.7
	c2.5,0,4.5-2,4.5-4.5v-70.4C-36.3-203.9-38.3-205.9-40.8-205.9z M-208-109.1h-74.7v-114.2h74.7c2.5,0,4.5-2,4.5-4.5s-2-4.5-4.5-4.5
	h-79.2c-2.5,0-4.5,2-4.5,4.5v123.2c0,2.5,2,4.5,4.5,4.5h79.2c2.5,0,4.5-2,4.5-4.5S-205.5-109.1-208-109.1z"/>
<path d="M-120.6-177.4c-0.8-1.3-2.3-2.1-3.8-2.1h-35.1v-52.7c0-2.1-1.5-3.9-3.5-4.4c-2.1-0.5-4.2,0.6-5.1,2.5l-39.6,83.6
	c-0.7,1.4-0.6,3,0.3,4.3c0.8,1.3,2.3,2.1,3.8,2.1h35.1v48.3c0,2.1,1.4,3.9,3.5,4.4c0.3,0.1,0.7,0.1,1,0.1c1.7,0,3.2-0.9,4-2.5
	l39.6-79.2C-119.7-174.4-119.7-176-120.6-177.4z M-159.5-114.8v-33.8c0-2.5-2-4.5-4.5-4.5h-32.5l28-59.1v37.2c0,2.5,2,4.5,4.5,4.5
	h32.3L-159.5-114.8z"/>
<g>
	<ellipse transform="matrix(0.9799 -0.1994 0.1994 0.9799 29.7441 26.314)" class="st0" cx="145.5" cy="-134.5" rx="6.5" ry="6.5"/>
	<circle class="st0" cx="106.5" cy="-177.5" r="5.5"/>
	<path class="st0" d="M130.3-195.4c-2.4,3.7-1.4,8.6,2.3,11.1c3.7,2.4,8.6,1.4,11.1-2.3s1.4-8.6-2.3-11.1
		C137.7-200.1,132.8-199.1,130.3-195.4z"/>
	<path class="st0" d="M168-163.4c2.5,1.7,5.9,1,7.6-1.6c1.7-2.5,1-5.9-1.6-7.6c-0.5-0.3-1.1-0.6-1.6-0.7l-6.7,6.7
		C166-165.3,166.8-164.2,168-163.4z"/>
	<path class="st0" d="M263-164c0-31.2-12-59.7-31.7-80.9l-49.5,49.5c1.7,2.7,3.1,5.5,4.3,8.4c0.5,1.1,0.9,2.3,1.3,3.5l16.6-4
		c2.4-0.6,4.8,0.9,5.4,3.3c0.6,2.4-0.9,4.8-3.3,5.4l-16.6,4c0.8,3.8,1.8,7.6,3.9,10.9c0.7,1.2,1.6,2.3,2.8,3.1
		c3.9,2.5,11,2.7,15.5,3.7c0.9,0.2,1.9-0.1,2.6-0.7c3.7-3.3,9.7-3.9,14.7,0.9c0.2,0.2,0.4,0.5,0.6,0.8c4.6,8.9-2.3,16.8-10,15.7
		c-3.6-0.5-6.5-2.9-7.8-6c-0.4-0.9-1.1-1.5-2-1.7c-5-1.1-10.2-2.7-15.4-2.2c-3.4,0.3-6.7,1.7-9.1,4.1l14.1,8.6
		c2.1,1.3,2.8,4.1,1.5,6.2c-0.8,1.4-2.3,2.2-3.8,2.2c-0.8,0-1.6-0.2-2.3-0.7l-14.5-8.9c-3.5,4.8-7.8,8.9-12.7,12.2
		c-0.1,0.1-0.2,0.1-0.3,0.2l8.7,16.3c1.2,2.2,0.3,4.9-1.9,6.1c-0.7,0.4-1.4,0.5-2.1,0.5c-1.6,0-3.2-0.9-4-2.4l-8.9-16.7
		c-4.4,1.7-9,3.2-12.6,6.2c-0.9,0.7-1.7,1.5-2.1,2.5c-1.8,3.8-0.6,10.6-0.6,14.8c0,1,0.5,1.9,1.3,2.4c3,2.1,4.7,5.8,4.1,9.6
		c-1.1,7.7-10.6,12-17.9,5.1c-0.2-0.2-0.4-0.5-0.6-0.8c-3-5.8-1.1-11.2,2.7-13.9c0.8-0.6,1.3-1.4,1.3-2.4c0-4.4,1-8.9-0.1-13.2
		c-0.6-2.2-1.8-4.4-3.6-5.8c-2.6-2.1-6-2.5-9-3.8c-0.3-0.1-0.5-0.2-0.8-0.3c-1.1-0.5-2.3-1-3.4-1.6l-7.8,12.7l-2,3.3
		c-0.8,1.3-2.1,2-3.4,2.1c-0.1,0-0.3,0-0.4,0c-0.8,0-1.6-0.2-2.3-0.7c-2.1-1.3-2.8-4.1-1.5-6.2l2.6-4.2L63.1-76.7
		C84.3-57,112.8-45,144-45C209.7-45,263-98.3,263-164z"/>
	<path class="st0" d="M25-164c0,31.2,12,59.7,31.7,80.9l48.8-48.8l70.6-70.6l48.8-48.8C203.7-271,175.2-283,144-283
		C78.3-283,25-229.7,25-164z M148.7-253.8c3,5.9,1.1,11.3-2.8,14c-0.8,0.6-1.3,1.4-1.3,2.4c0,4.2-1.4,11.1,0.6,15
		c0.6,1.1,1.5,2.1,2.5,2.9c4,3.3,9.4,4.4,14.2,6.5l9.7-15.8c1.3-2.1,4.1-2.8,6.2-1.5c2.1,1.3,2.8,4.1,1.5,6.2l-9.3,15.3l-70.4,70.4
		c-2.9-3.9-5.2-8.2-6.8-12.7l-19.4,4.7c-0.4,0.1-0.7,0.1-1.1,0.1c-2,0-3.9-1.4-4.4-3.4c-0.6-2.4,0.9-4.8,3.3-5.4l19.4-4.7
		c-0.3-2.2-0.5-4.3-0.8-6.5c-0.7-6.3-1.8-9.2-8.3-10.8c-4.5-1.2-9.3-1-13.8-2c-0.9-0.2-1.8,0.1-2.5,0.7c-2.1,2-5.1,3-8.2,2.5
		c-7.7-1.1-12-10.6-5.1-17.9c0.2-0.2,0.5-0.4,0.8-0.6c6.7-3.5,12.8-0.4,15,4.6c1.3,3.1,9.2,3.4,12.1,4.1c5.1,1.2,8.4,0.5,12.4-2.6
		c0.9-0.7,1.8-1.5,2.6-2.4l-16.7-10.2c-2.1-1.3-2.8-4.1-1.5-6.2c1.3-2.1,4.1-2.8,6.2-1.5l17.4,10.6c1.4-2,2.8-4,4.5-5.6
		c2.3-2.3,4.9-4.4,7.7-6.2l-8.7-16.3c-1.2-2.2-0.3-4.9,1.9-6.1c2.2-1.2,4.9-0.3,6.1,1.9l8.7,16.3c0.3-0.1,0.5-0.2,0.8-0.4
		c0.1,0,0.2-0.1,0.3-0.1c4.4-2.4,8.9-4.6,12.7-8c0.5-0.4,1-0.9,1.3-1.5c1.5-3.2,0.3-9.7,0.3-13.2c0-1-0.5-1.9-1.3-2.4
		c-2.9-2.1-4.6-5.7-4-9.5c1.1-7.7,10.6-12,17.9-5.1C148.4-254.3,148.6-254,148.7-253.8z"/>
	<path d="M272-167.2C272-167.2,272-167.2,272-167.2c-0.1-2.7-0.2-5.4-0.5-8c0,0,0,0,0,0c0-0.2,0-0.3,0-0.5c-0.1-0.9-0.2-1.8-0.3-2.7
		c0,0,0,0,0,0c0-0.3-0.1-0.7-0.1-1c0,0,0,0,0,0c-0.1-0.7-0.2-1.4-0.3-2.2c0,0,0,0,0,0c0-0.3-0.1-0.5-0.1-0.8c0,0,0,0,0,0
		c-0.6-4.1-1.4-8.2-2.4-12.2c0,0,0-0.1,0-0.1c-1.5-6-3.4-11.8-5.6-17.4c0-0.1-0.1-0.2-0.1-0.3c-0.4-1-0.8-2-1.3-3.1
		c0-0.1-0.1-0.2-0.1-0.3c-0.8-1.9-1.7-3.8-2.7-5.7c0,0,0,0,0,0c-0.1-0.1-0.1-0.3-0.2-0.4c0,0,0,0,0,0c-0.4-0.8-0.8-1.6-1.2-2.3
		c-0.1-0.1-0.1-0.2-0.2-0.4c0,0,0,0,0,0c-0.8-1.5-1.7-3.1-2.6-4.6c-0.1-0.2-0.3-0.5-0.4-0.7c0,0,0,0,0,0c-0.9-1.5-1.8-3-2.8-4.4
		c0,0,0,0,0,0c-0.1-0.2-0.3-0.4-0.4-0.6c-0.4-0.7-0.9-1.3-1.3-1.9c0,0,0,0,0,0c-0.1-0.2-0.2-0.4-0.4-0.5c-1-1.5-2.1-3-3.2-4.4
		c0,0,0,0,0,0c0,0,0,0,0,0c-0.6-0.8-1.2-1.6-1.9-2.4c0,0,0,0,0,0c-0.1-0.1-0.1-0.2-0.2-0.2c-0.6-0.8-1.3-1.5-1.9-2.3c0,0,0,0,0,0
		c0,0,0,0,0,0c-1.3-1.5-2.6-3-3.9-4.4c0,0,0,0,0,0l-0.2-0.2l0.2-0.2l-3.3-3.1l-3.1-3.3l-0.2,0.2l-0.2-0.2c0,0,0,0,0,0
		c-1.4-1.3-2.9-2.6-4.4-3.9c0,0,0,0,0,0c0,0,0,0,0,0c-0.8-0.6-1.5-1.3-2.3-1.9c-0.1-0.1-0.2-0.1-0.2-0.2c0,0,0,0,0,0
		c-0.8-0.6-1.6-1.3-2.4-1.9c0,0,0,0,0,0c0,0,0,0,0,0c-1.5-1.1-2.9-2.2-4.4-3.2c-0.2-0.1-0.4-0.3-0.5-0.4c0,0,0,0,0,0
		c-0.6-0.4-1.3-0.9-1.9-1.3c-0.2-0.1-0.4-0.3-0.6-0.4c0,0,0,0,0,0c-1.5-1-2.9-1.9-4.4-2.8c0,0,0,0,0,0c-0.2-0.1-0.5-0.3-0.7-0.4
		c-1.5-0.9-3-1.8-4.6-2.6c0,0,0,0,0,0c-0.1-0.1-0.2-0.1-0.4-0.2c-0.8-0.4-1.6-0.8-2.3-1.2c0,0,0,0,0,0c-0.1-0.1-0.3-0.1-0.4-0.2
		c0,0,0,0,0,0c-1.9-0.9-3.8-1.8-5.7-2.7c-0.1,0-0.2-0.1-0.3-0.1c-1-0.4-2-0.9-3.1-1.3c-0.1,0-0.2-0.1-0.3-0.1
		c-5.6-2.3-11.4-4.2-17.4-5.6c0,0-0.1,0-0.1,0c-4-1-8-1.8-12.2-2.4c0,0,0,0,0,0c-0.3,0-0.5-0.1-0.8-0.1c0,0,0,0,0,0
		c-0.7-0.1-1.4-0.2-2.2-0.3c0,0,0,0,0,0c-0.3,0-0.7-0.1-1-0.1c0,0,0,0,0,0c-0.9-0.1-1.8-0.2-2.7-0.3c-0.2,0-0.3,0-0.5,0c0,0,0,0,0,0
		c-2.7-0.2-5.3-0.4-8-0.5c0,0,0,0,0,0c-1.1,0-2.1,0-3.2,0c-70.7,0-128,57.3-128,128c0,1.1,0,2.1,0,3.2c0,0,0,0,0,0
		c0.1,2.7,0.2,5.4,0.5,8c0,0,0,0,0,0c0,0.2,0,0.3,0,0.5c0.1,0.9,0.2,1.8,0.3,2.7c0,0,0,0,0,0c0,0.3,0.1,0.7,0.1,1c0,0,0,0,0,0
		c0.1,0.7,0.2,1.4,0.3,2.2c0,0,0,0,0,0c0,0.3,0.1,0.5,0.1,0.8c0,0,0,0,0,0c0.3,1.9,0.6,3.7,0.9,5.5c0,0.1,0,0.2,0,0.2c0,0,0,0,0,0
		c0.4,2.1,0.9,4.3,1.4,6.4c0,0,0,0.1,0,0.1c1.5,6,3.4,11.8,5.6,17.4c0,0.1,0.1,0.2,0.1,0.3c0.4,1,0.8,2,1.3,3.1
		c0,0.1,0.1,0.2,0.1,0.3c0.8,1.9,1.7,3.8,2.7,5.7c0,0,0,0,0,0c0.1,0.1,0.1,0.3,0.2,0.4c0,0,0,0,0,0c0.4,0.8,0.8,1.6,1.2,2.3
		c0.1,0.1,0.1,0.2,0.2,0.4c0,0,0,0,0,0c0.8,1.5,1.7,3.1,2.6,4.6c0.1,0.2,0.3,0.5,0.4,0.7c0,0,0,0,0,0c0.4,0.6,0.8,1.3,1.1,1.9
		c0,0,0,0,0,0c0,0.1,0.1,0.1,0.1,0.2c1,1.7,2.1,3.3,3.2,4.9c0,0,0,0,0,0c0.1,0.2,0.2,0.4,0.4,0.5c1,1.5,2.1,3,3.2,4.4c0,0,0,0,0,0
		c0,0,0,0,0,0c0.6,0.8,1.2,1.6,1.9,2.4c0,0,0,0,0,0c0.1,0.1,0.1,0.2,0.2,0.2c0.6,0.8,1.3,1.5,1.9,2.3c0,0,0,0,0,0c0,0,0,0,0,0
		c1.3,1.5,2.6,3,3.9,4.4c0,0,0,0,0,0l0.2,0.2l-0.2,0.2l3.3,3.1l3.1,3.3l0.2-0.2l0.2,0.2c0,0,0,0,0,0c1.4,1.3,2.9,2.6,4.4,3.9
		c0,0,0,0,0,0c0,0,0,0,0,0c0.8,0.6,1.5,1.3,2.3,1.9c0.1,0.1,0.2,0.1,0.2,0.2c0,0,0,0,0,0c0.8,0.6,1.6,1.3,2.4,1.9c0,0,0,0,0,0
		c0,0,0,0,0,0c1.5,1.1,2.9,2.2,4.4,3.2c0.2,0.1,0.4,0.3,0.5,0.4c0,0,0,0,0,0c1.6,1.1,3.3,2.2,4.9,3.2c0.1,0,0.1,0.1,0.2,0.1
		c0,0,0,0,0,0c0.6,0.4,1.2,0.8,1.9,1.1c0,0,0,0,0,0c0.2,0.1,0.5,0.3,0.7,0.4c1.5,0.9,3,1.7,4.6,2.6c0,0,0,0,0,0
		c0.1,0.1,0.2,0.1,0.4,0.2c0.8,0.4,1.6,0.8,2.3,1.2c0,0,0,0,0,0c0.1,0.1,0.3,0.1,0.4,0.2c0,0,0,0,0,0c1.9,0.9,3.8,1.8,5.7,2.7
		c0.1,0,0.2,0.1,0.3,0.1c1,0.4,2,0.9,3.1,1.3c0.1,0,0.2,0.1,0.3,0.1c5.6,2.3,11.4,4.2,17.4,5.6c0,0,0.1,0,0.1,0
		c2.1,0.5,4.2,1,6.4,1.4c0,0,0,0,0,0c0.1,0,0.2,0,0.2,0c1.8,0.3,3.7,0.7,5.5,0.9c0,0,0,0,0,0c0.3,0,0.5,0.1,0.8,0.1c0,0,0,0,0,0
		c0.7,0.1,1.4,0.2,2.2,0.3c0,0,0,0,0,0c0.3,0,0.7,0.1,1,0.1c0,0,0,0,0,0c0.9,0.1,1.8,0.2,2.7,0.3c0.2,0,0.3,0,0.5,0c0,0,0,0,0,0
		c2.7,0.2,5.3,0.4,8,0.5c0,0,0,0,0,0c1.1,0,2.1,0,3.2,0c70.7,0,128-57.3,128-128C272-165.1,272-166.1,272-167.2z M174-172.6
		c2.5,1.7,3.2,5.1,1.6,7.6c-1.7,2.5-5.1,3.2-7.6,1.6c-1.2-0.8-1.9-1.9-2.3-3.2l6.7-6.7C173-173.1,173.5-172.9,174-172.6z
		 M150.9-130.9c-2,3-6,3.8-9,1.8c-3-2-3.8-6-1.8-9c2-3,6-3.8,9-1.8C152.1-137.9,152.9-133.9,150.9-130.9z M224.9-251.3l-48.8,48.8
		l-70.6,70.6L56.7-83.1C37-104.3,25-132.8,25-164c0-65.7,53.3-119,119-119C175.2-283,203.7-271,224.9-251.3z M63.1-76.7l39.8-39.8
		l-2.6,4.2c-1.3,2.1-0.6,4.9,1.5,6.2c0.7,0.4,1.5,0.7,2.3,0.7c0.1,0,0.3,0,0.4,0c1.4-0.1,2.6-0.9,3.4-2.1l2-3.3l7.8-12.7
		c1.1,0.6,2.2,1.1,3.4,1.6c0.3,0.1,0.5,0.2,0.8,0.3c3,1.2,6.4,1.7,9,3.8c1.8,1.4,3,3.6,3.6,5.8c1.1,4.3,0.2,8.8,0.1,13.2
		c0,1-0.5,1.8-1.3,2.4c-3.8,2.7-5.7,8.1-2.7,13.9c0.1,0.3,0.3,0.5,0.6,0.8c7.2,6.9,16.7,2.6,17.9-5.1c0.6-3.9-1.2-7.5-4.1-9.6
		c-0.8-0.6-1.3-1.5-1.3-2.4c0-4.2-1.2-11,0.6-14.8c0.5-1,1.3-1.8,2.1-2.5c3.6-2.9,8.1-4.5,12.6-6.2l8.9,16.7c0.8,1.5,2.4,2.4,4,2.4
		c0.7,0,1.4-0.2,2.1-0.5c2.2-1.2,3-3.9,1.9-6.1l-8.7-16.3c0.1-0.1,0.2-0.1,0.3-0.2c4.9-3.3,9.2-7.4,12.7-12.2l14.5,8.9
		c0.7,0.4,1.5,0.7,2.3,0.7c1.5,0,3-0.8,3.8-2.2c1.3-2.1,0.6-4.9-1.5-6.2l-14.1-8.6c2.4-2.4,5.7-3.8,9.1-4.1
		c5.2-0.5,10.4,1.1,15.4,2.2c0.9,0.2,1.6,0.9,2,1.7c1.3,3.1,4.2,5.5,7.8,6c7.7,1.1,14.6-6.8,10-15.7c-0.1-0.3-0.3-0.6-0.6-0.8
		c-5-4.8-11-4.2-14.7-0.9c-0.7,0.6-1.7,0.9-2.6,0.7c-4.5-1-11.6-1.2-15.5-3.7c-1.2-0.8-2.1-1.9-2.8-3.1c-2.1-3.4-3.1-7.1-3.9-10.9
		l16.6-4c2.4-0.6,3.9-3,3.3-5.4c-0.6-2.4-3-3.9-5.4-3.3l-16.6,4c-0.4-1.2-0.8-2.3-1.3-3.5c-1.2-2.9-2.6-5.7-4.3-8.4l49.5-49.5
		C251-223.7,263-195.2,263-164c0,65.7-53.3,119-119,119C112.8-45,84.3-57,63.1-76.7z"/>
	<path d="M130.3-249.4c-0.6,3.8,1.1,7.4,4,9.5c0.8,0.6,1.3,1.4,1.3,2.4c0,3.5,1.2,10.1-0.3,13.2c-0.3,0.6-0.8,1.1-1.3,1.5
		c-3.8,3.3-8.3,5.6-12.7,8c-0.1,0-0.2,0.1-0.3,0.1c-0.3,0.1-0.6,0.2-0.8,0.4l-8.7-16.3c-1.2-2.2-3.9-3-6.1-1.9
		c-2.2,1.2-3,3.9-1.9,6.1l8.7,16.3c-2.7,1.8-5.3,3.9-7.7,6.2c-1.7,1.7-3.1,3.6-4.5,5.6l-17.4-10.6c-2.1-1.3-4.9-0.6-6.2,1.5
		c-1.3,2.1-0.6,4.9,1.5,6.2L94.8-191c-0.8,0.9-1.6,1.7-2.6,2.4c-4.1,3.1-7.3,3.8-12.4,2.6c-2.9-0.7-10.8-1-12.1-4.1
		c-2.1-5-8.3-8.1-15-4.6c-0.3,0.1-0.5,0.3-0.8,0.6c-6.9,7.2-2.6,16.7,5.1,17.9c3.1,0.4,6.1-0.6,8.2-2.5c0.7-0.6,1.6-0.9,2.5-0.7
		c4.6,1,9.3,0.9,13.8,2c6.4,1.7,7.5,4.6,8.3,10.8c0.3,2.2,0.5,4.4,0.8,6.5l-19.4,4.7c-2.4,0.6-3.9,3-3.3,5.4
		c0.5,2.1,2.3,3.4,4.4,3.4c0.4,0,0.7,0,1.1-0.1l19.4-4.7c1.6,4.5,3.9,8.9,6.8,12.7l70.4-70.4l9.3-15.3c1.3-2.1,0.6-4.9-1.5-6.2
		c-2.1-1.3-4.9-0.6-6.2,1.5l-9.7,15.8c-4.8-2.1-10.1-3.2-14.2-6.5c-1-0.8-1.9-1.7-2.5-2.9c-1.9-3.9-0.6-10.8-0.6-15
		c0-1,0.5-1.8,1.3-2.4c3.9-2.7,5.8-8.1,2.8-14c-0.1-0.3-0.3-0.5-0.6-0.8C140.9-261.5,131.4-257.1,130.3-249.4z M106.5-172
		c-3,0-5.5-2.5-5.5-5.5s2.5-5.5,5.5-5.5c3,0,5.5,2.5,5.5,5.5S109.5-172,106.5-172z M143.7-186.6c-2.4,3.7-7.4,4.7-11.1,2.3
		c-3.7-2.4-4.7-7.4-2.3-11.1c2.4-3.7,7.4-4.7,11.1-2.3C145.1-195.2,146.1-190.3,143.7-186.6z"/>
</g>
<g>
	<path d="M463.2-89.7v-104.8c0-2.5-2-4.5-4.5-4.5s-4.5,2-4.5,4.5v104.8c-4.9,1.8-8.3,6.5-8.3,12c0,7.1,5.8,12.8,12.8,12.8
		s12.8-5.8,12.8-12.8C471.5-83.2,468.1-87.9,463.2-89.7z M458.7-73.8c-2.1,0-3.8-1.7-3.8-3.8s1.7-3.8,3.8-3.8s3.8,1.7,3.8,3.8
		S460.8-73.8,458.7-73.8z"/>
	<path d="M409.7-219.8h13c2.5,0,4.5-2,4.5-4.5s-2-4.5-4.5-4.5h-13c-2.5,0-4.5,2-4.5,4.5S407.2-219.8,409.7-219.8z"/>
	<path d="M409.7-252.1h13c2.5,0,4.5-2,4.5-4.5s-2-4.5-4.5-4.5h-13c-2.5,0-4.5,2-4.5,4.5S407.2-252.1,409.7-252.1z"/>
	<path d="M409.7-187.4h13c2.5,0,4.5-2,4.5-4.5s-2-4.5-4.5-4.5h-13c-2.5,0-4.5,2-4.5,4.5S407.2-187.4,409.7-187.4z"/>
	<path d="M409.7-155h13c2.5,0,4.5-2,4.5-4.5s-2-4.5-4.5-4.5h-13c-2.5,0-4.5,2-4.5,4.5S407.2-155,409.7-155z"/>
	<path d="M427.2-127.1c0-2.5-2-4.5-4.5-4.5h-13c-2.5,0-4.5,2-4.5,4.5s2,4.5,4.5,4.5h13C425.2-122.6,427.2-124.6,427.2-127.1z"/>
	<path d="M482.2-109.8v-151.5c0-18.4-8.7-29.5-23.4-29.5h-0.1c-0.2,0-0.5,0-0.7,0c-0.4,0-0.9,0-1.3,0c-17.8,1.2-20.6,18.8-20.6,29.5
		v150.9c-11,7.5-17.5,19.7-17.5,33.1c0,22.1,18,40.1,40.1,40.1s40.1-18,40.1-40.1C498.9-90.2,492.7-102.3,482.2-109.8z M458.8-46.1
		c-17.2,0-31.1-14-31.1-31.1c0-10.5,5.2-20.1,13.9-25.9c2.1-0.4,3.6-2.2,3.6-4.4v-153.8c0-7.2,2.3-13.7,6.1-17.4
		c2.1-2.1,4.6-3.1,7.2-3.1h0.1c5.7,0.1,10.5,4.4,12.9,10.7c1.1,2.9,1.7,6.2,1.7,9.8v153.7c0,1.7,0.9,3.1,2.3,3.9
		c0.2,0.2,0.4,0.4,0.7,0.6c8.6,5.8,13.8,15.5,13.8,25.8C489.9-60.1,476-46.1,458.8-46.1L458.8-46.1z"/>
</g>
<path d="M271.1,18c-0.9-1.3-2.4-2.1-4-2c-32.2,1.7-84.3,20.7-86.5,21.6c-1.2,0.4-2.1,1.4-2.6,2.6l-6,15l-7.9-7.9
	c-1.4-1.4-3.6-1.7-5.3-0.8c-4,2.2-39.3,21.7-46,29.8c-4.2,5.1-7.4,16.6-9.4,25.6l-6.7-11.2c-0.7-1.2-2-2-3.3-2.2
	c-1.4-0.2-2.8,0.3-3.7,1.3c-0.5,0.5-11.9,12.4-20.8,30.2c-11.9,23.8-13.6,46.8-4.8,66.7c-15.9,23.5-30.9,49.3-47.4,78.6
	c-1.2,2.2-0.5,4.9,1.7,6.1c0.7,0.4,1.5,0.6,2.2,0.6c1.6,0,3.1-0.8,3.9-2.3C40.2,242,54.4,217.3,69.3,195c5.3,5.8,12.7,8.8,22.1,8.8
	c0.6,0,1.3,0,1.9,0c24.2-1,54.4-20.3,70.2-31.7c19.3-13.9,40.7-33.3,44.3-43.5c0.4-1.1,0.3-2.4-0.2-3.5s-1.5-1.9-2.6-2.3l-20.2-6.7
	l40.7-5.8c1.5-0.2,2.7-1.1,3.4-2.4l42.5-85.4C272.1,21.1,272,19.4,271.1,18z M221.8,101.5l-57.3,8.2c-2.1,0.3-3.7,2-3.8,4.1
	c-0.2,2.1,1.1,4,3.1,4.7l33.2,11.1c-5.6,7.9-20.1,21.7-38.8,35.2c-25.5,18.4-49.4,29.3-65.3,30c-8.5,0.4-14.5-2.1-18.3-7.5
	c7.2-10.4,14.6-20.2,22.5-29.7c29.5-35.4,62.6-61.4,104.3-81.8c2.2-1.1,3.2-3.8,2.1-6c-1.1-2.2-3.8-3.2-6-2.1
	c-42.9,21-76.9,47.8-107.2,84.2c-7,8.3-13.5,17-19.9,26c-10.5-32.7,12.5-65.5,22-77.2l9.6,16c1,1.6,2.9,2.5,4.7,2.1
	c1.9-0.4,3.3-1.8,3.6-3.7c1.6-10.2,5.6-28.1,9.7-33c3.9-4.8,25.7-17.8,40.5-26l10,10.2c1.1,1.1,2.6,1.5,4.1,1.2s2.7-1.3,3.3-2.7
	l7.8-19.4c8.8-3.1,46.6-16.2,74.1-19.6L221.8,101.5z"/>
</svg>
