<svg xmlns="http://www.w3.org/2000/svg" xmlns:xlink="http://www.w3.org/1999/xlink" version="1.1" id="icon" x="0px" y="0px" viewBox="0 0 288 288" style="enable-background:new 0 0 288 288;" xml:space="preserve">
<path d="M239.6,170.7l-29.1-29.1l28.4-28.4c1.8-1.8,1.8-4.6,0-6.4c-1.8-1.8-4.6-1.8-6.4,0l-28.4,28.4L178.9,110l28.4-28.4  c1.8-1.8,1.8-4.6,0-6.4c-1.8-1.8-4.6-1.8-6.4,0l-28.4,28.4l-25.2-25.2l28.4-28.4c1.8-1.8,1.8-4.6,0-6.4c-1.8-1.8-4.6-1.8-6.4,0  L141,72.1l-27.7-27.7c-1.8-1.8-4.6-1.8-6.4,0c-1.8,1.8-1.8,4.6,0,6.4l27.7,27.7l-25.2,25.2L81.7,76c-1.8-1.8-4.6-1.8-6.4,0  c-1.8,1.8-1.8,4.6,0,6.4L103,110l-25.2,25.2l-27.7-27.7c-1.8-1.8-4.6-1.8-6.4,0c-1.8,1.8-1.8,4.6,0,6.4l27.7,27.7L43,170  c-1.8,1.8-1.8,4.6,0,6.4c0.9,0.9,2,1.3,3.2,1.3c1.2,0,2.3-0.4,3.2-1.3L77.8,148l25.2,25.2l-28.4,28.4c-1.8,1.8-1.8,4.6,0,6.4  c0.9,0.9,2,1.3,3.2,1.3s2.3-0.4,3.2-1.3l28.4-28.4l25.2,25.2l-28.4,28.4c-1.8,1.8-1.8,4.6,0,6.4c0.9,0.9,2,1.3,3.2,1.3  s2.3-0.4,3.2-1.3l28.4-28.4l29.1,29.1c0.9,0.9,2,1.3,3.2,1.3s2.3-0.4,3.2-1.3c1.8-1.8,1.8-4.6,0-6.4l-29.1-29.1l25.2-25.2l29.1,29.1  c0.9,0.9,2,1.3,3.2,1.3s2.3-0.4,3.2-1.3c1.8-1.8,1.8-4.6,0-6.4l-29.1-29.1l25.2-25.2l29.1,29.1c0.9,0.9,2,1.3,3.2,1.3  s2.3-0.4,3.2-1.3C241.4,175.3,241.4,172.5,239.6,170.7z M141,84.8l25.2,25.2L141,135.3L115.7,110L141,84.8z M84.2,141.6l25.2-25.2  l25.2,25.2l-25.2,25.2L84.2,141.6z M141,198.4l-25.2-25.2L141,148l25.2,25.2L141,198.4z M172.5,166.8l-25.2-25.2l25.2-25.2  l25.2,25.2L172.5,166.8z"></path>
</svg>