<svg enable-background="new 0 0 255.7 256" height="256" viewBox="0 0 255.7 256" width="255.7" xmlns="http://www.w3.org/2000/svg"><path d="m255 2c-.9-1.3-2.4-2.1-4-2-32.2 1.7-84.3 20.7-86.5 21.6-1.2.4-2.1 1.4-2.6 2.6l-6 15-7.9-7.9c-1.4-1.4-3.6-1.7-5.3-.8-4 2.2-39.3 21.7-46 29.8-4.2 5.1-7.4 16.6-9.4 25.6l-6.7-11.2c-.7-1.2-2-2-3.3-2.2-1.4-.2-2.8.3-3.7 1.3-.5.5-11.9 12.4-20.8 30.2-11.9 23.8-13.6 46.8-4.8 66.7-15.9 23.5-30.9 49.3-47.4 78.6-1.2 2.2-.5 4.9 1.7 6.1.7.4 1.5.6 2.2.6 1.6 0 3.1-.8 3.9-2.3 15.7-27.7 29.9-52.4 44.8-74.7 5.3 5.8 12.7 8.8 22.1 8.8h1.9c24.2-1 54.4-20.3 70.2-31.7 19.3-13.9 40.7-33.3 44.3-43.5.4-1.1.3-2.4-.2-3.5s-1.5-1.9-2.6-2.3l-20.2-6.7 40.7-5.8c1.5-.2 2.7-1.1 3.4-2.4l42.5-85.4c.7-1.4.6-3.1-.3-4.5zm-49.3 83.5-57.3 8.2c-2.1.3-3.7 2-3.8 4.1-.2 2.1 1.1 4 3.1 4.7l33.2 11.1c-5.6 7.9-20.1 21.7-38.8 35.2-25.5 18.4-49.4 29.3-65.3 30-8.5.4-14.5-2.1-18.3-7.5 7.2-10.4 14.6-20.2 22.5-29.7 29.5-35.4 62.6-61.4 104.3-81.8 2.2-1.1 3.2-3.8 2.1-6s-3.8-3.2-6-2.1c-42.9 21-76.9 47.8-107.2 84.2-7 8.3-13.5 17-19.9 26-10.5-32.7 12.5-65.5 22-77.2l9.6 16c1 1.6 2.9 2.5 4.7 2.1 1.9-.4 3.3-1.8 3.6-3.7 1.6-10.2 5.6-28.1 9.7-33 3.9-4.8 25.7-17.8 40.5-26l10 10.2c1.1 1.1 2.6 1.5 4.1 1.2s2.7-1.3 3.3-2.7l7.8-19.4c8.8-3.1 46.6-16.2 74.1-19.6z"/></svg>