<svg enable-background="new 0 0 166.2 256" height="256" viewBox="0 0 166.2 256" width="166.2" xmlns="http://www.w3.org/2000/svg"><path d="m119.2 128.6c13.3-7.7 18.3-20.2 18.5-35.3.4 0 .9-.2 1-.1 12.4 15.8 22.5 32.8 26.2 52.9 4 21.3-1.2 40.7-12.3 58.8-12.5 20.2-29.3 36.4-48.2 50.8.8-.9 1.6-1.8 2.3-2.8 4.7-6.4 10-12.5 14-19.3 10.4-17.4 10.5-35.7 1.4-53.5-4.7-9.2-11.1-17.6-16.8-26.2-2.4-3.7-5.2-7.2-7.8-10.8-7.2-10.4-11.5-21.4-6-34.2-11.3 4.6-22.6 22-26.1 34-4.2 14.4-2.9 28.8-1.3 44.2-8.3-5.2-10.4-12.7-10.9-21-9 6.3-16.9 30.8-15.2 46.2 1.4 12.8 7.2 23.3 23.2 43.7-4.5-3.8-9.1-7.5-13.5-11.5-15-13.5-28.4-28.3-37.9-46.3-13-24.5-12.7-49.2-1.5-74.2 7.1-15.8 17.6-29.3 28.5-42.6 7.7-9.5 15.7-18.9 22.9-28.7 7.3-10 13.4-20.8 12.4-33.8-.5-6.5-2.5-12.8-3.7-18.9 9.6 3.3 27.6 20.7 35.3 32.6 9.1 14.2 15.6 29.4 16.3 46.2.6 16.5-.5 33-.8 49.8z"/></svg>