<svg enable-background="new 0 0 512 512" viewBox="0 0 512 512" xmlns="http://www.w3.org/2000/svg"><path d="m442.434 52.012-166.653-49.149c-12.938-3.817-26.621-3.817-39.563 0l-166.651 49.148c-12.304 3.628-20.897 15.12-20.897 27.948v138.014c0 63.872 19.013 125.375 54.984 177.86 35.118 51.243 83.991 90.665 141.33 114 3.552 1.445 7.284 2.168 11.016 2.168s7.464-.724 11.015-2.168c57.339-23.335 106.212-62.755 141.33-114 35.97-52.486 54.983-113.988 54.983-177.86v-138.013c.002-12.828-8.591-24.321-20.894-27.948zm-2.414 165.96c0 59.147-17.602 116.093-50.901 164.681-32.53 47.466-77.79 83.978-130.889 105.587-1.438.585-3.021.585-4.459 0-53.099-21.609-98.36-58.12-130.889-105.587-33.299-48.588-50.901-105.533-50.901-164.681v-138.013c0-2.565 1.719-4.863 4.18-5.589l166.652-49.149c4.314-1.273 8.751-1.908 13.188-1.908 4.436 0 8.873.636 13.187 1.909l166.654 49.148c2.459.725 4.178 3.023 4.178 5.589z"/><path d="m385.15 103.555-124.206-36.63c-3.234-.953-6.652-.955-9.888 0l-124.203 36.63c-7.382 2.178-12.539 9.074-12.539 16.77v97.647c0 51.598 15.608 101.088 45.134 143.122 22.892 32.593 53.481 59.502 88.458 77.82 2.534 1.328 5.314 1.991 8.095 1.991 2.78 0 5.56-.663 8.095-1.991 34.976-18.317 65.565-45.228 88.458-77.82 29.526-42.033 45.134-91.524 45.134-143.122v-97.647c-.001-7.698-5.157-14.593-12.538-16.77zm-10.772 114.417c0 46.777-14.142 91.635-40.897 129.723-20.172 28.717-46.912 52.562-77.48 69.12-30.568-16.559-57.309-40.403-77.48-69.12-26.755-38.088-40.897-82.946-40.897-129.723v-93.29l118.377-34.912 118.377 34.912z"/></svg>