<svg enable-background="new 0 0 93.6 253.6" height="253.6" viewBox="0 0 93.6 253.6" width="93.6" xmlns="http://www.w3.org/2000/svg"><path d="m58 201.1v-104.8c0-2.5-2-4.5-4.5-4.5s-4.5 2-4.5 4.5v104.8c-4.9 1.8-8.3 6.5-8.3 12 0 7.1 5.8 12.8 12.8 12.8s12.8-5.8 12.8-12.8c0-5.5-3.4-10.2-8.3-12zm-4.5 15.9c-2.1 0-3.8-1.7-3.8-3.8s1.7-3.8 3.8-3.8 3.8 1.7 3.8 3.8-1.7 3.8-3.8 3.8z"/><path d="m4.5 71h13c2.5 0 4.5-2 4.5-4.5s-2-4.5-4.5-4.5h-13c-2.5 0-4.5 2-4.5 4.5s2 4.5 4.5 4.5z"/><path d="m4.5 38.7h13c2.5 0 4.5-2 4.5-4.5s-2-4.5-4.5-4.5h-13c-2.5 0-4.5 2-4.5 4.5s2 4.5 4.5 4.5z"/><path d="m4.5 103.4h13c2.5 0 4.5-2 4.5-4.5s-2-4.5-4.5-4.5h-13c-2.5 0-4.5 2-4.5 4.5s2 4.5 4.5 4.5z"/><path d="m4.5 135.8h13c2.5 0 4.5-2 4.5-4.5s-2-4.5-4.5-4.5h-13c-2.5 0-4.5 2-4.5 4.5s2 4.5 4.5 4.5z"/><path d="m22 163.7c0-2.5-2-4.5-4.5-4.5h-13c-2.5 0-4.5 2-4.5 4.5s2 4.5 4.5 4.5h13c2.5 0 4.5-2 4.5-4.5z"/><path d="m77 181v-151.5c0-18.4-8.7-29.5-23.4-29.5h-.1c-.2 0-.5 0-.7 0-.4 0-.9 0-1.3 0-17.8 1.2-20.6 18.8-20.6 29.5v150.9c-11 7.5-17.5 19.7-17.5 33.1 0 22.1 18 40.1 40.1 40.1s40.1-18 40.1-40.1c.1-12.9-6.1-25-16.6-32.5zm-23.4 63.7c-17.2 0-31.1-14-31.1-31.1 0-10.5 5.2-20.1 13.9-25.9 2.1-.4 3.6-2.2 3.6-4.4v-153.8c0-7.2 2.3-13.7 6.1-17.4 2.1-2.1 4.6-3.1 7.2-3.1h.1c5.7.1 10.5 4.4 12.9 10.7 1.1 2.9 1.7 6.2 1.7 9.8v153.7c0 1.7.9 3.1 2.3 3.9.2.2.4.4.7.6 8.6 5.8 13.8 15.5 13.8 25.8-.1 17.2-14 31.2-31.2 31.2z"/></svg>