<svg enable-background="new 0 0 288 288" height="288" viewBox="0 0 288 288" width="288" xmlns="http://www.w3.org/2000/svg"><path d="m78.9 46.5c2 9.2 4 17.9 8.9 22.7 5.1 5.1 11.9 7.7 18.6 7.7 5.2 0 10.4-1.5 14.9-4.6 12.4 18.1 27.7 78.8 32.8 102.2.4 2 2.1 3.4 4.2 3.4h.1c2 0 3.7-1.3 4.2-3.2.1-.3 4.7-16.5 15.1-37.9 7.4 4.4 15.7 6.8 24.4 6.8h.8c13.3-.2 26.1-6.1 35.8-16.5 8.5-9 11.7-26 15.2-43.9 3.9-20.3 7.9-41.3 19.3-52.7 1.3-1.3 1.6-3.1.9-4.8-.7-1.6-2.3-2.7-4-2.7-46.7 0-82.1 18.5-99.7 35.8-10.4 10.2-16.1 23.2-16.2 36.7-.1 12.7 4.9 24.7 14 33.8.7.7 1.5 1.5 2.3 2.1-5 10.1-8.7 19.1-11.3 26.1-2.1-8.8-5.1-20.6-8.6-32.8-8.5-29.7-16.2-49.4-22.9-58.6 7.6-10.3 6.7-24.9-2.6-34.2-10.6-10.6-31.2-17.5-52.5-17.5-1.8 0-3.4 1.1-4 2.7-.7 1.6-.3 3.5.9 4.8 5.1 5.3 7.3 15.1 9.4 24.6zm95.5 76.7c-7.4-7.4-11.5-17.2-11.5-27.6 0-11.1 4.9-21.9 13.6-30.5 15.2-14.9 44.9-30.8 84.4-33-8.7 13.5-12.3 32.5-15.6 49.5-3.2 16.6-6.2 32.3-12.9 39.5-8.1 8.7-18.6 13.5-29.6 13.7-7.5.1-14.8-1.9-21.1-5.9 9.3-17.7 22.4-38 39.9-55.5 1.7-1.7 1.7-4.5 0-6.2s-4.5-1.7-6.2 0c-17.9 17.9-31.2 38.1-40.8 56.1 0 0-.1 0-.2-.1zm-55.5-85c6.9 6.9 6.9 18 0 24.9s-18 6.9-24.9 0c-3.1-3.1-4.8-10.9-6.5-18.5-1.5-7-3.2-14.6-6.4-20.9 17.6 1.6 31.3 8 37.8 14.5z"/><path d="m234.8 203.6-37.8 7.6c-.8-13-5.1-20.9-20.3-24.7l-100.3-25.1c.2-1.6.4-3.2.5-4.7.1-1.3-.4-2.6-1.3-3.6-9.3-8.9-47-9.7-54.5-9.8-1.2 0-2.3.4-3.1 1.3-.8.8-1.3 1.9-1.3 3.1v94.5c0 2.4 2 4.4 4.4 4.4h34.4c2 0 3.7-1.4 4.2-3.3.1-.4.5-2.1 1.2-4.7l79.1 25 1.6.6c9 3.4 15.1 5.5 22.2 5.5 10.1 0 22.3-4.2 48.1-14.8l60.1-25.8c1.1-.5 2-1.4 2.4-2.5s.3-2.4-.2-3.5c-7.7-15.1-24.2-23.2-39.4-19.5zm-209.4 34.3v-85.7c15.5.5 35.7 2.5 42.6 6.2-2.5 24-13 67.2-16 79.5zm182.9 8.9c-42.3 17.3-44.8 16.4-63.8 9.2l-1.7-.7c-.1 0-.2-.1-.2-.1l-79.7-25.2c3.6-15.1 9.3-40.3 12.4-60l99.4 24.8c10.3 2.6 13.4 6.4 13.8 18.4l-9.7 3.2c-3.9 1-6.8.7-10.7-.1l-51.4-12.9c-2.4-.6-4.7.8-5.3 3.2-.6 2.3.8 4.7 3.2 5.3l51.4 13.1h.2c2.7.5 5.1.9 7.6.9 2.2 0 4.6-.3 7.2-.9.1 0 .2-.1.3-.1l12.6-4.2 42.7-8.5h.2c9.7-2.4 20.6 2.2 27 10.9z"/></svg>