<svg enable-background="new 0 0 239.7 239.7" height="239.7" viewBox="0 0 239.7 239.7" width="239.7" xmlns="http://www.w3.org/2000/svg"><path d="m136.6 20h9v30h-9z" transform="matrix(.7071 -.7071 .7071 .7071 16.5665 110.0002)"/><path d="m179 62.4h9v30h-9z" transform="matrix(.7071 -.7071 .7071 .7071 -1.0069 152.4261)"/><path d="m221.4 104.9h9v30h-9z" transform="matrix(.7071 -.7071 .7071 .7071 -18.5778 194.8601)"/><path d="m104.9 9.3h30v9h-30z" transform="matrix(.7072 -.7071 .7071 .7072 25.3486 88.7813)"/><path d="m147.3 51.7h30v9h-30z" transform="matrix(.7072 -.7071 .7071 .7072 7.7749 131.2031)"/><path d="m189.7 94.1h30v9h-30z" transform="matrix(.7072 -.7071 .7071 .7072 -9.7986 173.6247)"/><path d="m189.7 136.6h30v9h-30z" transform="matrix(.7071 -.7071 .7071 .7071 -39.7927 186.0676)"/><path d="m147.3 179h30v9h-30z" transform="matrix(.7071 -.7071 .7071 .7071 -82.2194 168.4942)"/><path d="m104.9 221.4h30v9h-30z" transform="matrix(.7071 -.7071 .7071 .7071 -124.6456 150.9206)"/><path d="m94.1 20h9v30h-9z" transform="matrix(.7071 -.7071 .7071 .7071 4.1406 80.001)"/><path d="m136.6 62.4h9v30h-9z" transform="matrix(.7071 -.7071 .7071 .7071 -13.433 122.4262)"/><path d="m179 104.9h9v30h-9z" transform="matrix(.7071 -.7071 .7071 .7071 -31.0059 164.8546)"/><path d="m104.9 51.7h30v9h-30z" transform="matrix(.7072 -.7071 .7071 .7072 -4.6491 101.2055)"/><path d="m147.3 94.1h30v9h-30z" transform="matrix(.7072 -.7071 .7071 .7072 -22.2227 143.6271)"/><path d="m94.1 62.4h9v30h-9z" transform="matrix(.7071 -.7071 .7071 .7071 -25.8589 92.427)"/><path d="m136.6 104.9h9v30h-9z" transform="matrix(.7071 -.7071 .7071 .7071 -43.4324 134.8543)"/><path d="m179 147.3h9v30h-9z" transform="matrix(.7071 -.7071 .7071 .7071 -61.0063 177.2754)"/><path d="m62.4 51.7h30v9h-30z" transform="matrix(.7072 -.7071 .7071 .7072 -17.0732 71.2079)"/><path d="m104.9 94.1h30v9h-30z" transform="matrix(.7072 -.7071 .7071 .7072 -34.6467 113.6295)"/><path d="m147.3 136.6h30v9h-30z" transform="matrix(.7071 -.7071 .7071 .7071 -52.2191 156.0677)"/><path d="m51.7 62.4h9v30h-9z" transform="matrix(.7071 -.7071 .7071 .7071 -38.2851 62.4271)"/><path d="m94.1 104.9h9v30h-9z" transform="matrix(.7071 -.7071 .7071 .7071 -55.8586 104.8548)"/><path d="m136.6 147.3h9v30h-9z" transform="matrix(.7071 -.7071 .7071 .7071 -73.4321 147.2758)"/><path d="m62.4 94.1h30v9h-30z" transform="matrix(.7072 -.7071 .7071 .7072 -47.0708 83.6319)"/><path d="m104.9 136.6h30v9h-30z" transform="matrix(.7071 -.7071 .7071 .7071 -64.6455 126.0677)"/><path d="m51.7 104.9h9v30h-9z" transform="matrix(.7071 -.7071 .7071 .7071 -68.2851 74.8545)"/><path d="m94.1 147.3h9v30h-9z" transform="matrix(.7071 -.7071 .7071 .7071 -85.8577 117.277)"/><path d="m136.6 189.7h9v30h-9z" transform="matrix(.7071 -.7071 .7071 .7071 -103.4324 159.7072)"/><path d="m20 94.1h30v9h-30z" transform="matrix(.7072 -.7071 .7071 .7072 -59.4949 53.6343)"/><path d="m62.4 136.6h30v9h-30z" transform="matrix(.7071 -.7071 .7071 .7071 -77.0718 96.0678)"/><path d="m104.9 179h30v9h-30z" transform="matrix(.7071 -.7071 .7071 .7071 -94.6457 138.4943)"/><path d="m9.3 104.9h9v30h-9z" transform="matrix(.7071 -.7071 .7071 .7071 -80.7132 44.8568)"/><path d="m51.7 147.3h9v30h-9z" transform="matrix(.7071 -.7071 .7071 .7071 -98.2835 87.2774)"/><path d="m94.1 189.7h9v30h-9z" transform="matrix(.7071 -.7071 .7071 .7071 -115.8586 129.7076)"/><path d="m20 136.6h30v9h-30z" transform="matrix(.7071 -.7071 .7071 .7071 -89.4982 66.0679)"/><path d="m62.4 179h30v9h-30z" transform="matrix(.7071 -.7071 .7071 .7071 -107.0721 108.4944)"/></svg>