<svg enable-background="new 0 0 185.2 256" height="256" viewBox="0 0 185.2 256" width="185.2" xmlns="http://www.w3.org/2000/svg"><path d="m48.3 256 10.5-69.9-56.8-81.5c-2.8-4.1-2.7-6.8.5-11.7l33.8-52.2c1.5-2.5 2.7-2.8 3.6-2.8 1.4.1 2.7.5 3.9 1.2l56.4 27c.1 2.4-.6 4.7-1.9 6.7-4 7.2-11.8 11.6-20.1 11.4-7-.3-13.8-2.2-19.9-5.7l-2.1-1.1-11.1 21 2.3.9c31 13.5 50.3 39.5 58.8 79.9h4.5l8-42.9 27.1 14 30.7-31.7c.6 7.3-.8 14.7-4 21.4l-28.5 56.8v59.1m-92.9-224.5 17.1-31.4h.7c7.4 0 26.8 10.9 27.4 14.4l-18.3 29.5zm36.7 17.1 19.2-32.2c6.6 0 28.3 15.5 28.6 19.2l-26.3 37.9c1.1-8.6-.7-14-5.3-16.5zm17.9 47.2 37.2-50.7c7.1 3.8 13.5 9 18.6 15.3 3.9 4.6 4.6 6.9 4.5 7.4l-41.1 45.2c-7.4-4.6-14-10.4-19.3-17.3zm39.2 37.7c-5.3-3.5-9.7-8.1-12.9-13.6l38.2-42.1c6.7 5.1 11.9 11.9 15 19.7z"/></svg>