<svg enable-background="new 0 0 255 226.7" height="226.7" viewBox="0 0 255 226.7" width="255" xmlns="http://www.w3.org/2000/svg"><path d="m61.7 37.7c-6.8 10.4-10.3 20.8-10.3 30.9-.1 13.2 5.6 23.2 11.5 33.8 5.5 9.6 11.1 19.5 12.8 32.3.3 2.6.5 5.2.5 8.1v.9c-.2 13.3-4.7 26.6-13.5 39.6l-.7 1.1-6.3-7.6.4-.6c7.3-10.9 11.2-21.8 11.4-32.4 0-.3 0-.6 0-.9 0-2.8-.2-5.5-.7-8.1-1.7-9.6-6.2-17.5-11-25.9-6.5-11.5-13.3-23.4-13.2-40.3.1-11.9 3.7-23.9 10.9-35.6l-.9-.5-15.6-9 20.3-11.7 20.3-11.7v46.9z"/><path d="m199.1 37.7c-6.8 10.4-10.3 20.8-10.3 30.9-.1 13.2 5.6 23.2 11.5 33.8 5.5 9.6 11.1 19.5 12.8 32.3.3 2.6.5 5.2.5 8.1v.9c-.2 13.3-4.7 26.6-13.5 39.6l-.7 1.1-6.3-7.6.4-.6c7.3-10.9 11.2-21.8 11.4-32.4 0-.3 0-.6 0-.9 0-2.8-.2-5.5-.7-8.1-1.7-9.6-6.2-17.5-11-25.9-6.5-11.5-13.3-23.4-13.2-40.3.1-11.9 3.7-23.9 10.9-35.6l-.9-.5-15.6-9 20.3-11.7 20.3-11.7v46.9z"/><path d="m130.4 37.7c-6.8 10.4-10.3 20.8-10.3 30.9-.1 13.2 5.6 23.2 11.5 33.8 5.5 9.6 11.1 19.5 12.8 32.3.3 2.6.5 5.2.5 8.1v.9c-.2 13.3-4.7 26.6-13.5 39.6l-.8 1.1-6.3-7.6.4-.6c7.3-10.9 11.2-21.8 11.4-32.4 0-.3 0-.6 0-.9 0-2.8-.2-5.5-.7-8.1-1.7-9.6-6.2-17.5-11-25.9-6.5-11.5-13.3-23.4-13.2-40.3.1-11.9 3.7-23.9 10.9-35.6l-.9-.5-15.6-9 20.4-11.8 20.3-11.7v46.9z"/><path d="m222.1 134.7c.3 2.6.5 5.3.5 8.1v.9h16.8l-43.2 74h-180.6l42.8-73.4c0-.5 0-1 0-1.5 0-2.8-.3-5.5-.9-8.1h-3.9l-53.6 92h201.3l53.7-92zm-27.1 0h-41.5c.3 2.6.5 5.3.5 8.1v.9h42c0-.3 0-.6 0-.9-.1-2.9-.5-5.5-1-8.1zm-68.7 0h-41.5c.3 2.6.5 5.3.5 8.1v.9h42c0-.3 0-.6 0-.9-.1-2.9-.4-5.5-1-8.1z"/></svg>