<svg enable-background="new 0 0 256 202.5" height="202.5" viewBox="0 0 256 202.5" width="256" xmlns="http://www.w3.org/2000/svg"><path d="m251.3 91.9c-14.9-15.9-31.5-29.8-50.1-41.3-2-1.2-3.9-2.5-7.1-4.6 11.7-11.3 22.6-22 33.3-32.4-4.9-5-9.5-9.8-13.3-13.7-25.7 25.7-51.4 51.4-77.1 77.1l-33 33.2c-30.2 30.2-48.4 48.4-78.3 78.3 4 4.2 8.6 8.9 13.5 14 15.3-15.3 19.1-18.8 34.3-34.5 3.6-3.7 6.4-4.5 11.4-2.4 26.5 11.6 53.6 12.3 80.9 2.9 34-11.6 61.3-33.1 85.6-58.8 6.2-6.6 6.2-11.1-.1-17.8zm-88.6 46.2c-17.5 16.5-46.3 18.8-63.8 4.4 6.2-6.1 12.4-12.3 18.6-18.3 3.1 1.4 6.6 2.2 10.3 2.2 14.1 0 25.5-11.4 25.5-25.5 0-3.7-.8-7.2-2.2-10.3 5.8-6.2 11.9-12.2 17.9-18.4 14.9 19.8 11.9 48.7-6.3 65.9z"/><path d="m73.3 114.3c3.1-3 4.2-6 4-10.4-1.6-31.8 24.2-56.4 56-53.9 1.8.1 4.2-.2 5.3-1.3 5.8-5.4 11.3-11.1 17.5-17.2-12.4-4.6-31.2-5.6-46.9-2.6-43.4 8.3-76.5 33.6-105.9 64.6-4 4.2-4.6 9.7-.3 13.8 13.1 12.4 26.8 24.3 40.4 36.7 10.7-10.7 20.1-20.4 29.9-29.7z"/></svg>