<svg id="Layer_1" data-name="Layer 1" xmlns="http://www.w3.org/2000/svg" viewBox="0 0 256 256"><title>full-suit</title><path d="M219.93,65.79a23.89,23.89,0,0,0-2.34-4,46.5,46.5,0,0,0-3.88-5.64l-1.48-1.82A122.37,122.37,0,0,1,203.71,43c-2.88-4.58-9.75-11.81-20.44-21.5C173.79,13,156.35,8.07,151.64,7.1c-.89-.35-2.81-1.14-4.44-1.91-.75-.36-1.35-.67-1.76-.91A27.73,27.73,0,0,1,141.19,1a3.42,3.42,0,0,0-1.85-1,10.22,10.22,0,0,0-2-.17,19.51,19.51,0,0,0-4,.44l-.73.13h-9.24l-.73-.13a20.22,20.22,0,0,0-3.86-.44,9.89,9.89,0,0,0-2.13.17,3.42,3.42,0,0,0-1.85,1,27.73,27.73,0,0,1-4.25,3.27c-.41.24-1,.55-1.76.91-1.63.77-3.55,1.56-4.44,1.91C99.65,8.07,82.2,13,72.72,21.54,62,31.23,55.16,38.46,52.29,43a122.37,122.37,0,0,1-8.52,11.29l-1.48,1.82a45.28,45.28,0,0,0-3.88,5.64,23.89,23.89,0,0,0-2.34,4c-1.74,4.21,1.21,6.94,2.47,8.1l.32.3c.12.11.26.27.43.45,4.52,4.84,8.75,5.73,12.6,2.65a69.42,69.42,0,0,0,7.91-7.65,38.75,38.75,0,0,0,8.25-7.51c1.74-2.17,2.23-2.46,2.9-2.86a16.54,16.54,0,0,0,3.29-2.56,23.78,23.78,0,0,1,4.57-3.26,17.76,17.76,0,0,0,4.47-3.34,45.86,45.86,0,0,1,4.49-2.49c1.7-.87,3.27-1.68,4.62-2.47,1.82,9.2,4.81,28.59,3,40.13C94.16,93,92.92,98.33,92,102.2c-.45,2-.83,3.57-1.07,5-.09.5-.17,1-.22,1.51a8.58,8.58,0,0,0,.72,5.07,4,4,0,0,0,.52.79c-.2,1.17-.39,2.34-.57,3.5l-1.33,9.25a249.92,249.92,0,0,0-2.34,31.81c0,2.55.07,4.12.1,4.66-.22,3.69-.26,12.91-.29,20.34,0,4,0,7.48-.08,9.23-.06,2.8-.85,9.84-1.49,15.49,0,.51-.11,1-.16,1.48-.48,4.23-.77,6.91-.78,8v.26c0,.6,0,1.18-.06,1.73,0,.77-.07,1.5-.08,2.24-1.68.7-2.83,2.33-3.87,3.8l-.5.7c-1.71,2.38-2.39,7.45-2.39,10.31a9.28,9.28,0,0,0,.08,1.43c.42,2.76,2.78,5,4.08,6,.3.25.59.47.8.61l0,0a10.84,10.84,0,0,1,2.4,3,14.81,14.81,0,0,0,4.28,5.17,10.31,10.31,0,0,0,4.09,2.16c4,.94,9.58-2.41,10.88-4.44,1.11-1.75,1.16-3.21,1.25-5.64l0-.87v-.45a107,107,0,0,0-1.58-13l0-.13a14.67,14.67,0,0,1-.17-2.25c0-.28,0-.52,0-.72.31-.54.81-1.41,1.4-2.48,1.94-3.51,4.69-8.86,5.73-12.72h0l0-.13c1-3.86,1.89-11.85,2.75-19.59.43-3.84.83-7.47,1.21-10.16.9-6.48,5.64-19,7.92-25.08l.82-2.17.2-.54A79.43,79.43,0,0,0,126.57,145c.38-2.15.9-5,1.43-7.53.53,2.48,1.05,5.38,1.43,7.53a78.63,78.63,0,0,0,2.23,10.3l.18.5.83,2.19c2.28,6,7,18.6,7.92,25.08.38,2.7.78,6.33,1.21,10.18.06.5.11,1,.17,1.49s.11,1,.16,1.5c.76,6.73,1.54,13.22,2.42,16.58l.06.24a62.52,62.52,0,0,0,5,11.36c.89,1.65,1.66,3,2.09,3.74,0,.19,0,.43,0,.69a15.35,15.35,0,0,1-.18,2.37A103.92,103.92,0,0,0,150,244.26v.45l0,.88c.09,2.42.14,3.89,1.25,5.64s5.64,4.59,9.41,4.59a6.43,6.43,0,0,0,1.47-.16,10.1,10.1,0,0,0,4-2.11,15,15,0,0,0,4.36-5.22,10.51,10.51,0,0,1,2.39-3c.24-.17.53-.39.76-.58,1.37-1.06,3.73-3.26,4.15-6a9.22,9.22,0,0,0,.08-1.42c0-2.86-.68-7.94-2.39-10.32l-.5-.7c-1-1.47-2.19-3.1-3.87-3.8,0-.74,0-1.47-.07-2.24,0-.61-.06-1.25-.07-1.91v-.07c0-1.22-.38-4.4-.95-9.49-.64-5.65-1.43-12.69-1.49-15.49,0-1.75-.06-5.22-.08-9.23,0-7.43-.07-16.65-.29-20.34,0-.54.1-2.11.1-4.65a251,251,0,0,0-2.34-31.86L164.59,118c-.18-1.13-.36-2.29-.56-3.47a3.72,3.72,0,0,0,.52-.79h0a8.81,8.81,0,0,0,.68-5.38c0-.4-.11-.8-.18-1.19h0c-.24-1.4-.62-3-1.07-5-.91-3.87-2.14-9.17-3.36-16.92-1.82-11.54,1.17-30.93,3-40.13,1.35.79,2.92,1.6,4.62,2.47a43.82,43.82,0,0,1,4.49,2.49,17.59,17.59,0,0,0,4.47,3.34,23.78,23.78,0,0,1,4.57,3.26,16.54,16.54,0,0,0,3.29,2.56c.67.4,1.16.69,2.9,2.86a38.75,38.75,0,0,0,8.25,7.51,69.42,69.42,0,0,0,7.91,7.65c3.84,3.08,8.09,2.19,12.6-2.65.17-.18.31-.34.43-.45l.32-.3C218.72,72.73,221.67,70,219.93,65.79ZM83.32,50.24l0,0Zm8-9.74h0ZM86.69,228.4Zm82.62,0ZM164.7,40.51h0Zm8,9.71,0,0Zm40.68,19.39L213,70c-.19.18-.42.42-.69.71-2.75,2.95-3.55,2.71-4.37,2a64.35,64.35,0,0,1-7.39-7.21,3.14,3.14,0,0,0-.71-.6,32.57,32.57,0,0,1-7.13-6.42c-2.24-2.79-3.24-3.5-4.49-4.25A10.94,10.94,0,0,1,186,52.5a30.17,30.17,0,0,0-5.66-4.08,14,14,0,0,1-3.06-2.17c-.94-1.09-2.79-2.07-6.24-3.85a53.38,53.38,0,0,1-6.28-3.57,3,3,0,0,0-5.83-.09h0l0,.12C158,41.8,152,69.78,154.63,86.4c1.25,8,2.52,13.39,3.44,17.35.43,1.86.79,3.41,1,4.64h0a8.53,8.53,0,0,1,.18,2.37,3,3,0,0,0-1.56,2.65,3.12,3.12,0,0,0,0,.52c.31,1.77.6,3.5.85,5.15l1.33,9.17a245.83,245.83,0,0,1,2.28,31.17c0,2.81-.09,4.29-.09,4.33a1.81,1.81,0,0,0,0,.38c.21,3.38.25,12.69.29,20.17,0,4,0,7.53.07,9.34.07,3.07.84,10,1.53,16,.44,3.89.89,7.92,0,8.92v.05h0c.91,0,.91.08.91.12,0,.69.05,1.34.07,2s.06,1.36.07,2c0,.43,0,.85,0,1.27a.71.71,0,0,1,0,.2h0a1,1,0,0,1,0,.17,4.15,4.15,0,0,0,3.78,3.94A19.26,19.26,0,0,1,170,230l.53.75c.67.94,1.27,4.83,1.27,6.65a5.22,5.22,0,0,1,0,.62,5.93,5.93,0,0,1-1.95,2.2l-.45.34-.25.19-.12.09a16.45,16.45,0,0,0-4.11,5.25,9.85,9.85,0,0,1-2.56,2.88,4.37,4.37,0,0,1-1.63,1c-.88.19-3.61-1.07-4.44-1.88a7.33,7.33,0,0,1-.24-2.49l0-.9a2.44,2.44,0,0,1,0-.28c0-1.34.29-4.52,1.53-12.12a21,21,0,0,0,.25-3.23c0-1.09-.09-1.85-.1-2a3,3,0,0,0-.3-1h0l-.08-.15-.41-.7c-.42-.72-1.17-2-2-3.63a56.13,56.13,0,0,1-4.43-10v0c-.9-3.43-1.8-11.55-2.59-18.72-.43-3.89-.84-7.56-1.23-10.34-1-7.15-5.72-19.66-8.26-26.38-.31-.84-.59-1.57-.83-2.21l-.16-.44a84.76,84.76,0,0,1-1.95-9.28c-2.24-12.51-6.84-16.68-6.84-16.68H129c-3.87,0-4.79,4-7.13,16.47a84.26,84.26,0,0,1-2,9.25l-.2.51-.85,2.16c-2.64,6.72-7.57,19.23-8.61,26.38-.4,2.78-.83,6.45-1.28,10.34-.09.82-.19,1.66-.29,2.51-.74,6.36-1.55,12.95-2.36,16.06l0,.15a28.63,28.63,0,0,1-1.64,4.26c-1,2.22-2.31,4.61-3.43,6.59-.56,1-1.12,1.94-1.66,2.84l-.39.64,0,.06H99a3.18,3.18,0,0,0-.35,1.08c0,.14-.1.9-.1,2a19.93,19.93,0,0,0,.26,3.24l0,.12c1.28,7.51,1.57,10.68,1.57,12v.27l0,.9a6.87,6.87,0,0,1-.26,2.5c-.85.81-3.73,2.06-4.62,1.88a5,5,0,0,1-1.77-1,9.87,9.87,0,0,1-2.6-2.82,16.4,16.4,0,0,0-4.29-5.25l-.12-.1-.27-.19c-.14-.09-.29-.21-.53-.4a5.74,5.74,0,0,1-1.95-2.13,3.62,3.62,0,0,1,0-.63c0-1.83.62-5.71,1.32-6.65l.56-.75a18.78,18.78,0,0,1,1.28-1.62A4.24,4.24,0,0,0,91,224.24a1,1,0,0,0,0-.17v.21h0a.86.86,0,0,1,0-.23c0-.41,0-.83,0-1.28,0-.65,0-1.32.07-2a2.26,2.26,0,0,1,1-2v-.09c-.89-1-.44-5,0-8.92.69-6.08,1.46-13,1.53-16,0-1.81,0-5.3.07-9.34,0-7.48.08-16.79.29-20.17a1.81,1.81,0,0,0,0-.38s-.09-1.53-.09-4.34a244.88,244.88,0,0,1,2.28-31.12l1.32-9.17c.27-1.69.55-3.42.86-5.2a2.92,2.92,0,0,0,0-.51,3,3,0,0,0-1.55-2.65c0-.12,0-.25,0-.4a11.57,11.57,0,0,1,.21-2c.22-1.23.58-2.78,1-4.64.92-4,2.19-9.39,3.44-17.35C104,69.77,98,41.74,97.14,38.85l0-.09v0a3,3,0,0,0-5.83.09A53.38,53.38,0,0,1,85,42.4c-3.45,1.78-5.3,2.76-6.24,3.85a14,14,0,0,1-3.06,2.17A30.17,30.17,0,0,0,70,52.5a10.94,10.94,0,0,1-2.22,1.75c-1.25.75-2.25,1.46-4.49,4.25a32.88,32.88,0,0,1-7.13,6.42,3.38,3.38,0,0,0-.71.6,63.42,63.42,0,0,1-7.39,7.21c-.8.64-1.63.9-4.37-2-.27-.29-.5-.53-.69-.71l-.38-.36a6.4,6.4,0,0,1-1-1.11.61.61,0,0,1,.07-.22,18.4,18.4,0,0,1,1.81-3,2.26,2.26,0,0,0,.16-.26A41.08,41.08,0,0,1,47,60.12l1.44-1.76a126.66,126.66,0,0,0,9-11.91c2.51-4,9.39-11.18,19.38-20.24,7.93-7.19,24-12.07,29-13a4.67,4.67,0,0,0,.5-.14c1-.37,3.21-1.3,5.1-2.2.93-.43,1.65-.81,2.22-1.13a31.21,31.21,0,0,0,4.84-3.64c.1,0,.21,0,.34,0a14.08,14.08,0,0,1,2.79.35l1,.18h0l1,.16A22.74,22.74,0,0,0,128,6.4h0a8.47,8.47,0,0,0,4.56.33l.79-.13h0l1-.17a14.2,14.2,0,0,1,2.88-.35h.25a30.62,30.62,0,0,0,4.84,3.63c.57.33,1.29.71,2.22,1.14,1.89.9,4.12,1.83,5.1,2.2a4.67,4.67,0,0,0,.5.14c5,1,21.06,5.84,29,13,10,9,16.87,16.24,19.38,20.24a126.66,126.66,0,0,0,9,11.91c.55.66,1,1.26,1.44,1.76a41.08,41.08,0,0,1,3.37,4.9,2.26,2.26,0,0,0,.16.26,18.4,18.4,0,0,1,1.81,3,1.94,1.94,0,0,1,.07.19A5.31,5.31,0,0,1,213.34,69.61Z"/></svg>