<svg id="Layer_1" data-name="Layer 1" xmlns="http://www.w3.org/2000/svg" viewBox="0 0 256 256"><title>valve-sitech</title><path d="M212,12.76c-22.48-10.34-52.3-16-84-16h-1.16c-1.32,0-2.62,0-3.92.06C93.15-2.64,65.29,3,44,12.76,20.79,23.44,8,37.92,8,53.52V201.94C8,217.54,20.79,232,44,242.7c22.48,10.34,52.31,16,84,16s61.5-5.69,84-16c23.23-10.68,36-25.16,36-40.76V53.52C248,37.92,235.21,23.44,212,12.76Zm-2.63,5.72c.64.29,1.27.59,1.89.89l.6.3,1.23.6.69.36,1.09.56.73.39c.33.18.67.36,1,.55l.74.41.94.54.72.42.9.54c.24.14.47.29.7.44l.87.54.68.44L223,26l.65.45.81.56.63.45.77.57.6.45c.26.19.5.39.75.58l.57.46c.25.19.49.39.73.59l.53.45.71.62.5.44.69.64.46.42.69.69.4.39.73.77.3.32c.33.36.65.72,1,1.09h0q.48.55.93,1.11l.21.28.64.84c.1.13.19.26.28.4l.52.72.29.45c.15.23.3.45.44.68l.29.48.39.66.27.5c.12.21.23.43.34.65s.17.34.25.51.21.43.31.64.15.35.23.52.18.43.26.65l.21.52c.08.21.15.43.23.64s.12.36.17.54.14.42.2.64l.15.53c0,.22.11.43.16.65l.12.54.12.64c0,.18.07.36.1.54l.09.65.06.54a.71.71,0,0,1,0,.14A46.91,46.91,0,0,0,231.77,40c-10-8.43-23.68-13.28-38.87-13.8-1.26-7-6.92-13.24-15.66-18.16A156.89,156.89,0,0,1,209.35,18.48ZM220,129.2a106,106,0,0,1-10.78,5.71A150.13,150.13,0,0,1,185,143.45v-42c0-21.43-4.91-35.17-17.21-47.33a55.66,55.66,0,0,0,16.64-9.47C207.51,53.29,220,61.6,220,79.6ZM70,45.29a58.83,58.83,0,0,0,17.62,9.49C75.74,66.79,71,80.42,71,101.48v42a149.18,149.18,0,0,1-24.22-8.53A104,104,0,0,1,36,129.19V79.6C36,62,47.91,53.68,70,45.29Zm7,56.15c0-20.52,4.62-32.71,16.84-44A124.27,124.27,0,0,0,125,61.58v88.15a228.21,228.21,0,0,1-48-5.45ZM131,93V61.54a121.25,121.25,0,0,0,30.61-4.6C174.24,68.37,179,80.62,179,101.44v42.83a227.54,227.54,0,0,1-48,5.46Zm-4.16-37.68c-36.09,0-60.33-13.52-60.33-26.16C66.51,17,89.06,4,123,3.06c1.45,0,2.91-.05,4.38-.05,35.77.14,59.76,13.58,59.76,26.15S162.93,55.32,126.84,55.32ZM74.91,8.94c-7.92,4.81-13,10.79-14.14,17.4C46.5,27.25,33.67,32,24.23,40a46.91,46.91,0,0,0-9.94,11.61.71.71,0,0,1,0-.14l.06-.54.09-.65c0-.18.06-.36.1-.54l.12-.64.12-.54c.05-.22.11-.43.16-.65l.15-.53c.06-.22.13-.43.2-.64s.11-.36.17-.54.15-.43.23-.64l.21-.52c.08-.22.17-.43.26-.65s.15-.34.23-.52.2-.43.31-.64.16-.34.25-.51.22-.44.34-.65l.27-.5.39-.66.29-.48c.14-.23.29-.45.44-.68l.29-.45.52-.72c.09-.14.18-.27.28-.4l.64-.84.21-.28q.45-.55.93-1.11h0c.32-.37.64-.73,1-1.09l.3-.32.73-.77.4-.39.69-.69.46-.42.69-.64.5-.44.71-.62.53-.45c.24-.2.48-.4.73-.59l.57-.46c.25-.19.49-.39.75-.58l.6-.45.77-.57.63-.45.81-.56.65-.45.83-.55.68-.44.87-.54c.23-.15.46-.3.7-.44l.9-.54.72-.42.94-.54.74-.41c.32-.19.66-.37,1-.55l.73-.39,1.09-.56.69-.36,1.23-.6.6-.3c.62-.3,1.25-.6,1.89-.89A152.78,152.78,0,0,1,74.91,8.94ZM14,73.62c0-11.32,5-21.81,14.14-29.53,8.51-7.2,20.15-11.53,33.18-12.42a20.51,20.51,0,0,0,4.26,8.8C46.81,47.84,30,57.73,30,79.72v45.81c-10.43-7.85-16-16.75-16-25.94ZM242,202.23c0,13.15-11.55,25.71-32.52,35.37-21.72,10-50.65,15.5-81.48,15.5s-59.76-5.5-81.48-15.5C25.55,227.94,14,215.38,14,202.23v-85c5.92,8.57,16.08,16.35,30,22.76C66.49,150.33,96.32,156,128,156s61.51-5.7,84-16.05c13.93-6.41,24.09-14.19,30-22.76Zm-16-76.7V79.73c0-22.7-17.9-32.51-37.38-40a19.86,19.86,0,0,0,3.72-8.23c14,.51,26.51,4.92,35.52,12.55S242,62.3,242,73.62v26C242,108.78,236.43,117.68,226,125.53Z"/></svg>