<svg id="Layer_1" data-name="Layer 1" xmlns="http://www.w3.org/2000/svg" viewBox="0 0 256 256"><title>zipper-prot</title><path d="M11.3,217.93h0L5.36,212a2,2,0,0,0-2.75,0L1,213.63a1.94,1.94,0,0,0,0,2.75l11.88,11.88a1.94,1.94,0,0,0,2.75,0l1.64-1.64a1.94,1.94,0,0,0,0-2.75Z"/><path d="M45.3,237.59h0l-5.94-5.94a1.94,1.94,0,0,0-2.75,0L35,233.29A1.94,1.94,0,0,0,35,236l11.88,11.88a1.94,1.94,0,0,0,2.75,0l1.64-1.64a1.94,1.94,0,0,0,0-2.75Z"/><rect x="22.3" y="197.22" width="6.21" height="20.69" rx="1.94" transform="translate(-139.3 78.72) rotate(-44.99)"/><rect x="52.44" y="212.74" width="6.21" height="20.69" rx="1.94" transform="translate(-141.48 104.62) rotate(-45)"/><rect x="39" y="184.66" width="6.21" height="20.69" rx="1.94" transform="translate(-125.59 86.92) rotate(-45.01)"/><rect x="65" y="196.04" width="6.21" height="20.69" rx="1.94" transform="translate(-126.01 108.65) rotate(-45.01)"/><rect x="55.69" y="172.1" width="6.21" height="20.69" rx="1.94" transform="translate(-111.79 95.01) rotate(-45)"/><rect x="77.56" y="179.34" width="6.21" height="20.69" rx="1.94" transform="translate(-110.5 112.6) rotate(-45)"/><rect x="147.61" y="88.47" width="6.21" height="20.69" rx="1.94" transform="translate(-25.72 135.55) rotate(-45.01)"/><rect x="162.23" y="88.47" width="6.21" height="20.69" rx="1.94" transform="translate(-21.43 145.89) rotate(-45.01)"/><rect x="162.23" y="73.84" width="6.21" height="20.69" rx="1.94" transform="translate(-11.1 141.57) rotate(-45)"/><rect x="176.86" y="73.84" width="6.21" height="20.69" rx="1.94" transform="translate(-6.81 151.91) rotate(-45)"/><rect x="176.86" y="59.21" width="6.21" height="20.69" rx="1.94" transform="translate(3.53 147.63) rotate(-45)"/><rect x="191.49" y="59.21" width="6.21" height="20.69" rx="1.94" transform="translate(7.81 157.96) rotate(-45)"/><rect x="191.49" y="44.58" width="6.21" height="20.69" rx="1.94" transform="translate(18.15 153.68) rotate(-45)"/><rect x="206.12" y="44.58" width="6.21" height="20.69" rx="1.94" transform="translate(22.44 164.03) rotate(-45)"/><rect x="206.12" y="29.95" width="6.21" height="20.69" rx="1.94" transform="translate(32.79 159.74) rotate(-45)"/><rect x="220.75" y="29.95" width="6.21" height="20.69" rx="1.94" transform="translate(37.07 170.09) rotate(-45)"/><rect x="220.75" y="15.32" width="6.21" height="20.69" rx="1.94" transform="translate(47.42 165.81) rotate(-45)"/><rect x="235.38" y="15.32" width="6.21" height="20.69" rx="1.94" transform="translate(51.7 176.15) rotate(-45)"/><path d="M252.71,62.77a1.94,1.94,0,0,0-1.54.57L141.43,173.08c-35.27,35.27-56.6,77.31-56.82,77.73A3.11,3.11,0,0,0,86,255a3.06,3.06,0,0,0,1.4.33,3.09,3.09,0,0,0,2.77-1.7c.21-.42,21.12-41.59,55.66-76.13L255.09,68.2C256.85,66.44,256.06,63.09,252.71,62.77Z"/><path d="M4.64,172.55A3.18,3.18,0,0,0,6,172.22c.42-.21,42.46-21.55,77.73-56.82L193,6.13c1.76-1.76,1-5.1-2.37-5.43a2,2,0,0,0-1.54.57L79.37,111C44.83,145.55,3.65,166.47,3.24,166.67a3.11,3.11,0,0,0,1.4,5.88Z"/><path d="M90.76,171a4.87,4.87,0,0,0,4.77-4.33,2,2,0,0,0,0-.69c-1-5.74-8.49-5.76-9.55,0a2.06,2.06,0,0,0,0,.7A4.89,4.89,0,0,0,90.76,171Zm0-6.2a1.54,1.54,0,1,1-1.09.45A1.52,1.52,0,0,1,90.76,164.84Z"/><path d="M103,175.89l17.24-17.24,13.88,4.7a1.94,1.94,0,0,0,2.5-1.33l.33-1.19c.06-.24,6.72-24.08,23.32-40.92l.8-.81a1.94,1.94,0,0,0,0-2.74L140.78,96.12a1.94,1.94,0,0,0-2.74,0l-.82.81c-16.8,16.56-40.68,23.25-40.92,23.32l-1.19.32a1.94,1.94,0,0,0-1.32,2.5l4.69,13.88L81.25,154.17A17.85,17.85,0,0,0,76,166l-4.2-4.2a1.94,1.94,0,0,0-2.75,0l-1.64,1.64a1.94,1.94,0,0,0,0,2.75L79.24,178a1.94,1.94,0,0,0,2.37.29,14.68,14.68,0,0,0,8.88,2.91A17.82,17.82,0,0,0,103,175.89ZM85.64,158.57l15.11-15.13v.24a7.87,7.87,0,0,0,2.33,5.61l4.76,4.77a7.88,7.88,0,0,0,5.61,2.33h.24L98.57,171.5A11.63,11.63,0,0,1,90.49,175a8.44,8.44,0,0,1-6-2.37C80.93,169.07,81.44,162.76,85.64,158.57Zm16.06-31.49a1.94,1.94,0,0,1,1.19-2.45c7.56-2.67,22.39-8.88,35.08-19.95a1.94,1.94,0,0,1,2.66.07l11.75,11.75a2,2,0,0,1,.08,2.66c-11.07,12.69-17.28,27.53-20,35.09a1.93,1.93,0,0,1-2.45,1.18l-6-2a17.48,17.48,0,0,0,1.72-6l8-8h0a8,8,0,0,0,0-11.22L129,123.32a8,8,0,0,0-11.22,0l-8,8a17.57,17.57,0,0,0-6,1.72Zm5.25,16.6a1.68,1.68,0,0,1,.52-1.22l14.72-14.74a1.78,1.78,0,0,1,1.23-.5,1.73,1.73,0,0,1,1.22.5l4.77,4.76a1.76,1.76,0,0,1,0,2.46l-14.74,14.73a1.76,1.76,0,0,1-2.44,0l-4.77-4.78A1.67,1.67,0,0,1,107,143.68Z"/></svg>