<svg id="Layer_1" data-name="Layer 1" xmlns="http://www.w3.org/2000/svg" viewBox="0 0 256 256"><title>p-valve</title><path d="M238.22,70.84a110.39,110.39,0,0,0-45.28-39.9l-.91-.43,1.37-2.9L167.92,15.53l-5.55,11.7L187.85,39.3l1.37-2.9.92.44A103.59,103.59,0,1,1,42,130.36v-1.44l1.18.2a53,53,0,0,0,8.91.77A52.41,52.41,0,1,0,0,83.35c2.21,20.19,16.25,37.13,35.42,43.82l.1,0,0,1.07c0,.69,0,1.39,0,2.08A110.11,110.11,0,1,0,238.22,70.84ZM6.85,77.48a45.88,45.88,0,1,1,45.88,45.88A45.94,45.94,0,0,1,6.85,77.48Z"/><path d="M52.73,108.52a31,31,0,1,0-31-31A31.08,31.08,0,0,0,52.73,108.52Zm0-55.55A24.51,24.51,0,1,1,28.22,77.48,24.54,24.54,0,0,1,52.73,53Z"/></svg>