<svg id="Layer_1" data-name="Layer 1" xmlns="http://www.w3.org/2000/svg" viewBox="0 0 256 256"><title>valve-apeks-hp</title><path d="M255.82,89.62c-1.1-13.39-7.12-25.66-15.46-30.83l-53.27-31c-2.82-14.32-31.76-22-59.09-22s-56.27,7.7-59.09,22l-53.36,31C6.4,64.52,0,79,0,94V200.46c0,27.89,56.22,49.74,128,49.74s128-21.85,128-49.74V89.72ZM76,42.44c5.84,4.24,14.6,7.4,24.58,9.41l-6.38,12C81.66,60.17,76,55.05,76,51.42Zm52,11.93a147.31,147.31,0,0,0,18-1.1V67.19a141.6,141.6,0,0,1-18,1.14,141.6,141.6,0,0,1-18-1.14V53.27A147.31,147.31,0,0,0,128,54.37Zm52-2.95c0,3.63-5.66,8.75-18.2,12.46l-6.38-12c10-2,18.74-5.17,24.58-9.41Zm-8.86,47a70.85,70.85,0,0,1,6.47,17.4L153,69.45V64.22ZM103,64.22v5.23L78.39,115.82a70.85,70.85,0,0,1,6.47-17.4v0Zm-32.79-7c3,5.42,10.07,10.09,20.59,13.42L78,94.86c-5.53,10.27-8.82,22.82-9.44,35.75C32.36,123.18,9.74,109.44,7.68,96Zm38.37,17.25A147.09,147.09,0,0,0,128,75.75a147.09,147.09,0,0,0,19.42-1.28l30.71,57.87A310.49,310.49,0,0,1,128,136.22a310.49,310.49,0,0,1-50.13-3.88Zm78.91,56.14c-.62-12.93-3.91-25.49-9.44-35.74L165.2,70.64c10.59-3.35,17.73-8.06,20.64-13.52L248.47,94C248.45,108.08,225.42,122.82,187.49,130.61Zm59.68-45.89L187,49.27V36.67l49.15,28.57C241.22,68.39,245.37,76,247.17,84.72ZM128,13.32c32.1,0,51.81,9.79,51.81,16.81,0,5.29-11.22,12.16-30.52,15.22a3.29,3.29,0,0,0-.68.1h0A137.17,137.17,0,0,1,128,46.94a137.17,137.17,0,0,1-20.59-1.49h0a3.29,3.29,0,0,0-.68-.1c-19.3-3.06-30.52-9.93-30.52-15.22C76.19,23.11,95.9,13.32,128,13.32Zm-108.24,52L69,36.67V49.33L8.43,86.89C10,77.31,14.34,68.66,19.76,65.29ZM249,200.46c0,20.4-48.42,42.23-120.5,42.23S8,220.86,8,200.46V111.13c17.61,19.21,64.28,32.61,120.5,32.61s102.89-13.4,120.5-32.61Z"/></svg>