<svg id="Layer_1" data-name="Layer 1" xmlns="http://www.w3.org/2000/svg" viewBox="0 0 256 256"><title>neck-latex</title><path d="M250.37,147.72c0-10.08-8.74-19.4-25.26-26.95l-1.32-.6,1-1c3.74-3.72,5.81-7.72,6.14-11.9,0-.39.06-.75.07-1.11v-.3c0-14.55-21.19-26.9-56.69-33.08l-.68-.12-.13-.68c-1.48-7.86-1.68-16.49-1.68-23.89,0-11-22.58-16.91-43.83-16.91S84.18,37.09,84.18,48.07c0,7.4-.2,16-1.68,23.89l-.12.68-.69.12C46.19,78.94,25,91.29,25,105.81v.24a1,1,0,0,1,0,.11c0,.34,0,.7.06,1.07.34,4.2,2.4,8.2,6.14,11.92l1,1-1.32.6c-16.52,7.55-25.25,16.87-25.25,27,0,12.23,13.13,23.45,37,31.57,22.84,7.77,53.16,12.06,85.36,12.06s62.51-4.29,85.36-12.06C237.23,171.17,250.37,160,250.37,147.72ZM100.15,41.06c5.2-1.78,14.26-3.9,27.85-3.9s22.65,2.12,27.85,3.9c4.83,1.64,10,4.35,10,7s-5.15,5.36-10,7C150.65,56.85,141.59,59,128,59s-22.65-2.12-27.85-3.9c-4.83-1.64-10-4.35-10-7S95.32,42.7,100.15,41.06ZM31,106v0c.11-10.42,19-20.83,48-26.53l1.75-.34-.62,1.67c-3.21,8.68-8.45,14.44-16,17.58l2.12,5.61C86.13,95.78,89.34,74.2,90,58.58l.07-1.64,1.43.81C99.44,62.27,113.09,65,128,65s28.57-2.7,36.51-7.22l1.42-.81.07,1.64c.67,15.62,3.88,37.2,23.75,45.33l2.12-5.61c-7.54-3.14-12.78-8.9-16-17.58l-.61-1.67,1.74.34c29,5.7,47.89,16.11,48,26.53-.24,14.86-39.28,30.73-97,30.73S31.24,120.78,31,106Zm180.43,67.66c-22.24,7.57-51.87,11.74-83.43,11.74s-61.19-4.17-83.43-11.74c-20.61-7-32.92-16.7-32.92-25.89,0-8.22,9.2-16.48,25.9-23.28l.47-.19.43.26a86.83,86.83,0,0,0,17.87,8.07C75.51,139.07,101,142.65,128,142.65s52.49-3.58,71.68-10.07a87.39,87.39,0,0,0,17.87-8.06l.43-.27.47.19c16.7,6.8,25.9,15.06,25.9,23.28C244.35,156.91,232,166.59,211.43,173.61Z"/></svg>