<svg id="Layer_1" data-name="Layer 1" xmlns="http://www.w3.org/2000/svg" viewBox="0 0 256 256"><title>inf-apeks</title><path d="M126.07,91.28c17.25,0,35.82-4.28,35.82-13.69s-18.57-13.7-35.82-13.7-35.83,4.29-35.83,13.7S108.81,91.28,126.07,91.28Zm0-21.07c19.16,0,29.5,5.24,29.5,7.38S145.23,85,126.07,85s-29.5-5.23-29.5-7.37S106.9,70.21,126.07,70.21Z"/><path d="M255.87,99.74c0-6.66-3-11.5-7.06-11.5H208.75L197.5,71.53c-7.33-13.21-40.54-20.27-72-20.27s-64.73,7.07-72,20.29l-18.6,28.59C12,108.07,0,118.39,0,130.06v31.48c0,12.08,13.55,23.1,38.16,31.05,23.51,7.59,54.71,11.77,87.84,11.77s64.33-4.18,87.84-11.77c24.61-8,38.16-19,38.16-31.05V130.06c0-6.7-4.16-13.09-12.12-18.82h8.93C252.9,111.24,255.87,106.41,255.87,99.74ZM223,120.49c-.81,6.71-10.8,13.77-27.08,19-18.6,6-43.39,9.34-69.8,9.34s-51.21-3.32-69.81-9.34C40,134.25,30,127.18,29.18,120.46L53.62,82.77c7.62,13.09,40.63,20.09,71.92,20.09s64.54-7.06,72-20.24l3.73,5.56a7.5,7.5,0,0,0-5.77,3c-1.79,2.41-2.19,5.84-1.11,9.39,1.83,6,7.32,10.62,12.51,10.62h9.85Zm-15.44-15.25c-2.06,0-5.15-2.51-6.17-5.88-.55-1.8-.3-3,.13-3.62a1.25,1.25,0,0,1,1.14-.5h39a19,19,0,0,0,0,10Zm42.17-5.42a11.63,11.63,0,0,1-.74,4.36,13,13,0,0,1,0-8.72A11.63,11.63,0,0,1,249.68,99.82ZM76.73,64c13-4.2,30.32-6.51,48.81-6.51s35.82,2.31,48.81,6.51c11.37,3.68,18.43,8.69,18.43,13.09s-7.06,9.41-18.43,13.09c-13,4.2-30.33,6.51-48.81,6.51s-35.82-2.31-48.81-6.51C65.36,86.47,58.3,81.45,58.3,77.06S65.36,67.65,76.73,64ZM246,161.89c0,17.67-48,36.6-119.5,36.6S7,179.56,7,161.89v-17.7c6.25,6.58,17,12.48,31.8,17.27,23.47,7.6,54.62,11.79,87.7,11.79s64.23-4.19,87.7-11.79c14.77-4.79,25.55-10.69,31.8-17.27Zm-.19-31.75c0,17.71-48.12,36.67-119.74,36.67S6.32,147.85,6.32,130.14c0-7.3,8.13-14.73,22.66-21L23.27,118a2.74,2.74,0,0,0-.46,1.46c-.14,10.37,10.76,19.42,31.5,26.14,19.21,6.22,44.7,9.65,71.76,9.65s52.54-3.43,71.75-9.65c20.69-6.7,31.58-15.72,31.5-26.06a3,3,0,0,0-.53-1.65l-4.43-6.6h3.3C239.36,117.06,245.81,123.75,245.81,130.14Z"/></svg>