<svg enable-background="new 0 0 288 288" viewBox="0 0 288 288" xmlns="http://www.w3.org/2000/svg"><path d="m139.5 126.4v10.3l-11.1-5.5c-2.2-1.1-4.9-.2-6 2s-.2 4.9 2 6l9.5 4.8-9.5 4.8c-2.2 1.1-3.1 3.8-2 6 .8 1.6 2.4 2.5 4 2.5.7 0 1.4-.2 2-.5l11.1-5.5v10.3c0 2.5 2 4.5 4.5 4.5s4.5-2 4.5-4.5v-10.3l11.1 5.5c.6.3 1.3.5 2 .5 1.7 0 3.2-.9 4-2.5 1.1-2.2.2-4.9-2-6l-9.5-4.8 9.5-4.8c2.2-1.1 3.1-3.8 2-6s-3.8-3.1-6-2l-11.1 5.5v-10.3c0-2.5-2-4.5-4.5-4.5s-4.5 2-4.5 4.5z"/><path d="m254.1 174.2-26.2 13-13.5-7.8 20.9-10.3c2.2-1.1 3.1-3.8 2-6s-3.8-3.1-6-2l-26.3 12.9-12.1-7c-.2-.1-.3-.2-.5-.2v-45.6c.2-.1.3-.2.5-.3l12.1-7 26.2 13c.6.3 1.3.5 2 .5 1.7 0 3.3-.9 4-2.5 1.1-2.2.2-4.9-2-6l-20.9-10.3 13.5-7.8 26.2 13c.6.3 1.3.5 2 .5 1.7 0 3.3-.9 4-2.5 1.1-2.2.2-4.9-2-6l-20.9-10.3 15.5-9c2.2-1.2 2.9-4 1.6-6.1-1.2-2.2-4-2.9-6.1-1.6l-15.5 9 1.5-23.2c.2-2.5-1.7-4.6-4.2-4.8s-4.6 1.7-4.8 4.2l-1.7 29-13.5 7.8 1.5-23.2c.2-2.5-1.7-4.6-4.2-4.8s-4.6 1.7-4.8 4.2l-1.9 29.2-11.7 6.8-40.3-24.2v-12.7l24.4-16.2c2.1-1.4 2.6-4.2 1.2-6.2-1.4-2.1-4.2-2.6-6.2-1.2l-19.4 12.9v-15.6l24.4-16.2c2.1-1.4 2.6-4.2 1.2-6.2-1.4-2.1-4.2-2.6-6.2-1.2l-19.4 12.9v-18.1c0-2.5-2-4.5-4.5-4.5s-4.5 2-4.5 4.5v17.9l-19.4-12.9c-2.1-1.4-4.9-.8-6.2 1.2-1.4 2.1-.8 4.9 1.2 6.2l24.4 16.2v15.5l-19.4-12.9c-2.1-1.4-4.9-.8-6.2 1.2-1.4 2.1-.8 4.9 1.2 6.2l24.4 16.2v12.6l-40.3 24.2-11.7-6.8-1.9-28.8c-.2-2.5-2.3-4.4-4.8-4.2s-4.4 2.3-4.2 4.8l1.5 23.2-13.5-7.8-1.9-29.2c-.2-2.5-2.3-4.4-4.8-4.2s-4.4 2.3-4.2 4.8l1.5 23.2-15.5-9c-2.2-1.2-4.9-.5-6.1 1.6-1.2 2.2-.5 4.9 1.6 6.1l15.5 9-20.9 10.3c-2.2 1.1-3.1 3.8-2 6 .8 1.6 2.4 2.5 4 2.5.7 0 1.4-.2 2-.5l26.2-13 13.5 7.8-20.9 10.3c-2.2 1.1-3.1 3.8-2 6 .8 1.6 2.4 2.5 4 2.5.7 0 1.4-.2 2-.5l26.4-12.7 12.1 7c.2.1.3.2.5.3v45.6c-.2.1-.3.1-.5.2l-12.1 6.9-26.2-13c-2.2-1.1-4.9-.2-6 2s-.2 4.9 2 6l20.9 10.3-13.5 7.8-26.2-13c-2.2-1.1-4.9-.2-6 2s-.2 4.9 2 6l20.9 10.3-15.5 9c-2.2 1.2-2.9 4-1.6 6.1.8 1.4 2.3 2.3 3.9 2.3.8 0 1.5-.2 2.2-.6l15.5-9-1.5 23.2c-.2 2.5 1.7 4.6 4.2 4.8h.3c2.4 0 4.3-1.8 4.5-4.2l1.9-29.2 13.5-7.8-1.5 23.2c-.2 2.5 1.7 4.6 4.2 4.8h.3c2.4 0 4.3-1.8 4.5-4.2l1.9-29.2 11.7-6.8 40.3 24.2v12.6l-24.4 16.2c-2.1 1.4-2.6 4.2-1.2 6.2.9 1.3 2.3 2 3.7 2 .9 0 1.7-.2 2.5-.8l19.4-12.9v15.5l-24.4 16.2c-2.1 1.4-2.6 4.2-1.2 6.2.9 1.3 2.3 2 3.7 2 .9 0 1.7-.2 2.5-.8l19.4-12.9v18.5c0 2.5 2 4.5 4.5 4.5s4.5-2 4.5-4.5v-17.9l19.4 12.9c2.1 1.4 4.9.8 6.2-1.2 1.4-2.1.8-4.9-1.2-6.2l-24.4-16.2v-15.5l19.4 12.9c2.1 1.4 4.9.8 6.2-1.2 1.4-2.1.8-4.9-1.2-6.2l-24.4-16.2v-12.6l40.3-24.2 11.7 6.8 1.9 29.2c.2 2.4 2.1 4.2 4.5 4.2h.3c2.5-.2 4.4-2.3 4.2-4.8l-1.5-23.2 13.5 7.8 1.9 29.2c.2 2.4 2.1 4.2 4.5 4.2h.3c2.5-.2 4.4-2.3 4.2-4.8l-1.5-23.2 15.5 9c.7.4 1.5.6 2.2.6 1.6 0 3.1-.8 3.9-2.3 1.2-2.2.5-4.9-1.6-6.1l-15.5-9 20.9-10.3c2.2-1.1 3.1-3.8 2-6s-4.1-3.6-6.3-2.5zm-70.7-6.4-39.4 23.7-39.4-23.7v-47.6l39.4-23.7 39.4 23.7z"/></svg>