<svg enable-background="new 0 0 179.4 253.2" height="253.2" viewBox="0 0 179.4 253.2" width="179.4" xmlns="http://www.w3.org/2000/svg"><path d="m84.4 155.7c2.5 5.8 4.6 10.8 6.7 15.8 8.1 18.8 16.2 37.6 24.2 56.4 1.1 2.5 2.3 5.1 2.8 7.8 1.4 7.1-1 12.6-7.7 15.7-6.3 2.9-12.3 1.8-16.3-3.8-4.3-6-7.8-12.7-11.4-19.2-9.3-17.3-18.5-34.6-28.4-53.3-1.7 3.7-2.9 6.2-3.9 8.8-6.8 17.6-13.4 35.2-20.4 52.7-1.6 4.1-3.6 8.1-6.3 11.6-3.8 5-9.8 6.6-14.8 3.4-3.9-2.5-6.7-7.4-8.6-11.9-1.1-2.6.4-6.5 1.3-9.6 13.1-45.6 30.6-89.5 51.1-132.2 21.6-45.2 56.1-76.9 102.8-95.4 4.2-1.7 9.3-3 13.6-2.3 3.7.6 9 3.6 9.9 6.6 1.1 3.7-.8 9.1-3.2 12.6-1.9 2.8-6.4 4-9.8 5.7-13.8 6.9-28.1 12.9-41.4 20.7-13.2 7.7-14.8 16.1-7.3 29.4 6.4 11.3 13.4 22.3 20.2 33.4 2 3.3 4.2 6.5 5.8 10 7.1 15.3 3.1 24.1-13.3 28.4-7.5 2-15.1 3.2-22.7 4.7-7.3 1.3-14.6 2.5-22.9 4zm24.1-44c-4.9 6.3-9 11.4-13.9 17.7 8.9-1 16.1-1.9 24.4-2.8-3.8-5.4-6.8-9.6-10.5-14.9z"/><path d="m145.2 86.6c-11.8-.1-20.7-9.5-20.5-21.4.2-11.4 9.3-20.3 20.7-20.4 11.6 0 21.1 9.4 21 21 .1 11.7-9.4 20.9-21.2 20.8z"/></svg>